<svg width="38" height="38" viewBox="0 0 38 38" fill="none" xmlns="http://www.w3.org/2000/svg">
<path fill-rule="evenodd" clip-rule="evenodd" d="M18.9974 0.667969C29.1226 0.667969 37.3307 8.87608 37.3307 19.0013C37.3307 29.1265 29.1226 37.3346 18.9974 37.3346C8.87217 37.3346 0.664062 29.1265 0.664062 19.0013C0.664062 8.87608 8.87217 0.667969 18.9974 0.667969ZM33.866 20.9953C32.0991 21.9144 29.7719 22.6829 27.1294 23.2128C26.7538 27.0495 25.8653 30.4363 24.5731 32.9308C29.505 30.9549 33.1434 26.4356 33.866 20.9953ZM23.9745 20.3422C23.9896 19.9008 23.9974 19.4535 23.9974 19.0013C23.9974 10.6413 21.3414 4.0013 18.9974 4.0013C16.6534 4.0013 13.9974 10.6413 13.9974 19.0013C13.9974 19.4796 14.0061 19.9522 14.0229 20.4183C15.5864 20.5818 17.257 20.668 18.9974 20.668C20.7108 20.668 22.392 20.5471 23.9745 20.3422ZM27.3244 19.7582C27.3286 19.5071 27.3307 19.2548 27.3307 19.0013C27.3307 13.4552 26.3215 8.44681 24.5731 5.07181C29.5335 7.05915 33.1853 11.6192 33.8782 17.1015C33.094 17.9818 30.6202 19.0275 27.3244 19.7582ZM14.2956 23.7969C15.7907 23.9316 17.3655 24.0013 18.9974 24.0013C20.6029 24.0013 22.1848 23.9103 23.7062 23.7415C22.9544 29.7375 20.8757 34.0013 18.9974 34.0013C17.1248 34.0013 15.0532 29.7637 14.2956 23.7969ZM10.6733 19.9183C9.71673 19.7275 8.82519 19.5028 8.01115 19.2472C5.94376 18.5979 4.59271 17.8022 4.10681 17.1803C4.77452 11.663 8.4376 7.06866 13.4216 5.07181C11.6733 8.44681 10.6641 13.4552 10.6641 19.0013C10.6641 19.3087 10.6672 19.6144 10.6733 19.9183ZM10.8793 23.3527C11.2627 27.1318 12.1452 30.4667 13.4217 32.9308C8.57535 30.9891 4.97801 26.5916 4.169 21.2776C5.90813 22.1834 8.20296 22.8875 10.8793 23.3527Z" fill="#7C8CA1"/>
</svg>
