<svg width="756" height="350" viewBox="0 0 756 350" fill="none" xmlns="http://www.w3.org/2000/svg">
<rect width="756" height="350" fill="black"/>
<rect width="756" height="350" fill="white"/>
<rect width="756" height="350" fill="url(#paint0_linear_202_1071)" fill-opacity="0.6"/>
<g filter="url(#filter0_d_202_1071)">
<rect x="340" y="135" width="110" height="110" rx="55" fill="white"/>
<path fill-rule="evenodd" clip-rule="evenodd" d="M393.144 213.553C393.018 214.019 393.373 214.476 393.861 214.476H398.136C398.624 214.476 398.98 214.019 398.853 213.553L396.716 205.674C396.519 204.949 395.478 204.949 395.282 205.674L393.144 213.553Z" fill="#0364FF"/>
<path fill-rule="evenodd" clip-rule="evenodd" d="M388.887 218.598C388.559 219.804 387.452 220.644 386.187 220.644H380.4C378.563 220.644 377.225 218.922 377.701 217.169L389.572 173.412C389.93 172.092 391.141 171.174 392.525 171.174H399.412C400.795 171.174 402.006 172.092 402.364 173.412L414.236 217.169C414.711 218.922 413.374 220.644 411.536 220.644H405.749C404.484 220.644 403.377 219.804 403.05 218.598L397.276 197.315C396.917 195.994 395.019 195.994 394.661 197.315L388.887 218.598Z" fill="#0364FF"/>
<path fill-rule="evenodd" clip-rule="evenodd" d="M417.995 210.352C417.625 211.716 415.665 211.716 415.295 210.352L410.985 194.466C410.902 194.159 410.902 193.836 410.985 193.529L416.478 173.284C416.816 172.039 417.957 171.174 419.262 171.174H424.868C426.763 171.174 428.142 172.949 427.652 174.757L417.995 210.352ZM381.017 194.44C381.101 194.133 381.101 193.809 381.017 193.502L375.532 173.284C375.194 172.039 374.052 171.174 372.748 171.174H367.142C365.247 171.174 363.868 172.949 364.358 174.757L374.008 210.326C374.378 211.69 376.337 211.69 376.707 210.326L381.017 194.44Z" fill="#0364FF"/>
</g>
<g style="mix-blend-mode:overlay">
<path fill-rule="evenodd" clip-rule="evenodd" d="M378.206 53.2369C377.422 53.2369 376.702 53.0748 376.049 52.7507C375.68 52.5637 375.359 52.3414 375.087 52.084C374.915 51.9213 374.566 52.0317 374.566 52.2647V52.6125C374.566 52.7706 374.434 52.8987 374.271 52.8987H372.856C372.693 52.8987 372.561 52.7706 372.561 52.6125V38.0493C372.561 37.8913 372.693 37.7632 372.856 37.7632H374.265C374.428 37.7632 374.56 37.8913 374.56 38.0493V43.175C374.56 43.408 374.909 43.5191 375.082 43.3569C375.356 43.099 375.679 42.8764 376.049 42.6891C376.702 42.3649 377.422 42.2029 378.206 42.2029C379.616 42.2029 380.807 42.7384 381.781 43.8094C382.783 44.8944 383.285 46.198 383.285 47.7199C383.285 49.2559 382.783 50.5594 381.781 51.6304C380.807 52.7014 379.616 53.2369 378.206 53.2369ZM377.879 51.4613C378.838 51.4613 379.645 51.109 380.299 50.4044C380.953 49.7139 381.28 48.8191 381.28 47.7199C381.28 46.6348 380.953 45.74 380.299 45.0354C379.645 44.3308 378.838 43.9785 377.879 43.9785C376.906 43.9785 376.092 44.3308 375.438 45.0354C374.799 45.74 374.479 46.6348 374.479 47.7199C374.479 48.8191 374.799 49.7209 375.438 50.4255C376.092 51.116 376.906 51.4613 377.879 51.4613ZM365.671 53.2369C364.101 53.2369 362.808 52.7155 361.791 51.6727C360.774 50.6299 360.265 49.3123 360.265 47.7199C360.265 46.1416 360.759 44.831 361.747 43.7882C362.736 42.7313 364 42.2029 365.54 42.2029C367.124 42.2029 368.381 42.7031 369.311 43.7037C370.313 44.7504 370.792 46.3246 370.729 47.7565C370.721 47.94 370.561 48.0792 370.372 48.0792H362.674C362.477 48.0792 362.317 48.2375 362.338 48.4278C362.429 49.2827 362.77 49.9838 363.36 50.5312C364.029 51.1513 364.828 51.4613 365.758 51.4613C366.944 51.4613 367.893 50.9275 368.604 49.8599C368.699 49.7171 368.888 49.6592 369.046 49.7337L370.244 50.3005C370.413 50.3804 370.481 50.5808 370.383 50.7364C369.92 51.4728 369.308 52.0597 368.548 52.497C367.705 52.9903 366.746 53.2369 365.671 53.2369ZM362.583 46.0646C362.512 46.2708 362.679 46.4727 362.904 46.4727H368.213C368.417 46.4727 368.58 46.303 368.539 46.109C368.42 45.5519 368.132 45.0813 367.676 44.6972C367.138 44.218 366.412 43.9785 365.496 43.9785C364.741 43.9785 364.087 44.2039 363.535 44.6549C363.097 45.022 362.78 45.4919 362.583 46.0646ZM359.651 42.9384C359.716 42.7421 359.565 42.5411 359.352 42.5411H357.968C357.829 42.5411 357.707 42.6299 357.668 42.7592L355.626 49.4788C355.545 49.7483 355.153 49.7539 355.063 49.4869L352.791 42.7506C352.749 42.6256 352.629 42.5411 352.494 42.5411H350.877C350.742 42.5411 350.622 42.6253 350.579 42.7499L348.287 49.4914C348.197 49.7578 347.806 49.7518 347.724 49.4826L345.682 42.7592C345.642 42.6299 345.52 42.5411 345.381 42.5411H343.953C343.741 42.5411 343.59 42.7421 343.655 42.9384L346.897 52.6879C346.938 52.8135 347.059 52.8987 347.195 52.8987H348.765C348.901 52.8987 349.022 52.8135 349.064 52.6878L351.351 45.7937C351.439 45.5294 351.824 45.529 351.913 45.7931L354.22 52.6885C354.262 52.8138 354.382 52.8987 354.518 52.8987H356.111C356.247 52.8987 356.367 52.8135 356.409 52.6879L359.651 42.9384ZM421.778 52.2857C422.359 52.8071 423.086 53.0678 423.958 53.0678C424.534 53.0678 425.052 53.0051 425.509 52.8797C425.665 52.837 425.745 52.6733 425.691 52.525L425.263 51.3514C425.205 51.1941 425.022 51.1181 424.858 51.1685C424.813 51.1821 424.767 51.1952 424.72 51.2076C424.575 51.2358 424.423 51.2499 424.263 51.2499C423.914 51.2499 423.602 51.1301 423.325 50.8906C423.049 50.6369 422.911 50.1648 422.911 49.4743V44.6028C422.911 44.4448 423.043 44.3167 423.206 44.3167H425.232C425.395 44.3167 425.527 44.1886 425.527 44.0305V42.8272C425.527 42.6692 425.395 42.5411 425.232 42.5411H423.206C423.043 42.5411 422.911 42.413 422.911 42.255V38.0493C422.911 37.8913 422.779 37.7632 422.616 37.7632H421.201C421.038 37.7632 420.906 37.8913 420.906 38.0493V42.255C420.906 42.413 420.774 42.5411 420.611 42.5411H419.327C419.164 42.5411 419.032 42.6692 419.032 42.8272V44.0305C419.032 44.1886 419.164 44.3167 419.327 44.3167H420.611C420.774 44.3167 420.906 44.4448 420.906 44.6028V50.1085C420.921 51.0385 421.211 51.7643 421.778 52.2857ZM393.14 51.9686C394.114 51.1231 394.601 50.0662 394.601 48.7979C394.601 48.0229 394.376 47.3253 393.925 46.7053C393.718 46.4104 393.42 46.0357 392.547 45.5608C392.362 45.4605 392.357 45.1931 392.532 45.0772C393.577 44.3825 394.099 43.3308 394.099 42.0972C394.099 40.9276 393.656 39.9764 392.77 39.2436C391.869 38.4826 390.757 38.1021 389.435 38.1021C388.374 38.1021 387.452 38.3769 386.667 38.9265C385.968 39.4162 385.447 40.0402 385.106 40.7985C385.035 40.9556 385.116 41.1351 385.279 41.2019L386.518 41.7108C386.694 41.7829 386.894 41.6963 386.973 41.528C387.461 40.4842 388.282 39.9623 389.435 39.9623C390.22 39.9623 390.852 40.1596 391.331 40.5541C391.811 40.9487 392.051 41.4631 392.051 42.0972C392.051 42.7877 391.796 43.3514 391.288 43.7882C390.779 44.211 390.125 44.4224 389.326 44.4224H388.525C388.341 44.4224 388.193 44.5665 388.193 44.7443V45.9183C388.193 46.0961 388.341 46.2402 388.525 46.2402H389.479C390.321 46.2402 391.041 46.4868 391.636 46.9801C392.247 47.4733 392.552 48.0792 392.552 48.7979C392.552 49.5166 392.261 50.1296 391.68 50.6369C391.084 51.1301 390.38 51.3767 389.566 51.3767C388.825 51.3767 388.185 51.1654 387.648 50.7426C387.203 50.3708 386.863 49.8662 386.628 49.2289C386.561 49.0469 386.352 48.9479 386.168 49.0223L384.956 49.5121C384.801 49.5749 384.717 49.7411 384.772 49.8956C385.111 50.8562 385.699 51.6458 386.536 52.2645C387.437 52.9128 388.447 53.2369 389.566 53.2369C390.99 53.2369 392.181 52.8141 393.14 51.9686ZM398.159 49.728C398.159 49.1643 398.428 48.6922 398.965 48.3117C399.518 47.9313 400.2 47.741 401.014 47.741C402.058 47.741 402.887 47.9496 403.501 48.3667C403.584 48.4231 403.631 48.5172 403.626 48.6155C403.586 49.3678 403.253 50.0275 402.627 50.5946C401.973 51.2006 401.225 51.5036 400.382 51.5036C399.786 51.5036 399.263 51.3345 398.813 50.9963C398.377 50.658 398.159 50.2353 398.159 49.728ZM404.262 43.3655C403.404 42.5904 402.235 42.2029 400.753 42.2029C398.966 42.2029 397.589 42.799 396.621 43.9911C396.517 44.1194 396.556 44.305 396.699 44.392L397.964 45.1642C398.097 45.2458 398.272 45.2099 398.371 45.0903C399.006 44.3209 399.836 43.9362 400.862 43.9362C401.603 43.9362 402.249 44.1758 402.801 44.6549C403.357 45.1229 403.554 45.6854 403.61 46.3206C403.63 46.539 403.384 46.6802 403.175 46.5958C402.485 46.3165 401.656 46.1768 400.687 46.1768C399.292 46.1768 398.173 46.4939 397.331 47.128C396.502 47.7622 396.088 48.6147 396.088 49.6857C396.088 50.7003 396.481 51.5458 397.265 52.2222C398.064 52.8987 399.053 53.2369 400.23 53.2369C401.61 53.2369 402.714 52.645 403.543 51.4613V52.6125C403.543 52.7706 403.675 52.8987 403.838 52.8987H405.253C405.416 52.8987 405.548 52.7706 405.548 52.6125V46.515C405.548 45.1763 405.119 44.1264 404.262 43.3655ZM417.182 52.5946C417.182 52.7625 417.041 52.8987 416.868 52.8987H415.49C415.317 52.8987 415.176 52.7625 415.176 52.5946V52.2551C415.176 52.036 414.835 51.931 414.674 52.0847C414.421 52.3259 414.116 52.5409 413.76 52.7296C413.135 53.0678 412.481 53.2369 411.798 53.2369C410.49 53.2369 409.48 52.8775 408.768 52.1588C408.071 51.4261 407.722 50.3903 407.722 49.0516V42.8451C407.722 42.6772 407.863 42.5411 408.036 42.5411H409.414C409.587 42.5411 409.727 42.6772 409.727 42.8451V48.9247C409.771 50.6158 410.65 51.4613 412.365 51.4613C413.164 51.4613 413.832 51.1513 414.37 50.5312C414.908 49.8971 415.176 49.1432 415.176 48.2695V42.8451C415.176 42.6772 415.317 42.5411 415.49 42.5411H416.868C417.041 42.5411 417.182 42.6772 417.182 42.8451V52.5946ZM427.541 38.0493C427.541 37.8913 427.673 37.7632 427.836 37.7632H429.251C429.414 37.7632 429.546 37.8913 429.546 38.0493V43.1847C429.546 43.4037 429.887 43.5079 430.047 43.3532C430.295 43.1127 430.593 42.8984 430.941 42.7102C431.58 42.372 432.241 42.2029 432.924 42.2029C434.232 42.2029 435.235 42.5693 435.932 43.3021C436.644 44.0207 437 45.0495 437 46.3882V52.6125C437 52.7706 436.868 52.8987 436.705 52.8987H435.29C435.127 52.8987 434.995 52.7706 434.995 52.6125V46.7687C434.995 44.9085 434.145 43.9785 432.445 43.9785C431.631 43.9785 430.941 44.3096 430.374 44.972C429.822 45.6202 429.546 46.3811 429.546 47.2548V52.6125C429.546 52.7706 429.414 52.8987 429.251 52.8987H427.836C427.673 52.8987 427.541 52.7706 427.541 52.6125V38.0493Z" fill="white"/>
<path d="M335.773 51.2568C335.89 51.6864 336.508 51.6864 336.625 51.2568L339.985 38.8916C340.14 38.3223 339.705 37.7632 339.107 37.7632H337.035C336.624 37.7632 336.264 38.0357 336.157 38.4276L334.262 45.4005C334.236 45.4973 334.236 45.5991 334.262 45.6958L335.773 51.2568Z" fill="white"/>
<path d="M324.031 45.3915C324.057 45.4882 324.057 45.5901 324.031 45.6868L322.519 51.2478C322.403 51.6773 321.785 51.6773 321.668 51.2478L318.31 38.8916C318.156 38.3223 318.591 37.7632 319.188 37.7632H321.26C321.672 37.7632 322.032 38.0357 322.138 38.4276L324.031 45.3915Z" fill="white"/>
<path d="M326.863 53.9749C326.76 54.3545 326.412 54.6184 326.015 54.6184H323.895C323.318 54.6184 322.897 54.0769 323.047 53.5254L327.127 38.4671C327.239 38.0519 327.619 37.7632 328.054 37.7632H330.52C330.954 37.7632 331.335 38.0519 331.447 38.4671L335.527 53.5254C335.676 54.0769 335.256 54.6184 334.679 54.6184H332.559C332.162 54.6184 331.814 54.3545 331.711 53.9749L329.698 46.544C329.585 46.1284 328.989 46.1284 328.876 46.544L326.863 53.9749Z" fill="white"/>
<path d="M328.542 52.4079C328.391 52.4079 328.28 52.273 328.32 52.1355L329.064 49.5289C329.125 49.315 329.449 49.315 329.51 49.5289L330.254 52.1355C330.294 52.273 330.183 52.4079 330.032 52.4079H328.542Z" fill="white"/>
</g>
<g filter="url(#filter1_d_202_1071)">
<rect x="137" y="134" width="108.493" height="110" rx="54.2466" fill="white"/>
<path d="M220.55 183.294C220.55 179.367 215.632 175.645 208.092 173.337C209.832 165.652 209.058 159.537 205.65 157.58C204.865 157.121 203.947 156.903 202.944 156.903V159.598C203.5 159.598 203.947 159.707 204.321 159.912C205.965 160.855 206.678 164.443 206.122 169.059C205.989 170.195 205.772 171.392 205.506 172.612C203.137 172.032 200.551 171.585 197.832 171.295C196.201 169.059 194.509 167.029 192.806 165.253C196.745 161.592 200.443 159.586 202.956 159.586V156.891C199.633 156.891 195.283 159.26 190.884 163.368C186.486 159.284 182.136 156.939 178.813 156.939V159.634C181.314 159.634 185.024 161.628 188.963 165.265C187.271 167.041 185.579 169.059 183.972 171.295C181.241 171.585 178.656 172.032 176.287 172.624C176.009 171.416 175.804 170.244 175.659 169.12C175.091 164.504 175.792 160.915 177.423 159.96C177.785 159.743 178.257 159.646 178.813 159.646V156.952C177.798 156.952 176.879 157.169 176.082 157.628C172.686 159.586 171.925 165.688 173.677 173.349C166.161 175.669 161.267 179.379 161.267 183.294C161.267 187.221 166.185 190.943 173.725 193.251C171.985 200.936 172.759 207.051 176.166 209.008C176.952 209.467 177.87 209.685 178.885 209.685C182.208 209.685 186.558 207.316 190.957 203.208C195.355 207.292 199.705 209.637 203.028 209.637C204.043 209.637 204.962 209.419 205.759 208.96C209.155 207.002 209.916 200.9 208.164 193.239C215.656 190.931 220.55 187.209 220.55 183.294V183.294ZM204.817 175.234C204.37 176.793 203.814 178.4 203.185 180.007C202.69 179.041 202.171 178.074 201.603 177.107C201.047 176.14 200.454 175.198 199.862 174.28C201.578 174.533 203.234 174.848 204.817 175.234V175.234ZM199.282 188.103C198.34 189.735 197.373 191.281 196.37 192.719C194.57 192.876 192.745 192.961 190.908 192.961C189.084 192.961 187.259 192.876 185.471 192.731C184.468 191.293 183.489 189.759 182.546 188.14C181.628 186.557 180.794 184.949 180.033 183.33C180.782 181.711 181.628 180.092 182.535 178.509C183.477 176.878 184.444 175.331 185.447 173.893C187.247 173.736 189.072 173.651 190.908 173.651C192.733 173.651 194.558 173.736 196.346 173.881C197.349 175.319 198.328 176.853 199.27 178.473C200.189 180.056 201.022 181.663 201.784 183.282C201.022 184.901 200.189 186.52 199.282 188.103V188.103ZM203.185 186.533C203.82 188.107 204.376 189.712 204.853 191.342C203.27 191.728 201.603 192.055 199.875 192.308C200.467 191.378 201.059 190.424 201.615 189.445C202.171 188.478 202.69 187.499 203.185 186.533ZM190.932 199.426C189.809 198.266 188.685 196.973 187.573 195.559C188.661 195.607 189.773 195.644 190.896 195.644C192.032 195.644 193.156 195.62 194.256 195.559C193.218 196.907 192.109 198.198 190.932 199.426V199.426ZM181.942 192.308C180.226 192.055 178.571 191.741 176.988 191.354C177.435 189.795 177.991 188.188 178.619 186.581C179.115 187.547 179.634 188.514 180.202 189.481C180.77 190.448 181.35 191.39 181.942 192.308ZM190.872 167.162C191.996 168.322 193.12 169.615 194.231 171.029C193.144 170.981 192.032 170.944 190.908 170.944C189.773 170.944 188.649 170.969 187.549 171.029C188.586 169.681 189.696 168.39 190.872 167.162V167.162ZM181.93 174.28C181.338 175.21 180.746 176.165 180.19 177.143C179.634 178.11 179.115 179.077 178.619 180.043C177.985 178.469 177.428 176.864 176.952 175.234C178.535 174.86 180.202 174.533 181.93 174.28V174.28ZM170.994 189.408C166.717 187.584 163.95 185.191 163.95 183.294C163.95 181.397 166.717 178.992 170.994 177.18C172.034 176.733 173.17 176.334 174.342 175.959C175.03 178.328 175.937 180.793 177.06 183.318C175.949 185.832 175.055 188.285 174.378 190.641C173.182 190.266 172.046 189.856 170.994 189.408ZM177.496 206.676C175.852 205.734 175.139 202.145 175.695 197.529C175.828 196.393 176.045 195.196 176.311 193.976C178.68 194.556 181.266 195.003 183.984 195.293C185.616 197.529 187.307 199.559 189.011 201.335C185.072 204.996 181.374 207.002 178.861 207.002C178.317 206.99 177.858 206.881 177.496 206.676V206.676ZM206.158 197.468C206.726 202.084 206.025 205.673 204.394 206.628C204.031 206.845 203.56 206.942 203.004 206.942C200.503 206.942 196.793 204.948 192.854 201.311C194.546 199.535 196.237 197.517 197.845 195.281C200.576 194.991 203.161 194.544 205.53 193.952C205.808 195.172 206.025 196.345 206.158 197.468ZM210.81 189.408C209.771 189.856 208.635 190.254 207.463 190.629C206.774 188.261 205.868 185.795 204.744 183.27C205.856 180.756 206.75 178.304 207.427 175.947C208.623 176.322 209.759 176.733 210.822 177.18C215.1 179.004 217.867 181.397 217.867 183.294C217.855 185.191 215.088 187.596 210.81 189.408V189.408Z" fill="#61DAFB"/>
<path d="M190.898 188.815C193.948 188.815 196.421 186.343 196.421 183.293C196.421 180.243 193.948 177.771 190.898 177.771C187.848 177.771 185.376 180.243 185.376 183.293C185.376 186.343 187.848 188.815 190.898 188.815Z" fill="#61DAFB"/>
<path d="M163.961 219.192H162.138V222.332H161.109V214.571H163.679C164.553 214.571 165.224 214.77 165.693 215.168C166.166 215.566 166.402 216.145 166.402 216.905C166.402 217.389 166.271 217.81 166.008 218.169C165.748 218.528 165.386 218.796 164.92 218.974L166.743 222.268V222.332H165.645L163.961 219.192ZM162.138 218.355H163.711C164.219 218.355 164.622 218.224 164.92 217.961C165.222 217.698 165.374 217.346 165.374 216.905C165.374 216.426 165.23 216.058 164.942 215.802C164.658 215.546 164.245 215.417 163.705 215.413H162.138V218.355ZM170.08 222.438C169.298 222.438 168.662 222.182 168.172 221.671C167.681 221.155 167.436 220.468 167.436 219.608V219.427C167.436 218.855 167.545 218.345 167.761 217.897C167.982 217.446 168.287 217.094 168.678 216.842C169.073 216.586 169.499 216.458 169.957 216.458C170.707 216.458 171.29 216.705 171.706 217.199C172.122 217.692 172.329 218.4 172.329 219.32V219.73H168.422C168.437 220.299 168.602 220.759 168.918 221.111C169.238 221.459 169.643 221.633 170.133 221.633C170.482 221.633 170.777 221.562 171.018 221.42C171.26 221.278 171.471 221.09 171.653 220.855L172.255 221.324C171.771 222.067 171.047 222.438 170.08 222.438ZM169.957 217.268C169.56 217.268 169.225 217.414 168.955 217.705C168.685 217.993 168.518 218.398 168.454 218.92H171.343V218.846C171.315 218.345 171.18 217.957 170.938 217.684C170.697 217.407 170.37 217.268 169.957 217.268ZM177.036 222.332C176.979 222.218 176.933 222.015 176.897 221.724C176.439 222.2 175.892 222.438 175.256 222.438C174.687 222.438 174.22 222.278 173.854 221.958C173.492 221.635 173.31 221.226 173.31 220.733C173.31 220.132 173.538 219.667 173.992 219.336C174.451 219.002 175.094 218.835 175.922 218.835H176.881V218.382C176.881 218.037 176.778 217.764 176.572 217.561C176.366 217.355 176.062 217.252 175.661 217.252C175.309 217.252 175.014 217.341 174.776 217.518C174.538 217.696 174.419 217.911 174.419 218.163H173.427C173.427 217.876 173.529 217.598 173.731 217.332C173.937 217.062 174.215 216.849 174.563 216.692C174.915 216.536 175.3 216.458 175.719 216.458C176.384 216.458 176.904 216.625 177.281 216.959C177.658 217.289 177.853 217.746 177.867 218.329V220.983C177.867 221.513 177.935 221.934 178.07 222.246V222.332H177.036ZM175.4 221.58C175.709 221.58 176.002 221.5 176.279 221.34C176.556 221.18 176.757 220.972 176.881 220.717V219.533H176.108C174.9 219.533 174.296 219.887 174.296 220.594C174.296 220.903 174.399 221.145 174.605 221.319C174.811 221.493 175.076 221.58 175.4 221.58ZM181.727 221.633C182.078 221.633 182.386 221.527 182.649 221.313C182.912 221.1 183.057 220.834 183.086 220.514H184.019C184.001 220.844 183.887 221.159 183.677 221.457C183.468 221.756 183.187 221.994 182.835 222.172C182.487 222.349 182.117 222.438 181.727 222.438C180.941 222.438 180.316 222.177 179.85 221.655C179.388 221.129 179.157 220.411 179.157 219.501V219.336C179.157 218.775 179.26 218.275 179.467 217.838C179.673 217.401 179.967 217.062 180.351 216.82C180.739 216.578 181.195 216.458 181.721 216.458C182.368 216.458 182.905 216.651 183.331 217.039C183.761 217.426 183.99 217.929 184.019 218.547H183.086C183.057 218.174 182.915 217.868 182.659 217.63C182.407 217.389 182.094 217.268 181.721 217.268C181.22 217.268 180.831 217.449 180.554 217.812C180.28 218.17 180.143 218.691 180.143 219.373V219.56C180.143 220.224 180.28 220.736 180.554 221.095C180.828 221.454 181.219 221.633 181.727 221.633ZM186.465 215.168V216.564H187.542V217.327H186.465V220.903C186.465 221.134 186.513 221.308 186.609 221.425C186.705 221.539 186.868 221.596 187.1 221.596C187.213 221.596 187.369 221.575 187.568 221.532V222.332C187.309 222.403 187.057 222.438 186.811 222.438C186.371 222.438 186.039 222.305 185.815 222.038C185.591 221.772 185.479 221.393 185.479 220.903V217.327H184.429V216.564H185.479V215.168H186.465ZM197.525 222.332H196.496L192.59 216.351V222.332H191.561V214.571H192.59L196.507 220.578V214.571H197.525V222.332ZM202.749 222.332C202.692 222.218 202.646 222.015 202.61 221.724C202.152 222.2 201.605 222.438 200.969 222.438C200.4 222.438 199.933 222.278 199.567 221.958C199.204 221.635 199.023 221.226 199.023 220.733C199.023 220.132 199.25 219.667 199.705 219.336C200.164 219.002 200.807 218.835 201.635 218.835H202.594V218.382C202.594 218.037 202.491 217.764 202.285 217.561C202.079 217.355 201.775 217.252 201.374 217.252C201.022 217.252 200.727 217.341 200.489 217.518C200.251 217.696 200.132 217.911 200.132 218.163H199.14C199.14 217.876 199.242 217.598 199.444 217.332C199.65 217.062 199.927 216.849 200.276 216.692C200.628 216.536 201.013 216.458 201.432 216.458C202.097 216.458 202.617 216.625 202.994 216.959C203.371 217.289 203.566 217.746 203.58 218.329V220.983C203.58 221.513 203.648 221.934 203.783 222.246V222.332H202.749ZM201.113 221.58C201.422 221.58 201.715 221.5 201.992 221.34C202.269 221.18 202.47 220.972 202.594 220.717V219.533H201.821C200.613 219.533 200.009 219.887 200.009 220.594C200.009 220.903 200.112 221.145 200.318 221.319C200.524 221.493 200.789 221.58 201.113 221.58ZM206.464 215.168V216.564H207.541V217.327H206.464V220.903C206.464 221.134 206.512 221.308 206.608 221.425C206.704 221.539 206.867 221.596 207.098 221.596C207.212 221.596 207.368 221.575 207.567 221.532V222.332C207.308 222.403 207.056 222.438 206.81 222.438C206.37 222.438 206.038 222.305 205.814 222.038C205.59 221.772 205.478 221.393 205.478 220.903V217.327H204.428V216.564H205.478V215.168H206.464ZM209.769 222.332H208.783V216.564H209.769V222.332ZM208.703 215.034C208.703 214.875 208.751 214.74 208.847 214.629C208.946 214.519 209.092 214.464 209.284 214.464C209.476 214.464 209.621 214.519 209.721 214.629C209.82 214.74 209.87 214.875 209.87 215.034C209.87 215.194 209.82 215.328 209.721 215.434C209.621 215.541 209.476 215.594 209.284 215.594C209.092 215.594 208.946 215.541 208.847 215.434C208.751 215.328 208.703 215.194 208.703 215.034ZM213.255 220.994L214.683 216.564H215.691L213.622 222.332H212.871L210.782 216.564H211.789L213.255 220.994ZM218.958 222.438C218.176 222.438 217.54 222.182 217.05 221.671C216.559 221.155 216.314 220.468 216.314 219.608V219.427C216.314 218.855 216.423 218.345 216.639 217.897C216.859 217.446 217.165 217.094 217.556 216.842C217.951 216.586 218.377 216.458 218.835 216.458C219.585 216.458 220.168 216.705 220.584 217.199C220.999 217.692 221.207 218.4 221.207 219.32V219.73H217.3C217.315 220.299 217.48 220.759 217.796 221.111C218.116 221.459 218.521 221.633 219.011 221.633C219.359 221.633 219.654 221.562 219.896 221.42C220.138 221.278 220.349 221.09 220.53 220.855L221.133 221.324C220.649 222.067 219.924 222.438 218.958 222.438ZM218.835 217.268C218.437 217.268 218.103 217.414 217.833 217.705C217.563 217.993 217.396 218.398 217.332 218.92H220.221V218.846C220.193 218.345 220.058 217.957 219.816 217.684C219.575 217.407 219.248 217.268 218.835 217.268Z" fill="#61DAFB"/>
</g>
<g clip-path="url(#clip0_202_1071)">
<path fill-rule="evenodd" clip-rule="evenodd" d="M545 141H655V251H545V141Z" fill="black"/>
<g clip-path="url(#clip1_202_1071)">
<path fill-rule="evenodd" clip-rule="evenodd" d="M604.983 167.554L604.917 149.8H595.017L595.083 167.554L600.033 174.352L604.983 167.554ZM595.083 197.98V215.8H604.983V197.98L600.033 191.182L595.083 197.98Z" fill="white"/>
<path fill-rule="evenodd" clip-rule="evenodd" d="M604.983 197.98L615.411 212.368L623.397 206.56L612.969 192.172L604.983 189.598V197.98ZM595.083 167.554L584.589 153.166L576.603 158.974L587.031 173.362L595.083 175.936V167.554Z" fill="#00F2E6"/>
<path fill-rule="evenodd" clip-rule="evenodd" d="M587.031 173.362L570.135 167.884L567.099 177.256L583.995 182.8L591.981 180.16L587.031 173.362ZM608.019 185.374L612.969 192.172L629.865 197.65L632.901 188.278L616.005 182.8L608.019 185.374Z" fill="#00B9F1"/>
<path fill-rule="evenodd" clip-rule="evenodd" d="M616.005 182.8L632.901 177.256L629.865 167.884L612.969 173.362L608.019 180.16L616.005 182.8ZM583.995 182.8L567.099 188.278L570.135 197.65L587.031 192.172L591.981 185.374L583.995 182.8Z" fill="#D63AFF"/>
<path fill-rule="evenodd" clip-rule="evenodd" d="M587.031 192.172L576.603 206.56L584.589 212.368L595.083 197.98V189.598L587.031 192.172ZM612.969 173.362L623.397 158.974L615.411 153.166L604.983 167.554V175.936L612.969 173.362Z" fill="#FB015B"/>
</g>
<path fill-rule="evenodd" clip-rule="evenodd" d="M572.863 223.5V238.154C572.863 241.377 570.223 244.017 567 244.017V241.082C568.635 241.082 569.935 239.782 569.935 238.147V223.5H572.863ZM626.387 226.435H633V223.507H616.879V226.435H623.452V244.024H626.387V226.435ZM608.041 223.5V238.154C608.041 239.789 606.741 241.089 605.106 241.089C603.471 241.089 602.171 239.789 602.171 238.154V229.363C602.171 226.14 599.531 223.5 596.308 223.5C593.085 223.5 590.445 226.14 590.445 229.363V238.161C590.445 239.796 589.145 241.096 587.51 241.096C585.875 241.096 584.575 239.796 584.575 238.161V223.5H581.641V238.154C581.641 241.377 584.281 244.017 587.504 244.017C590.726 244.017 593.366 241.377 593.366 238.154V229.363C593.366 227.728 594.666 226.428 596.301 226.428C597.936 226.428 599.236 227.728 599.236 229.363V238.161C599.236 241.384 601.876 244.024 605.099 244.024C608.322 244.024 610.962 241.384 610.962 238.161V223.5H608.041Z" fill="white"/>
</g>
<defs>
<filter id="filter0_d_202_1071" x="306" y="101" width="178" height="178" filterUnits="userSpaceOnUse" color-interpolation-filters="sRGB">
<feFlood flood-opacity="0" result="BackgroundImageFix"/>
<feColorMatrix in="SourceAlpha" type="matrix" values="0 0 0 0 0 0 0 0 0 0 0 0 0 0 0 0 0 0 127 0" result="hardAlpha"/>
<feOffset/>
<feGaussianBlur stdDeviation="17"/>
<feComposite in2="hardAlpha" operator="out"/>
<feColorMatrix type="matrix" values="0 0 0 0 0.0117647 0 0 0 0 0.392157 0 0 0 0 1 0 0 0 0.2 0"/>
<feBlend mode="normal" in2="BackgroundImageFix" result="effect1_dropShadow_202_1071"/>
<feBlend mode="normal" in="SourceGraphic" in2="effect1_dropShadow_202_1071" result="shape"/>
</filter>
<filter id="filter1_d_202_1071" x="103" y="100" width="176.493" height="178" filterUnits="userSpaceOnUse" color-interpolation-filters="sRGB">
<feFlood flood-opacity="0" result="BackgroundImageFix"/>
<feColorMatrix in="SourceAlpha" type="matrix" values="0 0 0 0 0 0 0 0 0 0 0 0 0 0 0 0 0 0 127 0" result="hardAlpha"/>
<feOffset/>
<feGaussianBlur stdDeviation="17"/>
<feComposite in2="hardAlpha" operator="out"/>
<feColorMatrix type="matrix" values="0 0 0 0 0.0117647 0 0 0 0 0.392157 0 0 0 0 1 0 0 0 0.2 0"/>
<feBlend mode="normal" in2="BackgroundImageFix" result="effect1_dropShadow_202_1071"/>
<feBlend mode="normal" in="SourceGraphic" in2="effect1_dropShadow_202_1071" result="shape"/>
</filter>
<linearGradient id="paint0_linear_202_1071" x1="0" y1="206.5" x2="756" y2="206.5" gradientUnits="userSpaceOnUse">
<stop stop-color="#0CB8E8"/>
<stop offset="0.510417" stop-color="#0364FF"/>
<stop offset="1" stop-color="#010A38"/>
</linearGradient>
<clipPath id="clip0_202_1071">
<rect width="110" height="110" fill="white" transform="translate(545 141)"/>
</clipPath>
<clipPath id="clip1_202_1071">
<rect width="66" height="66" fill="white" transform="translate(567 149.8)"/>
</clipPath>
</defs>
</svg>
