<svg width="756" height="350" viewBox="0 0 756 350" fill="none" xmlns="http://www.w3.org/2000/svg">
<rect width="756" height="350" fill="white"/>
<rect width="756" height="350" fill="url(#paint0_linear_1169_243015)" fill-opacity="0.6"/>
<rect width="756" height="350" fill="url(#paint1_linear_1169_243015)"/>
<rect width="756" height="350" fill="white" fill-opacity="0.29"/>
<path fill-rule="evenodd" clip-rule="evenodd" d="M379.831 178.373C377.175 178.373 374.74 177.819 372.526 176.71C371.278 176.07 370.192 175.31 369.271 174.43C368.688 173.874 367.509 174.251 367.509 175.048V176.238C367.509 176.778 367.061 177.216 366.509 177.216H361.718C361.167 177.216 360.72 176.778 360.72 176.238V126.43C360.72 125.889 361.167 125.451 361.718 125.451H366.487C367.039 125.451 367.486 125.889 367.486 126.43V143.96C367.486 144.757 368.669 145.137 369.253 144.582C370.181 143.7 371.276 142.939 372.526 142.298C374.74 141.19 377.175 140.635 379.831 140.635C384.604 140.635 388.638 142.467 391.933 146.13C395.328 149.841 397.025 154.299 397.025 159.504C397.025 164.757 395.328 169.216 391.933 172.878C388.638 176.541 384.604 178.373 379.831 178.373ZM378.725 172.3C381.972 172.3 384.702 171.095 386.916 168.685C389.129 166.324 390.237 163.263 390.237 159.504C390.237 155.793 389.129 152.733 386.916 150.323C384.702 147.913 381.972 146.708 378.725 146.708C375.429 146.708 372.674 147.913 370.461 150.323C368.296 152.733 367.214 155.793 367.214 159.504C367.214 163.263 368.296 166.348 370.461 168.758C372.674 171.119 375.429 172.3 378.725 172.3ZM337.392 178.373C332.079 178.373 327.7 176.59 324.257 173.023C320.814 169.457 319.092 164.95 319.092 159.504C319.092 154.106 320.765 149.624 324.109 146.057C327.455 142.443 331.734 140.635 336.95 140.635C342.311 140.635 346.567 142.346 349.715 145.768C353.109 149.348 354.731 154.732 354.518 159.629C354.49 160.257 353.949 160.733 353.308 160.733H327.248C326.579 160.733 326.039 161.274 326.107 161.925C326.419 164.849 327.573 167.247 329.57 169.119C331.833 171.24 334.539 172.3 337.687 172.3C341.704 172.3 344.916 170.474 347.324 166.823C347.645 166.335 348.286 166.137 348.819 166.392L352.875 168.33C353.447 168.603 353.676 169.289 353.345 169.821C351.777 172.34 349.706 174.347 347.132 175.843C344.279 177.529 341.032 178.373 337.392 178.373ZM326.937 153.843C326.697 154.548 327.265 155.239 328.024 155.239H345.997C346.688 155.239 347.242 154.658 347.101 153.995C346.698 152.089 345.725 150.48 344.181 149.166C342.36 147.527 339.901 146.708 336.802 146.708C334.243 146.708 332.03 147.479 330.16 149.021C328.678 150.277 327.605 151.884 326.937 153.843ZM317.011 143.151C317.231 142.48 316.721 141.792 316 141.792H311.315C310.844 141.792 310.43 142.096 310.298 142.538L303.387 165.52C303.109 166.442 301.784 166.461 301.479 165.548L293.788 142.509C293.646 142.081 293.239 141.792 292.78 141.792H287.306C286.849 141.792 286.443 142.08 286.299 142.506L278.539 165.563C278.232 166.474 276.909 166.453 276.632 165.533L269.718 142.538C269.585 142.096 269.17 141.792 268.7 141.792H263.867C263.147 141.792 262.636 142.48 262.857 143.151L273.831 176.495C273.973 176.925 274.381 177.216 274.841 177.216H280.158C280.619 177.216 281.027 176.925 281.168 176.495L288.912 152.916C289.21 152.012 290.515 152.011 290.814 152.914L298.624 176.497C298.766 176.926 299.174 177.216 299.634 177.216H305.026C305.486 177.216 305.894 176.925 306.036 176.495L317.011 143.151ZM527.345 175.12C529.313 176.903 531.773 177.794 534.725 177.794C536.678 177.794 538.43 177.58 539.979 177.151C540.507 177.005 540.775 176.445 540.592 175.938L539.143 171.924C538.95 171.386 538.328 171.126 537.772 171.299C537.622 171.345 537.467 171.39 537.308 171.433C536.816 171.529 536.299 171.577 535.757 171.577C534.577 171.577 533.52 171.167 532.585 170.348C531.651 169.481 531.183 167.866 531.183 165.504V148.843C531.183 148.303 531.63 147.865 532.181 147.865H539.039C539.591 147.865 540.038 147.427 540.038 146.886V142.771C540.038 142.23 539.591 141.792 539.039 141.792H532.181C531.63 141.792 531.183 141.354 531.183 140.814V126.43C531.183 125.889 530.736 125.451 530.184 125.451H525.393C524.841 125.451 524.394 125.889 524.394 126.43V140.814C524.394 141.354 523.947 141.792 523.395 141.792H519.047C518.495 141.792 518.048 142.23 518.048 142.771V146.886C518.048 147.427 518.495 147.865 519.047 147.865H523.395C523.947 147.865 524.394 148.303 524.394 148.843V167.673C524.443 170.854 525.427 173.336 527.345 175.12ZM430.392 174.035C433.688 171.143 435.336 167.529 435.336 163.191C435.336 160.54 434.573 158.155 433.049 156.034C432.346 155.026 431.339 153.744 428.381 152.12C427.757 151.777 427.74 150.862 428.331 150.466C431.87 148.09 433.638 144.493 433.638 140.274C433.638 136.274 432.138 133.021 429.137 130.514C426.087 127.912 422.324 126.61 417.847 126.61C414.256 126.61 411.132 127.55 408.476 129.43C406.108 131.105 404.347 133.239 403.191 135.832C402.951 136.37 403.227 136.983 403.777 137.212L407.973 138.953C408.566 139.199 409.246 138.903 409.512 138.327C411.164 134.757 413.943 132.972 417.847 132.972C420.504 132.972 422.643 133.647 424.267 134.997C425.89 136.346 426.702 138.105 426.702 140.274C426.702 142.636 425.842 144.563 424.12 146.057C422.398 147.503 420.185 148.226 417.478 148.226H414.765C414.144 148.226 413.641 148.719 413.641 149.327V153.343C413.641 153.951 414.144 154.444 414.765 154.444H417.995C420.848 154.444 423.283 155.287 425.3 156.974C427.367 158.661 428.399 160.733 428.399 163.191C428.399 165.649 427.416 167.746 425.448 169.481C423.431 171.167 421.045 172.011 418.29 172.011C415.781 172.011 413.617 171.288 411.796 169.842C410.289 168.57 409.138 166.845 408.343 164.665C408.116 164.043 407.411 163.704 406.788 163.958L402.684 165.634C402.157 165.849 401.876 166.417 402.06 166.945C403.208 170.231 405.199 172.931 408.033 175.047C411.083 177.264 414.503 178.373 418.29 178.373C423.111 178.373 427.145 176.927 430.392 174.035ZM447.382 166.372C447.382 164.444 448.292 162.83 450.112 161.528C451.982 160.227 454.294 159.576 457.049 159.576C460.584 159.576 463.39 160.29 465.467 161.716C465.749 161.909 465.907 162.231 465.89 162.567C465.755 165.14 464.628 167.396 462.51 169.336C460.296 171.408 457.763 172.445 454.909 172.445C452.893 172.445 451.121 171.866 449.596 170.71C448.12 169.553 447.382 168.107 447.382 166.372ZM468.044 144.612C465.141 141.961 461.181 140.635 456.163 140.635C450.113 140.635 445.452 142.674 442.176 146.751C441.824 147.19 441.957 147.825 442.439 148.122L446.721 150.763C447.174 151.043 447.766 150.92 448.1 150.511C450.25 147.879 453.061 146.563 456.533 146.563C459.041 146.563 461.231 147.383 463.1 149.021C464.982 150.622 465.647 152.546 465.839 154.719C465.903 155.465 465.071 155.948 464.365 155.66C462.029 154.704 459.221 154.227 455.942 154.227C451.22 154.227 447.431 155.311 444.578 157.48C441.774 159.649 440.373 162.565 440.373 166.227C440.373 169.698 441.7 172.589 444.357 174.903C447.063 177.216 450.408 178.373 454.393 178.373C459.066 178.373 462.805 176.349 465.609 172.3V176.238C465.609 176.778 466.056 177.216 466.608 177.216H471.399C471.95 177.216 472.397 176.778 472.397 176.238V155.383C472.397 150.805 470.946 147.214 468.044 144.612ZM511.785 176.176C511.785 176.751 511.31 177.216 510.723 177.216H506.057C505.471 177.216 504.996 176.751 504.996 176.176V175.015C504.996 174.266 503.838 173.907 503.294 174.432C502.439 175.257 501.407 175.993 500.199 176.638C498.085 177.794 495.87 178.373 493.559 178.373C489.131 178.373 485.712 177.144 483.301 174.686C480.94 172.18 479.759 168.637 479.759 164.059V142.832C479.759 142.258 480.235 141.792 480.82 141.792H485.487C486.073 141.792 486.548 142.258 486.548 142.832V163.625C486.696 169.408 489.673 172.3 495.477 172.3C498.182 172.3 500.446 171.24 502.265 169.119C504.086 166.95 504.996 164.372 504.996 161.384V142.832C504.996 142.258 505.471 141.792 506.057 141.792H510.723C511.31 141.792 511.785 142.258 511.785 142.832V176.176ZM546.856 126.43C546.856 125.889 547.303 125.451 547.855 125.451H552.646C553.197 125.451 553.645 125.889 553.645 126.43V143.993C553.645 144.742 554.797 145.099 555.339 144.57C556.181 143.747 557.19 143.014 558.367 142.37C560.532 141.214 562.771 140.635 565.083 140.635C569.51 140.635 572.905 141.889 575.266 144.395C577.676 146.853 578.882 150.371 578.882 154.95V176.238C578.882 176.778 578.434 177.216 577.882 177.216H573.092C572.539 177.216 572.093 176.778 572.093 176.238V156.251C572.093 149.889 569.215 146.708 563.459 146.708C560.704 146.708 558.368 147.841 556.449 150.106C554.58 152.323 553.645 154.925 553.645 157.914V176.238C553.645 176.778 553.197 177.216 552.646 177.216H547.855C547.303 177.216 546.856 176.778 546.856 176.238V126.43Z" fill="#F3F3F4"/>
<path d="M236.173 171.601C236.568 173.07 238.661 173.07 239.056 171.601L250.432 129.311C250.955 127.363 249.482 125.451 247.459 125.451H240.445C239.052 125.451 237.832 126.383 237.472 127.724L231.057 151.572C230.968 151.903 230.968 152.251 231.057 152.582L236.173 171.601Z" fill="white"/>
<path d="M196.416 151.541C196.505 151.872 196.505 152.22 196.416 152.551L191.3 171.57C190.905 173.039 188.812 173.039 188.417 171.57L177.05 129.311C176.526 127.363 177.999 125.451 180.023 125.451H187.037C188.43 125.451 189.649 126.383 190.01 127.724L196.416 151.541Z" fill="white"/>
<path d="M206.007 180.897C205.659 182.195 204.481 183.098 203.136 183.098H195.958C194.004 183.098 192.581 181.246 193.087 179.36L206.899 127.859C207.28 126.439 208.568 125.451 210.039 125.451H218.387C219.859 125.451 221.147 126.439 221.528 127.859L235.34 179.36C235.845 181.246 234.423 183.098 232.468 183.098H225.291C223.946 183.098 222.768 182.195 222.42 180.897L215.604 155.483C215.223 154.061 213.204 154.061 212.823 155.483L206.007 180.897Z" fill="white"/>
<path d="M211.692 175.536C211.178 175.536 210.804 175.074 210.937 174.604L213.458 165.689C213.665 164.958 214.76 164.958 214.967 165.689L217.488 174.604C217.621 175.074 217.247 175.536 216.733 175.536H211.692Z" fill="white"/>
<path d="M460.913 219.21C459.533 219.21 458.293 218.97 457.193 218.49C456.113 217.99 455.263 217.31 454.643 216.45C454.023 215.57 453.703 214.56 453.683 213.42H456.593C456.693 214.4 457.093 215.23 457.793 215.91C458.513 216.57 459.553 216.9 460.913 216.9C462.213 216.9 463.233 216.58 463.973 215.94C464.733 215.28 465.113 214.44 465.113 213.42C465.113 212.62 464.893 211.97 464.453 211.47C464.013 210.97 463.463 210.59 462.803 210.33C462.143 210.07 461.253 209.79 460.133 209.49C458.753 209.13 457.643 208.77 456.803 208.41C455.983 208.05 455.273 207.49 454.673 206.73C454.093 205.95 453.803 204.91 453.803 203.61C453.803 202.47 454.093 201.46 454.673 200.58C455.253 199.7 456.063 199.02 457.103 198.54C458.163 198.06 459.373 197.82 460.733 197.82C462.693 197.82 464.293 198.31 465.533 199.29C466.793 200.27 467.503 201.57 467.663 203.19H464.663C464.563 202.39 464.143 201.69 463.403 201.09C462.663 200.47 461.683 200.16 460.463 200.16C459.323 200.16 458.393 200.46 457.673 201.06C456.953 201.64 456.593 202.46 456.593 203.52C456.593 204.28 456.803 204.9 457.223 205.38C457.663 205.86 458.193 206.23 458.813 206.49C459.453 206.73 460.343 207.01 461.483 207.33C462.863 207.71 463.973 208.09 464.813 208.47C465.653 208.83 466.373 209.4 466.973 210.18C467.573 210.94 467.873 211.98 467.873 213.3C467.873 214.32 467.603 215.28 467.063 216.18C466.523 217.08 465.723 217.81 464.663 218.37C463.603 218.93 462.353 219.21 460.913 219.21ZM486.89 210.15C486.89 210.67 486.86 211.22 486.8 211.8H473.66C473.76 213.42 474.31 214.69 475.31 215.61C476.33 216.51 477.56 216.96 479 216.96C480.18 216.96 481.16 216.69 481.94 216.15C482.74 215.59 483.3 214.85 483.62 213.93H486.56C486.12 215.51 485.24 216.8 483.92 217.8C482.6 218.78 480.96 219.27 479 219.27C477.44 219.27 476.04 218.92 474.8 218.22C473.58 217.52 472.62 216.53 471.92 215.25C471.22 213.95 470.87 212.45 470.87 210.75C470.87 209.05 471.21 207.56 471.89 206.28C472.57 205 473.52 204.02 474.74 203.34C475.98 202.64 477.4 202.29 479 202.29C480.56 202.29 481.94 202.63 483.14 203.31C484.34 203.99 485.26 204.93 485.9 206.13C486.56 207.31 486.89 208.65 486.89 210.15ZM484.07 209.58C484.07 208.54 483.84 207.65 483.38 206.91C482.92 206.15 482.29 205.58 481.49 205.2C480.71 204.8 479.84 204.6 478.88 204.6C477.5 204.6 476.32 205.04 475.34 205.92C474.38 206.8 473.83 208.02 473.69 209.58H484.07ZM493.224 196.8V219H490.494V196.8H493.224ZM504.566 204.81H501.116V219H498.386V204.81H496.256V202.56H498.386V201.39C498.386 199.55 498.856 198.21 499.796 197.37C500.756 196.51 502.286 196.08 504.386 196.08V198.36C503.186 198.36 502.336 198.6 501.836 199.08C501.356 199.54 501.116 200.31 501.116 201.39V202.56H504.566V204.81ZM531.858 198.09V219H529.128V209.52H518.478V219H515.748V198.09H518.478V207.27H529.128V198.09H531.858ZM543.689 219.27C542.149 219.27 540.749 218.92 539.489 218.22C538.249 217.52 537.269 216.53 536.549 215.25C535.849 213.95 535.499 212.45 535.499 210.75C535.499 209.07 535.859 207.59 536.579 206.31C537.319 205.01 538.319 204.02 539.579 203.34C540.839 202.64 542.249 202.29 543.809 202.29C545.369 202.29 546.779 202.64 548.039 203.34C549.299 204.02 550.289 205 551.009 206.28C551.749 207.56 552.119 209.05 552.119 210.75C552.119 212.45 551.739 213.95 550.979 215.25C550.239 216.53 549.229 217.52 547.949 218.22C546.669 218.92 545.249 219.27 543.689 219.27ZM543.689 216.87C544.669 216.87 545.589 216.64 546.449 216.18C547.309 215.72 547.999 215.03 548.519 214.11C549.059 213.19 549.329 212.07 549.329 210.75C549.329 209.43 549.069 208.31 548.549 207.39C548.029 206.47 547.349 205.79 546.509 205.35C545.669 204.89 544.759 204.66 543.779 204.66C542.779 204.66 541.859 204.89 541.019 205.35C540.199 205.79 539.539 206.47 539.039 207.39C538.539 208.31 538.289 209.43 538.289 210.75C538.289 212.09 538.529 213.22 539.009 214.14C539.509 215.06 540.169 215.75 540.989 216.21C541.809 216.65 542.709 216.87 543.689 216.87ZM561.528 219.27C560.268 219.27 559.138 219.06 558.138 218.64C557.138 218.2 556.348 217.6 555.768 216.84C555.188 216.06 554.868 215.17 554.808 214.17H557.628C557.708 214.99 558.088 215.66 558.768 216.18C559.468 216.7 560.378 216.96 561.498 216.96C562.538 216.96 563.358 216.73 563.958 216.27C564.558 215.81 564.858 215.23 564.858 214.53C564.858 213.81 564.538 213.28 563.898 212.94C563.258 212.58 562.268 212.23 560.928 211.89C559.708 211.57 558.708 211.25 557.928 210.93C557.168 210.59 556.508 210.1 555.948 209.46C555.408 208.8 555.138 207.94 555.138 206.88C555.138 206.04 555.388 205.27 555.888 204.57C556.388 203.87 557.098 203.32 558.018 202.92C558.938 202.5 559.988 202.29 561.168 202.29C562.988 202.29 564.458 202.75 565.578 203.67C566.698 204.59 567.298 205.85 567.378 207.45H564.648C564.588 206.59 564.238 205.9 563.598 205.38C562.978 204.86 562.138 204.6 561.078 204.6C560.098 204.6 559.318 204.81 558.738 205.23C558.158 205.65 557.868 206.2 557.868 206.88C557.868 207.42 558.038 207.87 558.378 208.23C558.738 208.57 559.178 208.85 559.698 209.07C560.238 209.27 560.978 209.5 561.918 209.76C563.098 210.08 564.058 210.4 564.798 210.72C565.538 211.02 566.168 211.48 566.688 212.1C567.228 212.72 567.508 213.53 567.528 214.53C567.528 215.43 567.278 216.24 566.778 216.96C566.278 217.68 565.568 218.25 564.648 218.67C563.748 219.07 562.708 219.27 561.528 219.27ZM574.712 204.81V214.5C574.712 215.3 574.882 215.87 575.222 216.21C575.562 216.53 576.152 216.69 576.992 216.69H579.002V219H576.542C575.022 219 573.882 218.65 573.122 217.95C572.362 217.25 571.982 216.1 571.982 214.5V204.81H569.852V202.56H571.982V198.42H574.712V202.56H579.002V204.81H574.712Z" fill="white"/>
<defs>
<linearGradient id="paint0_linear_1169_243015" x1="0" y1="206.5" x2="756" y2="206.5" gradientUnits="userSpaceOnUse">
<stop offset="0.0885417" stop-color="#0364FF"/>
<stop offset="1"/>
</linearGradient>
<linearGradient id="paint1_linear_1169_243015" x1="7.14229e-06" y1="8.88324" x2="554.251" y2="554.821" gradientUnits="userSpaceOnUse">
<stop offset="0.0939661" stop-color="#B114FB"/>
<stop offset="0.393527" stop-color="#0016DE"/>
<stop offset="0.707657" stop-color="#0364FF"/>
<stop offset="0.996553" stop-color="#1AC7FE"/>
</linearGradient>
</defs>
</svg>
