<svg width="314" height="72" viewBox="0 0 314 72" fill="none" xmlns="http://www.w3.org/2000/svg">
<g clip-path="url(#clip0)">
<path d="M139.31 36C139.379 41.0421 138.553 46.0565 136.87 50.81C135.373 55.023 133.036 58.8878 130 62.17C127.014 65.3221 123.39 67.8006 119.37 69.44C110.587 72.8531 100.844 72.8531 92.0602 69.44C88.0473 67.7979 84.4303 65.3195 81.4502 62.17C78.4143 58.8878 76.077 55.023 74.5802 50.81C72.8976 46.0565 72.0714 41.0421 72.1402 36C72.074 30.9744 72.9001 25.9769 74.5802 21.24C76.077 17.0271 78.4143 13.1622 81.4502 9.88001C84.4347 6.73072 88.0501 4.24661 92.0602 2.59001C96.387 0.820065 101.026 -0.060765 105.7 1.45005e-05C110.381 -0.0586787 115.028 0.811434 119.37 2.56001C123.396 4.20298 127.021 6.69262 130 9.86001C133.034 13.1513 135.371 17.0222 136.87 21.24C138.55 25.9769 139.376 30.9744 139.31 36V36ZM134 36C134.078 31.5027 133.402 27.024 132 22.75C130.775 19.0725 128.808 15.6859 126.22 12.8C123.723 10.0725 120.648 7.93716 117.22 6.55001C109.824 3.66968 101.616 3.66968 94.2202 6.55001C90.7968 7.9457 87.7237 10.0798 85.2202 12.8C82.6107 15.6976 80.6262 19.1017 79.3902 22.8C77.965 27.0528 77.2652 31.5151 77.3202 36C77.2518 40.508 77.9484 44.9949 79.3802 49.27C80.6248 52.9435 82.609 56.323 85.2102 59.2C87.7092 61.9206 90.784 64.049 94.2102 65.43C101.614 68.2709 109.807 68.2709 117.21 65.43C120.641 64.0574 123.718 61.9278 126.21 59.2C128.799 56.321 130.77 52.9412 132 49.27C133.407 44.9902 134.083 40.5042 134 36Z" fill="#0364FF"/>
<path d="M198.43 72H194C193.502 72.0167 193.006 71.921 192.55 71.72C192.105 71.4876 191.729 71.1428 191.46 70.72L168.36 41.51C168.11 41.1526 167.829 40.818 167.52 40.51C167.228 40.2405 166.889 40.0269 166.52 39.88C166.116 39.7066 165.687 39.5953 165.25 39.55C164.65 39.4712 164.045 39.4345 163.44 39.44H154V72H148.76V0H167.18C175.453 0 181.653 1.60333 185.78 4.81C189.906 8.01667 191.98 12.7233 192 18.93C192.031 21.5103 191.545 24.0707 190.57 26.46C189.637 28.7217 188.244 30.7649 186.48 32.46C184.596 34.2359 182.407 35.6585 180.02 36.66C177.296 37.7923 174.423 38.5265 171.49 38.84C172.337 39.3662 173.079 40.0442 173.68 40.84L198.43 72ZM166.43 35.57C169.328 35.6114 172.215 35.2239 175 34.42C177.332 33.7617 179.511 32.6468 181.41 31.14C183.124 29.7605 184.494 28.0007 185.41 26C186.348 23.8683 186.816 21.559 186.78 19.23C186.78 14.11 185.113 10.3133 181.78 7.84C178.446 5.36667 173.583 4.12667 167.19 4.12H154V35.57H166.43Z" fill="#0364FF"/>
<path d="M233.8 67.47C236.957 67.5277 240.092 66.9213 243 65.69C245.617 64.554 247.957 62.8654 249.86 60.74C251.778 58.5621 253.24 56.0221 254.16 53.27C255.161 50.2832 255.654 47.1498 255.62 44V0H260.75V44C260.782 47.7476 260.153 51.4715 258.89 55C257.713 58.2938 255.891 61.3196 253.53 63.9C251.157 66.479 248.263 68.5242 245.04 69.9C237.823 72.7805 229.776 72.7805 222.56 69.9C219.335 68.5268 216.441 66.4813 214.07 63.9C211.705 61.3222 209.883 58.2957 208.71 55C207.447 51.4715 206.817 47.7476 206.85 44V0H212V43.94C211.971 47.0943 212.471 50.2312 213.48 53.22C214.401 55.9676 215.855 58.5062 217.76 60.69C219.646 62.8331 221.977 64.5393 224.59 65.69C227.498 66.932 230.638 67.5388 233.8 67.47V67.47Z" fill="#0364FF"/>
<path d="M310.26 9.35C310.152 9.60262 309.972 9.8179 309.743 9.96904C309.514 10.1202 309.245 10.2005 308.97 10.2C308.325 10.0926 307.736 9.76802 307.3 9.28C306.432 8.5446 305.509 7.87602 304.54 7.28C303.171 6.42765 301.708 5.7364 300.18 5.22C295.881 3.89392 291.278 3.92884 287 5.32C285.185 5.97581 283.525 6.99685 282.12 8.32C280.822 9.55196 279.8 11.0447 279.12 12.7C278.448 14.3576 278.108 16.1313 278.12 17.92C278.035 19.9984 278.56 22.0563 279.63 23.84C280.672 25.4363 282.034 26.7985 283.63 27.84C285.396 28.9829 287.293 29.9095 289.28 30.6C291.38 31.34 293.55 32.08 295.77 32.81C297.99 33.54 300.16 34.35 302.26 35.22C304.288 36.056 306.189 37.17 307.91 38.53C309.57 39.8673 310.932 41.5362 311.91 43.43C312.987 45.6873 313.505 48.1705 313.42 50.67C313.446 53.5152 312.941 56.3403 311.93 59C310.952 61.5471 309.449 63.8603 307.52 65.79C305.502 67.773 303.099 69.3215 300.46 70.34C297.408 71.4958 294.163 72.0592 290.9 72C286.764 72.1102 282.659 71.2685 278.9 69.54C275.55 67.8933 272.559 65.5992 270.1 62.79L271.49 60.61C271.647 60.3848 271.854 60.1995 272.096 60.0693C272.337 59.939 272.606 59.8673 272.88 59.86C273.319 59.9267 273.724 60.1378 274.03 60.46L275.72 61.92C276.38 62.51 277.18 63.14 278.11 63.82C279.123 64.5535 280.205 65.1865 281.34 65.71C284.367 67.1069 287.667 67.8107 291 67.77C293.547 67.8138 296.08 67.3831 298.47 66.5C300.532 65.7204 302.413 64.5296 304 63C305.51 61.5344 306.687 59.7608 307.45 57.8C308.259 55.7501 308.667 53.5637 308.65 51.36C308.735 49.2075 308.208 47.075 307.13 45.21C306.102 43.6027 304.737 42.2379 303.13 41.21C301.366 40.0838 299.472 39.1739 297.49 38.5C295.38 37.77 293.22 37.06 290.99 36.36C288.76 35.66 286.61 34.89 284.5 34.02C282.465 33.203 280.561 32.0911 278.85 30.72C277.176 29.3576 275.812 27.6528 274.85 25.72C273.759 23.3607 273.238 20.7778 273.33 18.18C273.329 15.8412 273.785 13.5247 274.67 11.36C275.567 9.17973 276.905 7.20846 278.6 5.57C280.449 3.82764 282.624 2.46822 285 1.57C287.77 0.497279 290.72 -0.0356317 293.69 1.77603e-06C297.048 -0.0521492 300.384 0.538464 303.52 1.74C306.501 2.95362 309.201 4.76794 311.45 7.07L310.26 9.35Z" fill="#0364FF"/>
<path d="M39.99 0H0V21.71H39.99V0Z" fill="#0364FF"/>
<path d="M39.9898 0.0300293H18.2798V72H39.9898V0.0300293Z" fill="#0364FF"/>
<path d="M56.2201 21.7C62.2124 21.7 67.0701 16.8423 67.0701 10.85C67.0701 4.85771 62.2124 0 56.2201 0C50.2278 0 45.3701 4.85771 45.3701 10.85C45.3701 16.8423 50.2278 21.7 56.2201 21.7Z" fill="#0364FF"/>
</g>
<defs>
<clipPath id="clip0">
<rect width="313.44" height="72" fill="white"/>
</clipPath>
</defs>
</svg>
