<svg width="756" height="350" viewBox="0 0 756 350" fill="none" xmlns="http://www.w3.org/2000/svg">
<rect width="756" height="350" fill="black"/>
<rect width="756" height="350" fill="white"/>
<rect width="756" height="350" fill="url(#paint0_linear_203_1167)" fill-opacity="0.6"/>
<g filter="url(#filter0_d_203_1167)">
<rect x="340" y="135" width="110" height="110" rx="55" fill="white"/>
<path fill-rule="evenodd" clip-rule="evenodd" d="M393.144 213.553C393.018 214.019 393.373 214.476 393.861 214.476H398.136C398.624 214.476 398.98 214.019 398.853 213.553L396.716 205.674C396.519 204.949 395.478 204.949 395.282 205.674L393.144 213.553Z" fill="#0364FF"/>
<path fill-rule="evenodd" clip-rule="evenodd" d="M388.887 218.598C388.559 219.804 387.452 220.644 386.187 220.644H380.4C378.563 220.644 377.225 218.922 377.701 217.169L389.572 173.412C389.93 172.092 391.141 171.174 392.525 171.174H399.412C400.795 171.174 402.006 172.092 402.364 173.412L414.236 217.169C414.711 218.922 413.374 220.644 411.536 220.644H405.749C404.484 220.644 403.377 219.804 403.05 218.598L397.276 197.315C396.917 195.994 395.019 195.994 394.661 197.315L388.887 218.598Z" fill="#0364FF"/>
<path fill-rule="evenodd" clip-rule="evenodd" d="M417.995 210.352C417.625 211.716 415.665 211.716 415.295 210.352L410.985 194.467C410.902 194.159 410.902 193.836 410.985 193.529L416.478 173.284C416.816 172.039 417.957 171.174 419.262 171.174H424.868C426.763 171.174 428.142 172.949 427.652 174.757L417.995 210.352ZM381.017 194.44C381.101 194.133 381.101 193.81 381.017 193.502L375.532 173.284C375.194 172.039 374.052 171.174 372.748 171.174H367.142C365.247 171.174 363.868 172.949 364.358 174.757L374.008 210.326C374.378 211.69 376.337 211.69 376.707 210.326L381.017 194.44Z" fill="#0364FF"/>
</g>
<g style="mix-blend-mode:overlay">
<path fill-rule="evenodd" clip-rule="evenodd" d="M378.206 53.2368C377.422 53.2368 376.702 53.0748 376.049 52.7507C375.68 52.5636 375.359 52.3414 375.087 52.084C374.915 51.9213 374.566 52.0317 374.566 52.2647V52.6125C374.566 52.7705 374.434 52.8986 374.271 52.8986H372.856C372.693 52.8986 372.561 52.7705 372.561 52.6125V38.0493C372.561 37.8913 372.693 37.7632 372.856 37.7632H374.265C374.428 37.7632 374.56 37.8913 374.56 38.0493V43.175C374.56 43.408 374.909 43.519 375.082 43.3568C375.356 43.0989 375.679 42.8763 376.049 42.689C376.702 42.3649 377.422 42.2029 378.206 42.2029C379.616 42.2029 380.807 42.7384 381.781 43.8093C382.783 44.8944 383.285 46.1979 383.285 47.7198C383.285 49.2559 382.783 50.5594 381.781 51.6304C380.807 52.7013 379.616 53.2368 378.206 53.2368ZM377.879 51.4613C378.838 51.4613 379.645 51.109 380.299 50.4044C380.953 49.7139 381.28 48.819 381.28 47.7198C381.28 46.6348 380.953 45.7399 380.299 45.0353C379.645 44.3307 378.838 43.9784 377.879 43.9784C376.906 43.9784 376.092 44.3307 375.438 45.0353C374.799 45.7399 374.479 46.6348 374.479 47.7198C374.479 48.819 374.799 49.7209 375.438 50.4255C376.092 51.116 376.906 51.4613 377.879 51.4613ZM365.671 53.2368C364.101 53.2368 362.808 52.7154 361.791 51.6726C360.774 50.6298 360.265 49.3122 360.265 47.7198C360.265 46.1415 360.759 44.831 361.747 43.7882C362.736 42.7313 364 42.2029 365.54 42.2029C367.124 42.2029 368.381 42.7031 369.311 43.7036C370.313 44.7503 370.792 46.3246 370.729 47.7564C370.721 47.94 370.561 48.0792 370.372 48.0792H362.674C362.477 48.0792 362.317 48.2375 362.338 48.4278C362.429 49.2827 362.77 49.9838 363.36 50.5312C364.029 51.1512 364.828 51.4613 365.758 51.4613C366.944 51.4613 367.893 50.9274 368.604 49.8598C368.699 49.7171 368.888 49.6591 369.046 49.7336L370.244 50.3004C370.413 50.3803 370.481 50.5807 370.383 50.7363C369.92 51.4728 369.308 52.0597 368.548 52.497C367.705 52.9902 366.746 53.2368 365.671 53.2368ZM362.583 46.0645C362.512 46.2707 362.679 46.4727 362.904 46.4727H368.213C368.417 46.4727 368.58 46.303 368.539 46.109C368.42 45.5519 368.132 45.0812 367.676 44.6971C367.138 44.218 366.412 43.9784 365.496 43.9784C364.741 43.9784 364.087 44.2039 363.535 44.6548C363.097 45.022 362.78 45.4919 362.583 46.0645ZM359.651 42.9384C359.716 42.7421 359.565 42.5411 359.352 42.5411H357.968C357.829 42.5411 357.707 42.6298 357.668 42.7592L355.626 49.4788C355.545 49.7483 355.153 49.7539 355.063 49.4869L352.791 42.7506C352.749 42.6256 352.629 42.5411 352.494 42.5411H350.877C350.742 42.5411 350.622 42.6253 350.579 42.7499L348.287 49.4913C348.197 49.7578 347.806 49.7517 347.724 49.4826L345.682 42.7592C345.642 42.6298 345.52 42.5411 345.381 42.5411H343.953C343.741 42.5411 343.59 42.7421 343.655 42.9384L346.897 52.6879C346.938 52.8135 347.059 52.8986 347.195 52.8986H348.765C348.901 52.8986 349.022 52.8134 349.064 52.6877L351.351 45.7937C351.439 45.5294 351.824 45.5289 351.913 45.793L354.22 52.6884C354.262 52.8138 354.382 52.8986 354.518 52.8986H356.111C356.247 52.8986 356.367 52.8135 356.409 52.6879L359.651 42.9384ZM421.778 52.2856C422.359 52.807 423.086 53.0677 423.958 53.0677C424.534 53.0677 425.052 53.0051 425.509 52.8797C425.665 52.837 425.745 52.6732 425.691 52.525L425.263 51.3514C425.205 51.1941 425.022 51.1181 424.858 51.1684C424.813 51.1821 424.767 51.1952 424.72 51.2076C424.575 51.2358 424.423 51.2499 424.263 51.2499C423.914 51.2499 423.602 51.1301 423.325 50.8905C423.049 50.6369 422.911 50.1648 422.911 49.4743V44.6028C422.911 44.4448 423.043 44.3166 423.206 44.3166H425.232C425.395 44.3166 425.527 44.1885 425.527 44.0305V42.8272C425.527 42.6692 425.395 42.5411 425.232 42.5411H423.206C423.043 42.5411 422.911 42.413 422.911 42.2549V38.0493C422.911 37.8913 422.779 37.7632 422.616 37.7632H421.201C421.038 37.7632 420.906 37.8913 420.906 38.0493V42.2549C420.906 42.413 420.774 42.5411 420.611 42.5411H419.327C419.164 42.5411 419.032 42.6692 419.032 42.8272V44.0305C419.032 44.1885 419.164 44.3166 419.327 44.3166H420.611C420.774 44.3166 420.906 44.4448 420.906 44.6028V50.1084C420.921 51.0385 421.211 51.7642 421.778 52.2856ZM393.14 51.9686C394.114 51.123 394.601 50.0662 394.601 48.7979C394.601 48.0228 394.376 47.3253 393.925 46.7052C393.718 46.4104 393.42 46.0357 392.547 45.5608C392.362 45.4604 392.357 45.1931 392.532 45.0771C393.577 44.3825 394.099 43.3307 394.099 42.0972C394.099 40.9275 393.656 39.9763 392.77 39.2436C391.869 38.4826 390.757 38.1021 389.435 38.1021C388.374 38.1021 387.452 38.3769 386.667 38.9265C385.968 39.4162 385.447 40.0402 385.106 40.7984C385.035 40.9556 385.116 41.135 385.279 41.2019L386.518 41.7108C386.694 41.7829 386.894 41.6963 386.973 41.528C387.461 40.4842 388.282 39.9622 389.435 39.9622C390.22 39.9622 390.852 40.1595 391.331 40.5541C391.811 40.9487 392.051 41.463 392.051 42.0972C392.051 42.7877 391.796 43.3514 391.288 43.7882C390.779 44.211 390.125 44.4223 389.326 44.4223H388.525C388.341 44.4223 388.193 44.5665 388.193 44.7442V45.9183C388.193 46.0961 388.341 46.2402 388.525 46.2402H389.479C390.321 46.2402 391.041 46.4868 391.636 46.98C392.247 47.4732 392.552 48.0792 392.552 48.7979C392.552 49.5166 392.261 50.1296 391.68 50.6369C391.084 51.1301 390.38 51.3767 389.566 51.3767C388.825 51.3767 388.185 51.1653 387.648 50.7426C387.203 50.3707 386.863 49.8661 386.628 49.2288C386.561 49.0469 386.352 48.9479 386.168 49.0222L384.956 49.5121C384.801 49.5749 384.717 49.7411 384.772 49.8956C385.111 50.8562 385.699 51.6458 386.536 52.2645C387.437 52.9127 388.447 53.2368 389.566 53.2368C390.99 53.2368 392.181 52.8141 393.14 51.9686ZM398.159 49.7279C398.159 49.1643 398.428 48.6922 398.965 48.3117C399.518 47.9312 400.2 47.741 401.014 47.741C402.058 47.741 402.887 47.9495 403.501 48.3666C403.584 48.4231 403.631 48.5172 403.626 48.6155C403.586 49.3678 403.253 50.0275 402.627 50.5946C401.973 51.2006 401.225 51.5035 400.382 51.5035C399.786 51.5035 399.263 51.3344 398.813 50.9962C398.377 50.658 398.159 50.2353 398.159 49.7279ZM404.262 43.3654C403.404 42.5904 402.235 42.2029 400.753 42.2029C398.966 42.2029 397.589 42.7989 396.621 43.991C396.517 44.1194 396.556 44.3049 396.699 44.392L397.964 45.1642C398.097 45.2458 398.272 45.2099 398.371 45.0903C399.006 44.3209 399.836 43.9362 400.862 43.9362C401.603 43.9362 402.249 44.1757 402.801 44.6549C403.357 45.1228 403.554 45.6853 403.61 46.3206C403.63 46.539 403.384 46.6802 403.175 46.5958C402.485 46.3165 401.656 46.1768 400.687 46.1768C399.292 46.1768 398.173 46.4939 397.331 47.128C396.502 47.7621 396.088 48.6147 396.088 49.6857C396.088 50.7003 396.481 51.5458 397.265 52.2222C398.064 52.8986 399.053 53.2368 400.23 53.2368C401.61 53.2368 402.714 52.645 403.543 51.4613V52.6125C403.543 52.7705 403.675 52.8986 403.838 52.8986H405.253C405.416 52.8986 405.548 52.7705 405.548 52.6125V46.515C405.548 45.1763 405.119 44.1264 404.262 43.3654ZM417.182 52.5946C417.182 52.7625 417.041 52.8986 416.868 52.8986H415.49C415.317 52.8986 415.176 52.7625 415.176 52.5946V52.255C415.176 52.036 414.835 51.9309 414.674 52.0846C414.421 52.3259 414.116 52.5409 413.76 52.7295C413.135 53.0677 412.481 53.2368 411.798 53.2368C410.49 53.2368 409.48 52.8775 408.768 52.1588C408.071 51.426 407.722 50.3903 407.722 49.0515V42.8451C407.722 42.6772 407.863 42.5411 408.036 42.5411H409.414C409.587 42.5411 409.727 42.6772 409.727 42.8451V48.9247C409.771 50.6157 410.65 51.4613 412.365 51.4613C413.164 51.4613 413.832 51.1512 414.37 50.5312C414.908 49.897 415.176 49.1431 415.176 48.2694V42.8451C415.176 42.6772 415.317 42.5411 415.49 42.5411H416.868C417.041 42.5411 417.182 42.6772 417.182 42.8451V52.5946ZM427.541 38.0493C427.541 37.8913 427.673 37.7632 427.836 37.7632H429.251C429.414 37.7632 429.546 37.8913 429.546 38.0493V43.1847C429.546 43.4037 429.887 43.5079 430.047 43.3532C430.295 43.1127 430.593 42.8983 430.941 42.7102C431.58 42.372 432.241 42.2029 432.924 42.2029C434.232 42.2029 435.235 42.5692 435.932 43.302C436.644 44.0207 437 45.0494 437 46.3882V52.6125C437 52.7705 436.868 52.8986 436.705 52.8986H435.29C435.127 52.8986 434.995 52.7705 434.995 52.6125V46.7686C434.995 44.9085 434.145 43.9784 432.445 43.9784C431.631 43.9784 430.941 44.3096 430.374 44.9719C429.822 45.6202 429.546 46.3811 429.546 47.2548V52.6125C429.546 52.7705 429.414 52.8986 429.251 52.8986H427.836C427.673 52.8986 427.541 52.7705 427.541 52.6125V38.0493Z" fill="white"/>
<path d="M335.773 51.2568C335.89 51.6863 336.508 51.6863 336.625 51.2568L339.985 38.8916C340.14 38.3223 339.705 37.7632 339.107 37.7632H337.035C336.624 37.7632 336.264 38.0357 336.157 38.4276L334.262 45.4005C334.236 45.4972 334.236 45.5991 334.262 45.6958L335.773 51.2568Z" fill="white"/>
<path d="M324.031 45.3915C324.057 45.4882 324.057 45.59 324.031 45.6868L322.519 51.2478C322.403 51.6773 321.785 51.6773 321.668 51.2478L318.31 38.8916C318.156 38.3223 318.591 37.7632 319.188 37.7632H321.26C321.672 37.7632 322.032 38.0357 322.138 38.4276L324.031 45.3915Z" fill="white"/>
<path d="M326.863 53.9748C326.76 54.3544 326.412 54.6184 326.015 54.6184H323.895C323.318 54.6184 322.897 54.0768 323.047 53.5254L327.127 38.4671C327.239 38.0519 327.619 37.7632 328.054 37.7632H330.52C330.954 37.7632 331.335 38.0519 331.447 38.4671L335.527 53.5254C335.676 54.0768 335.256 54.6184 334.679 54.6184H332.559C332.162 54.6184 331.814 54.3545 331.711 53.9748L329.698 46.544C329.585 46.1283 328.989 46.1283 328.876 46.544L326.863 53.9748Z" fill="white"/>
<path d="M328.542 52.4079C328.391 52.4079 328.28 52.2729 328.32 52.1355L329.064 49.5288C329.125 49.315 329.449 49.315 329.51 49.5288L330.254 52.1355C330.294 52.2729 330.183 52.4079 330.032 52.4079H328.542Z" fill="white"/>
</g>
<g clip-path="url(#clip0_203_1167)">
<path fill-rule="evenodd" clip-rule="evenodd" d="M545 141H655V251H545V141Z" fill="black"/>
<g clip-path="url(#clip1_203_1167)">
<path fill-rule="evenodd" clip-rule="evenodd" d="M604.983 167.554L604.917 149.8H595.017L595.083 167.554L600.033 174.352L604.983 167.554ZM595.083 197.98V215.8H604.983V197.98L600.033 191.182L595.083 197.98Z" fill="white"/>
<path fill-rule="evenodd" clip-rule="evenodd" d="M604.983 197.98L615.411 212.368L623.397 206.56L612.969 192.172L604.983 189.598V197.98ZM595.083 167.554L584.589 153.166L576.603 158.974L587.031 173.362L595.083 175.936V167.554Z" fill="#00F2E6"/>
<path fill-rule="evenodd" clip-rule="evenodd" d="M587.031 173.362L570.135 167.884L567.099 177.256L583.995 182.8L591.981 180.16L587.031 173.362ZM608.019 185.374L612.969 192.172L629.865 197.65L632.901 188.278L616.005 182.8L608.019 185.374Z" fill="#00B9F1"/>
<path fill-rule="evenodd" clip-rule="evenodd" d="M616.005 182.8L632.901 177.256L629.865 167.884L612.969 173.362L608.019 180.16L616.005 182.8ZM583.995 182.8L567.099 188.278L570.135 197.65L587.031 192.172L591.981 185.374L583.995 182.8Z" fill="#D63AFF"/>
<path fill-rule="evenodd" clip-rule="evenodd" d="M587.031 192.172L576.603 206.56L584.589 212.368L595.083 197.98V189.598L587.031 192.172ZM612.969 173.362L623.397 158.974L615.411 153.166L604.983 167.554V175.936L612.969 173.362Z" fill="#FB015B"/>
</g>
<path fill-rule="evenodd" clip-rule="evenodd" d="M572.863 223.5V238.154C572.863 241.377 570.223 244.017 567 244.017V241.082C568.635 241.082 569.935 239.782 569.935 238.147V223.5H572.863ZM626.387 226.435H633V223.507H616.879V226.435H623.452V244.024H626.387V226.435ZM608.041 223.5V238.154C608.041 239.789 606.741 241.089 605.106 241.089C603.471 241.089 602.171 239.789 602.171 238.154V229.363C602.171 226.14 599.531 223.5 596.308 223.5C593.085 223.5 590.445 226.14 590.445 229.363V238.161C590.445 239.796 589.145 241.096 587.51 241.096C585.875 241.096 584.575 239.796 584.575 238.161V223.5H581.641V238.154C581.641 241.377 584.281 244.017 587.504 244.017C590.726 244.017 593.366 241.377 593.366 238.154V229.363C593.366 227.728 594.666 226.428 596.301 226.428C597.936 226.428 599.236 227.728 599.236 229.363V238.161C599.236 241.384 601.876 244.024 605.099 244.024C608.322 244.024 610.962 241.384 610.962 238.161V223.5H608.041Z" fill="white"/>
</g>
<g filter="url(#filter1_d_203_1167)">
<rect x="137" y="135" width="108.493" height="110" rx="54.2466" fill="white"/>
<path d="M165.025 209.429C163.429 209.429 162.354 210.682 162.354 212.294C162.354 213.906 163.429 215.159 165.025 215.159C166.62 215.159 167.695 213.906 167.695 212.294C167.679 210.682 166.607 209.429 165.025 209.429ZM164.668 207.652C165.951 207.652 167.025 208.309 167.533 209.024V207.831H169.501V216.765H167.981C167.736 216.765 167.536 216.566 167.533 216.317V215.572C167.025 216.287 165.967 216.944 164.668 216.944C162.222 216.944 160.359 214.856 160.359 212.305C160.356 209.756 162.206 207.652 164.668 207.652ZM171.737 207.831H173.705V209.038C174.243 208.144 175.258 207.65 176.419 207.65C178.493 207.65 179.835 209.111 179.835 211.379V216.763H178.328C178.082 216.763 177.882 216.563 177.88 216.314V211.705C177.88 210.288 177.164 209.437 176.014 209.437C174.715 209.437 173.703 210.452 173.703 212.361V216.763H172.196C171.95 216.763 171.751 216.563 171.748 216.314L171.737 207.831ZM186.042 209.429C184.446 209.429 183.372 210.682 183.372 212.294C183.372 213.906 184.446 215.159 186.042 215.159C187.638 215.159 188.713 213.906 188.713 212.294C188.713 210.682 187.638 209.429 186.042 209.429ZM185.683 207.652C186.966 207.652 188.04 208.309 188.548 209.024V203.357H190.516V216.765H189.01C188.764 216.765 188.564 216.566 188.561 216.317V215.572C188.054 216.287 186.995 216.944 185.697 216.944C183.25 216.944 181.387 214.856 181.387 212.305C181.387 209.756 183.237 207.652 185.683 207.652ZM192.755 207.831H194.723V209.426C195.077 208.425 196.019 207.752 197.08 207.742C197.337 207.736 197.59 207.763 197.842 207.817V209.831C197.523 209.726 197.191 209.669 196.856 209.667C195.738 209.667 194.709 210.623 194.709 212.397V216.752H193.2C192.954 216.752 192.755 216.552 192.752 216.304V207.831H192.755ZM203.134 215.11C204.7 215.11 205.818 213.871 205.818 212.291C205.818 210.695 204.713 209.472 203.134 209.472C201.538 209.472 200.434 210.712 200.434 212.291C200.45 213.887 201.538 215.11 203.134 215.11ZM203.134 216.946C200.569 216.925 198.503 214.829 198.525 212.262C198.546 209.694 200.642 207.631 203.209 207.652C205.764 207.674 207.824 209.75 207.818 212.307C207.832 214.856 205.774 216.933 203.226 216.946C203.196 216.946 203.166 216.946 203.134 216.946ZM209.414 207.831H211.383V216.765H209.876C209.63 216.765 209.43 216.566 209.428 216.317L209.414 207.831ZM210.4 205.879C209.671 205.87 209.079 205.282 209.071 204.55C209.085 203.829 209.676 203.251 210.4 203.251C211.123 203.251 211.712 203.84 211.712 204.564C211.712 205.29 211.123 205.879 210.4 205.879ZM217.663 209.429C216.067 209.429 214.993 210.682 214.993 212.294C214.993 213.906 216.067 215.159 217.663 215.159C219.259 215.159 220.333 213.906 220.333 212.294C220.304 210.682 219.259 209.429 217.663 209.429ZM217.304 207.652C218.586 207.652 219.661 208.309 220.169 209.024V203.357H222.137V216.765H220.63C220.385 216.765 220.185 216.566 220.182 216.317V215.572C219.675 216.287 218.616 216.944 217.317 216.944C214.871 216.944 213.008 214.856 213.008 212.305C213.008 209.756 214.858 207.652 217.304 207.652Z" fill="black"/>
<path d="M206.387 173.378L211.534 164.473C211.822 163.957 211.642 163.306 211.126 163.017C210.621 162.734 209.981 162.904 209.684 163.401L204.478 172.411C196.073 168.633 186.452 168.633 178.047 172.411L172.841 163.398C172.539 162.89 171.88 162.726 171.375 163.028C170.878 163.325 170.708 163.965 170.992 164.47L176.138 173.375C167.263 178.178 161.236 187.113 160.356 197.657H222.107C221.227 187.113 215.187 178.178 206.387 173.378ZM177.032 188.86C175.614 188.86 174.467 187.712 174.467 186.295C174.467 184.877 175.614 183.73 177.032 183.73C178.449 183.73 179.597 184.877 179.597 186.295C179.597 187.71 178.449 188.86 177.032 188.86ZM205.461 188.86C204.043 188.86 202.896 187.712 202.896 186.295C202.896 184.877 204.043 183.73 205.461 183.73C206.879 183.73 208.026 184.877 208.026 186.295C208.026 187.712 206.879 188.86 205.461 188.86Z" fill="#3DDC84"/>
</g>
<defs>
<filter id="filter0_d_203_1167" x="306" y="101" width="178" height="178" filterUnits="userSpaceOnUse" color-interpolation-filters="sRGB">
<feFlood flood-opacity="0" result="BackgroundImageFix"/>
<feColorMatrix in="SourceAlpha" type="matrix" values="0 0 0 0 0 0 0 0 0 0 0 0 0 0 0 0 0 0 127 0" result="hardAlpha"/>
<feOffset/>
<feGaussianBlur stdDeviation="17"/>
<feComposite in2="hardAlpha" operator="out"/>
<feColorMatrix type="matrix" values="0 0 0 0 0.0117647 0 0 0 0 0.392157 0 0 0 0 1 0 0 0 0.2 0"/>
<feBlend mode="normal" in2="BackgroundImageFix" result="effect1_dropShadow_203_1167"/>
<feBlend mode="normal" in="SourceGraphic" in2="effect1_dropShadow_203_1167" result="shape"/>
</filter>
<filter id="filter1_d_203_1167" x="103" y="101" width="176.493" height="178" filterUnits="userSpaceOnUse" color-interpolation-filters="sRGB">
<feFlood flood-opacity="0" result="BackgroundImageFix"/>
<feColorMatrix in="SourceAlpha" type="matrix" values="0 0 0 0 0 0 0 0 0 0 0 0 0 0 0 0 0 0 127 0" result="hardAlpha"/>
<feOffset/>
<feGaussianBlur stdDeviation="17"/>
<feComposite in2="hardAlpha" operator="out"/>
<feColorMatrix type="matrix" values="0 0 0 0 0.0117647 0 0 0 0 0.392157 0 0 0 0 1 0 0 0 0.2 0"/>
<feBlend mode="normal" in2="BackgroundImageFix" result="effect1_dropShadow_203_1167"/>
<feBlend mode="normal" in="SourceGraphic" in2="effect1_dropShadow_203_1167" result="shape"/>
</filter>
<linearGradient id="paint0_linear_203_1167" x1="0" y1="206.5" x2="756" y2="206.5" gradientUnits="userSpaceOnUse">
<stop stop-color="#3DDC84"/>
<stop offset="0.510417" stop-color="#0364FF"/>
<stop offset="1" stop-color="#010A38"/>
</linearGradient>
<clipPath id="clip0_203_1167">
<rect width="110" height="110" fill="white" transform="translate(545 141)"/>
</clipPath>
<clipPath id="clip1_203_1167">
<rect width="66" height="66" fill="white" transform="translate(567 149.8)"/>
</clipPath>
</defs>
</svg>
