<svg width="756" height="350" viewBox="0 0 756 350" fill="none" xmlns="http://www.w3.org/2000/svg">
<rect width="756" height="350" fill="white"/>
<rect width="756" height="350" fill="url(#paint0_linear_0_366)" fill-opacity="0.6"/>
<rect width="756" height="350" fill="url(#paint1_linear_0_366)"/>
<rect width="756" height="350" fill="white" fill-opacity="0.29"/>
<path fill-rule="evenodd" clip-rule="evenodd" d="M379.83 178.372C377.174 178.372 374.739 177.818 372.526 176.709C371.277 176.069 370.191 175.309 369.27 174.429C368.687 173.873 367.508 174.25 367.508 175.047V176.237C367.508 176.777 367.06 177.215 366.508 177.215H361.717C361.166 177.215 360.719 176.777 360.719 176.237V126.429C360.719 125.888 361.166 125.45 361.717 125.45H366.486C367.038 125.45 367.485 125.888 367.485 126.429V143.959C367.485 144.756 368.668 145.136 369.252 144.581C370.18 143.699 371.275 142.938 372.526 142.297C374.739 141.189 377.174 140.634 379.83 140.634C384.603 140.634 388.637 142.466 391.932 146.129C395.327 149.84 397.024 154.298 397.024 159.503C397.024 164.756 395.327 169.215 391.932 172.877C388.637 176.54 384.603 178.372 379.83 178.372ZM378.724 172.299C381.971 172.299 384.701 171.094 386.915 168.684C389.128 166.323 390.236 163.262 390.236 159.503C390.236 155.792 389.128 152.732 386.915 150.322C384.701 147.912 381.971 146.707 378.724 146.707C375.428 146.707 372.673 147.912 370.46 150.322C368.295 152.732 367.213 155.792 367.213 159.503C367.213 163.262 368.295 166.347 370.46 168.757C372.673 171.118 375.428 172.299 378.724 172.299ZM337.391 178.372C332.078 178.372 327.699 176.589 324.256 173.022C320.813 169.456 319.091 164.949 319.091 159.503C319.091 154.105 320.764 149.623 324.108 146.056C327.454 142.442 331.733 140.634 336.949 140.634C342.31 140.634 346.566 142.345 349.714 145.767C353.108 149.347 354.73 154.731 354.517 159.628C354.489 160.256 353.949 160.732 353.307 160.732H327.247C326.578 160.732 326.038 161.273 326.106 161.924C326.418 164.848 327.572 167.246 329.569 169.118C331.832 171.239 334.538 172.299 337.686 172.299C341.703 172.299 344.915 170.474 347.323 166.822C347.644 166.334 348.285 166.136 348.818 166.391L352.874 168.329C353.446 168.602 353.675 169.288 353.344 169.82C351.776 172.339 349.705 174.346 347.131 175.842C344.278 177.528 341.031 178.372 337.391 178.372ZM326.936 153.842C326.696 154.547 327.264 155.238 328.023 155.238H345.996C346.687 155.238 347.241 154.657 347.1 153.994C346.697 152.088 345.724 150.479 344.18 149.165C342.359 147.526 339.9 146.707 336.801 146.707C334.242 146.707 332.029 147.478 330.159 149.021C328.677 150.276 327.604 151.883 326.936 153.842ZM317.01 143.15C317.23 142.479 316.72 141.791 315.999 141.791H311.314C310.843 141.791 310.429 142.095 310.297 142.537L303.386 165.519C303.108 166.441 301.783 166.46 301.478 165.547L293.787 142.508C293.645 142.08 293.238 141.791 292.779 141.791H287.305C286.848 141.791 286.442 142.079 286.298 142.505L278.538 165.562C278.231 166.473 276.908 166.452 276.631 165.532L269.717 142.537C269.584 142.095 269.169 141.791 268.699 141.791H263.866C263.146 141.791 262.635 142.479 262.856 143.15L273.83 176.494C273.972 176.924 274.38 177.215 274.84 177.215H280.157C280.618 177.215 281.026 176.924 281.167 176.494L288.911 152.915C289.209 152.012 290.514 152.01 290.813 152.913L298.623 176.496C298.765 176.925 299.173 177.215 299.633 177.215H305.025C305.485 177.215 305.893 176.924 306.035 176.494L317.01 143.15ZM527.344 175.119C529.312 176.902 531.772 177.793 534.724 177.793C536.677 177.793 538.429 177.579 539.978 177.15C540.506 177.004 540.774 176.444 540.592 175.937L539.142 171.923C538.949 171.385 538.327 171.126 537.771 171.298C537.621 171.344 537.466 171.389 537.307 171.432C536.815 171.528 536.298 171.576 535.757 171.576C534.576 171.576 533.519 171.167 532.584 170.347C531.65 169.48 531.182 167.865 531.182 165.504V148.842C531.182 148.302 531.629 147.864 532.18 147.864H539.038C539.59 147.864 540.037 147.426 540.037 146.885V142.77C540.037 142.229 539.59 141.791 539.038 141.791H532.18C531.629 141.791 531.182 141.353 531.182 140.813V126.429C531.182 125.888 530.735 125.45 530.183 125.45H525.392C524.84 125.45 524.393 125.888 524.393 126.429V140.813C524.393 141.353 523.946 141.791 523.394 141.791H519.046C518.494 141.791 518.047 142.229 518.047 142.77V146.885C518.047 147.426 518.494 147.864 519.046 147.864H523.394C523.946 147.864 524.393 148.302 524.393 148.842V167.672C524.443 170.853 525.426 173.335 527.344 175.119ZM430.391 174.034C433.687 171.142 435.335 167.528 435.335 163.19C435.335 160.539 434.572 158.154 433.048 156.033C432.345 155.025 431.338 153.743 428.38 152.119C427.756 151.776 427.739 150.861 428.33 150.465C431.869 148.089 433.637 144.492 433.637 140.273C433.637 136.273 432.137 133.02 429.136 130.513C426.086 127.911 422.323 126.609 417.846 126.609C414.255 126.609 411.131 127.549 408.475 129.429C406.107 131.104 404.346 133.238 403.19 135.831C402.95 136.369 403.226 136.982 403.776 137.211L407.972 138.952C408.565 139.198 409.245 138.902 409.511 138.326C411.163 134.756 413.942 132.971 417.846 132.971C420.503 132.971 422.642 133.646 424.266 134.996C425.889 136.345 426.701 138.104 426.701 140.273C426.701 142.635 425.841 144.562 424.119 146.056C422.397 147.502 420.184 148.225 417.477 148.225H414.764C414.144 148.225 413.64 148.718 413.64 149.326V153.342C413.64 153.95 414.144 154.443 414.764 154.443H417.994C420.847 154.443 423.282 155.286 425.299 156.973C427.366 158.66 428.398 160.732 428.398 163.19C428.398 165.648 427.415 167.745 425.447 169.48C423.43 171.167 421.044 172.01 418.289 172.01C415.78 172.01 413.616 171.287 411.795 169.841C410.288 168.569 409.137 166.844 408.342 164.664C408.115 164.042 407.41 163.703 406.787 163.957L402.683 165.633C402.156 165.848 401.875 166.416 402.059 166.944C403.207 170.23 405.198 172.93 408.032 175.046C411.082 177.263 414.502 178.372 418.289 178.372C423.11 178.372 427.144 176.926 430.391 174.034ZM447.381 166.371C447.381 164.443 448.291 162.829 450.111 161.527C451.981 160.226 454.293 159.575 457.048 159.575C460.583 159.575 463.389 160.289 465.466 161.715C465.748 161.908 465.906 162.23 465.889 162.566C465.754 165.139 464.627 167.395 462.509 169.335C460.295 171.408 457.762 172.444 454.908 172.444C452.892 172.444 451.12 171.865 449.595 170.709C448.119 169.552 447.381 168.106 447.381 166.371ZM468.043 144.611C465.14 141.96 461.18 140.634 456.162 140.634C450.112 140.634 445.451 142.673 442.175 146.75C441.823 147.189 441.956 147.824 442.438 148.121L446.72 150.763C447.173 151.042 447.765 150.919 448.099 150.51C450.249 147.878 453.06 146.563 456.532 146.563C459.04 146.563 461.23 147.382 463.099 149.021C464.981 150.621 465.646 152.545 465.838 154.718C465.902 155.464 465.07 155.947 464.364 155.659C462.028 154.703 459.22 154.226 455.941 154.226C451.219 154.226 447.43 155.31 444.577 157.479C441.773 159.648 440.372 162.564 440.372 166.226C440.372 169.697 441.699 172.588 444.356 174.902C447.062 177.215 450.407 178.372 454.392 178.372C459.065 178.372 462.804 176.348 465.608 172.299V176.237C465.608 176.777 466.055 177.215 466.607 177.215H471.398C471.949 177.215 472.396 176.777 472.396 176.237V155.382C472.396 150.804 470.945 147.213 468.043 144.611ZM511.784 176.175C511.784 176.75 511.309 177.215 510.722 177.215H506.056C505.47 177.215 504.995 176.75 504.995 176.175V175.014C504.995 174.265 503.837 173.906 503.293 174.431C502.438 175.256 501.407 175.992 500.199 176.637C498.084 177.793 495.869 178.372 493.558 178.372C489.13 178.372 485.711 177.143 483.3 174.685C480.939 172.179 479.758 168.636 479.758 164.058V142.831C479.758 142.257 480.234 141.791 480.819 141.791H485.486C486.072 141.791 486.547 142.257 486.547 142.831V163.624C486.695 169.407 489.672 172.299 495.476 172.299C498.181 172.299 500.445 171.239 502.264 169.118C504.085 166.949 504.995 164.371 504.995 161.383V142.831C504.995 142.257 505.47 141.791 506.056 141.791H510.722C511.309 141.791 511.784 142.257 511.784 142.831V176.175ZM546.855 126.429C546.855 125.888 547.302 125.45 547.854 125.45H552.645C553.196 125.45 553.644 125.888 553.644 126.429V143.992C553.644 144.742 554.796 145.098 555.338 144.569C556.18 143.746 557.189 143.013 558.367 142.369C560.531 141.213 562.77 140.634 565.082 140.634C569.509 140.634 572.904 141.888 575.265 144.394C577.675 146.852 578.881 150.37 578.881 154.949V176.237C578.881 176.777 578.433 177.215 577.881 177.215H573.091C572.538 177.215 572.092 176.777 572.092 176.237V156.25C572.092 149.888 569.214 146.707 563.458 146.707C560.703 146.707 558.367 147.84 556.448 150.105C554.579 152.322 553.644 154.925 553.644 157.913V176.237C553.644 176.777 553.196 177.215 552.645 177.215H547.854C547.302 177.215 546.855 176.777 546.855 176.237V126.429Z" fill="#F3F3F4"/>
<path d="M236.173 171.6C236.568 173.069 238.661 173.069 239.056 171.6L250.432 129.31C250.955 127.362 249.482 125.45 247.459 125.45H240.445C239.052 125.45 237.832 126.382 237.472 127.723L231.057 151.571C230.968 151.902 230.968 152.25 231.057 152.581L236.173 171.6Z" fill="white"/>
<path d="M196.417 151.54C196.506 151.871 196.506 152.219 196.417 152.55L191.301 171.569C190.906 173.038 188.813 173.038 188.418 171.569L177.05 129.31C176.527 127.362 178 125.45 180.023 125.45H187.037C188.43 125.45 189.65 126.382 190.01 127.723L196.417 151.54Z" fill="white"/>
<path d="M206.006 180.896C205.658 182.194 204.48 183.097 203.135 183.097H195.957C194.003 183.097 192.58 181.245 193.086 179.359L206.898 127.858C207.279 126.438 208.567 125.45 210.038 125.45H218.386C219.858 125.45 221.146 126.438 221.527 127.858L235.339 179.359C235.844 181.245 234.422 183.097 232.467 183.097H225.29C223.945 183.097 222.767 182.194 222.419 180.896L215.603 155.482C215.222 154.06 213.203 154.06 212.822 155.482L206.006 180.896Z" fill="white"/>
<path d="M211.692 175.537C211.178 175.537 210.804 175.075 210.937 174.605L213.458 165.69C213.665 164.959 214.76 164.959 214.967 165.69L217.488 174.605C217.621 175.075 217.247 175.537 216.733 175.537H211.692Z" fill="white"/>
<path d="M464.864 208.53C464.864 206.49 465.324 204.66 466.244 203.04C467.164 201.4 468.414 200.12 469.994 199.2C471.594 198.28 473.364 197.82 475.304 197.82C477.584 197.82 479.574 198.37 481.274 199.47C482.974 200.57 484.214 202.13 484.994 204.15H481.724C481.144 202.89 480.304 201.92 479.204 201.24C478.124 200.56 476.824 200.22 475.304 200.22C473.844 200.22 472.534 200.56 471.374 201.24C470.214 201.92 469.304 202.89 468.644 204.15C467.984 205.39 467.654 206.85 467.654 208.53C467.654 210.19 467.984 211.65 468.644 212.91C469.304 214.15 470.214 215.11 471.374 215.79C472.534 216.47 473.844 216.81 475.304 216.81C476.824 216.81 478.124 216.48 479.204 215.82C480.304 215.14 481.144 214.17 481.724 212.91H484.994C484.214 214.91 482.974 216.46 481.274 217.56C479.574 218.64 477.584 219.18 475.304 219.18C473.364 219.18 471.594 218.73 469.994 217.83C468.414 216.91 467.164 215.64 466.244 214.02C465.324 212.4 464.864 210.57 464.864 208.53ZM496.228 219.27C494.688 219.27 493.288 218.92 492.028 218.22C490.788 217.52 489.808 216.53 489.088 215.25C488.388 213.95 488.038 212.45 488.038 210.75C488.038 209.07 488.398 207.59 489.118 206.31C489.858 205.01 490.858 204.02 492.118 203.34C493.378 202.64 494.788 202.29 496.348 202.29C497.908 202.29 499.318 202.64 500.578 203.34C501.838 204.02 502.828 205 503.548 206.28C504.288 207.56 504.658 209.05 504.658 210.75C504.658 212.45 504.278 213.95 503.518 215.25C502.778 216.53 501.768 217.52 500.488 218.22C499.208 218.92 497.788 219.27 496.228 219.27ZM496.228 216.87C497.208 216.87 498.128 216.64 498.988 216.18C499.848 215.72 500.538 215.03 501.058 214.11C501.598 213.19 501.868 212.07 501.868 210.75C501.868 209.43 501.608 208.31 501.088 207.39C500.568 206.47 499.888 205.79 499.048 205.35C498.208 204.89 497.298 204.66 496.318 204.66C495.318 204.66 494.398 204.89 493.558 205.35C492.738 205.79 492.078 206.47 491.578 207.39C491.078 208.31 490.828 209.43 490.828 210.75C490.828 212.09 491.068 213.22 491.548 214.14C492.048 215.06 492.708 215.75 493.528 216.21C494.348 216.65 495.248 216.87 496.228 216.87ZM510.978 205.23C511.458 204.29 512.138 203.56 513.018 203.04C513.918 202.52 515.008 202.26 516.288 202.26V205.08H515.568C512.508 205.08 510.978 206.74 510.978 210.06V219H508.248V202.56H510.978V205.23ZM534.439 210.15C534.439 210.67 534.409 211.22 534.349 211.8H521.209C521.309 213.42 521.859 214.69 522.859 215.61C523.879 216.51 525.109 216.96 526.549 216.96C527.729 216.96 528.709 216.69 529.489 216.15C530.289 215.59 530.849 214.85 531.169 213.93H534.109C533.669 215.51 532.789 216.8 531.469 217.8C530.149 218.78 528.509 219.27 526.549 219.27C524.989 219.27 523.589 218.92 522.349 218.22C521.129 217.52 520.169 216.53 519.469 215.25C518.769 213.95 518.419 212.45 518.419 210.75C518.419 209.05 518.759 207.56 519.439 206.28C520.119 205 521.069 204.02 522.289 203.34C523.529 202.64 524.949 202.29 526.549 202.29C528.109 202.29 529.489 202.63 530.689 203.31C531.889 203.99 532.809 204.93 533.449 206.13C534.109 207.31 534.439 208.65 534.439 210.15ZM531.619 209.58C531.619 208.54 531.389 207.65 530.929 206.91C530.469 206.15 529.839 205.58 529.039 205.2C528.259 204.8 527.389 204.6 526.429 204.6C525.049 204.6 523.869 205.04 522.889 205.92C521.929 206.8 521.379 208.02 521.239 209.58H531.619ZM557.38 219L548.77 209.46V219H546.04V198.09H548.77V207.78L557.41 198.09H560.86L551.38 208.56L560.95 219H557.38ZM565.409 199.89C564.889 199.89 564.449 199.71 564.089 199.35C563.729 198.99 563.549 198.55 563.549 198.03C563.549 197.51 563.729 197.07 564.089 196.71C564.449 196.35 564.889 196.17 565.409 196.17C565.909 196.17 566.329 196.35 566.669 196.71C567.029 197.07 567.209 197.51 567.209 198.03C567.209 198.55 567.029 198.99 566.669 199.35C566.329 199.71 565.909 199.89 565.409 199.89ZM566.729 202.56V219H563.999V202.56H566.729ZM574.712 204.81V214.5C574.712 215.3 574.882 215.87 575.222 216.21C575.562 216.53 576.152 216.69 576.992 216.69H579.002V219H576.542C575.022 219 573.882 218.65 573.122 217.95C572.362 217.25 571.982 216.1 571.982 214.5V204.81H569.852V202.56H571.982V198.42H574.712V202.56H579.002V204.81H574.712Z" fill="white"/>
<defs>
<linearGradient id="paint0_linear_0_366" x1="0" y1="206.5" x2="756" y2="206.5" gradientUnits="userSpaceOnUse">
<stop offset="0.0885417" stop-color="#0364FF"/>
<stop offset="1"/>
</linearGradient>
<linearGradient id="paint1_linear_0_366" x1="7.14229e-06" y1="8.88324" x2="554.251" y2="554.821" gradientUnits="userSpaceOnUse">
<stop offset="0.0939661" stop-color="#B114FB"/>
<stop offset="0.393527" stop-color="#0016DE"/>
<stop offset="0.707657" stop-color="#0364FF"/>
<stop offset="0.996553" stop-color="#1AC7FE"/>
</linearGradient>
</defs>
</svg>
