<svg width="756" height="350" viewBox="0 0 756 350" fill="none" xmlns="http://www.w3.org/2000/svg">
<rect width="756" height="350" fill="black"/>
<rect width="756" height="350" fill="white"/>
<rect width="756" height="350" fill="url(#paint0_linear_306_1086)" fill-opacity="0.6"/>
<g style="mix-blend-mode:overlay">
<path fill-rule="evenodd" clip-rule="evenodd" d="M378.206 53.2369C377.421 53.2369 376.702 53.0748 376.048 52.7507C375.679 52.5637 375.359 52.3414 375.087 52.084C374.915 51.9213 374.566 52.0317 374.566 52.2647V52.6125C374.566 52.7706 374.434 52.8987 374.271 52.8987H372.856C372.693 52.8987 372.561 52.7706 372.561 52.6125V38.0493C372.561 37.8913 372.693 37.7632 372.856 37.7632H374.264C374.427 37.7632 374.56 37.8913 374.56 38.0493V43.175C374.56 43.408 374.909 43.5191 375.081 43.3569C375.356 43.099 375.679 42.8764 376.048 42.6891C376.702 42.3649 377.421 42.2029 378.206 42.2029C379.616 42.2029 380.807 42.7384 381.781 43.8094C382.783 44.8944 383.285 46.198 383.285 47.7199C383.285 49.2559 382.783 50.5594 381.781 51.6304C380.807 52.7014 379.616 53.2369 378.206 53.2369ZM377.879 51.4613C378.838 51.4613 379.645 51.109 380.299 50.4044C380.952 49.7139 381.279 48.8191 381.279 47.7199C381.279 46.6348 380.952 45.74 380.299 45.0354C379.645 44.3308 378.838 43.9785 377.879 43.9785C376.906 43.9785 376.092 44.3308 375.438 45.0354C374.799 45.74 374.479 46.6348 374.479 47.7199C374.479 48.8191 374.799 49.7209 375.438 50.4255C376.092 51.116 376.906 51.4613 377.879 51.4613ZM365.671 53.2369C364.101 53.2369 362.808 52.7155 361.791 51.6727C360.774 50.6299 360.265 49.3123 360.265 47.7199C360.265 46.1416 360.759 44.831 361.747 43.7882C362.735 42.7313 363.999 42.2029 365.54 42.2029C367.124 42.2029 368.38 42.7031 369.31 43.7037C370.313 44.7504 370.792 46.3246 370.729 47.7565C370.721 47.94 370.561 48.0792 370.372 48.0792H362.674C362.477 48.0792 362.317 48.2375 362.337 48.4278C362.429 49.2827 362.77 49.9838 363.36 50.5312C364.029 51.1513 364.828 51.4613 365.758 51.4613C366.944 51.4613 367.893 50.9275 368.604 49.8599C368.699 49.7171 368.888 49.6592 369.046 49.7337L370.244 50.3005C370.413 50.3804 370.48 50.5808 370.383 50.7364C369.919 51.4728 369.308 52.0597 368.548 52.497C367.705 52.9903 366.746 53.2369 365.671 53.2369ZM362.583 46.0646C362.512 46.2708 362.679 46.4727 362.903 46.4727H368.212C368.417 46.4727 368.58 46.303 368.538 46.109C368.419 45.5519 368.132 45.0813 367.676 44.6972C367.138 44.218 366.412 43.9785 365.496 43.9785C364.741 43.9785 364.087 44.2039 363.535 44.6549C363.097 45.022 362.779 45.4919 362.583 46.0646ZM359.65 42.9384C359.716 42.7421 359.565 42.5411 359.352 42.5411H357.968C357.829 42.5411 357.707 42.6299 357.667 42.7592L355.626 49.4788C355.544 49.7483 355.153 49.7539 355.063 49.4869L352.791 42.7506C352.749 42.6256 352.629 42.5411 352.493 42.5411H350.877C350.741 42.5411 350.621 42.6253 350.579 42.7499L348.287 49.4914C348.196 49.7578 347.805 49.7518 347.724 49.4826L345.681 42.7592C345.642 42.6299 345.52 42.5411 345.381 42.5411H343.953C343.74 42.5411 343.589 42.7421 343.655 42.9384L346.896 52.6879C346.938 52.8135 347.059 52.8987 347.195 52.8987H348.765C348.901 52.8987 349.022 52.8135 349.063 52.6878L351.351 45.7937C351.439 45.5294 351.824 45.529 351.913 45.7931L354.22 52.6885C354.261 52.8138 354.382 52.8987 354.518 52.8987H356.11C356.246 52.8987 356.367 52.8135 356.409 52.6879L359.65 42.9384ZM421.778 52.2857C422.359 52.8071 423.085 53.0678 423.957 53.0678C424.534 53.0678 425.052 53.0051 425.509 52.8797C425.665 52.837 425.745 52.6733 425.69 52.525L425.262 51.3514C425.205 51.1941 425.022 51.1181 424.858 51.1685C424.813 51.1821 424.767 51.1952 424.72 51.2076C424.575 51.2358 424.422 51.2499 424.262 51.2499C423.914 51.2499 423.601 51.1301 423.325 50.8906C423.049 50.6369 422.911 50.1648 422.911 49.4743V44.6028C422.911 44.4448 423.043 44.3167 423.206 44.3167H425.232C425.395 44.3167 425.527 44.1886 425.527 44.0305V42.8272C425.527 42.6692 425.395 42.5411 425.232 42.5411H423.206C423.043 42.5411 422.911 42.413 422.911 42.255V38.0493C422.911 37.8913 422.779 37.7632 422.616 37.7632H421.201C421.038 37.7632 420.906 37.8913 420.906 38.0493V42.255C420.906 42.413 420.774 42.5411 420.611 42.5411H419.326C419.164 42.5411 419.031 42.6692 419.031 42.8272V44.0305C419.031 44.1886 419.164 44.3167 419.326 44.3167H420.611C420.774 44.3167 420.906 44.4448 420.906 44.6028V50.1085C420.92 51.0385 421.211 51.7643 421.778 52.2857ZM393.14 51.9686C394.114 51.1231 394.6 50.0662 394.6 48.7979C394.6 48.0229 394.375 47.3253 393.925 46.7053C393.718 46.4104 393.42 46.0357 392.546 45.5608C392.362 45.4605 392.357 45.1931 392.531 45.0772C393.577 44.3825 394.099 43.3308 394.099 42.0972C394.099 40.9276 393.656 39.9764 392.77 39.2436C391.869 38.4826 390.757 38.1021 389.435 38.1021C388.374 38.1021 387.451 38.3769 386.667 38.9265C385.968 39.4162 385.447 40.0402 385.106 40.7985C385.035 40.9556 385.116 41.1351 385.279 41.2019L386.518 41.7108C386.693 41.7829 386.894 41.6963 386.973 41.528C387.461 40.4842 388.282 39.9623 389.435 39.9623C390.219 39.9623 390.852 40.1596 391.331 40.5541C391.811 40.9487 392.05 41.4631 392.05 42.0972C392.05 42.7877 391.796 43.3514 391.287 43.7882C390.779 44.211 390.125 44.4224 389.326 44.4224H388.524C388.341 44.4224 388.192 44.5665 388.192 44.7443V45.9183C388.192 46.0961 388.341 46.2402 388.524 46.2402H389.478C390.321 46.2402 391.04 46.4868 391.636 46.9801C392.247 47.4733 392.552 48.0792 392.552 48.7979C392.552 49.5166 392.261 50.1296 391.68 50.6369C391.084 51.1301 390.379 51.3767 389.566 51.3767C388.825 51.3767 388.185 51.1654 387.648 50.7426C387.202 50.3708 386.862 49.8662 386.628 49.2289C386.561 49.0469 386.352 48.9479 386.168 49.0223L384.956 49.5121C384.8 49.5749 384.717 49.7411 384.772 49.8956C385.111 50.8562 385.699 51.6458 386.536 52.2645C387.437 52.9128 388.447 53.2369 389.566 53.2369C390.99 53.2369 392.181 52.8141 393.14 51.9686ZM398.159 49.728C398.159 49.1643 398.428 48.6922 398.965 48.3117C399.517 47.9313 400.2 47.741 401.014 47.741C402.058 47.741 402.887 47.9496 403.501 48.3667C403.584 48.4231 403.631 48.5172 403.625 48.6155C403.585 49.3678 403.252 50.0275 402.627 50.5946C401.973 51.2006 401.225 51.5036 400.382 51.5036C399.786 51.5036 399.263 51.3345 398.813 50.9963C398.377 50.658 398.159 50.2353 398.159 49.728ZM404.262 43.3655C403.404 42.5904 402.235 42.2029 400.752 42.2029C398.966 42.2029 397.588 42.799 396.621 43.9911C396.517 44.1194 396.556 44.305 396.699 44.392L397.963 45.1642C398.097 45.2458 398.272 45.2099 398.371 45.0903C399.006 44.3209 399.836 43.9362 400.861 43.9362C401.602 43.9362 402.249 44.1758 402.801 44.6549C403.357 45.1229 403.554 45.6854 403.61 46.3206C403.629 46.539 403.384 46.6802 403.175 46.5958C402.485 46.3165 401.656 46.1768 400.687 46.1768C399.292 46.1768 398.173 46.4939 397.33 47.128C396.502 47.7622 396.088 48.6147 396.088 49.6857C396.088 50.7003 396.48 51.5458 397.265 52.2222C398.064 52.8987 399.052 53.2369 400.229 53.2369C401.61 53.2369 402.714 52.645 403.542 51.4613V52.6125C403.542 52.7706 403.674 52.8987 403.837 52.8987H405.252C405.415 52.8987 405.548 52.7706 405.548 52.6125V46.515C405.548 45.1763 405.119 44.1264 404.262 43.3655ZM417.181 52.5946C417.181 52.7625 417.041 52.8987 416.868 52.8987H415.49C415.317 52.8987 415.176 52.7625 415.176 52.5946V52.2551C415.176 52.036 414.834 51.931 414.673 52.0847C414.421 52.3259 414.116 52.5409 413.76 52.7296C413.135 53.0678 412.481 53.2369 411.798 53.2369C410.49 53.2369 409.48 52.8775 408.768 52.1588C408.071 51.4261 407.722 50.3903 407.722 49.0516V42.8451C407.722 42.6772 407.862 42.5411 408.035 42.5411H409.414C409.587 42.5411 409.727 42.6772 409.727 42.8451V48.9247C409.771 50.6158 410.65 51.4613 412.365 51.4613C413.164 51.4613 413.832 51.1513 414.37 50.5312C414.907 49.8971 415.176 49.1432 415.176 48.2695V42.8451C415.176 42.6772 415.317 42.5411 415.49 42.5411H416.868C417.041 42.5411 417.181 42.6772 417.181 42.8451V52.5946ZM427.541 38.0493C427.541 37.8913 427.673 37.7632 427.836 37.7632H429.251C429.414 37.7632 429.546 37.8913 429.546 38.0493V43.1847C429.546 43.4037 429.886 43.5079 430.046 43.3532C430.295 43.1127 430.593 42.8984 430.941 42.7102C431.58 42.372 432.241 42.2029 432.924 42.2029C434.232 42.2029 435.235 42.5693 435.932 43.3021C436.644 44.0207 437 45.0495 437 46.3882V52.6125C437 52.7706 436.868 52.8987 436.705 52.8987H435.29C435.127 52.8987 434.995 52.7706 434.995 52.6125V46.7687C434.995 44.9085 434.145 43.9785 432.445 43.9785C431.631 43.9785 430.941 44.3096 430.374 44.972C429.822 45.6202 429.546 46.3811 429.546 47.2548V52.6125C429.546 52.7706 429.414 52.8987 429.251 52.8987H427.836C427.673 52.8987 427.541 52.7706 427.541 52.6125V38.0493Z" fill="white"/>
<path d="M335.773 51.2568C335.89 51.6864 336.508 51.6864 336.625 51.2568L339.985 38.8916C340.14 38.3223 339.705 37.7632 339.107 37.7632H337.035C336.624 37.7632 336.264 38.0357 336.157 38.4276L334.262 45.4005C334.236 45.4973 334.236 45.5991 334.262 45.6958L335.773 51.2568Z" fill="white"/>
<path d="M324.031 45.3915C324.057 45.4882 324.057 45.5901 324.031 45.6868L322.519 51.2478C322.403 51.6773 321.785 51.6773 321.668 51.2478L318.31 38.8916C318.156 38.3223 318.591 37.7632 319.188 37.7632H321.26C321.672 37.7632 322.032 38.0357 322.138 38.4276L324.031 45.3915Z" fill="white"/>
<path d="M326.863 53.9749C326.76 54.3545 326.412 54.6184 326.015 54.6184H323.895C323.318 54.6184 322.897 54.0769 323.047 53.5254L327.127 38.4671C327.239 38.0519 327.619 37.7632 328.054 37.7632H330.52C330.954 37.7632 331.335 38.0519 331.447 38.4671L335.527 53.5254C335.676 54.0769 335.256 54.6184 334.679 54.6184H332.559C332.162 54.6184 331.814 54.3545 331.711 53.9749L329.698 46.544C329.585 46.1284 328.989 46.1284 328.876 46.544L326.863 53.9749Z" fill="white"/>
<path d="M328.542 52.4079C328.391 52.4079 328.28 52.273 328.32 52.1355L329.064 49.5289C329.125 49.315 329.449 49.315 329.51 49.5289L330.254 52.1355C330.294 52.273 330.183 52.4079 330.032 52.4079H328.542Z" fill="white"/>
</g>
<g filter="url(#filter0_d_306_1086)">
<rect x="175" y="103" width="144" height="144" rx="72" fill="white"/>
<path fill-rule="evenodd" clip-rule="evenodd" d="M244.57 205.834C244.405 206.443 244.87 207.042 245.509 207.042H251.105C251.744 207.042 252.21 206.443 252.044 205.834L249.246 195.519C248.988 194.57 247.626 194.57 247.368 195.519L244.57 205.834Z" fill="#0364FF"/>
<path fill-rule="evenodd" clip-rule="evenodd" d="M238.997 212.437C238.568 214.017 237.119 215.115 235.463 215.115H227.887C225.482 215.115 223.731 212.862 224.353 210.567L239.894 153.284C240.363 151.556 241.948 150.355 243.759 150.355H252.775C254.586 150.355 256.172 151.556 256.64 153.284L272.181 210.567C272.804 212.862 271.053 215.115 268.647 215.115H261.072C259.416 215.115 257.966 214.017 257.538 212.437L249.979 184.576C249.51 182.847 247.025 182.847 246.555 184.576L238.997 212.437Z" fill="#0364FF"/>
<path fill-rule="evenodd" clip-rule="evenodd" d="M277.102 201.643C276.618 203.429 274.053 203.429 273.568 201.643L267.926 180.847C267.817 180.445 267.817 180.022 267.926 179.62L275.117 153.117C275.559 151.488 277.053 150.355 278.761 150.355H286.1C288.581 150.355 290.386 152.679 289.744 155.046L277.102 201.643ZM228.695 180.812C228.804 180.41 228.804 179.987 228.695 179.585L221.515 153.117C221.073 151.488 219.578 150.355 217.87 150.355H210.531C208.051 150.355 206.245 152.679 206.887 155.046L219.519 201.608C220.004 203.394 222.569 203.394 223.053 201.608L228.695 180.812Z" fill="#0364FF"/>
</g>
<path d="M437 174.5C437 214.541 469.459 247 509.5 247C549.541 247 582 214.541 582 174.5C582 134.459 549.541 102 509.5 102C469.459 102 437 134.459 437 174.5Z" fill="url(#paint1_linear_306_1086)"/>
<path d="M468.352 151.692H474.465C505.978 151.692 531.525 177.239 531.525 208.752V214.865H543.752C547.128 214.865 549.865 212.128 549.865 208.752C549.865 167.109 516.107 133.352 474.465 133.352C471.089 133.352 468.352 136.089 468.352 139.465V151.692Z" fill="url(#paint2_radial_306_1086)"/>
<path d="M533.562 208.751H549.865C549.865 212.128 547.128 214.865 543.751 214.865H533.562V208.751Z" fill="url(#paint3_linear_306_1086)"/>
<path d="M474.465 133.352V149.654H468.352V139.465C468.352 136.089 471.089 133.352 474.465 133.352Z" fill="url(#paint4_linear_306_1086)"/>
<path d="M468.352 149.654H474.465C507.104 149.654 533.562 176.113 533.562 208.752V214.865H515.222V208.752C515.222 186.242 496.974 167.995 474.465 167.995H468.352V149.654Z" fill="url(#paint5_radial_306_1086)"/>
<path d="M517.26 208.751H533.562V214.865H517.26V208.751Z" fill="url(#paint6_linear_306_1086)"/>
<path d="M468.352 165.957V149.654H474.465V165.957H468.352Z" fill="url(#paint7_linear_306_1086)"/>
<path d="M468.352 176.146C468.352 179.523 471.089 182.26 474.465 182.26C489.096 182.26 500.957 194.121 500.957 208.752C500.957 212.128 503.694 214.865 507.07 214.865H517.26V208.752C517.26 185.117 498.1 165.957 474.465 165.957H468.352V176.146Z" fill="url(#paint8_radial_306_1086)"/>
<path d="M500.957 208.751H517.26V214.865H507.071C503.694 214.865 500.957 212.128 500.957 208.751Z" fill="url(#paint9_radial_306_1086)"/>
<path d="M474.465 182.26C471.089 182.26 468.352 179.523 468.352 176.146V165.957H474.465V182.26Z" fill="url(#paint10_radial_306_1086)"/>
<defs>
<filter id="filter0_d_306_1086" x="141" y="69" width="212" height="212" filterUnits="userSpaceOnUse" color-interpolation-filters="sRGB">
<feFlood flood-opacity="0" result="BackgroundImageFix"/>
<feColorMatrix in="SourceAlpha" type="matrix" values="0 0 0 0 0 0 0 0 0 0 0 0 0 0 0 0 0 0 127 0" result="hardAlpha"/>
<feOffset/>
<feGaussianBlur stdDeviation="17"/>
<feComposite in2="hardAlpha" operator="out"/>
<feColorMatrix type="matrix" values="0 0 0 0 0.0117647 0 0 0 0 0.392157 0 0 0 0 1 0 0 0 0.2 0"/>
<feBlend mode="normal" in2="BackgroundImageFix" result="effect1_dropShadow_306_1086"/>
<feBlend mode="normal" in="SourceGraphic" in2="effect1_dropShadow_306_1086" result="shape"/>
</filter>
<linearGradient id="paint0_linear_306_1086" x1="0" y1="206.5" x2="756" y2="206.5" gradientUnits="userSpaceOnUse">
<stop stop-color="#0364FF"/>
<stop offset="1" stop-color="#7851C1"/>
</linearGradient>
<linearGradient id="paint1_linear_306_1086" x1="509.5" y1="102" x2="509.5" y2="247" gradientUnits="userSpaceOnUse">
<stop stop-color="#174299"/>
<stop offset="1" stop-color="#001E59"/>
</linearGradient>
<radialGradient id="paint2_radial_306_1086" cx="0" cy="0" r="1" gradientUnits="userSpaceOnUse" gradientTransform="translate(474.465 208.752) rotate(-90) scale(75.4)">
<stop offset="0.770277" stop-color="#FF4000"/>
<stop offset="1" stop-color="#8754C9"/>
</radialGradient>
<linearGradient id="paint3_linear_306_1086" x1="532.543" y1="211.808" x2="549.865" y2="211.808" gradientUnits="userSpaceOnUse">
<stop stop-color="#FF4000"/>
<stop offset="1" stop-color="#8754C9"/>
</linearGradient>
<linearGradient id="paint4_linear_306_1086" x1="471.408" y1="133.352" x2="471.408" y2="150.673" gradientUnits="userSpaceOnUse">
<stop stop-color="#8754C9"/>
<stop offset="1" stop-color="#FF4000"/>
</linearGradient>
<radialGradient id="paint5_radial_306_1086" cx="0" cy="0" r="1" gradientUnits="userSpaceOnUse" gradientTransform="translate(474.465 208.752) rotate(-90) scale(59.0973)">
<stop offset="0.723929" stop-color="#FFF700"/>
<stop offset="1" stop-color="#FF9901"/>
</radialGradient>
<linearGradient id="paint6_linear_306_1086" x1="517.26" y1="211.808" x2="533.562" y2="211.808" gradientUnits="userSpaceOnUse">
<stop stop-color="#FFF700"/>
<stop offset="1" stop-color="#FF9901"/>
</linearGradient>
<linearGradient id="paint7_linear_306_1086" x1="471.408" y1="165.957" x2="471.408" y2="149.654" gradientUnits="userSpaceOnUse">
<stop stop-color="#FFF700"/>
<stop offset="1" stop-color="#FF9901"/>
</linearGradient>
<radialGradient id="paint8_radial_306_1086" cx="0" cy="0" r="1" gradientUnits="userSpaceOnUse" gradientTransform="translate(474.465 208.752) rotate(-90) scale(42.7946)">
<stop offset="0.59513" stop-color="#00AAFF"/>
<stop offset="1" stop-color="#01DA40"/>
</radialGradient>
<radialGradient id="paint9_radial_306_1086" cx="0" cy="0" r="1" gradientUnits="userSpaceOnUse" gradientTransform="translate(499.938 211.808) scale(17.3216 46.191)">
<stop stop-color="#00AAFF"/>
<stop offset="1" stop-color="#01DA40"/>
</radialGradient>
<radialGradient id="paint10_radial_306_1086" cx="0" cy="0" r="1" gradientUnits="userSpaceOnUse" gradientTransform="translate(471.408 183.279) rotate(-90) scale(17.3216 328.469)">
<stop stop-color="#00AAFF"/>
<stop offset="1" stop-color="#01DA40"/>
</radialGradient>
</defs>
</svg>
