<svg width="756" height="350" viewBox="0 0 756 350" fill="none" xmlns="http://www.w3.org/2000/svg">
<rect width="756" height="350" fill="black"/>
<rect width="756" height="350" fill="white"/>
<rect width="756" height="350" fill="url(#paint0_linear_1128_242829)" fill-opacity="0.6"/>
<g style="mix-blend-mode:overlay">
<path fill-rule="evenodd" clip-rule="evenodd" d="M378.205 53.2374C377.421 53.2374 376.701 53.0753 376.048 52.7512C375.679 52.5642 375.358 52.3419 375.086 52.0845C374.914 51.9218 374.565 52.0322 374.565 52.2652V52.613C374.565 52.771 374.433 52.8991 374.27 52.8991H372.855C372.692 52.8991 372.56 52.771 372.56 52.613V38.0498C372.56 37.8918 372.692 37.7637 372.855 37.7637H374.264C374.427 37.7637 374.559 37.8918 374.559 38.0498V43.1755C374.559 43.4085 374.908 43.5195 375.081 43.3574C375.355 43.0995 375.678 42.8769 376.048 42.6896C376.701 42.3654 377.421 42.2034 378.205 42.2034C379.615 42.2034 380.806 42.7389 381.78 43.8099C382.783 44.8949 383.284 46.1984 383.284 47.7204C383.284 49.2564 382.783 50.5599 381.78 51.6309C380.806 52.7019 379.615 53.2374 378.205 53.2374ZM377.878 51.4618C378.837 51.4618 379.644 51.1095 380.298 50.4049C380.952 49.7144 381.279 48.8195 381.279 47.7204C381.279 46.6353 380.952 45.7405 380.298 45.0359C379.644 44.3313 378.837 43.979 377.878 43.979C376.905 43.979 376.091 44.3313 375.437 45.0359C374.798 45.7405 374.478 46.6353 374.478 47.7204C374.478 48.8195 374.798 49.7214 375.437 50.426C376.091 51.1165 376.905 51.4618 377.878 51.4618ZM365.67 53.2374C364.1 53.2374 362.807 52.7159 361.79 51.6731C360.773 50.6303 360.264 49.3128 360.264 47.7204C360.264 46.1421 360.758 44.8315 361.746 43.7887C362.735 42.7318 363.999 42.2034 365.539 42.2034C367.123 42.2034 368.38 42.7036 369.31 43.7042C370.312 44.7509 370.791 46.3251 370.728 47.757C370.72 47.9405 370.56 48.0797 370.371 48.0797H362.673C362.476 48.0797 362.316 48.238 362.337 48.4283C362.428 49.2832 362.769 49.9843 363.359 50.5317C364.028 51.1517 364.827 51.4618 365.757 51.4618C366.943 51.4618 367.892 50.928 368.603 49.8604C368.698 49.7176 368.887 49.6597 369.045 49.7342L370.243 50.301C370.412 50.3808 370.48 50.5813 370.382 50.7368C369.919 51.4733 369.307 52.0602 368.547 52.4975C367.704 52.9907 366.745 53.2374 365.67 53.2374ZM362.582 46.065C362.511 46.2713 362.678 46.4732 362.903 46.4732H368.212C368.416 46.4732 368.579 46.3035 368.538 46.1095C368.419 45.5524 368.131 45.0817 367.675 44.6976C367.137 44.2185 366.411 43.979 365.495 43.979C364.74 43.979 364.086 44.2044 363.534 44.6554C363.096 45.0225 362.779 45.4924 362.582 46.065ZM359.65 42.9389C359.715 42.7426 359.564 42.5416 359.351 42.5416H357.967C357.828 42.5416 357.706 42.6304 357.667 42.7597L355.625 49.4793C355.544 49.7488 355.152 49.7544 355.062 49.4874L352.79 42.7511C352.748 42.6261 352.628 42.5416 352.493 42.5416H350.876C350.741 42.5416 350.621 42.6258 350.578 42.7504L348.286 49.4918C348.196 49.7583 347.805 49.7523 347.723 49.4831L345.681 42.7597C345.641 42.6304 345.519 42.5416 345.38 42.5416H343.952C343.74 42.5416 343.589 42.7426 343.654 42.9389L346.896 52.6884C346.937 52.814 347.058 52.8991 347.194 52.8991H348.764C348.9 52.8991 349.021 52.8139 349.063 52.6883L351.35 45.7942C351.438 45.5299 351.823 45.5295 351.912 45.7936L354.219 52.689C354.261 52.8143 354.381 52.8991 354.517 52.8991H356.11C356.246 52.8991 356.366 52.814 356.408 52.6884L359.65 42.9389ZM421.777 52.2862C422.358 52.8076 423.085 53.0683 423.957 53.0683C424.534 53.0683 425.051 53.0056 425.508 52.8802C425.665 52.8375 425.744 52.6738 425.69 52.5255L425.262 51.3519C425.204 51.1946 425.021 51.1186 424.857 51.169C424.812 51.1826 424.766 51.1957 424.719 51.2081C424.574 51.2363 424.422 51.2504 424.262 51.2504C423.913 51.2504 423.601 51.1306 423.324 50.8911C423.048 50.6374 422.91 50.1653 422.91 49.4748V44.6033C422.91 44.4453 423.042 44.3172 423.205 44.3172H425.231C425.394 44.3172 425.526 44.1891 425.526 44.031V42.8277C425.526 42.6697 425.394 42.5416 425.231 42.5416H423.205C423.042 42.5416 422.91 42.4135 422.91 42.2555V38.0498C422.91 37.8918 422.778 37.7637 422.615 37.7637H421.2C421.037 37.7637 420.905 37.8918 420.905 38.0498V42.2555C420.905 42.4135 420.773 42.5416 420.61 42.5416H419.326C419.163 42.5416 419.031 42.6697 419.031 42.8277V44.031C419.031 44.1891 419.163 44.3172 419.326 44.3172H420.61C420.773 44.3172 420.905 44.4453 420.905 44.6033V50.1089C420.92 51.039 421.21 51.7648 421.777 52.2862ZM393.139 51.9691C394.113 51.1236 394.6 50.0667 394.6 48.7984C394.6 48.0233 394.375 47.3258 393.924 46.7057C393.717 46.4109 393.419 46.0362 392.546 45.5613C392.361 45.4609 392.356 45.1936 392.531 45.0776C393.576 44.383 394.098 43.3312 394.098 42.0977C394.098 40.9281 393.655 39.9769 392.769 39.2441C391.868 38.4831 390.756 38.1026 389.434 38.1026C388.373 38.1026 387.451 38.3774 386.666 38.927C385.967 39.4167 385.446 40.0407 385.105 40.799C385.034 40.9561 385.115 41.1355 385.278 41.2024L386.517 41.7113C386.693 41.7834 386.893 41.6968 386.972 41.5285C387.46 40.4847 388.281 39.9628 389.434 39.9628C390.219 39.9628 390.851 40.16 391.33 40.5546C391.81 40.9492 392.05 41.4636 392.05 42.0977C392.05 42.7882 391.795 43.3519 391.287 43.7887C390.778 44.2115 390.124 44.4229 389.325 44.4229H388.524C388.34 44.4229 388.192 44.567 388.192 44.7448V45.9188C388.192 46.0966 388.34 46.2407 388.524 46.2407H389.478C390.32 46.2407 391.04 46.4873 391.636 46.9805C392.246 47.4738 392.551 48.0797 392.551 48.7984C392.551 49.5171 392.26 50.1301 391.679 50.6374C391.083 51.1306 390.379 51.3772 389.565 51.3772C388.824 51.3772 388.184 51.1658 387.647 50.7431C387.202 50.3712 386.862 49.8667 386.627 49.2294C386.56 49.0474 386.351 48.9484 386.168 49.0227L384.955 49.5126C384.8 49.5754 384.716 49.7416 384.771 49.8961C385.11 50.8567 385.698 51.6463 386.535 52.265C387.436 52.9132 388.446 53.2374 389.565 53.2374C390.989 53.2374 392.18 52.8146 393.139 51.9691ZM398.158 49.7285C398.158 49.1648 398.427 48.6927 398.964 48.3122C399.517 47.9317 400.2 47.7415 401.013 47.7415C402.057 47.7415 402.886 47.9501 403.5 48.3672C403.583 48.4236 403.63 48.5177 403.625 48.616C403.585 49.3683 403.252 50.028 402.626 50.5951C401.972 51.2011 401.224 51.504 400.381 51.504C399.785 51.504 399.262 51.3349 398.812 50.9967C398.376 50.6585 398.158 50.2358 398.158 49.7285ZM404.261 43.366C403.404 42.5909 402.234 42.2034 400.752 42.2034C398.965 42.2034 397.588 42.7994 396.62 43.9916C396.516 44.1199 396.555 44.3054 396.698 44.3925L397.963 45.1647C398.096 45.2463 398.272 45.2104 398.37 45.0908C399.005 44.3214 399.835 43.9367 400.861 43.9367C401.602 43.9367 402.248 44.1762 402.801 44.6554C403.356 45.1234 403.553 45.6858 403.609 46.3211C403.629 46.5395 403.383 46.6807 403.174 46.5963C402.484 46.317 401.655 46.1773 400.686 46.1773C399.291 46.1773 398.172 46.4944 397.33 47.1285C396.501 47.7626 396.087 48.6152 396.087 49.6862C396.087 50.7008 396.48 51.5463 397.264 52.2227C398.064 52.8991 399.052 53.2374 400.229 53.2374C401.609 53.2374 402.713 52.6455 403.542 51.4618V52.613C403.542 52.771 403.674 52.8991 403.837 52.8991H405.252C405.415 52.8991 405.547 52.771 405.547 52.613V46.5155C405.547 45.1768 405.118 44.1269 404.261 43.366ZM417.181 52.5951C417.181 52.763 417.04 52.8991 416.867 52.8991H415.489C415.316 52.8991 415.176 52.763 415.176 52.5951V52.2556C415.176 52.0365 414.834 51.9315 414.673 52.0851C414.42 52.3264 414.115 52.5414 413.759 52.73C413.134 53.0683 412.48 53.2374 411.797 53.2374C410.489 53.2374 409.479 52.878 408.767 52.1593C408.07 51.4265 407.721 50.3908 407.721 49.0521V42.8456C407.721 42.6777 407.862 42.5416 408.035 42.5416H409.413C409.586 42.5416 409.727 42.6777 409.727 42.8456V48.9252C409.77 50.6163 410.649 51.4618 412.364 51.4618C413.163 51.4618 413.831 51.1518 414.369 50.5317C414.907 49.8976 415.176 49.1437 415.176 48.27V42.8456C415.176 42.6777 415.316 42.5416 415.489 42.5416H416.867C417.04 42.5416 417.181 42.6777 417.181 42.8456V52.5951ZM427.54 38.0498C427.54 37.8918 427.672 37.7637 427.835 37.7637H429.25C429.413 37.7637 429.545 37.8918 429.545 38.0498V43.1852C429.545 43.4042 429.886 43.5084 430.046 43.3537C430.294 43.1132 430.592 42.8989 430.94 42.7107C431.579 42.3725 432.24 42.2034 432.923 42.2034C434.231 42.2034 435.234 42.5698 435.931 43.3025C436.643 44.0212 436.999 45.0499 436.999 46.3887V52.613C436.999 52.771 436.867 52.8991 436.704 52.8991H435.289C435.126 52.8991 434.994 52.771 434.994 52.613V46.7692C434.994 44.909 434.144 43.979 432.444 43.979C431.63 43.979 430.94 44.3101 430.373 44.9724C429.821 45.6207 429.545 46.3816 429.545 47.2553V52.613C429.545 52.771 429.413 52.8991 429.25 52.8991H427.835C427.672 52.8991 427.54 52.771 427.54 52.613V38.0498Z" fill="white"/>
<path d="M335.774 51.2573C335.891 51.6868 336.509 51.6868 336.625 51.2573L339.986 38.8921C340.14 38.3228 339.705 37.7637 339.107 37.7637H337.036C336.624 37.7637 336.264 38.0362 336.158 38.4281L334.263 45.401C334.236 45.4977 334.236 45.5996 334.263 45.6963L335.774 51.2573Z" fill="white"/>
<path d="M324.031 45.392C324.057 45.4887 324.057 45.5905 324.031 45.6873L322.52 51.2483C322.403 51.6778 321.785 51.6778 321.668 51.2483L318.311 38.8921C318.156 38.3228 318.591 37.7637 319.189 37.7637H321.261C321.672 37.7637 322.032 38.0362 322.139 38.4281L324.031 45.392Z" fill="white"/>
<path d="M326.863 53.9754C326.761 54.355 326.413 54.6189 326.015 54.6189H323.895C323.318 54.6189 322.898 54.0774 323.047 53.5259L327.127 38.4676C327.24 38.0524 327.62 37.7637 328.055 37.7637H330.52C330.955 37.7637 331.335 38.0524 331.448 38.4676L335.528 53.5259C335.677 54.0774 335.257 54.6189 334.68 54.6189H332.559C332.162 54.6189 331.814 54.355 331.711 53.9754L329.698 46.5445C329.586 46.1288 328.989 46.1288 328.877 46.5445L326.863 53.9754Z" fill="white"/>
<path d="M328.543 52.4084C328.391 52.4084 328.281 52.2734 328.32 52.136L329.065 49.5294C329.126 49.3155 329.449 49.3155 329.51 49.5294L330.255 52.136C330.294 52.2734 330.184 52.4084 330.032 52.4084H328.543Z" fill="white"/>
</g>
<g filter="url(#filter0_d_1128_242829)">
<rect x="175" y="103" width="144" height="144" rx="72" fill="white"/>
<path fill-rule="evenodd" clip-rule="evenodd" d="M244.569 205.835C244.403 206.444 244.869 207.043 245.508 207.043H251.104C251.743 207.043 252.208 206.444 252.043 205.835L249.245 195.52C248.987 194.571 247.625 194.571 247.367 195.52L244.569 205.835Z" fill="#0364FF"/>
<path fill-rule="evenodd" clip-rule="evenodd" d="M238.997 212.438C238.568 214.017 237.119 215.116 235.463 215.116H227.887C225.482 215.116 223.731 212.862 224.353 210.567L239.894 153.285C240.363 151.557 241.948 150.355 243.759 150.355H252.775C254.586 150.355 256.171 151.557 256.64 153.285L272.181 210.567C272.803 212.862 271.052 215.116 268.647 215.116H261.071C259.415 215.116 257.966 214.017 257.537 212.438L249.979 184.577C249.51 182.847 247.024 182.847 246.555 184.577L238.997 212.438Z" fill="#0364FF"/>
<path fill-rule="evenodd" clip-rule="evenodd" d="M277.102 201.644C276.617 203.429 274.052 203.429 273.568 201.644L267.926 180.848C267.817 180.446 267.817 180.022 267.926 179.62L275.116 153.117C275.558 151.488 277.053 150.355 278.761 150.355H286.099C288.58 150.355 290.386 152.68 289.744 155.046L277.102 201.644ZM228.695 180.813C228.804 180.411 228.804 179.988 228.695 179.585L221.514 153.117C221.072 151.488 219.577 150.355 217.87 150.355H210.531C208.05 150.355 206.244 152.68 206.886 155.046L219.519 201.609C220.003 203.394 222.568 203.394 223.053 201.609L228.695 180.813Z" fill="#0364FF"/>
</g>
<g filter="url(#filter1_d_1128_242829)">
<rect x="438" y="102" width="144" height="146" rx="72" fill="white"/>
<path d="M548.893 167.427C548.893 162.214 542.366 157.274 532.358 154.211C534.667 144.011 533.641 135.895 529.118 133.297C528.075 132.688 526.857 132.399 525.525 132.399V135.975C526.263 135.975 526.857 136.12 527.354 136.392C529.535 137.643 530.481 142.407 529.743 148.533C529.567 150.041 529.279 151.629 528.926 153.249C525.782 152.479 522.35 151.886 518.741 151.501C516.576 148.533 514.331 145.839 512.069 143.481C517.298 138.622 522.206 135.959 525.542 135.959V132.383C521.131 132.383 515.357 135.526 509.519 140.979C503.681 135.558 497.907 132.447 493.497 132.447V136.024C496.817 136.024 501.74 138.67 506.969 143.497C504.724 145.855 502.478 148.533 500.345 151.501C496.72 151.886 493.288 152.479 490.145 153.265C489.776 151.661 489.503 150.105 489.311 148.614C488.557 142.487 489.487 137.724 491.652 136.457C492.133 136.168 492.759 136.04 493.497 136.04V132.463C492.149 132.463 490.931 132.752 489.872 133.361C485.365 135.959 484.355 144.059 486.68 154.227C476.705 157.306 470.209 162.23 470.209 167.427C470.209 172.639 476.737 177.579 486.745 180.642C484.435 190.843 485.461 198.958 489.984 201.556C491.027 202.166 492.246 202.454 493.593 202.454C498.003 202.454 503.777 199.311 509.615 193.858C515.453 199.279 521.227 202.391 525.638 202.391C526.985 202.391 528.204 202.102 529.262 201.492C533.769 198.894 534.78 190.794 532.454 180.626C542.398 177.563 548.893 172.623 548.893 167.427V167.427ZM528.011 156.729C527.418 158.798 526.68 160.931 525.846 163.064C525.189 161.781 524.499 160.498 523.745 159.215C523.007 157.932 522.221 156.681 521.436 155.462C523.713 155.799 525.91 156.216 528.011 156.729V156.729ZM520.666 173.81C519.415 175.975 518.132 178.028 516.801 179.937C514.411 180.145 511.989 180.257 509.551 180.257C507.129 180.257 504.707 180.145 502.334 179.953C501.003 178.044 499.703 176.007 498.452 173.858C497.233 171.757 496.127 169.624 495.116 167.475C496.111 165.326 497.233 163.176 498.437 161.076C499.688 158.91 500.97 156.857 502.302 154.949C504.692 154.74 507.113 154.628 509.551 154.628C511.973 154.628 514.395 154.74 516.768 154.933C518.1 156.841 519.399 158.878 520.65 161.027C521.869 163.128 522.975 165.261 523.986 167.411C522.975 169.56 521.869 171.709 520.666 173.81V173.81ZM525.846 171.725C526.688 173.815 527.427 175.945 528.06 178.108C525.958 178.621 523.745 179.055 521.452 179.391C522.237 178.157 523.023 176.889 523.761 175.59C524.499 174.307 525.189 173.008 525.846 171.725ZM509.583 188.838C508.092 187.298 506.6 185.582 505.125 183.706C506.568 183.77 508.043 183.818 509.535 183.818C511.043 183.818 512.534 183.786 513.994 183.706C512.617 185.495 511.145 187.208 509.583 188.838V188.838ZM497.651 179.391C495.373 179.055 493.176 178.637 491.075 178.124C491.668 176.055 492.406 173.922 493.24 171.789C493.898 173.072 494.587 174.355 495.341 175.638C496.095 176.921 496.865 178.172 497.651 179.391ZM509.503 146.015C510.995 147.555 512.486 149.271 513.962 151.148C512.518 151.084 511.043 151.035 509.551 151.035C508.043 151.035 506.552 151.068 505.093 151.148C506.469 149.359 507.942 147.645 509.503 146.015V146.015ZM497.634 155.462C496.849 156.697 496.063 157.964 495.325 159.263C494.587 160.546 493.898 161.829 493.24 163.112C492.398 161.022 491.66 158.892 491.027 156.729C493.128 156.232 495.341 155.799 497.634 155.462V155.462ZM483.12 175.542C477.442 173.12 473.77 169.945 473.77 167.427C473.77 164.909 477.442 161.717 483.12 159.311C484.499 158.718 486.007 158.189 487.563 157.691C488.477 160.835 489.68 164.107 491.171 167.459C489.696 170.795 488.509 174.051 487.611 177.178C486.023 176.681 484.515 176.136 483.12 175.542ZM491.749 198.461C489.567 197.21 488.621 192.447 489.359 186.32C489.535 184.812 489.824 183.224 490.177 181.604C493.32 182.374 496.753 182.968 500.361 183.353C502.526 186.32 504.772 189.014 507.033 191.372C501.805 196.232 496.897 198.894 493.561 198.894C492.839 198.878 492.23 198.734 491.749 198.461V198.461ZM529.792 186.24C530.545 192.366 529.615 197.13 527.45 198.397C526.969 198.685 526.343 198.814 525.605 198.814C522.286 198.814 517.362 196.167 512.133 191.34C514.379 188.982 516.624 186.304 518.757 183.337C522.382 182.952 525.814 182.358 528.958 181.573C529.327 183.192 529.615 184.748 529.792 186.24ZM535.966 175.542C534.587 176.136 533.079 176.665 531.524 177.162C530.609 174.019 529.407 170.747 527.915 167.395C529.391 164.059 530.578 160.803 531.476 157.675C533.064 158.173 534.571 158.718 535.982 159.311C541.66 161.733 545.333 164.909 545.333 167.427C545.317 169.945 541.644 173.136 535.966 175.542V175.542Z" fill="#61DAFB"/>
<path d="M509.538 174.755C513.587 174.755 516.868 171.473 516.868 167.425C516.868 163.377 513.587 160.096 509.538 160.096C505.49 160.096 502.209 163.377 502.209 167.425C502.209 171.473 505.49 174.755 509.538 174.755Z" fill="#61DAFB"/>
<path d="M473.785 215.074H471.365V219.241H470V208.94H473.41C474.57 208.94 475.462 209.204 476.084 209.733C476.711 210.261 477.025 211.03 477.025 212.039C477.025 212.68 476.851 213.239 476.502 213.716C476.157 214.192 475.676 214.548 475.058 214.784L477.478 219.156V219.241H476.02L473.785 215.074ZM471.365 213.963H473.452C474.127 213.963 474.662 213.788 475.058 213.44C475.459 213.091 475.66 212.624 475.66 212.039C475.66 211.402 475.469 210.914 475.087 210.574C474.709 210.235 474.162 210.063 473.445 210.058H471.365V213.963ZM481.907 219.382C480.869 219.382 480.025 219.043 479.374 218.364C478.723 217.68 478.398 216.767 478.398 215.626V215.385C478.398 214.626 478.541 213.949 478.829 213.355C479.122 212.756 479.527 212.289 480.046 211.954C480.569 211.614 481.135 211.444 481.744 211.444C482.739 211.444 483.513 211.772 484.064 212.428C484.616 213.083 484.892 214.022 484.892 215.243V215.788H479.706C479.725 216.543 479.945 217.154 480.364 217.621C480.789 218.083 481.326 218.314 481.977 218.314C482.44 218.314 482.831 218.22 483.152 218.031C483.473 217.842 483.753 217.593 483.994 217.281L484.793 217.904C484.151 218.889 483.19 219.382 481.907 219.382ZM481.744 212.52C481.216 212.52 480.772 212.713 480.414 213.1C480.055 213.482 479.834 214.02 479.749 214.713H483.583V214.614C483.546 213.949 483.366 213.435 483.046 213.072C482.725 212.704 482.291 212.52 481.744 212.52ZM491.139 219.241C491.063 219.09 491.002 218.821 490.955 218.434C490.346 219.066 489.62 219.382 488.776 219.382C488.021 219.382 487.401 219.17 486.915 218.746C486.434 218.316 486.194 217.774 486.194 217.118C486.194 216.322 486.496 215.704 487.099 215.265C487.708 214.821 488.562 214.6 489.66 214.6H490.934V213.999C490.934 213.541 490.797 213.178 490.524 212.909C490.25 212.635 489.847 212.499 489.314 212.499C488.847 212.499 488.455 212.616 488.139 212.852C487.823 213.088 487.665 213.374 487.665 213.709H486.349C486.349 213.327 486.484 212.959 486.753 212.605C487.026 212.246 487.394 211.963 487.856 211.756C488.323 211.548 488.835 211.444 489.391 211.444C490.274 211.444 490.964 211.666 491.464 212.11C491.964 212.548 492.224 213.154 492.243 213.928V217.451C492.243 218.154 492.332 218.713 492.512 219.127V219.241H491.139ZM488.967 218.243C489.377 218.243 489.767 218.137 490.135 217.925C490.502 217.713 490.769 217.437 490.934 217.097V215.527H489.908C488.304 215.527 487.502 215.996 487.502 216.934C487.502 217.345 487.639 217.666 487.913 217.897C488.186 218.128 488.538 218.243 488.967 218.243ZM497.365 218.314C497.832 218.314 498.24 218.172 498.589 217.889C498.938 217.607 499.131 217.253 499.168 216.828H500.407C500.383 217.267 500.232 217.684 499.954 218.081C499.676 218.477 499.303 218.793 498.836 219.029C498.374 219.264 497.884 219.382 497.365 219.382C496.322 219.382 495.492 219.036 494.874 218.342C494.261 217.644 493.955 216.692 493.955 215.484V215.265C493.955 214.52 494.091 213.857 494.365 213.277C494.639 212.697 495.03 212.246 495.539 211.926C496.053 211.605 496.659 211.444 497.357 211.444C498.216 211.444 498.928 211.702 499.494 212.216C500.065 212.73 500.369 213.397 500.407 214.218H499.168C499.131 213.723 498.942 213.317 498.603 213.001C498.268 212.68 497.853 212.52 497.357 212.52C496.692 212.52 496.176 212.76 495.808 213.242C495.445 213.718 495.263 214.409 495.263 215.314V215.562C495.263 216.444 495.445 217.123 495.808 217.599C496.171 218.076 496.69 218.314 497.365 218.314ZM503.654 209.733V211.586H505.083V212.598H503.654V217.345C503.654 217.651 503.718 217.882 503.845 218.038C503.972 218.189 504.189 218.265 504.496 218.265C504.647 218.265 504.854 218.236 505.118 218.18V219.241C504.774 219.335 504.439 219.382 504.114 219.382C503.529 219.382 503.088 219.205 502.791 218.852C502.494 218.498 502.345 217.996 502.345 217.345V212.598H500.951V211.586H502.345V209.733H503.654ZM518.334 219.241H516.968L511.783 211.303V219.241H510.417V208.94H511.783L516.983 216.913V208.94H518.334V219.241ZM525.267 219.241C525.191 219.09 525.13 218.821 525.083 218.434C524.474 219.066 523.748 219.382 522.904 219.382C522.149 219.382 521.529 219.17 521.043 218.746C520.562 218.316 520.322 217.774 520.322 217.118C520.322 216.322 520.623 215.704 521.227 215.265C521.836 214.821 522.69 214.6 523.788 214.6H525.062V213.999C525.062 213.541 524.925 213.178 524.651 212.909C524.378 212.635 523.974 212.499 523.442 212.499C522.975 212.499 522.583 212.616 522.267 212.852C521.951 213.088 521.793 213.374 521.793 213.709H520.477C520.477 213.327 520.612 212.959 520.881 212.605C521.154 212.246 521.522 211.963 521.984 211.756C522.451 211.548 522.963 211.444 523.519 211.444C524.401 211.444 525.092 211.666 525.592 212.11C526.092 212.548 526.352 213.154 526.371 213.928V217.451C526.371 218.154 526.46 218.713 526.64 219.127V219.241H525.267ZM523.095 218.243C523.505 218.243 523.895 218.137 524.262 217.925C524.63 217.713 524.897 217.437 525.062 217.097V215.527H524.036C522.432 215.527 521.63 215.996 521.63 216.934C521.63 217.345 521.767 217.666 522.041 217.897C522.314 218.128 522.666 218.243 523.095 218.243ZM530.198 209.733V211.586H531.627V212.598H530.198V217.345C530.198 217.651 530.262 217.882 530.389 218.038C530.516 218.189 530.733 218.265 531.04 218.265C531.191 218.265 531.398 218.236 531.663 218.18V219.241C531.318 219.335 530.983 219.382 530.658 219.382C530.073 219.382 529.632 219.205 529.335 218.852C529.038 218.498 528.889 217.996 528.889 217.345V212.598H527.496V211.586H528.889V209.733H530.198ZM534.584 219.241H533.275V211.586H534.584V219.241ZM533.169 209.556C533.169 209.344 533.233 209.164 533.36 209.018C533.492 208.872 533.686 208.799 533.94 208.799C534.195 208.799 534.389 208.872 534.52 209.018C534.652 209.164 534.718 209.344 534.718 209.556C534.718 209.768 534.652 209.945 534.52 210.086C534.389 210.228 534.195 210.299 533.94 210.299C533.686 210.299 533.492 210.228 533.36 210.086C533.233 209.945 533.169 209.768 533.169 209.556ZM539.211 217.465L541.107 211.586H542.444L539.699 219.241H538.701L535.928 211.586H537.265L539.211 217.465ZM546.781 219.382C545.743 219.382 544.899 219.043 544.248 218.364C543.597 217.68 543.272 216.767 543.272 215.626V215.385C543.272 214.626 543.416 213.949 543.703 213.355C543.996 212.756 544.401 212.289 544.92 211.954C545.444 211.614 546.01 211.444 546.618 211.444C547.613 211.444 548.387 211.772 548.939 212.428C549.49 213.083 549.766 214.022 549.766 215.243V215.788H544.581C544.6 216.543 544.819 217.154 545.239 217.621C545.663 218.083 546.201 218.314 546.851 218.314C547.314 218.314 547.705 218.22 548.026 218.031C548.347 217.842 548.627 217.593 548.868 217.281L549.667 217.904C549.026 218.889 548.064 219.382 546.781 219.382ZM546.618 212.52C546.09 212.52 545.646 212.713 545.288 213.1C544.929 213.482 544.708 214.02 544.623 214.713H548.457V214.614C548.42 213.949 548.24 213.435 547.92 213.072C547.599 212.704 547.165 212.52 546.618 212.52Z" fill="#61DAFB"/>
</g>
<defs>
<filter id="filter0_d_1128_242829" x="141" y="69" width="212" height="212" filterUnits="userSpaceOnUse" color-interpolation-filters="sRGB">
<feFlood flood-opacity="0" result="BackgroundImageFix"/>
<feColorMatrix in="SourceAlpha" type="matrix" values="0 0 0 0 0 0 0 0 0 0 0 0 0 0 0 0 0 0 127 0" result="hardAlpha"/>
<feOffset/>
<feGaussianBlur stdDeviation="17"/>
<feComposite in2="hardAlpha" operator="out"/>
<feColorMatrix type="matrix" values="0 0 0 0 0.0117647 0 0 0 0 0.392157 0 0 0 0 1 0 0 0 0.2 0"/>
<feBlend mode="normal" in2="BackgroundImageFix" result="effect1_dropShadow_1128_242829"/>
<feBlend mode="normal" in="SourceGraphic" in2="effect1_dropShadow_1128_242829" result="shape"/>
</filter>
<filter id="filter1_d_1128_242829" x="404" y="68" width="212" height="214" filterUnits="userSpaceOnUse" color-interpolation-filters="sRGB">
<feFlood flood-opacity="0" result="BackgroundImageFix"/>
<feColorMatrix in="SourceAlpha" type="matrix" values="0 0 0 0 0 0 0 0 0 0 0 0 0 0 0 0 0 0 127 0" result="hardAlpha"/>
<feOffset/>
<feGaussianBlur stdDeviation="17"/>
<feComposite in2="hardAlpha" operator="out"/>
<feColorMatrix type="matrix" values="0 0 0 0 0.0117647 0 0 0 0 0.392157 0 0 0 0 1 0 0 0 0.2 0"/>
<feBlend mode="normal" in2="BackgroundImageFix" result="effect1_dropShadow_1128_242829"/>
<feBlend mode="normal" in="SourceGraphic" in2="effect1_dropShadow_1128_242829" result="shape"/>
</filter>
<linearGradient id="paint0_linear_1128_242829" x1="0" y1="206.5" x2="756" y2="206.5" gradientUnits="userSpaceOnUse">
<stop stop-color="#0364FF"/>
<stop offset="1" stop-color="#0CB8E8"/>
</linearGradient>
</defs>
</svg>
