<svg width="756" height="350" viewBox="0 0 756 350" fill="none" xmlns="http://www.w3.org/2000/svg">
<rect width="756" height="350" fill="black"/>
<rect width="756" height="350" fill="white"/>
<rect width="756" height="350" fill="url(#paint0_linear_1128_242829)" fill-opacity="0.6"/>
<g style="mix-blend-mode:overlay">
<path fill-rule="evenodd" clip-rule="evenodd" d="M378.205 53.2374C377.421 53.2374 376.701 53.0753 376.048 52.7512C375.679 52.5642 375.358 52.3419 375.086 52.0845C374.914 51.9218 374.565 52.0322 374.565 52.2652V52.613C374.565 52.771 374.433 52.8991 374.27 52.8991H372.855C372.692 52.8991 372.56 52.771 372.56 52.613V38.0498C372.56 37.8918 372.692 37.7637 372.855 37.7637H374.264C374.427 37.7637 374.559 37.8918 374.559 38.0498V43.1755C374.559 43.4085 374.908 43.5195 375.081 43.3574C375.355 43.0995 375.678 42.8769 376.048 42.6896C376.701 42.3654 377.421 42.2034 378.205 42.2034C379.615 42.2034 380.806 42.7389 381.78 43.8099C382.783 44.8949 383.284 46.1984 383.284 47.7204C383.284 49.2564 382.783 50.5599 381.78 51.6309C380.806 52.7019 379.615 53.2374 378.205 53.2374ZM377.878 51.4618C378.837 51.4618 379.644 51.1095 380.298 50.4049C380.952 49.7144 381.279 48.8195 381.279 47.7204C381.279 46.6353 380.952 45.7405 380.298 45.0359C379.644 44.3313 378.837 43.979 377.878 43.979C376.905 43.979 376.091 44.3313 375.437 45.0359C374.798 45.7405 374.478 46.6353 374.478 47.7204C374.478 48.8195 374.798 49.7214 375.437 50.426C376.091 51.1165 376.905 51.4618 377.878 51.4618ZM365.67 53.2374C364.1 53.2374 362.807 52.716 361.79 51.6731C360.773 50.6303 360.264 49.3128 360.264 47.7204C360.264 46.1421 360.758 44.8315 361.746 43.7887C362.735 42.7318 363.999 42.2034 365.539 42.2034C367.123 42.2034 368.38 42.7036 369.31 43.7042C370.312 44.7509 370.791 46.3251 370.728 47.757C370.72 47.9405 370.56 48.0797 370.371 48.0797H362.673C362.476 48.0797 362.316 48.238 362.337 48.4283C362.428 49.2832 362.769 49.9843 363.359 50.5317C364.028 51.1517 364.827 51.4618 365.757 51.4618C366.943 51.4618 367.892 50.928 368.603 49.8604C368.698 49.7176 368.887 49.6597 369.045 49.7342L370.243 50.301C370.412 50.3808 370.48 50.5813 370.382 50.7368C369.919 51.4733 369.307 52.0602 368.547 52.4975C367.704 52.9907 366.745 53.2374 365.67 53.2374ZM362.582 46.065C362.511 46.2713 362.678 46.4732 362.903 46.4732H368.212C368.416 46.4732 368.579 46.3035 368.538 46.1095C368.419 45.5524 368.131 45.0817 367.675 44.6976C367.137 44.2185 366.411 43.979 365.495 43.979C364.74 43.979 364.086 44.2044 363.534 44.6554C363.096 45.0225 362.779 45.4924 362.582 46.065ZM359.65 42.9389C359.715 42.7426 359.564 42.5416 359.351 42.5416H357.967C357.828 42.5416 357.706 42.6304 357.667 42.7597L355.625 49.4793C355.544 49.7488 355.152 49.7544 355.062 49.4874L352.79 42.7511C352.748 42.6261 352.628 42.5416 352.493 42.5416H350.876C350.741 42.5416 350.621 42.6258 350.578 42.7504L348.286 49.4918C348.196 49.7583 347.805 49.7523 347.723 49.4831L345.681 42.7597C345.641 42.6304 345.519 42.5416 345.38 42.5416H343.952C343.74 42.5416 343.589 42.7426 343.654 42.9389L346.896 52.6884C346.937 52.814 347.058 52.8991 347.194 52.8991H348.764C348.9 52.8991 349.021 52.8139 349.063 52.6883L351.35 45.7942C351.438 45.5299 351.823 45.5295 351.912 45.7936L354.219 52.689C354.261 52.8143 354.381 52.8991 354.517 52.8991H356.11C356.246 52.8991 356.366 52.814 356.408 52.6884L359.65 42.9389ZM421.777 52.2862C422.358 52.8076 423.085 53.0683 423.957 53.0683C424.534 53.0683 425.051 53.0056 425.508 52.8802C425.665 52.8375 425.744 52.6738 425.69 52.5255L425.262 51.3519C425.204 51.1946 425.021 51.1186 424.857 51.169C424.812 51.1826 424.766 51.1957 424.719 51.2081C424.574 51.2363 424.422 51.2504 424.262 51.2504C423.913 51.2504 423.601 51.1306 423.324 50.8911C423.048 50.6374 422.91 50.1653 422.91 49.4748V44.6033C422.91 44.4453 423.042 44.3172 423.205 44.3172H425.231C425.394 44.3172 425.526 44.1891 425.526 44.031V42.8277C425.526 42.6697 425.394 42.5416 425.231 42.5416H423.205C423.042 42.5416 422.91 42.4135 422.91 42.2555V38.0498C422.91 37.8918 422.778 37.7637 422.615 37.7637H421.2C421.037 37.7637 420.905 37.8918 420.905 38.0498V42.2555C420.905 42.4135 420.773 42.5416 420.61 42.5416H419.326C419.163 42.5416 419.031 42.6697 419.031 42.8277V44.031C419.031 44.1891 419.163 44.3172 419.326 44.3172H420.61C420.773 44.3172 420.905 44.4453 420.905 44.6033V50.1089C420.92 51.039 421.21 51.7648 421.777 52.2862ZM393.139 51.9691C394.113 51.1236 394.6 50.0667 394.6 48.7984C394.6 48.0233 394.375 47.3258 393.924 46.7057C393.717 46.4109 393.419 46.0362 392.546 45.5613C392.361 45.4609 392.356 45.1936 392.531 45.0776C393.576 44.383 394.098 43.3312 394.098 42.0977C394.098 40.9281 393.655 39.9769 392.769 39.2441C391.868 38.4831 390.756 38.1026 389.434 38.1026C388.373 38.1026 387.451 38.3774 386.666 38.927C385.967 39.4167 385.446 40.0407 385.105 40.799C385.034 40.9561 385.115 41.1355 385.278 41.2024L386.517 41.7113C386.693 41.7834 386.893 41.6968 386.972 41.5285C387.46 40.4847 388.281 39.9628 389.434 39.9628C390.219 39.9628 390.851 40.16 391.33 40.5546C391.81 40.9492 392.05 41.4636 392.05 42.0977C392.05 42.7882 391.795 43.3519 391.287 43.7887C390.778 44.2115 390.124 44.4229 389.325 44.4229H388.524C388.34 44.4229 388.192 44.567 388.192 44.7448V45.9188C388.192 46.0966 388.34 46.2407 388.524 46.2407H389.478C390.32 46.2407 391.04 46.4873 391.636 46.9805C392.246 47.4738 392.551 48.0797 392.551 48.7984C392.551 49.5171 392.26 50.1301 391.679 50.6374C391.083 51.1306 390.379 51.3772 389.565 51.3772C388.824 51.3772 388.184 51.1658 387.647 50.7431C387.202 50.3712 386.862 49.8667 386.627 49.2294C386.56 49.0474 386.351 48.9484 386.168 49.0227L384.955 49.5126C384.8 49.5754 384.716 49.7416 384.771 49.8961C385.11 50.8567 385.698 51.6463 386.535 52.265C387.436 52.9132 388.446 53.2374 389.565 53.2374C390.989 53.2374 392.18 52.8146 393.139 51.9691ZM398.158 49.7285C398.158 49.1648 398.427 48.6927 398.964 48.3122C399.517 47.9317 400.2 47.7415 401.013 47.7415C402.057 47.7415 402.886 47.9501 403.5 48.3672C403.583 48.4236 403.63 48.5177 403.625 48.616C403.585 49.3683 403.252 50.028 402.626 50.5951C401.972 51.2011 401.224 51.504 400.381 51.504C399.785 51.504 399.262 51.3349 398.812 50.9967C398.376 50.6585 398.158 50.2358 398.158 49.7285ZM404.261 43.366C403.404 42.5909 402.234 42.2034 400.752 42.2034C398.965 42.2034 397.588 42.7994 396.62 43.9916C396.516 44.1199 396.555 44.3054 396.698 44.3925L397.963 45.1647C398.096 45.2463 398.271 45.2104 398.37 45.0908C399.005 44.3214 399.835 43.9367 400.861 43.9367C401.602 43.9367 402.248 44.1762 402.801 44.6554C403.356 45.1234 403.553 45.6858 403.609 46.3211C403.629 46.5395 403.383 46.6807 403.174 46.5963C402.484 46.317 401.655 46.1773 400.686 46.1773C399.291 46.1773 398.172 46.4944 397.33 47.1285C396.501 47.7626 396.087 48.6152 396.087 49.6862C396.087 50.7008 396.48 51.5463 397.264 52.2227C398.064 52.8991 399.052 53.2374 400.229 53.2374C401.609 53.2374 402.713 52.6455 403.542 51.4618V52.613C403.542 52.771 403.674 52.8991 403.837 52.8991H405.252C405.415 52.8991 405.547 52.771 405.547 52.613V46.5155C405.547 45.1768 405.118 44.1269 404.261 43.366ZM417.181 52.5951C417.181 52.763 417.04 52.8991 416.867 52.8991H415.489C415.316 52.8991 415.176 52.763 415.176 52.5951V52.2556C415.176 52.0365 414.834 51.9315 414.673 52.0851C414.42 52.3264 414.115 52.5414 413.759 52.73C413.134 53.0683 412.48 53.2374 411.797 53.2374C410.489 53.2374 409.479 52.878 408.767 52.1593C408.07 51.4265 407.721 50.3908 407.721 49.0521V42.8456C407.721 42.6777 407.862 42.5416 408.035 42.5416H409.413C409.586 42.5416 409.727 42.6777 409.727 42.8456V48.9252C409.77 50.6163 410.649 51.4618 412.364 51.4618C413.163 51.4618 413.831 51.1518 414.369 50.5317C414.907 49.8976 415.176 49.1437 415.176 48.27V42.8456C415.176 42.6777 415.316 42.5416 415.489 42.5416H416.867C417.04 42.5416 417.181 42.6777 417.181 42.8456V52.5951ZM427.54 38.0498C427.54 37.8918 427.672 37.7637 427.835 37.7637H429.25C429.413 37.7637 429.545 37.8918 429.545 38.0498V43.1852C429.545 43.4042 429.886 43.5084 430.046 43.3537C430.294 43.1132 430.592 42.8989 430.94 42.7107C431.579 42.3725 432.24 42.2034 432.923 42.2034C434.231 42.2034 435.234 42.5698 435.931 43.3025C436.643 44.0212 436.999 45.0499 436.999 46.3887V52.613C436.999 52.771 436.867 52.8991 436.704 52.8991H435.289C435.126 52.8991 434.994 52.771 434.994 52.613V46.7692C434.994 44.909 434.144 43.979 432.444 43.979C431.63 43.979 430.94 44.3101 430.373 44.9724C429.821 45.6207 429.545 46.3816 429.545 47.2553V52.613C429.545 52.771 429.413 52.8991 429.25 52.8991H427.835C427.672 52.8991 427.54 52.771 427.54 52.613V38.0498Z" fill="white"/>
<path d="M335.774 51.2573C335.891 51.6868 336.509 51.6868 336.625 51.2573L339.986 38.8921C340.14 38.3228 339.705 37.7637 339.107 37.7637H337.036C336.624 37.7637 336.264 38.0362 336.158 38.4281L334.263 45.401C334.236 45.4977 334.236 45.5996 334.263 45.6963L335.774 51.2573Z" fill="white"/>
<path d="M324.031 45.392C324.057 45.4887 324.057 45.5905 324.031 45.6873L322.52 51.2483C322.403 51.6778 321.785 51.6778 321.668 51.2483L318.311 38.8921C318.156 38.3228 318.591 37.7637 319.189 37.7637H321.261C321.672 37.7637 322.032 38.0362 322.139 38.4281L324.031 45.392Z" fill="white"/>
<path d="M326.863 53.9754C326.761 54.355 326.413 54.6189 326.015 54.6189H323.895C323.318 54.6189 322.898 54.0774 323.047 53.5259L327.127 38.4676C327.24 38.0524 327.62 37.7637 328.055 37.7637H330.52C330.955 37.7637 331.335 38.0524 331.448 38.4676L335.528 53.5259C335.677 54.0774 335.257 54.6189 334.68 54.6189H332.559C332.162 54.6189 331.814 54.355 331.711 53.9754L329.698 46.5445C329.586 46.1288 328.989 46.1288 328.877 46.5445L326.863 53.9754Z" fill="white"/>
<path d="M328.543 52.4084C328.391 52.4084 328.281 52.2734 328.32 52.136L329.065 49.5294C329.126 49.3155 329.449 49.3155 329.51 49.5294L330.255 52.136C330.294 52.2734 330.184 52.4084 330.032 52.4084H328.543Z" fill="white"/>
</g>
<g filter="url(#filter0_d_1128_242829)">
<rect x="174" y="103" width="144" height="144" rx="72" fill="white"/>
<path fill-rule="evenodd" clip-rule="evenodd" d="M243.569 205.835C243.403 206.444 243.869 207.043 244.508 207.043H250.104C250.743 207.043 251.208 206.444 251.043 205.835L248.245 195.52C247.987 194.571 246.625 194.571 246.367 195.52L243.569 205.835Z" fill="#0364FF"/>
<path fill-rule="evenodd" clip-rule="evenodd" d="M237.997 212.438C237.568 214.017 236.119 215.116 234.463 215.116H226.887C224.482 215.116 222.731 212.862 223.353 210.567L238.894 153.285C239.363 151.557 240.948 150.355 242.759 150.355H251.775C253.586 150.355 255.171 151.557 255.64 153.285L271.181 210.567C271.803 212.862 270.052 215.116 267.647 215.116H260.071C258.415 215.116 256.966 214.017 256.537 212.438L248.979 184.577C248.51 182.847 246.024 182.847 245.555 184.577L237.997 212.438Z" fill="#0364FF"/>
<path fill-rule="evenodd" clip-rule="evenodd" d="M276.102 201.644C275.617 203.429 273.052 203.429 272.568 201.644L266.926 180.848C266.817 180.446 266.817 180.022 266.926 179.62L274.116 153.117C274.558 151.488 276.053 150.355 277.761 150.355H285.099C287.58 150.355 289.386 152.68 288.744 155.046L276.102 201.644ZM227.695 180.813C227.804 180.411 227.804 179.988 227.695 179.585L220.514 153.117C220.072 151.488 218.577 150.355 216.87 150.355H209.531C207.05 150.355 205.244 152.68 205.886 155.046L218.519 201.609C219.003 203.394 221.568 203.394 222.053 201.609L227.695 180.813Z" fill="#0364FF"/>
</g>
<g clip-path="url(#clip0_1128_242829)">
<path d="M585.521 168.764C585.521 160.915 575.692 153.476 560.622 148.863C564.099 133.504 562.554 121.283 555.743 117.371C554.173 116.453 552.338 116.018 550.333 116.018V121.404C551.444 121.404 552.338 121.621 553.086 122.032C556.371 123.916 557.796 131.088 556.685 140.314C556.42 142.584 555.985 144.975 555.453 147.414C550.719 146.255 545.551 145.362 540.118 144.782C536.857 140.314 533.476 136.257 530.071 132.707C537.944 125.389 545.334 121.38 550.358 121.38V115.994C543.716 115.994 535.022 120.728 526.231 128.939C517.44 120.776 508.746 116.091 502.104 116.091V121.476C507.103 121.476 514.518 125.461 522.391 132.731C519.01 136.281 515.628 140.314 512.416 144.782C506.958 145.362 501.79 146.255 497.057 147.439C496.501 145.023 496.091 142.681 495.801 140.435C494.666 131.209 496.066 124.036 499.327 122.128C500.051 121.694 500.993 121.501 502.104 121.501V116.115C500.075 116.115 498.24 116.55 496.646 117.467C489.86 121.38 488.338 133.576 491.84 148.888C476.818 153.525 467.037 160.939 467.037 168.764C467.037 176.613 476.866 184.051 491.937 188.664C488.459 204.024 490.004 216.244 496.815 220.157C498.385 221.074 500.22 221.509 502.249 221.509C508.89 221.509 517.585 216.775 526.376 208.564C535.166 216.727 543.861 221.413 550.502 221.413C552.531 221.413 554.366 220.978 555.961 220.06C562.747 216.147 564.268 203.951 560.766 188.64C575.74 184.027 585.521 176.589 585.521 168.764ZM554.077 152.655C553.183 155.771 552.072 158.982 550.816 162.195C549.826 160.263 548.788 158.331 547.653 156.398C546.542 154.466 545.358 152.583 544.175 150.747C547.604 151.254 550.913 151.882 554.077 152.655ZM543.015 178.376C541.132 181.636 539.2 184.728 537.195 187.602C533.597 187.915 529.95 188.084 526.279 188.084C522.632 188.084 518.985 187.915 515.411 187.625C513.407 184.751 511.45 181.684 509.567 178.448C507.731 175.284 506.065 172.072 504.543 168.836C506.041 165.6 507.731 162.364 509.543 159.2C511.426 155.94 513.358 152.848 515.363 149.974C518.962 149.66 522.608 149.491 526.279 149.491C529.926 149.491 533.573 149.66 537.147 149.95C539.151 152.824 541.108 155.891 542.992 159.128C544.827 162.291 546.493 165.503 548.015 168.74C546.493 171.976 544.827 175.212 543.015 178.376ZM550.816 175.236C552.084 178.384 553.196 181.591 554.149 184.848C550.985 185.621 547.653 186.273 544.199 186.78C545.382 184.921 546.566 183.013 547.677 181.056C548.788 179.125 549.826 177.168 550.816 175.236ZM526.327 201.005C524.081 198.686 521.835 196.102 519.613 193.277C521.787 193.373 524.009 193.446 526.255 193.446C528.525 193.446 530.771 193.398 532.969 193.277C530.896 195.971 528.679 198.551 526.327 201.005ZM508.359 186.78C504.93 186.273 501.621 185.645 498.457 184.872C499.351 181.757 500.462 178.545 501.718 175.333C502.708 177.265 503.747 179.197 504.881 181.129C506.016 183.061 507.176 184.945 508.359 186.78ZM526.207 136.522C528.453 138.841 530.699 141.425 532.92 144.251C530.747 144.154 528.525 144.082 526.279 144.082C524.009 144.082 521.763 144.13 519.565 144.251C521.638 141.557 523.855 138.977 526.207 136.522ZM508.335 150.747C507.152 152.607 505.968 154.515 504.857 156.471C503.747 158.403 502.708 160.335 501.718 162.267C500.45 159.12 499.338 155.912 498.385 152.655C501.549 151.906 504.881 151.254 508.335 150.747ZM486.478 180.984C477.929 177.337 472.399 172.556 472.399 168.764C472.399 164.972 477.929 160.166 486.478 156.544C488.555 155.65 490.826 154.853 493.168 154.104C494.545 158.838 496.356 163.764 498.602 168.812C496.381 173.836 494.593 178.738 493.241 183.448C490.85 182.699 488.58 181.878 486.478 180.984ZM499.472 215.496C496.187 213.612 494.762 206.439 495.873 197.213C496.139 194.943 496.573 192.552 497.105 190.113C501.839 191.272 507.007 192.166 512.441 192.745C515.701 197.213 519.082 201.27 522.487 204.821C514.614 212.139 507.224 216.147 502.2 216.147C501.114 216.124 500.196 215.906 499.472 215.496ZM556.758 197.093C557.892 206.318 556.492 213.491 553.231 215.399C552.507 215.834 551.565 216.027 550.454 216.027C545.455 216.027 538.041 212.042 530.167 204.773C533.549 201.222 536.93 197.189 540.142 192.721C545.6 192.142 550.768 191.248 555.502 190.065C556.057 192.504 556.492 194.847 556.758 197.093ZM566.055 180.984C563.978 181.878 561.708 182.675 559.365 183.423C557.989 178.69 556.178 173.763 553.932 168.715C556.154 163.692 557.941 158.79 559.293 154.08C561.684 154.829 563.954 155.65 566.08 156.544C574.629 160.19 580.16 164.972 580.16 168.764C580.135 172.556 574.605 177.361 566.055 180.984Z" fill="#61DAFB"/>
<path d="M526.256 179.801C532.352 179.801 537.293 174.859 537.293 168.763C537.293 162.668 532.352 157.727 526.256 157.727C520.16 157.727 515.219 162.668 515.219 168.763C515.219 174.859 520.16 179.801 526.256 179.801ZM472.418 240.512H468.775V246.787H466.719V231.276H471.854C473.601 231.276 474.943 231.674 475.88 232.469C476.825 233.264 477.297 234.422 477.297 235.942C477.297 236.908 477.034 237.749 476.509 238.467C475.99 239.184 475.266 239.72 474.336 240.075L477.979 246.659V246.787H475.785L472.418 240.512ZM468.775 238.839H471.917C472.933 238.839 473.739 238.576 474.336 238.051C474.939 237.526 475.241 236.822 475.241 235.942C475.241 234.983 474.954 234.248 474.378 233.737C473.81 233.225 472.986 232.966 471.907 232.959H468.775V238.839ZM484.648 247C483.085 247 481.814 246.489 480.834 245.466C479.854 244.436 479.364 243.061 479.364 241.343V240.981C479.364 239.837 479.581 238.818 480.014 237.924C480.454 237.021 481.065 236.318 481.846 235.814C482.634 235.303 483.487 235.047 484.403 235.047C485.901 235.047 487.066 235.54 487.897 236.528C488.728 237.515 489.143 238.928 489.143 240.767V241.588H481.335C481.363 242.724 481.693 243.644 482.325 244.347C482.965 245.043 483.774 245.391 484.754 245.391C485.451 245.391 486.04 245.249 486.523 244.965C487.006 244.681 487.428 244.305 487.791 243.836L488.994 244.773C488.028 246.257 486.58 247 484.648 247ZM484.403 236.666C483.607 236.666 482.94 236.957 482.4 237.54C481.86 238.115 481.526 238.925 481.399 239.969H487.173V239.82C487.116 238.818 486.846 238.044 486.363 237.497C485.88 236.943 485.226 236.666 484.403 236.666ZM498.55 246.787C498.436 246.559 498.344 246.155 498.273 245.572C497.357 246.524 496.263 247 494.992 247C493.856 247 492.922 246.68 492.19 246.041C491.466 245.394 491.104 244.578 491.104 243.591C491.104 242.391 491.558 241.46 492.467 240.8C493.383 240.132 494.669 239.798 496.324 239.798H498.241V238.893C498.241 238.204 498.035 237.657 497.624 237.252C497.211 236.84 496.604 236.634 495.801 236.634C495.098 236.634 494.509 236.812 494.033 237.167C493.558 237.522 493.319 237.952 493.319 238.456H491.338C491.338 237.881 491.541 237.327 491.945 236.794C492.357 236.254 492.911 235.828 493.607 235.516C494.31 235.203 495.08 235.047 495.919 235.047C497.247 235.047 498.287 235.381 499.04 236.049C499.793 236.709 500.183 237.622 500.212 238.786V244.091C500.212 245.15 500.347 245.991 500.617 246.616V246.787H498.55ZM495.28 245.285C495.898 245.285 496.483 245.125 497.038 244.805C497.591 244.486 497.992 244.07 498.241 243.559V241.194H496.696C494.282 241.194 493.074 241.9 493.074 243.314C493.074 243.931 493.281 244.415 493.692 244.763C494.104 245.11 494.633 245.285 495.28 245.285ZM507.925 245.391C508.628 245.391 509.242 245.178 509.768 244.752C510.293 244.326 510.584 243.793 510.641 243.154H512.506C512.47 243.814 512.243 244.443 511.824 245.04C511.405 245.636 510.844 246.112 510.14 246.467C509.444 246.822 508.706 247 507.925 247C506.355 247 505.105 246.478 504.175 245.434C503.252 244.382 502.79 242.948 502.79 241.13V240.8C502.79 239.678 502.996 238.68 503.408 237.806C503.82 236.933 504.409 236.254 505.176 235.772C505.95 235.288 506.863 235.047 507.914 235.047C509.207 235.047 510.279 235.434 511.131 236.208C511.991 236.982 512.449 237.987 512.506 239.223H510.641C510.584 238.477 510.3 237.866 509.789 237.391C509.285 236.908 508.66 236.666 507.914 236.666C506.913 236.666 506.135 237.028 505.581 237.753C505.034 238.47 504.761 239.511 504.761 240.874V241.247C504.761 242.575 505.034 243.598 505.581 244.315C506.128 245.033 506.909 245.391 507.925 245.391ZM517.395 232.469V235.26H519.547V236.784H517.395V243.931C517.395 244.393 517.491 244.741 517.683 244.975C517.875 245.203 518.202 245.317 518.663 245.317C518.89 245.317 519.203 245.274 519.6 245.189V246.787C519.082 246.929 518.578 247 518.088 247C517.207 247 516.543 246.733 516.095 246.201C515.648 245.668 515.425 244.912 515.425 243.931V236.784H513.326V235.26H515.425V232.469H517.395ZM539.501 246.787H537.444L529.636 234.834V246.787H527.58V231.276H529.636L537.466 243.282V231.276H539.501V246.787ZM549.941 246.787C549.827 246.559 549.734 246.155 549.664 245.572C548.747 246.524 547.654 247 546.382 247C545.246 247 544.312 246.68 543.581 246.041C542.856 245.394 542.494 244.578 542.494 243.591C542.494 242.391 542.948 241.46 543.858 240.8C544.774 240.132 546.059 239.798 547.714 239.798H549.632V238.893C549.632 238.204 549.425 237.657 549.013 237.252C548.602 236.84 547.994 236.634 547.192 236.634C546.489 236.634 545.9 236.812 545.424 237.167C544.948 237.522 544.71 237.952 544.71 238.456H542.728C542.728 237.881 542.931 237.327 543.335 236.794C543.747 236.254 544.302 235.828 544.998 235.516C545.701 235.203 546.471 235.047 547.309 235.047C548.637 235.047 549.678 235.381 550.43 236.049C551.183 236.709 551.574 237.622 551.602 238.786V244.091C551.602 245.15 551.737 245.991 552.007 246.616V246.787H549.941ZM546.67 245.285C547.288 245.285 547.874 245.125 548.428 244.805C548.982 244.486 549.383 244.07 549.632 243.559V241.194H548.087C545.672 241.194 544.465 241.9 544.465 243.314C544.465 243.931 544.671 244.415 545.082 244.763C545.494 245.11 546.024 245.285 546.67 245.285ZM557.366 232.469V235.26H559.518V236.784H557.366V243.931C557.366 244.393 557.462 244.741 557.653 244.975C557.845 245.203 558.172 245.317 558.634 245.317C558.86 245.317 559.173 245.274 559.571 245.189V246.787C559.052 246.929 558.548 247 558.058 247C557.178 247 556.513 246.733 556.066 246.201C555.619 245.668 555.395 244.912 555.395 243.931V236.784H553.296V235.26H555.395V232.469H557.366ZM563.971 246.787H562V235.26H563.971V246.787ZM561.84 232.202C561.84 231.883 561.936 231.613 562.128 231.393C562.326 231.173 562.617 231.063 563.001 231.063C563.385 231.063 563.676 231.173 563.875 231.393C564.073 231.613 564.173 231.883 564.173 232.202C564.173 232.522 564.073 232.788 563.875 233.002C563.676 233.214 563.385 233.321 563.001 233.321C562.617 233.321 562.326 233.214 562.128 233.002C561.936 232.788 561.84 232.522 561.84 232.202ZM570.938 244.113L573.792 235.26H575.806L571.673 246.787H570.17L565.995 235.26H568.008L570.938 244.113ZM582.336 247C580.774 247 579.503 246.489 578.523 245.466C577.542 244.436 577.053 243.061 577.053 241.343V240.981C577.053 239.837 577.269 238.818 577.702 237.924C578.142 237.021 578.753 236.318 579.535 235.814C580.323 235.303 581.175 235.047 582.091 235.047C583.59 235.047 584.755 235.54 585.586 236.528C586.416 237.515 586.832 238.928 586.832 240.767V241.588H579.023C579.052 242.724 579.382 243.644 580.014 244.347C580.653 245.043 581.463 245.391 582.443 245.391C583.139 245.391 583.729 245.249 584.211 244.965C584.694 244.681 585.117 244.305 585.479 243.836L586.683 244.773C585.717 246.257 584.268 247 582.336 247ZM582.091 236.666C581.296 236.666 580.628 236.957 580.089 237.54C579.549 238.115 579.215 238.925 579.087 239.969H584.861V239.82C584.804 238.818 584.534 238.044 584.051 237.497C583.569 236.943 582.915 236.666 582.091 236.666Z" fill="#61DAFB"/>
</g>
<defs>
<filter id="filter0_d_1128_242829" x="140" y="69" width="212" height="212" filterUnits="userSpaceOnUse" color-interpolation-filters="sRGB">
<feFlood flood-opacity="0" result="BackgroundImageFix"/>
<feColorMatrix in="SourceAlpha" type="matrix" values="0 0 0 0 0 0 0 0 0 0 0 0 0 0 0 0 0 0 127 0" result="hardAlpha"/>
<feOffset/>
<feGaussianBlur stdDeviation="17"/>
<feComposite in2="hardAlpha" operator="out"/>
<feColorMatrix type="matrix" values="0 0 0 0 0.0117647 0 0 0 0 0.392157 0 0 0 0 1 0 0 0 0.2 0"/>
<feBlend mode="normal" in2="BackgroundImageFix" result="effect1_dropShadow_1128_242829"/>
<feBlend mode="normal" in="SourceGraphic" in2="effect1_dropShadow_1128_242829" result="shape"/>
</filter>
<linearGradient id="paint0_linear_1128_242829" x1="0" y1="206.5" x2="756" y2="206.5" gradientUnits="userSpaceOnUse">
<stop stop-color="#0364FF"/>
<stop offset="1" stop-color="#044A5E"/>
</linearGradient>
<clipPath id="clip0_1128_242829">
<rect width="179.551" height="144" fill="white" transform="translate(437 103)"/>
</clipPath>
</defs>
</svg>
