<svg width="756" height="350" viewBox="0 0 756 350" fill="none" xmlns="http://www.w3.org/2000/svg">
<rect width="756" height="350" fill="black"/>
<rect width="756" height="350" fill="white"/>
<rect width="756" height="350" fill="url(#paint0_linear_1128_242567)" fill-opacity="0.6"/>
<g filter="url(#filter0_d_1128_242567)">
<rect x="174" y="103" width="144" height="144" rx="72" fill="white"/>
<path fill-rule="evenodd" clip-rule="evenodd" d="M243.569 205.835C243.403 206.444 243.869 207.043 244.508 207.043H250.104C250.743 207.043 251.208 206.444 251.043 205.835L248.245 195.52C247.987 194.571 246.625 194.571 246.367 195.52L243.569 205.835Z" fill="#0364FF"/>
<path fill-rule="evenodd" clip-rule="evenodd" d="M237.997 212.438C237.568 214.017 236.119 215.116 234.463 215.116H226.887C224.482 215.116 222.731 212.862 223.353 210.567L238.894 153.285C239.363 151.557 240.948 150.355 242.759 150.355H251.775C253.586 150.355 255.171 151.557 255.64 153.285L271.181 210.567C271.803 212.862 270.052 215.116 267.647 215.116H260.071C258.415 215.116 256.966 214.017 256.537 212.438L248.979 184.577C248.51 182.847 246.024 182.847 245.555 184.577L237.997 212.438Z" fill="#0364FF"/>
<path fill-rule="evenodd" clip-rule="evenodd" d="M276.102 201.644C275.617 203.429 273.052 203.429 272.568 201.644L266.926 180.848C266.817 180.446 266.817 180.022 266.926 179.62L274.116 153.117C274.558 151.488 276.053 150.355 277.761 150.355H285.099C287.58 150.355 289.386 152.68 288.744 155.046L276.102 201.644ZM227.695 180.813C227.804 180.411 227.804 179.988 227.695 179.585L220.514 153.117C220.072 151.488 218.577 150.355 216.87 150.355H209.531C207.05 150.355 205.244 152.68 205.886 155.046L218.519 201.609C219.003 203.394 221.568 203.394 222.053 201.609L227.695 180.813Z" fill="#0364FF"/>
</g>
<g style="mix-blend-mode:overlay">
<path fill-rule="evenodd" clip-rule="evenodd" d="M378.205 53.2374C377.421 53.2374 376.701 53.0753 376.048 52.7512C375.679 52.5642 375.358 52.3419 375.086 52.0845C374.914 51.9218 374.565 52.0322 374.565 52.2652V52.613C374.565 52.771 374.433 52.8991 374.27 52.8991H372.855C372.692 52.8991 372.56 52.771 372.56 52.613V38.0498C372.56 37.8918 372.692 37.7637 372.855 37.7637H374.264C374.427 37.7637 374.559 37.8918 374.559 38.0498V43.1755C374.559 43.4085 374.908 43.5195 375.081 43.3574C375.355 43.0995 375.678 42.8769 376.048 42.6896C376.701 42.3654 377.421 42.2034 378.205 42.2034C379.615 42.2034 380.806 42.7389 381.78 43.8099C382.783 44.8949 383.284 46.1984 383.284 47.7204C383.284 49.2564 382.783 50.5599 381.78 51.6309C380.806 52.7019 379.615 53.2374 378.205 53.2374ZM377.878 51.4618C378.837 51.4618 379.644 51.1095 380.298 50.4049C380.952 49.7144 381.279 48.8195 381.279 47.7204C381.279 46.6353 380.952 45.7405 380.298 45.0359C379.644 44.3313 378.837 43.979 377.878 43.979C376.905 43.979 376.091 44.3313 375.437 45.0359C374.798 45.7405 374.478 46.6353 374.478 47.7204C374.478 48.8195 374.798 49.7214 375.437 50.426C376.091 51.1165 376.905 51.4618 377.878 51.4618ZM365.67 53.2374C364.1 53.2374 362.807 52.716 361.79 51.6731C360.773 50.6303 360.264 49.3128 360.264 47.7204C360.264 46.1421 360.758 44.8315 361.746 43.7887C362.735 42.7318 363.999 42.2034 365.539 42.2034C367.123 42.2034 368.38 42.7036 369.31 43.7042C370.312 44.7509 370.791 46.3251 370.728 47.757C370.72 47.9405 370.56 48.0797 370.371 48.0797H362.673C362.476 48.0797 362.316 48.238 362.337 48.4283C362.428 49.2832 362.769 49.9843 363.359 50.5317C364.028 51.1517 364.827 51.4618 365.757 51.4618C366.943 51.4618 367.892 50.928 368.603 49.8604C368.698 49.7176 368.887 49.6597 369.045 49.7342L370.243 50.301C370.412 50.3808 370.48 50.5813 370.382 50.7368C369.919 51.4733 369.307 52.0602 368.547 52.4975C367.704 52.9907 366.745 53.2374 365.67 53.2374ZM362.582 46.065C362.511 46.2713 362.678 46.4732 362.903 46.4732H368.212C368.416 46.4732 368.579 46.3035 368.538 46.1095C368.419 45.5524 368.131 45.0817 367.675 44.6976C367.137 44.2185 366.411 43.979 365.495 43.979C364.74 43.979 364.086 44.2044 363.534 44.6554C363.096 45.0225 362.779 45.4924 362.582 46.065ZM359.65 42.9389C359.715 42.7426 359.564 42.5416 359.351 42.5416H357.967C357.828 42.5416 357.706 42.6304 357.667 42.7597L355.625 49.4793C355.544 49.7488 355.152 49.7544 355.062 49.4874L352.79 42.7511C352.748 42.6261 352.628 42.5416 352.493 42.5416H350.876C350.741 42.5416 350.621 42.6258 350.578 42.7504L348.286 49.4918C348.196 49.7583 347.805 49.7523 347.723 49.4831L345.681 42.7597C345.641 42.6304 345.519 42.5416 345.38 42.5416H343.952C343.74 42.5416 343.589 42.7426 343.654 42.9389L346.896 52.6884C346.937 52.814 347.058 52.8991 347.194 52.8991H348.764C348.9 52.8991 349.021 52.8139 349.063 52.6883L351.35 45.7942C351.438 45.5299 351.823 45.5295 351.912 45.7936L354.219 52.689C354.261 52.8143 354.381 52.8991 354.517 52.8991H356.11C356.246 52.8991 356.366 52.814 356.408 52.6884L359.65 42.9389ZM421.777 52.2862C422.358 52.8076 423.085 53.0683 423.957 53.0683C424.534 53.0683 425.051 53.0056 425.508 52.8802C425.665 52.8375 425.744 52.6738 425.69 52.5255L425.262 51.3519C425.204 51.1946 425.021 51.1186 424.857 51.169C424.812 51.1826 424.766 51.1957 424.719 51.2081C424.574 51.2363 424.422 51.2504 424.262 51.2504C423.913 51.2504 423.601 51.1306 423.324 50.8911C423.048 50.6374 422.91 50.1653 422.91 49.4748V44.6033C422.91 44.4453 423.042 44.3172 423.205 44.3172H425.231C425.394 44.3172 425.526 44.1891 425.526 44.031V42.8277C425.526 42.6697 425.394 42.5416 425.231 42.5416H423.205C423.042 42.5416 422.91 42.4135 422.91 42.2555V38.0498C422.91 37.8918 422.778 37.7637 422.615 37.7637H421.2C421.037 37.7637 420.905 37.8918 420.905 38.0498V42.2555C420.905 42.4135 420.773 42.5416 420.61 42.5416H419.326C419.163 42.5416 419.031 42.6697 419.031 42.8277V44.031C419.031 44.1891 419.163 44.3172 419.326 44.3172H420.61C420.773 44.3172 420.905 44.4453 420.905 44.6033V50.1089C420.92 51.039 421.21 51.7648 421.777 52.2862ZM393.139 51.9691C394.113 51.1236 394.6 50.0667 394.6 48.7984C394.6 48.0233 394.375 47.3258 393.924 46.7057C393.717 46.4109 393.419 46.0362 392.546 45.5613C392.361 45.4609 392.356 45.1936 392.531 45.0776C393.576 44.383 394.098 43.3312 394.098 42.0977C394.098 40.9281 393.655 39.9769 392.769 39.2441C391.868 38.4831 390.756 38.1026 389.434 38.1026C388.373 38.1026 387.451 38.3774 386.666 38.927C385.967 39.4167 385.446 40.0407 385.105 40.799C385.034 40.9561 385.115 41.1355 385.278 41.2024L386.517 41.7113C386.693 41.7834 386.893 41.6968 386.972 41.5285C387.46 40.4847 388.281 39.9628 389.434 39.9628C390.219 39.9628 390.851 40.16 391.33 40.5546C391.81 40.9492 392.05 41.4636 392.05 42.0977C392.05 42.7882 391.795 43.3519 391.287 43.7887C390.778 44.2115 390.124 44.4229 389.325 44.4229H388.524C388.34 44.4229 388.192 44.567 388.192 44.7448V45.9188C388.192 46.0966 388.34 46.2407 388.524 46.2407H389.478C390.32 46.2407 391.04 46.4873 391.636 46.9805C392.246 47.4738 392.551 48.0797 392.551 48.7984C392.551 49.5171 392.26 50.1301 391.679 50.6374C391.083 51.1306 390.379 51.3772 389.565 51.3772C388.824 51.3772 388.184 51.1658 387.647 50.7431C387.202 50.3712 386.862 49.8667 386.627 49.2294C386.56 49.0474 386.351 48.9484 386.168 49.0227L384.955 49.5126C384.8 49.5754 384.716 49.7416 384.771 49.8961C385.11 50.8567 385.698 51.6463 386.535 52.265C387.436 52.9132 388.446 53.2374 389.565 53.2374C390.989 53.2374 392.18 52.8146 393.139 51.9691ZM398.158 49.7285C398.158 49.1648 398.427 48.6927 398.964 48.3122C399.517 47.9317 400.2 47.7415 401.013 47.7415C402.057 47.7415 402.886 47.9501 403.5 48.3672C403.583 48.4236 403.63 48.5177 403.625 48.616C403.585 49.3683 403.252 50.028 402.626 50.5951C401.972 51.2011 401.224 51.504 400.381 51.504C399.785 51.504 399.262 51.3349 398.812 50.9967C398.376 50.6585 398.158 50.2358 398.158 49.7285ZM404.261 43.366C403.404 42.5909 402.234 42.2034 400.752 42.2034C398.965 42.2034 397.588 42.7994 396.62 43.9916C396.516 44.1199 396.555 44.3054 396.698 44.3925L397.963 45.1647C398.096 45.2463 398.271 45.2104 398.37 45.0908C399.005 44.3214 399.835 43.9367 400.861 43.9367C401.602 43.9367 402.248 44.1762 402.801 44.6554C403.356 45.1234 403.553 45.6858 403.609 46.3211C403.629 46.5395 403.383 46.6807 403.174 46.5963C402.484 46.317 401.655 46.1773 400.686 46.1773C399.291 46.1773 398.172 46.4944 397.33 47.1285C396.501 47.7626 396.087 48.6152 396.087 49.6862C396.087 50.7008 396.48 51.5463 397.264 52.2227C398.064 52.8991 399.052 53.2374 400.229 53.2374C401.609 53.2374 402.713 52.6455 403.542 51.4618V52.613C403.542 52.771 403.674 52.8991 403.837 52.8991H405.252C405.415 52.8991 405.547 52.771 405.547 52.613V46.5155C405.547 45.1768 405.118 44.1269 404.261 43.366ZM417.181 52.5951C417.181 52.763 417.04 52.8991 416.867 52.8991H415.489C415.316 52.8991 415.176 52.763 415.176 52.5951V52.2556C415.176 52.0365 414.834 51.9315 414.673 52.0851C414.42 52.3264 414.115 52.5414 413.759 52.73C413.134 53.0683 412.48 53.2374 411.797 53.2374C410.489 53.2374 409.479 52.878 408.767 52.1593C408.07 51.4265 407.721 50.3908 407.721 49.0521V42.8456C407.721 42.6777 407.862 42.5416 408.035 42.5416H409.413C409.586 42.5416 409.727 42.6777 409.727 42.8456V48.9252C409.77 50.6163 410.649 51.4618 412.364 51.4618C413.163 51.4618 413.831 51.1518 414.369 50.5317C414.907 49.8976 415.176 49.1437 415.176 48.27V42.8456C415.176 42.6777 415.316 42.5416 415.489 42.5416H416.867C417.04 42.5416 417.181 42.6777 417.181 42.8456V52.5951ZM427.54 38.0498C427.54 37.8918 427.672 37.7637 427.835 37.7637H429.25C429.413 37.7637 429.545 37.8918 429.545 38.0498V43.1852C429.545 43.4042 429.886 43.5084 430.046 43.3537C430.294 43.1132 430.592 42.8989 430.94 42.7107C431.579 42.3725 432.24 42.2034 432.923 42.2034C434.231 42.2034 435.234 42.5698 435.931 43.3025C436.643 44.0212 436.999 45.0499 436.999 46.3887V52.613C436.999 52.771 436.867 52.8991 436.704 52.8991H435.289C435.126 52.8991 434.994 52.771 434.994 52.613V46.7692C434.994 44.909 434.144 43.979 432.444 43.979C431.63 43.979 430.94 44.3101 430.373 44.9724C429.821 45.6207 429.545 46.3816 429.545 47.2553V52.613C429.545 52.771 429.413 52.8991 429.25 52.8991H427.835C427.672 52.8991 427.54 52.771 427.54 52.613V38.0498Z" fill="white"/>
<path d="M335.774 51.2573C335.891 51.6868 336.509 51.6868 336.625 51.2573L339.986 38.8921C340.14 38.3228 339.705 37.7637 339.107 37.7637H337.036C336.624 37.7637 336.264 38.0362 336.158 38.4281L334.263 45.401C334.236 45.4977 334.236 45.5996 334.263 45.6963L335.774 51.2573Z" fill="white"/>
<path d="M324.031 45.392C324.057 45.4887 324.057 45.5905 324.031 45.6873L322.52 51.2483C322.403 51.6778 321.785 51.6778 321.668 51.2483L318.311 38.8921C318.156 38.3228 318.591 37.7637 319.189 37.7637H321.261C321.672 37.7637 322.032 38.0362 322.139 38.4281L324.031 45.392Z" fill="white"/>
<path d="M326.863 53.9754C326.761 54.355 326.413 54.6189 326.015 54.6189H323.895C323.318 54.6189 322.898 54.0774 323.047 53.5259L327.127 38.4676C327.24 38.0524 327.62 37.7637 328.055 37.7637H330.52C330.955 37.7637 331.335 38.0524 331.448 38.4676L335.528 53.5259C335.677 54.0774 335.257 54.6189 334.68 54.6189H332.559C332.162 54.6189 331.814 54.355 331.711 53.9754L329.698 46.5445C329.586 46.1288 328.989 46.1288 328.877 46.5445L326.863 53.9754Z" fill="white"/>
<path d="M328.543 52.4084C328.391 52.4084 328.281 52.2734 328.32 52.136L329.065 49.5294C329.126 49.3155 329.449 49.3155 329.51 49.5294L330.255 52.136C330.294 52.2734 330.184 52.4084 330.032 52.4084H328.543Z" fill="white"/>
</g>
<path fill-rule="evenodd" clip-rule="evenodd" d="M564.718 147.858C585.285 154.153 598.699 164.305 598.699 175.016C598.699 185.695 585.351 195.847 564.916 202.142C569.695 223.038 567.618 239.683 558.357 245.022C556.182 246.275 553.677 246.868 550.908 246.868C541.844 246.868 529.979 240.474 517.981 229.334C505.984 240.54 494.119 247 485.055 247C482.286 247 479.781 246.407 477.639 245.154C468.344 239.815 466.235 223.137 470.981 202.175C450.415 195.88 437 185.728 437 175.016C437 164.338 450.349 154.219 470.849 147.891C466.07 126.995 468.147 110.35 477.408 105.011C479.584 103.758 482.089 103.165 484.857 103.165V103.132C493.921 103.132 505.786 109.526 517.784 120.666C529.781 109.46 541.646 103 550.71 103V103.033C553.433 103.038 555.926 103.631 558.06 104.879C567.355 110.218 569.464 126.896 564.718 147.858ZM550.677 110.35C543.822 110.368 533.752 115.837 523.024 125.808C527.672 130.653 532.286 136.19 536.735 142.288C544.151 143.079 551.205 144.298 557.665 145.88C558.39 142.551 558.983 139.288 559.346 136.19C560.862 123.6 558.917 113.811 554.435 111.24C553.413 110.68 552.193 110.383 550.677 110.383V110.35ZM512.543 125.841C501.798 115.92 491.68 110.482 484.857 110.482V110.515C483.341 110.515 482.056 110.778 481.067 111.372C476.617 113.976 474.706 123.764 476.255 136.355C476.65 139.42 477.211 142.617 477.969 145.913C484.429 144.298 491.482 143.079 498.931 142.288C503.314 136.19 507.929 130.686 512.543 125.841ZM551.336 166.051C553.05 161.668 554.566 157.284 555.786 153.033C551.468 151.978 546.953 151.121 542.273 150.429C543.888 152.934 545.503 155.504 547.019 158.141C548.568 160.778 549.985 163.415 551.336 166.051ZM532.747 200.725C535.483 196.803 538.12 192.584 540.691 188.134C543.162 183.817 545.437 179.4 547.513 174.984C545.437 170.567 543.162 166.183 540.658 161.866C538.087 157.449 535.417 153.263 532.681 149.341C527.803 148.946 522.826 148.715 517.85 148.715C512.84 148.715 507.863 148.946 502.952 149.374C500.216 153.296 497.58 157.515 495.009 161.965C492.537 166.282 490.23 170.699 488.186 175.115C490.263 179.532 492.537 183.916 495.042 188.233C497.612 192.65 500.282 196.836 503.018 200.758C507.896 201.153 512.873 201.384 517.85 201.384C522.859 201.384 527.836 201.153 532.747 200.725ZM555.885 196.967C554.632 192.683 553.116 188.266 551.336 183.85C549.985 186.486 548.568 189.156 547.052 191.793C545.536 194.463 543.921 197.066 542.306 199.604C547.019 198.912 551.567 198.022 555.885 196.967ZM508.753 208.47C511.785 212.327 514.85 215.853 517.916 219.017C520.948 215.853 524.013 212.327 526.979 208.47C523.98 208.635 520.915 208.701 517.817 208.701C514.751 208.701 511.719 208.602 508.753 208.47ZM479.88 197C484.198 198.055 488.713 198.912 493.394 199.604C491.779 197.099 490.197 194.528 488.648 191.892C487.098 189.255 485.681 186.618 484.33 183.981C482.616 188.365 481.1 192.749 479.88 197ZM526.913 141.563C523.881 137.706 520.816 134.18 517.751 131.016C514.718 134.18 511.653 137.706 508.687 141.563C511.686 141.398 514.751 141.332 517.85 141.332C520.915 141.332 523.947 141.431 526.913 141.563ZM488.615 158.24C490.131 155.57 491.746 152.967 493.361 150.429C488.648 151.121 484.099 152.011 479.781 153.033C481.034 157.317 482.55 161.734 484.33 166.15C485.681 163.514 487.098 160.877 488.615 158.24ZM444.317 175.016C444.317 180.191 451.865 186.717 463.532 191.694C466.4 192.913 469.498 194.034 472.761 195.056C474.607 188.629 477.046 181.938 480.078 175.082C477.013 168.194 474.541 161.47 472.662 155.01C469.465 156.032 466.367 157.119 463.532 158.339C451.865 163.283 444.317 169.842 444.317 175.016ZM476.354 213.843C474.837 226.433 476.782 236.222 481.265 238.793C482.253 239.353 483.506 239.65 484.989 239.683C491.845 239.683 501.93 234.212 512.675 224.225C508.028 219.38 503.413 213.843 498.964 207.745C491.548 206.954 484.495 205.735 478.035 204.153C477.309 207.482 476.716 210.745 476.354 213.843ZM554.632 238.661C559.082 236.057 560.994 226.268 559.444 213.678C559.082 210.613 558.489 207.416 557.731 204.087C551.271 205.702 544.217 206.921 536.768 207.712C532.385 213.81 527.77 219.314 523.156 224.159C533.901 234.08 544.019 239.518 550.842 239.518C552.358 239.518 553.644 239.255 554.632 238.661ZM563.004 195.023C566.201 194.001 569.299 192.913 572.134 191.694C583.802 186.75 591.349 180.191 591.382 175.016C591.382 169.842 583.835 163.316 572.167 158.339C569.266 157.119 566.168 155.999 562.905 154.977C561.06 161.404 558.62 168.095 555.588 174.951C558.653 181.839 561.125 188.563 563.004 195.023ZM532.879 175.017C532.879 183.335 526.136 190.079 517.817 190.079C509.498 190.079 502.754 183.335 502.754 175.017C502.754 166.698 509.498 159.954 517.817 159.954C526.136 159.954 532.879 166.698 532.879 175.017Z" fill="#61DAFB"/>
<defs>
<filter id="filter0_d_1128_242567" x="140" y="69" width="212" height="212" filterUnits="userSpaceOnUse" color-interpolation-filters="sRGB">
<feFlood flood-opacity="0" result="BackgroundImageFix"/>
<feColorMatrix in="SourceAlpha" type="matrix" values="0 0 0 0 0 0 0 0 0 0 0 0 0 0 0 0 0 0 127 0" result="hardAlpha"/>
<feOffset/>
<feGaussianBlur stdDeviation="17"/>
<feComposite in2="hardAlpha" operator="out"/>
<feColorMatrix type="matrix" values="0 0 0 0 0.0117647 0 0 0 0 0.392157 0 0 0 0 1 0 0 0 0.2 0"/>
<feBlend mode="normal" in2="BackgroundImageFix" result="effect1_dropShadow_1128_242567"/>
<feBlend mode="normal" in="SourceGraphic" in2="effect1_dropShadow_1128_242567" result="shape"/>
</filter>
<linearGradient id="paint0_linear_1128_242567" x1="0" y1="206.5" x2="756" y2="206.5" gradientUnits="userSpaceOnUse">
<stop stop-color="#0364FF"/>
<stop offset="1" stop-color="#044A5E"/>
</linearGradient>
</defs>
</svg>
