<svg width="756" height="350" viewBox="0 0 756 350" fill="none" xmlns="http://www.w3.org/2000/svg">
<rect width="756" height="350" fill="black"/>
<rect width="756" height="350" fill="white"/>
<rect width="756" height="350" fill="url(#paint0_linear_1128_242567)" fill-opacity="0.6"/>
<g filter="url(#filter0_d_1128_242567)">
<rect x="175" y="103" width="144" height="144" rx="72" fill="white"/>
<path fill-rule="evenodd" clip-rule="evenodd" d="M244.569 205.835C244.403 206.444 244.869 207.043 245.508 207.043H251.104C251.743 207.043 252.208 206.444 252.043 205.835L249.245 195.52C248.987 194.571 247.625 194.571 247.367 195.52L244.569 205.835Z" fill="#0364FF"/>
<path fill-rule="evenodd" clip-rule="evenodd" d="M238.997 212.438C238.568 214.017 237.119 215.116 235.463 215.116H227.887C225.482 215.116 223.731 212.862 224.353 210.567L239.894 153.285C240.363 151.557 241.948 150.355 243.759 150.355H252.775C254.586 150.355 256.171 151.557 256.64 153.285L272.181 210.567C272.803 212.862 271.052 215.116 268.647 215.116H261.071C259.415 215.116 257.966 214.017 257.537 212.438L249.979 184.577C249.51 182.847 247.024 182.847 246.555 184.577L238.997 212.438Z" fill="#0364FF"/>
<path fill-rule="evenodd" clip-rule="evenodd" d="M277.102 201.644C276.617 203.429 274.052 203.429 273.568 201.644L267.926 180.848C267.817 180.446 267.817 180.022 267.926 179.62L275.116 153.117C275.558 151.488 277.053 150.355 278.761 150.355H286.099C288.58 150.355 290.386 152.68 289.744 155.046L277.102 201.644ZM228.695 180.813C228.804 180.411 228.804 179.988 228.695 179.585L221.514 153.117C221.072 151.488 219.577 150.355 217.87 150.355H210.531C208.05 150.355 206.244 152.68 206.886 155.046L219.519 201.609C220.003 203.394 222.568 203.394 223.053 201.609L228.695 180.813Z" fill="#0364FF"/>
</g>
<g style="mix-blend-mode:overlay">
<path fill-rule="evenodd" clip-rule="evenodd" d="M378.205 53.2374C377.421 53.2374 376.701 53.0753 376.048 52.7512C375.679 52.5642 375.358 52.3419 375.086 52.0845C374.914 51.9218 374.565 52.0322 374.565 52.2652V52.613C374.565 52.771 374.433 52.8991 374.27 52.8991H372.855C372.692 52.8991 372.56 52.771 372.56 52.613V38.0498C372.56 37.8918 372.692 37.7637 372.855 37.7637H374.264C374.427 37.7637 374.559 37.8918 374.559 38.0498V43.1755C374.559 43.4085 374.908 43.5195 375.081 43.3574C375.355 43.0995 375.678 42.8769 376.048 42.6896C376.701 42.3654 377.421 42.2034 378.205 42.2034C379.615 42.2034 380.806 42.7389 381.78 43.8099C382.783 44.8949 383.284 46.1984 383.284 47.7204C383.284 49.2564 382.783 50.5599 381.78 51.6309C380.806 52.7019 379.615 53.2374 378.205 53.2374ZM377.878 51.4618C378.837 51.4618 379.644 51.1095 380.298 50.4049C380.952 49.7144 381.279 48.8195 381.279 47.7204C381.279 46.6353 380.952 45.7405 380.298 45.0359C379.644 44.3313 378.837 43.979 377.878 43.979C376.905 43.979 376.091 44.3313 375.437 45.0359C374.798 45.7405 374.478 46.6353 374.478 47.7204C374.478 48.8195 374.798 49.7214 375.437 50.426C376.091 51.1165 376.905 51.4618 377.878 51.4618ZM365.67 53.2374C364.1 53.2374 362.807 52.7159 361.79 51.6731C360.773 50.6303 360.264 49.3128 360.264 47.7204C360.264 46.1421 360.758 44.8315 361.746 43.7887C362.735 42.7318 363.999 42.2034 365.539 42.2034C367.123 42.2034 368.38 42.7036 369.31 43.7042C370.312 44.7509 370.791 46.3251 370.728 47.757C370.72 47.9405 370.56 48.0797 370.371 48.0797H362.673C362.476 48.0797 362.316 48.238 362.337 48.4283C362.428 49.2832 362.769 49.9843 363.359 50.5317C364.028 51.1517 364.827 51.4618 365.757 51.4618C366.943 51.4618 367.892 50.928 368.603 49.8604C368.698 49.7176 368.887 49.6597 369.045 49.7342L370.243 50.301C370.412 50.3808 370.48 50.5813 370.382 50.7368C369.919 51.4733 369.307 52.0602 368.547 52.4975C367.704 52.9907 366.745 53.2374 365.67 53.2374ZM362.582 46.065C362.511 46.2713 362.678 46.4732 362.903 46.4732H368.212C368.416 46.4732 368.579 46.3035 368.538 46.1095C368.419 45.5524 368.131 45.0817 367.675 44.6976C367.137 44.2185 366.411 43.979 365.495 43.979C364.74 43.979 364.086 44.2044 363.534 44.6554C363.096 45.0225 362.779 45.4924 362.582 46.065ZM359.65 42.9389C359.715 42.7426 359.564 42.5416 359.351 42.5416H357.967C357.828 42.5416 357.706 42.6304 357.667 42.7597L355.625 49.4793C355.544 49.7488 355.152 49.7544 355.062 49.4874L352.79 42.7511C352.748 42.6261 352.628 42.5416 352.493 42.5416H350.876C350.741 42.5416 350.621 42.6258 350.578 42.7504L348.286 49.4918C348.196 49.7583 347.805 49.7523 347.723 49.4831L345.681 42.7597C345.641 42.6304 345.519 42.5416 345.38 42.5416H343.952C343.74 42.5416 343.589 42.7426 343.654 42.9389L346.896 52.6884C346.937 52.814 347.058 52.8991 347.194 52.8991H348.764C348.9 52.8991 349.021 52.8139 349.063 52.6883L351.35 45.7942C351.438 45.5299 351.823 45.5295 351.912 45.7936L354.219 52.689C354.261 52.8143 354.381 52.8991 354.517 52.8991H356.11C356.246 52.8991 356.366 52.814 356.408 52.6884L359.65 42.9389ZM421.777 52.2862C422.358 52.8076 423.085 53.0683 423.957 53.0683C424.534 53.0683 425.051 53.0056 425.508 52.8802C425.665 52.8375 425.744 52.6738 425.69 52.5255L425.262 51.3519C425.204 51.1946 425.021 51.1186 424.857 51.169C424.812 51.1826 424.766 51.1957 424.719 51.2081C424.574 51.2363 424.422 51.2504 424.262 51.2504C423.913 51.2504 423.601 51.1306 423.324 50.8911C423.048 50.6374 422.91 50.1653 422.91 49.4748V44.6033C422.91 44.4453 423.042 44.3172 423.205 44.3172H425.231C425.394 44.3172 425.526 44.1891 425.526 44.031V42.8277C425.526 42.6697 425.394 42.5416 425.231 42.5416H423.205C423.042 42.5416 422.91 42.4135 422.91 42.2555V38.0498C422.91 37.8918 422.778 37.7637 422.615 37.7637H421.2C421.037 37.7637 420.905 37.8918 420.905 38.0498V42.2555C420.905 42.4135 420.773 42.5416 420.61 42.5416H419.326C419.163 42.5416 419.031 42.6697 419.031 42.8277V44.031C419.031 44.1891 419.163 44.3172 419.326 44.3172H420.61C420.773 44.3172 420.905 44.4453 420.905 44.6033V50.1089C420.92 51.039 421.21 51.7648 421.777 52.2862ZM393.139 51.9691C394.113 51.1236 394.6 50.0667 394.6 48.7984C394.6 48.0233 394.375 47.3258 393.924 46.7057C393.717 46.4109 393.419 46.0362 392.546 45.5613C392.361 45.4609 392.356 45.1936 392.531 45.0776C393.576 44.383 394.098 43.3312 394.098 42.0977C394.098 40.9281 393.655 39.9769 392.769 39.2441C391.868 38.4831 390.756 38.1026 389.434 38.1026C388.373 38.1026 387.451 38.3774 386.666 38.927C385.967 39.4167 385.446 40.0407 385.105 40.799C385.034 40.9561 385.115 41.1355 385.278 41.2024L386.517 41.7113C386.693 41.7834 386.893 41.6968 386.972 41.5285C387.46 40.4847 388.281 39.9628 389.434 39.9628C390.219 39.9628 390.851 40.16 391.33 40.5546C391.81 40.9492 392.05 41.4636 392.05 42.0977C392.05 42.7882 391.795 43.3519 391.287 43.7887C390.778 44.2115 390.124 44.4229 389.325 44.4229H388.524C388.34 44.4229 388.192 44.567 388.192 44.7448V45.9188C388.192 46.0966 388.34 46.2407 388.524 46.2407H389.478C390.32 46.2407 391.04 46.4873 391.636 46.9805C392.246 47.4738 392.551 48.0797 392.551 48.7984C392.551 49.5171 392.26 50.1301 391.679 50.6374C391.083 51.1306 390.379 51.3772 389.565 51.3772C388.824 51.3772 388.184 51.1658 387.647 50.7431C387.202 50.3712 386.862 49.8667 386.627 49.2294C386.56 49.0474 386.351 48.9484 386.168 49.0227L384.955 49.5126C384.8 49.5754 384.716 49.7416 384.771 49.8961C385.11 50.8567 385.698 51.6463 386.535 52.265C387.436 52.9132 388.446 53.2374 389.565 53.2374C390.989 53.2374 392.18 52.8146 393.139 51.9691ZM398.158 49.7285C398.158 49.1648 398.427 48.6927 398.964 48.3122C399.517 47.9317 400.2 47.7415 401.013 47.7415C402.057 47.7415 402.886 47.9501 403.5 48.3672C403.583 48.4236 403.63 48.5177 403.625 48.616C403.585 49.3683 403.252 50.028 402.626 50.5951C401.972 51.2011 401.224 51.504 400.381 51.504C399.785 51.504 399.262 51.3349 398.812 50.9967C398.376 50.6585 398.158 50.2358 398.158 49.7285ZM404.261 43.366C403.404 42.5909 402.234 42.2034 400.752 42.2034C398.965 42.2034 397.588 42.7994 396.62 43.9916C396.516 44.1199 396.555 44.3054 396.698 44.3925L397.963 45.1647C398.096 45.2463 398.272 45.2104 398.37 45.0908C399.005 44.3214 399.835 43.9367 400.861 43.9367C401.602 43.9367 402.248 44.1762 402.801 44.6554C403.356 45.1234 403.553 45.6858 403.609 46.3211C403.629 46.5395 403.383 46.6807 403.174 46.5963C402.484 46.317 401.655 46.1773 400.686 46.1773C399.291 46.1773 398.172 46.4944 397.33 47.1285C396.501 47.7626 396.087 48.6152 396.087 49.6862C396.087 50.7008 396.48 51.5463 397.264 52.2227C398.064 52.8991 399.052 53.2374 400.229 53.2374C401.609 53.2374 402.713 52.6455 403.542 51.4618V52.613C403.542 52.771 403.674 52.8991 403.837 52.8991H405.252C405.415 52.8991 405.547 52.771 405.547 52.613V46.5155C405.547 45.1768 405.118 44.1269 404.261 43.366ZM417.181 52.5951C417.181 52.763 417.04 52.8991 416.867 52.8991H415.489C415.316 52.8991 415.176 52.763 415.176 52.5951V52.2556C415.176 52.0365 414.834 51.9315 414.673 52.0851C414.42 52.3264 414.115 52.5414 413.759 52.73C413.134 53.0683 412.48 53.2374 411.797 53.2374C410.489 53.2374 409.479 52.878 408.767 52.1593C408.07 51.4265 407.721 50.3908 407.721 49.0521V42.8456C407.721 42.6777 407.862 42.5416 408.035 42.5416H409.413C409.586 42.5416 409.727 42.6777 409.727 42.8456V48.9252C409.77 50.6163 410.649 51.4618 412.364 51.4618C413.163 51.4618 413.831 51.1518 414.369 50.5317C414.907 49.8976 415.176 49.1437 415.176 48.27V42.8456C415.176 42.6777 415.316 42.5416 415.489 42.5416H416.867C417.04 42.5416 417.181 42.6777 417.181 42.8456V52.5951ZM427.54 38.0498C427.54 37.8918 427.672 37.7637 427.835 37.7637H429.25C429.413 37.7637 429.545 37.8918 429.545 38.0498V43.1852C429.545 43.4042 429.886 43.5084 430.046 43.3537C430.294 43.1132 430.592 42.8989 430.94 42.7107C431.579 42.3725 432.24 42.2034 432.923 42.2034C434.231 42.2034 435.234 42.5698 435.931 43.3025C436.643 44.0212 436.999 45.0499 436.999 46.3887V52.613C436.999 52.771 436.867 52.8991 436.704 52.8991H435.289C435.126 52.8991 434.994 52.771 434.994 52.613V46.7692C434.994 44.909 434.144 43.979 432.444 43.979C431.63 43.979 430.94 44.3101 430.373 44.9724C429.821 45.6207 429.545 46.3816 429.545 47.2553V52.613C429.545 52.771 429.413 52.8991 429.25 52.8991H427.835C427.672 52.8991 427.54 52.771 427.54 52.613V38.0498Z" fill="white"/>
<path d="M335.774 51.2573C335.891 51.6868 336.509 51.6868 336.625 51.2573L339.986 38.8921C340.14 38.3228 339.705 37.7637 339.107 37.7637H337.036C336.624 37.7637 336.264 38.0362 336.158 38.4281L334.263 45.401C334.236 45.4977 334.236 45.5996 334.263 45.6963L335.774 51.2573Z" fill="white"/>
<path d="M324.031 45.392C324.057 45.4887 324.057 45.5905 324.031 45.6873L322.52 51.2483C322.403 51.6778 321.785 51.6778 321.668 51.2483L318.311 38.8921C318.156 38.3228 318.591 37.7637 319.189 37.7637H321.261C321.672 37.7637 322.032 38.0362 322.139 38.4281L324.031 45.392Z" fill="white"/>
<path d="M326.863 53.9754C326.761 54.355 326.413 54.6189 326.015 54.6189H323.895C323.318 54.6189 322.898 54.0774 323.047 53.5259L327.127 38.4676C327.24 38.0524 327.62 37.7637 328.055 37.7637H330.52C330.955 37.7637 331.335 38.0524 331.448 38.4676L335.528 53.5259C335.677 54.0774 335.257 54.6189 334.68 54.6189H332.559C332.162 54.6189 331.814 54.355 331.711 53.9754L329.698 46.5445C329.586 46.1288 328.989 46.1288 328.877 46.5445L326.863 53.9754Z" fill="white"/>
<path d="M328.543 52.4084C328.391 52.4084 328.281 52.2734 328.32 52.136L329.065 49.5294C329.126 49.3155 329.449 49.3155 329.51 49.5294L330.255 52.136C330.294 52.2734 330.184 52.4084 330.032 52.4084H328.543Z" fill="white"/>
</g>
<g filter="url(#filter1_d_1128_242567)">
<rect x="438" y="103" width="144" height="144" rx="72" fill="white"/>
<path fill-rule="evenodd" clip-rule="evenodd" d="M536.728 159.757C548.44 163.292 556.079 168.994 556.079 175.01C556.079 181.008 548.477 186.709 536.841 190.245C539.562 201.981 538.38 211.33 533.106 214.329C531.867 215.032 530.441 215.365 528.864 215.365C523.703 215.365 516.946 211.774 510.114 205.517C503.283 211.811 496.526 215.439 491.365 215.439C489.788 215.439 488.362 215.106 487.142 214.403C481.849 211.404 480.648 202.037 483.35 190.264C471.639 186.728 464 181.026 464 175.01C464 169.012 471.601 163.329 483.275 159.775C480.554 148.039 481.736 138.691 487.01 135.692C488.249 134.988 489.675 134.655 491.252 134.655V134.637C496.413 134.637 503.17 138.228 510.002 144.485C516.834 138.191 523.59 134.562 528.752 134.562V134.581C530.302 134.584 531.722 134.917 532.937 135.618C538.23 138.617 539.431 147.983 536.728 159.757ZM528.733 138.691C524.829 138.7 519.095 141.772 512.986 147.372C515.632 150.094 518.26 153.204 520.794 156.628C525.017 157.072 529.033 157.757 532.712 158.646C533.125 156.776 533.463 154.944 533.669 153.204C534.532 146.132 533.425 140.634 530.873 139.19C530.291 138.876 529.596 138.709 528.733 138.709V138.691ZM507.018 147.391C500.899 141.819 495.137 138.765 491.252 138.765V138.783C490.389 138.783 489.657 138.931 489.094 139.264C486.56 140.727 485.471 146.225 486.353 153.296C486.579 155.018 486.898 156.813 487.329 158.664C491.008 157.757 495.024 157.072 499.266 156.628C501.762 153.204 504.39 150.112 507.018 147.391ZM529.108 169.975C530.084 167.513 530.948 165.051 531.642 162.663C529.183 162.071 526.612 161.589 523.947 161.201C524.867 162.607 525.786 164.051 526.65 165.532C527.532 167.013 528.339 168.494 529.108 169.975ZM518.523 189.449C520.081 187.246 521.582 184.877 523.046 182.378C524.454 179.953 525.749 177.472 526.931 174.992C525.749 172.511 524.454 170.049 523.027 167.624C521.563 165.143 520.043 162.793 518.485 160.59C515.707 160.368 512.873 160.238 510.039 160.238C507.187 160.238 504.352 160.368 501.556 160.608C499.998 162.811 498.497 165.181 497.033 167.68C495.625 170.105 494.311 172.585 493.148 175.066C494.33 177.546 495.625 180.008 497.051 182.433C498.515 184.914 500.036 187.265 501.593 189.468C504.371 189.69 507.205 189.819 510.039 189.819C512.892 189.819 515.726 189.69 518.523 189.449ZM531.698 187.339C530.985 184.932 530.122 182.452 529.108 179.971C528.339 181.452 527.532 182.952 526.668 184.432C525.805 185.932 524.885 187.394 523.966 188.82C526.65 188.431 529.24 187.931 531.698 187.339ZM504.859 193.799C506.586 195.965 508.331 197.946 510.077 199.723C511.804 197.946 513.549 195.965 515.238 193.799C513.53 193.892 511.785 193.929 510.021 193.929C508.275 193.929 506.548 193.873 504.859 193.799ZM488.418 187.357C490.877 187.95 493.448 188.431 496.113 188.82C495.193 187.413 494.293 185.969 493.41 184.488C492.528 183.007 491.721 181.526 490.952 180.045C489.976 182.507 489.112 184.969 488.418 187.357ZM515.201 156.221C513.474 154.055 511.729 152.074 509.983 150.297C508.256 152.074 506.511 154.055 504.822 156.221C506.53 156.128 508.275 156.091 510.039 156.091C511.785 156.091 513.512 156.147 515.201 156.221ZM493.392 165.588C494.255 164.088 495.175 162.626 496.094 161.201C493.41 161.589 490.82 162.089 488.362 162.663C489.075 165.069 489.938 167.55 490.952 170.031C491.721 168.55 492.528 167.069 493.392 165.588ZM468.167 175.01C468.167 177.916 472.465 181.582 479.109 184.377C480.742 185.062 482.506 185.691 484.364 186.265C485.415 182.655 486.804 178.898 488.531 175.047C486.785 171.178 485.377 167.402 484.308 163.774C482.487 164.347 480.723 164.958 479.109 165.643C472.465 168.42 468.167 172.104 468.167 175.01ZM486.41 196.817C485.546 203.888 486.654 209.386 489.206 210.83C489.769 211.145 490.482 211.311 491.327 211.33C495.231 211.33 500.974 208.257 507.093 202.648C504.446 199.927 501.819 196.817 499.285 193.392C495.062 192.948 491.046 192.263 487.367 191.374C486.954 193.244 486.616 195.077 486.41 196.817ZM530.985 210.756C533.519 209.293 534.607 203.795 533.725 196.724C533.519 195.003 533.181 193.207 532.749 191.337C529.071 192.244 525.054 192.929 520.813 193.374C518.316 196.798 515.689 199.89 513.061 202.611C519.18 208.183 524.942 211.237 528.827 211.237C529.69 211.237 530.422 211.089 530.985 210.756ZM535.752 186.247C537.573 185.673 539.337 185.062 540.951 184.377C547.595 181.6 551.893 177.916 551.912 175.01C551.912 172.104 547.614 168.439 540.97 165.643C539.318 164.958 537.554 164.329 535.696 163.755C534.645 167.365 533.256 171.123 531.529 174.973C533.275 178.842 534.683 182.618 535.752 186.247ZM518.598 175.01C518.598 179.682 514.758 183.47 510.021 183.47C505.284 183.47 501.444 179.682 501.444 175.01C501.444 170.338 505.284 166.55 510.021 166.55C514.758 166.55 518.598 170.338 518.598 175.01Z" fill="#61DAFB"/>
</g>
<defs>
<filter id="filter0_d_1128_242567" x="141" y="69" width="212" height="212" filterUnits="userSpaceOnUse" color-interpolation-filters="sRGB">
<feFlood flood-opacity="0" result="BackgroundImageFix"/>
<feColorMatrix in="SourceAlpha" type="matrix" values="0 0 0 0 0 0 0 0 0 0 0 0 0 0 0 0 0 0 127 0" result="hardAlpha"/>
<feOffset/>
<feGaussianBlur stdDeviation="17"/>
<feComposite in2="hardAlpha" operator="out"/>
<feColorMatrix type="matrix" values="0 0 0 0 0.0117647 0 0 0 0 0.392157 0 0 0 0 1 0 0 0 0.2 0"/>
<feBlend mode="normal" in2="BackgroundImageFix" result="effect1_dropShadow_1128_242567"/>
<feBlend mode="normal" in="SourceGraphic" in2="effect1_dropShadow_1128_242567" result="shape"/>
</filter>
<filter id="filter1_d_1128_242567" x="404" y="69" width="212" height="212" filterUnits="userSpaceOnUse" color-interpolation-filters="sRGB">
<feFlood flood-opacity="0" result="BackgroundImageFix"/>
<feColorMatrix in="SourceAlpha" type="matrix" values="0 0 0 0 0 0 0 0 0 0 0 0 0 0 0 0 0 0 127 0" result="hardAlpha"/>
<feOffset/>
<feGaussianBlur stdDeviation="17"/>
<feComposite in2="hardAlpha" operator="out"/>
<feColorMatrix type="matrix" values="0 0 0 0 0.0117647 0 0 0 0 0.392157 0 0 0 0 1 0 0 0 0.2 0"/>
<feBlend mode="normal" in2="BackgroundImageFix" result="effect1_dropShadow_1128_242567"/>
<feBlend mode="normal" in="SourceGraphic" in2="effect1_dropShadow_1128_242567" result="shape"/>
</filter>
<linearGradient id="paint0_linear_1128_242567" x1="0" y1="206.5" x2="756" y2="206.5" gradientUnits="userSpaceOnUse">
<stop stop-color="#0364FF"/>
<stop offset="1" stop-color="#0CB8E8"/>
</linearGradient>
</defs>
</svg>
