<svg width="756" height="350" viewBox="0 0 756 350" fill="none" xmlns="http://www.w3.org/2000/svg">
<rect width="756" height="350" fill="black"/>
<rect width="756" height="350" fill="white"/>
<rect width="756" height="350" fill="url(#paint0_linear_1166_242933)" fill-opacity="0.6"/>
<g style="mix-blend-mode:overlay">
<path fill-rule="evenodd" clip-rule="evenodd" d="M378.205 53.2374C377.421 53.2374 376.701 53.0753 376.048 52.7512C375.679 52.5642 375.358 52.3419 375.086 52.0845C374.914 51.9218 374.565 52.0322 374.565 52.2652V52.613C374.565 52.771 374.433 52.8991 374.27 52.8991H372.855C372.692 52.8991 372.56 52.771 372.56 52.613V38.0498C372.56 37.8918 372.692 37.7637 372.855 37.7637H374.264C374.427 37.7637 374.559 37.8918 374.559 38.0498V43.1755C374.559 43.4085 374.908 43.5195 375.081 43.3574C375.355 43.0995 375.678 42.8769 376.048 42.6896C376.701 42.3654 377.421 42.2034 378.205 42.2034C379.615 42.2034 380.806 42.7389 381.78 43.8099C382.783 44.8949 383.284 46.1984 383.284 47.7204C383.284 49.2564 382.783 50.5599 381.78 51.6309C380.806 52.7019 379.615 53.2374 378.205 53.2374ZM377.878 51.4618C378.837 51.4618 379.644 51.1095 380.298 50.4049C380.952 49.7144 381.279 48.8195 381.279 47.7204C381.279 46.6353 380.952 45.7405 380.298 45.0359C379.644 44.3313 378.837 43.979 377.878 43.979C376.905 43.979 376.091 44.3313 375.437 45.0359C374.798 45.7405 374.478 46.6353 374.478 47.7204C374.478 48.8195 374.798 49.7214 375.437 50.426C376.091 51.1165 376.905 51.4618 377.878 51.4618ZM365.67 53.2374C364.1 53.2374 362.807 52.7159 361.79 51.6731C360.773 50.6303 360.264 49.3128 360.264 47.7204C360.264 46.1421 360.758 44.8315 361.746 43.7887C362.735 42.7318 363.999 42.2034 365.539 42.2034C367.123 42.2034 368.38 42.7036 369.31 43.7042C370.312 44.7509 370.791 46.3251 370.728 47.757C370.72 47.9405 370.56 48.0797 370.371 48.0797H362.673C362.476 48.0797 362.316 48.238 362.337 48.4283C362.428 49.2832 362.769 49.9843 363.359 50.5317C364.028 51.1517 364.827 51.4618 365.757 51.4618C366.943 51.4618 367.892 50.928 368.603 49.8604C368.698 49.7176 368.887 49.6597 369.045 49.7342L370.243 50.301C370.412 50.3808 370.48 50.5813 370.382 50.7368C369.919 51.4733 369.307 52.0602 368.547 52.4975C367.704 52.9907 366.745 53.2374 365.67 53.2374ZM362.582 46.065C362.511 46.2713 362.678 46.4732 362.903 46.4732H368.212C368.416 46.4732 368.579 46.3035 368.538 46.1095C368.419 45.5524 368.131 45.0817 367.675 44.6976C367.137 44.2185 366.411 43.979 365.495 43.979C364.74 43.979 364.086 44.2044 363.534 44.6554C363.096 45.0225 362.779 45.4924 362.582 46.065ZM359.65 42.9389C359.715 42.7426 359.564 42.5416 359.351 42.5416H357.967C357.828 42.5416 357.706 42.6304 357.667 42.7597L355.625 49.4793C355.544 49.7488 355.152 49.7544 355.062 49.4874L352.79 42.7511C352.748 42.6261 352.628 42.5416 352.493 42.5416H350.876C350.741 42.5416 350.621 42.6258 350.578 42.7504L348.286 49.4918C348.196 49.7583 347.805 49.7523 347.723 49.4831L345.681 42.7597C345.641 42.6304 345.519 42.5416 345.38 42.5416H343.952C343.74 42.5416 343.589 42.7426 343.654 42.9389L346.896 52.6884C346.937 52.814 347.058 52.8991 347.194 52.8991H348.764C348.9 52.8991 349.021 52.8139 349.063 52.6883L351.35 45.7942C351.438 45.5299 351.823 45.5295 351.912 45.7936L354.219 52.689C354.261 52.8143 354.381 52.8991 354.517 52.8991H356.11C356.246 52.8991 356.366 52.814 356.408 52.6884L359.65 42.9389ZM421.777 52.2862C422.358 52.8076 423.085 53.0683 423.957 53.0683C424.534 53.0683 425.051 53.0056 425.508 52.8802C425.665 52.8375 425.744 52.6738 425.69 52.5255L425.262 51.3519C425.204 51.1946 425.021 51.1186 424.857 51.169C424.812 51.1826 424.766 51.1957 424.719 51.2081C424.574 51.2363 424.422 51.2504 424.262 51.2504C423.913 51.2504 423.601 51.1306 423.324 50.8911C423.048 50.6374 422.91 50.1653 422.91 49.4748V44.6033C422.91 44.4453 423.042 44.3172 423.205 44.3172H425.231C425.394 44.3172 425.526 44.1891 425.526 44.031V42.8277C425.526 42.6697 425.394 42.5416 425.231 42.5416H423.205C423.042 42.5416 422.91 42.4135 422.91 42.2555V38.0498C422.91 37.8918 422.778 37.7637 422.615 37.7637H421.2C421.037 37.7637 420.905 37.8918 420.905 38.0498V42.2555C420.905 42.4135 420.773 42.5416 420.61 42.5416H419.326C419.163 42.5416 419.031 42.6697 419.031 42.8277V44.031C419.031 44.1891 419.163 44.3172 419.326 44.3172H420.61C420.773 44.3172 420.905 44.4453 420.905 44.6033V50.1089C420.92 51.039 421.21 51.7648 421.777 52.2862ZM393.139 51.9691C394.113 51.1236 394.6 50.0667 394.6 48.7984C394.6 48.0233 394.375 47.3258 393.924 46.7057C393.717 46.4109 393.419 46.0362 392.546 45.5613C392.361 45.4609 392.356 45.1936 392.531 45.0776C393.576 44.383 394.098 43.3312 394.098 42.0977C394.098 40.9281 393.655 39.9769 392.769 39.2441C391.868 38.4831 390.756 38.1026 389.434 38.1026C388.373 38.1026 387.451 38.3774 386.666 38.927C385.967 39.4167 385.446 40.0407 385.105 40.799C385.034 40.9561 385.115 41.1355 385.278 41.2024L386.517 41.7113C386.693 41.7834 386.893 41.6968 386.972 41.5285C387.46 40.4847 388.281 39.9628 389.434 39.9628C390.219 39.9628 390.851 40.16 391.33 40.5546C391.81 40.9492 392.05 41.4636 392.05 42.0977C392.05 42.7882 391.795 43.3519 391.287 43.7887C390.778 44.2115 390.124 44.4229 389.325 44.4229H388.524C388.34 44.4229 388.192 44.567 388.192 44.7448V45.9188C388.192 46.0966 388.34 46.2407 388.524 46.2407H389.478C390.32 46.2407 391.04 46.4873 391.636 46.9805C392.246 47.4738 392.551 48.0797 392.551 48.7984C392.551 49.5171 392.26 50.1301 391.679 50.6374C391.083 51.1306 390.379 51.3772 389.565 51.3772C388.824 51.3772 388.184 51.1658 387.647 50.7431C387.202 50.3712 386.862 49.8667 386.627 49.2294C386.56 49.0474 386.351 48.9484 386.168 49.0227L384.955 49.5126C384.8 49.5754 384.716 49.7416 384.771 49.8961C385.11 50.8567 385.698 51.6463 386.535 52.265C387.436 52.9132 388.446 53.2374 389.565 53.2374C390.989 53.2374 392.18 52.8146 393.139 51.9691ZM398.158 49.7285C398.158 49.1648 398.427 48.6927 398.964 48.3122C399.517 47.9317 400.2 47.7415 401.013 47.7415C402.057 47.7415 402.886 47.9501 403.5 48.3672C403.583 48.4236 403.63 48.5177 403.625 48.616C403.585 49.3683 403.252 50.028 402.626 50.5951C401.972 51.2011 401.224 51.504 400.381 51.504C399.785 51.504 399.262 51.3349 398.812 50.9967C398.376 50.6585 398.158 50.2358 398.158 49.7285ZM404.261 43.366C403.404 42.5909 402.234 42.2034 400.752 42.2034C398.965 42.2034 397.588 42.7994 396.62 43.9916C396.516 44.1199 396.555 44.3054 396.698 44.3925L397.963 45.1647C398.096 45.2463 398.272 45.2104 398.37 45.0908C399.005 44.3214 399.835 43.9367 400.861 43.9367C401.602 43.9367 402.248 44.1762 402.801 44.6554C403.356 45.1234 403.553 45.6858 403.609 46.3211C403.629 46.5395 403.383 46.6807 403.174 46.5963C402.484 46.317 401.655 46.1773 400.686 46.1773C399.291 46.1773 398.172 46.4944 397.33 47.1285C396.501 47.7626 396.087 48.6152 396.087 49.6862C396.087 50.7008 396.48 51.5463 397.264 52.2227C398.064 52.8991 399.052 53.2374 400.229 53.2374C401.609 53.2374 402.713 52.6455 403.542 51.4618V52.613C403.542 52.771 403.674 52.8991 403.837 52.8991H405.252C405.415 52.8991 405.547 52.771 405.547 52.613V46.5155C405.547 45.1768 405.118 44.1269 404.261 43.366ZM417.181 52.5951C417.181 52.763 417.04 52.8991 416.867 52.8991H415.489C415.316 52.8991 415.176 52.763 415.176 52.5951V52.2556C415.176 52.0365 414.834 51.9315 414.673 52.0851C414.42 52.3264 414.115 52.5414 413.759 52.73C413.134 53.0683 412.48 53.2374 411.797 53.2374C410.489 53.2374 409.479 52.878 408.767 52.1593C408.07 51.4265 407.721 50.3908 407.721 49.0521V42.8456C407.721 42.6777 407.862 42.5416 408.035 42.5416H409.413C409.586 42.5416 409.727 42.6777 409.727 42.8456V48.9252C409.77 50.6163 410.649 51.4618 412.364 51.4618C413.163 51.4618 413.831 51.1518 414.369 50.5317C414.907 49.8976 415.176 49.1437 415.176 48.27V42.8456C415.176 42.6777 415.316 42.5416 415.489 42.5416H416.867C417.04 42.5416 417.181 42.6777 417.181 42.8456V52.5951ZM427.54 38.0498C427.54 37.8918 427.672 37.7637 427.835 37.7637H429.25C429.413 37.7637 429.545 37.8918 429.545 38.0498V43.1852C429.545 43.4042 429.886 43.5084 430.046 43.3537C430.294 43.1132 430.592 42.8989 430.94 42.7107C431.579 42.3725 432.24 42.2034 432.923 42.2034C434.231 42.2034 435.234 42.5698 435.931 43.3025C436.643 44.0212 436.999 45.0499 436.999 46.3887V52.613C436.999 52.771 436.867 52.8991 436.704 52.8991H435.289C435.126 52.8991 434.994 52.771 434.994 52.613V46.7692C434.994 44.909 434.144 43.979 432.444 43.979C431.63 43.979 430.94 44.3101 430.373 44.9724C429.821 45.6207 429.545 46.3816 429.545 47.2553V52.613C429.545 52.771 429.413 52.8991 429.25 52.8991H427.835C427.672 52.8991 427.54 52.771 427.54 52.613V38.0498Z" fill="white"/>
<path d="M335.774 51.2573C335.891 51.6868 336.509 51.6868 336.625 51.2573L339.986 38.8921C340.14 38.3228 339.705 37.7637 339.107 37.7637H337.036C336.624 37.7637 336.264 38.0362 336.158 38.4281L334.263 45.401C334.236 45.4977 334.236 45.5996 334.263 45.6963L335.774 51.2573Z" fill="white"/>
<path d="M324.031 45.392C324.057 45.4887 324.057 45.5905 324.031 45.6873L322.52 51.2483C322.403 51.6778 321.785 51.6778 321.668 51.2483L318.311 38.8921C318.156 38.3228 318.591 37.7637 319.189 37.7637H321.261C321.672 37.7637 322.032 38.0362 322.139 38.4281L324.031 45.392Z" fill="white"/>
<path d="M326.863 53.9754C326.761 54.355 326.413 54.6189 326.015 54.6189H323.895C323.318 54.6189 322.898 54.0774 323.047 53.5259L327.127 38.4676C327.24 38.0524 327.62 37.7637 328.055 37.7637H330.52C330.955 37.7637 331.335 38.0524 331.448 38.4676L335.528 53.5259C335.677 54.0774 335.257 54.6189 334.68 54.6189H332.559C332.162 54.6189 331.814 54.355 331.711 53.9754L329.698 46.5445C329.586 46.1288 328.989 46.1288 328.877 46.5445L326.863 53.9754Z" fill="white"/>
<path d="M328.543 52.4084C328.391 52.4084 328.281 52.2734 328.32 52.136L329.065 49.5294C329.126 49.3155 329.449 49.3155 329.51 49.5294L330.255 52.136C330.294 52.2734 330.184 52.4084 330.032 52.4084H328.543Z" fill="white"/>
</g>
<g filter="url(#filter0_d_1166_242933)">
<rect x="174" y="103" width="144" height="144" rx="72" fill="white"/>
<path fill-rule="evenodd" clip-rule="evenodd" d="M243.569 205.835C243.403 206.444 243.869 207.043 244.508 207.043H250.104C250.743 207.043 251.208 206.444 251.043 205.835L248.245 195.52C247.987 194.571 246.625 194.571 246.367 195.52L243.569 205.835Z" fill="#0364FF"/>
<path fill-rule="evenodd" clip-rule="evenodd" d="M237.997 212.438C237.568 214.017 236.119 215.116 234.463 215.116H226.887C224.482 215.116 222.731 212.862 223.353 210.567L238.894 153.285C239.363 151.557 240.948 150.355 242.759 150.355H251.775C253.586 150.355 255.171 151.557 255.64 153.285L271.181 210.567C271.803 212.862 270.052 215.116 267.647 215.116H260.071C258.415 215.116 256.966 214.017 256.537 212.438L248.979 184.577C248.51 182.847 246.024 182.847 245.555 184.577L237.997 212.438Z" fill="#0364FF"/>
<path fill-rule="evenodd" clip-rule="evenodd" d="M276.102 201.644C275.617 203.429 273.052 203.429 272.568 201.644L266.926 180.848C266.817 180.446 266.817 180.022 266.926 179.62L274.116 153.117C274.558 151.488 276.053 150.355 277.761 150.355H285.099C287.58 150.355 289.386 152.68 288.744 155.046L276.102 201.644ZM227.695 180.813C227.804 180.411 227.804 179.988 227.695 179.585L220.514 153.117C220.072 151.488 218.577 150.355 216.87 150.355H209.531C207.05 150.355 205.244 152.68 205.886 155.046L218.519 201.609C219.003 203.394 221.568 203.394 222.053 201.609L227.695 180.813Z" fill="#0364FF"/>
</g>
<g filter="url(#filter1_d_1166_242933)">
<rect x="437" y="103" width="144" height="144" rx="72" fill="white"/>
<path d="M468.786 161.192C468.738 160.705 468.531 160.327 468.165 160.057C467.798 159.788 467.301 159.653 466.674 159.653C466.247 159.653 465.887 159.713 465.593 159.834C465.299 159.951 465.074 160.114 464.917 160.323C464.764 160.532 464.687 160.77 464.687 161.035C464.679 161.257 464.726 161.45 464.826 161.615C464.931 161.78 465.074 161.923 465.255 162.043C465.436 162.16 465.645 162.263 465.883 162.351C466.12 162.436 466.374 162.508 466.643 162.569L467.754 162.834C468.293 162.955 468.789 163.116 469.239 163.317C469.69 163.518 470.08 163.766 470.41 164.06C470.74 164.353 470.996 164.7 471.177 165.098C471.362 165.496 471.457 165.953 471.461 166.468C471.457 167.225 471.264 167.881 470.881 168.436C470.503 168.988 469.956 169.416 469.239 169.722C468.527 170.024 467.668 170.175 466.661 170.175C465.663 170.175 464.794 170.022 464.054 169.716C463.317 169.41 462.742 168.958 462.327 168.358C461.916 167.754 461.701 167.008 461.681 166.118H464.21C464.239 166.533 464.357 166.879 464.567 167.157C464.78 167.43 465.064 167.638 465.418 167.778C465.776 167.915 466.181 167.984 466.631 167.984C467.074 167.984 467.458 167.919 467.784 167.79C468.114 167.662 468.37 167.483 468.551 167.253C468.732 167.024 468.823 166.76 468.823 166.462C468.823 166.185 468.74 165.951 468.575 165.762C468.414 165.573 468.177 165.412 467.863 165.279C467.553 165.146 467.173 165.026 466.722 164.917L465.376 164.579C464.333 164.325 463.51 163.929 462.907 163.39C462.303 162.85 462.003 162.124 462.007 161.21C462.003 160.462 462.202 159.808 462.605 159.248C463.011 158.689 463.569 158.252 464.277 157.938C464.985 157.624 465.79 157.467 466.692 157.467C467.609 157.467 468.41 157.624 469.094 157.938C469.783 158.252 470.318 158.689 470.7 159.248C471.083 159.808 471.28 160.456 471.292 161.192H468.786ZM477.397 170.181C476.443 170.181 475.622 169.988 474.934 169.602C474.249 169.211 473.722 168.66 473.352 167.947C472.982 167.231 472.797 166.384 472.797 165.406C472.797 164.452 472.982 163.615 473.352 162.895C473.722 162.174 474.243 161.613 474.915 161.21C475.592 160.808 476.384 160.607 477.294 160.607C477.906 160.607 478.475 160.705 479.002 160.902C479.534 161.096 479.997 161.387 480.391 161.778C480.789 162.168 481.099 162.659 481.321 163.251C481.542 163.838 481.653 164.527 481.653 165.315V166.022H473.823V164.428H479.232C479.232 164.058 479.151 163.73 478.99 163.444C478.829 163.158 478.606 162.935 478.32 162.774C478.039 162.609 477.711 162.526 477.336 162.526C476.946 162.526 476.6 162.617 476.298 162.798C476 162.975 475.767 163.214 475.598 163.516C475.429 163.814 475.342 164.146 475.338 164.512V166.028C475.338 166.487 475.423 166.883 475.592 167.217C475.765 167.551 476.008 167.809 476.322 167.99C476.636 168.171 477.008 168.261 477.439 168.261C477.725 168.261 477.986 168.221 478.224 168.141C478.461 168.06 478.664 167.939 478.833 167.778C479.002 167.617 479.131 167.42 479.22 167.187L481.598 167.344C481.478 167.915 481.23 168.414 480.856 168.841C480.486 169.263 480.007 169.594 479.419 169.831C478.835 170.064 478.161 170.181 477.397 170.181ZM483.331 170V160.727H485.824V162.345H485.921C486.09 161.77 486.374 161.335 486.772 161.041C487.17 160.743 487.629 160.594 488.148 160.594C488.277 160.594 488.416 160.603 488.565 160.619C488.714 160.635 488.845 160.657 488.957 160.685V162.967C488.837 162.931 488.67 162.899 488.456 162.87C488.243 162.842 488.048 162.828 487.871 162.828C487.492 162.828 487.154 162.911 486.857 163.076C486.563 163.237 486.329 163.462 486.156 163.752C485.987 164.042 485.903 164.376 485.903 164.754V170H483.331ZM499.214 160.727L495.972 170H493.075L489.833 160.727H492.549L494.475 167.362H494.572L496.491 160.727H499.214ZM504.457 170.181C503.503 170.181 502.682 169.988 501.994 169.602C501.31 169.211 500.783 168.66 500.412 167.947C500.042 167.231 499.857 166.384 499.857 165.406C499.857 164.452 500.042 163.615 500.412 162.895C500.783 162.174 501.304 161.613 501.976 161.21C502.652 160.808 503.445 160.607 504.355 160.607C504.966 160.607 505.536 160.705 506.063 160.902C506.594 161.096 507.057 161.387 507.452 161.778C507.85 162.168 508.16 162.659 508.381 163.251C508.603 163.838 508.713 164.527 508.713 165.315V166.022H500.883V164.428H506.292C506.292 164.058 506.212 163.73 506.051 163.444C505.89 163.158 505.667 162.935 505.381 162.774C505.099 162.609 504.771 162.526 504.397 162.526C504.006 162.526 503.66 162.617 503.358 162.798C503.061 162.975 502.827 163.214 502.658 163.516C502.489 163.814 502.403 164.146 502.399 164.512V166.028C502.399 166.487 502.483 166.883 502.652 167.217C502.825 167.551 503.069 167.809 503.383 167.99C503.697 168.171 504.069 168.261 504.499 168.261C504.785 168.261 505.047 168.221 505.284 168.141C505.522 168.06 505.725 167.939 505.894 167.778C506.063 167.617 506.192 167.42 506.28 167.187L508.659 167.344C508.538 167.915 508.291 168.414 507.916 168.841C507.546 169.263 507.067 169.594 506.48 169.831C505.896 170.064 505.222 170.181 504.457 170.181ZM510.392 170V160.727H512.885V162.345H512.981C513.15 161.77 513.434 161.335 513.833 161.041C514.231 160.743 514.69 160.594 515.209 160.594C515.338 160.594 515.477 160.603 515.626 160.619C515.774 160.635 515.905 160.657 516.018 160.685V162.967C515.897 162.931 515.73 162.899 515.517 162.87C515.304 162.842 515.108 162.828 514.931 162.828C514.553 162.828 514.215 162.911 513.917 163.076C513.623 163.237 513.39 163.462 513.217 163.752C513.048 164.042 512.963 164.376 512.963 164.754V170H510.392ZM528.037 161.192C527.989 160.705 527.782 160.327 527.416 160.057C527.049 159.788 526.552 159.653 525.925 159.653C525.498 159.653 525.138 159.713 524.844 159.834C524.55 159.951 524.325 160.114 524.168 160.323C524.015 160.532 523.938 160.77 523.938 161.035C523.93 161.257 523.977 161.45 524.077 161.615C524.182 161.78 524.325 161.923 524.506 162.043C524.687 162.16 524.896 162.263 525.134 162.351C525.371 162.436 525.625 162.508 525.894 162.569L527.005 162.834C527.544 162.955 528.039 163.116 528.49 163.317C528.941 163.518 529.331 163.766 529.661 164.06C529.991 164.353 530.247 164.7 530.428 165.098C530.613 165.496 530.708 165.953 530.712 166.468C530.708 167.225 530.515 167.881 530.132 168.436C529.754 168.988 529.207 169.416 528.49 169.722C527.778 170.024 526.919 170.175 525.912 170.175C524.914 170.175 524.045 170.022 523.305 169.716C522.568 169.41 521.992 168.958 521.578 168.358C521.167 167.754 520.952 167.008 520.932 166.118H523.461C523.49 166.533 523.608 166.879 523.818 167.157C524.031 167.43 524.315 167.638 524.669 167.778C525.027 167.915 525.432 167.984 525.882 167.984C526.325 167.984 526.709 167.919 527.035 167.79C527.365 167.662 527.621 167.483 527.802 167.253C527.983 167.024 528.074 166.76 528.074 166.462C528.074 166.185 527.991 165.951 527.826 165.762C527.665 165.573 527.428 165.412 527.114 165.279C526.804 165.146 526.424 165.026 525.973 164.917L524.627 164.579C523.584 164.325 522.761 163.929 522.157 163.39C521.554 162.85 521.254 162.124 521.258 161.21C521.254 160.462 521.453 159.808 521.856 159.248C522.262 158.689 522.82 158.252 523.528 157.938C524.236 157.624 525.041 157.467 525.943 157.467C526.86 157.467 527.661 157.624 528.345 157.938C529.034 158.252 529.569 158.689 529.951 159.248C530.334 159.808 530.531 160.456 530.543 161.192H528.037ZM532.422 170V160.727H534.994V170H532.422ZM533.714 159.532C533.331 159.532 533.003 159.405 532.73 159.152C532.46 158.894 532.325 158.586 532.325 158.228C532.325 157.874 532.46 157.57 532.73 157.316C533.003 157.059 533.331 156.93 533.714 156.93C534.096 156.93 534.422 157.059 534.692 157.316C534.965 157.57 535.102 157.874 535.102 158.228C535.102 158.586 534.965 158.894 534.692 159.152C534.422 159.405 534.096 159.532 533.714 159.532ZM540.471 170.151C539.766 170.151 539.128 169.97 538.557 169.608C537.989 169.241 537.539 168.704 537.205 167.996C536.875 167.283 536.71 166.41 536.71 165.376C536.71 164.313 536.881 163.43 537.223 162.725C537.565 162.017 538.02 161.488 538.587 161.138C539.158 160.784 539.784 160.607 540.464 160.607C540.984 160.607 541.416 160.695 541.762 160.872C542.113 161.045 542.394 161.263 542.608 161.524C542.825 161.782 542.99 162.035 543.103 162.285H543.181V157.636H545.747V170H543.211V168.515H543.103C542.982 168.772 542.811 169.028 542.589 169.282C542.372 169.531 542.088 169.738 541.738 169.903C541.392 170.068 540.97 170.151 540.471 170.151ZM541.286 168.104C541.7 168.104 542.05 167.992 542.336 167.766C542.626 167.537 542.847 167.217 543 166.806C543.157 166.396 543.235 165.915 543.235 165.364C543.235 164.812 543.159 164.333 543.006 163.927C542.853 163.52 542.632 163.206 542.342 162.985C542.052 162.764 541.7 162.653 541.286 162.653C540.863 162.653 540.507 162.768 540.217 162.997C539.927 163.227 539.708 163.545 539.559 163.951C539.41 164.357 539.336 164.828 539.336 165.364C539.336 165.903 539.41 166.38 539.559 166.794C539.712 167.205 539.931 167.527 540.217 167.76C540.507 167.99 540.863 168.104 541.286 168.104ZM552.087 170.181C551.133 170.181 550.312 169.988 549.624 169.602C548.94 169.211 548.413 168.66 548.042 167.947C547.672 167.231 547.487 166.384 547.487 165.406C547.487 164.452 547.672 163.615 548.042 162.895C548.413 162.174 548.934 161.613 549.606 161.21C550.282 160.808 551.075 160.607 551.984 160.607C552.596 160.607 553.166 160.705 553.693 160.902C554.224 161.096 554.687 161.387 555.081 161.778C555.48 162.168 555.79 162.659 556.011 163.251C556.232 163.838 556.343 164.527 556.343 165.315V166.022H548.513V164.428H553.922C553.922 164.058 553.842 163.73 553.681 163.444C553.52 163.158 553.296 162.935 553.011 162.774C552.729 162.609 552.401 162.526 552.027 162.526C551.636 162.526 551.29 162.617 550.988 162.798C550.691 162.975 550.457 163.214 550.288 163.516C550.119 163.814 550.033 164.146 550.028 164.512V166.028C550.028 166.487 550.113 166.883 550.282 167.217C550.455 167.551 550.699 167.809 551.013 167.99C551.326 168.171 551.699 168.261 552.129 168.261C552.415 168.261 552.677 168.221 552.914 168.141C553.152 168.06 553.355 167.939 553.524 167.778C553.693 167.617 553.822 167.42 553.91 167.187L556.289 167.344C556.168 167.915 555.921 168.414 555.546 168.841C555.176 169.263 554.697 169.594 554.109 169.831C553.526 170.064 552.852 170.181 552.087 170.181ZM463.964 178.636L466.953 188.03H467.067L470.062 178.636H472.96L468.697 191H465.329L461.061 178.636H463.964ZM477.579 191.181C476.625 191.181 475.804 190.988 475.116 190.602C474.432 190.211 473.905 189.66 473.535 188.947C473.164 188.231 472.979 187.384 472.979 186.406C472.979 185.452 473.164 184.615 473.535 183.895C473.905 183.174 474.426 182.613 475.098 182.21C475.774 181.808 476.567 181.607 477.477 181.607C478.088 181.607 478.658 181.705 479.185 181.902C479.716 182.096 480.179 182.387 480.574 182.778C480.972 183.168 481.282 183.659 481.503 184.251C481.725 184.838 481.835 185.527 481.835 186.315V187.022H474.005V185.428H479.415C479.415 185.058 479.334 184.73 479.173 184.444C479.012 184.158 478.789 183.935 478.503 183.774C478.221 183.609 477.893 183.526 477.519 183.526C477.129 183.526 476.782 183.617 476.481 183.798C476.183 183.975 475.949 184.214 475.78 184.516C475.611 184.814 475.525 185.146 475.521 185.512V187.028C475.521 187.487 475.605 187.883 475.774 188.217C475.947 188.551 476.191 188.809 476.505 188.99C476.819 189.171 477.191 189.261 477.622 189.261C477.907 189.261 478.169 189.221 478.406 189.141C478.644 189.06 478.847 188.939 479.016 188.778C479.185 188.617 479.314 188.42 479.402 188.187L481.781 188.344C481.66 188.915 481.413 189.414 481.038 189.841C480.668 190.263 480.189 190.594 479.602 190.831C479.018 191.064 478.344 191.181 477.579 191.181ZM483.514 191V181.727H486.007V183.345H486.103C486.272 182.77 486.556 182.335 486.955 182.041C487.353 181.743 487.812 181.594 488.331 181.594C488.46 181.594 488.599 181.603 488.748 181.619C488.897 181.635 489.027 181.657 489.14 181.685V183.967C489.019 183.931 488.852 183.899 488.639 183.87C488.426 183.842 488.23 183.828 488.053 183.828C487.675 183.828 487.337 183.911 487.039 184.076C486.745 184.237 486.512 184.462 486.339 184.752C486.17 185.042 486.085 185.376 486.085 185.754V191H483.514ZM490.47 191V181.727H493.041V191H490.47ZM491.762 180.532C491.379 180.532 491.051 180.405 490.778 180.152C490.508 179.894 490.373 179.586 490.373 179.228C490.373 178.874 490.508 178.57 490.778 178.316C491.051 178.059 491.379 177.93 491.762 177.93C492.144 177.93 492.47 178.059 492.74 178.316C493.013 178.57 493.15 178.874 493.15 179.228C493.15 179.586 493.013 179.894 492.74 180.152C492.47 180.405 492.144 180.532 491.762 180.532ZM500.088 181.727V183.659H494.365V181.727H500.088ZM495.675 191V181.057C495.675 180.385 495.806 179.828 496.067 179.385C496.333 178.942 496.695 178.61 497.154 178.389C497.613 178.167 498.134 178.057 498.718 178.057C499.112 178.057 499.472 178.087 499.798 178.147C500.128 178.208 500.374 178.262 500.535 178.31L500.076 180.242C499.975 180.21 499.851 180.18 499.702 180.152C499.557 180.123 499.408 180.109 499.255 180.109C498.877 180.109 498.613 180.198 498.464 180.375C498.315 180.548 498.241 180.792 498.241 181.105V191H495.675ZM501.659 191V181.727H504.231V191H501.659ZM502.951 180.532C502.569 180.532 502.241 180.405 501.967 180.152C501.697 179.894 501.562 179.586 501.562 179.228C501.562 178.874 501.697 178.57 501.967 178.316C502.241 178.059 502.569 177.93 502.951 177.93C503.333 177.93 503.659 178.059 503.929 178.316C504.203 178.57 504.339 178.874 504.339 179.228C504.339 179.586 504.203 179.894 503.929 180.152C503.659 180.405 503.333 180.532 502.951 180.532ZM510.481 191.181C509.531 191.181 508.714 190.98 508.03 190.577C507.349 190.171 506.826 189.607 506.46 188.887C506.098 188.167 505.917 187.338 505.917 186.4C505.917 185.45 506.1 184.617 506.466 183.901C506.836 183.18 507.361 182.619 508.042 182.216C508.722 181.81 509.531 181.607 510.468 181.607C511.277 181.607 511.986 181.753 512.593 182.047C513.201 182.341 513.682 182.754 514.036 183.285C514.39 183.816 514.586 184.44 514.622 185.156H512.195C512.127 184.693 511.946 184.321 511.652 184.039C511.362 183.754 510.982 183.611 510.511 183.611C510.112 183.611 509.764 183.719 509.466 183.937C509.173 184.15 508.943 184.462 508.778 184.873C508.613 185.283 508.531 185.78 508.531 186.364C508.531 186.955 508.611 187.458 508.772 187.873C508.937 188.287 509.169 188.603 509.466 188.821C509.764 189.038 510.112 189.147 510.511 189.147C510.805 189.147 511.068 189.086 511.302 188.966C511.539 188.845 511.734 188.67 511.887 188.44C512.044 188.207 512.147 187.927 512.195 187.601H514.622C514.582 188.31 514.388 188.933 514.042 189.473C513.7 190.008 513.227 190.426 512.624 190.728C512.02 191.03 511.306 191.181 510.481 191.181ZM518.913 191.175C518.321 191.175 517.794 191.072 517.331 190.867C516.868 190.658 516.502 190.35 516.232 189.944C515.967 189.533 515.834 189.022 515.834 188.41C515.834 187.895 515.928 187.462 516.118 187.112C516.307 186.762 516.564 186.48 516.89 186.267C517.216 186.054 517.587 185.893 518.001 185.784C518.42 185.675 518.858 185.599 519.317 185.555C519.856 185.498 520.291 185.446 520.621 185.398C520.951 185.345 521.191 185.269 521.339 185.168C521.488 185.068 521.563 184.919 521.563 184.722V184.685C521.563 184.303 521.442 184.007 521.201 183.798C520.963 183.589 520.625 183.484 520.186 183.484C519.724 183.484 519.355 183.587 519.082 183.792C518.808 183.993 518.627 184.247 518.538 184.553L516.16 184.359C516.281 183.796 516.518 183.309 516.872 182.898C517.226 182.484 517.683 182.166 518.243 181.945C518.806 181.719 519.458 181.607 520.199 181.607C520.714 181.607 521.207 181.667 521.678 181.788C522.152 181.908 522.573 182.096 522.939 182.349C523.31 182.603 523.601 182.929 523.815 183.327C524.028 183.721 524.135 184.194 524.135 184.746V191H521.696V189.714H521.623C521.474 190.004 521.275 190.259 521.026 190.481C520.776 190.698 520.476 190.869 520.126 190.994C519.776 191.115 519.371 191.175 518.913 191.175ZM519.649 189.4C520.027 189.4 520.362 189.326 520.651 189.177C520.941 189.024 521.168 188.819 521.333 188.561C521.498 188.304 521.581 188.012 521.581 187.686V186.702C521.5 186.754 521.39 186.802 521.249 186.847C521.112 186.887 520.957 186.925 520.784 186.961C520.611 186.993 520.438 187.024 520.265 187.052C520.092 187.076 519.935 187.098 519.794 187.118C519.492 187.163 519.229 187.233 519.003 187.33C518.778 187.426 518.603 187.557 518.478 187.722C518.353 187.883 518.291 188.084 518.291 188.326C518.291 188.676 518.418 188.943 518.671 189.129C518.929 189.31 519.255 189.4 519.649 189.4ZM531.062 181.727V183.659H525.478V181.727H531.062ZM526.746 179.506H529.317V188.151C529.317 188.388 529.354 188.573 529.426 188.706C529.498 188.835 529.599 188.925 529.728 188.978C529.861 189.03 530.014 189.056 530.187 189.056C530.307 189.056 530.428 189.046 530.549 189.026C530.67 189.002 530.762 188.984 530.827 188.972L531.231 190.885C531.102 190.926 530.921 190.972 530.688 191.024C530.454 191.08 530.171 191.115 529.836 191.127C529.217 191.151 528.673 191.068 528.206 190.879C527.744 190.69 527.383 190.396 527.126 189.998C526.868 189.599 526.742 189.096 526.746 188.489V179.506ZM532.737 191V181.727H535.309V191H532.737ZM534.029 180.532C533.647 180.532 533.319 180.405 533.045 180.152C532.775 179.894 532.641 179.586 532.641 179.228C532.641 178.874 532.775 178.57 533.045 178.316C533.319 178.059 533.647 177.93 534.029 177.93C534.411 177.93 534.737 178.059 535.007 178.316C535.281 178.57 535.418 178.874 535.418 179.228C535.418 179.586 535.281 179.894 535.007 180.152C534.737 180.405 534.411 180.532 534.029 180.532ZM541.559 191.181C540.621 191.181 539.81 190.982 539.126 190.583C538.446 190.181 537.92 189.622 537.55 188.905C537.18 188.185 536.995 187.35 536.995 186.4C536.995 185.442 537.18 184.605 537.55 183.888C537.92 183.168 538.446 182.609 539.126 182.21C539.81 181.808 540.621 181.607 541.559 181.607C542.496 181.607 543.305 181.808 543.986 182.21C544.67 182.609 545.197 183.168 545.567 183.888C545.937 184.605 546.123 185.442 546.123 186.4C546.123 187.35 545.937 188.185 545.567 188.905C545.197 189.622 544.67 190.181 543.986 190.583C543.305 190.982 542.496 191.181 541.559 191.181ZM541.571 189.189C541.997 189.189 542.354 189.068 542.639 188.827C542.925 188.581 543.14 188.247 543.285 187.825C543.434 187.402 543.509 186.921 543.509 186.382C543.509 185.842 543.434 185.362 543.285 184.939C543.14 184.516 542.925 184.182 542.639 183.937C542.354 183.691 541.997 183.569 541.571 183.569C541.14 183.569 540.778 183.691 540.484 183.937C540.194 184.182 539.975 184.516 539.826 184.939C539.681 185.362 539.609 185.842 539.609 186.382C539.609 186.921 539.681 187.402 539.826 187.825C539.975 188.247 540.194 188.581 540.484 188.827C540.778 189.068 541.14 189.189 541.571 189.189ZM550.367 185.639V191H547.795V181.727H550.246V183.363H550.354C550.56 182.824 550.904 182.397 551.387 182.083C551.87 181.766 552.455 181.607 553.144 181.607C553.787 181.607 554.349 181.747 554.828 182.029C555.307 182.311 555.679 182.713 555.945 183.237C556.21 183.756 556.343 184.375 556.343 185.096V191H553.771V185.555C553.775 184.987 553.631 184.545 553.337 184.227C553.043 183.905 552.638 183.744 552.123 183.744C551.777 183.744 551.471 183.818 551.206 183.967C550.944 184.116 550.739 184.333 550.59 184.619C550.445 184.901 550.371 185.241 550.367 185.639Z" fill="black"/>
</g>
<defs>
<filter id="filter0_d_1166_242933" x="140" y="69" width="212" height="212" filterUnits="userSpaceOnUse" color-interpolation-filters="sRGB">
<feFlood flood-opacity="0" result="BackgroundImageFix"/>
<feColorMatrix in="SourceAlpha" type="matrix" values="0 0 0 0 0 0 0 0 0 0 0 0 0 0 0 0 0 0 127 0" result="hardAlpha"/>
<feOffset/>
<feGaussianBlur stdDeviation="17"/>
<feComposite in2="hardAlpha" operator="out"/>
<feColorMatrix type="matrix" values="0 0 0 0 0.0117647 0 0 0 0 0.392157 0 0 0 0 1 0 0 0 0.2 0"/>
<feBlend mode="normal" in2="BackgroundImageFix" result="effect1_dropShadow_1166_242933"/>
<feBlend mode="normal" in="SourceGraphic" in2="effect1_dropShadow_1166_242933" result="shape"/>
</filter>
<filter id="filter1_d_1166_242933" x="403" y="69" width="212" height="212" filterUnits="userSpaceOnUse" color-interpolation-filters="sRGB">
<feFlood flood-opacity="0" result="BackgroundImageFix"/>
<feColorMatrix in="SourceAlpha" type="matrix" values="0 0 0 0 0 0 0 0 0 0 0 0 0 0 0 0 0 0 127 0" result="hardAlpha"/>
<feOffset/>
<feGaussianBlur stdDeviation="17"/>
<feComposite in2="hardAlpha" operator="out"/>
<feColorMatrix type="matrix" values="0 0 0 0 0.0117647 0 0 0 0 0.392157 0 0 0 0 1 0 0 0 0.2 0"/>
<feBlend mode="normal" in2="BackgroundImageFix" result="effect1_dropShadow_1166_242933"/>
<feBlend mode="normal" in="SourceGraphic" in2="effect1_dropShadow_1166_242933" result="shape"/>
</filter>
<linearGradient id="paint0_linear_1166_242933" x1="0" y1="206.5" x2="756" y2="206.5" gradientUnits="userSpaceOnUse">
<stop offset="0.0885417" stop-color="#0364FF"/>
<stop offset="1"/>
</linearGradient>
</defs>
</svg>
