<svg width="756" height="350" viewBox="0 0 756 350" fill="none" xmlns="http://www.w3.org/2000/svg">
<rect width="756" height="350" fill="white"/>
<rect width="756" height="350" fill="url(#paint0_linear_1169_242996)" fill-opacity="0.6"/>
<rect width="756" height="350" fill="url(#paint1_linear_1169_242996)"/>
<rect width="756" height="350" fill="white" fill-opacity="0.29"/>
<path fill-rule="evenodd" clip-rule="evenodd" d="M379.831 178.373C377.175 178.373 374.74 177.819 372.526 176.71C371.278 176.07 370.192 175.31 369.271 174.43C368.688 173.874 367.509 174.251 367.509 175.048V176.238C367.509 176.778 367.061 177.216 366.509 177.216H361.718C361.167 177.216 360.72 176.778 360.72 176.238V126.43C360.72 125.889 361.167 125.451 361.718 125.451H366.487C367.039 125.451 367.486 125.889 367.486 126.43V143.96C367.486 144.757 368.669 145.137 369.253 144.582C370.181 143.7 371.276 142.939 372.526 142.298C374.74 141.19 377.175 140.635 379.831 140.635C384.604 140.635 388.638 142.467 391.933 146.13C395.328 149.841 397.025 154.299 397.025 159.504C397.025 164.757 395.328 169.216 391.933 172.878C388.638 176.541 384.604 178.373 379.831 178.373ZM378.725 172.3C381.972 172.3 384.702 171.095 386.916 168.685C389.129 166.324 390.237 163.263 390.237 159.504C390.237 155.793 389.129 152.733 386.916 150.323C384.702 147.913 381.972 146.708 378.725 146.708C375.429 146.708 372.674 147.913 370.461 150.323C368.296 152.733 367.214 155.793 367.214 159.504C367.214 163.263 368.296 166.348 370.461 168.758C372.674 171.119 375.429 172.3 378.725 172.3ZM337.392 178.373C332.079 178.373 327.7 176.59 324.257 173.023C320.814 169.457 319.092 164.95 319.092 159.504C319.092 154.106 320.765 149.624 324.109 146.057C327.455 142.443 331.734 140.635 336.95 140.635C342.311 140.635 346.567 142.346 349.715 145.768C353.109 149.348 354.731 154.732 354.518 159.629C354.49 160.257 353.949 160.733 353.308 160.733H327.248C326.579 160.733 326.039 161.274 326.107 161.925C326.419 164.849 327.573 167.247 329.57 169.119C331.833 171.24 334.539 172.3 337.687 172.3C341.704 172.3 344.916 170.474 347.324 166.823C347.645 166.335 348.286 166.137 348.819 166.392L352.875 168.33C353.447 168.603 353.676 169.289 353.345 169.821C351.777 172.34 349.706 174.347 347.132 175.843C344.279 177.529 341.032 178.373 337.392 178.373ZM326.937 153.843C326.697 154.548 327.265 155.239 328.024 155.239H345.997C346.688 155.239 347.242 154.658 347.101 153.995C346.698 152.089 345.725 150.48 344.181 149.166C342.36 147.527 339.901 146.708 336.802 146.708C334.243 146.708 332.03 147.479 330.16 149.021C328.678 150.277 327.605 151.884 326.937 153.843ZM317.011 143.151C317.231 142.48 316.721 141.792 316 141.792H311.315C310.844 141.792 310.43 142.096 310.298 142.538L303.387 165.52C303.109 166.442 301.784 166.461 301.479 165.548L293.788 142.509C293.646 142.081 293.239 141.792 292.78 141.792H287.306C286.849 141.792 286.443 142.08 286.299 142.506L278.539 165.563C278.232 166.474 276.909 166.453 276.632 165.533L269.718 142.538C269.585 142.096 269.17 141.792 268.7 141.792H263.867C263.147 141.792 262.636 142.48 262.857 143.151L273.831 176.495C273.973 176.925 274.381 177.216 274.841 177.216H280.158C280.619 177.216 281.027 176.925 281.168 176.495L288.912 152.916C289.21 152.012 290.515 152.011 290.814 152.914L298.624 176.497C298.766 176.926 299.174 177.216 299.634 177.216H305.026C305.486 177.216 305.894 176.925 306.036 176.495L317.011 143.151ZM527.345 175.12C529.313 176.903 531.773 177.794 534.725 177.794C536.678 177.794 538.43 177.58 539.979 177.151C540.507 177.005 540.775 176.445 540.592 175.938L539.143 171.924C538.95 171.386 538.328 171.126 537.772 171.299C537.622 171.345 537.467 171.39 537.308 171.433C536.816 171.529 536.299 171.577 535.757 171.577C534.577 171.577 533.52 171.167 532.585 170.348C531.651 169.481 531.183 167.866 531.183 165.504V148.843C531.183 148.303 531.63 147.865 532.181 147.865H539.039C539.591 147.865 540.038 147.427 540.038 146.886V142.771C540.038 142.23 539.591 141.792 539.039 141.792H532.181C531.63 141.792 531.183 141.354 531.183 140.814V126.43C531.183 125.889 530.736 125.451 530.184 125.451H525.393C524.841 125.451 524.394 125.889 524.394 126.43V140.814C524.394 141.354 523.947 141.792 523.395 141.792H519.047C518.495 141.792 518.048 142.23 518.048 142.771V146.886C518.048 147.427 518.495 147.865 519.047 147.865H523.395C523.947 147.865 524.394 148.303 524.394 148.843V167.673C524.443 170.854 525.427 173.336 527.345 175.12ZM430.392 174.035C433.688 171.143 435.336 167.529 435.336 163.191C435.336 160.54 434.573 158.155 433.049 156.034C432.346 155.026 431.339 153.744 428.381 152.12C427.757 151.777 427.74 150.862 428.331 150.466C431.87 148.09 433.638 144.493 433.638 140.274C433.638 136.274 432.138 133.021 429.137 130.514C426.087 127.912 422.324 126.61 417.847 126.61C414.256 126.61 411.132 127.55 408.476 129.43C406.108 131.105 404.347 133.239 403.191 135.832C402.951 136.37 403.227 136.983 403.777 137.212L407.973 138.953C408.566 139.199 409.246 138.903 409.512 138.327C411.164 134.757 413.943 132.972 417.847 132.972C420.504 132.972 422.643 133.647 424.267 134.997C425.89 136.346 426.702 138.105 426.702 140.274C426.702 142.636 425.842 144.563 424.12 146.057C422.398 147.503 420.185 148.226 417.478 148.226H414.765C414.144 148.226 413.641 148.719 413.641 149.327V153.343C413.641 153.951 414.144 154.444 414.765 154.444H417.995C420.848 154.444 423.283 155.287 425.3 156.974C427.367 158.661 428.399 160.733 428.399 163.191C428.399 165.649 427.416 167.746 425.448 169.481C423.431 171.167 421.045 172.011 418.29 172.011C415.781 172.011 413.617 171.288 411.796 169.842C410.289 168.57 409.138 166.845 408.343 164.665C408.116 164.043 407.411 163.704 406.788 163.958L402.684 165.634C402.157 165.849 401.876 166.417 402.06 166.945C403.208 170.231 405.199 172.931 408.033 175.047C411.083 177.264 414.503 178.373 418.29 178.373C423.111 178.373 427.145 176.927 430.392 174.035ZM447.382 166.372C447.382 164.444 448.292 162.83 450.112 161.528C451.982 160.227 454.294 159.576 457.049 159.576C460.584 159.576 463.39 160.29 465.467 161.716C465.749 161.909 465.907 162.231 465.89 162.567C465.755 165.14 464.628 167.396 462.51 169.336C460.296 171.408 457.763 172.445 454.909 172.445C452.893 172.445 451.121 171.866 449.596 170.71C448.12 169.553 447.382 168.107 447.382 166.372ZM468.044 144.612C465.141 141.961 461.181 140.635 456.163 140.635C450.113 140.635 445.452 142.674 442.176 146.751C441.824 147.19 441.957 147.825 442.439 148.122L446.721 150.763C447.174 151.043 447.766 150.92 448.1 150.511C450.25 147.879 453.061 146.563 456.533 146.563C459.041 146.563 461.231 147.383 463.1 149.021C464.982 150.622 465.647 152.546 465.839 154.719C465.903 155.465 465.071 155.948 464.365 155.66C462.029 154.704 459.221 154.227 455.942 154.227C451.22 154.227 447.431 155.311 444.578 157.48C441.774 159.649 440.373 162.565 440.373 166.227C440.373 169.698 441.7 172.589 444.357 174.903C447.063 177.216 450.408 178.373 454.393 178.373C459.066 178.373 462.805 176.349 465.609 172.3V176.238C465.609 176.778 466.056 177.216 466.608 177.216H471.399C471.95 177.216 472.397 176.778 472.397 176.238V155.383C472.397 150.805 470.946 147.214 468.044 144.612ZM511.785 176.176C511.785 176.751 511.31 177.216 510.723 177.216H506.057C505.471 177.216 504.996 176.751 504.996 176.176V175.015C504.996 174.266 503.838 173.907 503.294 174.432C502.439 175.257 501.407 175.993 500.199 176.638C498.085 177.794 495.87 178.373 493.559 178.373C489.131 178.373 485.712 177.144 483.301 174.686C480.94 172.18 479.759 168.637 479.759 164.059V142.832C479.759 142.258 480.235 141.792 480.82 141.792H485.487C486.073 141.792 486.548 142.258 486.548 142.832V163.625C486.696 169.408 489.673 172.3 495.477 172.3C498.182 172.3 500.446 171.24 502.265 169.119C504.086 166.95 504.996 164.372 504.996 161.384V142.832C504.996 142.258 505.471 141.792 506.057 141.792H510.723C511.31 141.792 511.785 142.258 511.785 142.832V176.176ZM546.856 126.43C546.856 125.889 547.303 125.451 547.855 125.451H552.646C553.197 125.451 553.645 125.889 553.645 126.43V143.993C553.645 144.742 554.797 145.099 555.339 144.57C556.181 143.747 557.19 143.014 558.367 142.37C560.532 141.214 562.771 140.635 565.083 140.635C569.51 140.635 572.905 141.889 575.266 144.395C577.676 146.853 578.882 150.371 578.882 154.95V176.238C578.882 176.778 578.434 177.216 577.882 177.216H573.092C572.539 177.216 572.093 176.778 572.093 176.238V156.251C572.093 149.889 569.215 146.708 563.459 146.708C560.704 146.708 558.368 147.841 556.449 150.106C554.58 152.323 553.645 154.925 553.645 157.914V176.238C553.645 176.778 553.197 177.216 552.646 177.216H547.855C547.303 177.216 546.856 176.778 546.856 176.238V126.43Z" fill="#F3F3F4"/>
<path d="M236.173 171.601C236.568 173.07 238.661 173.07 239.056 171.601L250.432 129.311C250.955 127.363 249.482 125.451 247.459 125.451H240.445C239.052 125.451 237.832 126.383 237.472 127.724L231.057 151.572C230.968 151.903 230.968 152.251 231.057 152.582L236.173 171.601Z" fill="white"/>
<path d="M196.416 151.541C196.505 151.872 196.505 152.22 196.416 152.551L191.3 171.57C190.905 173.039 188.812 173.039 188.417 171.57L177.05 129.311C176.526 127.363 177.999 125.451 180.023 125.451H187.037C188.43 125.451 189.649 126.383 190.01 127.724L196.416 151.541Z" fill="white"/>
<path d="M206.007 180.897C205.659 182.195 204.481 183.098 203.136 183.098H195.958C194.004 183.098 192.581 181.246 193.087 179.36L206.899 127.859C207.28 126.439 208.568 125.451 210.039 125.451H218.387C219.859 125.451 221.147 126.439 221.528 127.859L235.34 179.36C235.845 181.246 234.423 183.098 232.468 183.098H225.291C223.946 183.098 222.768 182.195 222.42 180.897L215.604 155.483C215.223 154.061 213.204 154.061 212.823 155.483L206.007 180.897Z" fill="white"/>
<path d="M211.692 175.536C211.178 175.536 210.804 175.074 210.937 174.604L213.458 165.689C213.665 164.958 214.76 164.958 214.967 165.689L217.488 174.604C217.621 175.074 217.247 175.536 216.733 175.536H211.692Z" fill="white"/>
<path d="M245.17 219.21C243.79 219.21 242.55 218.97 241.45 218.49C240.37 217.99 239.52 217.31 238.9 216.45C238.28 215.57 237.96 214.56 237.94 213.42H240.85C240.95 214.4 241.35 215.23 242.05 215.91C242.77 216.57 243.81 216.9 245.17 216.9C246.47 216.9 247.49 216.58 248.23 215.94C248.99 215.28 249.37 214.44 249.37 213.42C249.37 212.62 249.15 211.97 248.71 211.47C248.27 210.97 247.72 210.59 247.06 210.33C246.4 210.07 245.51 209.79 244.39 209.49C243.01 209.13 241.9 208.77 241.06 208.41C240.24 208.05 239.53 207.49 238.93 206.73C238.35 205.95 238.06 204.91 238.06 203.61C238.06 202.47 238.35 201.46 238.93 200.58C239.51 199.7 240.32 199.02 241.36 198.54C242.42 198.06 243.63 197.82 244.99 197.82C246.95 197.82 248.55 198.31 249.79 199.29C251.05 200.27 251.76 201.57 251.92 203.19H248.92C248.82 202.39 248.4 201.69 247.66 201.09C246.92 200.47 245.94 200.16 244.72 200.16C243.58 200.16 242.65 200.46 241.93 201.06C241.21 201.64 240.85 202.46 240.85 203.52C240.85 204.28 241.06 204.9 241.48 205.38C241.92 205.86 242.45 206.23 243.07 206.49C243.71 206.73 244.6 207.01 245.74 207.33C247.12 207.71 248.23 208.09 249.07 208.47C249.91 208.83 250.63 209.4 251.23 210.18C251.83 210.94 252.13 211.98 252.13 213.3C252.13 214.32 251.86 215.28 251.32 216.18C250.78 217.08 249.98 217.81 248.92 218.37C247.86 218.93 246.61 219.21 245.17 219.21ZM271.148 210.15C271.148 210.67 271.118 211.22 271.058 211.8H257.918C258.018 213.42 258.568 214.69 259.568 215.61C260.588 216.51 261.818 216.96 263.258 216.96C264.438 216.96 265.418 216.69 266.198 216.15C266.998 215.59 267.558 214.85 267.878 213.93H270.818C270.378 215.51 269.498 216.8 268.178 217.8C266.858 218.78 265.218 219.27 263.258 219.27C261.698 219.27 260.298 218.92 259.058 218.22C257.838 217.52 256.878 216.53 256.178 215.25C255.478 213.95 255.128 212.45 255.128 210.75C255.128 209.05 255.468 207.56 256.148 206.28C256.828 205 257.778 204.02 258.998 203.34C260.238 202.64 261.658 202.29 263.258 202.29C264.818 202.29 266.198 202.63 267.398 203.31C268.598 203.99 269.518 204.93 270.158 206.13C270.818 207.31 271.148 208.65 271.148 210.15ZM268.328 209.58C268.328 208.54 268.098 207.65 267.638 206.91C267.178 206.15 266.548 205.58 265.748 205.2C264.968 204.8 264.098 204.6 263.138 204.6C261.758 204.6 260.578 205.04 259.598 205.92C258.638 206.8 258.088 208.02 257.948 209.58H268.328ZM277.481 205.23C277.961 204.29 278.641 203.56 279.521 203.04C280.421 202.52 281.511 202.26 282.791 202.26V205.08H282.071C279.011 205.08 277.481 206.74 277.481 210.06V219H274.751V202.56H277.481V205.23ZM292.063 216.48L297.163 202.56H300.073L293.623 219H290.443L283.993 202.56H286.933L292.063 216.48ZM317.759 210.15C317.759 210.67 317.729 211.22 317.669 211.8H304.529C304.629 213.42 305.179 214.69 306.179 215.61C307.199 216.51 308.429 216.96 309.869 216.96C311.049 216.96 312.029 216.69 312.809 216.15C313.609 215.59 314.169 214.85 314.489 213.93H317.429C316.989 215.51 316.109 216.8 314.789 217.8C313.469 218.78 311.829 219.27 309.869 219.27C308.309 219.27 306.909 218.92 305.669 218.22C304.449 217.52 303.489 216.53 302.789 215.25C302.089 213.95 301.739 212.45 301.739 210.75C301.739 209.05 302.079 207.56 302.759 206.28C303.439 205 304.389 204.02 305.609 203.34C306.849 202.64 308.269 202.29 309.869 202.29C311.429 202.29 312.809 202.63 314.009 203.31C315.209 203.99 316.129 204.93 316.769 206.13C317.429 207.31 317.759 208.65 317.759 210.15ZM314.939 209.58C314.939 208.54 314.709 207.65 314.249 206.91C313.789 206.15 313.159 205.58 312.359 205.2C311.579 204.8 310.709 204.6 309.749 204.6C308.369 204.6 307.189 205.04 306.209 205.92C305.249 206.8 304.699 208.02 304.559 209.58H314.939ZM324.093 205.23C324.573 204.29 325.253 203.56 326.133 203.04C327.033 202.52 328.123 202.26 329.403 202.26V205.08H328.683C325.623 205.08 324.093 206.74 324.093 210.06V219H321.363V202.56H324.093V205.23ZM347.182 219.21C345.802 219.21 344.562 218.97 343.462 218.49C342.382 217.99 341.532 217.31 340.912 216.45C340.292 215.57 339.972 214.56 339.952 213.42H342.862C342.962 214.4 343.362 215.23 344.062 215.91C344.782 216.57 345.822 216.9 347.182 216.9C348.482 216.9 349.502 216.58 350.242 215.94C351.002 215.28 351.382 214.44 351.382 213.42C351.382 212.62 351.162 211.97 350.722 211.47C350.282 210.97 349.732 210.59 349.072 210.33C348.412 210.07 347.522 209.79 346.402 209.49C345.022 209.13 343.912 208.77 343.072 208.41C342.252 208.05 341.542 207.49 340.942 206.73C340.362 205.95 340.072 204.91 340.072 203.61C340.072 202.47 340.362 201.46 340.942 200.58C341.522 199.7 342.332 199.02 343.372 198.54C344.432 198.06 345.642 197.82 347.002 197.82C348.962 197.82 350.562 198.31 351.802 199.29C353.062 200.27 353.772 201.57 353.932 203.19H350.932C350.832 202.39 350.412 201.69 349.672 201.09C348.932 200.47 347.952 200.16 346.732 200.16C345.592 200.16 344.662 200.46 343.942 201.06C343.222 201.64 342.862 202.46 342.862 203.52C342.862 204.28 343.072 204.9 343.492 205.38C343.932 205.86 344.462 206.23 345.082 206.49C345.722 206.73 346.612 207.01 347.752 207.33C349.132 207.71 350.242 208.09 351.082 208.47C351.922 208.83 352.642 209.4 353.242 210.18C353.842 210.94 354.142 211.98 354.142 213.3C354.142 214.32 353.872 215.28 353.332 216.18C352.792 217.08 351.992 217.81 350.932 218.37C349.872 218.93 348.622 219.21 347.182 219.21ZM359.57 199.89C359.05 199.89 358.61 199.71 358.25 199.35C357.89 198.99 357.71 198.55 357.71 198.03C357.71 197.51 357.89 197.07 358.25 196.71C358.61 196.35 359.05 196.17 359.57 196.17C360.07 196.17 360.49 196.35 360.83 196.71C361.19 197.07 361.37 197.51 361.37 198.03C361.37 198.55 361.19 198.99 360.83 199.35C360.49 199.71 360.07 199.89 359.57 199.89ZM360.89 202.56V219H358.16V202.56H360.89ZM364.522 210.72C364.522 209.04 364.862 207.57 365.542 206.31C366.222 205.03 367.152 204.04 368.332 203.34C369.532 202.64 370.872 202.29 372.352 202.29C373.632 202.29 374.822 202.59 375.922 203.19C377.022 203.77 377.862 204.54 378.442 205.5V196.8H381.202V219H378.442V215.91C377.902 216.89 377.102 217.7 376.042 218.34C374.982 218.96 373.742 219.27 372.322 219.27C370.862 219.27 369.532 218.91 368.332 218.19C367.152 217.47 366.222 216.46 365.542 215.16C364.862 213.86 364.522 212.38 364.522 210.72ZM378.442 210.75C378.442 209.51 378.192 208.43 377.692 207.51C377.192 206.59 376.512 205.89 375.652 205.41C374.812 204.91 373.882 204.66 372.862 204.66C371.842 204.66 370.912 204.9 370.072 205.38C369.232 205.86 368.562 206.56 368.062 207.48C367.562 208.4 367.312 209.48 367.312 210.72C367.312 211.98 367.562 213.08 368.062 214.02C368.562 214.94 369.232 215.65 370.072 216.15C370.912 216.63 371.842 216.87 372.862 216.87C373.882 216.87 374.812 216.63 375.652 216.15C376.512 215.65 377.192 214.94 377.692 214.02C378.192 213.08 378.442 211.99 378.442 210.75ZM400.816 210.15C400.816 210.67 400.786 211.22 400.726 211.8H387.586C387.686 213.42 388.236 214.69 389.236 215.61C390.256 216.51 391.486 216.96 392.926 216.96C394.106 216.96 395.086 216.69 395.866 216.15C396.666 215.59 397.226 214.85 397.546 213.93H400.486C400.046 215.51 399.166 216.8 397.846 217.8C396.526 218.78 394.886 219.27 392.926 219.27C391.366 219.27 389.966 218.92 388.726 218.22C387.506 217.52 386.546 216.53 385.846 215.25C385.146 213.95 384.796 212.45 384.796 210.75C384.796 209.05 385.136 207.56 385.816 206.28C386.496 205 387.446 204.02 388.666 203.34C389.906 202.64 391.326 202.29 392.926 202.29C394.486 202.29 395.866 202.63 397.066 203.31C398.266 203.99 399.186 204.93 399.826 206.13C400.486 207.31 400.816 208.65 400.816 210.15ZM397.996 209.58C397.996 208.54 397.766 207.65 397.306 206.91C396.846 206.15 396.216 205.58 395.416 205.2C394.636 204.8 393.766 204.6 392.806 204.6C391.426 204.6 390.246 205.04 389.266 205.92C388.306 206.8 387.756 208.02 387.616 209.58H397.996ZM429.697 198.09L421.807 219H418.657L410.767 198.09H413.677L420.247 216.12L426.817 198.09H429.697ZM447.691 210.15C447.691 210.67 447.661 211.22 447.601 211.8H434.461C434.561 213.42 435.111 214.69 436.111 215.61C437.131 216.51 438.361 216.96 439.801 216.96C440.981 216.96 441.961 216.69 442.741 216.15C443.541 215.59 444.101 214.85 444.421 213.93H447.361C446.921 215.51 446.041 216.8 444.721 217.8C443.401 218.78 441.761 219.27 439.801 219.27C438.241 219.27 436.841 218.92 435.601 218.22C434.381 217.52 433.421 216.53 432.721 215.25C432.021 213.95 431.671 212.45 431.671 210.75C431.671 209.05 432.011 207.56 432.691 206.28C433.371 205 434.321 204.02 435.541 203.34C436.781 202.64 438.201 202.29 439.801 202.29C441.361 202.29 442.741 202.63 443.941 203.31C445.141 203.99 446.061 204.93 446.701 206.13C447.361 207.31 447.691 208.65 447.691 210.15ZM444.871 209.58C444.871 208.54 444.641 207.65 444.181 206.91C443.721 206.15 443.091 205.58 442.291 205.2C441.511 204.8 440.641 204.6 439.681 204.6C438.301 204.6 437.121 205.04 436.141 205.92C435.181 206.8 434.631 208.02 434.491 209.58H444.871ZM454.024 205.23C454.504 204.29 455.184 203.56 456.064 203.04C456.964 202.52 458.054 202.26 459.334 202.26V205.08H458.614C455.554 205.08 454.024 206.74 454.024 210.06V219H451.294V202.56H454.024V205.23ZM463.896 199.89C463.376 199.89 462.936 199.71 462.576 199.35C462.216 198.99 462.036 198.55 462.036 198.03C462.036 197.51 462.216 197.07 462.576 196.71C462.936 196.35 463.376 196.17 463.896 196.17C464.396 196.17 464.816 196.35 465.156 196.71C465.516 197.07 465.696 197.51 465.696 198.03C465.696 198.55 465.516 198.99 465.156 199.35C464.816 199.71 464.396 199.89 463.896 199.89ZM465.216 202.56V219H462.486V202.56H465.216ZM476.559 204.81H473.109V219H470.379V204.81H468.249V202.56H470.379V201.39C470.379 199.55 470.849 198.21 471.789 197.37C472.749 196.51 474.279 196.08 476.379 196.08V198.36C475.179 198.36 474.329 198.6 473.829 199.08C473.349 199.54 473.109 200.31 473.109 201.39V202.56H476.559V204.81ZM481.152 199.89C480.632 199.89 480.192 199.71 479.832 199.35C479.472 198.99 479.292 198.55 479.292 198.03C479.292 197.51 479.472 197.07 479.832 196.71C480.192 196.35 480.632 196.17 481.152 196.17C481.652 196.17 482.072 196.35 482.412 196.71C482.772 197.07 482.952 197.51 482.952 198.03C482.952 198.55 482.772 198.99 482.412 199.35C482.072 199.71 481.652 199.89 481.152 199.89ZM482.472 202.56V219H479.742V202.56H482.472ZM486.104 210.75C486.104 209.05 486.444 207.57 487.124 206.31C487.804 205.03 488.744 204.04 489.944 203.34C491.164 202.64 492.554 202.29 494.114 202.29C496.134 202.29 497.794 202.78 499.094 203.76C500.414 204.74 501.284 206.1 501.704 207.84H498.764C498.484 206.84 497.934 206.05 497.114 205.47C496.314 204.89 495.314 204.6 494.114 204.6C492.554 204.6 491.294 205.14 490.334 206.22C489.374 207.28 488.894 208.79 488.894 210.75C488.894 212.73 489.374 214.26 490.334 215.34C491.294 216.42 492.554 216.96 494.114 216.96C495.314 216.96 496.314 216.68 497.114 216.12C497.914 215.56 498.464 214.76 498.764 213.72H501.704C501.264 215.4 500.384 216.75 499.064 217.77C497.744 218.77 496.094 219.27 494.114 219.27C492.554 219.27 491.164 218.92 489.944 218.22C488.744 217.52 487.804 216.53 487.124 215.25C486.444 213.97 486.104 212.47 486.104 210.75ZM504.327 210.72C504.327 209.04 504.667 207.57 505.347 206.31C506.027 205.03 506.957 204.04 508.137 203.34C509.337 202.64 510.667 202.29 512.127 202.29C513.567 202.29 514.817 202.6 515.877 203.22C516.937 203.84 517.727 204.62 518.247 205.56V202.56H521.007V219H518.247V215.94C517.707 216.9 516.897 217.7 515.817 218.34C514.757 218.96 513.517 219.27 512.097 219.27C510.637 219.27 509.317 218.91 508.137 218.19C506.957 217.47 506.027 216.46 505.347 215.16C504.667 213.86 504.327 212.38 504.327 210.72ZM518.247 210.75C518.247 209.51 517.997 208.43 517.497 207.51C516.997 206.59 516.317 205.89 515.457 205.41C514.617 204.91 513.687 204.66 512.667 204.66C511.647 204.66 510.717 204.9 509.877 205.38C509.037 205.86 508.367 206.56 507.867 207.48C507.367 208.4 507.117 209.48 507.117 210.72C507.117 211.98 507.367 213.08 507.867 214.02C508.367 214.94 509.037 215.65 509.877 216.15C510.717 216.63 511.647 216.87 512.667 216.87C513.687 216.87 514.617 216.63 515.457 216.15C516.317 215.65 516.997 214.94 517.497 214.02C517.997 213.08 518.247 211.99 518.247 210.75ZM528.951 204.81V214.5C528.951 215.3 529.121 215.87 529.461 216.21C529.801 216.53 530.391 216.69 531.231 216.69H533.241V219H530.781C529.261 219 528.121 218.65 527.361 217.95C526.601 217.25 526.221 216.1 526.221 214.5V204.81H524.091V202.56H526.221V198.42H528.951V202.56H533.241V204.81H528.951ZM537.958 199.89C537.438 199.89 536.998 199.71 536.638 199.35C536.278 198.99 536.098 198.55 536.098 198.03C536.098 197.51 536.278 197.07 536.638 196.71C536.998 196.35 537.438 196.17 537.958 196.17C538.458 196.17 538.878 196.35 539.218 196.71C539.578 197.07 539.758 197.51 539.758 198.03C539.758 198.55 539.578 198.99 539.218 199.35C538.878 199.71 538.458 199.89 537.958 199.89ZM539.278 202.56V219H536.548V202.56H539.278ZM551.101 219.27C549.561 219.27 548.161 218.92 546.901 218.22C545.661 217.52 544.681 216.53 543.961 215.25C543.261 213.95 542.911 212.45 542.911 210.75C542.911 209.07 543.271 207.59 543.991 206.31C544.731 205.01 545.731 204.02 546.991 203.34C548.251 202.64 549.661 202.29 551.221 202.29C552.781 202.29 554.191 202.64 555.451 203.34C556.711 204.02 557.701 205 558.421 206.28C559.161 207.56 559.531 209.05 559.531 210.75C559.531 212.45 559.151 213.95 558.391 215.25C557.651 216.53 556.641 217.52 555.361 218.22C554.081 218.92 552.661 219.27 551.101 219.27ZM551.101 216.87C552.081 216.87 553.001 216.64 553.861 216.18C554.721 215.72 555.411 215.03 555.931 214.11C556.471 213.19 556.741 212.07 556.741 210.75C556.741 209.43 556.481 208.31 555.961 207.39C555.441 206.47 554.761 205.79 553.921 205.35C553.081 204.89 552.171 204.66 551.191 204.66C550.191 204.66 549.271 204.89 548.431 205.35C547.611 205.79 546.951 206.47 546.451 207.39C545.951 208.31 545.701 209.43 545.701 210.75C545.701 212.09 545.941 213.22 546.421 214.14C546.921 215.06 547.581 215.75 548.401 216.21C549.221 216.65 550.121 216.87 551.101 216.87ZM571.131 202.26C573.131 202.26 574.751 202.87 575.991 204.09C577.231 205.29 577.851 207.03 577.851 209.31V219H575.151V209.7C575.151 208.06 574.741 206.81 573.921 205.95C573.101 205.07 571.981 204.63 570.561 204.63C569.121 204.63 567.971 205.08 567.111 205.98C566.271 206.88 565.851 208.19 565.851 209.91V219H563.121V202.56H565.851V204.9C566.391 204.06 567.121 203.41 568.041 202.95C568.981 202.49 570.011 202.26 571.131 202.26Z" fill="white"/>
<defs>
<linearGradient id="paint0_linear_1169_242996" x1="0" y1="206.5" x2="756" y2="206.5" gradientUnits="userSpaceOnUse">
<stop offset="0.0885417" stop-color="#0364FF"/>
<stop offset="1"/>
</linearGradient>
<linearGradient id="paint1_linear_1169_242996" x1="7.14229e-06" y1="8.88324" x2="554.251" y2="554.821" gradientUnits="userSpaceOnUse">
<stop offset="0.0939661" stop-color="#B114FB"/>
<stop offset="0.393527" stop-color="#0016DE"/>
<stop offset="0.707657" stop-color="#0364FF"/>
<stop offset="0.996553" stop-color="#1AC7FE"/>
</linearGradient>
</defs>
</svg>
