<svg width="756" height="350" viewBox="0 0 756 350" fill="none" xmlns="http://www.w3.org/2000/svg">
<rect width="756" height="350" fill="white"/>
<rect width="756" height="350" fill="url(#paint0_linear_0_366)" fill-opacity="0.6"/>
<rect width="756" height="350" fill="url(#paint1_linear_0_366)"/>
<rect width="756" height="350" fill="white" fill-opacity="0.29"/>
<path fill-rule="evenodd" clip-rule="evenodd" d="M379.83 178.372C377.174 178.372 374.739 177.818 372.526 176.709C371.277 176.069 370.191 175.309 369.27 174.429C368.687 173.873 367.508 174.25 367.508 175.047V176.237C367.508 176.777 367.06 177.215 366.508 177.215H361.717C361.166 177.215 360.719 176.777 360.719 176.237V126.429C360.719 125.888 361.166 125.45 361.717 125.45H366.486C367.038 125.45 367.485 125.888 367.485 126.429V143.959C367.485 144.756 368.668 145.136 369.252 144.581C370.18 143.699 371.275 142.938 372.526 142.297C374.739 141.189 377.174 140.634 379.83 140.634C384.603 140.634 388.637 142.466 391.932 146.129C395.327 149.84 397.024 154.298 397.024 159.503C397.024 164.756 395.327 169.215 391.932 172.877C388.637 176.54 384.603 178.372 379.83 178.372ZM378.724 172.299C381.971 172.299 384.701 171.094 386.915 168.684C389.128 166.323 390.236 163.262 390.236 159.503C390.236 155.792 389.128 152.732 386.915 150.322C384.701 147.912 381.971 146.707 378.724 146.707C375.428 146.707 372.673 147.912 370.46 150.322C368.295 152.732 367.213 155.792 367.213 159.503C367.213 163.262 368.295 166.347 370.46 168.757C372.673 171.118 375.428 172.299 378.724 172.299ZM337.391 178.372C332.078 178.372 327.699 176.589 324.256 173.022C320.813 169.456 319.091 164.949 319.091 159.503C319.091 154.105 320.764 149.623 324.108 146.056C327.454 142.442 331.733 140.634 336.949 140.634C342.31 140.634 346.566 142.345 349.714 145.767C353.108 149.347 354.73 154.731 354.517 159.628C354.489 160.256 353.949 160.732 353.307 160.732H327.247C326.578 160.732 326.038 161.273 326.106 161.924C326.418 164.848 327.572 167.246 329.569 169.118C331.832 171.239 334.538 172.299 337.686 172.299C341.703 172.299 344.915 170.474 347.323 166.822C347.644 166.334 348.285 166.136 348.818 166.391L352.874 168.329C353.446 168.602 353.675 169.288 353.344 169.82C351.776 172.339 349.705 174.346 347.131 175.842C344.278 177.528 341.031 178.372 337.391 178.372ZM326.936 153.842C326.696 154.547 327.264 155.238 328.023 155.238H345.996C346.687 155.238 347.241 154.657 347.1 153.994C346.697 152.088 345.724 150.479 344.18 149.165C342.359 147.526 339.9 146.707 336.801 146.707C334.242 146.707 332.029 147.478 330.159 149.021C328.677 150.276 327.604 151.883 326.936 153.842ZM317.01 143.15C317.23 142.479 316.72 141.791 315.999 141.791H311.314C310.843 141.791 310.429 142.095 310.297 142.537L303.386 165.519C303.108 166.441 301.783 166.46 301.478 165.547L293.787 142.508C293.645 142.08 293.238 141.791 292.779 141.791H287.305C286.848 141.791 286.442 142.079 286.298 142.505L278.538 165.562C278.231 166.473 276.908 166.452 276.631 165.532L269.717 142.537C269.584 142.095 269.169 141.791 268.699 141.791H263.866C263.146 141.791 262.635 142.479 262.856 143.15L273.83 176.494C273.972 176.924 274.38 177.215 274.84 177.215H280.157C280.618 177.215 281.026 176.924 281.167 176.494L288.911 152.915C289.209 152.012 290.514 152.01 290.813 152.913L298.623 176.496C298.765 176.925 299.173 177.215 299.633 177.215H305.025C305.485 177.215 305.893 176.924 306.035 176.494L317.01 143.15ZM527.344 175.119C529.312 176.902 531.772 177.794 534.724 177.794C536.677 177.794 538.429 177.579 539.978 177.15C540.506 177.004 540.774 176.444 540.592 175.937L539.142 171.923C538.949 171.385 538.327 171.126 537.771 171.298C537.621 171.344 537.466 171.389 537.307 171.432C536.815 171.528 536.298 171.576 535.756 171.576C534.576 171.576 533.519 171.167 532.584 170.347C531.65 169.48 531.182 167.865 531.182 165.504V148.842C531.182 148.302 531.629 147.864 532.18 147.864H539.038C539.59 147.864 540.037 147.426 540.037 146.885V142.77C540.037 142.229 539.59 141.791 539.038 141.791H532.18C531.629 141.791 531.182 141.353 531.182 140.813V126.429C531.182 125.888 530.735 125.45 530.183 125.45H525.392C524.84 125.45 524.393 125.888 524.393 126.429V140.813C524.393 141.353 523.946 141.791 523.394 141.791H519.046C518.494 141.791 518.047 142.229 518.047 142.77V146.885C518.047 147.426 518.494 147.864 519.046 147.864H523.394C523.946 147.864 524.393 148.302 524.393 148.842V167.672C524.442 170.853 525.426 173.335 527.344 175.119ZM430.391 174.034C433.687 171.142 435.335 167.528 435.335 163.19C435.335 160.539 434.572 158.154 433.048 156.033C432.345 155.025 431.338 153.743 428.38 152.119C427.756 151.776 427.739 150.861 428.33 150.465C431.869 148.089 433.637 144.492 433.637 140.273C433.637 136.273 432.137 133.02 429.136 130.513C426.086 127.911 422.323 126.609 417.846 126.609C414.255 126.609 411.131 127.549 408.475 129.429C406.107 131.104 404.346 133.238 403.19 135.831C402.95 136.369 403.226 136.982 403.776 137.211L407.972 138.952C408.565 139.198 409.245 138.902 409.511 138.326C411.163 134.756 413.942 132.971 417.846 132.971C420.503 132.971 422.642 133.646 424.266 134.996C425.889 136.345 426.701 138.104 426.701 140.273C426.701 142.635 425.841 144.562 424.119 146.056C422.397 147.502 420.184 148.225 417.477 148.225H414.764C414.144 148.225 413.64 148.718 413.64 149.326V153.342C413.64 153.95 414.144 154.443 414.764 154.443H417.994C420.847 154.443 423.282 155.286 425.299 156.973C427.366 158.66 428.398 160.732 428.398 163.19C428.398 165.648 427.415 167.745 425.447 169.48C423.43 171.167 421.044 172.01 418.289 172.01C415.78 172.01 413.616 171.287 411.795 169.841C410.288 168.569 409.137 166.844 408.342 164.664C408.115 164.042 407.41 163.703 406.787 163.957L402.683 165.633C402.156 165.848 401.875 166.416 402.059 166.944C403.207 170.23 405.198 172.93 408.032 175.046C411.082 177.263 414.502 178.372 418.289 178.372C423.11 178.372 427.144 176.926 430.391 174.034ZM447.381 166.371C447.381 164.443 448.291 162.829 450.111 161.527C451.981 160.226 454.293 159.575 457.048 159.575C460.583 159.575 463.389 160.289 465.466 161.715C465.748 161.908 465.906 162.23 465.889 162.566C465.754 165.139 464.627 167.395 462.509 169.335C460.295 171.408 457.762 172.444 454.908 172.444C452.892 172.444 451.12 171.865 449.595 170.709C448.119 169.552 447.381 168.106 447.381 166.371ZM468.043 144.611C465.14 141.96 461.18 140.634 456.162 140.634C450.112 140.634 445.451 142.673 442.175 146.75C441.823 147.189 441.956 147.824 442.438 148.121L446.72 150.763C447.173 151.042 447.765 150.919 448.099 150.51C450.249 147.878 453.06 146.563 456.532 146.563C459.04 146.563 461.23 147.382 463.099 149.021C464.981 150.621 465.646 152.545 465.838 154.718C465.902 155.464 465.07 155.947 464.364 155.659C462.028 154.703 459.22 154.226 455.941 154.226C451.219 154.226 447.43 155.31 444.577 157.479C441.773 159.648 440.372 162.564 440.372 166.226C440.372 169.697 441.699 172.588 444.356 174.902C447.062 177.215 450.407 178.372 454.392 178.372C459.065 178.372 462.804 176.348 465.608 172.299V176.237C465.608 176.777 466.055 177.215 466.607 177.215H471.398C471.949 177.215 472.396 176.777 472.396 176.237V155.382C472.396 150.804 470.945 147.213 468.043 144.611ZM511.784 176.175C511.784 176.75 511.309 177.215 510.722 177.215H506.056C505.47 177.215 504.995 176.75 504.995 176.175V175.014C504.995 174.265 503.837 173.906 503.293 174.431C502.438 175.256 501.407 175.992 500.199 176.637C498.084 177.794 495.869 178.372 493.558 178.372C489.13 178.372 485.711 177.143 483.3 174.685C480.939 172.179 479.758 168.636 479.758 164.058V142.831C479.758 142.257 480.234 141.791 480.819 141.791H485.486C486.072 141.791 486.547 142.257 486.547 142.831V163.624C486.695 169.407 489.672 172.299 495.476 172.299C498.181 172.299 500.445 171.239 502.264 169.118C504.085 166.949 504.995 164.371 504.995 161.383V142.831C504.995 142.257 505.47 141.791 506.056 141.791H510.722C511.309 141.791 511.784 142.257 511.784 142.831V176.175ZM546.855 126.429C546.855 125.888 547.302 125.45 547.854 125.45H552.645C553.196 125.45 553.644 125.888 553.644 126.429V143.992C553.644 144.742 554.796 145.098 555.338 144.569C556.18 143.746 557.189 143.013 558.367 142.369C560.531 141.213 562.77 140.634 565.082 140.634C569.509 140.634 572.904 141.888 575.265 144.394C577.675 146.852 578.881 150.37 578.881 154.949V176.237C578.881 176.777 578.433 177.215 577.881 177.215H573.091C572.538 177.215 572.092 176.777 572.092 176.237V156.25C572.092 149.888 569.214 146.707 563.458 146.707C560.703 146.707 558.367 147.84 556.448 150.105C554.579 152.322 553.644 154.925 553.644 157.913V176.237C553.644 176.777 553.196 177.215 552.645 177.215H547.854C547.302 177.215 546.855 176.777 546.855 176.237V126.429Z" fill="#F3F3F4"/>
<path d="M236.173 171.6C236.568 173.069 238.661 173.069 239.056 171.6L250.432 129.31C250.955 127.362 249.482 125.45 247.459 125.45H240.445C239.052 125.45 237.832 126.382 237.472 127.723L231.057 151.571C230.968 151.902 230.968 152.25 231.057 152.581L236.173 171.6Z" fill="white"/>
<path d="M196.417 151.54C196.506 151.871 196.506 152.219 196.417 152.55L191.301 171.569C190.906 173.038 188.813 173.038 188.418 171.569L177.05 129.31C176.527 127.362 178 125.45 180.023 125.45H187.037C188.43 125.45 189.65 126.382 190.01 127.723L196.417 151.54Z" fill="white"/>
<path d="M206.006 180.896C205.658 182.194 204.48 183.097 203.135 183.097H195.957C194.003 183.097 192.58 181.245 193.086 179.359L206.898 127.858C207.279 126.438 208.567 125.45 210.038 125.45H218.386C219.858 125.45 221.146 126.438 221.527 127.858L235.339 179.359C235.844 181.245 234.422 183.097 232.467 183.097H225.29C223.945 183.097 222.767 182.194 222.419 180.896L215.603 155.482C215.222 154.06 213.203 154.06 212.822 155.482L206.006 180.896Z" fill="white"/>
<path d="M211.692 175.537C211.178 175.537 210.804 175.075 210.937 174.605L213.458 165.69C213.665 164.959 214.76 164.959 214.967 165.69L217.488 174.605C217.621 175.075 217.247 175.537 216.733 175.537H211.692Z" fill="white"/>
<path d="M327.696 208.53C327.696 206.49 328.156 204.66 329.076 203.04C329.996 201.4 331.246 200.12 332.826 199.2C334.426 198.28 336.196 197.82 338.136 197.82C340.416 197.82 342.406 198.37 344.106 199.47C345.806 200.57 347.046 202.13 347.826 204.15H344.556C343.976 202.89 343.136 201.92 342.036 201.24C340.956 200.56 339.656 200.22 338.136 200.22C336.676 200.22 335.366 200.56 334.206 201.24C333.046 201.92 332.136 202.89 331.476 204.15C330.816 205.39 330.486 206.85 330.486 208.53C330.486 210.19 330.816 211.65 331.476 212.91C332.136 214.15 333.046 215.11 334.206 215.79C335.366 216.47 336.676 216.81 338.136 216.81C339.656 216.81 340.956 216.48 342.036 215.82C343.136 215.14 343.976 214.17 344.556 212.91H347.826C347.046 214.91 345.806 216.46 344.106 217.56C342.406 218.64 340.416 219.18 338.136 219.18C336.196 219.18 334.426 218.73 332.826 217.83C331.246 216.91 329.996 215.64 329.076 214.02C328.156 212.4 327.696 210.57 327.696 208.53ZM359.06 219.27C357.52 219.27 356.12 218.92 354.86 218.22C353.62 217.52 352.64 216.53 351.92 215.25C351.22 213.95 350.87 212.45 350.87 210.75C350.87 209.07 351.23 207.59 351.95 206.31C352.69 205.01 353.69 204.02 354.95 203.34C356.21 202.64 357.62 202.29 359.18 202.29C360.74 202.29 362.15 202.64 363.41 203.34C364.67 204.02 365.66 205 366.38 206.28C367.12 207.56 367.49 209.05 367.49 210.75C367.49 212.45 367.11 213.95 366.35 215.25C365.61 216.53 364.6 217.52 363.32 218.22C362.04 218.92 360.62 219.27 359.06 219.27ZM359.06 216.87C360.04 216.87 360.96 216.64 361.82 216.18C362.68 215.72 363.37 215.03 363.89 214.11C364.43 213.19 364.7 212.07 364.7 210.75C364.7 209.43 364.44 208.31 363.92 207.39C363.4 206.47 362.72 205.79 361.88 205.35C361.04 204.89 360.13 204.66 359.15 204.66C358.15 204.66 357.23 204.89 356.39 205.35C355.57 205.79 354.91 206.47 354.41 207.39C353.91 208.31 353.66 209.43 353.66 210.75C353.66 212.09 353.9 213.22 354.38 214.14C354.88 215.06 355.54 215.75 356.36 216.21C357.18 216.65 358.08 216.87 359.06 216.87ZM373.81 205.23C374.29 204.29 374.97 203.56 375.85 203.04C376.75 202.52 377.84 202.26 379.12 202.26V205.08H378.4C375.34 205.08 373.81 206.74 373.81 210.06V219H371.08V202.56H373.81V205.23ZM397.271 210.15C397.271 210.67 397.241 211.22 397.181 211.8H384.041C384.141 213.42 384.691 214.69 385.691 215.61C386.711 216.51 387.941 216.96 389.381 216.96C390.561 216.96 391.541 216.69 392.321 216.15C393.121 215.59 393.681 214.85 394.001 213.93H396.941C396.501 215.51 395.621 216.8 394.301 217.8C392.981 218.78 391.341 219.27 389.381 219.27C387.821 219.27 386.421 218.92 385.181 218.22C383.961 217.52 383.001 216.53 382.301 215.25C381.601 213.95 381.251 212.45 381.251 210.75C381.251 209.05 381.591 207.56 382.271 206.28C382.951 205 383.901 204.02 385.121 203.34C386.361 202.64 387.781 202.29 389.381 202.29C390.941 202.29 392.321 202.63 393.521 203.31C394.721 203.99 395.641 204.93 396.281 206.13C396.941 207.31 397.271 208.65 397.271 210.15ZM394.451 209.58C394.451 208.54 394.221 207.65 393.761 206.91C393.301 206.15 392.671 205.58 391.871 205.2C391.091 204.8 390.221 204.6 389.261 204.6C387.881 204.6 386.701 205.04 385.721 205.92C384.761 206.8 384.211 208.02 384.071 209.58H394.451ZM420.213 219L411.603 209.46V219H408.873V198.09H411.603V207.78L420.243 198.09H423.693L414.213 208.56L423.783 219H420.213ZM428.241 199.89C427.721 199.89 427.281 199.71 426.921 199.35C426.561 198.99 426.381 198.55 426.381 198.03C426.381 197.51 426.561 197.07 426.921 196.71C427.281 196.35 427.721 196.17 428.241 196.17C428.741 196.17 429.161 196.35 429.501 196.71C429.861 197.07 430.041 197.51 430.041 198.03C430.041 198.55 429.861 198.99 429.501 199.35C429.161 199.71 428.741 199.89 428.241 199.89ZM429.561 202.56V219H426.831V202.56H429.561ZM437.544 204.81V214.5C437.544 215.3 437.714 215.87 438.054 216.21C438.394 216.53 438.984 216.69 439.824 216.69H441.834V219H439.374C437.854 219 436.714 218.65 435.954 217.95C435.194 217.25 434.814 216.1 434.814 214.5V204.81H432.684V202.56H434.814V198.42H437.544V202.56H441.834V204.81H437.544ZM456.47 204.81V214.5C456.47 215.3 456.64 215.87 456.98 216.21C457.32 216.53 457.91 216.69 458.75 216.69H460.76V219H458.3C456.78 219 455.64 218.65 454.88 217.95C454.12 217.25 453.74 216.1 453.74 214.5V204.81H451.61V202.56H453.74V198.42H456.47V202.56H460.76V204.81H456.47ZM475.408 219L466.798 209.46V219H464.068V198.09H466.798V207.78L475.438 198.09H478.888L469.408 208.56L478.978 219H475.408ZM497.027 210.15C497.027 210.67 496.997 211.22 496.937 211.8H483.797C483.897 213.42 484.447 214.69 485.447 215.61C486.467 216.51 487.697 216.96 489.137 216.96C490.317 216.96 491.297 216.69 492.077 216.15C492.877 215.59 493.437 214.85 493.757 213.93H496.697C496.257 215.51 495.377 216.8 494.057 217.8C492.737 218.78 491.097 219.27 489.137 219.27C487.577 219.27 486.177 218.92 484.937 218.22C483.717 217.52 482.757 216.53 482.057 215.25C481.357 213.95 481.007 212.45 481.007 210.75C481.007 209.05 481.347 207.56 482.027 206.28C482.707 205 483.657 204.02 484.877 203.34C486.117 202.64 487.537 202.29 489.137 202.29C490.697 202.29 492.077 202.63 493.277 203.31C494.477 203.99 495.397 204.93 496.037 206.13C496.697 207.31 497.027 208.65 497.027 210.15ZM494.207 209.58C494.207 208.54 493.977 207.65 493.517 206.91C493.057 206.15 492.427 205.58 491.627 205.2C490.847 204.8 489.977 204.6 489.017 204.6C487.637 204.6 486.457 205.04 485.477 205.92C484.517 206.8 483.967 208.02 483.827 209.58H494.207ZM514.79 202.56L504.89 226.74H502.07L505.31 218.82L498.68 202.56H501.71L506.87 215.88L511.97 202.56H514.79ZM532.163 219.21C530.783 219.21 529.543 218.97 528.443 218.49C527.363 217.99 526.513 217.31 525.893 216.45C525.273 215.57 524.953 214.56 524.933 213.42H527.843C527.943 214.4 528.343 215.23 529.043 215.91C529.763 216.57 530.803 216.9 532.163 216.9C533.463 216.9 534.483 216.58 535.223 215.94C535.983 215.28 536.363 214.44 536.363 213.42C536.363 212.62 536.143 211.97 535.703 211.47C535.263 210.97 534.713 210.59 534.053 210.33C533.393 210.07 532.503 209.79 531.383 209.49C530.003 209.13 528.893 208.77 528.053 208.41C527.233 208.05 526.523 207.49 525.923 206.73C525.343 205.95 525.053 204.91 525.053 203.61C525.053 202.47 525.343 201.46 525.923 200.58C526.503 199.7 527.313 199.02 528.353 198.54C529.413 198.06 530.623 197.82 531.983 197.82C533.943 197.82 535.543 198.31 536.783 199.29C538.043 200.27 538.753 201.57 538.913 203.19H535.913C535.813 202.39 535.393 201.69 534.653 201.09C533.913 200.47 532.933 200.16 531.713 200.16C530.573 200.16 529.643 200.46 528.923 201.06C528.203 201.64 527.843 202.46 527.843 203.52C527.843 204.28 528.053 204.9 528.473 205.38C528.913 205.86 529.443 206.23 530.063 206.49C530.703 206.73 531.593 207.01 532.733 207.33C534.113 207.71 535.223 208.09 536.063 208.47C536.903 208.83 537.623 209.4 538.223 210.18C538.823 210.94 539.123 211.98 539.123 213.3C539.123 214.32 538.853 215.28 538.313 216.18C537.773 217.08 536.973 217.81 535.913 218.37C534.853 218.93 533.603 219.21 532.163 219.21ZM549.65 198.09C551.93 198.09 553.9 198.52 555.56 199.38C557.24 200.22 558.52 201.43 559.4 203.01C560.3 204.59 560.75 206.45 560.75 208.59C560.75 210.73 560.3 212.59 559.4 214.17C558.52 215.73 557.24 216.93 555.56 217.77C553.9 218.59 551.93 219 549.65 219H543.14V198.09H549.65ZM549.65 216.75C552.35 216.75 554.41 216.04 555.83 214.62C557.25 213.18 557.96 211.17 557.96 208.59C557.96 205.99 557.24 203.96 555.8 202.5C554.38 201.04 552.33 200.31 549.65 200.31H545.87V216.75H549.65ZM575.691 219L567.081 209.46V219H564.351V198.09H567.081V207.78L575.721 198.09H579.171L569.691 208.56L579.261 219H575.691Z" fill="white"/>
<defs>
<linearGradient id="paint0_linear_0_366" x1="0" y1="206.5" x2="756" y2="206.5" gradientUnits="userSpaceOnUse">
<stop offset="0.0885417" stop-color="#0364FF"/>
<stop offset="1"/>
</linearGradient>
<linearGradient id="paint1_linear_0_366" x1="7.14229e-06" y1="8.88324" x2="554.251" y2="554.821" gradientUnits="userSpaceOnUse">
<stop offset="0.0939661" stop-color="#B114FB"/>
<stop offset="0.393527" stop-color="#0016DE"/>
<stop offset="0.707657" stop-color="#0364FF"/>
<stop offset="0.996553" stop-color="#1AC7FE"/>
</linearGradient>
</defs>
</svg>
