<svg width="497" height="104" viewBox="0 0 497 104" fill="none" xmlns="http://www.w3.org/2000/svg">
<path d="M241.152 30C242.34 30 243.303 30.9633 243.303 32.1516V71.5984C243.303 72.7867 242.34 73.75 241.152 73.75C239.963 73.75 239 72.7867 239 71.5984V32.1516C239 30.9633 239.963 30 241.152 30Z" fill="#BEBEBE"/>
<path fill-rule="evenodd" clip-rule="evenodd" d="M95.9731 62.4461C97.1501 59.1086 97.728 55.5879 97.6799 52.0477C97.7262 48.5191 97.1483 45.0102 95.9731 41.6843C94.9245 38.7229 93.2899 36.005 91.1677 33.6942C89.084 31.4703 86.5482 29.7222 83.7323 28.5687C80.6947 27.3409 77.4447 26.73 74.1704 26.7712C70.9007 26.7286 67.656 27.347 64.6295 28.5897C61.8245 29.7529 59.2956 31.497 57.208 33.7082C55.0845 36.0127 53.4496 38.7263 52.4026 41.6843C51.2274 45.0102 50.6496 48.5191 50.6959 52.0477C50.6478 55.5879 51.2256 59.1086 52.4026 62.4461C53.4496 65.4042 55.0845 68.1178 57.208 70.4223C59.2925 72.6336 61.8225 74.3737 64.6295 75.5267C70.7733 77.9231 77.5884 77.9231 83.7323 75.5267C86.5443 74.3757 89.0793 72.6354 91.1677 70.4223C93.2913 68.1178 94.9261 65.4042 95.9731 62.4461ZM92.5653 42.7448C93.5458 45.7457 94.0186 48.8902 93.9642 52.0479C94.0219 55.2104 93.549 58.3601 92.5653 61.3651C91.7046 63.9427 90.3262 66.3157 88.5153 68.3372C86.7717 70.2524 84.6197 71.7477 82.22 72.7114C77.0414 74.7061 71.3105 74.7061 66.132 72.7114C63.7354 71.7418 61.5847 70.2473 59.8367 68.3372C58.0171 66.3172 56.6293 63.9443 55.7587 61.3651C54.7572 58.3634 54.27 55.2131 54.3178 52.0479C54.2793 48.8989 54.7688 45.7659 55.7657 42.7799C56.6302 40.1832 58.0184 37.7931 59.8437 35.7586C61.5948 33.8487 63.7444 32.3503 66.139 31.3704C71.3124 29.348 77.0535 29.348 82.227 31.3704C84.6248 32.3443 86.7756 33.8436 88.5223 35.7586C90.3323 37.7848 91.7084 40.1627 92.5653 42.7448Z" fill="#0364FF"/>
<path fill-rule="evenodd" clip-rule="evenodd" d="M136.107 77.5536C136.491 77.5536 136.708 77.1144 136.474 76.8107L120.2 55.6751C119.791 55.1164 119.286 54.6403 118.709 54.2708C120.706 54.0507 122.661 53.5352 124.515 52.7402C126.14 52.037 127.63 51.0381 128.912 49.7912C130.113 48.601 131.061 47.1665 131.696 45.5784C132.36 43.9008 132.69 42.1031 132.669 40.2914C132.656 35.9335 131.245 32.6288 128.436 30.3773C125.627 28.1258 121.407 27 115.776 27H103.701C103.445 27 103.238 27.2067 103.238 27.4617V77.0919C103.238 77.3469 103.445 77.5536 103.701 77.5536H106.342C106.597 77.5536 106.805 77.3469 106.805 77.0919V55.1538C106.805 54.8988 107.012 54.6921 107.268 54.6921H113.23C113.642 54.6882 114.054 54.7141 114.462 54.7694C114.76 54.8012 115.051 54.8793 115.326 55.0011C115.578 55.1042 115.808 55.2542 116.007 55.4434C116.217 55.6597 116.409 55.8946 116.579 56.1455L132.302 76.6548C132.485 76.9517 132.741 77.1938 133.044 77.357C133.354 77.4981 133.692 77.5653 134.031 77.5536H136.107ZM121.099 51.1675C119.204 51.732 117.239 52.0041 115.266 51.975H107.269C107.013 51.975 106.806 51.7683 106.806 51.5133V30.3546C106.806 30.0996 107.013 29.8929 107.269 29.8929H115.784C120.135 29.8976 123.445 30.7682 125.714 32.5048C127.983 34.2414 129.117 36.9072 129.117 40.5021C129.142 42.1374 128.824 43.7588 128.185 45.2555C127.561 46.6603 126.629 47.8959 125.462 48.8645C124.17 49.9225 122.687 50.7053 121.099 51.1675Z" fill="#0364FF"/>
<path d="M160.875 74.3344C163.072 74.3749 165.253 73.9495 167.276 73.0857C169.096 72.2887 170.724 71.104 172.048 69.6129C173.382 68.085 174.399 66.303 175.04 64.3722C175.736 62.2768 176.079 60.0786 176.055 57.8688V27.6925C176.055 27.3101 176.366 27 176.75 27H178.93C179.313 27 179.624 27.3101 179.624 27.6925V57.8688C179.647 60.4979 179.209 63.1105 178.33 65.586C177.512 67.8968 176.244 70.0195 174.601 71.8299C172.95 73.6392 170.937 75.074 168.695 76.0392C163.674 78.0601 158.076 78.0601 153.056 76.0392C150.813 75.0759 148.799 73.6408 147.15 71.8299C145.505 70.0214 144.237 67.8981 143.421 65.586C142.542 63.1105 142.104 60.4979 142.127 57.8688V27.6925C142.127 27.3101 142.438 27 142.821 27H145.015C145.399 27 145.71 27.3101 145.71 27.6925V57.8267C145.689 60.0396 146.037 62.2403 146.739 64.3372C147.38 66.2648 148.392 68.0458 149.717 69.5778C151.029 71.0813 152.65 72.2784 154.468 73.0857C156.491 73.957 158.676 74.3827 160.875 74.3344Z" fill="#0364FF"/>
<path d="M212.84 33.5662C212.687 33.9287 212.335 34.1636 211.945 34.1629C211.497 34.0875 211.088 33.8596 210.785 33.517C210.183 33.0008 209.542 32.5314 208.869 32.113C207.919 31.5146 206.903 31.0293 205.842 30.6668C202.857 29.7359 199.661 29.7604 196.691 30.737C195.431 31.1974 194.278 31.9142 193.303 32.8431C192.402 33.708 191.692 34.7559 191.22 35.918C190.753 37.0816 190.517 38.3268 190.526 39.5825C190.467 41.0416 190.831 42.4863 191.574 43.7385C192.297 44.8592 193.243 45.8155 194.351 46.5467C195.578 47.349 196.895 47.9995 198.274 48.4842C199.732 49.0037 201.239 49.5232 202.78 50.0357C204.321 50.5482 205.828 51.1168 207.286 51.7276C208.694 52.3145 210.014 53.0966 211.209 54.0513C212.361 54.9901 213.307 56.1617 213.986 57.4912C214.734 59.0759 215.093 60.8192 215.034 62.5739C215.053 64.5713 214.702 66.5546 214 68.4218C213.321 70.2099 212.277 71.8339 210.938 73.1886C209.537 74.5807 207.869 75.6678 206.036 76.3828C203.917 77.1942 201.665 77.5897 199.399 77.5482C196.528 77.6255 193.677 77.0346 191.067 75.8212C188.945 74.7663 187.03 73.3329 185.414 71.5917C185.138 71.2938 185.106 70.8479 185.322 70.5043L185.923 69.5521C186.143 69.2314 186.502 69.0359 186.888 69.0255C187.193 69.0724 187.474 69.2206 187.686 69.4468L188.86 70.4717C189.318 70.8859 189.873 71.3282 190.519 71.8056C191.222 72.3205 191.973 72.7649 192.761 73.1324C194.863 74.113 197.154 74.6071 199.468 74.5786C201.237 74.6093 202.996 74.307 204.655 73.687C206.086 73.1397 207.392 72.3037 208.494 71.2299C209.542 70.201 210.359 68.9559 210.889 67.5794C211.451 66.1403 211.734 64.6054 211.723 63.0583C211.782 61.5472 211.416 60.0501 210.667 58.7409C209.954 57.6125 209.006 56.6543 207.89 55.9327C206.665 55.1421 205.35 54.5033 203.974 54.0303C202.509 53.5178 201.01 53.0193 199.461 52.5279C197.913 52.0365 196.42 51.4959 194.955 50.8852C193.543 50.3116 192.221 49.531 191.033 48.5685C189.87 47.612 188.923 46.4152 188.256 45.0584C187.498 43.4021 187.136 41.5888 187.2 39.7651C187.2 38.1232 187.516 36.4969 188.131 34.9773C188.753 33.4466 189.682 32.0628 190.859 30.9125C192.143 29.6893 193.653 28.735 195.303 28.1044C197.226 27.3513 199.274 26.9772 201.336 27.0022C203.667 26.9656 205.984 27.3802 208.161 28.2238C210.027 28.992 211.735 30.1032 213.197 31.4991C213.484 31.7723 213.545 32.2018 213.363 32.5533L212.84 33.5662Z" fill="#0364FF"/>
<path fill-rule="evenodd" clip-rule="evenodd" d="M4.75143 27C2.12729 27 0 29.119 0 31.7329V37.2463C0 39.8602 2.12729 41.9792 4.75143 41.9792H13.158V72.822C13.158 75.4359 15.2853 77.5549 17.9094 77.5549H23.4445C26.0686 77.5549 28.1959 75.4359 28.1959 72.822V37.2864C28.196 37.2731 28.1961 37.2597 28.1961 37.2463V31.7329C28.1961 29.119 26.0688 27 23.4446 27H17.9094H4.75143Z" fill="#0364FF"/>
<path d="M39.4751 41.9792C43.6277 41.9792 46.9941 38.626 46.9941 34.4896C46.9941 30.3532 43.6277 27 39.4751 27C35.3225 27 31.9562 30.3532 31.9562 34.4896C31.9562 38.626 35.3225 41.9792 39.4751 41.9792Z" fill="#B114FB"/>
<path d="M275.441 69C272.142 69 269.403 67.8543 267.224 65.5628C265.075 63.2095 264 60.3142 264 56.877C264 53.378 265.075 50.4827 267.224 48.1913C269.403 45.8998 272.142 44.7541 275.441 44.7541C277.711 44.7541 279.694 45.3424 281.389 46.5191C282.707 47.4101 283.769 48.5725 284.575 50.0065C284.964 50.7005 284.614 51.5543 283.887 51.8642L282.708 52.3666C281.98 52.677 281.155 52.319 280.735 51.6411C279.504 49.6509 277.648 48.6557 275.169 48.6557C273.262 48.6557 271.612 49.4454 270.22 51.0246C268.858 52.6038 268.177 54.5546 268.177 56.877C268.177 59.1995 268.858 61.1503 270.22 62.7295C271.612 64.3087 273.262 65.0984 275.169 65.0984C277.734 65.0984 279.66 64.0953 280.947 62.0892C281.374 61.4227 282.197 61.079 282.918 61.3937L284.056 61.8906C284.769 62.202 285.116 63.0396 284.737 63.7263C283.938 65.1764 282.852 66.3614 281.48 67.2814C279.755 68.4271 277.742 69 275.441 69Z" fill="black"/>
<path d="M308.515 66.81C308.515 67.6091 307.875 68.2568 307.086 68.2568H305.949C305.16 68.2568 304.52 67.6091 304.52 66.81V65.2149C304.52 65.1505 304.468 65.0984 304.404 65.0984C304.363 65.0984 304.325 65.1206 304.304 65.1564C303.668 66.2454 302.695 67.155 301.387 67.8852C300.085 68.6284 298.723 69 297.301 69C294.577 69 292.473 68.2104 290.99 66.6311C289.537 65.0209 288.81 62.745 288.81 59.8033V46.9441C288.81 46.145 289.45 45.4973 290.24 45.4973H291.558C292.347 45.4973 292.987 46.145 292.987 46.9441V59.5246C293.078 63.2404 294.909 65.0984 298.481 65.0984C300.146 65.0984 301.538 64.4171 302.658 63.0546C303.778 61.6612 304.338 60.0046 304.338 58.0847V46.9441C304.338 46.145 304.978 45.4973 305.767 45.4973H307.086C307.875 45.4973 308.515 46.145 308.515 46.9441V66.81Z" fill="black"/>
<path d="M330.404 61.9399C330.404 63.9217 329.556 65.5938 327.861 66.9563C326.166 68.3188 324.032 69 321.46 69C319.22 69 317.252 68.4117 315.557 67.235C314.243 66.2983 313.219 65.138 312.487 63.7541C312.127 63.0729 312.477 62.2565 313.178 61.9504L314.305 61.4579C315.042 61.1363 315.882 61.5021 316.307 62.1908C316.772 62.944 317.339 63.5726 318.009 64.0765C319.068 64.8197 320.219 65.1913 321.46 65.1913C322.791 65.1913 323.896 64.8971 324.774 64.3087C325.682 63.7204 326.136 63.0237 326.136 62.2186C326.136 60.7632 325.046 59.6949 322.867 59.0137L319.053 58.0382C314.725 56.9235 312.561 54.7869 312.561 51.6284C312.561 49.5537 313.378 47.8971 315.012 46.6585C316.677 45.3889 318.796 44.7541 321.369 44.7541C323.336 44.7541 325.107 45.2341 326.681 46.194C327.84 46.8878 328.747 47.7514 329.4 48.7849C329.821 49.45 329.464 50.2939 328.744 50.5991L327.606 51.0821C326.889 51.3859 326.081 51.031 325.564 50.4455C325.199 50.033 324.754 49.6841 324.229 49.3989C323.291 48.8415 322.231 48.5628 321.051 48.5628C319.961 48.5628 318.978 48.8415 318.1 49.3989C317.252 49.9563 316.829 50.6375 316.829 51.4426C316.829 52.7432 318.024 53.6721 320.415 54.2295L323.775 55.112C328.194 56.2268 330.404 58.5027 330.404 61.9399Z" fill="black"/>
<path d="M342.626 68.6284C340.81 68.6284 339.296 68.0556 338.086 66.9098C336.905 65.7641 336.3 64.1694 336.269 62.1257V50.1223C336.269 49.7228 335.95 49.3989 335.555 49.3989H333.794C333.005 49.3989 332.365 48.7511 332.365 47.9521V46.9441C332.365 46.145 333.005 45.4973 333.794 45.4973H335.555C335.95 45.4973 336.269 45.1734 336.269 44.7739V39.9769C336.269 39.1778 336.909 38.5301 337.699 38.5301H339.017C339.807 38.5301 340.446 39.1778 340.446 39.9769V44.7739C340.446 45.1734 340.766 45.4973 341.161 45.4973H344.465C345.255 45.4973 345.895 46.145 345.895 46.9441V47.9521C345.895 48.7511 345.255 49.3989 344.465 49.3989H341.161C340.766 49.3989 340.446 49.7228 340.446 50.1223V60.7322C340.446 62.2495 340.734 63.2869 341.309 63.8443C341.884 64.3707 342.535 64.6339 343.261 64.6339C343.594 64.6339 343.912 64.6029 344.215 64.541C344.715 64.4015 345.27 64.6415 345.441 65.1369L345.974 66.6771C346.232 67.4242 345.849 68.2508 345.081 68.4038C344.33 68.5536 343.512 68.6284 342.626 68.6284Z" fill="black"/>
<path d="M348.375 56.877C348.375 53.378 349.45 50.4827 351.599 48.1913C353.778 45.8998 356.517 44.7541 359.817 44.7541C363.116 44.7541 365.84 45.8998 367.989 48.1913C370.168 50.4827 371.258 53.378 371.258 56.877C371.258 60.4071 370.168 63.3024 367.989 65.5628C365.84 67.8543 363.116 69 359.817 69C356.517 69 353.778 67.8543 351.599 65.5628C349.45 63.2714 348.375 60.3761 348.375 56.877ZM352.552 56.877C352.552 59.3233 353.248 61.3051 354.641 62.8224C356.033 64.3397 357.758 65.0984 359.817 65.0984C361.875 65.0984 363.6 64.3397 364.992 62.8224C366.385 61.3051 367.081 59.3233 367.081 56.877C367.081 54.4617 366.385 52.4954 364.992 50.9781C363.57 49.4299 361.844 48.6557 359.817 48.6557C357.789 48.6557 356.063 49.4299 354.641 50.9781C353.248 52.4954 352.552 54.4617 352.552 56.877Z" fill="black"/>
<path d="M378.786 66.81C378.786 67.6091 378.146 68.2568 377.356 68.2568H376.038C375.249 68.2568 374.609 67.6091 374.609 66.81V46.9441C374.609 46.145 375.249 45.4973 376.038 45.4973H377.175C377.964 45.4973 378.604 46.145 378.604 46.9441V48.5392C378.604 48.6036 378.656 48.6557 378.719 48.6557C378.76 48.6557 378.798 48.6335 378.819 48.5976C379.455 47.5087 380.413 46.5991 381.691 45.8689C383.023 45.1257 384.34 44.7541 385.641 44.7541C387.276 44.7541 388.714 45.1412 389.955 45.9153C390.805 46.4459 391.499 47.1147 392.037 47.9216C392.358 48.4029 393.106 48.4638 393.47 48.015C395.233 45.8411 397.527 44.7541 400.352 44.7541C402.924 44.7541 404.907 45.5592 406.299 47.1694C407.692 48.7796 408.388 51.071 408.388 54.0437V66.81C408.388 67.6091 407.748 68.2568 406.958 68.2568H405.64C404.851 68.2568 404.211 67.6091 404.211 66.81V54.694C404.211 52.5574 403.833 51.0246 403.076 50.0956C402.319 49.1357 401.048 48.6557 399.262 48.6557C397.658 48.6557 396.311 49.3525 395.221 50.7459C394.132 52.1393 393.587 53.7805 393.587 55.6694V66.81C393.587 67.6091 392.947 68.2568 392.157 68.2568H390.839C390.05 68.2568 389.41 67.6091 389.41 66.81V54.694C389.41 52.5574 389.031 51.0246 388.275 50.0956C387.518 49.1357 386.247 48.6557 384.461 48.6557C382.857 48.6557 381.51 49.3525 380.42 50.7459C379.331 52.1393 378.786 53.7805 378.786 55.6694V66.81Z" fill="black"/>
<path d="M416.092 61.2896C416.092 62.4044 416.546 63.3333 417.454 64.0765C418.392 64.8197 419.482 65.1913 420.723 65.1913C422.478 65.1913 424.037 64.5255 425.399 63.194C426.609 62.0371 427.293 60.7049 427.452 59.1973C427.498 58.7601 427.295 58.334 426.927 58.1015C425.681 57.3162 424.052 56.9235 422.039 56.9235C420.344 56.9235 418.922 57.3415 417.772 58.1776C416.652 59.0137 416.092 60.051 416.092 61.2896ZM421.495 44.7541C424.582 44.7541 427.018 45.6056 428.804 47.3087C430.59 48.9809 431.483 51.2878 431.483 54.2295V66.81C431.483 67.6091 430.843 68.2568 430.054 68.2568H428.917C428.128 68.2568 427.488 67.6091 427.488 66.81V65.2183C427.488 65.152 427.435 65.0984 427.369 65.0984C427.33 65.0984 427.293 65.1186 427.27 65.1516C425.549 67.7172 423.261 69 420.405 69C417.953 69 415.895 68.2568 414.23 66.7705C412.596 65.2842 411.779 63.4262 411.779 61.1967C411.779 58.8434 412.641 56.9699 414.366 55.5765C416.122 54.1831 418.453 53.4863 421.358 53.4863C423.416 53.4863 425.172 53.8055 426.626 54.444C427.02 54.6169 427.488 54.3389 427.488 53.9044C427.488 52.418 426.913 51.1639 425.762 50.1421C424.612 49.0893 423.265 48.5628 421.722 48.5628C419.855 48.5628 418.3 49.2081 417.054 50.4986C416.516 51.0567 415.667 51.2498 415.017 50.831L413.757 50.0196C413.073 49.5792 412.88 48.6427 413.427 48.0371C415.403 45.8484 418.092 44.7541 421.495 44.7541Z" fill="black"/>
<path d="M455.717 66.81C455.717 67.6091 455.077 68.2568 454.288 68.2568H453.151C452.362 68.2568 451.722 67.6091 451.722 66.81V65.2149C451.722 65.1505 451.67 65.0984 451.607 65.0984C451.565 65.0984 451.528 65.1206 451.507 65.1564C450.87 66.2454 449.898 67.155 448.589 67.8852C447.287 68.6284 445.925 69 444.503 69C441.779 69 439.675 68.2104 438.192 66.6311C436.739 65.0209 436.013 62.745 436.013 59.8033V46.9441C436.013 46.145 436.653 45.4973 437.442 45.4973H438.76C439.55 45.4973 440.19 46.145 440.19 46.9441V59.5246C440.28 63.2404 442.112 65.0984 445.683 65.0984C447.348 65.0984 448.74 64.4171 449.86 63.0546C450.98 61.6612 451.54 60.0046 451.54 58.0847V46.9441C451.54 46.145 452.18 45.4973 452.97 45.4973H454.288C455.077 45.4973 455.717 46.145 455.717 46.9441V66.81Z" fill="black"/>
<path d="M469.831 68.6284C468.015 68.6284 466.502 68.0556 465.291 66.9098C464.111 65.7641 463.505 64.1694 463.475 62.1257V50.1223C463.475 49.7228 463.155 49.3989 462.76 49.3989H461C460.211 49.3989 459.571 48.7511 459.571 47.9521V46.9441C459.571 46.145 460.211 45.4973 461 45.4973H462.76C463.155 45.4973 463.475 45.1734 463.475 44.7739V39.9769C463.475 39.1778 464.115 38.5301 464.905 38.5301H466.223C467.012 38.5301 467.652 39.1778 467.652 39.9769V44.7739C467.652 45.1734 467.972 45.4973 468.367 45.4973H471.671C472.46 45.4973 473.1 46.145 473.1 46.9441V47.9521C473.1 48.7511 472.46 49.3989 471.671 49.3989H468.367C467.972 49.3989 467.652 49.7228 467.652 50.1223V60.7322C467.652 62.2495 467.94 63.2869 468.515 63.8443C469.09 64.3707 469.741 64.6339 470.467 64.6339C470.8 64.6339 471.118 64.6029 471.421 64.541C471.92 64.4015 472.476 64.6415 472.647 65.1369L473.179 66.6771C473.438 67.4242 473.054 68.2508 472.287 68.4038C471.536 68.5535 470.718 68.6284 469.831 68.6284Z" fill="black"/>
<path d="M477.296 36.4468C477.296 35.6478 477.936 35 478.725 35H480.043C480.833 35 481.473 35.6478 481.473 36.4468V45.4973L481.298 48.5369C481.294 48.6014 481.345 48.6557 481.408 48.6557C481.448 48.6557 481.485 48.6343 481.505 48.5998C482.141 47.5098 483.099 46.5995 484.378 45.8689C485.71 45.1257 487.087 44.7541 488.51 44.7541C491.234 44.7541 493.322 45.5592 494.775 47.1694C496.258 48.7486 497 51.0091 497 53.9508V66.81C497 67.6091 496.36 68.2568 495.571 68.2568H494.252C493.463 68.2568 492.823 67.6091 492.823 66.81V54.7869C492.823 50.6995 491.052 48.6557 487.511 48.6557C485.816 48.6557 484.378 49.3834 483.198 50.8388C482.048 52.2632 481.473 53.9353 481.473 55.8552V66.81C481.473 67.6091 480.833 68.2568 480.043 68.2568H478.725C477.936 68.2568 477.296 67.6091 477.296 66.81V36.4468Z" fill="black"/>
</svg>
