<svg width="405" height="107" viewBox="0 0 405 107" fill="none" xmlns="http://www.w3.org/2000/svg">
<path fill-rule="evenodd" clip-rule="evenodd" d="M204.335 62.5263C201.672 62.5263 199.231 61.9706 197.012 60.8594C195.76 60.2181 194.672 59.4562 193.748 58.5736C193.164 58.0159 191.982 58.3944 191.982 59.1933V60.3857C191.982 60.9275 191.533 61.3667 190.98 61.3667H186.177C185.624 61.3667 185.176 60.9275 185.176 60.3857V10.4547C185.176 9.91285 185.624 9.47363 186.177 9.47363H190.958C191.511 9.47363 191.959 9.91285 191.959 10.4547V28.0285C191.959 28.8273 193.145 29.2081 193.73 28.652C194.661 27.7678 195.758 27.0046 197.012 26.3624C199.231 25.2511 201.672 24.6955 204.335 24.6955C209.119 24.6955 213.163 26.5315 216.467 30.2034C219.87 33.9237 221.571 38.3928 221.571 43.6109C221.571 48.8772 219.87 53.3464 216.467 57.0183C213.163 60.6903 209.119 62.5263 204.335 62.5263ZM203.226 56.4386C206.481 56.4386 209.218 55.2307 211.437 52.8149C213.656 50.4475 214.766 47.3795 214.766 43.6109C214.766 39.8906 213.656 36.8226 211.437 34.4068C209.218 31.9911 206.481 30.7832 203.226 30.7832C199.922 30.7832 197.16 31.9911 194.941 34.4068C192.771 36.8226 191.686 39.8906 191.686 43.6109C191.686 47.3795 192.771 50.4716 194.941 52.8874C197.16 55.2548 199.922 56.4386 203.226 56.4386ZM161.791 62.5262C156.464 62.5262 152.075 60.7386 148.623 57.1633C145.171 53.5879 143.445 49.0705 143.445 43.6109C143.445 38.1996 145.122 33.7062 148.475 30.1309C151.829 26.5073 156.119 24.6955 161.347 24.6955C166.722 24.6955 170.988 26.4107 174.144 29.841C177.546 33.4297 179.172 38.8271 178.959 43.7363C178.931 44.3657 178.389 44.8429 177.746 44.8429H151.621C150.951 44.8429 150.409 45.3856 150.478 46.0382C150.79 48.9692 151.947 51.373 153.949 53.2497C156.218 55.3756 158.93 56.4385 162.086 56.4385C166.113 56.4385 169.333 54.6084 171.747 50.948C172.069 50.4586 172.711 50.2599 173.246 50.5153L177.312 52.4586C177.885 52.7325 178.115 53.4197 177.783 53.9531C176.211 56.4781 174.135 58.4903 171.555 59.9897C168.695 61.6807 165.44 62.5262 161.791 62.5262ZM151.31 37.9355C151.069 38.6425 151.638 39.335 152.399 39.335H170.417C171.11 39.335 171.665 38.7531 171.524 38.088C171.12 36.1777 170.144 34.5642 168.596 33.2473C166.771 31.6045 164.306 30.7832 161.199 30.7832C158.634 30.7832 156.415 31.5562 154.541 33.1023C153.055 34.3611 151.979 35.9721 151.31 37.9355ZM141.359 27.2173C141.58 26.5442 141.068 25.855 140.346 25.855H135.649C135.177 25.855 134.762 26.1594 134.629 26.6028L127.701 49.6416C127.423 50.5656 126.094 50.5848 125.789 49.6693L118.079 26.5734C117.936 26.1449 117.528 25.855 117.068 25.855H111.581C111.122 25.855 110.715 26.1437 110.571 26.571L102.792 49.6845C102.484 50.5982 101.158 50.5774 100.88 49.6545L93.9487 26.6028C93.8154 26.1594 93.3999 25.855 92.9281 25.855H88.0833C87.3615 25.855 86.8492 26.5442 87.0707 27.2173L98.0724 60.6442C98.2142 61.0748 98.6232 61.3667 99.085 61.3667H104.415C104.877 61.3667 105.286 61.0745 105.427 60.6437L113.191 37.0069C113.489 36.1007 114.797 36.0992 115.097 37.0046L122.927 60.646C123.069 61.0757 123.478 61.3667 123.939 61.3667H129.344C129.806 61.3667 130.215 61.0748 130.357 60.6442L141.359 27.2173ZM352.214 59.265C354.187 61.0527 356.653 61.9465 359.612 61.9465C361.57 61.9465 363.326 61.7316 364.879 61.3018C365.408 61.1552 365.677 60.594 365.494 60.0855L364.041 56.0618C363.847 55.5225 363.224 55.262 362.667 55.4346C362.516 55.4814 362.361 55.5262 362.201 55.5689C361.708 55.6655 361.19 55.7138 360.647 55.7138C359.464 55.7138 358.404 55.3031 357.467 54.4818C356.53 53.6121 356.061 51.9936 356.061 49.6261V32.9238C356.061 32.382 356.509 31.9428 357.062 31.9428H363.937C364.49 31.9428 364.938 31.5035 364.938 30.9617V26.8361C364.938 26.2943 364.49 25.855 363.937 25.855H357.062C356.509 25.855 356.061 25.4158 356.061 24.874V10.4547C356.061 9.91285 355.613 9.47363 355.06 9.47363H350.257C349.704 9.47363 349.255 9.91285 349.255 10.4547V24.874C349.255 25.4158 348.807 25.855 348.254 25.855H343.895C343.342 25.855 342.894 26.2943 342.894 26.8361V30.9617C342.894 31.5035 343.342 31.9428 343.895 31.9428H348.254C348.807 31.9428 349.255 32.382 349.255 32.9238V51.8003C349.305 54.9891 350.291 57.4773 352.214 59.265ZM255.021 58.1779C258.325 55.279 259.977 51.6553 259.977 47.307C259.977 44.6496 259.212 42.258 257.684 40.1322C256.98 39.1214 255.97 37.8366 253.005 36.2083C252.379 35.8643 252.362 34.9478 252.955 34.5501C256.502 32.1685 258.275 28.5624 258.275 24.3331C258.275 20.323 256.771 17.0617 253.763 14.5493C250.705 11.9403 246.933 10.6358 242.445 10.6358C238.845 10.6358 235.713 11.5779 233.05 13.4622C230.677 15.1412 228.911 17.2806 227.752 19.8803C227.512 20.419 227.788 21.0344 228.34 21.2636L232.546 23.0085C233.141 23.2556 233.822 22.9586 234.089 22.3816C235.745 18.8028 238.531 17.0134 242.445 17.0134C245.108 17.0134 247.253 17.6898 248.881 19.0426C250.508 20.3954 251.322 22.1589 251.322 24.3331C251.322 26.7006 250.459 28.6332 248.733 30.1309C247.007 31.5804 244.788 32.3051 242.075 32.3051H239.355C238.733 32.3051 238.228 32.7992 238.228 33.4088V37.4341C238.228 38.0437 238.733 38.5378 239.355 38.5378H242.593C245.453 38.5378 247.894 39.3833 249.916 41.0743C251.988 42.7654 253.023 44.8429 253.023 47.307C253.023 49.7711 252.037 51.8728 250.064 53.6121C248.042 55.3031 245.651 56.1487 242.889 56.1487C240.374 56.1487 238.204 55.4239 236.379 53.9745C234.868 52.6996 233.714 50.9696 232.917 48.7845C232.69 48.1607 231.982 47.8214 231.358 48.0762L227.244 49.7557C226.716 49.9711 226.434 50.5408 226.618 51.0706C227.769 54.364 229.765 57.0713 232.606 59.1925C235.664 61.415 239.092 62.5263 242.889 62.5263C247.722 62.5263 251.766 61.0768 255.021 58.1779ZM272.053 50.4958C272.053 48.5632 272.965 46.9446 274.79 45.6401C276.664 44.3356 278.982 43.6833 281.744 43.6833C285.287 43.6833 288.1 44.3984 290.183 45.8284C290.465 46.0221 290.624 46.3445 290.607 46.6816C290.471 49.2608 289.341 51.5227 287.218 53.4672C284.999 55.5447 282.459 56.5835 279.598 56.5835C277.577 56.5835 275.801 56.0037 274.272 54.8442C272.793 53.6846 272.053 52.2351 272.053 50.4958ZM292.766 28.6815C289.856 26.0242 285.886 24.6955 280.856 24.6955C274.791 24.6955 270.118 26.7391 266.834 30.8264C266.481 31.2665 266.614 31.9025 267.098 32.201L271.39 34.8486C271.844 35.1284 272.438 35.0053 272.773 34.5952C274.928 31.9572 277.746 30.6382 281.226 30.6382C283.741 30.6382 285.936 31.4596 287.81 33.1023C289.696 34.7069 290.363 36.6354 290.555 38.8135C290.62 39.5622 289.786 40.0464 289.078 39.757C286.736 38.7992 283.921 38.3204 280.634 38.3204C275.9 38.3204 272.102 39.4075 269.242 41.5816C266.431 43.7558 265.026 46.6789 265.026 50.3508C265.026 53.8295 266.357 56.7284 269.02 59.0476C271.733 61.3667 275.086 62.5263 279.081 62.5263C283.766 62.5263 287.514 60.497 290.325 56.4386V60.3857C290.325 60.9275 290.773 61.3667 291.326 61.3667H296.129C296.682 61.3667 297.13 60.9275 297.13 60.3857V39.4799C297.13 34.89 295.675 31.2905 292.766 28.6815ZM336.615 60.3244C336.615 60.9 336.139 61.3667 335.551 61.3667H330.873C330.286 61.3667 329.809 60.9 329.809 60.3244V59.1601C329.809 58.4091 328.649 58.0489 328.103 58.5758C327.246 59.4031 326.212 60.1401 325.001 60.7869C322.881 61.9465 320.661 62.5263 318.344 62.5263C313.905 62.5263 310.478 61.2942 308.061 58.8302C305.694 56.3178 304.51 52.7666 304.51 48.1767V26.8974C304.51 26.3217 304.987 25.855 305.574 25.855H310.252C310.84 25.855 311.316 26.3217 311.316 26.8974V47.7418C311.464 53.5396 314.448 56.4386 320.267 56.4386C322.979 56.4386 325.248 55.3756 327.072 53.2497C328.897 51.0756 329.809 48.4907 329.809 45.4952V26.8974C329.809 26.3217 330.286 25.855 330.873 25.855H335.551C336.139 25.855 336.615 26.3217 336.615 26.8974V60.3244ZM371.773 10.4547C371.773 9.91285 372.221 9.47363 372.774 9.47363H377.577C378.13 9.47363 378.579 9.91285 378.579 10.4547V28.0617C378.579 28.8127 379.734 29.1698 380.277 28.6395C381.121 27.8148 382.133 27.08 383.313 26.4348C385.483 25.2753 387.727 24.6955 390.045 24.6955C394.483 24.6955 397.886 25.9517 400.253 28.4641C402.669 30.9281 403.878 34.4551 403.878 39.0451V60.3857C403.878 60.9275 403.429 61.3667 402.876 61.3667H398.074C397.52 61.3667 397.072 60.9275 397.072 60.3857V40.3496C397.072 33.972 394.187 30.7832 388.417 30.7832C385.655 30.7832 383.313 31.9186 381.39 34.1894C379.516 36.4119 378.579 39.0209 378.579 42.0165V60.3857C378.579 60.9275 378.13 61.3667 377.577 61.3667H372.774C372.221 61.3667 371.773 60.9275 371.773 60.3857V10.4547Z" fill="#F3F3F4"/>
<path d="M60.3218 55.7376C60.7179 57.2102 62.8156 57.2102 63.2117 55.7376L74.6156 13.3426C75.1407 11.3905 73.6641 9.47363 71.6353 9.47363H64.6042C63.2077 9.47363 61.9854 10.408 61.6239 11.7516L55.1931 35.6588C55.1039 35.9905 55.1039 36.3396 55.1931 36.6713L60.3218 55.7376Z" fill="white"/>
<path d="M20.4673 35.6278C20.5565 35.9595 20.5565 36.3086 20.4673 36.6403L15.3386 55.7066C14.9425 57.1792 12.8448 57.1792 12.4487 55.7066L1.05312 13.3426C0.528041 11.3905 2.00466 9.47363 4.03341 9.47363H11.0645C12.461 9.47363 13.6834 10.408 14.0448 11.7516L20.4673 35.6278Z" fill="white"/>
<path d="M30.0804 65.0565C29.7314 66.3581 28.5509 67.2631 27.2023 67.2631H20.007C18.0478 67.2631 16.6217 65.4063 17.1288 63.5155L30.9749 11.8871C31.3567 10.4635 32.6478 9.47363 34.1229 9.47363H42.4916C43.9666 9.47363 45.2578 10.4635 45.6396 11.8871L59.4856 63.5155C59.9927 65.4063 58.5667 67.2631 56.6074 67.2631H49.4122C48.0636 67.2631 46.8831 66.3581 46.534 65.0565L39.7014 39.5793C39.3192 38.1542 37.2953 38.1542 36.9131 39.5793L30.0804 65.0565Z" fill="white"/>
<path d="M35.7803 59.6842C35.2654 59.6842 34.8907 59.2214 35.0239 58.7501L37.5509 49.8131C37.7583 49.0798 38.8563 49.0798 39.0636 49.8131L41.5906 58.7501C41.7239 59.2214 41.3491 59.6842 40.8343 59.6842H35.7803Z" fill="white"/>
<path d="M184.417 104.049C186.008 104.049 187.305 103.475 188.311 102.327C189.363 101.179 189.89 99.6802 189.89 97.8297C189.89 96.0261 189.363 94.5387 188.311 93.3676C187.282 92.1964 185.984 91.6108 184.417 91.6108C182.874 91.6108 181.576 92.1964 180.524 93.3676C179.471 94.5387 178.945 96.0261 178.945 97.8297C178.945 99.6568 179.471 101.144 180.524 102.292C181.576 103.463 182.874 104.049 184.417 104.049ZM183.891 107C181.646 107 179.717 106.11 178.103 104.33C176.513 102.526 175.718 100.359 175.718 97.8297C175.718 95.3 176.513 93.1333 178.103 91.3297C179.717 89.5496 181.646 88.6595 183.891 88.6595C185.154 88.6595 186.3 88.9288 187.329 89.4676C188.365 89.9981 189.163 90.699 189.723 91.5703C189.74 91.5954 189.767 91.6108 189.797 91.6108C189.847 91.6108 189.887 91.5686 189.884 91.5185L189.749 89.2216V81.4184C189.749 81.3426 189.811 81.2811 189.886 81.2811H192.839C192.915 81.2811 192.977 81.3426 192.977 81.4184V106.3C192.977 106.376 192.915 106.438 192.839 106.438H190.027C189.951 106.438 189.89 106.376 189.89 106.3V104.139C189.89 104.089 189.849 104.049 189.799 104.049C189.768 104.049 189.739 104.065 189.722 104.091C189.162 104.961 188.365 105.662 187.329 106.192C186.3 106.731 185.154 107 183.891 107Z" fill="#F3F3F4"/>
<path d="M195.758 97.8297C195.758 95.1829 196.588 92.9928 198.248 91.2595C199.932 89.5261 202.049 88.6595 204.598 88.6595C207.147 88.6595 209.252 89.5261 210.912 91.2595C212.596 92.9928 213.438 95.1829 213.438 97.8297C213.438 100.5 212.596 102.69 210.912 104.4C209.252 106.133 207.147 107 204.598 107C202.049 107 199.932 106.133 198.248 104.4C196.588 102.667 195.758 100.477 195.758 97.8297ZM198.985 97.8297C198.985 99.6802 199.523 101.179 200.599 102.327C201.674 103.475 203.007 104.049 204.598 104.049C206.188 104.049 207.521 103.475 208.597 102.327C209.672 101.179 210.21 99.6802 210.21 97.8297C210.21 96.0027 209.672 94.5153 208.597 93.3676C207.498 92.1964 206.165 91.6108 204.598 91.6108C203.031 91.6108 201.698 92.1964 200.599 93.3676C199.523 94.5153 198.985 96.0027 198.985 97.8297Z" fill="#F3F3F4"/>
<path d="M224.227 107C221.678 107 219.561 106.133 217.878 104.4C216.217 102.62 215.387 100.43 215.387 97.8297C215.387 95.1829 216.217 92.9928 217.878 91.2595C219.561 89.5261 221.678 88.6595 224.227 88.6595C225.981 88.6595 227.512 89.1045 228.822 89.9946C230.096 90.8374 231.06 92.0014 231.714 93.4866C231.745 93.5563 231.712 93.6374 231.641 93.6667L228.948 94.7907C228.878 94.8198 228.798 94.7866 228.768 94.7176C227.847 92.6464 226.263 91.6108 224.016 91.6108C222.543 91.6108 221.268 92.2081 220.193 93.4027C219.14 94.5973 218.614 96.073 218.614 97.8297C218.614 99.5865 219.14 101.062 220.193 102.257C221.268 103.451 222.543 104.049 224.016 104.049C226.333 104.049 227.974 103.012 228.941 100.94C228.973 100.872 229.053 100.84 229.122 100.869L231.75 101.993C231.819 102.022 231.851 102.102 231.822 102.171C231.188 103.658 230.212 104.834 228.892 105.7C227.559 106.567 226.004 107 224.227 107Z" fill="#F3F3F4"/>
<path d="M249.78 106.3C249.78 106.376 249.719 106.438 249.643 106.438H246.83C246.755 106.438 246.693 106.376 246.693 106.3V104.138C246.693 104.089 246.653 104.049 246.604 104.049C246.573 104.049 246.543 104.066 246.527 104.093C246.035 104.916 245.284 105.604 244.273 106.157C243.267 106.719 242.215 107 241.116 107C239.011 107 237.386 106.403 236.24 105.208C235.117 103.99 234.556 102.268 234.556 100.043V89.359C234.556 89.2831 234.617 89.2216 234.693 89.2216H237.646C237.722 89.2216 237.783 89.2831 237.783 89.359V99.8324C237.853 102.643 239.268 104.049 242.028 104.049C243.314 104.049 244.39 103.533 245.255 102.503C246.12 101.449 246.553 100.195 246.553 98.7432V89.359C246.553 89.2831 246.614 89.2216 246.69 89.2216H249.643C249.719 89.2216 249.78 89.2831 249.78 89.359V106.3Z" fill="#F3F3F4"/>
<path d="M256.936 106.3C256.936 106.376 256.875 106.438 256.799 106.438H253.846C253.77 106.438 253.709 106.376 253.709 106.3V89.359C253.709 89.2831 253.77 89.2216 253.846 89.2216H256.659C256.734 89.2216 256.796 89.2831 256.796 89.359V91.5216C256.796 91.5708 256.836 91.6108 256.885 91.6108C256.917 91.6108 256.946 91.5939 256.962 91.5667C257.453 90.743 258.193 90.055 259.181 89.5027C260.21 88.9405 261.227 88.6595 262.233 88.6595C263.496 88.6595 264.607 88.9523 265.565 89.5378C266.488 90.101 267.172 90.8701 267.618 91.8449C267.641 91.8948 267.71 91.9003 267.741 91.8547C269.162 89.7245 271.114 88.6595 273.598 88.6595C275.586 88.6595 277.118 89.2685 278.194 90.4865C279.27 91.7045 279.807 93.4378 279.807 95.6865V106.3C279.807 106.376 279.746 106.438 279.67 106.438H276.717C276.642 106.438 276.58 106.376 276.58 106.3V96.1784C276.58 94.5622 276.288 93.4027 275.703 92.7C275.119 91.9739 274.136 91.6108 272.757 91.6108C271.517 91.6108 270.476 92.1378 269.635 93.1919C268.793 94.2459 268.372 95.4874 268.372 96.9162V106.3C268.372 106.376 268.31 106.438 268.235 106.438H265.282C265.206 106.438 265.144 106.376 265.144 106.3V96.1784C265.144 94.5622 264.852 93.4027 264.268 92.7C263.683 91.9739 262.701 91.6108 261.321 91.6108C260.081 91.6108 259.041 92.1378 258.199 93.1919C257.357 94.2459 256.936 95.4874 256.936 96.9162V106.3Z" fill="#F3F3F4"/>
<path d="M291.298 107C288.772 107 286.691 106.133 285.054 104.4C283.417 102.667 282.598 100.477 282.598 97.8297C282.598 95.2063 283.393 93.0279 284.984 91.2946C286.574 89.5378 288.609 88.6595 291.087 88.6595C293.636 88.6595 295.659 89.491 297.156 91.1541C298.676 92.7937 299.436 95.1009 299.436 98.0757L299.413 98.3033C299.406 98.3736 299.347 98.427 299.277 98.427H286.037C285.96 98.427 285.897 98.491 285.901 98.5682C285.974 100.19 286.534 101.501 287.58 102.503C288.655 103.533 289.942 104.049 291.438 104.049C293.458 104.049 295.051 103.055 296.214 101.069C296.251 101.006 296.33 100.982 296.395 101.013L299.028 102.3C299.098 102.334 299.125 102.419 299.088 102.487C298.321 103.88 297.268 104.974 295.928 105.77C294.572 106.59 293.028 107 291.298 107ZM286.18 95.5899C286.159 95.6752 286.225 95.7568 286.312 95.7568H295.85C295.93 95.7568 295.993 95.6884 295.985 95.6087C295.863 94.4807 295.377 93.5462 294.525 92.8054C293.66 92.009 292.491 91.6108 291.017 91.6108C289.801 91.6108 288.749 91.9856 287.86 92.7351C287.033 93.4514 286.473 94.403 286.18 95.5899Z" fill="#F3F3F4"/>
<path d="M302.387 89.359C302.387 89.2831 302.449 89.2216 302.525 89.2216H305.337C305.413 89.2216 305.474 89.2831 305.474 89.359V91.5216C305.474 91.5708 305.514 91.6108 305.563 91.6108C305.595 91.6108 305.624 91.5939 305.641 91.5667C306.132 90.743 306.872 90.055 307.86 89.5027C308.889 88.9405 309.953 88.6595 311.052 88.6595C313.157 88.6595 314.77 89.2685 315.893 90.4865C317.039 91.6811 317.612 93.391 317.612 95.6162V106.3C317.612 106.376 317.55 106.438 317.474 106.438H314.522C314.446 106.438 314.384 106.376 314.384 106.3V95.827C314.314 93.0162 312.899 91.6108 310.14 91.6108C308.854 91.6108 307.778 92.1378 306.913 93.1919C306.047 94.2225 305.615 95.464 305.615 96.9162V106.3C305.615 106.376 305.553 106.438 305.478 106.438H302.525C302.449 106.438 302.387 106.376 302.387 106.3V89.359Z" fill="#F3F3F4"/>
<path d="M327.314 106.719C325.911 106.719 324.742 106.286 323.807 105.419C322.895 104.552 322.427 103.346 322.403 101.8V92.2417C322.403 92.2037 322.373 92.173 322.335 92.173H319.524C319.448 92.173 319.387 92.1115 319.387 92.0356V89.359C319.387 89.2831 319.448 89.2216 319.524 89.2216H322.335C322.373 89.2216 322.403 89.1909 322.403 89.1529V84.0887C322.403 84.0128 322.465 83.9514 322.541 83.9514H325.494C325.569 83.9514 325.631 84.0128 325.631 84.0887V89.1529C325.631 89.1909 325.661 89.2216 325.699 89.2216H329.703C329.779 89.2216 329.84 89.2831 329.84 89.359V92.0356C329.84 92.1115 329.779 92.173 329.703 92.173H325.699C325.661 92.173 325.631 92.2037 325.631 92.2417V100.746C325.631 101.894 325.853 102.678 326.297 103.1C326.741 103.498 327.244 103.697 327.806 103.697C328.063 103.697 328.308 103.674 328.542 103.627C328.745 103.572 328.933 103.509 329.107 103.439C329.181 103.409 329.267 103.446 329.293 103.521L330.216 106.134C330.241 106.205 330.204 106.283 330.133 106.307C329.32 106.582 328.38 106.719 327.314 106.719Z" fill="#F3F3F4"/>
<path d="M334.918 101.168C334.918 102.011 335.269 102.714 335.97 103.276C336.695 103.838 337.537 104.119 338.496 104.119C339.852 104.119 341.057 103.615 342.109 102.608C343.167 101.617 343.705 100.457 343.722 99.1261C343.723 99.0841 343.703 99.0442 343.67 99.0186C342.668 98.2495 341.283 97.8649 339.513 97.8649C338.203 97.8649 337.104 98.1811 336.216 98.8135C335.35 99.4459 334.918 100.231 334.918 101.168ZM339.092 88.6595C341.478 88.6595 343.36 89.3036 344.74 90.5919C346.12 91.8568 346.809 93.6018 346.809 95.827V106.3C346.809 106.376 346.748 106.438 346.672 106.438H343.86C343.784 106.438 343.723 106.376 343.723 106.3V104.14C343.723 104.09 343.681 104.049 343.631 104.049C343.6 104.049 343.572 104.064 343.555 104.089C342.225 106.03 340.457 107 338.25 107C336.356 107 334.766 106.438 333.48 105.314C332.217 104.189 331.585 102.784 331.585 101.097C331.585 99.3171 332.252 97.9 333.585 96.8459C334.941 95.7919 336.742 95.2649 338.987 95.2649C340.8 95.2649 342.309 95.5788 343.516 96.2066C343.609 96.2551 343.723 96.1885 343.723 96.0833V95.5811C343.723 94.4568 343.278 93.5081 342.39 92.7351C341.501 91.9387 340.46 91.5405 339.268 91.5405C337.51 91.5405 336.109 92.2659 335.064 93.7167C335.021 93.7764 334.939 93.7934 334.877 93.7543L332.268 92.1092C332.202 92.0674 332.184 91.9783 332.23 91.9147C333.795 89.7445 336.083 88.6595 339.092 88.6595Z" fill="#F3F3F4"/>
<path d="M356.912 106.719C355.509 106.719 354.34 106.286 353.404 105.419C352.492 104.552 352.025 103.346 352.001 101.8V92.2417C352.001 92.2037 351.97 92.173 351.933 92.173H349.122C349.046 92.173 348.984 92.1115 348.984 92.0356V89.359C348.984 89.2831 349.046 89.2216 349.122 89.2216H351.933C351.97 89.2216 352.001 89.1909 352.001 89.1529V84.0887C352.001 84.0128 352.063 83.9514 352.138 83.9514H355.091C355.167 83.9514 355.228 84.0128 355.228 84.0887V89.1529C355.228 89.1909 355.259 89.2216 355.297 89.2216H359.301C359.376 89.2216 359.438 89.2831 359.438 89.359V92.0356C359.438 92.1115 359.376 92.173 359.301 92.173H355.297C355.259 92.173 355.228 92.2037 355.228 92.2417V100.746C355.228 101.894 355.451 102.678 355.895 103.1C356.339 103.498 356.842 103.697 357.403 103.697C357.661 103.697 357.906 103.674 358.14 103.627C358.343 103.572 358.531 103.509 358.705 103.439C358.779 103.409 358.864 103.446 358.891 103.521L359.813 106.134C359.838 106.205 359.802 106.283 359.73 106.307C358.917 106.582 357.978 106.719 356.912 106.719Z" fill="#F3F3F4"/>
<path d="M366.853 83.2838C366.853 83.9162 366.631 84.455 366.187 84.9C365.743 85.345 365.205 85.5676 364.573 85.5676C363.942 85.5676 363.404 85.345 362.96 84.9C362.515 84.455 362.293 83.9162 362.293 83.2838C362.293 82.6514 362.515 82.1126 362.96 81.6676C363.404 81.2225 363.942 81 364.573 81C365.205 81 365.743 81.2225 366.187 81.6676C366.631 82.1126 366.853 82.6514 366.853 83.2838ZM366.05 89.2216C366.126 89.2216 366.187 89.2831 366.187 89.359V106.3C366.187 106.376 366.126 106.438 366.05 106.438H363.097C363.021 106.438 362.96 106.376 362.96 106.3V89.359C362.96 89.2831 363.021 89.2216 363.097 89.2216H366.05Z" fill="#F3F3F4"/>
<path d="M369.233 97.8297C369.233 95.1829 370.063 92.9928 371.724 91.2595C373.408 89.5261 375.524 88.6595 378.073 88.6595C380.622 88.6595 382.727 89.5261 384.387 91.2595C386.071 92.9928 386.913 95.1829 386.913 97.8297C386.913 100.5 386.071 102.69 384.387 104.4C382.727 106.133 380.622 107 378.073 107C375.524 107 373.408 106.133 371.724 104.4C370.063 102.667 369.233 100.477 369.233 97.8297ZM372.461 97.8297C372.461 99.6802 372.998 101.179 374.074 102.327C375.15 103.475 376.483 104.049 378.073 104.049C379.663 104.049 380.996 103.475 382.072 102.327C383.148 101.179 383.686 99.6802 383.686 97.8297C383.686 96.0027 383.148 94.5153 382.072 93.3676C380.973 92.1964 379.64 91.6108 378.073 91.6108C376.506 91.6108 375.173 92.1964 374.074 93.3676C372.998 94.5153 372.461 96.0027 372.461 97.8297Z" fill="#F3F3F4"/>
<path d="M389.502 89.359C389.502 89.2831 389.563 89.2216 389.639 89.2216H392.452C392.527 89.2216 392.589 89.2831 392.589 89.359V91.5216C392.589 91.5708 392.629 91.6108 392.678 91.6108C392.71 91.6108 392.739 91.5939 392.755 91.5667C393.247 90.743 393.986 90.055 394.974 89.5027C396.003 88.9405 397.067 88.6595 398.166 88.6595C400.271 88.6595 401.885 89.2685 403.007 90.4865C404.153 91.6811 404.726 93.391 404.726 95.6162V106.3C404.726 106.376 404.665 106.438 404.589 106.438H401.636C401.56 106.438 401.499 106.376 401.499 106.3V95.827C401.429 93.0162 400.014 91.6108 397.254 91.6108C395.968 91.6108 394.892 92.1378 394.027 93.1919C393.162 94.2225 392.729 95.464 392.729 96.9162V106.3C392.729 106.376 392.668 106.438 392.592 106.438H389.639C389.563 106.438 389.502 106.376 389.502 106.3V89.359Z" fill="#F3F3F4"/>
</svg>
