<svg width="800" height="72" viewBox="0 0 800 72" fill="none" xmlns="http://www.w3.org/2000/svg">
<path fill-rule="evenodd" clip-rule="evenodd" d="M136.242 50.811C137.912 46.0576 138.732 41.0435 138.664 36.0016C138.729 30.9761 137.91 25.9789 136.242 21.2421C134.755 17.0245 132.435 13.1537 129.425 9.86256C126.468 6.69529 122.871 4.20575 118.875 2.56285C114.566 0.814332 109.955 -0.0557469 105.309 0.00294407C100.671 -0.0578331 96.0672 0.822963 91.7733 2.59284C87.7937 4.24938 84.2058 6.73339 81.2441 9.88256C78.2313 13.1646 75.9118 17.0293 74.4263 21.2421C72.759 25.9789 71.9392 30.9761 72.0049 36.0016C71.9367 41.0435 72.7565 46.0576 74.4263 50.811C75.9118 55.0238 78.2313 58.8885 81.2441 62.1705C84.2015 65.3199 87.7909 67.7982 91.7733 69.4403C100.49 72.8532 110.159 72.8532 118.875 69.4403C122.865 67.8009 126.462 65.3225 129.425 62.1705C132.437 58.8885 134.757 55.0238 136.242 50.811ZM131.408 22.7524C132.799 27.0263 133.47 31.5047 133.392 36.0019C133.474 40.5059 132.803 44.9917 131.408 49.2714C130.187 52.9425 128.231 56.322 125.662 59.201C123.188 61.9287 120.135 64.0582 116.73 65.4308C109.383 68.2716 101.252 68.2716 93.9053 65.4308C90.5052 64.0498 87.4538 61.9214 84.9738 59.201C82.3924 56.3241 80.4233 52.9447 79.1882 49.2714C77.7673 44.9965 77.076 40.5097 77.1439 36.0019C77.0893 31.5171 77.7838 27.0551 79.1981 22.8024C80.4247 19.1042 82.3941 15.7003 84.9837 12.8028C87.4682 10.0827 90.5179 7.94867 93.9152 6.55304C101.255 3.67281 109.4 3.67281 116.74 6.55304C120.142 7.94012 123.194 10.0754 125.672 12.8028C128.24 15.6885 130.192 19.0751 131.408 22.7524Z" fill="#0364FF"/>
<path fill-rule="evenodd" clip-rule="evenodd" d="M190.61 71.9981C192.268 71.9981 193.206 70.0959 192.196 68.7803L170.748 40.8389C170.168 40.0432 169.45 39.3652 168.632 38.839C171.466 38.5255 174.243 37.7913 176.875 36.659C179.182 35.6576 181.297 34.235 183.118 32.4592C184.823 30.7641 186.169 28.721 187.07 26.4593C188.012 24.0701 188.482 21.5098 188.452 18.9295C188.433 12.723 186.429 8.01646 182.441 4.80988C178.453 1.60329 172.462 0 164.467 0H148.666C147.561 0 146.666 0.895431 146.666 2V69.9981C146.666 71.1027 147.561 71.9981 148.666 71.9981H149.73C150.834 71.9981 151.73 71.1027 151.73 69.9981V41.439C151.73 40.3344 152.625 39.439 153.73 39.439H160.852C161.437 39.4335 162.022 39.4702 162.602 39.549C163.024 39.5943 163.438 39.7055 163.829 39.879C164.186 40.0259 164.513 40.2394 164.795 40.509C165.094 40.8169 165.365 41.1516 165.607 41.5089L187.93 70.7182C188.191 71.141 188.554 71.4858 188.984 71.7181C189.425 71.9192 189.903 72.0148 190.385 71.9981H190.61ZM172.025 34.4192C169.335 35.2231 166.544 35.6106 163.743 35.5692H153.731C152.627 35.5692 151.731 34.6738 151.731 33.5692V6.12002C151.731 5.01545 152.627 4.12002 153.731 4.12002H164.478C170.656 4.12669 175.356 5.36666 178.577 7.83993C181.799 10.3132 183.409 14.1098 183.409 19.2296C183.444 21.5585 182.992 23.8678 182.085 25.9995C181.2 28.0001 179.877 29.7598 178.22 31.1393C176.385 32.6461 174.28 33.761 172.025 34.4192Z" fill="#0364FF"/>
<path d="M229.333 67.4135C232.457 67.4711 235.559 66.8652 238.436 65.635C241.025 64.4999 243.341 62.8127 245.224 60.6891C247.121 58.513 248.568 55.9752 249.478 53.2254C250.468 50.2411 250.957 47.1103 250.923 43.9631V2.53792C250.923 1.13627 252.059 0 253.461 0C254.862 0 255.999 1.13626 255.999 2.53792V43.9631C256.031 47.7076 255.408 51.4284 254.158 54.9539C252.994 58.245 251.191 61.2682 248.855 63.8465C246.507 66.4233 243.644 68.4668 240.455 69.8414C233.314 72.7195 225.352 72.7195 218.212 69.8414C215.021 68.4694 212.157 66.4256 209.811 63.8465C207.472 61.2708 205.668 58.2468 204.508 54.9539C203.258 51.4284 202.635 47.7076 202.668 43.9631V2.54781C202.668 1.1407 203.808 0 205.216 0C206.623 0 207.763 1.1407 207.763 2.54781V43.9032C207.735 47.0549 208.23 50.1891 209.228 53.1754C210.139 55.9207 211.578 58.4572 213.463 60.6392C215.329 62.7804 217.635 64.4852 220.22 65.635C223.098 66.8759 226.205 67.4823 229.333 67.4135Z" fill="#0364FF"/>
<path d="M306.213 9.35152C305.996 9.86784 305.496 10.2024 304.943 10.2014C304.307 10.094 303.727 9.76946 303.298 9.28153C302.443 8.54626 301.535 7.8778 300.581 7.28189C299.232 6.42968 297.792 5.73855 296.287 5.22225C292.054 3.8964 287.521 3.93132 283.309 5.32223C281.522 5.97793 279.886 6.99878 278.503 8.3217C277.225 9.55344 276.218 11.0459 275.549 12.7009C274.887 14.3582 274.552 16.1316 274.564 17.92C274.481 19.998 274.998 22.0555 276.051 23.839C277.077 25.435 278.418 26.797 279.99 27.8382C281.729 28.9809 283.597 29.9074 285.554 30.5978C287.622 31.3376 289.759 32.0775 291.945 32.8074C294.131 33.5372 296.268 34.3471 298.335 35.2169C300.332 36.0528 302.205 37.1666 303.899 38.5264C305.533 39.8634 306.875 41.532 307.838 43.4255C308.898 45.6824 309.408 48.1651 309.325 50.6642C309.351 53.5089 308.853 56.3335 307.858 58.9927C306.894 61.5394 305.415 63.8522 303.515 65.7815C301.528 67.7641 299.162 69.3124 296.563 70.3307C293.557 71.4863 290.362 72.0496 287.149 71.9904C283.077 72.1006 279.034 71.2591 275.332 69.5309C272.799 68.2664 270.474 66.6201 268.434 64.6519C267.334 63.5894 267.222 61.898 268.036 60.6024C268.349 60.1458 268.857 59.8674 269.405 59.8526C269.837 59.9193 270.236 60.1303 270.537 60.4525L272.201 61.9122C272.851 62.5021 273.639 63.132 274.555 63.8119C275.552 64.5453 276.617 65.1781 277.735 65.7015C280.716 67.0982 283.965 67.8018 287.248 67.7612C289.756 67.805 292.25 67.3744 294.603 66.4914C296.633 65.712 298.486 64.5214 300.049 62.992C301.536 61.5266 302.694 59.7534 303.446 57.7929C304.243 55.7434 304.644 53.5574 304.628 51.3541C304.712 49.202 304.193 47.0699 303.131 45.2052C302.119 43.5981 300.775 42.2336 299.192 41.2059C297.455 40.0798 295.59 39.1701 293.638 38.4964C291.561 37.7665 289.434 37.0566 287.238 36.3567C285.042 35.6569 282.925 34.887 280.847 34.0172C278.843 33.2003 276.968 32.0886 275.283 30.7177C273.634 29.3555 272.291 27.6511 271.344 25.7186C270.27 23.3597 269.757 20.7773 269.848 18.18C269.847 15.8416 270.295 13.5255 271.167 11.3612C272.05 9.18127 273.368 7.21035 275.037 5.57219C276.857 3.83014 278.999 2.47095 281.339 1.5729C284.067 0.500364 286.972 -0.0324521 289.896 0.00317504C293.203 -0.0489667 296.488 0.541542 299.576 1.74287C301.724 2.6307 303.723 3.84007 305.509 5.32674C306.688 6.30757 306.914 7.98801 306.213 9.35152Z" fill="#0364FF"/>
<path fill-rule="evenodd" clip-rule="evenodd" d="M6.74056 0C3.01785 0 0 3.01784 0 6.74055V14.5928C0 18.3155 3.01785 21.3333 6.74055 21.3333H18.6664V65.2594C18.6664 68.9821 21.6843 72 25.407 72H33.2592C36.9819 72 39.9998 68.9821 39.9998 65.2594V14.6499C39.9999 14.6308 40 14.6118 40 14.5928V6.74056C40 3.01785 36.9821 0 33.2594 0H25.407H6.74056Z" fill="#0364FF"/>
<path d="M56.0006 21.3333C61.8917 21.3333 66.6673 16.5577 66.6673 10.6667C66.6673 4.77563 61.8917 0 56.0006 0C50.1096 0 45.334 4.77563 45.334 10.6667C45.334 16.5577 50.1096 21.3333 56.0006 21.3333Z" fill="#0364FF"/>
<path d="M339.098 5C340.81 5 342.197 6.38718 342.197 8.09836V64.9016C342.197 66.6128 340.81 68 339.098 68C337.387 68 336 66.6128 336 64.9016V8.09836C336 6.38718 337.387 5 339.098 5Z" fill="#BEBEBE"/>
<path d="M385.368 51.296C388.36 51.296 390.802 50.218 392.694 48.062C394.674 45.906 395.664 43.09 395.664 39.614C395.664 36.226 394.674 33.432 392.694 31.232C390.758 29.032 388.316 27.932 385.368 27.932C382.464 27.932 380.022 29.032 378.042 31.232C376.062 33.432 375.072 36.226 375.072 39.614C375.072 43.046 376.062 45.84 378.042 47.996C380.022 50.196 382.464 51.296 385.368 51.296ZM384.378 56.84C380.154 56.84 376.524 55.168 373.488 51.824C370.496 48.436 369 44.366 369 39.614C369 34.862 370.496 30.792 373.488 27.404C376.524 24.06 380.154 22.388 384.378 22.388C386.754 22.388 388.91 22.894 390.846 23.906C392.796 24.9026 394.298 26.2192 395.351 27.8559C395.382 27.9031 395.434 27.932 395.49 27.932C395.585 27.932 395.659 27.8527 395.654 27.7586L395.4 23.444V10.528C395.4 9.42343 396.295 8.528 397.4 8.528H399.472C400.577 8.528 401.472 9.42343 401.472 10.528V53.784C401.472 54.8886 400.577 55.784 399.472 55.784H397.664C396.559 55.784 395.664 54.8886 395.664 53.784V51.4662C395.664 51.3722 395.588 51.296 395.494 51.296C395.435 51.296 395.381 51.326 395.35 51.3751C394.296 53.0104 392.795 54.326 390.846 55.322C388.91 56.334 386.754 56.84 384.378 56.84Z" fill="black"/>
<path d="M406.705 39.614C406.705 34.642 408.267 30.528 411.391 27.272C414.559 24.016 418.541 22.388 423.337 22.388C428.133 22.388 432.093 24.016 435.217 27.272C438.385 30.528 439.969 34.642 439.969 39.614C439.969 44.63 438.385 48.744 435.217 51.956C432.093 55.212 428.133 56.84 423.337 56.84C418.541 56.84 414.559 55.212 411.391 51.956C408.267 48.7 406.705 44.586 406.705 39.614ZM412.777 39.614C412.777 43.09 413.789 45.906 415.813 48.062C417.837 50.218 420.345 51.296 423.337 51.296C426.329 51.296 428.837 50.218 430.861 48.062C432.885 45.906 433.897 43.09 433.897 39.614C433.897 36.182 432.885 33.388 430.861 31.232C428.793 29.032 426.285 27.932 423.337 27.932C420.389 27.932 417.881 29.032 415.813 31.232C413.789 33.388 412.777 36.182 412.777 39.614Z" fill="black"/>
<path d="M460.269 56.84C455.473 56.84 451.491 55.212 448.323 51.956C445.199 48.612 443.637 44.498 443.637 39.614C443.637 34.642 445.199 30.528 448.323 27.272C451.491 24.016 455.473 22.388 460.269 22.388C463.569 22.388 466.451 23.224 468.915 24.896C470.843 26.17 472.394 27.8348 473.568 29.8902C474.118 30.8538 473.625 32.0414 472.601 32.4682L470.75 33.2395C469.734 33.6625 468.587 33.1718 468.005 32.2386C466.215 29.3675 463.504 27.932 459.873 27.932C457.101 27.932 454.703 29.054 452.679 31.298C450.699 33.542 449.709 36.314 449.709 39.614C449.709 42.914 450.699 45.686 452.679 47.93C454.703 50.174 457.101 51.296 459.873 51.296C463.63 51.296 466.443 49.8495 468.313 46.9564C468.906 46.0391 470.051 45.568 471.055 45.9968L472.845 46.7606C473.85 47.1896 474.337 48.3549 473.803 49.3084C472.64 51.3861 471.054 53.0827 469.047 54.398C466.539 56.026 463.613 56.84 460.269 56.84Z" fill="black"/>
<path d="M508.347 53.784C508.347 54.8886 507.452 55.784 506.347 55.784H504.539C503.435 55.784 502.539 54.8886 502.539 53.784V51.4637C502.539 51.3711 502.464 51.296 502.371 51.296C502.312 51.296 502.257 51.3277 502.226 51.3789C501.301 52.9261 499.887 54.2185 497.985 55.256C496.093 56.312 494.113 56.84 492.045 56.84C488.085 56.84 485.027 55.718 482.871 53.474C480.759 51.186 479.703 47.952 479.703 43.772V25.444C479.703 24.3394 480.599 23.444 481.703 23.444H483.775C484.88 23.444 485.775 24.3394 485.775 25.444V43.376C485.907 48.656 488.569 51.296 493.761 51.296C496.181 51.296 498.205 50.328 499.833 48.392C501.461 46.412 502.275 44.058 502.275 41.33V25.444C502.275 24.3394 503.171 23.444 504.275 23.444H506.347C507.452 23.444 508.347 24.3394 508.347 25.444V53.784Z" fill="black"/>
<path d="M521.811 53.784C521.811 54.8886 520.915 55.784 519.811 55.784H517.739C516.634 55.784 515.739 54.8886 515.739 53.784V25.444C515.739 24.3394 516.634 23.444 517.739 23.444H519.547C520.651 23.444 521.547 24.3394 521.547 25.444V27.7643C521.547 27.8569 521.622 27.932 521.714 27.932C521.774 27.932 521.829 27.9003 521.86 27.8491C522.784 26.3019 524.176 25.0095 526.035 23.972C527.971 22.916 529.885 22.388 531.777 22.388C534.153 22.388 536.243 22.938 538.047 24.038C539.306 24.8059 540.329 25.7775 541.117 26.9529C541.562 27.6162 542.6 27.7005 543.106 27.0833C545.675 23.9531 549.027 22.388 553.161 22.388C556.901 22.388 559.783 23.532 561.807 25.82C563.831 28.108 564.843 31.364 564.843 35.588V53.784C564.843 54.8886 563.947 55.784 562.843 55.784H560.771C559.666 55.784 558.771 54.8886 558.771 53.784V36.512C558.771 33.476 558.221 31.298 557.121 29.978C556.021 28.614 554.173 27.932 551.577 27.932C549.245 27.932 547.287 28.922 545.703 30.902C544.119 32.882 543.327 35.214 543.327 37.898V53.784C543.327 54.8886 542.431 55.784 541.327 55.784H539.255C538.15 55.784 537.255 54.8886 537.255 53.784V36.512C537.255 33.476 536.705 31.298 535.605 29.978C534.505 28.614 532.657 27.932 530.061 27.932C527.729 27.932 525.771 28.922 524.187 30.902C522.603 32.882 521.811 35.214 521.811 37.898V53.784Z" fill="black"/>
<path d="M586.462 56.84C581.71 56.84 577.794 55.212 574.714 51.956C571.634 48.7 570.094 44.586 570.094 39.614C570.094 34.686 571.59 30.594 574.582 27.338C577.574 24.038 581.402 22.388 586.066 22.388C590.862 22.388 594.668 23.95 597.484 27.074C600.344 30.154 601.774 34.488 601.774 40.076C601.736 40.4507 601.421 40.736 601.044 40.736H578.354C577.228 40.736 576.303 41.6719 576.504 42.7802C576.91 45.0209 577.897 46.8915 579.466 48.392C581.49 50.328 583.91 51.296 586.726 51.296C590.031 51.296 592.727 49.8855 594.814 47.0644C595.441 46.2156 596.573 45.8485 597.522 46.3114L599.384 47.2197C600.401 47.7161 600.814 48.9666 600.167 49.8957C598.844 51.7952 597.18 53.3399 595.174 54.53C592.622 56.07 589.718 56.84 586.462 56.84ZM577.538 33.3557C577.009 34.5208 577.973 35.72 579.253 35.72H593.143C594.309 35.72 595.256 34.7088 594.879 33.6051C594.429 32.2863 593.648 31.1433 592.534 30.176C590.906 28.68 588.706 27.932 585.934 27.932C583.646 27.932 581.666 28.636 579.994 30.044C578.948 30.9483 578.129 32.0522 577.538 33.3557Z" fill="black"/>
<path d="M607.327 25.444C607.327 24.3394 608.222 23.444 609.327 23.444H611.135C612.239 23.444 613.135 24.3394 613.135 25.444V27.7643C613.135 27.8569 613.21 27.932 613.302 27.932C613.362 27.932 613.417 27.9003 613.447 27.8491C614.372 26.3019 615.764 25.0095 617.623 23.972C619.559 22.916 621.561 22.388 623.628 22.388C627.589 22.388 630.625 23.532 632.737 25.82C634.893 28.064 635.971 31.276 635.971 35.456V53.784C635.971 54.8886 635.075 55.784 633.971 55.784H631.899C630.794 55.784 629.899 54.8886 629.899 53.784V35.852C629.767 30.572 627.104 27.932 621.913 27.932C619.493 27.932 617.469 28.922 615.841 30.902C614.213 32.838 613.399 35.17 613.399 37.898V53.784C613.399 54.8886 612.503 55.784 611.399 55.784H609.327C608.222 55.784 607.327 54.8886 607.327 53.784V25.444Z" fill="black"/>
<path d="M654.226 56.312C651.586 56.312 649.386 55.498 647.626 53.87C645.91 52.242 645.03 49.976 644.986 47.072V29.988C644.986 29.4357 644.539 28.988 643.986 28.988H641.31C640.206 28.988 639.31 28.0926 639.31 26.988V25.444C639.31 24.3394 640.206 23.444 641.31 23.444H643.986C644.539 23.444 644.986 22.9963 644.986 22.444V15.544C644.986 14.4394 645.882 13.544 646.986 13.544H649.058C650.163 13.544 651.058 14.4394 651.058 15.544V22.444C651.058 22.9963 651.506 23.444 652.058 23.444H656.978C658.083 23.444 658.978 24.3394 658.978 25.444V26.988C658.978 28.0926 658.083 28.988 656.978 28.988H652.058C651.506 28.988 651.058 29.4357 651.058 29.988V45.092C651.058 47.248 651.476 48.722 652.312 49.514C653.148 50.262 654.094 50.636 655.15 50.636C655.634 50.636 656.096 50.592 656.536 50.504C657.264 50.3054 658.071 50.6502 658.323 51.3618L659.108 53.5809C659.474 54.6174 658.935 55.7662 657.857 55.9809C656.748 56.2016 655.538 56.312 654.226 56.312Z" fill="black"/>
<path d="M668.532 45.884C668.532 47.468 669.192 48.788 670.512 49.844C671.876 50.9 673.46 51.428 675.264 51.428C677.816 51.428 680.082 50.482 682.062 48.59C683.826 46.9409 684.821 45.0411 685.048 42.8906C685.112 42.2824 684.825 41.6908 684.306 41.3683C682.492 40.2428 680.116 39.68 677.178 39.68C674.714 39.68 672.646 40.274 670.974 41.462C669.346 42.65 668.532 44.124 668.532 45.884ZM676.386 22.388C680.874 22.388 684.416 23.598 687.012 26.018C689.608 28.394 690.906 31.672 690.906 35.852V53.784C690.906 54.8886 690.01 55.784 688.906 55.784H687.098C685.993 55.784 685.098 54.8886 685.098 53.784V51.4685C685.098 51.3733 685.02 51.296 684.925 51.296C684.868 51.296 684.814 51.3248 684.782 51.372C682.28 55.0173 678.953 56.84 674.802 56.84C671.238 56.84 668.246 55.784 665.826 53.672C663.45 51.56 662.262 48.92 662.262 45.752C662.262 42.408 663.516 39.746 666.024 37.766C668.576 35.786 671.964 34.796 676.188 34.796C679.184 34.796 681.74 35.2512 683.856 36.1615C684.425 36.4061 685.098 36.009 685.098 35.39C685.098 33.278 684.262 31.496 682.59 30.044C680.918 28.548 678.96 27.8 676.716 27.8C673.974 27.8 671.694 28.7363 669.874 30.609C669.128 31.3769 667.95 31.6403 667.044 31.0699L665.092 29.8414C664.126 29.233 663.855 27.9281 664.627 27.087C667.502 23.9543 671.422 22.388 676.386 22.388Z" fill="black"/>
<path d="M709.914 56.312C707.274 56.312 705.074 55.498 703.314 53.87C701.598 52.242 700.718 49.976 700.674 47.072V29.988C700.674 29.4357 700.226 28.988 699.674 28.988H696.998C695.893 28.988 694.998 28.0926 694.998 26.988V25.444C694.998 24.3394 695.893 23.444 696.998 23.444H699.674C700.226 23.444 700.674 22.9963 700.674 22.444V15.544C700.674 14.4394 701.569 13.544 702.674 13.544H704.746C705.85 13.544 706.746 14.4394 706.746 15.544V22.444C706.746 22.9963 707.193 23.444 707.746 23.444H712.666C713.77 23.444 714.666 24.3394 714.666 25.444V26.988C714.666 28.0926 713.77 28.988 712.666 28.988H707.746C707.193 28.988 706.746 29.4357 706.746 29.988V45.092C706.746 47.248 707.164 48.722 708 49.514C708.836 50.262 709.782 50.636 710.838 50.636C711.322 50.636 711.784 50.592 712.224 50.504C712.952 50.3054 713.759 50.6502 714.01 51.3618L714.795 53.5809C715.162 54.6174 714.622 55.7662 713.544 55.9809C712.436 56.2016 711.226 56.312 709.914 56.312Z" fill="black"/>
<path d="M728.618 12.29C728.618 13.478 728.2 14.49 727.364 15.326C726.528 16.162 725.516 16.58 724.328 16.58C723.14 16.58 722.128 16.162 721.292 15.326C720.456 14.49 720.038 13.478 720.038 12.29C720.038 11.102 720.456 10.09 721.292 9.254C722.128 8.418 723.14 8 724.328 8C725.516 8 726.528 8.418 727.364 9.254C728.2 10.09 728.618 11.102 728.618 12.29ZM725.364 23.444C726.469 23.444 727.364 24.3394 727.364 25.444V53.784C727.364 54.8886 726.469 55.784 725.364 55.784H723.292C722.187 55.784 721.292 54.8886 721.292 53.784V25.444C721.292 24.3394 722.187 23.444 723.292 23.444H725.364Z" fill="black"/>
<path d="M733.096 39.614C733.096 34.642 734.658 30.528 737.782 27.272C740.95 24.016 744.932 22.388 749.728 22.388C754.524 22.388 758.484 24.016 761.608 27.272C764.776 30.528 766.36 34.642 766.36 39.614C766.36 44.63 764.776 48.744 761.608 51.956C758.484 55.212 754.524 56.84 749.728 56.84C744.932 56.84 740.95 55.212 737.782 51.956C734.658 48.7 733.096 44.586 733.096 39.614ZM739.168 39.614C739.168 43.09 740.18 45.906 742.204 48.062C744.228 50.218 746.736 51.296 749.728 51.296C752.72 51.296 755.228 50.218 757.252 48.062C759.276 45.906 760.288 43.09 760.288 39.614C760.288 36.182 759.276 33.388 757.252 31.232C755.184 29.032 752.676 27.932 749.728 27.932C746.78 27.932 744.272 29.032 742.204 31.232C740.18 33.388 739.168 36.182 739.168 39.614Z" fill="black"/>
<path d="M771.231 25.444C771.231 24.3394 772.126 23.444 773.231 23.444H775.039C776.143 23.444 777.039 24.3394 777.039 25.444V27.7643C777.039 27.8569 777.114 27.932 777.207 27.932C777.266 27.932 777.321 27.9003 777.352 27.8491C778.276 26.3019 779.668 25.0095 781.527 23.972C783.463 22.916 785.465 22.388 787.533 22.388C791.493 22.388 794.529 23.532 796.641 25.82C798.797 28.064 799.875 31.276 799.875 35.456V53.784C799.875 54.8886 798.979 55.784 797.875 55.784H795.803C794.698 55.784 793.803 54.8886 793.803 53.784V35.852C793.671 30.572 791.009 27.932 785.817 27.932C783.397 27.932 781.373 28.922 779.745 30.902C778.117 32.838 777.303 35.17 777.303 37.898V53.784C777.303 54.8886 776.407 55.784 775.303 55.784H773.231C772.126 55.784 771.231 54.8886 771.231 53.784V25.444Z" fill="black"/>
</svg>
