<svg width="1040" height="288" viewBox="0 0 1040 288" fill="none" xmlns="http://www.w3.org/2000/svg">
<path fill-rule="evenodd" clip-rule="evenodd" d="M102.339 140.376C101.996 141.654 102.96 142.91 104.284 142.91H115.878C117.202 142.91 118.166 141.654 117.823 140.376L112.026 118.739C111.493 116.75 108.669 116.75 108.136 118.739L102.339 140.376Z" fill="white"/>
<path fill-rule="evenodd" clip-rule="evenodd" d="M90.7936 154.224C89.9057 157.538 86.9028 159.842 83.4722 159.842H67.7782C62.7944 159.842 59.1669 155.115 60.4568 150.301L92.6523 30.1454C93.6235 26.5211 96.9079 24.0009 100.66 24.0009H119.338C123.09 24.0009 126.374 26.5211 127.346 30.1454L159.541 150.301C160.831 155.115 157.204 159.842 152.22 159.842H136.526C133.095 159.842 130.092 157.538 129.204 154.224L113.545 95.7835C112.573 92.1553 107.425 92.1553 106.453 95.7835L90.7936 154.224Z" fill="white"/>
<path fill-rule="evenodd" clip-rule="evenodd" d="M169.736 131.582C168.732 135.327 163.418 135.327 162.414 131.582L150.726 87.9604C150.5 87.117 150.5 86.2289 150.726 85.3856L165.622 29.7934C166.538 26.3762 169.634 24 173.172 24H188.376C193.515 24 197.256 28.8751 195.926 33.8395L169.736 131.582ZM69.4509 87.8876C69.6769 87.0442 69.6769 86.1562 69.4509 85.3128L54.5745 29.7934C53.6589 26.3762 50.5622 24 47.0244 24H31.8208C26.6812 24 22.9404 28.8751 24.2706 33.8395L50.4411 131.509C51.4447 135.254 56.759 135.254 57.7625 131.509L69.4509 87.8876Z" fill="white"/>
<path fill-rule="evenodd" clip-rule="evenodd" d="M522.857 156.921C516.326 156.921 510.34 155.559 504.898 152.836C501.828 151.265 499.16 149.398 496.895 147.235C495.463 145.869 492.563 146.796 492.563 148.754V151.676C492.563 153.003 491.464 154.08 490.107 154.08H478.33C476.974 154.08 475.874 153.003 475.874 151.676V29.3248C475.874 27.9972 476.974 26.921 478.33 26.921H490.052C491.408 26.921 492.508 27.9972 492.508 29.3248V72.3877C492.508 74.3452 495.415 75.2781 496.851 73.9156C499.133 71.7489 501.823 69.8787 504.898 68.305C510.34 65.582 516.326 64.2205 522.857 64.2205C534.587 64.2205 544.503 68.7194 552.606 77.7172C560.95 86.8333 565.122 97.7845 565.122 110.571C565.122 123.475 560.95 134.427 552.606 143.424C544.503 152.422 534.587 156.921 522.857 156.921ZM520.136 142.004C528.117 142.004 534.829 139.044 540.271 133.124C545.713 127.323 548.434 119.805 548.434 110.571C548.434 101.455 545.713 93.9368 540.271 88.0172C534.829 82.0976 528.117 79.1378 520.136 79.1378C512.033 79.1378 505.261 82.0976 499.819 88.0172C494.498 93.9368 491.837 101.455 491.837 110.571C491.837 119.805 494.498 127.382 499.819 133.302C505.261 139.103 512.033 142.004 520.136 142.004ZM418.528 156.921C405.468 156.921 394.705 152.54 386.239 143.779C377.774 135.019 373.541 123.949 373.541 110.571C373.541 97.3109 377.653 86.3005 385.876 77.5395C394.1 68.6602 404.621 64.2205 417.44 64.2205C430.621 64.2205 441.082 68.4234 448.822 76.8292C457.163 85.6229 461.15 98.8487 460.628 110.878C460.561 112.42 459.231 113.59 457.654 113.59H393.591C391.949 113.59 390.617 114.92 390.788 116.519C391.552 123.701 394.389 129.591 399.3 134.19C404.863 139.399 411.514 142.004 419.254 142.004C429.128 142.004 437.024 137.519 442.942 128.55C443.733 127.35 445.308 126.863 446.618 127.489L456.59 132.251C457.995 132.922 458.559 134.606 457.744 135.913C453.89 142.101 448.799 147.031 442.473 150.705C435.459 154.849 427.477 156.921 418.528 156.921ZM392.828 96.6638C392.238 98.3962 393.632 100.093 395.498 100.093H439.682C441.382 100.093 442.741 98.6674 442.396 97.0375C441.406 92.3566 439.013 88.4027 435.217 85.1758C430.742 81.1505 424.696 79.1378 417.077 79.1378C410.789 79.1378 405.347 81.0321 400.751 84.8206C397.108 87.9051 394.467 91.8528 392.828 96.6638ZM368.425 70.3999C368.968 68.7507 367.712 67.0619 365.942 67.0619H354.424C353.267 67.0619 352.249 67.8078 351.922 68.8943L334.934 125.348C334.252 127.613 330.994 127.66 330.245 125.416L311.339 68.8221C310.989 67.7721 309.988 67.0619 308.86 67.0619H295.405C294.279 67.0619 293.28 67.7692 292.928 68.8162L273.852 125.454C273.098 127.692 269.845 127.641 269.164 125.38L252.167 68.8943C251.84 67.8078 250.821 67.0619 249.664 67.0619H237.784C236.014 67.0619 234.757 68.7507 235.301 70.3999L262.279 152.309C262.627 153.364 263.63 154.08 264.762 154.08H277.831C278.964 154.08 279.968 153.364 280.315 152.308L299.354 94.3884C300.084 92.1679 303.291 92.1641 304.027 94.3829L323.227 152.314C323.576 153.367 324.578 154.08 325.708 154.08H338.964C340.096 154.08 341.099 153.364 341.447 152.309L368.425 70.3999ZM885.484 148.93C890.322 153.31 896.368 155.5 903.624 155.5C908.426 155.5 912.731 154.974 916.54 153.921C917.839 153.561 918.498 152.186 918.048 150.94L914.487 141.081C914.009 139.759 912.482 139.121 911.117 139.544C910.746 139.658 910.365 139.768 909.973 139.873C908.764 140.109 907.494 140.228 906.164 140.228C903.261 140.228 900.661 139.221 898.364 137.209C896.066 135.078 894.917 131.112 894.917 125.31V84.3831C894.917 83.0555 896.016 81.9792 897.373 81.9792H914.229C915.586 81.9792 916.685 80.903 916.685 79.5754V69.4658C916.685 68.1382 915.586 67.0619 914.229 67.0619H897.373C896.016 67.0619 894.917 65.9857 894.917 64.6581V29.3248C894.917 27.9972 893.818 26.921 892.462 26.921H880.684C879.328 26.921 878.228 27.9972 878.228 29.3248V64.6581C878.228 65.9857 877.129 67.0619 875.773 67.0619H865.084C863.727 67.0619 862.628 68.1382 862.628 69.4658V79.5754C862.628 80.903 863.727 81.9792 865.084 81.9792H875.773C877.129 81.9792 878.228 83.0555 878.228 84.3831V130.638C878.349 138.452 880.768 144.549 885.484 148.93ZM647.146 146.266C655.249 139.162 659.3 130.283 659.3 119.628C659.3 113.116 657.426 107.256 653.677 102.047C651.952 99.5697 649.473 96.4215 642.204 92.4315C640.668 91.5885 640.628 89.3428 642.08 88.3682C650.779 82.5324 655.128 73.6961 655.128 63.3326C655.128 53.5061 651.439 45.5147 644.062 39.3584C636.565 32.9652 627.313 29.7687 616.309 29.7687C607.48 29.7687 599.801 32.0773 593.271 36.6946C587.452 40.8088 583.121 46.0512 580.279 52.4215C579.69 53.7415 580.367 55.2493 581.721 55.8111L592.033 60.0867C593.494 60.6922 595.162 59.9644 595.817 58.5505C599.88 49.781 606.71 45.3963 616.309 45.3963C622.839 45.3963 628.099 47.0538 632.09 50.3687C636.081 53.6837 638.076 58.005 638.076 63.3326C638.076 69.1338 635.96 73.8694 631.727 77.5396C627.495 81.0913 622.053 82.8672 615.402 82.8672H608.731C607.206 82.8672 605.969 84.078 605.969 85.5715V95.4353C605.969 96.9289 607.206 98.1397 608.731 98.1397H616.671C623.685 98.1397 629.672 100.212 634.63 104.355C639.709 108.499 642.249 113.59 642.249 119.628C642.249 125.666 639.83 130.816 634.993 135.078C630.034 139.221 624.169 141.293 617.397 141.293C611.229 141.293 605.908 139.517 601.434 135.966C597.728 132.842 594.899 128.603 592.945 123.248C592.388 121.72 590.652 120.888 589.122 121.512L579.033 125.628C577.739 126.156 577.045 127.552 577.499 128.85C580.319 136.92 585.214 143.554 592.183 148.752C599.68 154.198 608.085 156.921 617.397 156.921C629.248 156.921 639.165 153.369 647.146 146.266ZM688.913 127.442C688.913 122.706 691.151 118.74 695.625 115.543C700.221 112.347 705.904 110.748 712.677 110.748C721.365 110.748 728.263 112.5 733.372 116.005C734.064 116.479 734.454 117.269 734.41 118.095C734.077 124.415 731.307 129.958 726.1 134.723C720.658 139.813 714.43 142.359 707.416 142.359C702.458 142.359 698.104 140.938 694.355 138.097C690.727 135.255 688.913 131.704 688.913 127.442ZM739.705 73.9878C732.57 67.4763 722.835 64.2205 710.5 64.2205C695.628 64.2205 684.167 69.2283 676.116 79.2437C675.249 80.3222 675.575 81.8807 676.762 82.6119L687.287 89.0997C688.399 89.7854 689.858 89.4836 690.68 88.4788C695.963 82.0147 702.872 78.7827 711.407 78.7827C717.574 78.7827 722.956 80.7953 727.551 84.8206C732.176 88.7524 733.812 93.478 734.282 98.8153C734.444 100.65 732.398 101.836 730.662 101.127C724.918 98.7803 718.016 97.6069 709.956 97.6069C698.346 97.6069 689.034 100.271 682.02 105.598C675.127 110.926 671.68 118.089 671.68 127.086C671.68 135.611 674.946 142.714 681.476 148.397C688.127 154.08 696.351 156.921 706.146 156.921C717.635 156.921 726.826 151.949 733.719 142.004V151.676C733.719 153.003 734.818 154.08 736.174 154.08H747.952C749.308 154.08 750.408 153.003 750.408 151.676V100.448C750.408 89.2011 746.84 80.381 739.705 73.9878ZM847.232 151.525C847.232 152.936 846.064 154.08 844.623 154.08H833.152C831.711 154.08 830.543 152.936 830.543 151.525V148.673C830.543 146.832 827.698 145.95 826.359 147.241C824.256 149.268 821.72 151.074 818.752 152.659C813.552 155.5 808.11 156.921 802.426 156.921C791.542 156.921 783.138 153.902 777.212 147.864C771.407 141.708 768.505 133.006 768.505 121.759V69.6161C768.505 68.2055 769.673 67.0619 771.114 67.0619H782.585C784.026 67.0619 785.194 68.2055 785.194 69.6161V120.693C785.556 134.9 792.873 142.004 807.143 142.004C813.794 142.004 819.357 139.399 823.831 134.19C828.306 128.862 830.543 122.528 830.543 115.188V69.6161C830.543 68.2055 831.711 67.0619 833.152 67.0619H844.623C846.064 67.0619 847.232 68.2055 847.232 69.6161V151.525ZM933.446 29.3248C933.446 27.9972 934.545 26.921 935.901 26.921H947.679C949.035 26.921 950.135 27.9972 950.135 29.3248V72.469C950.135 74.3093 952.969 75.1843 954.3 73.8848C956.37 71.8642 958.851 70.0635 961.744 68.4826C967.065 65.6412 972.568 64.2205 978.251 64.2205C989.135 64.2205 997.48 67.2987 1003.28 73.4551C1009.21 79.493 1012.17 88.1356 1012.17 99.3828V151.676C1012.17 153.003 1011.07 154.08 1009.72 154.08H997.94C996.584 154.08 995.484 153.003 995.484 151.676V102.579C995.484 86.9517 988.41 79.1378 974.26 79.1378C967.488 79.1378 961.744 81.92 957.028 87.4844C952.432 92.9304 950.135 99.3236 950.135 106.664V151.676C950.135 153.003 949.035 154.08 947.679 154.08H935.901C934.545 154.08 933.446 153.003 933.446 151.676V29.3248Z" fill="white"/>
<path d="M985.197 228.705V250.746H973.652V198.136H985.197V228.705L1000.09 211.059H1013.86L998.71 228.573L1015.18 250.746H1001.07L985.197 228.705Z" fill="white"/>
<path d="M931.167 247.531L929.789 236.183C932.326 238.413 935.125 240.119 938.186 241.299C941.291 242.48 944.505 243.071 947.829 243.071C953.164 243.071 955.832 241.759 955.832 239.135C955.832 237.429 954.564 236.358 952.027 235.92L942.515 234.412C938.448 233.756 935.453 232.487 933.528 230.607C931.604 228.726 930.62 226.256 930.576 223.194C930.533 219.127 932.195 216 935.562 213.814C938.929 211.627 943.652 210.534 949.731 210.534C955.285 210.534 960.314 211.605 964.819 213.748L965.934 224.178C961.036 220.592 955.657 218.799 949.797 218.799C944.811 218.799 942.319 220.002 942.319 222.407C942.319 223.938 943.521 224.922 945.927 225.359L955.832 226.933C963.66 228.202 967.574 232.006 967.574 238.347C967.574 242.502 965.847 245.695 962.392 247.925C958.981 250.155 954.148 251.27 947.894 251.27C944.702 251.27 941.75 250.964 939.039 250.352C936.327 249.74 933.703 248.799 931.167 247.531Z" fill="white"/>
<path d="M885.651 239.659C885.651 233.275 889.85 229.404 898.246 228.049L912.481 225.818C912.219 223.588 911.388 221.992 909.988 221.03C908.589 220.024 906.49 219.521 903.691 219.521C901.023 219.521 898.29 219.936 895.491 220.767C892.692 221.598 889.959 222.823 887.291 224.441L889.128 214.142C893.939 211.736 899.405 210.534 905.528 210.534C911.694 210.534 916.33 211.911 919.435 214.666C922.583 217.422 924.158 221.467 924.158 226.802V250.746H912.612V241.496L907.364 250.09C905.09 250.877 902.619 251.27 899.952 251.27C895.535 251.27 892.036 250.243 889.456 248.187C886.92 246.088 885.651 243.246 885.651 239.659ZM912.612 233.887L901.985 235.658C900.411 235.92 899.252 236.358 898.509 236.97C897.809 237.582 897.459 238.391 897.459 239.397C897.459 240.665 898.028 241.649 899.165 242.349C900.302 243.049 901.942 243.399 904.085 243.399C906.971 243.399 909.813 242.764 912.612 241.496V233.887Z" fill="white"/>
<path d="M825.743 196.889H826.727L848.374 225.818L869.89 196.889H870.809L881.698 250.746H869.365L863.986 222.604L853.556 236.576H842.864L832.434 222.669L827.055 250.746H814.984L825.743 196.889Z" fill="white"/>
<path d="M771.174 239.659C771.174 233.275 775.373 229.404 783.769 228.049L798.004 225.818C797.742 223.588 796.911 221.992 795.511 221.03C794.112 220.024 792.013 219.521 789.214 219.521C786.546 219.521 783.813 219.936 781.014 220.767C778.215 221.598 775.482 222.823 772.814 224.441L774.651 214.142C779.462 211.736 784.928 210.534 791.051 210.534C797.217 210.534 801.853 211.911 804.958 214.666C808.106 217.422 809.681 221.467 809.681 226.802V250.746H798.135V241.496L792.888 250.09C790.614 250.877 788.143 251.27 785.475 251.27C781.058 251.27 777.559 250.243 774.979 248.187C772.443 246.088 771.174 243.246 771.174 239.659ZM798.135 233.887L787.508 235.658C785.934 235.92 784.775 236.358 784.032 236.97C783.332 237.582 782.982 238.391 782.982 239.397C782.982 240.665 783.551 241.649 784.688 242.349C785.825 243.049 787.465 243.399 789.608 243.399C792.494 243.399 795.337 242.764 798.135 241.496V233.887Z" fill="white"/>
<path d="M744.003 238.216V220.308H736.918V214.01L755.548 204.958V211.059H768.012V220.308H755.548V235.855C755.548 237.954 756.007 239.485 756.926 240.447C757.888 241.409 759.397 241.89 761.452 241.89C763.507 241.89 765.628 241.365 767.815 240.315L766.765 249.762C764.098 250.767 761.168 251.27 757.975 251.27C748.66 251.27 744.003 246.919 744.003 238.216Z" fill="white"/>
<path d="M693.912 231.066C693.912 226.911 694.765 223.304 696.471 220.242C698.22 217.181 700.669 214.798 703.818 213.092C706.966 211.387 710.727 210.534 715.101 210.534C719.343 210.534 722.972 211.365 725.99 213.027C729.051 214.645 731.391 216.984 733.009 220.046C734.671 223.107 735.502 226.78 735.502 231.066V234.412H705.589C706.157 237.167 707.448 239.2 709.459 240.512C711.515 241.78 714.401 242.415 718.118 242.415C723.41 242.415 728.373 241.146 733.009 238.61L731.369 248.318C729.226 249.281 726.865 250.024 724.284 250.549C721.704 251.03 719.036 251.27 716.281 251.27C709.153 251.27 703.643 249.499 699.751 245.957C695.858 242.371 693.912 237.407 693.912 231.066ZM705.523 226.933H724.284C723.366 221.686 720.261 219.062 714.969 219.062C709.634 219.062 706.485 221.686 705.523 226.933Z" fill="white"/>
<path d="M635.097 196.889H636.081L657.729 225.818L679.245 196.889H680.163L691.053 250.746H678.72L673.341 222.604L662.911 236.576H652.218L641.788 222.669L636.409 250.746H624.339L635.097 196.889Z" fill="white"/>
<path d="M562.343 211.518H571.068L583.925 237.167L596.585 211.518H605.047L578.611 263.734H570.083L579.661 245.563L562.343 211.518Z" fill="white"/>
<path d="M522.876 198.136H530.748V220.308L536.193 212.174C537.242 211.824 538.423 211.54 539.735 211.321C541.047 211.102 542.315 210.993 543.54 210.993C547.169 210.993 550.362 211.846 553.117 213.551C555.872 215.213 558.037 217.531 559.611 220.505C561.186 223.479 561.973 226.933 561.973 230.869C561.973 234.936 561.076 238.501 559.283 241.562C557.534 244.623 555.063 247.007 551.871 248.712C548.722 250.418 545.005 251.27 540.719 251.27C536.652 251.27 533 250.439 529.764 248.778L522.876 251.27V198.136ZM530.748 241.496C533.503 243.595 536.718 244.645 540.391 244.645C544.546 244.645 547.826 243.442 550.231 241.037C552.636 238.632 553.839 235.352 553.839 231.197C553.839 227.043 552.658 223.763 550.296 221.358C547.935 218.909 544.721 217.684 540.653 217.684C538.904 217.684 537.155 217.925 535.406 218.406C533.7 218.843 532.147 219.477 530.748 220.308V241.496Z" fill="white"/>
</svg>
