<svg width="432" height="72" viewBox="0 0 432 72" fill="none" xmlns="http://www.w3.org/2000/svg">
<path fill-rule="evenodd" clip-rule="evenodd" d="M224.344 61.4364C226.57 62.5741 229.019 63.143 231.69 63.143C236.488 63.143 240.544 61.2633 243.858 57.504C247.271 53.7447 248.978 49.1692 248.978 43.7776C248.978 38.4354 247.271 33.8599 243.858 30.0511C240.544 26.2918 236.488 24.4121 231.69 24.4121C229.019 24.4121 226.57 24.981 224.344 26.1187C223.087 26.7761 221.986 27.5575 221.053 28.4628C220.465 29.0321 219.276 28.6423 219.276 27.8244V9.83248C219.276 9.27779 218.827 8.82812 218.272 8.82812H213.477C212.922 8.82812 212.473 9.27779 212.473 9.83248V60.9515C212.473 61.5062 212.922 61.9558 213.477 61.9558H218.295C218.849 61.9558 219.299 61.5062 219.299 60.9515V59.7307C219.299 58.9128 220.485 58.5253 221.071 59.0963C221.997 59.9999 223.088 60.7799 224.344 61.4364ZM238.813 53.2006C236.587 55.6738 233.842 56.9104 230.577 56.9104C227.263 56.9104 224.493 55.6986 222.267 53.2748C220.09 50.8015 219.002 47.6358 219.002 43.7776C219.002 39.9688 220.09 36.8278 222.267 34.3545C224.493 31.8813 227.263 30.6447 230.577 30.6447C233.842 30.6447 236.587 31.8813 238.813 34.3545C241.039 36.8278 242.152 39.9688 242.152 43.7776C242.152 47.6358 241.039 50.7768 238.813 53.2006ZM175.81 57.6524C179.272 61.3128 183.674 63.143 189.017 63.143C192.677 63.143 195.942 62.2773 198.811 60.5461C201.398 59.011 203.481 56.9509 205.057 54.3658C205.39 53.8197 205.16 53.1162 204.585 52.8358L200.506 50.8463C199.97 50.5848 199.326 50.7882 199.003 51.2893C196.582 55.0367 193.352 56.9104 189.313 56.9104C186.148 56.9104 183.427 55.8222 181.152 53.6457C179.143 51.7244 177.982 49.2633 177.67 46.2626C177.6 45.5946 178.145 45.0389 178.817 45.0389H205.02C205.665 45.0389 206.209 44.5504 206.237 43.906C206.45 38.88 204.819 33.3542 201.408 29.6801C198.242 26.1681 193.963 24.4121 188.571 24.4121C183.328 24.4121 179.025 26.267 175.661 29.9769C172.298 33.6373 170.616 38.2375 170.616 43.7775C170.616 49.3671 172.347 53.992 175.81 57.6524ZM179.597 39.3999C178.834 39.3999 178.263 38.691 178.505 37.9671C179.175 35.9571 180.255 34.3077 181.745 33.019C183.625 31.4361 185.851 30.6447 188.423 30.6447C191.539 30.6447 194.013 31.4856 195.843 33.1674C197.395 34.5156 198.374 36.1676 198.779 38.1233C198.92 38.8043 198.365 39.3999 197.669 39.3999H179.597ZM167.508 25.5993C168.231 25.5993 168.745 26.3049 168.523 26.9939L157.488 61.2162C157.346 61.657 156.936 61.9558 156.473 61.9558H151.051C150.588 61.9558 150.179 61.6579 150.036 61.218L142.182 37.0142C141.882 36.0871 140.57 36.0887 140.271 37.0165L132.484 61.2156C132.342 61.6567 131.931 61.9558 131.468 61.9558H126.122C125.659 61.9558 125.249 61.657 125.106 61.2162L114.072 26.9939C113.849 26.3049 114.363 25.5993 115.087 25.5993H119.947C120.42 25.5993 120.837 25.9109 120.97 26.3649L127.923 49.965C128.201 50.9098 129.532 50.9311 129.84 49.9957L137.643 26.3322C137.787 25.8948 138.195 25.5993 138.656 25.5993H144.159C144.621 25.5993 145.03 25.896 145.174 26.3347L152.906 49.9801C153.213 50.9174 154.546 50.8977 154.824 49.9517L161.773 26.3649C161.907 25.9109 162.323 25.5993 162.796 25.5993H167.508ZM387.434 62.5494C384.466 62.5494 381.993 61.6343 380.015 59.8041C378.085 57.9739 377.096 55.4265 377.047 52.1618V32.8362C377.047 32.2815 376.597 31.8318 376.042 31.8318H371.67C371.115 31.8318 370.666 31.3822 370.666 30.8275V26.6036C370.666 26.049 371.115 25.5993 371.67 25.5993H376.042C376.597 25.5993 377.047 25.1496 377.047 24.5949V9.83248C377.047 9.27779 377.496 8.82812 378.051 8.82812H382.868C383.423 8.82812 383.873 9.27779 383.873 9.83248V24.5949C383.873 25.1496 384.322 25.5993 384.877 25.5993H391.772C392.327 25.5993 392.776 26.049 392.776 26.6036V30.8275C392.776 31.3822 392.327 31.8318 391.772 31.8318H384.877C384.322 31.8318 383.873 32.2815 383.873 32.8362V49.9359C383.873 52.3597 384.343 54.0168 385.283 54.9071C386.222 55.748 387.286 56.1685 388.473 56.1685C389.017 56.1685 389.536 56.119 390.031 56.0201C390.191 55.9764 390.347 55.9306 390.499 55.8826C391.057 55.7059 391.682 55.9726 391.877 56.5248L393.334 60.6442C393.518 61.1647 393.248 61.7393 392.717 61.8894C391.159 62.3294 389.398 62.5494 387.434 62.5494ZM287.499 47.5616C287.499 52.0134 285.842 55.7233 282.528 58.6912C279.263 61.659 275.207 63.143 270.359 63.143C266.551 63.143 263.113 62.0053 260.046 59.7299C257.196 57.5582 255.194 54.7865 254.04 51.4148C253.854 50.8724 254.138 50.2891 254.667 50.0686L258.794 48.3491C259.42 48.0882 260.13 48.4357 260.358 49.0743C261.157 51.3114 262.314 53.0825 263.83 54.3877C265.66 55.8717 267.837 56.6136 270.359 56.6136C273.129 56.6136 275.529 55.748 277.557 54.0167C279.535 52.236 280.524 50.0843 280.524 47.5616C280.524 45.0389 279.486 42.9119 277.408 41.1807C275.38 39.4494 272.932 38.5838 270.063 38.5838H266.815C266.191 38.5838 265.685 38.0779 265.685 37.4539V33.3327C265.685 32.7087 266.191 32.2028 266.815 32.2028H269.543C272.264 32.2028 274.49 31.4609 276.221 29.9769C277.952 28.4435 278.818 26.4649 278.818 24.0412C278.818 21.8152 278.002 20.0098 276.369 18.6248C274.737 17.2398 272.585 16.5472 269.914 16.5472C265.988 16.5472 263.194 18.3792 261.533 22.0432C261.265 22.6339 260.582 22.938 259.985 22.685L255.767 20.8986C255.213 20.6639 254.936 20.0339 255.177 19.4824C256.34 16.8208 258.111 14.6306 260.491 12.9116C263.162 10.9825 266.303 10.0179 269.914 10.0179C274.416 10.0179 278.2 11.3535 281.266 14.0246C284.284 16.5967 285.792 19.9356 285.792 24.0412C285.792 28.3711 284.013 32.0629 280.456 34.5012C279.862 34.9084 279.878 35.8467 280.506 36.1989C283.48 37.8659 284.493 39.1812 285.199 40.2161C286.732 42.3925 287.499 44.841 287.499 47.5616ZM302.357 45.8551C300.527 47.1906 299.612 48.8477 299.612 50.8263C299.612 52.607 300.354 54.0909 301.838 55.2781C303.371 56.4652 305.152 57.0588 307.18 57.0588C310.049 57.0588 312.596 55.9953 314.822 53.8684C316.952 51.8776 318.085 49.562 318.221 46.9213C318.239 46.5763 318.079 46.2461 317.796 46.0479C315.707 44.5838 312.885 43.8518 309.331 43.8518C306.561 43.8518 304.237 44.5195 302.357 45.8551ZM308.441 24.4121C313.486 24.4121 317.468 25.7724 320.387 28.493C323.305 31.1641 324.764 34.8492 324.764 39.5483V60.9515C324.764 61.5062 324.315 61.9558 323.76 61.9558H318.943C318.388 61.9558 317.938 61.5062 317.938 60.9515V56.9104C315.119 61.0655 311.359 63.143 306.66 63.143C302.654 63.143 299.29 61.9558 296.57 59.5815C293.898 57.2072 292.563 54.2393 292.563 50.6779C292.563 46.9186 293.973 43.926 296.792 41.7C299.661 39.4741 303.47 38.3612 308.218 38.3612C311.516 38.3612 314.339 38.8514 316.688 39.8319C317.398 40.1283 318.235 39.6326 318.169 38.866C317.977 36.6361 317.307 34.6617 315.416 33.019C313.536 31.3372 311.335 30.4963 308.812 30.4963C305.321 30.4963 302.495 31.8467 300.334 34.5474C299.998 34.9672 299.401 35.0933 298.946 34.8068L294.641 32.0962C294.156 31.7907 294.022 31.1395 294.377 30.6889C297.67 26.5044 302.358 24.4121 308.441 24.4121ZM363.301 61.9558C363.89 61.9558 364.368 61.4781 364.368 60.8887V26.6664C364.368 26.0771 363.89 25.5993 363.301 25.5993H358.609C358.02 25.5993 357.542 26.0771 357.542 26.6664V45.7067C357.542 48.7735 356.627 51.4198 354.797 53.6458C352.967 55.8222 350.691 56.9104 347.971 56.9104C342.134 56.9104 339.141 53.9426 338.993 48.0068V26.6664C338.993 26.0771 338.515 25.5993 337.926 25.5993H333.234C332.644 25.5993 332.167 26.0771 332.167 26.6664V48.452C332.167 53.1511 333.354 56.7868 335.728 59.3589C338.152 61.8816 341.59 63.143 346.042 63.143C348.366 63.143 350.592 62.5494 352.719 61.3623C353.933 60.7 354.97 59.9455 355.83 59.0986C356.378 58.5591 357.542 58.9278 357.542 59.6967V60.8887C357.542 61.4781 358.02 61.9558 358.609 61.9558H363.301ZM400.636 8.82812C400.082 8.82812 399.632 9.27779 399.632 9.83248V60.9515C399.632 61.5062 400.082 61.9558 400.636 61.9558H405.454C406.009 61.9558 406.458 61.5062 406.458 60.9515V42.1452C406.458 39.0784 407.398 36.4073 409.278 34.1319C411.207 31.8071 413.556 30.6447 416.326 30.6447C422.114 30.6447 425.007 33.9094 425.007 40.4387V60.9515C425.007 61.5062 425.457 61.9558 426.012 61.9558H430.829C431.384 61.9558 431.834 61.5062 431.834 60.9515V39.1031C431.834 34.404 430.622 30.7931 428.198 28.2704C425.824 25.6982 422.411 24.4121 417.959 24.4121C415.634 24.4121 413.383 25.0057 411.207 26.1929C410.023 26.8534 409.008 27.6057 408.162 28.4499C407.618 28.9929 406.458 28.6273 406.458 27.8584V9.83248C406.458 9.27779 406.009 8.82812 405.454 8.82812H400.636Z" fill="#0F1222"/>
<path fill-rule="evenodd" clip-rule="evenodd" d="M77.2211 57.0219C76.6892 59.007 73.8724 59.007 73.3405 57.0219L67.1453 33.9011C67.0256 33.4541 67.0256 32.9834 67.1453 32.5364L72.6354 12.0473C73.1207 10.236 74.762 8.97656 76.6372 8.97656H84.6955C87.4197 8.97656 89.4024 11.5605 88.6974 14.1918L77.2211 57.0219ZM24.067 33.8625C24.1867 33.4155 24.1867 32.9448 24.067 32.4978L18.5873 12.0473C18.102 10.236 16.4606 8.97656 14.5855 8.97656H6.5271C3.80297 8.97656 1.82023 11.5605 2.52528 14.1918L13.9912 56.9833C14.5231 58.9684 17.3399 58.9684 17.8718 56.9833L24.067 33.8625Z" fill="#0364FF"/>
<path fill-rule="evenodd" clip-rule="evenodd" d="M41.5195 61.6806C41.3379 62.3584 41.8486 63.024 42.5503 63.024H48.6959C49.3975 63.024 49.9082 62.3584 49.7266 61.6806L46.6538 50.2128C46.3713 49.1582 44.8749 49.1582 44.5923 50.2128L41.5195 61.6806Z" fill="#0364FF"/>
<path fill-rule="evenodd" clip-rule="evenodd" d="M35.4005 69.0224C34.9299 70.7787 33.3383 72 31.52 72H23.2017C20.5601 72 18.6374 69.4943 19.3211 66.9428L36.3857 3.2568C36.9004 1.33579 38.6413 0 40.6301 0H50.5299C52.5187 0 54.2595 1.33579 54.7742 3.2568L71.8388 66.9428C72.5225 69.4943 70.5999 72 67.9583 72H59.64C57.8217 72 56.23 70.7787 55.7594 69.0224L47.4596 38.047C46.9443 36.124 44.2156 36.124 43.7003 38.047L35.4005 69.0224Z" fill="#0364FF"/>
<path fill-rule="evenodd" clip-rule="evenodd" d="M77.2445 57.0218C76.7126 59.0069 73.8958 59.0069 73.3639 57.0218L67.1687 33.901C67.0489 33.4539 67.0489 32.9833 67.1687 32.5362L75.064 3.0707C75.5493 1.25945 77.1907 0 79.0658 0H87.1242C89.8483 0 91.831 2.58396 91.126 5.21526L77.2445 57.0218ZM24.0904 33.8624C24.2101 33.4154 24.2101 32.9447 24.0904 32.4977L16.2054 3.0707C15.7201 1.25945 14.0788 0 12.2036 0H4.14526C1.42114 0 -0.561606 2.58396 0.143449 5.21526L14.0146 56.9832C14.5465 58.9683 17.3633 58.9683 17.8952 56.9832L24.0904 33.8624Z" fill="#0364FF"/>
</svg>
