<svg width="726" height="72" viewBox="0 0 726 72" fill="none" xmlns="http://www.w3.org/2000/svg">
<path fill-rule="evenodd" clip-rule="evenodd" d="M136.242 50.811C137.912 46.0576 138.732 41.0435 138.664 36.0016C138.729 30.9761 137.91 25.9789 136.242 21.2421C134.755 17.0245 132.435 13.1537 129.425 9.86256C126.468 6.69529 122.871 4.20575 118.875 2.56285C114.566 0.814332 109.955 -0.0557469 105.309 0.00294407C100.671 -0.0578331 96.0672 0.822963 91.7733 2.59284C87.7937 4.24938 84.2058 6.73339 81.2441 9.88256C78.2313 13.1646 75.9118 17.0293 74.4263 21.2421C72.759 25.9789 71.9392 30.9761 72.0049 36.0016C71.9367 41.0435 72.7565 46.0576 74.4263 50.811C75.9118 55.0238 78.2313 58.8885 81.2441 62.1705C84.2015 65.3199 87.7909 67.7982 91.7733 69.4403C100.49 72.8532 110.159 72.8532 118.875 69.4403C122.865 67.8009 126.462 65.3225 129.425 62.1705C132.437 58.8885 134.757 55.0238 136.242 50.811ZM131.408 22.7524C132.799 27.0263 133.47 31.5047 133.392 36.0019C133.474 40.5059 132.803 44.9917 131.408 49.2714C130.187 52.9425 128.231 56.322 125.662 59.201C123.188 61.9287 120.135 64.0582 116.73 65.4308C109.383 68.2716 101.252 68.2716 93.9053 65.4308C90.5052 64.0498 87.4538 61.9214 84.9738 59.201C82.3924 56.3241 80.4233 52.9447 79.1882 49.2714C77.7673 44.9965 77.076 40.5097 77.1439 36.0019C77.0893 31.5171 77.7838 27.0551 79.1981 22.8024C80.4247 19.1042 82.3941 15.7003 84.9837 12.8028C87.4682 10.0827 90.5179 7.94867 93.9152 6.55304C101.255 3.67281 109.4 3.67281 116.74 6.55304C120.142 7.94013 123.194 10.0754 125.672 12.8028C128.24 15.6885 130.192 19.0751 131.408 22.7524Z" fill="#0364FF"/>
<path fill-rule="evenodd" clip-rule="evenodd" d="M190.61 71.9981C192.268 71.9981 193.206 70.0959 192.196 68.7803L170.748 40.8389C170.168 40.0432 169.45 39.3652 168.632 38.839C171.466 38.5255 174.243 37.7913 176.875 36.659C179.182 35.6576 181.297 34.235 183.118 32.4592C184.823 30.7641 186.169 28.721 187.07 26.4593C188.012 24.0701 188.482 21.5098 188.452 18.9295C188.433 12.723 186.429 8.01646 182.441 4.80988C178.453 1.60329 172.462 0 164.467 0H148.666C147.561 0 146.666 0.895431 146.666 2V69.9981C146.666 71.1027 147.561 71.9981 148.666 71.9981H149.73C150.834 71.9981 151.73 71.1027 151.73 69.9981V41.439C151.73 40.3344 152.625 39.439 153.73 39.439H160.852C161.437 39.4335 162.022 39.4702 162.602 39.549C163.024 39.5943 163.438 39.7055 163.829 39.879C164.186 40.0259 164.513 40.2394 164.795 40.509C165.094 40.8169 165.365 41.1516 165.607 41.5089L187.93 70.7182C188.191 71.141 188.554 71.4858 188.984 71.7181C189.425 71.9192 189.903 72.0148 190.385 71.9981H190.61ZM172.025 34.4192C169.335 35.2231 166.544 35.6106 163.743 35.5692H153.731C152.627 35.5692 151.731 34.6738 151.731 33.5692V6.12002C151.731 5.01545 152.627 4.12002 153.731 4.12002H164.478C170.656 4.12669 175.356 5.36666 178.577 7.83993C181.799 10.3132 183.409 14.1098 183.409 19.2296C183.444 21.5585 182.992 23.8678 182.085 25.9995C181.2 28.0001 179.877 29.7598 178.22 31.1393C176.385 32.6461 174.28 33.761 172.025 34.4192Z" fill="#0364FF"/>
<path d="M229.333 67.4135C232.457 67.4711 235.559 66.8652 238.436 65.635C241.025 64.4999 243.341 62.8127 245.224 60.6891C247.121 58.513 248.568 55.9752 249.478 53.2254C250.468 50.2411 250.957 47.1103 250.923 43.9631V2.53792C250.923 1.13627 252.059 0 253.461 0C254.862 0 255.999 1.13626 255.999 2.53792V43.9631C256.031 47.7076 255.408 51.4284 254.158 54.9539C252.994 58.245 251.191 61.2682 248.855 63.8465C246.507 66.4233 243.644 68.4668 240.455 69.8414C233.314 72.7195 225.352 72.7195 218.212 69.8414C215.021 68.4694 212.157 66.4256 209.811 63.8465C207.472 61.2708 205.668 58.2468 204.508 54.9539C203.258 51.4284 202.635 47.7076 202.668 43.9631V2.54781C202.668 1.1407 203.808 0 205.216 0C206.623 0 207.763 1.1407 207.763 2.54781V43.9032C207.735 47.0549 208.23 50.1891 209.228 53.1754C210.139 55.9207 211.578 58.4572 213.463 60.6392C215.329 62.7804 217.635 64.4852 220.22 65.635C223.098 66.8759 226.205 67.4823 229.333 67.4135Z" fill="#0364FF"/>
<path d="M306.213 9.35152C305.996 9.86784 305.496 10.2024 304.943 10.2014C304.307 10.094 303.727 9.76946 303.298 9.28153C302.443 8.54626 301.535 7.8778 300.581 7.28189C299.232 6.42968 297.792 5.73855 296.287 5.22225C292.054 3.8964 287.521 3.93132 283.309 5.32223C281.522 5.97793 279.886 6.99878 278.503 8.3217C277.225 9.55344 276.218 11.0459 275.549 12.7009C274.887 14.3582 274.552 16.1316 274.564 17.92C274.481 19.998 274.998 22.0555 276.051 23.839C277.077 25.435 278.418 26.797 279.99 27.8382C281.729 28.9809 283.597 29.9074 285.554 30.5978C287.622 31.3376 289.759 32.0775 291.945 32.8074C294.131 33.5372 296.268 34.3471 298.335 35.2169C300.332 36.0528 302.205 37.1666 303.899 38.5264C305.533 39.8634 306.875 41.532 307.838 43.4255C308.898 45.6824 309.408 48.1651 309.325 50.6642C309.351 53.5089 308.853 56.3335 307.858 58.9927C306.894 61.5394 305.415 63.8522 303.515 65.7815C301.528 67.7641 299.162 69.3124 296.563 70.3307C293.557 71.4863 290.362 72.0496 287.149 71.9904C283.077 72.1006 279.034 71.2591 275.332 69.5309C272.799 68.2664 270.474 66.6201 268.434 64.6519C267.334 63.5894 267.222 61.898 268.036 60.6024C268.349 60.1458 268.857 59.8674 269.405 59.8526C269.837 59.9193 270.236 60.1303 270.537 60.4525L272.201 61.9122C272.851 62.5021 273.639 63.132 274.555 63.8119C275.552 64.5453 276.617 65.1781 277.735 65.7015C280.716 67.0982 283.965 67.8018 287.248 67.7612C289.756 67.805 292.25 67.3744 294.603 66.4914C296.633 65.712 298.486 64.5214 300.049 62.992C301.536 61.5266 302.694 59.7534 303.446 57.7929C304.243 55.7434 304.644 53.5574 304.628 51.3541C304.712 49.202 304.193 47.0699 303.131 45.2052C302.119 43.5981 300.775 42.2336 299.192 41.2059C297.455 40.0798 295.59 39.1701 293.638 38.4964C291.561 37.7665 289.434 37.0566 287.238 36.3567C285.042 35.6569 282.925 34.887 280.847 34.0172C278.843 33.2003 276.968 32.0886 275.283 30.7177C273.634 29.3555 272.291 27.6511 271.344 25.7186C270.27 23.3597 269.757 20.7773 269.848 18.18C269.847 15.8416 270.295 13.5255 271.167 11.3612C272.05 9.18127 273.368 7.21035 275.037 5.57219C276.857 3.83014 278.999 2.47095 281.339 1.5729C284.067 0.500364 286.972 -0.0324521 289.896 0.00317504C293.203 -0.0489667 296.488 0.541542 299.576 1.74287C301.724 2.6307 303.723 3.84007 305.509 5.32674C306.688 6.30757 306.914 7.98801 306.213 9.35152Z" fill="#0364FF"/>
<path fill-rule="evenodd" clip-rule="evenodd" d="M6.74056 0C3.01785 0 0 3.01784 0 6.74055V14.5928C0 18.3155 3.01785 21.3333 6.74055 21.3333H18.6664V65.2594C18.6664 68.9821 21.6843 72 25.407 72H33.2592C36.9819 72 39.9998 68.9821 39.9998 65.2594V14.6499C39.9999 14.6308 40 14.6118 40 14.5928V6.74056C40 3.01785 36.9821 0 33.2594 0H25.407H6.74056Z" fill="#0364FF"/>
<path d="M56.0006 21.3333C61.8917 21.3333 66.6673 16.5577 66.6673 10.6667C66.6673 4.77563 61.8917 0 56.0006 0C50.1096 0 45.334 4.77563 45.334 10.6667C45.334 16.5577 50.1096 21.3333 56.0006 21.3333Z" fill="#0364FF"/>
<path d="M339.098 5C340.81 5 342.197 6.38718 342.197 8.09836V64.9016C342.197 66.6128 340.81 68 339.098 68C337.387 68 336 66.6128 336 64.9016V8.09836C336 6.38718 337.387 5 339.098 5Z" fill="#BEBEBE"/>
<path d="M369 22.1284C369 21.0238 369.895 20.1284 371 20.1284H372.917C374.022 20.1284 374.917 21.0238 374.917 22.1284V24.5094C374.917 24.6038 374.994 24.6803 375.088 24.6803C375.149 24.6803 375.205 24.6481 375.236 24.5961C376.178 23.0269 377.596 21.7162 379.489 20.6639C381.462 19.5929 383.501 19.0574 385.608 19.0574C389.642 19.0574 392.735 20.2177 394.887 22.5382C397.083 24.8142 398.182 28.0719 398.182 32.3115V50.929C398.182 52.0335 397.286 52.929 396.182 52.929H393.996C392.891 52.929 391.996 52.0335 391.996 50.929V32.7131C391.861 27.3579 389.149 24.6803 383.86 24.6803C381.394 24.6803 379.332 25.6844 377.674 27.6926C376.015 29.6562 375.186 32.0214 375.186 34.7882V50.929C375.186 52.0335 374.291 52.929 373.186 52.929H371C369.895 52.929 369 52.0335 369 50.929V22.1284Z" fill="black"/>
<path d="M420.235 54C415.394 54 411.405 52.3488 408.267 49.0464C405.129 45.7441 403.56 41.5715 403.56 36.5287C403.56 31.5305 405.084 27.3802 408.132 24.0779C411.181 20.7309 415.08 19.0574 419.832 19.0574C424.718 19.0574 428.595 20.6416 431.464 23.8101C434.378 26.934 435.835 31.3297 435.835 36.9973C435.797 37.3773 435.477 37.6667 435.095 37.6667H410.909C410.346 37.6667 409.89 38.1327 409.945 38.6931C410.216 41.4356 411.27 43.6817 413.108 45.4317C415.17 47.3953 417.636 48.377 420.504 48.377C423.883 48.377 426.637 46.9367 428.766 44.0562C429.391 43.2094 430.519 42.8438 431.467 43.3038L433.427 44.2556C434.448 44.7514 434.862 46.0056 434.212 46.9366C432.862 48.8724 431.162 50.4459 429.111 51.6571C426.511 53.219 423.553 54 420.235 54ZM410.68 31.3757C410.481 31.9842 410.959 32.5792 411.599 32.5792H428.164C428.747 32.5792 429.212 32.0799 429.099 31.5078C428.742 29.7083 427.85 28.1911 426.421 26.9563C424.763 25.439 422.522 24.6803 419.698 24.6803C417.367 24.6803 415.349 25.3944 413.646 26.8224C412.274 28.0041 411.285 29.5218 410.68 31.3757Z" fill="black"/>
<path d="M453.551 53.4645C450.862 53.4645 448.62 52.6389 446.827 50.9877C445.079 49.3365 444.183 47.0383 444.138 44.0929V26.7514C444.138 26.1991 443.69 25.7514 443.138 25.7514H440.355C439.251 25.7514 438.355 24.8559 438.355 23.7514V22.1284C438.355 21.0238 439.251 20.1284 440.355 20.1284H443.138C443.69 20.1284 444.138 19.6807 444.138 19.1284V12.0874C444.138 10.9829 445.033 10.0874 446.138 10.0874H448.324C449.428 10.0874 450.324 10.9829 450.324 12.0874V19.1284C450.324 19.6807 450.771 20.1284 451.324 20.1284H456.392C457.497 20.1284 458.392 21.0238 458.392 22.1284V23.7514C458.392 24.8559 457.497 25.7514 456.392 25.7514H451.324C450.771 25.7514 450.324 26.1991 450.324 26.7514V42.0847C450.324 44.2714 450.75 45.7664 451.601 46.5697C452.453 47.3283 453.417 47.7077 454.493 47.7077C454.986 47.7077 455.456 47.663 455.905 47.5738C456.647 47.3722 457.469 47.7235 457.727 48.4484L458.532 50.7168C458.901 51.7548 458.36 52.9062 457.28 53.1226C456.143 53.3505 454.9 53.4645 453.551 53.4645Z" fill="black"/>
<path d="M509.175 20.1284C510.533 20.1284 511.497 21.4528 511.078 22.7447L501.75 51.5452C501.483 52.3702 500.714 52.929 499.847 52.929H496.433C495.567 52.929 494.8 52.3719 494.532 51.5487L487.733 30.6888C487.433 29.7675 486.129 29.7691 485.831 30.6911L479.09 51.5441C478.823 52.3696 478.055 52.929 477.187 52.929H473.844C472.977 52.929 472.208 52.3702 471.941 51.5452L462.613 22.7447C462.194 21.4528 463.158 20.1284 464.515 20.1284H466.726C467.612 20.1284 468.393 20.7113 468.644 21.5609L475.54 44.8634C475.545 44.8829 475.563 44.8962 475.583 44.8962C475.603 44.8962 475.621 44.8835 475.627 44.8647L483.301 21.5043C483.57 20.6833 484.337 20.1284 485.201 20.1284H488.692C489.556 20.1284 490.322 20.6833 490.592 21.5043L498.266 44.8648C498.272 44.8835 498.289 44.8962 498.309 44.8962C498.329 44.8962 498.347 44.8828 498.353 44.8634L505.184 21.5657C505.433 20.7137 506.215 20.1284 507.103 20.1284H509.175Z" fill="black"/>
<path d="M513.414 36.5287C513.414 31.4859 515.006 27.3133 518.188 24.0109C521.416 20.7086 525.472 19.0574 530.358 19.0574C535.244 19.0574 539.279 20.7086 542.461 24.0109C545.689 27.3133 547.303 31.4859 547.303 36.5287C547.303 41.6161 545.689 45.7887 542.461 49.0464C539.279 52.3488 535.244 54 530.358 54C525.472 54 521.416 52.3488 518.188 49.0464C515.006 45.7441 513.414 41.5715 513.414 36.5287ZM519.6 36.5287C519.6 40.0542 520.631 42.9103 522.693 45.097C524.755 47.2837 527.31 48.377 530.358 48.377C533.407 48.377 535.962 47.2837 538.024 45.097C540.086 42.9103 541.117 40.0542 541.117 36.5287C541.117 33.0478 540.086 30.214 538.024 28.0273C535.917 25.796 533.362 24.6803 530.358 24.6803C527.355 24.6803 524.8 25.796 522.693 28.0273C520.631 30.214 519.6 33.0478 519.6 36.5287Z" fill="black"/>
<path d="M558.451 50.929C558.451 52.0335 557.556 52.929 556.451 52.929H554.265C553.161 52.929 552.265 52.0335 552.265 50.929V22.1284C552.265 21.0238 553.161 20.1284 554.265 20.1284H556.182C557.287 20.1284 558.182 21.0238 558.182 22.1284V25.3256C558.182 25.4129 558.253 25.4836 558.34 25.4836C558.407 25.4836 558.466 25.4418 558.49 25.3795C559.13 23.6844 560.395 22.2464 562.284 21.0656C564.256 19.816 566.184 19.1913 568.066 19.1913C569.103 19.1913 570.051 19.2808 570.908 19.46C571.915 19.6706 572.402 20.7431 572.092 21.7247L571.411 23.88C571.058 24.9956 569.798 25.6246 568.632 25.5355C568.179 25.5009 567.677 25.4836 567.125 25.4836C564.794 25.4836 562.754 26.4208 561.006 28.2951C559.303 30.1694 558.451 32.3561 558.451 34.8552V50.929Z" fill="black"/>
<path d="M606 52.7247C606 52.8375 605.909 52.929 605.796 52.929H599.608C598.939 52.929 598.314 52.5941 597.943 52.0368L588.919 38.4732C588.571 37.9505 587.834 37.8738 587.386 38.3137L583.805 41.8315C583.422 42.2076 583.206 42.7217 583.206 43.2583V50.929C583.206 52.0335 582.311 52.929 581.206 52.929H579.02C577.915 52.929 577.02 52.0335 577.02 50.929V7C577.02 5.89543 577.915 5 579.02 5H581.206C582.311 5 583.206 5.89543 583.206 7V32.0898C583.206 32.983 584.288 33.4281 584.917 32.7935L596.874 20.721C597.249 20.3418 597.761 20.1284 598.295 20.1284H605.206C605.31 20.1284 605.395 20.213 605.395 20.3174C605.395 20.3678 605.375 20.4161 605.339 20.4516L593.741 31.9379C593.053 32.6191 592.951 33.6951 593.5 34.4926L605.964 52.6089C605.987 52.643 606 52.6833 606 52.7247Z" fill="black"/>
</svg>
