<svg width="512" height="104" viewBox="0 0 512 104" fill="none" xmlns="http://www.w3.org/2000/svg">
<path d="M241.152 30C242.34 30 243.303 30.9633 243.303 32.1516V71.5984C243.303 72.7867 242.34 73.75 241.152 73.75C239.963 73.75 239 72.7867 239 71.5984V32.1516C239 30.9633 239.963 30 241.152 30Z" fill="#BEBEBE"/>
<path fill-rule="evenodd" clip-rule="evenodd" d="M95.9731 62.4461C97.1501 59.1086 97.728 55.5879 97.6799 52.0477C97.7262 48.5191 97.1483 45.0102 95.9731 41.6843C94.9245 38.7229 93.2899 36.005 91.1677 33.6942C89.084 31.4703 86.5482 29.7222 83.7323 28.5687C80.6947 27.3409 77.4447 26.73 74.1704 26.7712C70.9007 26.7286 67.656 27.347 64.6295 28.5897C61.8245 29.7529 59.2956 31.497 57.208 33.7082C55.0845 36.0127 53.4496 38.7263 52.4026 41.6843C51.2274 45.0102 50.6496 48.5191 50.6959 52.0477C50.6478 55.5879 51.2256 59.1086 52.4026 62.4461C53.4496 65.4042 55.0845 68.1178 57.208 70.4223C59.2925 72.6336 61.8225 74.3737 64.6295 75.5267C70.7733 77.9231 77.5884 77.9231 83.7323 75.5267C86.5443 74.3757 89.0793 72.6354 91.1677 70.4223C93.2913 68.1178 94.9261 65.4042 95.9731 62.4461ZM92.5653 42.7448C93.5458 45.7457 94.0186 48.8902 93.9642 52.0479C94.0219 55.2104 93.549 58.3601 92.5653 61.3651C91.7046 63.9427 90.3262 66.3157 88.5153 68.3372C86.7717 70.2524 84.6197 71.7477 82.22 72.7114C77.0414 74.7061 71.3105 74.7061 66.132 72.7114C63.7354 71.7418 61.5847 70.2473 59.8367 68.3372C58.0171 66.3172 56.6293 63.9443 55.7587 61.3651C54.7572 58.3634 54.27 55.2131 54.3178 52.0479C54.2793 48.8989 54.7688 45.7659 55.7657 42.7799C56.6302 40.1832 58.0184 37.7931 59.8437 35.7586C61.5948 33.8487 63.7444 32.3503 66.139 31.3704C71.3124 29.348 77.0535 29.348 82.227 31.3704C84.6248 32.3443 86.7756 33.8436 88.5223 35.7586C90.3323 37.7848 91.7084 40.1627 92.5653 42.7448Z" fill="#0364FF"/>
<path fill-rule="evenodd" clip-rule="evenodd" d="M136.107 77.5536C136.491 77.5536 136.708 77.1144 136.474 76.8107L120.2 55.6751C119.791 55.1164 119.286 54.6403 118.709 54.2708C120.706 54.0507 122.661 53.5352 124.515 52.7402C126.14 52.037 127.63 51.0381 128.912 49.7912C130.113 48.601 131.061 47.1665 131.696 45.5784C132.36 43.9008 132.69 42.1031 132.669 40.2914C132.656 35.9335 131.245 32.6288 128.436 30.3773C125.627 28.1258 121.407 27 115.776 27H103.701C103.445 27 103.238 27.2067 103.238 27.4617V77.0919C103.238 77.3469 103.445 77.5536 103.701 77.5536H106.342C106.597 77.5536 106.805 77.3469 106.805 77.0919V55.1538C106.805 54.8988 107.012 54.6921 107.268 54.6921H113.23C113.642 54.6882 114.054 54.7141 114.462 54.7694C114.76 54.8012 115.051 54.8793 115.326 55.0011C115.578 55.1042 115.808 55.2542 116.007 55.4434C116.217 55.6597 116.409 55.8946 116.579 56.1455L132.302 76.6548C132.485 76.9517 132.741 77.1938 133.044 77.357C133.354 77.4981 133.692 77.5653 134.031 77.5536H136.107ZM121.099 51.1675C119.204 51.732 117.239 52.0041 115.266 51.975H107.269C107.013 51.975 106.806 51.7683 106.806 51.5133V30.3546C106.806 30.0996 107.013 29.8929 107.269 29.8929H115.784C120.135 29.8976 123.445 30.7682 125.714 32.5048C127.983 34.2414 129.117 36.9072 129.117 40.5021C129.142 42.1374 128.824 43.7588 128.185 45.2555C127.561 46.6603 126.629 47.8959 125.462 48.8645C124.17 49.9225 122.687 50.7053 121.099 51.1675Z" fill="#0364FF"/>
<path d="M160.875 74.3344C163.072 74.3749 165.253 73.9495 167.276 73.0857C169.096 72.2887 170.724 71.104 172.048 69.6129C173.382 68.085 174.399 66.303 175.04 64.3722C175.736 62.2768 176.079 60.0786 176.055 57.8688V27.6925C176.055 27.3101 176.366 27 176.75 27H178.93C179.313 27 179.624 27.3101 179.624 27.6925V57.8688C179.647 60.4979 179.209 63.1105 178.33 65.586C177.512 67.8968 176.244 70.0195 174.601 71.8299C172.95 73.6392 170.937 75.074 168.695 76.0392C163.674 78.0601 158.076 78.0601 153.056 76.0392C150.813 75.0759 148.799 73.6408 147.15 71.8299C145.505 70.0214 144.237 67.8981 143.421 65.586C142.542 63.1105 142.104 60.4979 142.127 57.8688V27.6925C142.127 27.3101 142.438 27 142.821 27H145.015C145.399 27 145.71 27.3101 145.71 27.6925V57.8267C145.689 60.0396 146.037 62.2403 146.739 64.3372C147.38 66.2648 148.392 68.0458 149.717 69.5778C151.029 71.0813 152.65 72.2784 154.468 73.0857C156.491 73.957 158.676 74.3827 160.875 74.3344Z" fill="#0364FF"/>
<path d="M212.84 33.5662C212.687 33.9287 212.335 34.1636 211.945 34.1629C211.497 34.0875 211.088 33.8596 210.785 33.517C210.183 33.0008 209.542 32.5314 208.869 32.113C207.919 31.5146 206.903 31.0293 205.842 30.6668C202.857 29.7359 199.661 29.7604 196.691 30.737C195.431 31.1974 194.278 31.9142 193.303 32.8431C192.402 33.708 191.692 34.7559 191.22 35.918C190.753 37.0816 190.517 38.3268 190.526 39.5825C190.467 41.0416 190.831 42.4863 191.574 43.7385C192.297 44.8592 193.243 45.8155 194.351 46.5467C195.578 47.349 196.895 47.9995 198.274 48.4842C199.732 49.0037 201.239 49.5232 202.78 50.0357C204.321 50.5482 205.828 51.1168 207.286 51.7276C208.694 52.3145 210.014 53.0966 211.209 54.0513C212.361 54.9901 213.307 56.1617 213.986 57.4912C214.734 59.0759 215.093 60.8192 215.034 62.5739C215.053 64.5713 214.702 66.5546 214 68.4218C213.321 70.2099 212.277 71.8339 210.938 73.1886C209.537 74.5807 207.869 75.6678 206.036 76.3828C203.917 77.1942 201.665 77.5897 199.399 77.5482C196.528 77.6255 193.677 77.0346 191.067 75.8212C188.945 74.7663 187.03 73.3329 185.414 71.5917C185.138 71.2938 185.106 70.8479 185.322 70.5043L185.923 69.5521C186.143 69.2314 186.502 69.0359 186.888 69.0255C187.193 69.0724 187.474 69.2206 187.686 69.4468L188.86 70.4717C189.318 70.8859 189.873 71.3282 190.519 71.8056C191.222 72.3205 191.973 72.7649 192.761 73.1324C194.863 74.113 197.154 74.6071 199.468 74.5786C201.237 74.6093 202.996 74.307 204.655 73.687C206.086 73.1397 207.392 72.3037 208.494 71.2299C209.542 70.201 210.359 68.9559 210.889 67.5794C211.451 66.1403 211.734 64.6054 211.723 63.0583C211.782 61.5472 211.416 60.0501 210.667 58.7409C209.954 57.6125 209.006 56.6543 207.89 55.9327C206.665 55.1421 205.35 54.5033 203.974 54.0303C202.509 53.5178 201.01 53.0193 199.461 52.5279C197.913 52.0365 196.42 51.4959 194.955 50.8852C193.543 50.3116 192.221 49.531 191.033 48.5685C189.87 47.612 188.923 46.4152 188.256 45.0584C187.498 43.4021 187.136 41.5888 187.2 39.7651C187.2 38.1232 187.516 36.4969 188.131 34.9773C188.753 33.4466 189.682 32.0628 190.859 30.9125C192.143 29.6893 193.653 28.735 195.303 28.1044C197.226 27.3513 199.274 26.9772 201.336 27.0022C203.667 26.9656 205.984 27.3802 208.161 28.2238C210.027 28.992 211.735 30.1032 213.197 31.4991C213.484 31.7723 213.545 32.2018 213.363 32.5533L212.84 33.5662Z" fill="#0364FF"/>
<path fill-rule="evenodd" clip-rule="evenodd" d="M4.75143 27C2.12729 27 0 29.119 0 31.7329V37.2463C0 39.8602 2.12729 41.9792 4.75143 41.9792H13.158V72.822C13.158 75.4359 15.2853 77.5549 17.9094 77.5549H23.4445C26.0686 77.5549 28.1959 75.4359 28.1959 72.822V37.2864C28.196 37.2731 28.1961 37.2597 28.1961 37.2463V31.7329C28.1961 29.119 26.0688 27 23.4446 27H17.9094H4.75143Z" fill="#0364FF"/>
<path d="M39.4751 41.9792C43.6277 41.9792 46.9941 38.626 46.9941 34.4896C46.9941 30.3532 43.6277 27 39.4751 27C35.3225 27 31.9562 30.3532 31.9562 34.4896C31.9562 38.626 35.3225 41.9792 39.4751 41.9792Z" fill="#1AC7FE"/>
<path d="M264 51.9208C264 48.4732 265.063 45.6206 267.188 43.363C269.344 41.1053 272.053 39.9765 275.316 39.9765C278.58 39.9765 281.274 41.1053 283.399 43.363C285.555 45.6206 286.633 48.4732 286.633 51.9208C286.633 55.3988 285.555 58.2514 283.399 60.4786C281.274 62.7362 278.58 63.8651 275.316 63.8651C272.053 63.8651 269.344 62.7362 267.188 60.4786C265.063 58.2209 264 55.3683 264 51.9208ZM268.131 51.9208C268.131 54.331 268.82 56.2836 270.197 57.7785C271.574 59.2734 273.281 60.0209 275.316 60.0209C277.352 60.0209 279.059 59.2734 280.436 57.7785C281.813 56.2836 282.501 54.331 282.501 51.9208C282.501 49.5411 281.813 47.6037 280.436 46.1088C279.029 44.5833 277.322 43.8206 275.316 43.8206C273.311 43.8206 271.604 44.5833 270.197 46.1088C268.82 47.6037 268.131 49.5411 268.131 51.9208Z" fill="black"/>
<path d="M300.944 60.0209C302.92 60.0209 304.581 59.2582 305.928 57.7327C307.276 56.2378 307.949 54.3005 307.949 51.9208C307.949 49.5716 307.276 47.6342 305.928 46.1088C304.581 44.5833 302.92 43.8206 300.944 43.8206C298.938 43.8206 297.261 44.5833 295.914 46.1088C294.597 47.6342 293.938 49.5716 293.938 51.9208C293.938 54.3005 294.597 56.253 295.914 57.7785C297.261 59.2734 298.938 60.0209 300.944 60.0209ZM301.617 63.8651C300.001 63.8651 298.519 63.5142 297.172 62.8125C295.874 62.1214 294.867 61.2084 294.151 60.0734C294.13 60.0409 294.095 60.0209 294.056 60.0209C293.992 60.0209 293.941 60.0747 293.945 60.1385L294.118 63.1328V71.6289C294.118 72.3959 293.496 73.0178 292.729 73.0178H291.376C290.608 73.0178 289.987 72.3959 289.987 71.6289V42.0976C289.987 41.3305 290.608 40.7087 291.376 40.7087H292.549C293.317 40.7087 293.938 41.3305 293.938 42.0976V43.7052C293.938 43.7689 293.99 43.8206 294.054 43.8206C294.094 43.8206 294.131 43.7999 294.152 43.7661C294.869 42.6321 295.875 41.7197 297.172 41.029C298.519 40.3273 300.001 39.9765 301.617 39.9765C304.521 39.9765 306.976 41.1358 308.982 43.4545C311.048 45.8037 312.08 48.6258 312.08 51.9208C312.08 55.2462 311.048 58.0683 308.982 60.387C306.976 62.7057 304.521 63.8651 301.617 63.8651Z" fill="black"/>
<path d="M325.744 63.8651C322.511 63.8651 319.846 62.7362 317.751 60.4786C315.655 58.2209 314.607 55.3683 314.607 51.9208C314.607 48.5037 315.625 45.6664 317.661 43.4087C319.697 41.1206 322.301 39.9765 325.474 39.9765C328.738 39.9765 331.327 41.0595 333.243 43.2257C335.189 45.3613 336.162 48.3665 336.162 52.2411C336.137 52.5008 335.918 52.6987 335.657 52.6987H320.256C319.474 52.6987 318.832 53.3481 318.969 54.1179C319.245 55.6708 319.917 56.9672 320.984 58.0073C322.361 59.3497 324.008 60.0209 325.924 60.0209C328.163 60.0209 329.992 59.0508 331.409 57.1106C331.846 56.5119 332.643 56.2533 333.307 56.5834L334.534 57.1935C335.231 57.5398 335.514 58.397 335.076 59.0397C334.175 60.3615 333.04 61.436 331.671 62.2633C329.935 63.3311 327.959 63.8651 325.744 63.8651ZM319.671 47.5824C319.311 48.392 319.981 49.2207 320.867 49.2207H330.261C331.07 49.2207 331.728 48.5202 331.471 47.753C331.165 46.8391 330.633 46.047 329.875 45.3766C328.768 44.3393 327.271 43.8206 325.385 43.8206C323.828 43.8206 322.481 44.3088 321.343 45.285C320.631 45.9123 320.074 46.6781 319.671 47.5824Z" fill="black"/>
<path d="M339.94 42.0976C339.94 41.3305 340.562 40.7087 341.329 40.7087H342.503C343.27 40.7087 343.892 41.3305 343.892 42.0976V43.7069C343.892 43.7697 343.943 43.8206 344.006 43.8206C344.046 43.8206 344.084 43.7987 344.105 43.7636C344.734 42.6906 345.681 41.7943 346.946 41.0748C348.263 40.3426 349.625 39.9765 351.032 39.9765C353.726 39.9765 355.792 40.7697 357.229 42.3562C358.696 43.9121 359.429 46.1393 359.429 49.0377V61.744C359.429 62.511 358.808 63.1328 358.041 63.1328H356.687C355.92 63.1328 355.298 62.511 355.298 61.744V49.3122C355.208 45.6511 353.397 43.8206 349.864 43.8206C348.218 43.8206 346.841 44.5071 345.733 45.88C344.625 47.2224 344.072 48.8393 344.072 50.7309V61.7439C344.072 62.511 343.45 63.1328 342.683 63.1328H341.329C340.562 63.1328 339.94 62.511 339.94 61.744V42.0976Z" fill="black"/>
<path d="M367.021 30.3661C367.789 30.3661 368.41 30.9879 368.41 31.755V61.744C368.41 62.511 367.789 63.1328 367.021 63.1328H365.668C364.901 63.1328 364.279 62.511 364.279 61.744V31.755C364.279 30.9879 364.901 30.3661 365.668 30.3661H367.021Z" fill="black"/>
<path d="M371.968 51.9208C371.968 48.4732 373.031 45.6206 375.156 43.363C377.312 41.1053 380.021 39.9765 383.284 39.9765C386.547 39.9765 389.242 41.1053 391.367 43.363C393.523 45.6206 394.6 48.4732 394.6 51.9208C394.6 55.3988 393.523 58.2514 391.367 60.4786C389.242 62.7362 386.547 63.8651 383.284 63.8651C380.021 63.8651 377.312 62.7362 375.156 60.4786C373.031 58.2209 371.968 55.3683 371.968 51.9208ZM376.099 51.9208C376.099 54.331 376.788 56.2836 378.165 57.7785C379.542 59.2734 381.248 60.0209 383.284 60.0209C385.32 60.0209 387.026 59.2734 388.403 57.7785C389.781 56.2836 390.469 54.331 390.469 51.9208C390.469 49.5411 389.781 47.6037 388.403 46.1088C386.996 44.5833 385.29 43.8206 383.284 43.8206C381.278 43.8206 379.572 44.5833 378.165 46.1088C376.788 47.6037 376.099 49.5411 376.099 51.9208Z" fill="black"/>
<path d="M408.233 60.0209C410.268 60.0209 411.93 59.2734 413.217 57.7785C414.564 56.2836 415.238 54.331 415.238 51.9208C415.238 49.5716 414.564 47.6342 413.217 46.1088C411.9 44.5833 410.238 43.8206 408.233 43.8206C406.257 43.8206 404.595 44.5833 403.248 46.1088C401.901 47.6342 401.227 49.5716 401.227 51.9208C401.227 54.3005 401.901 56.2378 403.248 57.7327C404.595 59.2582 406.257 60.0209 408.233 60.0209ZM408.098 73.75C406.87 73.75 405.718 73.5822 404.64 73.2466C403.562 72.9415 402.574 72.4991 401.676 71.9195C400.808 71.3398 400.06 70.6533 399.431 69.8601C399.068 69.4021 398.755 68.9137 398.492 68.3948C398.163 67.746 398.513 66.9872 399.183 66.7045L400.529 66.1367C401.271 65.824 402.109 66.2183 402.532 66.9033C402.968 67.6109 403.537 68.2151 404.236 68.716C405.344 69.5092 406.631 69.9058 408.098 69.9058C410.343 69.9058 412.095 69.2194 413.352 67.8465C414.609 66.4736 415.238 64.582 415.238 62.1718V60.1375C415.238 60.0731 415.186 60.0209 415.121 60.0209C415.082 60.0209 415.045 60.0408 415.024 60.0736C414.248 61.2387 413.197 62.1669 411.87 62.8583C410.553 63.5295 409.116 63.8651 407.559 63.8651C404.685 63.8651 402.215 62.721 400.15 60.4328C398.114 58.0836 397.096 55.2462 397.096 51.9208C397.096 48.5953 398.114 45.7732 400.15 43.4545C402.215 41.1358 404.685 39.9765 407.559 39.9765C409.116 39.9765 410.553 40.3273 411.87 41.029C413.197 41.6903 414.248 42.6033 415.024 43.7679C415.045 43.8007 415.082 43.8206 415.121 43.8206C415.186 43.8206 415.238 43.7684 415.238 43.704V42.0976C415.238 41.3305 415.86 40.7087 416.627 40.7087H417.801C418.568 40.7087 419.19 41.3305 419.19 42.0976V62.1718C419.19 65.7719 418.187 68.594 416.181 70.6381C414.145 72.7127 411.451 73.75 408.098 73.75Z" fill="black"/>
<path d="M429.571 32.9746C429.571 33.7984 429.286 34.5001 428.718 35.0798C428.149 35.6594 427.46 35.9493 426.652 35.9493C425.844 35.9493 425.155 35.6594 424.586 35.0798C424.017 34.5001 423.733 33.7984 423.733 32.9746C423.733 32.1509 424.017 31.4492 424.586 30.8695C425.155 30.2898 425.844 30 426.652 30C427.46 30 428.149 30.2898 428.718 30.8695C429.286 31.4492 429.571 32.1509 429.571 32.9746ZM427.329 40.7087C428.096 40.7087 428.718 41.3305 428.718 42.0976V61.744C428.718 62.511 428.096 63.1328 427.329 63.1328H425.975C425.208 63.1328 424.586 62.511 424.586 61.744V42.0976C424.586 41.3305 425.208 40.7087 425.975 40.7087H427.329Z" fill="black"/>
<path d="M434.094 42.0976C434.094 41.3305 434.716 40.7087 435.483 40.7087H436.657C437.424 40.7087 438.046 41.3305 438.046 42.0976V43.7069C438.046 43.7697 438.097 43.8206 438.159 43.8206C438.2 43.8206 438.238 43.7987 438.258 43.7636C438.887 42.6906 439.834 41.7943 441.099 41.0748C442.417 40.3426 443.779 39.9765 445.186 39.9765C447.88 39.9765 449.946 40.7697 451.383 42.3562C452.85 43.9121 453.583 46.1393 453.583 49.0377V61.744C453.583 62.511 452.961 63.1328 452.194 63.1328H450.841C450.074 63.1328 449.452 62.511 449.452 61.744V49.3122C449.362 45.6511 447.551 43.8206 444.018 43.8206C442.372 43.8206 440.995 44.5071 439.887 45.88C438.779 47.2224 438.225 48.8393 438.225 50.7309V61.7439C438.225 62.511 437.604 63.1328 436.837 63.1328H435.483C434.716 63.1328 434.094 62.511 434.094 61.744V42.0976Z" fill="black"/>
<g opacity="0.5">
<path d="M473.685 63.3333C472.822 63.3333 472.03 63.1442 471.31 62.766C470.618 62.3937 470.08 61.9019 469.697 61.2906C469.686 61.2725 469.666 61.2614 469.645 61.2614C469.611 61.2614 469.583 61.2889 469.583 61.3229V62.2442C469.583 62.6278 469.272 62.9387 468.889 62.9387H468.167C467.783 62.9387 467.472 62.6278 467.472 62.2442V45.9722C467.472 45.5887 467.783 45.2778 468.167 45.2778H468.985C469.368 45.2778 469.679 45.5887 469.679 45.9722V50.8523L469.587 52.4669C469.585 52.5009 469.612 52.5296 469.646 52.5296C469.667 52.5296 469.686 52.5189 469.697 52.5014C470.079 51.8896 470.617 51.3975 471.31 51.025C472.03 50.6468 472.822 50.4576 473.685 50.4576C475.237 50.4576 476.548 51.0825 477.62 52.3323C478.723 53.5985 479.275 55.1195 479.275 56.8955C479.275 58.6879 478.723 60.209 477.62 61.4587C476.548 62.7085 475.237 63.3333 473.685 63.3333ZM473.326 61.2614C474.381 61.2614 475.269 60.8503 475.988 60.0281C476.708 59.2223 477.068 58.1781 477.068 56.8955C477.068 55.6293 476.708 54.5851 475.988 53.7629C475.269 52.9407 474.381 52.5296 473.326 52.5296C472.254 52.5296 471.358 52.9407 470.639 53.7629C469.935 54.5851 469.583 55.6293 469.583 56.8955C469.583 58.1781 469.935 59.2305 470.639 60.0527C471.358 60.8585 472.254 61.2614 473.326 61.2614Z" fill="black"/>
<path d="M486.572 63.3333C484.845 63.3333 483.421 62.7249 482.302 61.508C481.182 60.2912 480.622 58.7537 480.622 56.8955C480.622 55.0538 481.166 53.5245 482.254 52.3076C483.341 51.0743 484.733 50.4576 486.428 50.4576C488.171 50.4576 489.555 51.0414 490.578 52.2089C491.618 53.36 492.137 54.9798 492.137 57.0681C492.124 57.2081 492.006 57.3148 491.866 57.3148H483.591C483.2 57.3148 482.88 57.6391 482.943 58.0248C483.085 58.8862 483.447 59.6033 484.029 60.1761C484.765 60.8996 485.644 61.2614 486.668 61.2614C487.878 61.2614 488.864 60.7264 489.624 59.6563C489.84 59.3526 490.242 59.2228 490.575 59.3899L491.317 59.7621C491.663 59.9356 491.803 60.3612 491.59 60.6839C491.103 61.4186 490.486 62.014 489.738 62.47C488.811 63.0456 487.755 63.3333 486.572 63.3333ZM483.301 54.6197C483.129 55.0275 483.463 55.4402 483.906 55.4402H489.037C489.441 55.4402 489.769 55.0912 489.649 54.705C489.489 54.1888 489.199 53.7432 488.779 53.3682C488.187 52.8091 487.387 52.5296 486.38 52.5296C485.548 52.5296 484.829 52.7927 484.221 53.3189C483.825 53.6713 483.518 54.1049 483.301 54.6197Z" fill="black"/>
<path d="M498.458 63.136C497.499 63.136 496.699 62.8318 496.059 62.2234C495.436 61.6149 495.116 60.7681 495.1 59.6828V53.6187C495.1 53.2352 494.789 52.9242 494.405 52.9242H493.731C493.348 52.9242 493.037 52.6133 493.037 52.2298V51.5467C493.037 51.1632 493.348 50.8523 493.731 50.8523H494.405C494.789 50.8523 495.1 50.5414 495.1 50.1579V47.8468C495.1 47.4633 495.411 47.1524 495.794 47.1524H496.612C496.996 47.1524 497.307 47.4633 497.307 47.8468V50.1579C497.307 50.5414 497.618 50.8523 498.001 50.8523H499.491C499.875 50.8523 500.185 51.1632 500.185 51.5467V52.2298C500.185 52.6133 499.875 52.9242 499.491 52.9242H498.001C497.618 52.9242 497.307 53.2352 497.307 53.6187V58.9428C497.307 59.7485 497.459 60.2994 497.763 60.5954C498.066 60.8749 498.41 61.0147 498.794 61.0147C498.97 61.0147 499.138 60.9983 499.298 60.9654C499.561 60.8915 499.855 61.0168 499.944 61.2754L500.253 62.1744C500.375 62.5309 500.191 62.924 499.823 63.0029C499.408 63.0916 498.953 63.136 498.458 63.136Z" fill="black"/>
<path d="M503.658 59.2388C503.658 59.8307 503.898 60.3241 504.378 60.7187C504.873 61.1134 505.449 61.3107 506.105 61.3107C507.032 61.3107 507.856 60.9572 508.576 60.2501C509.225 59.6258 509.588 58.9054 509.664 58.0888C509.684 57.8807 509.588 57.6784 509.412 57.5645C508.751 57.1349 507.88 56.9202 506.801 56.9202C505.905 56.9202 505.153 57.1421 504.546 57.5861C503.954 58.0301 503.658 58.581 503.658 59.2388ZM506.513 50.4576C508.144 50.4576 509.431 50.9099 510.375 51.8143C511.319 52.7023 511.79 53.9273 511.79 55.4895V62.2442C511.79 62.6278 511.479 62.9387 511.096 62.9387H510.374C509.99 62.9387 509.679 62.6278 509.679 62.2442V61.3238C509.679 61.2893 509.651 61.2614 509.617 61.2614C509.596 61.2614 509.576 61.2721 509.565 61.2895C508.655 62.6521 507.446 63.3333 505.937 63.3333C504.642 63.3333 503.554 62.9387 502.674 62.1494C501.811 61.36 501.379 60.3734 501.379 59.1894C501.379 57.9397 501.835 56.9448 502.746 56.2048C503.674 55.4649 504.905 55.0949 506.441 55.0949C507.525 55.0949 508.451 55.2634 509.218 55.6006C509.428 55.693 509.679 55.5466 509.679 55.3169C509.679 54.5275 509.375 53.8616 508.768 53.3189C508.16 52.7598 507.448 52.4803 506.633 52.4803C505.627 52.4803 504.792 52.8364 504.128 53.5488C503.87 53.8257 503.451 53.9187 503.133 53.7129L502.359 53.2113C502.032 52.9996 501.939 52.5567 502.195 52.2631C503.244 51.0595 504.683 50.4576 506.513 50.4576Z" fill="black"/>
</g>
</svg>
