<svg width="78" height="78" viewBox="0 0 78 78" fill="none" xmlns="http://www.w3.org/2000/svg">
<path fill-rule="evenodd" clip-rule="evenodd" d="M13 6.5H29.25C32.8399 6.5 35.75 9.41015 35.75 13V29.25C35.75 32.8399 32.8399 35.75 29.25 35.75H13C9.41015 35.75 6.5 32.8399 6.5 29.25V13C6.5 9.41015 9.41015 6.5 13 6.5ZM13 42.25H29.25C32.8399 42.25 35.75 45.1601 35.75 48.75V65C35.75 68.5899 32.8399 71.5 29.25 71.5H13C9.41015 71.5 6.5 68.5899 6.5 65V48.75C6.5 45.1601 9.41015 42.25 13 42.25ZM58.5 42.25H52V52H42.25V58.5H52V68.25H58.5V58.5H68.25V52H58.5V42.25ZM13 65V48.75H29.25V65H13ZM13 29.25V13H29.25V29.25H13ZM48.75 6.5H65C68.5899 6.5 71.5 9.41015 71.5 13V29.25C71.5 32.8399 68.5899 35.75 65 35.75H48.75C45.1601 35.75 42.25 32.8399 42.25 29.25V13C42.25 9.41015 45.1601 6.5 48.75 6.5ZM48.75 29.25V13H65V29.25H48.75Z" fill="white"/>
</svg>
