<svg width="472" height="321" viewBox="0 0 472 321" fill="none" xmlns="http://www.w3.org/2000/svg">
<g opacity="0.2" filter="url(#filter0_b_2464_9028)">
<rect x="0.554688" y="83.5345" width="263.49" height="53.6519" rx="9.53811" fill="white" fill-opacity="0.9"/>
<rect x="0.554688" y="83.5345" width="263.49" height="53.6519" rx="9.53811" fill="url(#paint0_linear_2464_9028)"/>
</g>
<rect x="22.0156" y="100.226" width="39.3447" height="15.4994" rx="7.74972" fill="#3F83F8"/>
<rect x="47.0527" y="101.418" width="13.1149" height="13.1149" rx="6.55745" fill="white"/>
<rect opacity="0.32" x="85.2051" y="97.8417" width="95.3811" height="9.53811" rx="4.76906" fill="#3F83F8"/>
<rect x="85.2051" y="110.957" width="46.4983" height="9.53811" rx="4.76906" fill="#3F83F8"/>
<g opacity="0.2" filter="url(#filter1_b_2464_9028)">
<rect width="263.49" height="53.6519" rx="9.53811" transform="matrix(-1 0 0 1 471.5 144.34)" fill="white" fill-opacity="0.3"/>
<rect x="-1.19226" y="1.19226" width="261.106" height="51.2673" rx="8.34585" transform="matrix(-1 0 0 1 469.115 144.34)" stroke="url(#paint1_linear_2464_9028)" stroke-width="2.38453"/>
</g>
<rect width="39.3447" height="15.4994" rx="7.74972" transform="matrix(-1 0 0 1 450.039 161.628)" fill="#76A9FA"/>
<rect width="13.1149" height="13.1149" rx="6.55745" transform="matrix(-1 0 0 1 448.848 162.82)" fill="#E1EFFE"/>
<rect opacity="0.2" width="95.3811" height="9.53811" rx="4.76906" transform="matrix(-1 0 0 1 386.85 159.243)" fill="#3F83F8"/>
<rect width="46.4983" height="9.53811" rx="4.76906" transform="matrix(-1 0 0 1 386.85 172.358)" fill="#76A9FA"/>
<g filter="url(#filter2_f_2464_9028)">
<g opacity="0.2" filter="url(#filter3_b_2464_9028)">
<rect x="23.209" y="163.416" width="194.339" height="53.6519" rx="9.53811" fill="white" fill-opacity="0.3"/>
<rect x="24.4012" y="164.609" width="191.954" height="51.2673" rx="8.34585" stroke="url(#paint2_linear_2464_9028)" stroke-width="2.38453"/>
</g>
<rect x="44.6699" y="180.704" width="39.3447" height="15.4994" rx="7.74972" fill="#76A9FA"/>
<rect x="45.8613" y="181.896" width="13.1149" height="13.1149" rx="6.55745" fill="#E1EFFE"/>
<rect opacity="0.2" x="100.707" y="178.32" width="95.3811" height="9.53811" rx="4.76906" fill="#3F83F8"/>
<rect x="100.707" y="191.434" width="46.4983" height="9.53811" rx="4.76906" fill="#76A9FA"/>
</g>
<g filter="url(#filter4_f_2464_9028)">
<g opacity="0.2" filter="url(#filter5_b_2464_9028)">
<rect width="194.339" height="53.6519" rx="9.53811" transform="matrix(-1 0 0 1 410.693 251.644)" fill="white" fill-opacity="0.3"/>
<rect x="-1.19226" y="1.19226" width="191.954" height="51.2673" rx="8.34585" transform="matrix(-1 0 0 1 408.309 251.644)" stroke="url(#paint3_linear_2464_9028)" stroke-width="2.38453"/>
</g>
<rect width="39.3447" height="15.4994" rx="7.74972" transform="matrix(-1 0 0 1 389.232 268.932)" fill="#76A9FA"/>
<rect width="13.1149" height="13.1149" rx="6.55745" transform="matrix(-1 0 0 1 388.041 270.124)" fill="#E1EFFE"/>
<rect opacity="0.2" width="95.3811" height="9.53811" rx="4.76906" transform="matrix(-1 0 0 1 333.195 266.547)" fill="#3F83F8"/>
<rect width="46.4983" height="9.53811" rx="4.76906" transform="matrix(-1 0 0 1 333.195 279.662)" fill="#76A9FA"/>
</g>
<g filter="url(#filter6_f_2464_9028)">
<g opacity="0.2" filter="url(#filter7_b_2464_9028)">
<rect width="194.339" height="53.6519" rx="9.53811" transform="matrix(-1 0 0 1 388.039 65.6506)" fill="white" fill-opacity="0.3"/>
<rect x="-1.19226" y="1.19226" width="191.954" height="51.2673" rx="8.34585" transform="matrix(-1 0 0 1 385.655 65.6506)" stroke="url(#paint4_linear_2464_9028)" stroke-width="2.38453"/>
</g>
<rect width="39.3447" height="15.4994" rx="7.74972" transform="matrix(-1 0 0 1 366.578 82.9384)" fill="#76A9FA"/>
<rect width="13.1149" height="13.1149" rx="6.55745" transform="matrix(-1 0 0 1 365.385 84.1307)" fill="#E1EFFE"/>
<rect opacity="0.2" width="95.3811" height="9.53811" rx="4.76906" transform="matrix(-1 0 0 1 310.541 80.554)" fill="#3F83F8"/>
<rect width="46.4983" height="9.53811" rx="4.76906" transform="matrix(-1 0 0 1 310.541 93.6688)" fill="#76A9FA"/>
</g>
<g filter="url(#filter8_b_2464_9028)">
<rect x="147.203" y="53.728" width="189.57" height="230.107" rx="23.8453" fill="url(#paint5_radial_2464_9028)"/>
<rect x="147.799" y="54.3242" width="188.378" height="228.915" rx="23.2491" stroke="url(#paint6_linear_2464_9028)" stroke-width="1.19226"/>
<rect x="162.697" y="125.817" width="157.088" height="20.5946" rx="10.2973" stroke="white" stroke-width="0.596132"/>
<path fill-rule="evenodd" clip-rule="evenodd" d="M201.673 133.927C201.177 133.452 200.514 133.194 199.829 133.205C198.575 133.205 197.51 134.052 197.13 135.194C196.928 135.792 196.928 136.44 197.13 137.038H197.132C197.513 138.177 198.577 139.025 199.831 139.025C200.478 139.025 201.034 138.859 201.465 138.566V138.565C201.972 138.229 202.318 137.7 202.426 137.101H199.829V135.247H204.363C204.42 135.569 204.446 135.898 204.446 136.225C204.446 137.69 203.924 138.929 203.015 139.767L203.016 139.768C202.219 140.504 201.126 140.931 199.829 140.931C198.011 140.931 196.349 139.904 195.533 138.278C194.851 136.917 194.851 135.314 195.533 133.953C196.349 132.325 198.011 131.299 199.829 131.299C201.023 131.285 202.177 131.734 203.046 132.552L201.673 133.927Z" fill="white"/>
<path d="M213.121 134.415H212.269C212.236 134.233 212.175 134.072 212.086 133.934C211.997 133.795 211.888 133.677 211.758 133.581C211.629 133.484 211.484 133.411 211.324 133.362C211.166 133.313 210.997 133.288 210.819 133.288C210.497 133.288 210.208 133.369 209.953 133.531C209.7 133.694 209.5 133.932 209.352 134.246C209.206 134.559 209.133 134.942 209.133 135.395C209.133 135.851 209.206 136.236 209.352 136.55C209.5 136.863 209.701 137.101 209.956 137.261C210.211 137.422 210.497 137.502 210.816 137.502C210.993 137.502 211.16 137.478 211.319 137.431C211.479 137.381 211.624 137.309 211.753 137.215C211.882 137.12 211.992 137.004 212.081 136.867C212.172 136.728 212.235 136.57 212.269 136.391L213.121 136.394C213.076 136.669 212.988 136.923 212.857 137.154C212.727 137.384 212.561 137.583 212.357 137.751C212.155 137.917 211.923 138.046 211.663 138.137C211.402 138.228 211.118 138.274 210.811 138.274C210.326 138.274 209.895 138.159 209.516 137.929C209.137 137.697 208.838 137.366 208.62 136.935C208.403 136.505 208.295 135.991 208.295 135.395C208.295 134.797 208.404 134.283 208.623 133.854C208.841 133.424 209.14 133.094 209.519 132.864C209.897 132.632 210.328 132.516 210.811 132.516C211.107 132.516 211.384 132.559 211.641 132.645C211.9 132.729 212.132 132.853 212.338 133.017C212.543 133.179 212.714 133.378 212.848 133.614C212.983 133.847 213.074 134.114 213.121 134.415Z" fill="white"/>
<path d="M215.833 138.282C215.44 138.282 215.097 138.191 214.803 138.011C214.51 137.83 214.283 137.578 214.121 137.253C213.958 136.928 213.877 136.549 213.877 136.115C213.877 135.679 213.958 135.297 214.121 134.971C214.283 134.644 214.51 134.391 214.803 134.21C215.097 134.029 215.44 133.939 215.833 133.939C216.227 133.939 216.57 134.029 216.863 134.21C217.156 134.391 217.384 134.644 217.546 134.971C217.708 135.297 217.789 135.679 217.789 136.115C217.789 136.549 217.708 136.928 217.546 137.253C217.384 137.578 217.156 137.83 216.863 138.011C216.57 138.191 216.227 138.282 215.833 138.282ZM215.836 137.595C216.091 137.595 216.302 137.527 216.47 137.392C216.637 137.257 216.761 137.078 216.841 136.853C216.923 136.629 216.964 136.382 216.964 136.112C216.964 135.844 216.923 135.597 216.841 135.373C216.761 135.147 216.637 134.965 216.47 134.828C216.302 134.692 216.091 134.623 215.836 134.623C215.579 134.623 215.366 134.692 215.197 134.828C215.029 134.965 214.904 135.147 214.823 135.373C214.742 135.597 214.702 135.844 214.702 136.112C214.702 136.382 214.742 136.629 214.823 136.853C214.904 137.078 215.029 137.257 215.197 137.392C215.366 137.527 215.579 137.595 215.836 137.595Z" fill="white"/>
<path d="M219.517 135.701V138.197H218.701V133.994H219.485V134.678H219.536C219.633 134.455 219.784 134.277 219.99 134.142C220.197 134.007 220.459 133.939 220.774 133.939C221.06 133.939 221.31 133.999 221.525 134.12C221.74 134.238 221.906 134.415 222.025 134.651C222.143 134.886 222.202 135.177 222.202 135.524V138.197H221.386V135.622C221.386 135.317 221.306 135.079 221.148 134.908C220.99 134.735 220.772 134.648 220.495 134.648C220.306 134.648 220.137 134.689 219.99 134.771C219.844 134.853 219.729 134.973 219.643 135.132C219.559 135.289 219.517 135.479 219.517 135.701Z" fill="white"/>
<path d="M225.256 133.994V134.651H222.964V133.994H225.256ZM223.579 132.987H224.396V136.963C224.396 137.122 224.419 137.241 224.467 137.321C224.514 137.4 224.575 137.454 224.65 137.483C224.726 137.51 224.809 137.524 224.898 137.524C224.964 137.524 225.021 137.519 225.07 137.51C225.12 137.501 225.158 137.494 225.185 137.488L225.333 138.164C225.285 138.182 225.218 138.201 225.131 138.219C225.043 138.239 224.934 138.25 224.803 138.252C224.588 138.255 224.388 138.217 224.202 138.137C224.016 138.056 223.866 137.932 223.751 137.765C223.636 137.597 223.579 137.386 223.579 137.132V132.987Z" fill="white"/>
<path d="M226.16 138.197V133.994H226.976V138.197H226.16ZM226.572 133.345C226.43 133.345 226.308 133.298 226.206 133.203C226.106 133.106 226.056 132.991 226.056 132.858C226.056 132.723 226.106 132.608 226.206 132.513C226.308 132.417 226.43 132.368 226.572 132.368C226.714 132.368 226.835 132.417 226.935 132.513C227.037 132.608 227.088 132.723 227.088 132.858C227.088 132.991 227.037 133.106 226.935 133.203C226.835 133.298 226.714 133.345 226.572 133.345Z" fill="white"/>
<path d="M228.892 135.701V138.197H228.075V133.994H228.859V134.678H228.911C229.007 134.455 229.159 134.277 229.364 134.142C229.572 134.007 229.833 133.939 230.148 133.939C230.434 133.939 230.685 133.999 230.899 134.12C231.114 134.238 231.281 134.415 231.399 134.651C231.518 134.886 231.577 135.177 231.577 135.524V138.197H230.76V135.622C230.76 135.317 230.681 135.079 230.523 134.908C230.364 134.735 230.147 134.648 229.87 134.648C229.68 134.648 229.512 134.689 229.364 134.771C229.219 134.853 229.103 134.973 229.017 135.132C228.934 135.289 228.892 135.479 228.892 135.701Z" fill="white"/>
<path d="M235.33 136.454V133.994H236.149V138.197H235.346V137.469H235.303C235.206 137.693 235.051 137.88 234.838 138.03C234.627 138.178 234.364 138.252 234.049 138.252C233.779 138.252 233.541 138.192 233.333 138.074C233.127 137.953 232.965 137.776 232.847 137.54C232.731 137.305 232.672 137.014 232.672 136.667V133.994H233.489V136.569C233.489 136.855 233.568 137.083 233.727 137.253C233.885 137.423 234.091 137.507 234.344 137.507C234.497 137.507 234.649 137.469 234.8 137.392C234.953 137.316 235.08 137.2 235.18 137.045C235.282 136.89 235.332 136.693 235.33 136.454Z" fill="white"/>
<path d="M239.055 138.282C238.642 138.282 238.286 138.193 237.987 138.016C237.69 137.838 237.461 137.587 237.299 137.264C237.138 136.939 237.058 136.559 237.058 136.123C237.058 135.692 237.138 135.313 237.299 134.984C237.461 134.656 237.687 134.4 237.976 134.216C238.268 134.031 238.608 133.939 238.998 133.939C239.234 133.939 239.464 133.978 239.686 134.057C239.908 134.135 240.108 134.258 240.284 134.426C240.461 134.594 240.6 134.812 240.702 135.08C240.804 135.347 240.855 135.67 240.855 136.052V136.342H237.52V135.729H240.055C240.055 135.513 240.011 135.323 239.924 135.157C239.836 134.989 239.713 134.857 239.555 134.76C239.398 134.663 239.214 134.615 239.003 134.615C238.774 134.615 238.573 134.672 238.402 134.785C238.233 134.896 238.102 135.042 238.009 135.223C237.918 135.401 237.872 135.596 237.872 135.805V136.284C237.872 136.565 237.922 136.804 238.02 137.001C238.12 137.198 238.259 137.349 238.438 137.453C238.616 137.555 238.825 137.606 239.063 137.606C239.218 137.606 239.359 137.584 239.487 137.54C239.614 137.495 239.724 137.427 239.817 137.338C239.91 137.248 239.981 137.138 240.03 137.007L240.803 137.146C240.741 137.374 240.63 137.574 240.47 137.745C240.312 137.915 240.112 138.047 239.872 138.142C239.633 138.235 239.361 138.282 239.055 138.282Z" fill="white"/>
<path d="M244.707 138.197L243.472 133.994H244.316L245.138 137.08H245.179L246.004 133.994H246.848L247.668 137.067H247.708L248.525 133.994H249.369L248.137 138.197H247.304L246.452 135.162H246.389L245.537 138.197H244.707Z" fill="white"/>
<path d="M250.144 138.197V133.994H250.961V138.197H250.144ZM250.557 133.345C250.415 133.345 250.293 133.298 250.191 133.203C250.091 133.106 250.041 132.991 250.041 132.858C250.041 132.723 250.091 132.608 250.191 132.513C250.293 132.417 250.415 132.368 250.557 132.368C250.699 132.368 250.82 132.417 250.92 132.513C251.022 132.608 251.073 132.723 251.073 132.858C251.073 132.991 251.022 133.106 250.92 133.203C250.82 133.298 250.699 133.345 250.557 133.345Z" fill="white"/>
<path d="M254.018 133.994V134.651H251.727V133.994H254.018ZM252.341 132.987H253.158V136.963C253.158 137.122 253.182 137.241 253.229 137.321C253.276 137.4 253.337 137.454 253.412 137.483C253.488 137.51 253.571 137.524 253.66 137.524C253.726 137.524 253.783 137.519 253.833 137.51C253.882 137.501 253.92 137.494 253.947 137.488L254.095 138.164C254.047 138.182 253.98 138.201 253.893 138.219C253.805 138.239 253.696 138.25 253.565 138.252C253.35 138.255 253.15 138.217 252.964 138.137C252.778 138.056 252.628 137.932 252.513 137.765C252.398 137.597 252.341 137.386 252.341 137.132V132.987Z" fill="white"/>
<path d="M255.829 135.701V138.197H255.012V132.593H255.818V134.678H255.87C255.968 134.452 256.118 134.272 256.32 134.139C256.522 134.006 256.786 133.939 257.112 133.939C257.4 133.939 257.651 133.998 257.866 134.117C258.083 134.236 258.251 134.413 258.369 134.648C258.489 134.881 258.549 135.173 258.549 135.524V138.197H257.732V135.622C257.732 135.314 257.653 135.075 257.495 134.905C257.336 134.734 257.116 134.648 256.834 134.648C256.641 134.648 256.468 134.689 256.315 134.771C256.164 134.853 256.044 134.973 255.957 135.132C255.871 135.289 255.829 135.479 255.829 135.701Z" fill="white"/>
<path d="M265.526 134.363C265.473 134.197 265.402 134.049 265.313 133.917C265.226 133.784 265.121 133.671 264.999 133.578C264.877 133.483 264.738 133.411 264.581 133.362C264.426 133.313 264.256 133.288 264.07 133.288C263.755 133.288 263.471 133.369 263.218 133.531C262.965 133.694 262.765 133.932 262.617 134.246C262.471 134.558 262.399 134.94 262.399 135.392C262.399 135.846 262.472 136.23 262.62 136.544C262.767 136.858 262.969 137.096 263.226 137.258C263.483 137.421 263.775 137.502 264.103 137.502C264.407 137.502 264.672 137.44 264.898 137.316C265.125 137.192 265.301 137.017 265.425 136.79C265.551 136.562 265.614 136.294 265.614 135.986L265.832 136.027H264.231V135.329H266.43V135.967C266.43 136.437 266.33 136.846 266.13 137.193C265.931 137.537 265.656 137.804 265.305 137.992C264.955 138.18 264.555 138.274 264.103 138.274C263.597 138.274 263.152 138.157 262.77 137.923C262.389 137.69 262.093 137.359 261.88 136.93C261.666 136.499 261.56 135.989 261.56 135.398C261.56 134.951 261.622 134.549 261.746 134.194C261.87 133.838 262.043 133.536 262.267 133.288C262.493 133.038 262.758 132.847 263.062 132.716C263.368 132.583 263.702 132.516 264.065 132.516C264.367 132.516 264.648 132.561 264.909 132.65C265.171 132.74 265.404 132.866 265.608 133.031C265.814 133.195 265.984 133.39 266.119 133.616C266.254 133.841 266.345 134.09 266.392 134.363H265.526Z" fill="white"/>
<path d="M269.203 138.282C268.81 138.282 268.467 138.191 268.174 138.011C267.88 137.83 267.653 137.578 267.491 137.253C267.329 136.928 267.248 136.549 267.248 136.115C267.248 135.679 267.329 135.297 267.491 134.971C267.653 134.644 267.88 134.391 268.174 134.21C268.467 134.029 268.81 133.939 269.203 133.939C269.597 133.939 269.94 134.029 270.233 134.21C270.526 134.391 270.754 134.644 270.916 134.971C271.078 135.297 271.159 135.679 271.159 136.115C271.159 136.549 271.078 136.928 270.916 137.253C270.754 137.578 270.526 137.83 270.233 138.011C269.94 138.191 269.597 138.282 269.203 138.282ZM269.206 137.595C269.461 137.595 269.672 137.527 269.84 137.392C270.007 137.257 270.131 137.078 270.211 136.853C270.293 136.629 270.334 136.382 270.334 136.112C270.334 135.844 270.293 135.597 270.211 135.373C270.131 135.147 270.007 134.965 269.84 134.828C269.672 134.692 269.461 134.623 269.206 134.623C268.949 134.623 268.736 134.692 268.567 134.828C268.399 134.965 268.275 135.147 268.193 135.373C268.113 135.597 268.073 135.844 268.073 136.112C268.073 136.382 268.113 136.629 268.193 136.853C268.275 137.078 268.399 137.257 268.567 137.392C268.736 137.527 268.949 137.595 269.206 137.595Z" fill="white"/>
<path d="M273.838 138.282C273.445 138.282 273.101 138.191 272.808 138.011C272.515 137.83 272.287 137.578 272.125 137.253C271.963 136.928 271.882 136.549 271.882 136.115C271.882 135.679 271.963 135.297 272.125 134.971C272.287 134.644 272.515 134.391 272.808 134.21C273.101 134.029 273.445 133.939 273.838 133.939C274.231 133.939 274.575 134.029 274.868 134.21C275.161 134.391 275.389 134.644 275.551 134.971C275.713 135.297 275.794 135.679 275.794 136.115C275.794 136.549 275.713 136.928 275.551 137.253C275.389 137.578 275.161 137.83 274.868 138.011C274.575 138.191 274.231 138.282 273.838 138.282ZM273.841 137.595C274.096 137.595 274.307 137.527 274.475 137.392C274.642 137.257 274.766 137.078 274.846 136.853C274.928 136.629 274.969 136.382 274.969 136.112C274.969 135.844 274.928 135.597 274.846 135.373C274.766 135.147 274.642 134.965 274.475 134.828C274.307 134.692 274.096 134.623 273.841 134.623C273.584 134.623 273.371 134.692 273.202 134.828C273.034 134.965 272.909 135.147 272.827 135.373C272.747 135.597 272.707 135.844 272.707 136.112C272.707 136.382 272.747 136.629 272.827 136.853C272.909 137.078 273.034 137.257 273.202 137.392C273.371 137.527 273.584 137.595 273.841 137.595Z" fill="white"/>
<path d="M278.465 139.861C278.131 139.861 277.845 139.817 277.604 139.729C277.366 139.642 277.171 139.526 277.02 139.382C276.868 139.238 276.756 139.08 276.681 138.908L277.383 138.618C277.432 138.699 277.498 138.783 277.58 138.873C277.663 138.964 277.776 139.042 277.918 139.105C278.062 139.169 278.247 139.201 278.473 139.201C278.782 139.201 279.038 139.125 279.24 138.974C279.442 138.824 279.544 138.586 279.544 138.257V137.431H279.492C279.442 137.52 279.371 137.62 279.279 137.729C279.188 137.838 279.062 137.933 278.902 138.014C278.741 138.094 278.533 138.134 278.276 138.134C277.945 138.134 277.646 138.056 277.38 137.901C277.116 137.745 276.907 137.514 276.752 137.209C276.599 136.903 276.522 136.526 276.522 136.079C276.522 135.632 276.598 135.249 276.749 134.93C276.902 134.61 277.112 134.366 277.377 134.196C277.643 134.025 277.945 133.939 278.282 133.939C278.542 133.939 278.752 133.983 278.913 134.07C279.073 134.156 279.198 134.257 279.287 134.371C279.378 134.486 279.448 134.588 279.497 134.675H279.557V133.994H280.357V138.29C280.357 138.651 280.274 138.948 280.106 139.179C279.939 139.411 279.712 139.582 279.426 139.694C279.142 139.805 278.821 139.861 278.465 139.861ZM278.456 137.455C278.691 137.455 278.89 137.401 279.052 137.291C279.216 137.18 279.34 137.021 279.423 136.815C279.509 136.607 279.552 136.358 279.552 136.068C279.552 135.785 279.51 135.536 279.426 135.321C279.342 135.106 279.219 134.938 279.057 134.818C278.895 134.695 278.695 134.634 278.456 134.634C278.211 134.634 278.006 134.698 277.842 134.826C277.678 134.952 277.554 135.123 277.47 135.34C277.388 135.557 277.347 135.8 277.347 136.068C277.347 136.344 277.389 136.585 277.473 136.793C277.557 137.001 277.681 137.164 277.845 137.28C278.01 137.397 278.214 137.455 278.456 137.455Z" fill="white"/>
<path d="M282.27 132.593V138.197H281.453V132.593H282.27Z" fill="white"/>
<path d="M285.177 138.282C284.763 138.282 284.407 138.193 284.109 138.016C283.812 137.838 283.582 137.587 283.42 137.264C283.26 136.939 283.18 136.559 283.18 136.123C283.18 135.692 283.26 135.313 283.42 134.984C283.582 134.656 283.808 134.4 284.098 134.216C284.389 134.031 284.729 133.939 285.119 133.939C285.356 133.939 285.585 133.978 285.808 134.057C286.03 134.135 286.229 134.258 286.406 134.426C286.582 134.594 286.722 134.812 286.824 135.08C286.926 135.347 286.977 135.67 286.977 136.052V136.342H283.641V135.729H286.176C286.176 135.513 286.133 135.323 286.045 135.157C285.958 134.989 285.835 134.857 285.676 134.76C285.52 134.663 285.336 134.615 285.125 134.615C284.895 134.615 284.695 134.672 284.524 134.785C284.354 134.896 284.223 135.042 284.13 135.223C284.039 135.401 283.994 135.596 283.994 135.805V136.284C283.994 136.565 284.043 136.804 284.141 137.001C284.241 137.198 284.381 137.349 284.559 137.453C284.738 137.555 284.946 137.606 285.185 137.606C285.34 137.606 285.481 137.584 285.608 137.54C285.736 137.495 285.846 137.427 285.939 137.338C286.032 137.248 286.103 137.138 286.152 137.007L286.925 137.146C286.863 137.374 286.752 137.574 286.591 137.745C286.433 137.915 286.234 138.047 285.993 138.142C285.755 138.235 285.482 138.282 285.177 138.282Z" fill="white"/>
<rect x="162.697" y="151.744" width="49.4743" height="20.5946" rx="10.2973" stroke="white" stroke-width="0.596132"/>
<path d="M185.406 166.319C189.039 166.319 191.026 163.027 191.026 160.173C191.026 160.081 191.024 159.986 191.021 159.894C191.407 159.588 191.741 159.209 192.006 158.775C191.646 158.951 191.264 159.065 190.872 159.115C191.284 158.844 191.593 158.42 191.741 157.92C191.353 158.171 190.929 158.349 190.487 158.444C190.189 158.098 189.795 157.869 189.366 157.792C188.937 157.715 188.497 157.795 188.113 158.019C187.73 158.244 187.425 158.6 187.245 159.032C187.065 159.465 187.021 159.951 187.119 160.414C186.334 160.371 185.566 160.148 184.864 159.759C184.163 159.371 183.544 158.825 183.048 158.159C182.796 158.634 182.719 159.197 182.832 159.732C182.946 160.268 183.242 160.736 183.659 161.041C183.346 161.03 183.039 160.938 182.764 160.772V160.799C182.764 161.297 182.922 161.781 183.211 162.167C183.5 162.553 183.902 162.818 184.349 162.917C184.059 163.004 183.754 163.016 183.458 162.954C183.584 163.383 183.83 163.758 184.161 164.027C184.491 164.296 184.891 164.446 185.303 164.455C184.603 165.056 183.739 165.382 182.849 165.38C182.691 165.38 182.534 165.37 182.377 165.349C183.281 165.983 184.332 166.32 185.406 166.319Z" fill="white"/>
<rect x="216.501" y="151.744" width="49.4743" height="20.096" rx="10.048" stroke="white" stroke-width="0.596132"/>
<path d="M244.335 158.439C243.721 158.131 243.063 157.904 242.375 157.774C242.362 157.771 242.35 157.777 242.343 157.79C242.259 157.955 242.165 158.17 242.099 158.339C241.359 158.218 240.623 158.218 239.898 158.339C239.832 158.166 239.735 157.955 239.65 157.79C239.644 157.778 239.631 157.771 239.619 157.774C238.931 157.903 238.273 158.13 237.659 158.439C237.653 158.442 237.649 158.446 237.646 158.451C236.398 160.494 236.056 162.486 236.223 164.454C236.224 164.463 236.229 164.472 236.236 164.478C237.06 165.141 237.857 165.543 238.64 165.809C238.653 165.814 238.666 165.809 238.674 165.797C238.859 165.52 239.024 165.228 239.166 164.921C239.174 164.903 239.166 164.882 239.149 164.875C238.887 164.766 238.638 164.633 238.398 164.482C238.379 164.47 238.378 164.441 238.395 164.426C238.446 164.385 238.496 164.342 238.544 164.298C238.553 164.29 238.565 164.289 238.575 164.294C240.151 165.082 241.857 165.082 243.414 164.294C243.425 164.288 243.437 164.29 243.446 164.298C243.494 164.341 243.545 164.385 243.596 164.426C243.613 164.441 243.612 164.47 243.593 164.482C243.353 164.636 243.104 164.766 242.841 164.874C242.824 164.881 242.817 164.903 242.825 164.921C242.97 165.228 243.135 165.52 243.317 165.797C243.324 165.809 243.338 165.814 243.35 165.809C244.137 165.543 244.935 165.141 245.759 164.478C245.766 164.472 245.77 164.464 245.771 164.454C245.972 162.179 245.435 160.203 244.347 158.452C244.345 158.446 244.34 158.442 244.335 158.439ZM239.401 163.256C238.927 163.256 238.536 162.779 238.536 162.193C238.536 161.607 238.919 161.13 239.401 161.13C239.887 161.13 240.274 161.611 240.267 162.193C240.267 162.779 239.883 163.256 239.401 163.256ZM242.601 163.256C242.126 163.256 241.735 162.779 241.735 162.193C241.735 161.607 242.119 161.13 242.601 161.13C243.087 161.13 243.474 161.611 243.466 162.193C243.466 162.779 243.087 163.256 242.601 163.256Z" fill="white"/>
<rect x="270.312" y="151.744" width="49.4743" height="20.5946" rx="10.2973" stroke="white" stroke-width="0.596132"/>
<path d="M299.621 162.07C299.621 159.403 297.466 157.241 294.807 157.241C292.148 157.241 289.992 159.403 289.992 162.07C289.992 164.481 291.753 166.479 294.054 166.841V163.466H292.832V162.07H294.054V161.006C294.054 159.796 294.773 159.127 295.873 159.127C296.399 159.127 296.951 159.222 296.951 159.222V160.41H296.344C295.745 160.41 295.559 160.782 295.559 161.165V162.07H296.894L296.681 163.466H295.559V166.841C297.861 166.479 299.621 164.481 299.621 162.07Z" fill="white"/>
<path opacity="0.8" d="M221.763 87.7539C220.91 87.7539 220.161 87.604 219.519 87.3043C218.876 87.0047 218.371 86.5773 218.005 86.0223C217.651 85.4673 217.468 84.8068 217.457 84.0409H219.319C219.33 84.6625 219.546 85.1898 219.968 85.6227C220.388 86.0556 220.982 86.272 221.746 86.272C222.422 86.272 222.949 86.1111 223.326 85.7892C223.714 85.4562 223.908 85.0343 223.908 84.5238C223.908 84.1131 223.814 83.78 223.625 83.5248C223.448 83.2695 223.198 83.0586 222.877 82.8921C222.567 82.7256 222.207 82.5757 221.797 82.4425C221.386 82.3093 220.954 82.165 220.499 82.0096C219.601 81.7099 218.925 81.3214 218.471 80.844C218.028 80.3668 217.806 79.7396 217.806 78.9626C217.795 78.3077 217.944 77.736 218.255 77.2476C218.577 76.7592 219.02 76.3818 219.585 76.1154C220.161 75.8379 220.832 75.6991 221.597 75.6991C222.35 75.6991 223.01 75.8379 223.575 76.1154C224.152 76.3929 224.601 76.7814 224.922 77.2809C225.244 77.7693 225.41 78.341 225.421 78.9959H223.559C223.559 78.6962 223.481 78.4132 223.326 78.1467C223.171 77.8692 222.944 77.6417 222.645 77.4641C222.345 77.2864 221.979 77.1976 221.547 77.1976C220.992 77.1866 220.533 77.3253 220.167 77.6139C219.812 77.9025 219.635 78.3021 219.635 78.8127C219.635 79.2678 219.768 79.6175 220.034 79.8617C220.3 80.1059 220.666 80.3112 221.131 80.4777C221.597 80.6331 222.129 80.8163 222.727 81.0273C223.304 81.2159 223.819 81.4435 224.274 81.7099C224.728 81.9763 225.089 82.3259 225.355 82.7588C225.632 83.1918 225.77 83.7412 225.77 84.4072C225.77 84.9955 225.621 85.545 225.321 86.0556C225.022 86.5551 224.573 86.9658 223.975 87.2877C223.376 87.5985 222.639 87.7539 221.763 87.7539ZM228.402 77.7305C228.07 77.7305 227.792 77.6306 227.57 77.4308C227.36 77.2199 227.255 76.959 227.255 76.6482C227.255 76.3374 227.36 76.0821 227.57 75.8823C227.792 75.6714 228.07 75.566 228.402 75.566C228.734 75.566 229.006 75.6714 229.217 75.8823C229.438 76.0821 229.549 76.3374 229.549 76.6482C229.549 76.959 229.438 77.2199 229.217 77.4308C229.006 77.6306 228.734 77.7305 228.402 77.7305ZM227.521 87.5541V79.2956H229.283V87.5541H227.521ZM234.759 85.0233C234.326 85.0233 233.928 84.9733 233.561 84.8734L232.846 85.5727C232.969 85.6504 233.118 85.7171 233.295 85.7725C233.473 85.828 233.722 85.878 234.044 85.9224C234.365 85.9668 234.803 86.0112 235.357 86.0556C236.454 86.1555 237.247 86.4219 237.735 86.8548C238.222 87.2766 238.466 87.8427 238.466 88.5531C238.466 89.0415 238.334 89.5022 238.068 89.9351C237.812 90.3791 237.408 90.7343 236.853 91.0007C236.31 91.2782 235.612 91.4169 234.759 91.4169C233.606 91.4169 232.669 91.195 231.949 90.7509C231.239 90.3181 230.884 89.6576 230.884 88.7696C230.884 88.4255 230.973 88.0814 231.15 87.7373C231.339 87.4043 231.633 87.0879 232.031 86.7882C231.799 86.6883 231.594 86.5829 231.417 86.4718C231.25 86.3497 231.101 86.2276 230.968 86.1055V85.7059L232.398 84.2407C231.755 83.6857 231.433 82.9586 231.433 82.0596C231.433 81.5156 231.56 81.0217 231.816 80.5777C232.082 80.1226 232.464 79.7618 232.963 79.4954C233.461 79.229 234.06 79.0958 234.759 79.0958C235.224 79.0958 235.657 79.1624 236.056 79.2956H239.131V80.4611L237.668 80.5444C237.935 80.9995 238.068 81.5045 238.068 82.0596C238.068 82.6145 237.935 83.114 237.668 83.5581C237.413 84.0021 237.036 84.3573 236.538 84.6237C236.05 84.8901 235.457 85.0233 234.759 85.0233ZM234.759 83.6413C235.268 83.6413 235.679 83.5081 235.989 83.2417C236.31 82.9642 236.471 82.5757 236.471 82.0762C236.471 81.5656 236.31 81.177 235.989 80.9107C235.679 80.6442 235.268 80.511 234.759 80.511C234.237 80.511 233.816 80.6442 233.495 80.9107C233.184 81.177 233.029 81.5656 233.029 82.0762C233.029 82.5757 233.184 82.9642 233.495 83.2417C233.816 83.5081 234.237 83.6413 234.759 83.6413ZM232.547 88.6031C232.547 89.0804 232.758 89.4356 233.179 89.6687C233.6 89.9129 234.127 90.035 234.759 90.035C235.368 90.035 235.862 89.9018 236.239 89.6354C236.615 89.3801 236.804 89.036 236.804 88.6031C236.804 88.2812 236.677 88.0037 236.421 87.7705C236.167 87.5486 235.684 87.4098 234.975 87.3543C234.442 87.321 233.971 87.271 233.561 87.2045C233.174 87.4154 232.908 87.6429 232.763 87.8871C232.619 88.1313 232.547 88.37 232.547 88.6031ZM240.477 87.5541V79.2956H242.04L242.173 80.7442C242.428 80.2336 242.8 79.834 243.287 79.5454C243.786 79.2457 244.357 79.0958 245 79.0958C245.997 79.0958 246.778 79.4066 247.344 80.0282C247.921 80.6498 248.208 81.5767 248.208 82.8088V87.5541H246.463V82.9919C246.463 81.3935 245.809 80.5943 244.501 80.5943C243.847 80.5943 243.304 80.8274 242.871 81.2936C242.45 81.7598 242.24 82.4258 242.24 83.2916V87.5541H240.477ZM255.018 77.7305C254.686 77.7305 254.409 77.6306 254.187 77.4308C253.977 77.2199 253.871 76.959 253.871 76.6482C253.871 76.3374 253.977 76.0821 254.187 75.8823C254.409 75.6714 254.686 75.566 255.018 75.566C255.351 75.566 255.622 75.6714 255.833 75.8823C256.055 76.0821 256.165 76.3374 256.165 76.6482C256.165 76.959 256.055 77.2199 255.833 77.4308C255.622 77.6306 255.351 77.7305 255.018 77.7305ZM254.137 87.5541V79.2956H255.9V87.5541H254.137ZM258 87.5541V79.2956H259.563L259.696 80.7442C259.951 80.2336 260.322 79.834 260.81 79.5454C261.309 79.2457 261.88 79.0958 262.523 79.0958C263.52 79.0958 264.301 79.4066 264.867 80.0282C265.443 80.6498 265.731 81.5767 265.731 82.8088V87.5541H263.986V82.9919C263.986 81.3935 263.332 80.5943 262.023 80.5943C261.37 80.5943 260.827 80.8274 260.394 81.2936C259.973 81.7598 259.762 82.4258 259.762 83.2916V87.5541H258Z" fill="white"/>
<path d="M178.84 107.818V101.291H181.165C181.672 101.291 182.092 101.383 182.426 101.568C182.759 101.753 183.008 102.006 183.174 102.327C183.34 102.646 183.422 103.005 183.422 103.404C183.422 103.806 183.339 104.167 183.171 104.488C183.005 104.806 182.755 105.059 182.419 105.246C182.086 105.431 181.667 105.523 181.161 105.523H179.563V104.688H181.072C181.393 104.688 181.653 104.633 181.852 104.523C182.052 104.41 182.199 104.257 182.292 104.064C182.385 103.87 182.432 103.651 182.432 103.404C182.432 103.158 182.385 102.939 182.292 102.748C182.199 102.556 182.051 102.406 181.849 102.298C181.65 102.19 181.386 102.136 181.06 102.136H179.824V107.818H178.84Z" fill="white"/>
<path d="M185.452 101.291V107.818H184.5V101.291H185.452Z" fill="white"/>
<path d="M188.841 107.917C188.359 107.917 187.944 107.814 187.596 107.608C187.25 107.4 186.982 107.107 186.793 106.731C186.607 106.353 186.513 105.91 186.513 105.402C186.513 104.901 186.607 104.459 186.793 104.077C186.982 103.694 187.246 103.396 187.583 103.181C187.923 102.966 188.32 102.859 188.774 102.859C189.05 102.859 189.318 102.905 189.577 102.996C189.836 103.087 190.068 103.231 190.274 103.426C190.48 103.622 190.642 103.876 190.761 104.188C190.88 104.498 190.94 104.875 190.94 105.32V105.657H187.051V104.943H190.007C190.007 104.693 189.956 104.471 189.854 104.277C189.752 104.082 189.609 103.928 189.424 103.815C189.241 103.703 189.027 103.646 188.781 103.646C188.513 103.646 188.28 103.712 188.08 103.844C187.883 103.973 187.73 104.143 187.621 104.354C187.515 104.562 187.462 104.788 187.462 105.033V105.59C187.462 105.918 187.519 106.196 187.634 106.425C187.751 106.655 187.913 106.83 188.121 106.951C188.329 107.07 188.573 107.13 188.851 107.13C189.031 107.13 189.196 107.104 189.344 107.053C189.493 107 189.621 106.922 189.73 106.817C189.838 106.713 189.921 106.585 189.978 106.432L190.879 106.594C190.807 106.86 190.678 107.093 190.491 107.292C190.306 107.49 190.074 107.644 189.793 107.754C189.515 107.863 189.198 107.917 188.841 107.917Z" fill="white"/>
<path d="M193.42 107.927C193.11 107.927 192.83 107.869 192.579 107.754C192.328 107.638 192.13 107.469 191.983 107.248C191.839 107.027 191.767 106.756 191.767 106.435C191.767 106.159 191.82 105.931 191.926 105.753C192.032 105.574 192.176 105.433 192.356 105.329C192.537 105.225 192.738 105.146 192.961 105.093C193.184 105.04 193.411 105 193.643 104.972C193.936 104.938 194.173 104.911 194.356 104.889C194.539 104.866 194.671 104.829 194.754 104.778C194.837 104.727 194.878 104.644 194.878 104.529V104.507C194.878 104.228 194.8 104.013 194.643 103.86C194.488 103.707 194.256 103.63 193.948 103.63C193.628 103.63 193.375 103.702 193.19 103.844C193.008 103.984 192.882 104.14 192.811 104.312L191.917 104.108C192.023 103.811 192.178 103.571 192.382 103.388C192.587 103.203 192.824 103.069 193.092 102.987C193.359 102.902 193.641 102.859 193.936 102.859C194.131 102.859 194.338 102.882 194.557 102.929C194.777 102.974 194.983 103.057 195.174 103.178C195.368 103.299 195.526 103.472 195.649 103.697C195.772 103.92 195.834 104.21 195.834 104.567V107.818H194.904V107.149H194.866C194.804 107.272 194.712 107.393 194.588 107.512C194.465 107.631 194.307 107.73 194.114 107.809C193.921 107.887 193.689 107.927 193.42 107.927ZM193.627 107.162C193.89 107.162 194.115 107.11 194.302 107.006C194.491 106.901 194.634 106.765 194.732 106.598C194.832 106.428 194.881 106.246 194.881 106.053V105.422C194.847 105.456 194.782 105.487 194.684 105.517C194.588 105.545 194.479 105.569 194.356 105.59C194.233 105.61 194.113 105.628 193.996 105.645C193.879 105.659 193.782 105.672 193.703 105.683C193.518 105.706 193.35 105.746 193.197 105.801C193.046 105.856 192.925 105.936 192.834 106.04C192.745 106.142 192.7 106.278 192.7 106.448C192.7 106.684 192.787 106.862 192.961 106.983C193.135 107.102 193.357 107.162 193.627 107.162Z" fill="white"/>
<path d="M200.767 104.118L199.904 104.271C199.868 104.16 199.811 104.055 199.732 103.955C199.656 103.856 199.552 103.774 199.42 103.71C199.289 103.646 199.124 103.614 198.927 103.614C198.657 103.614 198.432 103.675 198.252 103.796C198.071 103.915 197.981 104.069 197.981 104.258C197.981 104.422 198.041 104.554 198.162 104.653C198.283 104.753 198.479 104.835 198.748 104.899L199.525 105.077C199.975 105.181 200.311 105.342 200.532 105.559C200.753 105.775 200.863 106.057 200.863 106.403C200.863 106.696 200.778 106.958 200.608 107.187C200.44 107.415 200.206 107.593 199.904 107.723C199.605 107.852 199.258 107.917 198.863 107.917C198.315 107.917 197.868 107.8 197.522 107.566C197.176 107.331 196.964 106.996 196.885 106.562L197.806 106.422C197.863 106.662 197.981 106.844 198.159 106.967C198.338 107.088 198.57 107.149 198.857 107.149C199.169 107.149 199.418 107.084 199.605 106.955C199.792 106.823 199.885 106.662 199.885 106.473C199.885 106.32 199.828 106.192 199.713 106.088C199.601 105.984 199.428 105.905 199.194 105.852L198.366 105.67C197.91 105.566 197.572 105.4 197.354 105.173C197.137 104.946 197.029 104.658 197.029 104.309C197.029 104.02 197.109 103.767 197.271 103.551C197.432 103.334 197.655 103.165 197.939 103.044C198.224 102.921 198.55 102.859 198.917 102.859C199.446 102.859 199.862 102.974 200.166 103.203C200.469 103.431 200.67 103.736 200.767 104.118Z" fill="white"/>
<path d="M204.018 107.917C203.536 107.917 203.121 107.814 202.773 107.608C202.427 107.4 202.159 107.107 201.97 106.731C201.784 106.353 201.69 105.91 201.69 105.402C201.69 104.901 201.784 104.459 201.97 104.077C202.159 103.694 202.423 103.396 202.76 103.181C203.1 102.966 203.497 102.859 203.951 102.859C204.227 102.859 204.495 102.905 204.754 102.996C205.013 103.087 205.245 103.231 205.451 103.426C205.657 103.622 205.819 103.876 205.938 104.188C206.057 104.498 206.117 104.875 206.117 105.32V105.657H202.228V104.943H205.184C205.184 104.693 205.133 104.471 205.031 104.277C204.929 104.082 204.786 103.928 204.601 103.815C204.418 103.703 204.204 103.646 203.958 103.646C203.69 103.646 203.457 103.712 203.257 103.844C203.06 103.973 202.907 104.143 202.798 104.354C202.692 104.562 202.639 104.788 202.639 105.033V105.59C202.639 105.918 202.696 106.196 202.811 106.425C202.928 106.655 203.09 106.83 203.298 106.951C203.506 107.07 203.75 107.13 204.028 107.13C204.208 107.13 204.373 107.104 204.521 107.053C204.67 107 204.798 106.922 204.907 106.817C205.015 106.713 205.098 106.585 205.155 106.432L206.056 106.594C205.984 106.86 205.855 107.093 205.668 107.292C205.483 107.49 205.251 107.644 204.97 107.754C204.692 107.863 204.375 107.917 204.018 107.917Z" fill="white"/>
<path d="M213.212 104.118L212.349 104.271C212.313 104.16 212.256 104.055 212.177 103.955C212.101 103.856 211.997 103.774 211.865 103.71C211.733 103.646 211.569 103.614 211.371 103.614C211.102 103.614 210.877 103.675 210.696 103.796C210.516 103.915 210.425 104.069 210.425 104.258C210.425 104.422 210.486 104.554 210.607 104.653C210.728 104.753 210.923 104.835 211.193 104.899L211.97 105.077C212.42 105.181 212.756 105.342 212.976 105.559C213.197 105.775 213.308 106.057 213.308 106.403C213.308 106.696 213.223 106.958 213.053 107.187C212.885 107.415 212.65 107.593 212.349 107.723C212.05 107.852 211.703 107.917 211.308 107.917C210.76 107.917 210.313 107.8 209.967 107.566C209.621 107.331 209.409 106.996 209.33 106.562L210.25 106.422C210.308 106.662 210.425 106.844 210.604 106.967C210.782 107.088 211.015 107.149 211.301 107.149C211.613 107.149 211.863 107.084 212.05 106.955C212.236 106.823 212.33 106.662 212.33 106.473C212.33 106.32 212.273 106.192 212.158 106.088C212.045 105.984 211.872 105.905 211.639 105.852L210.811 105.67C210.354 105.566 210.017 105.4 209.798 105.173C209.582 104.946 209.473 104.658 209.473 104.309C209.473 104.02 209.554 103.767 209.715 103.551C209.877 103.334 210.1 103.165 210.384 103.044C210.669 102.921 210.994 102.859 211.362 102.859C211.89 102.859 212.307 102.974 212.61 103.203C212.914 103.431 213.114 103.736 213.212 104.118Z" fill="white"/>
<path d="M216.463 107.917C215.981 107.917 215.566 107.814 215.218 107.608C214.871 107.4 214.604 107.107 214.415 106.731C214.228 106.353 214.135 105.91 214.135 105.402C214.135 104.901 214.228 104.459 214.415 104.077C214.604 103.694 214.867 103.396 215.205 103.181C215.544 102.966 215.941 102.859 216.396 102.859C216.672 102.859 216.939 102.905 217.198 102.996C217.457 103.087 217.69 103.231 217.896 103.426C218.102 103.622 218.264 103.876 218.383 104.188C218.502 104.498 218.561 104.875 218.561 105.32V105.657H214.673V104.943H217.628C217.628 104.693 217.577 104.471 217.475 104.277C217.373 104.082 217.23 103.928 217.045 103.815C216.863 103.703 216.648 103.646 216.402 103.646C216.135 103.646 215.901 103.712 215.702 103.844C215.504 103.973 215.351 104.143 215.243 104.354C215.137 104.562 215.084 104.788 215.084 105.033V105.59C215.084 105.918 215.141 106.196 215.256 106.425C215.373 106.655 215.535 106.83 215.743 106.951C215.951 107.07 216.194 107.13 216.472 107.13C216.653 107.13 216.817 107.104 216.966 107.053C217.114 107 217.243 106.922 217.351 106.817C217.459 106.713 217.542 106.585 217.6 106.432L218.501 106.594C218.429 106.86 218.299 107.093 218.112 107.292C217.928 107.49 217.695 107.644 217.415 107.754C217.137 107.863 216.819 107.917 216.463 107.917Z" fill="white"/>
<path d="M220.57 101.291V107.818H219.618V101.291H220.57Z" fill="white"/>
<path d="M223.959 107.917C223.477 107.917 223.062 107.814 222.714 107.608C222.368 107.4 222.1 107.107 221.912 106.731C221.725 106.353 221.631 105.91 221.631 105.402C221.631 104.901 221.725 104.459 221.912 104.077C222.1 103.694 222.364 103.396 222.701 103.181C223.041 102.966 223.438 102.859 223.892 102.859C224.168 102.859 224.436 102.905 224.695 102.996C224.954 103.087 225.186 103.231 225.392 103.426C225.598 103.622 225.761 103.876 225.88 104.188C225.998 104.498 226.058 104.875 226.058 105.32V105.657H222.169V104.943H225.125C225.125 104.693 225.074 104.471 224.972 104.277C224.87 104.082 224.727 103.928 224.542 103.815C224.359 103.703 224.145 103.646 223.899 103.646C223.631 103.646 223.398 103.712 223.198 103.844C223.001 103.973 222.848 104.143 222.74 104.354C222.633 104.562 222.58 104.788 222.58 105.033V105.59C222.58 105.918 222.638 106.196 222.752 106.425C222.869 106.655 223.031 106.83 223.24 106.951C223.448 107.07 223.691 107.13 223.969 107.13C224.149 107.13 224.314 107.104 224.462 107.053C224.611 107 224.739 106.922 224.848 106.817C224.956 106.713 225.039 106.585 225.096 106.432L225.997 106.594C225.925 106.86 225.796 107.093 225.609 107.292C225.424 107.49 225.192 107.644 224.911 107.754C224.633 107.863 224.316 107.917 223.959 107.917Z" fill="white"/>
<path d="M229.175 107.917C228.701 107.917 228.294 107.81 227.952 107.595C227.612 107.378 227.351 107.08 227.169 106.7C226.986 106.319 226.895 105.884 226.895 105.393C226.895 104.896 226.988 104.457 227.175 104.077C227.362 103.694 227.625 103.396 227.965 103.181C228.304 102.966 228.705 102.859 229.165 102.859C229.537 102.859 229.868 102.928 230.159 103.066C230.45 103.202 230.684 103.393 230.863 103.64C231.043 103.886 231.15 104.174 231.184 104.504H230.258C230.207 104.274 230.09 104.077 229.907 103.911C229.727 103.745 229.485 103.662 229.181 103.662C228.916 103.662 228.683 103.732 228.484 103.873C228.286 104.011 228.132 104.208 228.022 104.465C227.912 104.72 227.856 105.022 227.856 105.371C227.856 105.727 227.911 106.036 228.019 106.295C228.127 106.554 228.28 106.755 228.477 106.897C228.677 107.04 228.912 107.111 229.181 107.111C229.362 107.111 229.525 107.078 229.672 107.012C229.82 106.944 229.944 106.847 230.044 106.722C230.146 106.596 230.217 106.446 230.258 106.269H231.184C231.15 106.586 231.047 106.868 230.875 107.117C230.703 107.366 230.473 107.561 230.184 107.703C229.898 107.846 229.561 107.917 229.175 107.917Z" fill="white"/>
<path d="M234.486 102.923V103.688H231.814V102.923H234.486ZM232.531 101.75H233.483V106.381C233.483 106.566 233.51 106.705 233.566 106.798C233.621 106.89 233.692 106.952 233.779 106.986C233.868 107.018 233.965 107.034 234.069 107.034C234.145 107.034 234.212 107.029 234.269 107.018C234.327 107.008 234.371 106.999 234.403 106.993L234.575 107.78C234.52 107.801 234.441 107.822 234.339 107.844C234.238 107.867 234.11 107.88 233.957 107.882C233.707 107.886 233.473 107.842 233.257 107.748C233.04 107.655 232.865 107.51 232.731 107.315C232.597 107.119 232.531 106.874 232.531 106.578V101.75Z" fill="white"/>
<path d="M239.973 107.917C239.514 107.917 239.114 107.812 238.772 107.601C238.431 107.391 238.165 107.097 237.976 106.719C237.787 106.34 237.693 105.899 237.693 105.393C237.693 104.885 237.787 104.441 237.976 104.061C238.165 103.68 238.431 103.385 238.772 103.175C239.114 102.964 239.514 102.859 239.973 102.859C240.432 102.859 240.832 102.964 241.174 103.175C241.515 103.385 241.781 103.68 241.97 104.061C242.159 104.441 242.253 104.885 242.253 105.393C242.253 105.899 242.159 106.34 241.97 106.719C241.781 107.097 241.515 107.391 241.174 107.601C240.832 107.812 240.432 107.917 239.973 107.917ZM239.976 107.117C240.273 107.117 240.52 107.038 240.715 106.881C240.91 106.724 241.055 106.515 241.148 106.253C241.244 105.992 241.291 105.704 241.291 105.39C241.291 105.077 241.244 104.79 241.148 104.529C241.055 104.266 240.91 104.054 240.715 103.895C240.52 103.736 240.273 103.656 239.976 103.656C239.677 103.656 239.428 103.736 239.231 103.895C239.036 104.054 238.89 104.266 238.795 104.529C238.701 104.79 238.655 105.077 238.655 105.39C238.655 105.704 238.701 105.992 238.795 106.253C238.89 106.515 239.036 106.724 239.231 106.881C239.428 107.038 239.677 107.117 239.976 107.117Z" fill="white"/>
<path d="M244.268 104.912V107.818H243.316V102.923H244.23V103.72H244.291C244.403 103.46 244.579 103.252 244.819 103.095C245.061 102.938 245.366 102.859 245.733 102.859C246.066 102.859 246.358 102.929 246.609 103.069C246.859 103.208 247.054 103.414 247.192 103.688C247.33 103.962 247.399 104.301 247.399 104.704V107.818H246.446V104.819C246.446 104.464 246.354 104.187 246.169 103.987C245.985 103.785 245.731 103.685 245.408 103.685C245.188 103.685 244.991 103.732 244.819 103.828C244.649 103.924 244.514 104.064 244.415 104.249C244.317 104.431 244.268 104.652 244.268 104.912Z" fill="white"/>
<path d="M250.784 107.917C250.302 107.917 249.887 107.814 249.539 107.608C249.193 107.4 248.925 107.107 248.736 106.731C248.549 106.353 248.456 105.91 248.456 105.402C248.456 104.901 248.549 104.459 248.736 104.077C248.925 103.694 249.188 103.396 249.526 103.181C249.866 102.966 250.263 102.859 250.717 102.859C250.993 102.859 251.261 102.905 251.52 102.996C251.779 103.087 252.011 103.231 252.217 103.426C252.423 103.622 252.585 103.876 252.704 104.188C252.823 104.498 252.883 104.875 252.883 105.32V105.657H248.994V104.943H251.949C251.949 104.693 251.899 104.471 251.797 104.277C251.695 104.082 251.551 103.928 251.367 103.815C251.184 103.703 250.97 103.646 250.723 103.646C250.456 103.646 250.222 103.712 250.023 103.844C249.825 103.973 249.672 104.143 249.564 104.354C249.458 104.562 249.405 104.788 249.405 105.033V105.59C249.405 105.918 249.462 106.196 249.577 106.425C249.694 106.655 249.856 106.83 250.064 106.951C250.272 107.07 250.515 107.13 250.793 107.13C250.974 107.13 251.138 107.104 251.287 107.053C251.436 107 251.564 106.922 251.672 106.817C251.781 106.713 251.863 106.585 251.921 106.432L252.822 106.594C252.75 106.86 252.62 107.093 252.434 107.292C252.249 107.49 252.016 107.644 251.736 107.754C251.458 107.863 251.141 107.917 250.784 107.917Z" fill="white"/>
<path d="M258.596 102.923V103.688H255.924V102.923H258.596ZM256.64 101.75H257.593V106.381C257.593 106.566 257.62 106.705 257.675 106.798C257.731 106.89 257.802 106.952 257.889 106.986C257.978 107.018 258.075 107.034 258.179 107.034C258.255 107.034 258.322 107.029 258.379 107.018C258.437 107.008 258.481 106.999 258.513 106.993L258.685 107.78C258.63 107.801 258.551 107.822 258.449 107.844C258.347 107.867 258.22 107.88 258.067 107.882C257.817 107.886 257.583 107.842 257.366 107.748C257.15 107.655 256.975 107.51 256.841 107.315C256.707 107.119 256.64 106.874 256.64 106.578V101.75Z" fill="white"/>
<path d="M261.657 107.917C261.198 107.917 260.798 107.812 260.456 107.601C260.115 107.391 259.849 107.097 259.66 106.719C259.471 106.34 259.377 105.899 259.377 105.393C259.377 104.885 259.471 104.441 259.66 104.061C259.849 103.68 260.115 103.385 260.456 103.175C260.798 102.964 261.198 102.859 261.657 102.859C262.116 102.859 262.516 102.964 262.858 103.175C263.199 103.385 263.465 103.68 263.654 104.061C263.843 104.441 263.937 104.885 263.937 105.393C263.937 105.899 263.843 106.34 263.654 106.719C263.465 107.097 263.199 107.391 262.858 107.601C262.516 107.812 262.116 107.917 261.657 107.917ZM261.66 107.117C261.957 107.117 262.204 107.038 262.399 106.881C262.594 106.724 262.739 106.515 262.832 106.253C262.928 105.992 262.975 105.704 262.975 105.39C262.975 105.077 262.928 104.79 262.832 104.529C262.739 104.266 262.594 104.054 262.399 103.895C262.204 103.736 261.957 103.656 261.66 103.656C261.361 103.656 261.112 103.736 260.915 103.895C260.72 104.054 260.574 104.266 260.479 104.529C260.385 104.79 260.339 105.077 260.339 105.39C260.339 105.704 260.385 105.992 260.479 106.253C260.574 106.515 260.72 106.724 260.915 106.881C261.112 107.038 261.361 107.117 261.66 107.117Z" fill="white"/>
<path d="M269.434 107.917C268.96 107.917 268.553 107.81 268.211 107.595C267.871 107.378 267.61 107.08 267.427 106.7C267.245 106.319 267.154 105.884 267.154 105.393C267.154 104.896 267.247 104.457 267.434 104.077C267.621 103.694 267.884 103.396 268.224 103.181C268.563 102.966 268.963 102.859 269.424 102.859C269.796 102.859 270.127 102.928 270.418 103.066C270.709 103.202 270.943 103.393 271.122 103.64C271.302 103.886 271.409 104.174 271.443 104.504H270.516C270.466 104.274 270.349 104.077 270.166 103.911C269.986 103.745 269.744 103.662 269.44 103.662C269.175 103.662 268.942 103.732 268.743 103.873C268.545 104.011 268.391 104.208 268.281 104.465C268.17 104.72 268.115 105.022 268.115 105.371C268.115 105.727 268.169 106.036 268.278 106.295C268.386 106.554 268.539 106.755 268.736 106.897C268.936 107.04 269.17 107.111 269.44 107.111C269.621 107.111 269.784 107.078 269.931 107.012C270.079 106.944 270.203 106.847 270.303 106.722C270.405 106.596 270.476 106.446 270.516 106.269H271.443C271.409 106.586 271.306 106.868 271.134 107.117C270.962 107.366 270.732 107.561 270.443 107.703C270.157 107.846 269.82 107.917 269.434 107.917Z" fill="white"/>
<path d="M274.522 107.917C274.063 107.917 273.663 107.812 273.321 107.601C272.979 107.391 272.714 107.097 272.525 106.719C272.336 106.34 272.242 105.899 272.242 105.393C272.242 104.885 272.336 104.441 272.525 104.061C272.714 103.68 272.979 103.385 273.321 103.175C273.663 102.964 274.063 102.859 274.522 102.859C274.98 102.859 275.381 102.964 275.723 103.175C276.064 103.385 276.33 103.68 276.519 104.061C276.708 104.441 276.802 104.885 276.802 105.393C276.802 105.899 276.708 106.34 276.519 106.719C276.33 107.097 276.064 107.391 275.723 107.601C275.381 107.812 274.98 107.917 274.522 107.917ZM274.525 107.117C274.822 107.117 275.069 107.038 275.264 106.881C275.459 106.724 275.604 106.515 275.697 106.253C275.793 105.992 275.84 105.704 275.84 105.39C275.84 105.077 275.793 104.79 275.697 104.529C275.604 104.266 275.459 104.054 275.264 103.895C275.069 103.736 274.822 103.656 274.525 103.656C274.226 103.656 273.977 103.736 273.78 103.895C273.585 104.054 273.439 104.266 273.344 104.529C273.25 104.79 273.203 105.077 273.203 105.39C273.203 105.704 273.25 105.992 273.344 106.253C273.439 106.515 273.585 106.724 273.78 106.881C273.977 107.038 274.226 107.117 274.525 107.117Z" fill="white"/>
<path d="M278.817 104.912V107.818H277.865V102.923H278.779V103.72H278.839C278.952 103.46 279.128 103.252 279.368 103.095C279.61 102.938 279.915 102.859 280.282 102.859C280.615 102.859 280.907 102.929 281.158 103.069C281.408 103.208 281.603 103.414 281.741 103.688C281.879 103.962 281.948 104.301 281.948 104.704V107.818H280.995V104.819C280.995 104.464 280.903 104.187 280.718 103.987C280.534 103.785 280.28 103.685 279.957 103.685C279.736 103.685 279.54 103.732 279.368 103.828C279.198 103.924 279.063 104.064 278.964 104.249C278.866 104.431 278.817 104.652 278.817 104.912Z" fill="white"/>
<path d="M285.508 102.923V103.688H282.836V102.923H285.508ZM283.553 101.75H284.505V106.381C284.505 106.566 284.532 106.705 284.588 106.798C284.643 106.89 284.714 106.952 284.801 106.986C284.89 107.018 284.987 107.034 285.091 107.034C285.167 107.034 285.234 107.029 285.291 107.018C285.349 107.008 285.393 106.999 285.425 106.993L285.597 107.78C285.542 107.801 285.463 107.822 285.361 107.844C285.26 107.867 285.132 107.88 284.979 107.882C284.729 107.886 284.495 107.842 284.279 107.748C284.062 107.655 283.887 107.51 283.753 107.315C283.62 107.119 283.553 106.874 283.553 106.578V101.75Z" fill="white"/>
<path d="M286.561 107.818V102.923H287.513V107.818H286.561ZM287.042 102.167C286.877 102.167 286.734 102.112 286.615 102.002C286.499 101.889 286.44 101.755 286.44 101.6C286.44 101.443 286.499 101.309 286.615 101.199C286.734 101.086 286.877 101.03 287.042 101.03C287.208 101.03 287.349 101.086 287.466 101.199C287.585 101.309 287.644 101.443 287.644 101.6C287.644 101.755 287.585 101.889 287.466 102.002C287.349 102.112 287.208 102.167 287.042 102.167Z" fill="white"/>
<path d="M289.747 104.912V107.818H288.794V102.923H289.708V103.72H289.769C289.881 103.46 290.058 103.252 290.298 103.095C290.54 102.938 290.844 102.859 291.212 102.859C291.545 102.859 291.837 102.929 292.087 103.069C292.338 103.208 292.532 103.414 292.67 103.688C292.808 103.962 292.877 104.301 292.877 104.704V107.818H291.925V104.819C291.925 104.464 291.833 104.187 291.648 103.987C291.463 103.785 291.209 103.685 290.887 103.685C290.666 103.685 290.47 103.732 290.298 103.828C290.128 103.924 289.993 104.064 289.893 104.249C289.796 104.431 289.747 104.652 289.747 104.912Z" fill="white"/>
<path d="M297.253 105.788V102.923H298.208V107.818H297.272V106.97H297.221C297.108 107.232 296.928 107.45 296.68 107.624C296.433 107.796 296.126 107.882 295.759 107.882C295.445 107.882 295.167 107.813 294.925 107.675C294.685 107.535 294.496 107.327 294.358 107.053C294.222 106.779 294.154 106.44 294.154 106.037V102.923H295.106V105.922C295.106 106.255 295.199 106.521 295.383 106.719C295.568 106.916 295.808 107.015 296.103 107.015C296.281 107.015 296.459 106.97 296.635 106.881C296.813 106.792 296.961 106.657 297.078 106.476C297.197 106.296 297.255 106.066 297.253 105.788Z" fill="white"/>
<path d="M301.596 107.917C301.114 107.917 300.699 107.814 300.351 107.608C300.005 107.4 299.737 107.107 299.548 106.731C299.361 106.353 299.268 105.91 299.268 105.402C299.268 104.901 299.361 104.459 299.548 104.077C299.737 103.694 300 103.396 300.338 103.181C300.678 102.966 301.075 102.859 301.529 102.859C301.805 102.859 302.072 102.905 302.331 102.996C302.59 103.087 302.823 103.231 303.029 103.426C303.235 103.622 303.397 103.876 303.516 104.188C303.635 104.498 303.694 104.875 303.694 105.32V105.657H299.806V104.943H302.761C302.761 104.693 302.71 104.471 302.608 104.277C302.507 104.082 302.363 103.928 302.179 103.815C301.996 103.703 301.782 103.646 301.535 103.646C301.268 103.646 301.034 103.712 300.835 103.844C300.637 103.973 300.484 104.143 300.376 104.354C300.27 104.562 300.217 104.788 300.217 105.033V105.59C300.217 105.918 300.274 106.196 300.389 106.425C300.506 106.655 300.668 106.83 300.876 106.951C301.084 107.07 301.327 107.13 301.605 107.13C301.786 107.13 301.95 107.104 302.099 107.053C302.248 107 302.376 106.922 302.484 106.817C302.593 106.713 302.675 106.585 302.733 106.432L303.634 106.594C303.562 106.86 303.432 107.093 303.245 107.292C303.061 107.49 302.828 107.644 302.548 107.754C302.27 107.863 301.952 107.917 301.596 107.917Z" fill="white"/>
<path d="M233.248 200.427V195.223H236.552V195.862H234.035V197.483H236.329V198.107H234.035V199.788H236.552V200.427H233.248ZM237.311 200.427V196.74H238.009L238.076 197.26C238.195 197.072 238.351 196.923 238.544 196.814C238.742 196.705 238.969 196.651 239.227 196.651C239.811 196.651 240.216 196.881 240.444 197.342C240.578 197.129 240.756 196.96 240.979 196.836C241.206 196.712 241.451 196.651 241.714 196.651C242.174 196.651 242.535 196.789 242.798 197.067C243.06 197.344 243.191 197.758 243.191 198.309V200.427H242.404V198.39C242.404 197.676 242.132 197.319 241.588 197.319C241.31 197.319 241.083 197.423 240.904 197.631C240.731 197.84 240.645 198.137 240.645 198.524V200.427H239.858V198.39C239.858 197.676 239.583 197.319 239.034 197.319C238.762 197.319 238.536 197.423 238.358 197.631C238.185 197.84 238.098 198.137 238.098 198.524V200.427H237.311ZM245.211 200.516C244.899 200.516 244.641 200.464 244.438 200.36C244.235 200.256 244.085 200.119 243.986 199.952C243.887 199.778 243.837 199.59 243.837 199.386C243.837 199.029 243.976 198.747 244.253 198.539C244.53 198.33 244.926 198.226 245.441 198.226H246.406V198.16C246.406 197.872 246.327 197.656 246.168 197.512C246.015 197.369 245.815 197.297 245.567 197.297C245.349 197.297 245.158 197.352 244.995 197.461C244.837 197.565 244.74 197.721 244.706 197.929H243.919C243.943 197.661 244.032 197.433 244.186 197.245C244.344 197.052 244.542 196.906 244.78 196.806C245.023 196.702 245.287 196.651 245.574 196.651C246.089 196.651 246.487 196.787 246.769 197.059C247.052 197.327 247.193 197.694 247.193 198.16V200.427H246.51L246.443 199.795C246.339 199.998 246.188 200.169 245.99 200.308C245.792 200.447 245.532 200.516 245.211 200.516ZM245.366 199.877C245.579 199.877 245.757 199.828 245.901 199.729C246.049 199.624 246.163 199.488 246.243 199.319C246.327 199.151 246.378 198.965 246.398 198.762H245.523C245.211 198.762 244.988 198.816 244.854 198.925C244.726 199.034 244.661 199.17 244.661 199.334C244.661 199.503 244.723 199.636 244.847 199.736C244.975 199.83 245.148 199.877 245.366 199.877ZM248.407 196.041C248.259 196.041 248.135 195.996 248.036 195.907C247.942 195.813 247.895 195.696 247.895 195.558C247.895 195.419 247.942 195.305 248.036 195.216C248.135 195.122 248.259 195.074 248.407 195.074C248.556 195.074 248.677 195.122 248.771 195.216C248.87 195.305 248.919 195.419 248.919 195.558C248.919 195.696 248.87 195.813 248.771 195.907C248.677 195.996 248.556 196.041 248.407 196.041ZM248.014 200.427V196.74H248.801V200.427H248.014ZM249.691 200.427V195.074H250.478V200.427H249.691Z" fill="white"/>
<path d="M308.82 207.504H174.876C167.991 207.504 162.41 213.093 162.41 219.988C162.41 226.882 167.991 232.471 174.876 232.471H308.82C315.704 232.471 321.286 226.882 321.286 219.988C321.286 213.093 315.704 207.504 308.82 207.504Z" fill="white" fill-opacity="0.1"/>
<path d="M208.592 222.156V216.538H209.418V218.91C209.548 218.686 209.727 218.512 209.955 218.387C210.189 218.257 210.446 218.193 210.727 218.193C211.189 218.193 211.553 218.338 211.817 218.63C212.083 218.921 212.215 219.355 212.215 219.932V222.156H211.397V220.018C211.397 219.269 211.098 218.895 210.501 218.895C210.189 218.895 209.93 219.004 209.722 219.222C209.519 219.441 209.418 219.753 209.418 220.159V222.156H208.592ZM214.772 222.249C214.393 222.249 214.056 222.167 213.759 222C213.469 221.828 213.24 221.591 213.074 221.29C212.908 220.988 212.825 220.637 212.825 220.237C212.825 219.831 212.905 219.475 213.066 219.168C213.233 218.861 213.461 218.622 213.752 218.45C214.048 218.278 214.391 218.193 214.78 218.193C215.16 218.193 215.489 218.278 215.769 218.45C216.05 218.616 216.269 218.84 216.424 219.121C216.58 219.402 216.658 219.711 216.658 220.05C216.658 220.101 216.656 220.159 216.65 220.221C216.65 220.278 216.648 220.344 216.642 220.416H213.635C213.661 220.79 213.783 221.077 214.001 221.274C214.225 221.467 214.482 221.563 214.772 221.563C215.006 221.563 215.201 221.511 215.357 221.407C215.518 221.298 215.637 221.152 215.715 220.97H216.541C216.437 221.334 216.229 221.638 215.918 221.883C215.611 222.128 215.23 222.249 214.772 222.249ZM214.772 218.871C214.497 218.871 214.253 218.955 214.04 219.121C213.827 219.282 213.697 219.526 213.651 219.854H215.832C215.817 219.553 215.71 219.313 215.513 219.137C215.315 218.96 215.069 218.871 214.772 218.871ZM217.292 222.156V216.538H218.118V222.156H217.292ZM218.941 222.156V216.538H219.767V222.156H218.941ZM222.397 222.249C222.029 222.249 221.697 222.167 221.4 222C221.11 221.828 220.878 221.591 220.707 221.29C220.535 220.983 220.45 220.627 220.45 220.221C220.45 219.815 220.535 219.462 220.707 219.16C220.883 218.853 221.12 218.616 221.416 218.45C221.712 218.278 222.042 218.193 222.405 218.193C222.774 218.193 223.104 218.278 223.395 218.45C223.691 218.616 223.924 218.853 224.096 219.16C224.273 219.462 224.361 219.815 224.361 220.221C224.361 220.627 224.273 220.983 224.096 221.29C223.924 221.591 223.691 221.828 223.395 222C223.099 222.167 222.767 222.249 222.397 222.249ZM222.397 221.54C222.595 221.54 222.777 221.49 222.943 221.391C223.115 221.293 223.252 221.147 223.356 220.954C223.46 220.756 223.512 220.512 223.512 220.221C223.512 219.93 223.46 219.688 223.356 219.495C223.257 219.298 223.122 219.15 222.951 219.05C222.784 218.952 222.603 218.902 222.405 218.902C222.208 218.902 222.023 218.952 221.852 219.05C221.686 219.15 221.551 219.298 221.447 219.495C221.343 219.688 221.291 219.93 221.291 220.221C221.291 220.512 221.343 220.756 221.447 220.954C221.551 221.147 221.686 221.293 221.852 221.391C222.018 221.49 222.2 221.54 222.397 221.54ZM227.914 223.763C227.348 223.763 226.852 223.654 226.426 223.436C226.005 223.217 225.675 222.907 225.436 222.507C225.203 222.112 225.086 221.644 225.086 221.103C225.086 220.536 225.185 220.01 225.382 219.526C225.579 219.043 225.857 218.619 226.216 218.255C226.574 217.891 226.995 217.61 227.478 217.412C227.961 217.21 228.491 217.108 229.067 217.108C229.659 217.108 230.171 217.22 230.602 217.443C231.033 217.667 231.366 217.979 231.599 218.38C231.838 218.781 231.958 219.241 231.958 219.761C231.958 220.067 231.919 220.367 231.841 220.658C231.763 220.949 231.649 221.212 231.498 221.446C231.352 221.675 231.171 221.859 230.953 222C230.74 222.135 230.493 222.203 230.212 222.203C229.948 222.203 229.74 222.14 229.589 222.016C229.444 221.885 229.356 221.711 229.324 221.493C229.168 221.716 228.968 221.89 228.724 222.016C228.485 222.14 228.229 222.203 227.953 222.203C227.564 222.203 227.257 222.086 227.034 221.851C226.816 221.613 226.707 221.29 226.707 220.884C226.707 220.598 226.75 220.325 226.839 220.065C226.927 219.8 227.055 219.566 227.221 219.363C227.387 219.154 227.581 218.991 227.805 218.871C228.033 218.752 228.286 218.692 228.561 218.692C229.064 218.692 229.395 218.892 229.55 219.293L229.644 218.778H230.33L229.956 220.931C229.919 221.145 229.927 221.319 229.979 221.454C230.031 221.584 230.148 221.649 230.33 221.649C230.49 221.649 230.631 221.591 230.75 221.477C230.875 221.363 230.976 221.215 231.054 221.033C231.137 220.851 231.2 220.653 231.241 220.439C231.282 220.221 231.304 220.008 231.304 219.8C231.304 219.139 231.098 218.622 230.688 218.247C230.277 217.868 229.706 217.678 228.974 217.678C228.511 217.678 228.083 217.766 227.688 217.943C227.294 218.114 226.951 218.353 226.66 218.661C226.369 218.963 226.143 219.316 225.982 219.722C225.821 220.128 225.741 220.565 225.741 221.033C225.741 221.714 225.946 222.242 226.356 222.616C226.766 222.996 227.328 223.186 228.039 223.186C228.267 223.186 228.493 223.162 228.717 223.116C228.945 223.069 229.158 223.001 229.356 222.913L229.488 223.459C229.01 223.662 228.485 223.763 227.914 223.763ZM228.21 221.587C228.413 221.587 228.6 221.532 228.771 221.422C228.943 221.308 229.083 221.154 229.192 220.962C229.301 220.764 229.366 220.541 229.387 220.291C229.412 220.021 229.361 219.789 229.231 219.597C229.101 219.404 228.896 219.308 228.615 219.308C228.376 219.308 228.168 219.378 227.992 219.519C227.816 219.659 227.68 219.839 227.587 220.057C227.494 220.276 227.446 220.507 227.446 220.752C227.446 221.002 227.509 221.204 227.634 221.36C227.763 221.511 227.956 221.587 228.21 221.587ZM234.643 222.249C234.264 222.249 233.927 222.167 233.63 222C233.34 221.828 233.111 221.591 232.945 221.29C232.779 220.988 232.695 220.637 232.695 220.237C232.695 219.831 232.776 219.475 232.937 219.168C233.103 218.861 233.332 218.622 233.623 218.45C233.919 218.278 234.262 218.193 234.651 218.193C235.03 218.193 235.36 218.278 235.64 218.45C235.921 218.616 236.14 218.84 236.295 219.121C236.451 219.402 236.528 219.711 236.528 220.05C236.528 220.101 236.526 220.159 236.521 220.221C236.521 220.278 236.519 220.344 236.513 220.416H233.506C233.532 220.79 233.654 221.077 233.872 221.274C234.095 221.467 234.352 221.563 234.643 221.563C234.877 221.563 235.072 221.511 235.228 221.407C235.388 221.298 235.508 221.152 235.586 220.97H236.412C236.308 221.334 236.1 221.638 235.789 221.883C235.482 222.128 235.101 222.249 234.643 222.249ZM234.643 218.871C234.368 218.871 234.124 218.955 233.911 219.121C233.698 219.282 233.568 219.526 233.521 219.854H235.703C235.688 219.553 235.581 219.313 235.384 219.137C235.186 218.96 234.939 218.871 234.643 218.871ZM236.561 222.156L237.932 220.221L236.561 218.286H237.441L238.478 219.769L239.506 218.286H240.394L239.023 220.221L240.394 222.156H239.506L238.478 220.674L237.441 222.156H236.561ZM242.099 222.249C241.772 222.249 241.502 222.195 241.289 222.086C241.076 221.977 240.918 221.834 240.814 221.657C240.71 221.475 240.658 221.277 240.658 221.064C240.658 220.689 240.803 220.392 241.094 220.174C241.385 219.955 241.8 219.846 242.34 219.846H243.353V219.776C243.353 219.475 243.27 219.249 243.104 219.098C242.943 218.947 242.733 218.871 242.473 218.871C242.244 218.871 242.045 218.929 241.873 219.043C241.707 219.152 241.606 219.316 241.57 219.534H240.744C240.769 219.254 240.863 219.014 241.024 218.817C241.19 218.614 241.398 218.46 241.647 218.356C241.902 218.247 242.179 218.193 242.48 218.193C243.021 218.193 243.439 218.336 243.735 218.622C244.031 218.902 244.179 219.288 244.179 219.776V222.156H243.463L243.392 221.493C243.283 221.706 243.125 221.885 242.917 222.031C242.71 222.176 242.437 222.249 242.099 222.249ZM242.263 221.579C242.486 221.579 242.673 221.526 242.823 221.422C242.98 221.313 243.099 221.17 243.182 220.994C243.27 220.817 243.325 220.621 243.345 220.408H242.426C242.099 220.408 241.865 220.465 241.725 220.58C241.59 220.694 241.522 220.837 241.522 221.009C241.522 221.186 241.587 221.327 241.717 221.43C241.852 221.529 242.034 221.579 242.263 221.579ZM244.92 222.156V218.286H245.652L245.722 218.832C245.847 218.635 246.01 218.479 246.213 218.364C246.42 218.249 246.659 218.193 246.93 218.193C247.543 218.193 247.969 218.434 248.208 218.918C248.348 218.694 248.534 218.518 248.768 218.387C249.007 218.257 249.264 218.193 249.54 218.193C250.023 218.193 250.402 218.338 250.677 218.63C250.952 218.921 251.09 219.355 251.09 219.932V222.156H250.264V220.018C250.264 219.269 249.978 218.895 249.407 218.895C249.116 218.895 248.877 219.004 248.691 219.222C248.509 219.441 248.418 219.753 248.418 220.159V222.156H247.592V220.018C247.592 219.269 247.304 218.895 246.727 218.895C246.442 218.895 246.205 219.004 246.018 219.222C245.836 219.441 245.745 219.753 245.745 220.159V222.156H244.92ZM251.834 223.873V218.286H252.574L252.66 218.887C252.784 218.705 252.956 218.543 253.174 218.403C253.392 218.263 253.672 218.193 254.015 218.193C254.389 218.193 254.719 218.281 255.005 218.458C255.29 218.635 255.514 218.876 255.674 219.184C255.841 219.49 255.924 219.839 255.924 220.229C255.924 220.619 255.841 220.968 255.674 221.274C255.514 221.576 255.29 221.815 255.005 221.992C254.719 222.164 254.387 222.249 254.007 222.249C253.706 222.249 253.439 222.19 253.205 222.07C252.976 221.951 252.795 221.781 252.66 221.563V223.873H251.834ZM253.867 221.532C254.22 221.532 254.511 221.412 254.739 221.173C254.969 220.929 255.082 220.611 255.082 220.221C255.082 219.966 255.031 219.74 254.927 219.542C254.823 219.344 254.68 219.191 254.498 219.082C254.317 218.968 254.106 218.91 253.867 218.91C253.514 218.91 253.223 219.033 252.995 219.277C252.771 219.521 252.66 219.836 252.66 220.221C252.66 220.611 252.771 220.929 252.995 221.173C253.223 221.412 253.514 221.532 253.867 221.532ZM256.595 222.156V216.538H257.421V222.156H256.595ZM260.051 222.249C259.672 222.249 259.334 222.167 259.038 222C258.747 221.828 258.519 221.591 258.353 221.29C258.186 220.988 258.103 220.637 258.103 220.237C258.103 219.831 258.184 219.475 258.345 219.168C258.511 218.861 258.74 218.622 259.03 218.45C259.327 218.278 259.67 218.193 260.058 218.193C260.438 218.193 260.768 218.278 261.049 218.45C261.329 218.616 261.547 218.84 261.703 219.121C261.858 219.402 261.936 219.711 261.936 220.05C261.936 220.101 261.934 220.159 261.928 220.221C261.928 220.278 261.926 220.344 261.921 220.416H258.914C258.94 220.79 259.061 221.077 259.28 221.274C259.503 221.467 259.76 221.563 260.051 221.563C260.285 221.563 260.479 221.511 260.636 221.407C260.796 221.298 260.916 221.152 260.993 220.97H261.819C261.716 221.334 261.508 221.638 261.196 221.883C260.89 222.128 260.508 222.249 260.051 222.249ZM260.051 218.871C259.776 218.871 259.532 218.955 259.319 219.121C259.106 219.282 258.976 219.526 258.929 219.854H261.111C261.095 219.553 260.988 219.313 260.791 219.137C260.594 218.96 260.347 218.871 260.051 218.871ZM262.898 222.203C262.742 222.203 262.612 222.153 262.508 222.055C262.41 221.951 262.361 221.828 262.361 221.688C262.361 221.542 262.41 221.42 262.508 221.321C262.612 221.217 262.742 221.165 262.898 221.165C263.054 221.165 263.181 221.217 263.28 221.321C263.378 221.42 263.428 221.542 263.428 221.688C263.428 221.828 263.378 221.951 263.28 222.055C263.181 222.153 263.054 222.203 262.898 222.203ZM265.868 222.249C265.489 222.249 265.148 222.164 264.847 221.992C264.551 221.82 264.317 221.584 264.146 221.282C263.98 220.975 263.897 220.621 263.897 220.221C263.897 219.82 263.98 219.47 264.146 219.168C264.317 218.861 264.551 218.622 264.847 218.45C265.148 218.278 265.489 218.193 265.868 218.193C266.346 218.193 266.746 218.317 267.068 218.567C267.395 218.817 267.605 219.154 267.699 219.582H266.834C266.782 219.368 266.668 219.201 266.491 219.082C266.315 218.963 266.107 218.902 265.868 218.902C265.665 218.902 265.479 218.955 265.307 219.058C265.136 219.157 264.998 219.305 264.894 219.503C264.791 219.696 264.738 219.935 264.738 220.221C264.738 220.507 264.791 220.749 264.894 220.946C264.998 221.139 265.136 221.288 265.307 221.391C265.479 221.495 265.665 221.548 265.868 221.548C266.107 221.548 266.315 221.487 266.491 221.368C266.668 221.248 266.782 221.079 266.834 220.861H267.699C267.611 221.277 267.403 221.613 267.076 221.867C266.748 222.122 266.346 222.249 265.868 222.249ZM270.18 222.249C269.81 222.249 269.478 222.167 269.182 222C268.891 221.828 268.66 221.591 268.489 221.29C268.317 220.983 268.232 220.627 268.232 220.221C268.232 219.815 268.317 219.462 268.489 219.16C268.665 218.853 268.902 218.616 269.198 218.45C269.494 218.278 269.824 218.193 270.187 218.193C270.556 218.193 270.886 218.278 271.177 218.45C271.473 218.616 271.706 218.853 271.878 219.16C272.054 219.462 272.143 219.815 272.143 220.221C272.143 220.627 272.054 220.983 271.878 221.29C271.706 221.591 271.473 221.828 271.177 222C270.88 222.167 270.548 222.249 270.18 222.249ZM270.18 221.54C270.377 221.54 270.559 221.49 270.725 221.391C270.896 221.293 271.034 221.147 271.138 220.954C271.242 220.756 271.293 220.512 271.293 220.221C271.293 219.93 271.242 219.688 271.138 219.495C271.039 219.298 270.904 219.15 270.733 219.05C270.566 218.952 270.385 218.902 270.187 218.902C269.99 218.902 269.805 218.952 269.634 219.05C269.468 219.15 269.333 219.298 269.229 219.495C269.125 219.688 269.073 219.93 269.073 220.221C269.073 220.512 269.125 220.756 269.229 220.954C269.333 221.147 269.468 221.293 269.634 221.391C269.8 221.49 269.982 221.54 270.18 221.54ZM272.813 222.156V218.286H273.545L273.616 218.832C273.74 218.635 273.904 218.479 274.107 218.364C274.314 218.249 274.553 218.193 274.823 218.193C275.436 218.193 275.862 218.434 276.101 218.918C276.241 218.694 276.429 218.518 276.662 218.387C276.901 218.257 277.158 218.193 277.434 218.193C277.917 218.193 278.296 218.338 278.571 218.63C278.846 218.921 278.984 219.355 278.984 219.932V222.156H278.158V220.018C278.158 219.269 277.872 218.895 277.301 218.895C277.01 218.895 276.771 219.004 276.584 219.222C276.402 219.441 276.311 219.753 276.311 220.159V222.156H275.486V220.018C275.486 219.269 275.197 218.895 274.621 218.895C274.335 218.895 274.099 219.004 273.912 219.222C273.73 219.441 273.639 219.753 273.639 220.159V222.156H272.813Z" fill="white"/>
<g filter="url(#filter9_d_2464_9028)">
<path d="M308.337 239.494H174.876C167.991 239.494 162.41 245.083 162.41 251.977C162.41 258.872 167.991 264.461 174.876 264.461H308.337C315.221 264.461 320.803 258.872 320.803 251.977C320.803 245.083 315.221 239.494 308.337 239.494Z" fill="#12144A"/>
</g>
<path d="M207.972 254.266C207.421 254.266 206.948 254.149 206.554 253.916C206.158 253.676 205.855 253.346 205.642 252.924C205.429 252.498 205.322 252.006 205.322 251.45C205.322 250.893 205.429 250.402 205.642 249.975C205.855 249.549 206.158 249.216 206.554 248.977C206.948 248.737 207.421 248.618 207.972 248.618C208.626 248.618 209.16 248.782 209.576 249.109C209.997 249.432 210.259 249.887 210.363 250.474H209.264C209.197 250.178 209.051 249.947 208.828 249.78C208.61 249.608 208.319 249.523 207.956 249.523C207.452 249.523 207.057 249.695 206.771 250.037C206.486 250.381 206.343 250.852 206.343 251.45C206.343 252.048 206.486 252.519 206.771 252.862C207.057 253.2 207.452 253.369 207.956 253.369C208.319 253.369 208.61 253.291 208.828 253.135C209.051 252.974 209.197 252.753 209.264 252.472H210.363C210.259 253.034 209.997 253.473 209.576 253.79C209.16 254.108 208.626 254.266 207.972 254.266ZM212.854 254.266C212.48 254.266 212.143 254.181 211.841 254.009C211.545 253.837 211.309 253.601 211.132 253.299C210.961 252.992 210.875 252.638 210.875 252.238C210.875 251.837 210.964 251.486 211.14 251.185C211.317 250.877 211.553 250.639 211.849 250.467C212.151 250.295 212.488 250.21 212.862 250.21C213.23 250.21 213.563 250.295 213.859 250.467C214.16 250.639 214.397 250.877 214.568 251.185C214.745 251.486 214.833 251.837 214.833 252.238C214.833 252.638 214.745 252.992 214.568 253.299C214.397 253.601 214.16 253.837 213.859 254.009C213.558 254.181 213.223 254.266 212.854 254.266ZM212.854 253.4C213.114 253.4 213.34 253.304 213.532 253.112C213.724 252.914 213.82 252.622 213.82 252.238C213.82 251.853 213.724 251.564 213.532 251.372C213.34 251.174 213.117 251.075 212.862 251.075C212.597 251.075 212.368 251.174 212.176 251.372C211.989 251.564 211.896 251.853 211.896 252.238C211.896 252.622 211.989 252.914 212.176 253.112C212.368 253.304 212.595 253.4 212.854 253.4ZM215.502 254.173V250.303H216.383L216.46 250.958C216.58 250.729 216.751 250.547 216.974 250.412C217.203 250.277 217.47 250.21 217.777 250.21C218.255 250.21 218.627 250.36 218.891 250.662C219.156 250.964 219.288 251.406 219.288 251.988V254.173H218.291V252.082C218.291 251.749 218.223 251.494 218.088 251.317C217.953 251.14 217.743 251.052 217.457 251.052C217.177 251.052 216.946 251.151 216.764 251.348C216.588 251.546 216.499 251.821 216.499 252.176V254.173H215.502ZM221.741 254.173C221.336 254.173 221.011 254.074 220.767 253.876C220.523 253.678 220.401 253.328 220.401 252.823V251.138H219.739V250.303H220.401L220.518 249.266H221.398V250.303H222.443V251.138H221.398V252.831C221.398 253.018 221.437 253.148 221.516 253.221C221.598 253.289 221.738 253.322 221.936 253.322H222.419V254.173H221.741ZM223.614 249.702C223.431 249.702 223.281 249.647 223.162 249.538C223.047 249.429 222.99 249.291 222.99 249.125C222.99 248.958 223.047 248.823 223.162 248.719C223.281 248.61 223.431 248.555 223.614 248.555C223.796 248.555 223.943 248.61 224.057 248.719C224.177 248.823 224.237 248.958 224.237 249.125C224.237 249.291 224.177 249.429 224.057 249.538C223.943 249.647 223.796 249.702 223.614 249.702ZM223.115 254.173V250.303H224.112V254.173H223.115ZM224.931 254.173V250.303H225.81L225.889 250.958C226.008 250.729 226.18 250.547 226.403 250.412C226.632 250.277 226.899 250.21 227.205 250.21C227.683 250.21 228.055 250.36 228.32 250.662C228.584 250.964 228.717 251.406 228.717 251.988V254.173H227.719V252.082C227.719 251.749 227.652 251.494 227.517 251.317C227.382 251.14 227.172 251.052 226.886 251.052C226.605 251.052 226.374 251.151 226.192 251.348C226.016 251.546 225.928 251.821 225.928 252.176V254.173H224.931ZM230.897 254.266C230.414 254.266 230.04 254.115 229.775 253.814C229.516 253.512 229.386 253.07 229.386 252.487V250.303H230.375V252.394C230.375 252.727 230.443 252.982 230.577 253.159C230.712 253.336 230.926 253.423 231.217 253.423C231.492 253.423 231.718 253.325 231.894 253.127C232.076 252.93 232.167 252.654 232.167 252.3V250.303H233.164V254.173H232.284L232.206 253.518C232.086 253.746 231.912 253.928 231.684 254.064C231.46 254.199 231.198 254.266 230.897 254.266ZM235.843 254.266C235.453 254.266 235.108 254.183 234.806 254.017C234.505 253.851 234.269 253.616 234.098 253.314C233.927 253.013 233.84 252.664 233.84 252.269C233.84 251.869 233.924 251.512 234.09 251.2C234.261 250.888 234.495 250.647 234.791 250.474C235.092 250.297 235.446 250.21 235.851 250.21C236.23 250.21 236.565 250.292 236.856 250.459C237.147 250.625 237.373 250.854 237.533 251.146C237.7 251.432 237.783 251.751 237.783 252.105C237.783 252.162 237.78 252.222 237.775 252.285C237.775 252.347 237.772 252.412 237.768 252.479H234.83C234.851 252.781 234.955 253.018 235.142 253.19C235.334 253.361 235.565 253.448 235.835 253.448C236.038 253.448 236.207 253.403 236.342 253.314C236.482 253.221 236.586 253.101 236.653 252.955H237.666C237.594 253.2 237.471 253.423 237.3 253.627C237.134 253.824 236.926 253.98 236.676 254.095C236.432 254.209 236.154 254.266 235.843 254.266ZM235.851 251.02C235.606 251.02 235.391 251.091 235.204 251.232C235.017 251.367 234.898 251.575 234.845 251.855H236.77C236.755 251.601 236.661 251.398 236.49 251.247C236.318 251.096 236.105 251.02 235.851 251.02ZM240.789 254.173L239.659 250.303H240.648L241.318 253.088L242.097 250.303H243.204L243.983 253.088L244.661 250.303H245.65L244.512 254.173H243.476L242.65 251.278L241.825 254.173H240.789ZM246.594 249.702C246.413 249.702 246.262 249.647 246.142 249.538C246.028 249.429 245.971 249.291 245.971 249.125C245.971 248.958 246.028 248.823 246.142 248.719C246.262 248.61 246.413 248.555 246.594 248.555C246.776 248.555 246.924 248.61 247.038 248.719C247.158 248.823 247.217 248.958 247.217 249.125C247.217 249.291 247.158 249.429 247.038 249.538C246.924 249.647 246.776 249.702 246.594 249.702ZM246.096 254.173V250.303H247.093V254.173H246.096ZM249.633 254.173C249.228 254.173 248.903 254.074 248.659 253.876C248.415 253.678 248.293 253.328 248.293 252.823V251.138H247.63V250.303H248.293L248.41 249.266H249.29V250.303H250.334V251.138H249.29V252.831C249.29 253.018 249.329 253.148 249.407 253.221C249.49 253.289 249.63 253.322 249.828 253.322H250.311V254.173H249.633ZM250.968 254.173V248.555H251.965V250.896C252.094 250.683 252.268 250.516 252.487 250.397C252.71 250.272 252.965 250.21 253.251 250.21C253.728 250.21 254.097 250.36 254.357 250.662C254.621 250.964 254.754 251.406 254.754 251.988V254.173H253.765V252.082C253.765 251.749 253.697 251.494 253.562 251.317C253.432 251.14 253.225 251.052 252.939 251.052C252.658 251.052 252.425 251.151 252.237 251.348C252.056 251.546 251.965 251.821 251.965 252.176V254.173H250.968ZM257.142 254.173V248.711H260.703V249.515H258.139V251.013H260.469V251.793H258.139V253.369H260.703V254.173H257.142ZM261.4 254.173V250.303H262.281L262.366 250.826C262.491 250.639 262.655 250.49 262.857 250.381C263.065 250.266 263.304 250.21 263.574 250.21C264.172 250.21 264.595 250.44 264.844 250.904C264.984 250.69 265.171 250.521 265.405 250.397C265.644 250.272 265.904 250.21 266.184 250.21C266.688 250.21 267.075 250.36 267.345 250.662C267.615 250.964 267.75 251.406 267.75 251.988V254.173H266.753V252.082C266.753 251.749 266.688 251.494 266.558 251.317C266.433 251.14 266.239 251.052 265.974 251.052C265.703 251.052 265.486 251.151 265.319 251.348C265.158 251.546 265.078 251.821 265.078 252.176V254.173H264.08V252.082C264.08 251.749 264.015 251.494 263.886 251.317C263.756 251.14 263.556 251.052 263.286 251.052C263.021 251.052 262.805 251.151 262.639 251.348C262.478 251.546 262.397 251.821 262.397 252.176V254.173H261.4ZM269.807 254.266C269.474 254.266 269.201 254.215 268.989 254.11C268.776 254.001 268.617 253.858 268.513 253.681C268.409 253.504 268.357 253.309 268.357 253.096C268.357 252.737 268.498 252.446 268.778 252.222C269.059 251.999 269.479 251.887 270.04 251.887H271.022V251.793C271.022 251.528 270.947 251.333 270.796 251.208C270.646 251.084 270.458 251.02 270.235 251.02C270.032 251.02 269.856 251.07 269.705 251.169C269.554 251.263 269.461 251.403 269.425 251.591H268.451C268.477 251.309 268.571 251.065 268.731 250.857C268.897 250.649 269.11 250.49 269.37 250.381C269.63 250.266 269.921 250.21 270.242 250.21C270.793 250.21 271.227 250.347 271.544 250.623C271.861 250.899 272.019 251.289 272.019 251.793V254.173H271.17L271.076 253.549C270.962 253.757 270.801 253.928 270.593 254.064C270.391 254.199 270.129 254.266 269.807 254.266ZM270.032 253.487C270.318 253.487 270.539 253.392 270.694 253.205C270.856 253.018 270.957 252.787 270.998 252.511H270.149C269.885 252.511 269.695 252.56 269.58 252.659C269.466 252.753 269.409 252.87 269.409 253.011C269.409 253.161 269.466 253.278 269.58 253.361C269.695 253.445 269.846 253.487 270.032 253.487ZM273.286 249.702C273.104 249.702 272.953 249.647 272.834 249.538C272.72 249.429 272.663 249.291 272.663 249.125C272.663 248.958 272.72 248.823 272.834 248.719C272.953 248.61 273.104 248.555 273.286 248.555C273.467 248.555 273.615 248.61 273.73 248.719C273.849 248.823 273.909 248.958 273.909 249.125C273.909 249.291 273.849 249.429 273.73 249.538C273.615 249.647 273.467 249.702 273.286 249.702ZM272.787 254.173V250.303H273.784V254.173H272.787ZM274.602 254.173V248.555H275.6V254.173H274.602Z" fill="white"/>
<path d="M292.297 176.602L293.205 179.261H293.242L294.149 176.602H294.681L293.508 179.866H292.939L291.766 176.602H292.297Z" fill="white"/>
<path d="M295.114 179.866V177.418H295.59V179.866H295.114ZM295.354 177.041C295.271 177.041 295.2 177.013 295.141 176.958C295.083 176.902 295.053 176.835 295.053 176.757C295.053 176.678 295.083 176.612 295.141 176.556C295.2 176.5 295.271 176.472 295.354 176.472C295.437 176.472 295.508 176.5 295.566 176.556C295.625 176.612 295.655 176.678 295.655 176.757C295.655 176.835 295.625 176.902 295.566 176.958C295.508 177.013 295.437 177.041 295.354 177.041Z" fill="white"/>
<path d="M297.285 179.915C297.044 179.915 296.836 179.864 296.662 179.761C296.489 179.657 296.355 179.511 296.261 179.323C296.167 179.134 296.121 178.912 296.121 178.658C296.121 178.407 296.167 178.186 296.261 177.995C296.355 177.804 296.487 177.655 296.656 177.547C296.825 177.44 297.024 177.387 297.251 177.387C297.389 177.387 297.523 177.409 297.652 177.455C297.782 177.501 297.898 177.572 298.001 177.67C298.104 177.768 298.185 177.895 298.245 178.051C298.304 178.206 298.334 178.395 298.334 178.617V178.786H296.39V178.429H297.867C297.867 178.303 297.842 178.192 297.791 178.096C297.74 177.998 297.668 177.921 297.576 177.865C297.485 177.808 297.377 177.78 297.254 177.78C297.121 177.78 297.004 177.813 296.904 177.879C296.805 177.944 296.729 178.029 296.675 178.134C296.622 178.238 296.595 178.351 296.595 178.473V178.752C296.595 178.916 296.624 179.055 296.681 179.17C296.739 179.284 296.821 179.372 296.925 179.433C297.029 179.492 297.15 179.522 297.289 179.522C297.38 179.522 297.462 179.509 297.536 179.484C297.61 179.457 297.675 179.418 297.729 179.366C297.783 179.314 297.824 179.249 297.853 179.173L298.304 179.254C298.268 179.387 298.203 179.503 298.109 179.603C298.017 179.702 297.901 179.779 297.761 179.834C297.622 179.888 297.463 179.915 297.285 179.915Z" fill="white"/>
<path d="M299.388 179.866L298.668 177.418H299.16L299.64 179.216H299.663L300.144 177.418H300.636L301.114 179.208H301.138L301.614 177.418H302.106L301.388 179.866H300.902L300.405 178.099H300.369L299.872 179.866H299.388Z" fill="white"/>
<path d="M303.744 179.866V177.418H304.201V177.817H304.232C304.283 177.682 304.366 177.577 304.482 177.501C304.597 177.425 304.736 177.387 304.897 177.387C305.061 177.387 305.198 177.425 305.308 177.501C305.42 177.578 305.502 177.683 305.555 177.817H305.58C305.639 177.686 305.732 177.582 305.859 177.504C305.986 177.426 306.138 177.387 306.314 177.387C306.536 177.387 306.717 177.456 306.857 177.595C306.999 177.734 307.069 177.944 307.069 178.225V179.866H306.593V178.269C306.593 178.104 306.548 177.984 306.458 177.909C306.368 177.835 306.26 177.798 306.135 177.798C305.98 177.798 305.859 177.845 305.773 177.941C305.687 178.036 305.644 178.157 305.644 178.306V179.866H305.17V178.239C305.17 178.106 305.128 177.999 305.045 177.919C304.963 177.838 304.855 177.798 304.722 177.798C304.632 177.798 304.549 177.822 304.472 177.869C304.397 177.916 304.336 177.981 304.289 178.065C304.243 178.149 304.221 178.246 304.221 178.357V179.866H303.744Z" fill="white"/>
<path d="M308.738 179.915C308.508 179.915 308.308 179.863 308.137 179.758C307.966 179.653 307.834 179.505 307.739 179.316C307.645 179.127 307.597 178.906 307.597 178.653C307.597 178.399 307.645 178.177 307.739 177.987C307.834 177.797 307.966 177.649 308.137 177.544C308.308 177.439 308.508 177.387 308.738 177.387C308.967 177.387 309.167 177.439 309.338 177.544C309.509 177.649 309.641 177.797 309.736 177.987C309.83 178.177 309.878 178.399 309.878 178.653C309.878 178.906 309.83 179.127 309.736 179.316C309.641 179.505 309.509 179.653 309.338 179.758C309.167 179.863 308.967 179.915 308.738 179.915ZM308.739 179.515C308.888 179.515 309.011 179.476 309.109 179.398C309.206 179.319 309.278 179.214 309.325 179.084C309.373 178.953 309.397 178.809 309.397 178.652C309.397 178.496 309.373 178.352 309.325 178.222C309.278 178.09 309.206 177.984 309.109 177.904C309.011 177.825 308.888 177.785 308.739 177.785C308.589 177.785 308.465 177.825 308.367 177.904C308.269 177.984 308.196 178.09 308.148 178.222C308.102 178.352 308.078 178.496 308.078 178.652C308.078 178.809 308.102 178.953 308.148 179.084C308.196 179.214 308.269 179.319 308.367 179.398C308.465 179.476 308.589 179.515 308.739 179.515Z" fill="white"/>
<path d="M310.409 179.866V177.418H310.869V177.807H310.895C310.939 177.675 311.018 177.572 311.13 177.496C311.244 177.42 311.372 177.382 311.516 177.382C311.545 177.382 311.58 177.383 311.621 177.385C311.662 177.387 311.695 177.39 311.718 177.393V177.849C311.699 177.843 311.665 177.837 311.616 177.831C311.567 177.824 311.518 177.82 311.47 177.82C311.357 177.82 311.257 177.844 311.169 177.892C311.082 177.938 311.013 178.004 310.962 178.088C310.911 178.171 310.885 178.265 310.885 178.371V179.866H310.409Z" fill="white"/>
<path d="M313.096 179.915C312.855 179.915 312.648 179.864 312.474 179.761C312.301 179.657 312.167 179.511 312.073 179.323C311.979 179.134 311.932 178.912 311.932 178.658C311.932 178.407 311.979 178.186 312.073 177.995C312.167 177.804 312.299 177.655 312.468 177.547C312.637 177.44 312.836 177.387 313.063 177.387C313.201 177.387 313.335 177.409 313.464 177.455C313.594 177.501 313.71 177.572 313.813 177.67C313.916 177.768 313.997 177.895 314.057 178.051C314.116 178.206 314.146 178.395 314.146 178.617V178.786H312.202V178.429H313.679C313.679 178.303 313.654 178.192 313.603 178.096C313.552 177.998 313.48 177.921 313.388 177.865C313.297 177.808 313.189 177.78 313.066 177.78C312.932 177.78 312.816 177.813 312.716 177.879C312.617 177.944 312.541 178.029 312.487 178.134C312.434 178.238 312.407 178.351 312.407 178.473V178.752C312.407 178.916 312.436 179.055 312.493 179.17C312.551 179.284 312.633 179.372 312.737 179.433C312.841 179.492 312.962 179.522 313.101 179.522C313.191 179.522 313.274 179.509 313.348 179.484C313.422 179.457 313.487 179.418 313.541 179.366C313.595 179.314 313.636 179.249 313.665 179.173L314.116 179.254C314.079 179.387 314.015 179.503 313.921 179.603C313.829 179.702 313.713 179.779 313.573 179.834C313.434 179.888 313.275 179.915 313.096 179.915Z" fill="white"/>
</g>
<g filter="url(#filter10_b_2464_9028)">
<rect x="64.9375" y="214.684" width="103.727" height="41.7292" rx="9.53811" fill="url(#paint7_radial_2464_9028)"/>
<rect x="64.9375" y="214.684" width="103.727" height="41.7292" rx="9.53811" fill="white" fill-opacity="0.2"/>
<rect x="65.5336" y="215.28" width="102.535" height="40.537" rx="8.94198" stroke="url(#paint8_linear_2464_9028)" stroke-width="1.19226"/>
<path d="M84.7578 231.375L92.9889 236.863C93.3318 237.091 93.7347 237.214 94.1469 237.214C94.5591 237.214 94.962 237.091 95.3049 236.863L103.536 231.375M86.8443 242.851H101.45C102.003 242.851 102.534 242.631 102.925 242.24C103.316 241.848 103.536 241.318 103.536 240.764V230.332C103.536 229.779 103.316 229.248 102.925 228.857C102.534 228.465 102.003 228.246 101.45 228.246H86.8443C86.2909 228.246 85.7602 228.465 85.3689 228.857C84.9776 229.248 84.7578 229.779 84.7578 230.332V240.764C84.7578 241.318 84.9776 241.848 85.3689 242.24C85.7602 242.631 86.2909 242.851 86.8443 242.851Z" stroke="white" stroke-width="2.38453" stroke-linecap="round" stroke-linejoin="round"/>
<rect x="120.977" y="227.799" width="30.9989" height="15.4994" rx="7.74972" fill="#E1EFFE"/>
<rect x="137.668" y="228.991" width="13.1149" height="13.1149" rx="6.55745" fill="#3F83F8"/>
</g>
<g filter="url(#filter11_bf_2464_9028)">
<rect x="321.273" y="9.61426" width="103.727" height="41.7292" rx="9.53811" fill="url(#paint9_radial_2464_9028)"/>
<rect x="321.273" y="9.61426" width="103.727" height="41.7292" rx="9.53811" fill="white" fill-opacity="0.2"/>
<rect x="321.87" y="10.2104" width="102.535" height="40.537" rx="8.94198" stroke="url(#paint10_linear_2464_9028)" stroke-width="1.19226"/>
<path fill-rule="evenodd" clip-rule="evenodd" d="M344.224 40.9113C345.586 40.9113 346.746 40.0404 347.175 38.8249H356.221C358.814 38.8249 360.915 36.723 360.915 34.1303C360.915 31.5376 358.814 29.4358 356.221 29.4358H344.745C343.305 29.4358 342.137 28.2681 342.137 26.8277C342.137 25.3873 343.305 24.2196 344.745 24.2196H347.965L346.616 25.5684L348.091 27.0438L351.958 23.1764L348.091 19.309L346.616 20.7844L347.965 22.1332H344.745C342.153 22.1332 340.051 24.235 340.051 26.8277C340.051 29.4204 342.153 31.5222 344.745 31.5222H356.221C357.661 31.5222 358.829 32.6899 358.829 34.1303C358.829 35.5707 357.661 36.7384 356.221 36.7384H347.175C346.746 35.5228 345.586 34.6519 344.224 34.6519C342.495 34.6519 341.094 36.0531 341.094 37.7816C341.094 39.5101 342.495 40.9113 344.224 40.9113ZM343.18 37.7815C343.18 37.2054 343.648 36.7383 344.224 36.7383C344.8 36.7383 345.267 37.2054 345.267 37.7815C345.267 38.3577 344.8 38.8248 344.224 38.8248C343.648 38.8248 343.18 38.3577 343.18 37.7815ZM356.742 20.0466C358.471 20.0466 359.872 21.4478 359.872 23.1763C359.872 24.9048 358.471 26.306 356.742 26.306C355.014 26.306 353.613 24.9048 353.613 23.1763C353.613 21.4478 355.014 20.0466 356.742 20.0466ZM355.699 23.1763C355.699 22.6001 356.167 22.133 356.743 22.133C357.319 22.133 357.786 22.6001 357.786 23.1763C357.786 23.7524 357.319 24.2195 356.743 24.2195C356.167 24.2195 355.699 23.7524 355.699 23.1763Z" fill="white"/>
<rect x="377.311" y="22.7292" width="30.9989" height="15.4994" rx="7.74972" fill="#E1EFFE"/>
<rect x="394.002" y="23.9214" width="13.1149" height="13.1149" rx="6.55745" fill="#3F83F8"/>
</g>
<defs>
<filter id="filter0_b_2464_9028" x="-11.368" y="71.6119" width="287.336" height="77.4971" filterUnits="userSpaceOnUse" color-interpolation-filters="sRGB">
<feFlood flood-opacity="0" result="BackgroundImageFix"/>
<feGaussianBlur in="BackgroundImageFix" stdDeviation="5.96132"/>
<feComposite in2="SourceAlpha" operator="in" result="effect1_backgroundBlur_2464_9028"/>
<feBlend mode="normal" in="SourceGraphic" in2="effect1_backgroundBlur_2464_9028" result="shape"/>
</filter>
<filter id="filter1_b_2464_9028" x="196.087" y="132.417" width="287.336" height="77.4971" filterUnits="userSpaceOnUse" color-interpolation-filters="sRGB">
<feFlood flood-opacity="0" result="BackgroundImageFix"/>
<feGaussianBlur in="BackgroundImageFix" stdDeviation="5.96132"/>
<feComposite in2="SourceAlpha" operator="in" result="effect1_backgroundBlur_2464_9028"/>
<feBlend mode="normal" in="SourceGraphic" in2="effect1_backgroundBlur_2464_9028" result="shape"/>
</filter>
<filter id="filter2_f_2464_9028" x="7.70955" y="147.917" width="225.339" height="84.6507" filterUnits="userSpaceOnUse" color-interpolation-filters="sRGB">
<feFlood flood-opacity="0" result="BackgroundImageFix"/>
<feBlend mode="normal" in="SourceGraphic" in2="BackgroundImageFix" result="shape"/>
<feGaussianBlur stdDeviation="7.74972" result="effect1_foregroundBlur_2464_9028"/>
</filter>
<filter id="filter3_b_2464_9028" x="11.2863" y="151.494" width="218.185" height="77.4971" filterUnits="userSpaceOnUse" color-interpolation-filters="sRGB">
<feFlood flood-opacity="0" result="BackgroundImageFix"/>
<feGaussianBlur in="BackgroundImageFix" stdDeviation="5.96132"/>
<feComposite in2="SourceAlpha" operator="in" result="effect1_backgroundBlur_2464_9028"/>
<feBlend mode="normal" in="SourceGraphic" in2="effect1_backgroundBlur_2464_9028" result="shape"/>
</filter>
<filter id="filter4_f_2464_9028" x="200.854" y="236.144" width="225.339" height="84.6507" filterUnits="userSpaceOnUse" color-interpolation-filters="sRGB">
<feFlood flood-opacity="0" result="BackgroundImageFix"/>
<feBlend mode="normal" in="SourceGraphic" in2="BackgroundImageFix" result="shape"/>
<feGaussianBlur stdDeviation="7.74972" result="effect1_foregroundBlur_2464_9028"/>
</filter>
<filter id="filter5_b_2464_9028" x="204.431" y="239.721" width="218.185" height="77.4971" filterUnits="userSpaceOnUse" color-interpolation-filters="sRGB">
<feFlood flood-opacity="0" result="BackgroundImageFix"/>
<feGaussianBlur in="BackgroundImageFix" stdDeviation="5.96132"/>
<feComposite in2="SourceAlpha" operator="in" result="effect1_backgroundBlur_2464_9028"/>
<feBlend mode="normal" in="SourceGraphic" in2="effect1_backgroundBlur_2464_9028" result="shape"/>
</filter>
<filter id="filter6_f_2464_9028" x="178.2" y="50.1512" width="225.339" height="84.6507" filterUnits="userSpaceOnUse" color-interpolation-filters="sRGB">
<feFlood flood-opacity="0" result="BackgroundImageFix"/>
<feBlend mode="normal" in="SourceGraphic" in2="BackgroundImageFix" result="shape"/>
<feGaussianBlur stdDeviation="7.74972" result="effect1_foregroundBlur_2464_9028"/>
</filter>
<filter id="filter7_b_2464_9028" x="181.777" y="53.728" width="218.185" height="77.4971" filterUnits="userSpaceOnUse" color-interpolation-filters="sRGB">
<feFlood flood-opacity="0" result="BackgroundImageFix"/>
<feGaussianBlur in="BackgroundImageFix" stdDeviation="5.96132"/>
<feComposite in2="SourceAlpha" operator="in" result="effect1_backgroundBlur_2464_9028"/>
<feBlend mode="normal" in="SourceGraphic" in2="effect1_backgroundBlur_2464_9028" result="shape"/>
</filter>
<filter id="filter8_b_2464_9028" x="94.7435" y="1.26841" width="294.49" height="335.026" filterUnits="userSpaceOnUse" color-interpolation-filters="sRGB">
<feFlood flood-opacity="0" result="BackgroundImageFix"/>
<feGaussianBlur in="BackgroundImageFix" stdDeviation="26.2298"/>
<feComposite in2="SourceAlpha" operator="in" result="effect1_backgroundBlur_2464_9028"/>
<feBlend mode="normal" in="SourceGraphic" in2="effect1_backgroundBlur_2464_9028" result="shape"/>
</filter>
<filter id="filter9_d_2464_9028" x="153.106" y="230.19" width="180.723" height="47.2973" filterUnits="userSpaceOnUse" color-interpolation-filters="sRGB">
<feFlood flood-opacity="0" result="BackgroundImageFix"/>
<feColorMatrix in="SourceAlpha" type="matrix" values="0 0 0 0 0 0 0 0 0 0 0 0 0 0 0 0 0 0 127 0" result="hardAlpha"/>
<feOffset dx="1.86087" dy="1.86087"/>
<feGaussianBlur stdDeviation="5.58262"/>
<feColorMatrix type="matrix" values="0 0 0 0 0.0117647 0 0 0 0 0.392157 0 0 0 0 1 0 0 0 0.05 0"/>
<feBlend mode="normal" in2="BackgroundImageFix" result="effect1_dropShadow_2464_9028"/>
<feBlend mode="normal" in="SourceGraphic" in2="effect1_dropShadow_2464_9028" result="shape"/>
</filter>
<filter id="filter10_b_2464_9028" x="12.4779" y="162.224" width="208.646" height="146.648" filterUnits="userSpaceOnUse" color-interpolation-filters="sRGB">
<feFlood flood-opacity="0" result="BackgroundImageFix"/>
<feGaussianBlur in="BackgroundImageFix" stdDeviation="26.2298"/>
<feComposite in2="SourceAlpha" operator="in" result="effect1_backgroundBlur_2464_9028"/>
<feBlend mode="normal" in="SourceGraphic" in2="effect1_backgroundBlur_2464_9028" result="shape"/>
</filter>
<filter id="filter11_bf_2464_9028" x="268.814" y="-42.8454" width="208.646" height="146.648" filterUnits="userSpaceOnUse" color-interpolation-filters="sRGB">
<feFlood flood-opacity="0" result="BackgroundImageFix"/>
<feGaussianBlur in="BackgroundImageFix" stdDeviation="26.2298"/>
<feComposite in2="SourceAlpha" operator="in" result="effect1_backgroundBlur_2464_9028"/>
<feBlend mode="normal" in="SourceGraphic" in2="effect1_backgroundBlur_2464_9028" result="shape"/>
<feGaussianBlur stdDeviation="4.76906" result="effect2_foregroundBlur_2464_9028"/>
</filter>
<linearGradient id="paint0_linear_2464_9028" x1="67.397" y1="69.4137" x2="74.7975" y2="166.503" gradientUnits="userSpaceOnUse">
<stop stop-color="#66D4F7"/>
<stop offset="0.322917" stop-color="#4D92FF"/>
<stop offset="1" stop-color="#BB65FF"/>
</linearGradient>
<linearGradient id="paint1_linear_2464_9028" x1="32.5662" y1="1.39356e-06" x2="49.3194" y2="91.5063" gradientUnits="userSpaceOnUse">
<stop stop-color="#66D4F7"/>
<stop offset="0.466425" stop-color="#4D92FF"/>
<stop offset="1" stop-color="#BB65FF"/>
</linearGradient>
<linearGradient id="paint2_linear_2464_9028" x1="47.2284" y1="163.416" x2="69.3416" y2="252.501" gradientUnits="userSpaceOnUse">
<stop stop-color="#66D4F7"/>
<stop offset="0.466425" stop-color="#4D92FF"/>
<stop offset="1" stop-color="#BB65FF"/>
</linearGradient>
<linearGradient id="paint3_linear_2464_9028" x1="24.0194" y1="1.39356e-06" x2="46.1326" y2="89.0844" gradientUnits="userSpaceOnUse">
<stop stop-color="#66D4F7"/>
<stop offset="0.466425" stop-color="#4D92FF"/>
<stop offset="1" stop-color="#BB65FF"/>
</linearGradient>
<linearGradient id="paint4_linear_2464_9028" x1="24.0194" y1="1.39356e-06" x2="46.1326" y2="89.0844" gradientUnits="userSpaceOnUse">
<stop stop-color="#66D4F7"/>
<stop offset="0.466425" stop-color="#4D92FF"/>
<stop offset="1" stop-color="#BB65FF"/>
</linearGradient>
<radialGradient id="paint5_radial_2464_9028" cx="0" cy="0" r="1" gradientUnits="userSpaceOnUse" gradientTransform="translate(369.635 392.184) rotate(-116.691) scale(416.139 421.195)">
<stop stop-color="#DA8CFF"/>
<stop offset="0.407965" stop-color="#B64DE8" stop-opacity="0.4"/>
<stop offset="0.651042" stop-color="#2C9BEC" stop-opacity="0.36"/>
<stop offset="0.848431" stop-color="#6E8EE0" stop-opacity="0.6"/>
</radialGradient>
<linearGradient id="paint6_linear_2464_9028" x1="140.023" y1="252.829" x2="399.877" y2="266.125" gradientUnits="userSpaceOnUse">
<stop stop-color="#66D4F7"/>
<stop offset="0.322917" stop-color="#4D92FF"/>
<stop offset="1" stop-color="#BB65FF"/>
</linearGradient>
<radialGradient id="paint7_radial_2464_9028" cx="0" cy="0" r="1" gradientUnits="userSpaceOnUse" gradientTransform="translate(186.646 276.062) rotate(-146.606) scale(122.503 141.974)">
<stop stop-color="#DA8CFF"/>
<stop offset="0.407965" stop-color="#B64DE8" stop-opacity="0.4"/>
<stop offset="0.651042" stop-color="#2C9BEC" stop-opacity="0.36"/>
<stop offset="0.848431" stop-color="#6E8EE0" stop-opacity="0.6"/>
</radialGradient>
<linearGradient id="paint8_linear_2464_9028" x1="61.0087" y1="250.79" x2="200.246" y2="272.287" gradientUnits="userSpaceOnUse">
<stop stop-color="#66D4F7"/>
<stop offset="0.322917" stop-color="#4D92FF"/>
<stop offset="1" stop-color="#BB65FF"/>
</linearGradient>
<radialGradient id="paint9_radial_2464_9028" cx="0" cy="0" r="1" gradientUnits="userSpaceOnUse" gradientTransform="translate(442.982 70.9922) rotate(-146.606) scale(122.503 141.974)">
<stop stop-color="#DA8CFF"/>
<stop offset="0.407965" stop-color="#B64DE8" stop-opacity="0.4"/>
<stop offset="0.651042" stop-color="#2C9BEC" stop-opacity="0.36"/>
<stop offset="0.848431" stop-color="#6E8EE0" stop-opacity="0.6"/>
</radialGradient>
<linearGradient id="paint10_linear_2464_9028" x1="317.345" y1="45.7206" x2="456.582" y2="67.2177" gradientUnits="userSpaceOnUse">
<stop stop-color="#66D4F7"/>
<stop offset="0.322917" stop-color="#4D92FF"/>
<stop offset="1" stop-color="#BB65FF"/>
</linearGradient>
</defs>
</svg>
