<svg width="380" height="104" viewBox="0 0 380 104" fill="none" xmlns="http://www.w3.org/2000/svg">
<path d="M241.152 30C242.34 30 243.303 30.9633 243.303 32.1516V71.5984C243.303 72.7867 242.34 73.75 241.152 73.75C239.963 73.75 239 72.7867 239 71.5984V32.1516C239 30.9633 239.963 30 241.152 30Z" fill="#BEBEBE"/>
<path fill-rule="evenodd" clip-rule="evenodd" d="M95.9731 62.4461C97.1501 59.1086 97.728 55.5879 97.6799 52.0477C97.7262 48.5191 97.1483 45.0102 95.9731 41.6843C94.9245 38.7229 93.2899 36.005 91.1677 33.6942C89.084 31.4703 86.5482 29.7222 83.7323 28.5687C80.6947 27.3409 77.4447 26.73 74.1704 26.7712C70.9007 26.7286 67.656 27.347 64.6295 28.5897C61.8245 29.7529 59.2956 31.497 57.208 33.7082C55.0845 36.0127 53.4496 38.7263 52.4026 41.6843C51.2274 45.0102 50.6496 48.5191 50.6959 52.0477C50.6478 55.5879 51.2256 59.1086 52.4026 62.4461C53.4496 65.4042 55.0845 68.1178 57.208 70.4223C59.2925 72.6336 61.8225 74.3737 64.6295 75.5267C70.7733 77.9231 77.5884 77.9231 83.7323 75.5267C86.5443 74.3757 89.0793 72.6354 91.1677 70.4223C93.2913 68.1178 94.9261 65.4042 95.9731 62.4461ZM92.5653 42.7448C93.5458 45.7457 94.0186 48.8902 93.9642 52.0479C94.0219 55.2104 93.549 58.3601 92.5653 61.3651C91.7046 63.9427 90.3262 66.3157 88.5153 68.3372C86.7717 70.2524 84.6197 71.7477 82.22 72.7114C77.0414 74.7061 71.3105 74.7061 66.132 72.7114C63.7354 71.7418 61.5847 70.2473 59.8367 68.3372C58.0171 66.3172 56.6293 63.9443 55.7587 61.3651C54.7572 58.3634 54.27 55.2131 54.3178 52.0479C54.2793 48.8989 54.7688 45.7659 55.7657 42.7799C56.6302 40.1832 58.0184 37.7931 59.8437 35.7586C61.5948 33.8487 63.7444 32.3503 66.139 31.3704C71.3124 29.348 77.0535 29.348 82.227 31.3704C84.6248 32.3443 86.7756 33.8436 88.5223 35.7586C90.3323 37.7848 91.7084 40.1627 92.5653 42.7448Z" fill="#0364FF"/>
<path fill-rule="evenodd" clip-rule="evenodd" d="M136.107 77.5536C136.491 77.5536 136.708 77.1144 136.474 76.8107L120.2 55.6751C119.791 55.1164 119.286 54.6403 118.709 54.2708C120.706 54.0507 122.661 53.5352 124.515 52.7402C126.14 52.037 127.63 51.0381 128.912 49.7912C130.113 48.601 131.061 47.1665 131.696 45.5784C132.36 43.9008 132.69 42.1031 132.669 40.2914C132.656 35.9335 131.245 32.6288 128.436 30.3773C125.627 28.1258 121.407 27 115.776 27H103.701C103.445 27 103.238 27.2067 103.238 27.4617V77.0919C103.238 77.3469 103.445 77.5536 103.701 77.5536H106.342C106.597 77.5536 106.805 77.3469 106.805 77.0919V55.1538C106.805 54.8988 107.012 54.6921 107.268 54.6921H113.23C113.642 54.6882 114.054 54.7141 114.462 54.7694C114.76 54.8012 115.051 54.8793 115.326 55.0011C115.578 55.1042 115.808 55.2542 116.007 55.4434C116.217 55.6597 116.409 55.8946 116.579 56.1455L132.302 76.6548C132.485 76.9517 132.741 77.1938 133.044 77.357C133.354 77.4981 133.692 77.5653 134.031 77.5536H136.107ZM121.099 51.1675C119.204 51.732 117.239 52.0041 115.266 51.975H107.269C107.013 51.975 106.806 51.7683 106.806 51.5133V30.3546C106.806 30.0996 107.013 29.8929 107.269 29.8929H115.784C120.135 29.8976 123.445 30.7682 125.714 32.5048C127.983 34.2414 129.117 36.9072 129.117 40.5021C129.142 42.1374 128.824 43.7588 128.185 45.2555C127.561 46.6603 126.629 47.8959 125.462 48.8645C124.17 49.9225 122.687 50.7053 121.099 51.1675Z" fill="#0364FF"/>
<path d="M160.875 74.3344C163.072 74.3749 165.253 73.9495 167.276 73.0857C169.096 72.2887 170.724 71.104 172.048 69.6129C173.382 68.085 174.399 66.303 175.04 64.3722C175.736 62.2768 176.079 60.0786 176.055 57.8688V27.6925C176.055 27.3101 176.366 27 176.75 27H178.93C179.313 27 179.624 27.3101 179.624 27.6925V57.8688C179.647 60.4979 179.209 63.1105 178.33 65.586C177.512 67.8968 176.244 70.0195 174.601 71.8299C172.95 73.6392 170.937 75.074 168.695 76.0392C163.674 78.0601 158.076 78.0601 153.056 76.0392C150.813 75.0759 148.799 73.6408 147.15 71.8299C145.505 70.0214 144.237 67.8981 143.421 65.586C142.542 63.1105 142.104 60.4979 142.127 57.8688V27.6925C142.127 27.3101 142.438 27 142.821 27H145.015C145.399 27 145.71 27.3101 145.71 27.6925V57.8267C145.689 60.0396 146.037 62.2403 146.739 64.3372C147.38 66.2648 148.392 68.0458 149.717 69.5778C151.029 71.0813 152.65 72.2784 154.468 73.0857C156.491 73.957 158.676 74.3827 160.875 74.3344Z" fill="#0364FF"/>
<path d="M212.84 33.5662C212.687 33.9287 212.335 34.1636 211.945 34.1629C211.497 34.0875 211.088 33.8596 210.785 33.517C210.183 33.0008 209.542 32.5314 208.869 32.113C207.919 31.5146 206.903 31.0293 205.842 30.6668C202.857 29.7359 199.661 29.7604 196.691 30.737C195.431 31.1974 194.278 31.9142 193.303 32.8431C192.402 33.708 191.692 34.7559 191.22 35.918C190.753 37.0816 190.517 38.3268 190.526 39.5825C190.467 41.0416 190.831 42.4863 191.574 43.7385C192.297 44.8592 193.243 45.8155 194.351 46.5467C195.578 47.349 196.895 47.9995 198.274 48.4842C199.732 49.0037 201.239 49.5232 202.78 50.0357C204.321 50.5482 205.828 51.1168 207.286 51.7276C208.694 52.3145 210.014 53.0966 211.209 54.0513C212.361 54.9901 213.307 56.1617 213.986 57.4912C214.734 59.0759 215.093 60.8192 215.034 62.5739C215.053 64.5713 214.702 66.5546 214 68.4218C213.321 70.2099 212.277 71.8339 210.938 73.1886C209.537 74.5807 207.869 75.6678 206.036 76.3828C203.917 77.1942 201.665 77.5897 199.399 77.5482C196.528 77.6255 193.677 77.0346 191.067 75.8212C188.945 74.7663 187.03 73.3329 185.414 71.5917C185.138 71.2938 185.106 70.8479 185.322 70.5043L185.923 69.5521C186.143 69.2314 186.502 69.0359 186.888 69.0255C187.193 69.0724 187.474 69.2206 187.686 69.4468L188.86 70.4717C189.318 70.8859 189.873 71.3282 190.519 71.8056C191.222 72.3205 191.973 72.7649 192.761 73.1324C194.863 74.113 197.154 74.6071 199.468 74.5786C201.237 74.6093 202.996 74.307 204.655 73.687C206.086 73.1397 207.392 72.3037 208.494 71.2299C209.542 70.201 210.359 68.9559 210.889 67.5794C211.451 66.1403 211.734 64.6054 211.723 63.0583C211.782 61.5472 211.416 60.0501 210.667 58.7409C209.954 57.6125 209.006 56.6543 207.89 55.9327C206.665 55.1421 205.35 54.5033 203.974 54.0303C202.509 53.5178 201.01 53.0193 199.461 52.5279C197.913 52.0365 196.42 51.4959 194.955 50.8852C193.543 50.3116 192.221 49.531 191.033 48.5685C189.87 47.612 188.923 46.4152 188.256 45.0584C187.498 43.4021 187.136 41.5888 187.2 39.7651C187.2 38.1232 187.516 36.4969 188.131 34.9773C188.753 33.4466 189.682 32.0628 190.859 30.9125C192.143 29.6893 193.653 28.735 195.303 28.1044C197.226 27.3513 199.274 26.9772 201.336 27.0022C203.667 26.9656 205.984 27.3802 208.161 28.2238C210.027 28.992 211.735 30.1032 213.197 31.4991C213.484 31.7723 213.545 32.2018 213.363 32.5533L212.84 33.5662Z" fill="#0364FF"/>
<path fill-rule="evenodd" clip-rule="evenodd" d="M4.75143 27C2.12729 27 0 29.119 0 31.7329V37.2463C0 39.8602 2.12729 41.9792 4.75143 41.9792H13.158V72.822C13.158 75.4359 15.2853 77.5549 17.9094 77.5549H23.4445C26.0686 77.5549 28.1959 75.4359 28.1959 72.822V37.2864C28.196 37.2731 28.1961 37.2597 28.1961 37.2463V31.7329C28.1961 29.119 26.0688 27 23.4446 27H17.9094H4.75143Z" fill="#0364FF"/>
<path d="M39.4751 41.9792C43.6277 41.9792 46.9941 38.626 46.9941 34.4896C46.9941 30.3532 43.6277 27 39.4751 27C35.3225 27 31.9562 30.3532 31.9562 34.4896C31.9562 38.626 35.3225 41.9792 39.4751 41.9792Z" fill="#0016DE"/>
<path d="M296.268 45.8392C297.21 45.8392 297.879 46.7577 297.589 47.6545L291.138 67.6549C290.953 68.2286 290.419 68.6174 289.816 68.6174H287.465C286.863 68.6174 286.33 68.2297 286.144 67.6573L280.782 51.1386L275.465 67.6541C275.28 68.2282 274.746 68.6174 274.143 68.6174H271.842C271.239 68.6174 270.705 68.2286 270.52 67.6549L264.068 47.6545C263.779 46.7577 264.448 45.8392 265.39 45.8392H266.908C267.524 45.8392 268.066 46.2448 268.241 46.8355L273.016 63.0391H273.062L278.376 46.7962C278.563 46.2254 279.096 45.8392 279.696 45.8392H282.101C282.701 45.8392 283.234 46.2254 283.421 46.7962L288.735 63.0391H288.781L293.512 46.8388C293.685 46.2464 294.228 45.8392 294.845 45.8392H296.268Z" fill="black"/>
<path d="M303.623 61.6445C303.623 62.7601 304.088 63.6899 305.018 64.4336C305.979 65.1774 307.095 65.5493 308.366 65.5493C310.164 65.5493 311.761 64.883 313.156 63.5504C314.402 62.3865 315.103 61.0453 315.261 59.5267C315.305 59.1042 315.106 58.6935 314.745 58.469C313.467 57.6728 311.79 57.2748 309.715 57.2748C307.978 57.2748 306.521 57.6932 305.343 58.5299C304.196 59.3667 303.623 60.4048 303.623 61.6445ZM309.157 45.0954C312.319 45.0954 314.815 45.9477 316.644 47.6522C318.473 49.3257 319.388 51.6345 319.388 54.5786V67.2285C319.388 67.9955 318.766 68.6174 317.999 68.6174H316.684C315.917 68.6174 315.295 67.9955 315.295 67.2285V65.5779C315.295 65.5108 315.241 65.4563 315.174 65.4563C315.133 65.4563 315.095 65.4766 315.073 65.5098C313.31 68.0774 310.966 69.3611 308.04 69.3611C305.529 69.3611 303.421 68.6174 301.716 67.1298C300.042 65.6423 299.205 63.7828 299.205 61.5515C299.205 59.1962 300.088 57.3213 301.855 55.9267C303.654 54.5321 306.041 53.8348 309.017 53.8348C311.128 53.8348 312.93 54.1554 314.421 54.7967C314.821 54.9689 315.295 54.6892 315.295 54.2532C315.295 52.7656 314.706 51.5105 313.528 50.4878C312.35 49.4341 310.97 48.9073 309.389 48.9073C307.45 48.9073 305.839 49.5715 304.555 50.9C304.038 51.4343 303.22 51.6169 302.591 51.2209L301.182 50.3341C300.51 49.9117 300.322 49.0054 300.857 48.4202C302.885 46.2037 305.651 45.0954 309.157 45.0954Z" fill="black"/>
<path d="M327.103 35.3334C327.87 35.3334 328.492 35.9552 328.492 36.7223V67.2285C328.492 67.9955 327.87 68.6174 327.103 68.6174H325.602C324.835 68.6174 324.213 67.9955 324.213 67.2285V36.7223C324.213 35.9552 324.835 35.3334 325.602 35.3334H327.103Z" fill="black"/>
<path d="M336.594 35.3334C337.361 35.3334 337.983 35.9552 337.983 36.7223V67.2285C337.983 67.9955 337.361 68.6174 336.594 68.6174H335.094C334.327 68.6174 333.705 67.9955 333.705 67.2285V36.7223C333.705 35.9552 334.327 35.3334 335.094 35.3334H336.594Z" fill="black"/>
<path d="M353.2 69.3611C349.852 69.3611 347.093 68.2145 344.923 65.9212C342.752 63.6279 341.667 60.7302 341.667 57.2283C341.667 53.7573 342.721 50.8752 344.83 48.5819C346.938 46.2576 349.635 45.0954 352.921 45.0954C356.301 45.0954 358.983 46.1956 360.967 48.3959C362.982 50.5653 363.99 53.6179 363.99 57.5537C363.963 57.8176 363.741 58.0186 363.476 58.0186H346.753C346.362 58.0186 346.045 58.3421 346.083 58.7313C346.271 60.6358 347 62.1957 348.271 63.4109C349.697 64.7745 351.402 65.4563 353.386 65.4563C355.721 65.4563 357.625 64.4577 359.097 62.4605C359.532 61.8704 360.317 61.6157 360.976 61.937L362.324 62.5942C363.031 62.9389 363.318 63.8074 362.869 64.4535C361.935 65.7989 360.758 66.8925 359.339 67.7341C357.541 68.8188 355.495 69.3611 353.2 69.3611ZM346.591 53.6503C346.454 54.0728 346.786 54.4856 347.23 54.4856H358.681C359.086 54.4856 359.409 54.139 359.331 53.7418C359.084 52.492 358.467 51.4383 357.479 50.5808C356.332 49.5271 354.782 49.0003 352.828 49.0003C351.216 49.0003 349.821 49.4961 348.643 50.4878C347.694 51.3085 347.01 52.3627 346.591 53.6503Z" fill="black"/>
<path d="M376.243 68.9893C374.383 68.9893 372.832 68.4159 371.592 67.2693C370.383 66.1226 369.763 64.5266 369.732 62.4812V49.744H367.122C366.355 49.744 365.733 49.1222 365.733 48.3552V47.2281C365.733 46.461 366.355 45.8392 367.122 45.8392H369.732V40.2552C369.732 39.4881 370.354 38.8663 371.121 38.8663H372.622C373.389 38.8663 374.011 39.4881 374.011 40.2552V45.8392H378.202C378.969 45.8392 379.591 46.461 379.591 47.2281V48.3552C379.591 49.1222 378.969 49.744 378.202 49.744H374.011V61.0866C374.011 62.6052 374.305 63.6434 374.894 64.2012C375.483 64.728 376.15 64.9915 376.894 64.9915C377.235 64.9915 377.56 64.9605 377.87 64.8985C378.384 64.7586 378.952 65.0016 379.13 65.5029L379.689 67.0839C379.944 67.8038 379.569 68.6017 378.82 68.7522C378.034 68.9102 377.175 68.9893 376.243 68.9893Z" fill="black"/>
</svg>
