<svg width="159" height="162" viewBox="0 0 159 162" fill="none" xmlns="http://www.w3.org/2000/svg">
<g filter="url(#filter0_b_2_45)">
<path d="M0.864746 41.6855H158.277V151.767C158.277 157.29 153.8 161.767 148.277 161.767H10.8648C5.3419 161.767 0.864746 157.29 0.864746 151.767V41.6855Z" fill="url(#paint0_linear_2_45)" fill-opacity="0.8"/>
</g>
<g filter="url(#filter1_b_2_45)">
<path d="M0.864746 41.6855H158.277V9.9993C158.277 4.47646 153.8 -0.000682831 148.277 -0.000682831H10.8648C5.3419 -0.000682831 0.864746 4.47647 0.864746 9.99932V41.6855Z" fill="#052047" fill-opacity="0.41"/>
</g>
<path d="M28.8176 16.416C28.8176 15.2403 29.7708 14.2871 30.9465 14.2871V14.2871C32.1223 14.2871 33.0755 15.2403 33.0755 16.416V26.8903C33.0755 28.0661 32.1223 29.0192 30.9465 29.0192V29.0192C29.7708 29.0192 28.8176 28.0661 28.8176 26.8903V16.416Z" fill="#1AC7FE" fill-opacity="0.7"/>
<path d="M16.7245 24.5078C16.7245 23.3321 17.6776 22.3789 18.8534 22.3789V22.3789C20.0292 22.3789 20.9823 23.3321 20.9823 24.5078V26.8922C20.9823 28.068 20.0292 29.0211 18.8534 29.0211V29.0211C17.6776 29.0211 16.7245 28.068 16.7245 26.8922V24.5078Z" fill="#1AC7FE" fill-opacity="0.7"/>
<path d="M17.646 17.9878C16.8146 17.1564 16.8146 15.8084 17.646 14.977V14.977C18.4774 14.1457 19.8253 14.1457 20.6567 14.977L26.5578 20.8781C27.3892 21.7095 27.3892 23.0575 26.5578 23.8889V23.8889C25.7264 24.7202 24.3784 24.7202 23.5471 23.8889L17.646 17.9878Z" fill="#1AC7FE" fill-opacity="0.7"/>
<path d="M29.4105 14.9409C30.2419 14.1095 31.5898 14.1095 32.4212 14.9409V14.9409C33.2526 15.7723 33.2526 17.1203 32.4212 17.9517L26.5202 23.8527C25.6888 24.6841 24.3408 24.6841 23.5094 23.8527V23.8527C22.678 23.0213 22.678 21.6734 23.5094 20.842L29.4105 14.9409Z" fill="#1AC7FE" fill-opacity="0.7"/>
<path d="M43.0126 20.7609C42.5655 20.7609 42.1735 20.6825 41.8367 20.5257C41.4999 20.3689 41.2357 20.1453 41.044 19.855C40.8582 19.5646 40.7624 19.2191 40.7566 18.8184H41.7322C41.738 19.1436 41.8512 19.4195 42.0719 19.6459C42.2926 19.8724 42.6032 19.9857 43.0039 19.9857C43.3581 19.9857 43.634 19.9015 43.8314 19.733C44.0347 19.5588 44.1363 19.3382 44.1363 19.071C44.1363 18.8562 44.0869 18.682 43.9882 18.5484C43.8953 18.4148 43.7646 18.3045 43.5962 18.2174C43.4336 18.1303 43.2449 18.0519 43.03 17.9822C42.8152 17.9125 42.5887 17.837 42.3506 17.7558C41.8803 17.599 41.526 17.3957 41.2879 17.146C41.0557 16.8963 40.9395 16.5682 40.9395 16.1617C40.9337 15.8191 41.0121 15.52 41.1747 15.2645C41.3431 15.009 41.5754 14.8116 41.8715 14.6722C42.1735 14.527 42.5248 14.4545 42.9255 14.4545C43.3204 14.4545 43.6659 14.527 43.9621 14.6722C44.264 14.8174 44.4992 15.0206 44.6676 15.282C44.836 15.5375 44.9231 15.8365 44.9289 16.1791H43.9534C43.9534 16.0224 43.9127 15.8743 43.8314 15.7349C43.7501 15.5897 43.6311 15.4707 43.4743 15.3778C43.3175 15.2849 43.1259 15.2384 42.8994 15.2384C42.609 15.2326 42.368 15.3052 42.1764 15.4562C41.9906 15.6071 41.8977 15.8162 41.8977 16.0833C41.8977 16.3214 41.9674 16.5043 42.1067 16.6321C42.2461 16.7598 42.4377 16.8673 42.6816 16.9544C42.9255 17.0357 43.2043 17.1315 43.5178 17.2418C43.8198 17.3405 44.0898 17.4596 44.3279 17.599C44.566 17.7383 44.7547 17.9213 44.8941 18.1477C45.0393 18.3742 45.1119 18.6616 45.1119 19.0101C45.1119 19.3178 45.0335 19.6053 44.8767 19.8724C44.7199 20.1337 44.4847 20.3486 44.1711 20.517C43.8576 20.6796 43.4714 20.7609 43.0126 20.7609Z" fill="white"/>
<path d="M46.4906 15.5171C46.3163 15.5171 46.1712 15.4649 46.055 15.3603C45.9447 15.25 45.8895 15.1135 45.8895 14.951C45.8895 14.7884 45.9447 14.6548 46.055 14.5503C46.1712 14.4399 46.3163 14.3848 46.4906 14.3848C46.6648 14.3848 46.807 14.4399 46.9174 14.5503C47.0335 14.6548 47.0916 14.7884 47.0916 14.951C47.0916 15.1135 47.0335 15.25 46.9174 15.3603C46.807 15.4649 46.6648 15.5171 46.4906 15.5171ZM46.0289 20.6564V16.3359H46.9522V20.6564H46.0289Z" fill="white"/>
<path d="M49.8208 19.3324C49.5943 19.3324 49.3852 19.3062 49.1936 19.254L48.819 19.6198C48.8829 19.6605 48.9613 19.6953 49.0542 19.7243C49.1471 19.7534 49.2778 19.7795 49.4462 19.8027C49.6146 19.826 49.844 19.8492 50.1343 19.8724C50.7092 19.9247 51.1244 20.064 51.3799 20.2905C51.6355 20.5112 51.7632 20.8073 51.7632 21.179C51.7632 21.4345 51.6935 21.6755 51.5542 21.902C51.4206 22.1343 51.2086 22.3201 50.9183 22.4595C50.6337 22.6046 50.2679 22.6772 49.8208 22.6772C49.2168 22.6772 48.7261 22.5611 48.3487 22.3288C47.977 22.1023 47.7912 21.7568 47.7912 21.2922C47.7912 21.1122 47.8376 20.9322 47.9306 20.7522C48.0293 20.578 48.1832 20.4125 48.3922 20.2557C48.2703 20.2034 48.1628 20.1483 48.0699 20.0902C47.9828 20.0263 47.9044 19.9624 47.8347 19.8985V19.6895L48.5839 18.923C48.247 18.6326 48.0786 18.2523 48.0786 17.7819C48.0786 17.4973 48.1454 17.2389 48.279 17.0066C48.4184 16.7686 48.6187 16.5798 48.88 16.4405C49.1413 16.3011 49.4549 16.2314 49.8208 16.2314C50.0646 16.2314 50.2911 16.2662 50.5002 16.3359H52.1116V16.9457L51.3451 16.9892C51.4845 17.2273 51.5542 17.4915 51.5542 17.7819C51.5542 18.0722 51.4845 18.3336 51.3451 18.5658C51.2115 18.7981 51.0141 18.9839 50.7528 19.1233C50.4973 19.2627 50.1866 19.3324 49.8208 19.3324ZM49.8208 18.6094C50.0879 18.6094 50.3027 18.5397 50.4653 18.4003C50.6337 18.2552 50.7179 18.0519 50.7179 17.7906C50.7179 17.5235 50.6337 17.3202 50.4653 17.1809C50.3027 17.0415 50.0879 16.9718 49.8208 16.9718C49.5478 16.9718 49.3272 17.0415 49.1588 17.1809C48.9962 17.3202 48.9149 17.5235 48.9149 17.7906C48.9149 18.0519 48.9962 18.2552 49.1588 18.4003C49.3272 18.5397 49.5478 18.6094 49.8208 18.6094ZM48.6622 21.2051C48.6622 21.4548 48.7726 21.6407 48.9932 21.7626C49.2139 21.8904 49.4898 21.9542 49.8208 21.9542C50.1401 21.9542 50.3986 21.8846 50.596 21.7452C50.7934 21.6116 50.8922 21.4316 50.8922 21.2051C50.8922 21.0367 50.8254 20.8916 50.6918 20.7696C50.5582 20.6535 50.3056 20.5809 49.934 20.5518C49.6553 20.5344 49.4085 20.5083 49.1936 20.4734C48.9903 20.5838 48.851 20.7028 48.7755 20.8306C48.7 20.9583 48.6622 21.0832 48.6622 21.2051Z" fill="white"/>
<path d="M52.8166 20.6564V16.3359H53.6354L53.7051 17.0937C53.8387 16.8266 54.0332 16.6176 54.2887 16.4666C54.55 16.3098 54.8491 16.2314 55.1859 16.2314C55.7085 16.2314 56.1179 16.394 56.4141 16.7192C56.716 17.0444 56.867 17.5293 56.867 18.1739V20.6564H55.9524V18.2697C55.9524 17.4335 55.6098 17.0154 54.9246 17.0154C54.582 17.0154 54.2974 17.1373 54.0709 17.3812C53.8503 17.6251 53.7399 17.9735 53.7399 18.4265V20.6564H52.8166Z" fill="white"/>
<path d="M60.4346 15.5171C60.2604 15.5171 60.1152 15.4649 59.9991 15.3603C59.8888 15.25 59.8336 15.1135 59.8336 14.951C59.8336 14.7884 59.8888 14.6548 59.9991 14.5503C60.1152 14.4399 60.2604 14.3848 60.4346 14.3848C60.6088 14.3848 60.7511 14.4399 60.8614 14.5503C60.9776 14.6548 61.0356 14.7884 61.0356 14.951C61.0356 15.1135 60.9776 15.25 60.8614 15.3603C60.7511 15.4649 60.6088 15.5171 60.4346 15.5171ZM59.973 20.6564V16.3359H60.8963V20.6564H59.973Z" fill="white"/>
<path d="M61.9966 20.6564V16.3359H62.8154L62.885 17.0937C63.0186 16.8266 63.2131 16.6176 63.4687 16.4666C63.73 16.3098 64.029 16.2314 64.3658 16.2314C64.8885 16.2314 65.2979 16.394 65.594 16.7192C65.896 17.0444 66.047 17.5293 66.047 18.1739V20.6564H65.1324V18.2697C65.1324 17.4335 64.7898 17.0154 64.1045 17.0154C63.7619 17.0154 63.4774 17.1373 63.2509 17.3812C63.0302 17.6251 62.9199 17.9735 62.9199 18.4265V20.6564H61.9966Z" fill="white"/>
<g opacity="0.5">
<path d="M40.7566 29.4327V25.2826H42.2091C42.5332 25.2826 42.802 25.338 43.0154 25.4486C43.2289 25.5554 43.3869 25.7036 43.4897 25.8933C43.5964 26.0791 43.6498 26.2905 43.6498 26.5277C43.6498 26.7529 43.5984 26.9605 43.4956 27.1502C43.3968 27.3359 43.2407 27.4842 43.0273 27.5948C42.8138 27.7055 42.5411 27.7608 42.2091 27.7608H41.385V29.4327H40.7566ZM41.385 27.245H42.1795C42.4759 27.245 42.6874 27.1818 42.8138 27.0553C42.9443 26.9249 43.0095 26.749 43.0095 26.5277C43.0095 26.2984 42.9443 26.1206 42.8138 25.9941C42.6874 25.8636 42.4759 25.7984 42.1795 25.7984H41.385V27.245Z" fill="white"/>
<path d="M44.1287 29.4327V25.1641H44.7571V29.4327H44.1287Z" fill="white"/>
<path d="M46.8098 29.5039C46.5213 29.5039 46.2644 29.4406 46.0391 29.3141C45.8178 29.1837 45.6438 29.0039 45.5174 28.7746C45.3909 28.5454 45.3276 28.2786 45.3276 27.9743C45.3276 27.666 45.3889 27.3952 45.5114 27.162C45.6379 26.9288 45.8118 26.747 46.0332 26.6166C46.2585 26.4862 46.5193 26.4209 46.8157 26.4209C47.1043 26.4209 47.3553 26.4862 47.5687 26.6166C47.7821 26.7431 47.9481 26.913 48.0667 27.1265C48.1853 27.3399 48.2446 27.5751 48.2446 27.832C48.2446 27.8715 48.2426 27.915 48.2386 27.9624C48.2386 28.0059 48.2367 28.0553 48.2327 28.1106H45.9442C45.964 28.3952 46.0569 28.6126 46.2229 28.7628C46.3928 28.909 46.5885 28.9821 46.8098 28.9821C46.9877 28.9821 47.1359 28.9426 47.2545 28.8636C47.377 28.7806 47.4679 28.6699 47.5272 28.5316H48.1556C48.0766 28.8082 47.9185 29.0394 47.6813 29.2252C47.4481 29.411 47.1576 29.5039 46.8098 29.5039ZM46.8098 26.9367C46.6003 26.9367 46.4146 27 46.2525 27.1265C46.0905 27.249 45.9917 27.4347 45.9561 27.6838H47.6161C47.6043 27.4545 47.5232 27.2727 47.373 27.1383C47.2228 27.0039 47.0351 26.9367 46.8098 26.9367Z" fill="white"/>
<path d="M49.7741 29.5039C49.5251 29.5039 49.3195 29.4624 49.1575 29.3794C48.9954 29.2964 48.8749 29.1877 48.7958 29.0533C48.7168 28.9149 48.6773 28.7647 48.6773 28.6027C48.6773 28.3181 48.7879 28.0928 49.0093 27.9268C49.2306 27.7608 49.5468 27.6778 49.9579 27.6778H50.7286V27.6245C50.7286 27.3952 50.6653 27.2233 50.5389 27.1087C50.4163 26.994 50.2563 26.9367 50.0586 26.9367C49.8847 26.9367 49.7326 26.9802 49.6021 27.0672C49.4757 27.1502 49.3986 27.2747 49.3709 27.4407H48.7425C48.7622 27.2272 48.8334 27.0454 48.9559 26.8952C49.0824 26.7411 49.2405 26.6245 49.4302 26.5454C49.6239 26.4624 49.8353 26.4209 50.0646 26.4209C50.4756 26.4209 50.7938 26.5296 51.0191 26.747C51.2444 26.9605 51.357 27.2529 51.357 27.6245V29.4327H50.8116L50.7582 28.9288C50.6752 29.0908 50.5547 29.2272 50.3966 29.3379C50.2385 29.4485 50.031 29.5039 49.7741 29.5039ZM49.8986 28.994C50.0685 28.994 50.2108 28.9545 50.3254 28.8754C50.444 28.7924 50.5349 28.6837 50.5982 28.5493C50.6653 28.415 50.7068 28.2667 50.7227 28.1047H50.0231C49.7741 28.1047 49.5962 28.1482 49.4895 28.2351C49.3867 28.3221 49.3353 28.4308 49.3353 28.5612C49.3353 28.6956 49.3847 28.8023 49.4836 28.8813C49.5863 28.9564 49.7247 28.994 49.8986 28.994Z" fill="white"/>
<path d="M53.1451 29.5039C52.7735 29.5039 52.4672 29.4129 52.2261 29.2311C51.985 29.0493 51.8467 28.8082 51.8111 28.5078H52.4455C52.4771 28.6422 52.5522 28.7588 52.6708 28.8576C52.7894 28.9525 52.9455 28.9999 53.1391 28.9999C53.3289 28.9999 53.4672 28.9604 53.5542 28.8813C53.6411 28.8023 53.6846 28.7114 53.6846 28.6086C53.6846 28.4584 53.6233 28.3576 53.5008 28.3063C53.3822 28.2509 53.2162 28.2015 53.0028 28.158C52.8368 28.1225 52.6708 28.075 52.5048 28.0158C52.3427 27.9565 52.2064 27.8735 52.0957 27.7668C51.989 27.6561 51.9356 27.5079 51.9356 27.3221C51.9356 27.0652 52.0344 26.8518 52.2321 26.6818C52.4297 26.5079 52.7064 26.4209 53.0621 26.4209C53.3901 26.4209 53.6549 26.5 53.8565 26.6581C54.062 26.8162 54.1826 27.0395 54.2182 27.328H53.6134C53.5937 27.2016 53.5344 27.1027 53.4356 27.0316C53.3407 26.9605 53.2123 26.9249 53.0502 26.9249C52.8921 26.9249 52.7696 26.9585 52.6826 27.0257C52.5957 27.0889 52.5522 27.1719 52.5522 27.2747C52.5522 27.3774 52.6115 27.4585 52.7301 27.5177C52.8526 27.577 53.0127 27.6304 53.2103 27.6778C53.4079 27.7213 53.5897 27.7727 53.7557 27.832C53.9257 27.8873 54.062 27.9703 54.1648 28.081C54.2676 28.1916 54.319 28.3537 54.319 28.5671C54.3229 28.8359 54.2182 29.0592 54.0047 29.2371C53.7953 29.4149 53.5087 29.5039 53.1451 29.5039Z" fill="white"/>
<path d="M56.2619 29.5039C55.9734 29.5039 55.7165 29.4406 55.4912 29.3141C55.2698 29.1837 55.0959 29.0039 54.9694 28.7746C54.843 28.5454 54.7797 28.2786 54.7797 27.9743C54.7797 27.666 54.841 27.3952 54.9635 27.162C55.09 26.9288 55.2639 26.747 55.4852 26.6166C55.7105 26.4862 55.9714 26.4209 56.2678 26.4209C56.5563 26.4209 56.8073 26.4862 57.0208 26.6166C57.2342 26.7431 57.4002 26.913 57.5188 27.1265C57.6373 27.3399 57.6966 27.5751 57.6966 27.832C57.6966 27.8715 57.6947 27.915 57.6907 27.9624C57.6907 28.0059 57.6887 28.0553 57.6848 28.1106H55.3963C55.4161 28.3952 55.5089 28.6126 55.675 28.7628C55.8449 28.909 56.0406 28.9821 56.2619 28.9821C56.4397 28.9821 56.588 28.9426 56.7065 28.8636C56.8291 28.7806 56.92 28.6699 56.9793 28.5316H57.6077C57.5287 28.8082 57.3706 29.0394 57.1334 29.2252C56.9002 29.411 56.6097 29.5039 56.2619 29.5039ZM56.2619 26.9367C56.0524 26.9367 55.8666 27 55.7046 27.1265C55.5425 27.249 55.4437 27.4347 55.4082 27.6838H57.0682C57.0563 27.4545 56.9753 27.2727 56.8251 27.1383C56.6749 27.0039 56.4872 26.9367 56.2619 26.9367Z" fill="white"/>
<path d="M60.7792 29.5039C60.4076 29.5039 60.1013 29.4129 59.8602 29.2311C59.6191 29.0493 59.4808 28.8082 59.4452 28.5078H60.0796C60.1112 28.6422 60.1863 28.7588 60.3049 28.8576C60.4235 28.9525 60.5796 28.9999 60.7732 28.9999C60.963 28.9999 61.1013 28.9604 61.1883 28.8813C61.2752 28.8023 61.3187 28.7114 61.3187 28.6086C61.3187 28.4584 61.2574 28.3576 61.1349 28.3063C61.0163 28.2509 60.8503 28.2015 60.6369 28.158C60.4709 28.1225 60.3049 28.075 60.1389 28.0158C59.9768 27.9565 59.8405 27.8735 59.7298 27.7668C59.6231 27.6561 59.5697 27.5079 59.5697 27.3221C59.5697 27.0652 59.6685 26.8518 59.8662 26.6818C60.0638 26.5079 60.3405 26.4209 60.6962 26.4209C61.0242 26.4209 61.289 26.5 61.4906 26.6581C61.6961 26.8162 61.8167 27.0395 61.8523 27.328H61.2475C61.2278 27.2016 61.1685 27.1027 61.0697 27.0316C60.9748 26.9605 60.8464 26.9249 60.6843 26.9249C60.5262 26.9249 60.4037 26.9585 60.3167 27.0257C60.2298 27.0889 60.1863 27.1719 60.1863 27.2747C60.1863 27.3774 60.2456 27.4585 60.3642 27.5177C60.4867 27.577 60.6468 27.6304 60.8444 27.6778C61.042 27.7213 61.2238 27.7727 61.3898 27.832C61.5598 27.8873 61.6961 27.9703 61.7989 28.081C61.9017 28.1916 61.9531 28.3537 61.9531 28.5671C61.957 28.8359 61.8523 29.0592 61.6388 29.2371C61.4294 29.4149 61.1428 29.5039 60.7792 29.5039Z" fill="white"/>
<path d="M63.896 29.5039C63.6075 29.5039 63.3506 29.4406 63.1253 29.3141C62.9039 29.1837 62.73 29.0039 62.6035 28.7746C62.4771 28.5454 62.4138 28.2786 62.4138 27.9743C62.4138 27.666 62.4751 27.3952 62.5976 27.162C62.7241 26.9288 62.898 26.747 63.1193 26.6166C63.3446 26.4862 63.6055 26.4209 63.9019 26.4209C64.1904 26.4209 64.4414 26.4862 64.6549 26.6166C64.8683 26.7431 65.0343 26.913 65.1529 27.1265C65.2714 27.3399 65.3307 27.5751 65.3307 27.832C65.3307 27.8715 65.3288 27.915 65.3248 27.9624C65.3248 28.0059 65.3228 28.0553 65.3189 28.1106H63.0304C63.0502 28.3952 63.143 28.6126 63.3091 28.7628C63.479 28.909 63.6747 28.9821 63.896 28.9821C64.0739 28.9821 64.2221 28.9426 64.3406 28.8636C64.4632 28.7806 64.5541 28.6699 64.6134 28.5316H65.2418C65.1627 28.8082 65.0047 29.0394 64.7675 29.2252C64.5343 29.411 64.2438 29.5039 63.896 29.5039ZM63.896 26.9367C63.6865 26.9367 63.5007 27 63.3387 27.1265C63.1766 27.249 63.0778 27.4347 63.0423 27.6838H64.7023C64.6904 27.4545 64.6094 27.2727 64.4592 27.1383C64.309 27.0039 64.1213 26.9367 63.896 26.9367Z" fill="white"/>
<path d="M65.8642 29.4327V25.1641H66.4927V29.4327H65.8642Z" fill="white"/>
<path d="M68.5454 29.5039C68.2568 29.5039 67.9999 29.4406 67.7746 29.3141C67.5533 29.1837 67.3794 29.0039 67.2529 28.7746C67.1264 28.5454 67.0632 28.2786 67.0632 27.9743C67.0632 27.666 67.1245 27.3952 67.247 27.162C67.3735 26.9288 67.5474 26.747 67.7687 26.6166C67.994 26.4862 68.2549 26.4209 68.5513 26.4209C68.8398 26.4209 69.0908 26.4862 69.3042 26.6166C69.5177 26.7431 69.6837 26.913 69.8022 27.1265C69.9208 27.3399 69.9801 27.5751 69.9801 27.832C69.9801 27.8715 69.9781 27.915 69.9742 27.9624C69.9742 28.0059 69.9722 28.0553 69.9683 28.1106H67.6798C67.6995 28.3952 67.7924 28.6126 67.9584 28.7628C68.1284 28.909 68.324 28.9821 68.5454 28.9821C68.7232 28.9821 68.8714 28.9426 68.99 28.8636C69.1125 28.7806 69.2035 28.6699 69.2627 28.5316H69.8912C69.8121 28.8082 69.654 29.0394 69.4169 29.2252C69.1837 29.411 68.8932 29.5039 68.5454 29.5039ZM68.5454 26.9367C68.3359 26.9367 68.1501 27 67.9881 27.1265C67.826 27.249 67.7272 27.4347 67.6916 27.6838H69.3517C69.3398 27.4545 69.2588 27.2727 69.1086 27.1383C68.9584 27.0039 68.7707 26.9367 68.5454 26.9367Z" fill="white"/>
<path d="M71.9068 29.5039C71.6183 29.5039 71.3594 29.4386 71.1302 29.3082C70.9049 29.1778 70.727 28.9979 70.5966 28.7687C70.4701 28.5355 70.4069 28.2667 70.4069 27.9624C70.4069 27.6581 70.4701 27.3913 70.5966 27.162C70.727 26.9288 70.9049 26.747 71.1302 26.6166C71.3594 26.4862 71.6183 26.4209 71.9068 26.4209C72.2705 26.4209 72.5748 26.5158 72.8199 26.7055C73.0689 26.8952 73.2289 27.1521 73.3001 27.4762H72.642C72.6025 27.3142 72.5155 27.1877 72.3811 27.0968C72.2467 27.0059 72.0887 26.9605 71.9068 26.9605C71.7527 26.9605 71.6104 27 71.48 27.079C71.3495 27.1541 71.2448 27.2668 71.1658 27.417C71.0867 27.5632 71.0472 27.745 71.0472 27.9624C71.0472 28.1798 71.0867 28.3636 71.1658 28.5138C71.2448 28.66 71.3495 28.7727 71.48 28.8517C71.6104 28.9307 71.7527 28.9703 71.9068 28.9703C72.0887 28.9703 72.2467 28.9248 72.3811 28.8339C72.5155 28.743 72.6025 28.6146 72.642 28.4485H73.3001C73.2329 28.7647 73.0748 29.0197 72.8258 29.2134C72.5768 29.407 72.2705 29.5039 71.9068 29.5039Z" fill="white"/>
<path d="M75.0383 29.4327C74.7498 29.4327 74.5206 29.3635 74.3506 29.2252C74.1807 29.0829 74.0957 28.8319 74.0957 28.4723V27.0197H73.5917V26.4921H74.0957L74.1728 25.7451H74.7241V26.4921H75.5541V27.0197H74.7241V28.4723C74.7241 28.6343 74.7577 28.747 74.8249 28.8102C74.896 28.8695 75.0166 28.8991 75.1866 28.8991H75.5245V29.4327H75.0383Z" fill="white"/>
<path d="M77.4587 29.4327V25.1641H78.0872V26.9664C78.186 26.7964 78.3223 26.664 78.4962 26.5692C78.6741 26.4703 78.8697 26.4209 79.0832 26.4209C79.4349 26.4209 79.7116 26.5316 79.9132 26.7529C80.1148 26.9743 80.2156 27.3043 80.2156 27.743V29.4327H79.593V27.8083C79.593 27.2391 79.3658 26.9545 78.9112 26.9545C78.6741 26.9545 78.4765 27.0375 78.3184 27.2035C78.1642 27.3695 78.0872 27.6067 78.0872 27.915V29.4327H77.4587Z" fill="white"/>
<path d="M82.2126 29.5039C81.932 29.5039 81.679 29.4406 81.4537 29.3141C81.2324 29.1837 81.0565 29.0039 80.9261 28.7746C80.7956 28.5414 80.7304 28.2707 80.7304 27.9624C80.7304 27.6541 80.7956 27.3853 80.9261 27.1561C81.0605 26.9229 81.2403 26.7431 81.4656 26.6166C81.6909 26.4862 81.9418 26.4209 82.2185 26.4209C82.4991 26.4209 82.7501 26.4862 82.9715 26.6166C83.1968 26.7431 83.3746 26.9229 83.505 27.1561C83.6394 27.3853 83.7066 27.6541 83.7066 27.9624C83.7066 28.2707 83.6394 28.5414 83.505 28.7746C83.3746 29.0039 83.1968 29.1837 82.9715 29.3141C82.7462 29.4406 82.4932 29.5039 82.2126 29.5039ZM82.2126 28.9643C82.3628 28.9643 82.5011 28.9268 82.6276 28.8517C82.758 28.7766 82.8628 28.6659 82.9418 28.5197C83.0209 28.3695 83.0604 28.1837 83.0604 27.9624C83.0604 27.7411 83.0209 27.5573 82.9418 27.411C82.8667 27.2608 82.764 27.1482 82.6335 27.0731C82.5071 26.998 82.3687 26.9605 82.2185 26.9605C82.0683 26.9605 81.928 26.998 81.7976 27.0731C81.6711 27.1482 81.5683 27.2608 81.4893 27.411C81.4102 27.5573 81.3707 27.7411 81.3707 27.9624C81.3707 28.1837 81.4102 28.3695 81.4893 28.5197C81.5683 28.6659 81.6711 28.7766 81.7976 28.8517C81.9241 28.9268 82.0624 28.9643 82.2126 28.9643Z" fill="white"/>
<path d="M84.7446 29.4327L83.879 26.4921H84.5075L85.0766 28.7094L85.7169 26.4921H86.4165L87.0568 28.7094L87.6259 26.4921H88.2544L87.3888 29.4327H86.7426L86.0667 27.1205L85.3908 29.4327H84.7446Z" fill="white"/>
<path d="M91.2618 29.4327C90.9733 29.4327 90.7441 29.3635 90.5741 29.2252C90.4042 29.0829 90.3192 28.8319 90.3192 28.4723V27.0197H89.8152V26.4921H90.3192L90.3963 25.7451H90.9476V26.4921H91.7776V27.0197H90.9476V28.4723C90.9476 28.6343 90.9812 28.747 91.0484 28.8102C91.1196 28.8695 91.2401 28.8991 91.4101 28.8991H91.748V29.4327H91.2618Z" fill="white"/>
<path d="M93.6072 29.5039C93.3266 29.5039 93.0737 29.4406 92.8484 29.3141C92.627 29.1837 92.4511 29.0039 92.3207 28.7746C92.1903 28.5414 92.1251 28.2707 92.1251 27.9624C92.1251 27.6541 92.1903 27.3853 92.3207 27.1561C92.4551 26.9229 92.6349 26.7431 92.8602 26.6166C93.0855 26.4862 93.3365 26.4209 93.6132 26.4209C93.8938 26.4209 94.1448 26.4862 94.3661 26.6166C94.5914 26.7431 94.7693 26.9229 94.8997 27.1561C95.0341 27.3853 95.1013 27.6541 95.1013 27.9624C95.1013 28.2707 95.0341 28.5414 94.8997 28.7746C94.7693 29.0039 94.5914 29.1837 94.3661 29.3141C94.1408 29.4406 93.8879 29.5039 93.6072 29.5039ZM93.6072 28.9643C93.7574 28.9643 93.8958 28.9268 94.0222 28.8517C94.1527 28.7766 94.2574 28.6659 94.3365 28.5197C94.4155 28.3695 94.455 28.1837 94.455 27.9624C94.455 27.7411 94.4155 27.5573 94.3365 27.411C94.2614 27.2608 94.1586 27.1482 94.0282 27.0731C93.9017 26.998 93.7634 26.9605 93.6132 26.9605C93.463 26.9605 93.3227 26.998 93.1922 27.0731C93.0658 27.1482 92.963 27.2608 92.8839 27.411C92.8049 27.5573 92.7654 27.7411 92.7654 27.9624C92.7654 28.1837 92.8049 28.3695 92.8839 28.5197C92.963 28.6659 93.0658 28.7766 93.1922 28.8517C93.3187 28.9268 93.457 28.9643 93.6072 28.9643Z" fill="white"/>
<path d="M102.311 29.5039C102.03 29.5039 101.777 29.4406 101.552 29.3141C101.331 29.1837 101.155 29.0039 101.024 28.7746C100.894 28.5414 100.829 28.2707 100.829 27.9624C100.829 27.6541 100.894 27.3853 101.024 27.1561C101.159 26.9229 101.339 26.7431 101.564 26.6166C101.789 26.4862 102.04 26.4209 102.317 26.4209C102.597 26.4209 102.848 26.4862 103.07 26.6166C103.295 26.7431 103.473 26.9229 103.603 27.1561C103.738 27.3853 103.805 27.6541 103.805 27.9624C103.805 28.2707 103.738 28.5414 103.603 28.7746C103.473 29.0039 103.295 29.1837 103.07 29.3141C102.844 29.4406 102.592 29.5039 102.311 29.5039ZM102.311 28.9643C102.461 28.9643 102.599 28.9268 102.726 28.8517C102.856 28.7766 102.961 28.6659 103.04 28.5197C103.119 28.3695 103.159 28.1837 103.159 27.9624C103.159 27.7411 103.119 27.5573 103.04 27.411C102.965 27.2608 102.862 27.1482 102.732 27.0731C102.605 26.998 102.467 26.9605 102.317 26.9605C102.167 26.9605 102.026 26.998 101.896 27.0731C101.769 27.1482 101.667 27.2608 101.588 27.411C101.509 27.5573 101.469 27.7411 101.469 27.9624C101.469 28.1837 101.509 28.3695 101.588 28.5197C101.667 28.6659 101.769 28.7766 101.896 28.8517C102.022 28.9268 102.161 28.9643 102.311 28.9643Z" fill="white"/>
<path d="M104.366 29.4327V26.4921H104.923L104.971 27.0079C105.062 26.8261 105.194 26.6838 105.368 26.581C105.546 26.4743 105.749 26.4209 105.979 26.4209C106.334 26.4209 106.613 26.5316 106.815 26.7529C107.02 26.9743 107.123 27.3043 107.123 27.743V29.4327H106.5V27.8083C106.5 27.2391 106.267 26.9545 105.801 26.9545C105.568 26.9545 105.374 27.0375 105.22 27.2035C105.07 27.3695 104.994 27.6067 104.994 27.915V29.4327H104.366Z" fill="white"/>
<path d="M108.978 29.4327C108.689 29.4327 108.46 29.3635 108.29 29.2252C108.12 29.0829 108.035 28.8319 108.035 28.4723V27.0197H107.531V26.4921H108.035L108.112 25.7451H108.663V26.4921H109.493V27.0197H108.663V28.4723C108.663 28.6343 108.697 28.747 108.764 28.8102C108.835 28.8695 108.956 28.8991 109.126 28.8991H109.464V29.4327H108.978Z" fill="white"/>
<path d="M110.378 25.9348C110.26 25.9348 110.161 25.8992 110.082 25.8281C110.007 25.753 109.969 25.6601 109.969 25.5494C109.969 25.4388 110.007 25.3479 110.082 25.2767C110.161 25.2016 110.26 25.1641 110.378 25.1641C110.497 25.1641 110.594 25.2016 110.669 25.2767C110.748 25.3479 110.788 25.4388 110.788 25.5494C110.788 25.6601 110.748 25.753 110.669 25.8281C110.594 25.8992 110.497 25.9348 110.378 25.9348ZM110.064 29.4327V26.4921H110.693V29.4327H110.064Z" fill="white"/>
<path d="M111.404 29.4327V26.4921H111.961L112.008 27.0079C112.099 26.8261 112.232 26.6838 112.406 26.581C112.584 26.4743 112.787 26.4209 113.016 26.4209C113.372 26.4209 113.651 26.5316 113.852 26.7529C114.058 26.9743 114.161 27.3043 114.161 27.743V29.4327H113.538V27.8083C113.538 27.2391 113.305 26.9545 112.838 26.9545C112.605 26.9545 112.412 27.0375 112.257 27.2035C112.107 27.3695 112.032 27.6067 112.032 27.915V29.4327H111.404Z" fill="white"/>
<path d="M115.867 29.5039C115.511 29.5039 115.231 29.3932 115.025 29.1718C114.824 28.9505 114.723 28.6205 114.723 28.1818V26.4921H115.351V28.1165C115.351 28.6857 115.585 28.9703 116.051 28.9703C116.284 28.9703 116.476 28.8873 116.626 28.7213C116.776 28.5553 116.851 28.3181 116.851 28.0098V26.4921H117.48V29.4327H116.922L116.875 28.9169C116.784 29.0987 116.65 29.243 116.472 29.3497C116.298 29.4525 116.096 29.5039 115.867 29.5039Z" fill="white"/>
<path d="M119.536 29.5039C119.247 29.5039 118.991 29.4406 118.765 29.3141C118.544 29.1837 118.37 29.0039 118.244 28.7746C118.117 28.5454 118.054 28.2786 118.054 27.9743C118.054 27.666 118.115 27.3952 118.238 27.162C118.364 26.9288 118.538 26.747 118.759 26.6166C118.985 26.4862 119.246 26.4209 119.542 26.4209C119.83 26.4209 120.081 26.4862 120.295 26.6166C120.508 26.7431 120.674 26.913 120.793 27.1265C120.911 27.3399 120.971 27.5751 120.971 27.832C120.971 27.8715 120.969 27.915 120.965 27.9624C120.965 28.0059 120.963 28.0553 120.959 28.1106H118.67C118.69 28.3952 118.783 28.6126 118.949 28.7628C119.119 28.909 119.315 28.9821 119.536 28.9821C119.714 28.9821 119.862 28.9426 119.981 28.8636C120.103 28.7806 120.194 28.6699 120.253 28.5316H120.882C120.803 28.8082 120.645 29.0394 120.408 29.2252C120.174 29.411 119.884 29.5039 119.536 29.5039ZM119.536 26.9367C119.327 26.9367 119.141 27 118.979 27.1265C118.817 27.249 118.718 27.4347 118.682 27.6838H120.342C120.33 27.4545 120.249 27.2727 120.099 27.1383C119.949 27.0039 119.761 26.9367 119.536 26.9367Z" fill="white"/>
<path d="M98.7753 29.5039C98.462 29.5039 98.1808 29.4336 97.9318 29.293C97.6871 29.1524 97.4939 28.9586 97.3523 28.7115C97.2149 28.4601 97.1462 28.1705 97.1462 27.8424C97.1462 27.5144 97.2149 27.2268 97.3523 26.9798C97.4939 26.7284 97.6871 26.5325 97.9318 26.3919C98.1808 26.2513 98.462 26.181 98.7753 26.181C99.1703 26.181 99.5008 26.2832 99.767 26.4877C100.037 26.6922 100.211 26.9691 100.289 27.3184H99.5738C99.5309 27.1438 99.4364 27.0075 99.2905 26.9095C99.1445 26.8115 98.9728 26.7625 98.7753 26.7625C98.6079 26.7625 98.4534 26.8051 98.3117 26.8903C98.17 26.9712 98.0563 27.0927 97.9704 27.2545C97.8846 27.4122 97.8416 27.6081 97.8416 27.8424C97.8416 28.0767 97.8846 28.2748 97.9704 28.4367C98.0563 28.5943 98.17 28.7157 98.3117 28.8009C98.4534 28.8861 98.6079 28.9287 98.7753 28.9287C98.9728 28.9287 99.1445 28.8798 99.2905 28.7818C99.4364 28.6838 99.5309 28.5453 99.5738 28.3664H100.289C100.216 28.7072 100.044 28.982 99.7734 29.1907C99.503 29.3995 99.1703 29.5039 98.7753 29.5039Z" fill="white"/>
</g>
<path d="M141.343 17.186C141.235 17.297 141.076 17.3414 140.926 17.302C140.777 17.2627 140.66 17.1458 140.62 16.9961C140.581 16.8465 140.625 16.6872 140.736 16.5794L145.912 11.4036C146.02 11.2925 146.179 11.2482 146.329 11.2875C146.479 11.3269 146.595 11.4437 146.635 11.5934C146.674 11.7431 146.63 11.9024 146.519 12.0102L141.343 17.186Z" fill="#DFDFDF"/>
<path d="M146.52 17.1849C146.352 17.3512 146.082 17.3512 145.914 17.1849L140.738 12.0091C140.574 11.8409 140.576 11.5727 140.742 11.4069C140.908 11.2411 141.176 11.2391 141.344 11.4025L146.52 16.5783C146.686 16.7464 146.686 17.0169 146.52 17.1849Z" fill="#DFDFDF"/>
<path d="M18.7922 62.0507C18.3811 62.0507 18.0254 61.9618 17.725 61.7839C17.4286 61.6021 17.1993 61.3511 17.0373 61.031C16.8752 60.7069 16.7942 60.3334 16.7942 59.9105C16.7942 59.4836 16.8752 59.1101 17.0373 58.79C17.1993 58.4659 17.4286 58.2129 17.725 58.0311C18.0254 57.8493 18.3811 57.7584 18.7922 57.7584C19.2783 57.7584 19.6755 57.8769 19.9838 58.1141C20.2921 58.3512 20.4878 58.6832 20.5708 59.1101H19.8712C19.8158 58.869 19.6973 58.6773 19.5155 58.535C19.3336 58.3927 19.0906 58.3216 18.7862 58.3216C18.3712 58.3216 18.0432 58.4639 17.8021 58.7485C17.561 59.0291 17.4404 59.4164 17.4404 59.9105C17.4404 60.4006 17.561 60.7859 17.8021 61.0666C18.0432 61.3472 18.3712 61.4875 18.7862 61.4875C19.0906 61.4875 19.3336 61.4203 19.5155 61.2859C19.6973 61.1515 19.8158 60.9678 19.8712 60.7346H20.5708C20.4878 61.1456 20.2921 61.4677 19.9838 61.7009C19.6755 61.9341 19.2783 62.0507 18.7922 62.0507Z" fill="white"/>
<path d="M22.4947 62.0507C22.2141 62.0507 21.9611 61.9875 21.7358 61.861C21.5145 61.7306 21.3386 61.5507 21.2082 61.3215C21.0778 61.0883 21.0125 60.8176 21.0125 60.5093C21.0125 60.201 21.0778 59.9322 21.2082 59.703C21.3426 59.4698 21.5224 59.2899 21.7477 59.1635C21.973 59.033 22.224 58.9678 22.5006 58.9678C22.7813 58.9678 23.0322 59.033 23.2536 59.1635C23.4789 59.2899 23.6567 59.4698 23.7872 59.703C23.9215 59.9322 23.9887 60.201 23.9887 60.5093C23.9887 60.8176 23.9215 61.0883 23.7872 61.3215C23.6567 61.5507 23.4789 61.7306 23.2536 61.861C23.0283 61.9875 22.7753 62.0507 22.4947 62.0507ZM22.4947 61.5112C22.6449 61.5112 22.7832 61.4737 22.9097 61.3986C23.0401 61.3235 23.1449 61.2128 23.2239 61.0666C23.303 60.9164 23.3425 60.7306 23.3425 60.5093C23.3425 60.2879 23.303 60.1041 23.2239 59.9579C23.1488 59.8077 23.0461 59.6951 22.9156 59.62C22.7892 59.5449 22.6508 59.5073 22.5006 59.5073C22.3504 59.5073 22.2101 59.5449 22.0797 59.62C21.9532 59.6951 21.8505 59.8077 21.7714 59.9579C21.6924 60.1041 21.6528 60.2879 21.6528 60.5093C21.6528 60.7306 21.6924 60.9164 21.7714 61.0666C21.8505 61.2128 21.9532 61.3235 22.0797 61.3986C22.2062 61.4737 22.3445 61.5112 22.4947 61.5112Z" fill="white"/>
<path d="M24.5498 61.9796V59.039H25.1071L25.1545 59.5548C25.2454 59.3729 25.3778 59.2307 25.5517 59.1279C25.7296 59.0212 25.9331 58.9678 26.1624 58.9678C26.5181 58.9678 26.7967 59.0785 26.9983 59.2998C27.2039 59.5212 27.3066 59.8512 27.3066 60.2899V61.9796H26.6841V60.3551C26.6841 59.786 26.4509 59.5014 25.9845 59.5014C25.7513 59.5014 25.5577 59.5844 25.4035 59.7504C25.2533 59.9164 25.1782 60.1536 25.1782 60.4618V61.9796H24.5498Z" fill="white"/>
<path d="M29.1614 61.9796C28.8728 61.9796 28.6436 61.9104 28.4736 61.7721C28.3037 61.6298 28.2187 61.3788 28.2187 61.0191V59.5666H27.7148V59.039H28.2187L28.2958 58.2919H28.8471V59.039H29.6772V59.5666H28.8471V61.0191C28.8471 61.1812 28.8807 61.2938 28.9479 61.3571C29.0191 61.4164 29.1396 61.446 29.3096 61.446H29.6475V61.9796H29.1614Z" fill="white"/>
<path d="M30.5623 58.4817C30.4437 58.4817 30.3449 58.4461 30.2659 58.3749C30.1908 58.2999 30.1532 58.207 30.1532 58.0963C30.1532 57.9856 30.1908 57.8947 30.2659 57.8236C30.3449 57.7485 30.4437 57.7109 30.5623 57.7109C30.6809 57.7109 30.7777 57.7485 30.8528 57.8236C30.9318 57.8947 30.9714 57.9856 30.9714 58.0963C30.9714 58.207 30.9318 58.2999 30.8528 58.3749C30.7777 58.4461 30.6809 58.4817 30.5623 58.4817ZM30.2481 61.9796V59.039H30.8765V61.9796H30.2481Z" fill="white"/>
<path d="M31.5875 61.9796V59.039H32.1448L32.1923 59.5548C32.2832 59.3729 32.4156 59.2307 32.5895 59.1279C32.7673 59.0212 32.9709 58.9678 33.2001 58.9678C33.5559 58.9678 33.8345 59.0785 34.0361 59.2998C34.2416 59.5212 34.3444 59.8512 34.3444 60.2899V61.9796H33.7219V60.3551C33.7219 59.786 33.4887 59.5014 33.0223 59.5014C32.7891 59.5014 32.5954 59.5844 32.4413 59.7504C32.2911 59.9164 32.216 60.1536 32.216 60.4618V61.9796H31.5875Z" fill="white"/>
<path d="M36.0509 62.0507C35.6952 62.0507 35.4146 61.9401 35.209 61.7187C35.0075 61.4974 34.9067 61.1674 34.9067 60.7286V59.039H35.5351V60.6634C35.5351 61.2326 35.7683 61.5171 36.2347 61.5171C36.4679 61.5171 36.6596 61.4341 36.8098 61.2681C36.96 61.1021 37.0351 60.865 37.0351 60.5567V59.039H37.6635V61.9796H37.1062L37.0588 61.4638C36.9679 61.6456 36.8335 61.7899 36.6556 61.8966C36.4817 61.9993 36.2801 62.0507 36.0509 62.0507Z" fill="white"/>
<path d="M39.7198 62.0507C39.4313 62.0507 39.1744 61.9875 38.9491 61.861C38.7278 61.7306 38.5539 61.5507 38.4274 61.3215C38.3009 61.0923 38.2377 60.8255 38.2377 60.5211C38.2377 60.2128 38.2989 59.9421 38.4214 59.7089C38.5479 59.4757 38.7218 59.2939 38.9432 59.1635C39.1685 59.033 39.4293 58.9678 39.7258 58.9678C40.0143 58.9678 40.2653 59.033 40.4787 59.1635C40.6921 59.2899 40.8581 59.4599 40.9767 59.6733C41.0953 59.8868 41.1546 60.1219 41.1546 60.3788C41.1546 60.4184 41.1526 60.4618 41.1486 60.5093C41.1486 60.5528 41.1467 60.6022 41.1427 60.6575H38.8542C38.874 60.9421 38.9669 61.1595 39.1329 61.3096C39.3028 61.4559 39.4985 61.529 39.7198 61.529C39.8977 61.529 40.0459 61.4895 40.1645 61.4104C40.287 61.3274 40.3779 61.2168 40.4372 61.0784H41.0656C40.9866 61.3551 40.8285 61.5863 40.5913 61.7721C40.3582 61.9578 40.0676 62.0507 39.7198 62.0507ZM39.7198 59.4836C39.5104 59.4836 39.3246 59.5469 39.1625 59.6733C39.0005 59.7959 38.9017 59.9816 38.8661 60.2306H40.5261C40.5143 60.0014 40.4332 59.8196 40.2831 59.6852C40.1329 59.5508 39.9451 59.4836 39.7198 59.4836Z" fill="white"/>
<path d="M43.6502 61.9796L42.7846 59.039H43.413L43.9822 61.2563L44.6225 59.039H45.3221L45.9624 61.2563L46.5315 59.039H47.1599L46.2944 61.9796H45.6481L44.9723 59.6674L44.2964 61.9796H43.6502Z" fill="white"/>
<path d="M47.9148 58.4817C47.7962 58.4817 47.6974 58.4461 47.6184 58.3749C47.5433 58.2999 47.5057 58.207 47.5057 58.0963C47.5057 57.9856 47.5433 57.8947 47.6184 57.8236C47.6974 57.7485 47.7962 57.7109 47.9148 57.7109C48.0334 57.7109 48.1302 57.7485 48.2053 57.8236C48.2843 57.8947 48.3239 57.9856 48.3239 58.0963C48.3239 58.207 48.2843 58.2999 48.2053 58.3749C48.1302 58.4461 48.0334 58.4817 47.9148 58.4817ZM47.6006 61.9796V59.039H48.229V61.9796H47.6006Z" fill="white"/>
<path d="M50.1732 61.9796C49.8847 61.9796 49.6554 61.9104 49.4855 61.7721C49.3155 61.6298 49.2305 61.3788 49.2305 61.0191V59.5666H48.7266V59.039H49.2305L49.3076 58.2919H49.859V59.039H50.689V59.5666H49.859V61.0191C49.859 61.1812 49.8926 61.2938 49.9598 61.3571C50.0309 61.4164 50.1515 61.446 50.3214 61.446H50.6594V61.9796H50.1732Z" fill="white"/>
<path d="M51.2184 61.9796V57.7109H51.8468V59.5133C51.9457 59.3433 52.082 59.2109 52.2559 59.116C52.4338 59.0172 52.6294 58.9678 52.8429 58.9678C53.1946 58.9678 53.4713 59.0785 53.6729 59.2998C53.8745 59.5212 53.9752 59.8512 53.9752 60.2899V61.9796H53.3527V60.3551C53.3527 59.786 53.1255 59.5014 52.6709 59.5014C52.4338 59.5014 52.2362 59.5844 52.0781 59.7504C51.9239 59.9164 51.8468 60.1536 51.8468 60.4618V61.9796H51.2184Z" fill="white"/>
<g opacity="0.5" filter="url(#filter2_d_2_45)">
<path fill-rule="evenodd" clip-rule="evenodd" d="M17.2299 76.9598C17.2299 82.1059 21.4016 86.2776 26.5477 86.2776C31.6938 86.2776 35.8655 82.1059 35.8655 76.9598C35.8655 71.8137 31.6938 67.642 26.5477 67.642C21.4016 67.642 17.2299 71.8137 17.2299 76.9598ZM26.5477 66.9336C21.0104 66.9336 16.5215 71.4225 16.5215 76.9598C16.5215 82.4971 21.0104 86.986 26.5477 86.986C32.085 86.986 36.5739 82.4971 36.5739 76.9598C36.5739 71.4225 32.085 66.9336 26.5477 66.9336Z" fill="#151432"/>
</g>
<path fill-rule="evenodd" clip-rule="evenodd" d="M31.3586 77.0762C31.3586 76.7207 31.3267 76.3789 31.2675 76.0508H26.5461V77.9899H29.2441C29.1278 78.6165 28.7747 79.1475 28.2437 79.5029V80.7607H29.8638C30.8118 79.888 31.3586 78.6029 31.3586 77.0762Z" fill="#4285F4"/>
<path fill-rule="evenodd" clip-rule="evenodd" d="M26.5467 81.9727C27.9002 81.9727 29.035 81.5238 29.8644 80.7581L28.2443 79.5003C27.7954 79.8011 27.2212 79.9788 26.5467 79.9788C25.241 79.9788 24.1359 79.097 23.7417 77.9121H22.0669V79.2109C22.8918 80.8493 24.5871 81.9727 26.5467 81.9727Z" fill="#34A853"/>
<path fill-rule="evenodd" clip-rule="evenodd" d="M23.7414 77.9145C23.6412 77.6138 23.5842 77.2925 23.5842 76.9621C23.5842 76.6317 23.6412 76.3104 23.7414 76.0096V74.7108H22.0666C21.7271 75.3875 21.5334 76.1531 21.5334 76.9621C21.5334 77.771 21.7271 78.5366 22.0666 79.2134L23.7414 77.9145Z" fill="#FBBC05"/>
<path fill-rule="evenodd" clip-rule="evenodd" d="M26.5467 73.9413C27.2827 73.9413 27.9435 74.1942 28.463 74.691L29.9008 73.2531C29.0327 72.4442 27.8979 71.9475 26.5467 71.9475C24.587 71.9475 22.8917 73.0708 22.0669 74.7092L23.7417 76.008C24.1359 74.8231 25.241 73.9413 26.5467 73.9413Z" fill="#EA4335"/>
<g opacity="0.5" filter="url(#filter3_d_2_45)">
<path fill-rule="evenodd" clip-rule="evenodd" d="M43.8971 76.9598C43.8971 82.1059 48.0688 86.2776 53.2149 86.2776C58.361 86.2776 62.5328 82.1059 62.5328 76.9598C62.5328 71.8137 58.361 67.642 53.2149 67.642C48.0688 67.642 43.8971 71.8137 43.8971 76.9598ZM53.2149 66.9336C47.6776 66.9336 43.1887 71.4225 43.1887 76.9598C43.1887 82.4971 47.6776 86.986 53.2149 86.986C58.7523 86.986 63.2411 82.4971 63.2411 76.9598C63.2411 71.4225 58.7523 66.9336 53.2149 66.9336Z" fill="#151432"/>
</g>
<path d="M59.8986 76.9595C59.8986 73.2682 56.9057 70.2754 53.2144 70.2754C49.5231 70.2754 46.5303 73.2682 46.5303 76.9595C46.5303 80.2958 48.9742 83.0613 52.17 83.5626V78.8921H50.4731V76.9595H52.17V75.4874C52.17 73.8121 53.1676 72.8864 54.695 72.8864C55.426 72.8864 56.1914 73.0167 56.1914 73.0167V74.6619H55.3483C54.5178 74.6619 54.2588 75.1774 54.2588 75.7054V76.9595H56.1128L55.8162 78.8921H54.2588V83.5626C57.4547 83.0613 59.8986 80.2958 59.8986 76.9595Z" fill="url(#paint1_linear_2_45)"/>
<path d="M56.1126 76.9595H54.2586V75.7054C54.2586 75.1765 54.5176 74.6619 55.3481 74.6619H56.1912V73.0167C56.1912 73.0167 55.4258 72.8864 54.6947 72.8864C53.1674 72.8864 52.1698 73.8121 52.1698 75.4874V76.9595H50.4729V78.8921H52.1698V83.5626C52.5099 83.6161 52.8591 83.6437 53.2142 83.6437C53.5693 83.6437 53.9185 83.6161 54.2586 83.5626V78.8921H55.816L56.1126 76.9595Z" fill="white"/>
<g opacity="0.5" filter="url(#filter4_d_2_45)">
<path fill-rule="evenodd" clip-rule="evenodd" d="M70.5641 76.9598C70.5641 82.1059 74.7358 86.2776 79.8819 86.2776C85.028 86.2776 89.1998 82.1059 89.1998 76.9598C89.1998 71.8137 85.028 67.642 79.8819 67.642C74.7358 67.642 70.5641 71.8137 70.5641 76.9598ZM79.8819 66.9336C74.3446 66.9336 69.8557 71.4225 69.8557 76.9598C69.8557 82.4971 74.3446 86.986 79.8819 86.986C85.4192 86.986 89.9081 82.4971 89.9081 76.9598C89.9081 71.4225 85.4192 66.9336 79.8819 66.9336Z" fill="#151432"/>
</g>
<path d="M85.482 73.6989C85.0608 73.8905 84.6127 74.0164 84.1534 74.072C84.6398 73.7718 85.0012 73.3057 85.1709 72.7598C84.7179 73.0355 84.2202 73.23 83.7003 73.3346C83.4866 73.099 83.2259 72.9107 82.9351 72.7818C82.6443 72.6529 82.3298 72.5862 82.0117 72.5859C80.7343 72.5859 79.6984 73.6481 79.6984 74.9589C79.6984 75.145 79.7182 75.3254 79.7577 75.4993C77.8345 75.4002 76.1294 74.456 74.9874 73.0193C74.7814 73.3834 74.6736 73.7947 74.6744 74.213C74.6744 75.0359 75.0833 75.7625 75.7036 76.1883C75.3354 76.1761 74.9758 76.0744 74.6556 75.8922V75.9214C74.6556 77.0714 75.4531 78.0306 76.512 78.2478C76.3139 78.3039 76.1088 78.3321 75.9029 78.3314C75.7539 78.3314 75.6082 78.3173 75.4672 78.2891C75.7614 79.2319 76.6159 79.9181 77.6287 79.9364C77.1526 80.3216 76.604 80.6071 76.0155 80.7761C75.4269 80.9451 74.8104 80.9941 74.2025 80.9201C75.2552 81.6148 76.4887 81.9852 77.7499 81.9855C82.007 81.9855 84.3343 78.3704 84.3343 75.2343C84.3343 75.1309 84.332 75.0279 84.3282 74.9269C84.7803 74.5923 85.1728 74.1749 85.482 73.6989Z" fill="#55ACEE"/>
<g opacity="0.5" filter="url(#filter5_d_2_45)">
<path fill-rule="evenodd" clip-rule="evenodd" d="M97.2306 76.9598C97.2306 82.1059 101.402 86.2776 106.548 86.2776C111.695 86.2776 115.866 82.1059 115.866 76.9598C115.866 71.8137 111.695 67.642 106.548 67.642C101.402 67.642 97.2306 71.8137 97.2306 76.9598ZM106.548 66.9336C101.011 66.9336 96.5222 71.4225 96.5222 76.9598C96.5222 82.4971 101.011 86.986 106.548 86.986C112.086 86.986 116.575 82.4971 116.575 76.9598C116.575 71.4225 112.086 66.9336 106.548 66.9336Z" fill="#151432"/>
</g>
<path d="M105.594 76.6602C105.885 76.6602 106.121 76.8751 106.115 77.1377C106.115 77.4003 105.885 77.6151 105.594 77.6151C105.308 77.6151 105.072 77.4003 105.072 77.1377C105.072 76.8751 105.302 76.6602 105.594 76.6602ZM107.461 76.6602C107.752 76.6602 107.983 76.8751 107.983 77.1377C107.983 77.4003 107.752 77.6151 107.461 77.6151C107.174 77.6151 106.939 77.4003 106.939 77.1377C106.939 76.8751 107.169 76.6602 107.461 76.6602V76.6602ZM109.87 72.3633C110.435 72.3633 110.894 72.8245 110.894 73.396V82.3895L109.821 81.437L109.217 80.8755L108.578 80.2787L108.843 81.2064H103.184C102.62 81.2064 102.161 80.7452 102.161 80.1737V73.396C102.161 72.8245 102.62 72.3633 103.184 72.3633H109.87H109.87ZM107.944 78.9104C109.047 78.8755 109.472 78.1484 109.472 78.1484C109.472 76.5342 108.753 75.2255 108.753 75.2255C108.035 74.6846 107.351 74.6994 107.351 74.6994L107.281 74.7796C108.129 75.0403 108.523 75.4165 108.523 75.4165C108.06 75.1596 107.549 74.996 107.021 74.9352C106.686 74.898 106.348 74.9012 106.014 74.9448C105.983 74.9448 105.958 74.95 105.929 74.9548C105.754 74.9701 105.33 75.035 104.796 75.2709C104.612 75.3559 104.501 75.4165 104.501 75.4165C104.501 75.4165 104.916 75.0202 105.814 74.7595L105.764 74.6994C105.764 74.6994 105.08 74.6846 104.362 75.226C104.362 75.226 103.643 76.5342 103.643 78.1484C103.643 78.1484 104.062 78.8751 105.165 78.9104C105.165 78.9104 105.349 78.6851 105.5 78.4946C104.866 78.3036 104.627 77.9025 104.627 77.9025C104.627 77.9025 104.676 77.9379 104.766 77.988C104.771 77.9928 104.775 77.998 104.786 78.0028C104.801 78.0133 104.816 78.0181 104.831 78.0281C104.955 78.0983 105.08 78.1532 105.195 78.1985C105.399 78.2788 105.644 78.359 105.929 78.4143C106.355 78.4966 106.794 78.4983 107.221 78.4191C107.47 78.3754 107.713 78.3031 107.944 78.2038C108.119 78.1384 108.314 78.0429 108.518 77.9078C108.518 77.9078 108.269 78.3189 107.615 78.5046C107.765 78.6951 107.945 78.9104 107.945 78.9104H107.944Z" fill="#7289DA"/>
<g opacity="0.5" filter="url(#filter6_d_2_45)">
<path fill-rule="evenodd" clip-rule="evenodd" d="M123.899 76.9598C123.899 82.1059 128.071 86.2776 133.217 86.2776C138.363 86.2776 142.534 82.1059 142.534 76.9598C142.534 71.8137 138.363 67.642 133.217 67.642C128.071 67.642 123.899 71.8137 123.899 76.9598ZM133.217 66.9336C127.679 66.9336 123.19 71.4225 123.19 76.9598C123.19 82.4971 127.679 86.986 133.217 86.986C138.754 86.986 143.243 82.4971 143.243 76.9598C143.243 71.4225 138.754 66.9336 133.217 66.9336Z" fill="#151432"/>
</g>
<path d="M133.85 78.2865C133.603 78.4878 133.248 78.4878 133.001 78.2865L131.813 77.3176C131.323 76.9186 131.605 76.1257 132.237 76.1257L134.614 76.1257C135.246 76.1257 135.528 76.9186 135.039 77.3176L133.85 78.2865Z" fill="white"/>
<path d="M16.9424 98.7784V94.6283H19.5806V95.1382H17.5708V96.4307H19.4028V96.9287H17.5708V98.2685H19.5806V98.7784H16.9424Z" fill="white"/>
<path d="M20.1871 98.7784V95.8378H20.7444L20.7977 96.2528C20.8926 96.1026 21.0171 95.984 21.1712 95.8971C21.3293 95.8101 21.5112 95.7666 21.7167 95.7666C22.1831 95.7666 22.5072 95.9504 22.689 96.318C22.7957 96.1481 22.938 96.0137 23.1159 95.9149C23.2977 95.8161 23.4933 95.7666 23.7028 95.7666C24.0704 95.7666 24.3589 95.8773 24.5684 96.0987C24.7779 96.32 24.8826 96.65 24.8826 97.0887V98.7784H24.2542V97.154C24.2542 96.5848 24.0368 96.3002 23.602 96.3002C23.3807 96.3002 23.1989 96.3832 23.0566 96.5492C22.9182 96.7152 22.8491 96.9524 22.8491 97.2607V98.7784H22.2206V97.154C22.2206 96.5848 22.0013 96.3002 21.5625 96.3002C21.3452 96.3002 21.1653 96.3832 21.023 96.5492C20.8847 96.7152 20.8155 96.9524 20.8155 97.2607V98.7784H20.1871Z" fill="white"/>
<path d="M26.4953 98.8496C26.2463 98.8496 26.0408 98.8081 25.8787 98.7251C25.7167 98.6421 25.5961 98.5334 25.5171 98.399C25.438 98.2606 25.3985 98.1104 25.3985 97.9484C25.3985 97.6638 25.5092 97.4385 25.7305 97.2725C25.9518 97.1065 26.268 97.0235 26.6791 97.0235H27.4498V96.9702C27.4498 96.7409 27.3866 96.569 27.2601 96.4544C27.1376 96.3398 26.9775 96.2824 26.7799 96.2824C26.606 96.2824 26.4538 96.3259 26.3234 96.4129C26.1969 96.4959 26.1198 96.6204 26.0921 96.7864H25.4637C25.4835 96.5729 25.5546 96.3911 25.6771 96.2409C25.8036 96.0868 25.9617 95.9702 26.1514 95.8911C26.3451 95.8081 26.5566 95.7666 26.7858 95.7666C27.1969 95.7666 27.515 95.8753 27.7403 96.0927C27.9656 96.3062 28.0782 96.5986 28.0782 96.9702V98.7784H27.5328L27.4795 98.2745C27.3964 98.4365 27.2759 98.5729 27.1178 98.6836C26.9597 98.7942 26.7522 98.8496 26.4953 98.8496ZM26.6198 98.3397C26.7897 98.3397 26.932 98.3002 27.0467 98.2211C27.1652 98.1381 27.2561 98.0294 27.3194 97.895C27.3866 97.7607 27.4281 97.6124 27.4439 97.4504H26.7443C26.4953 97.4504 26.3174 97.4939 26.2107 97.5808C26.1079 97.6678 26.0566 97.7765 26.0566 97.9069C26.0566 98.0413 26.106 98.148 26.2048 98.227C26.3075 98.3021 26.4459 98.3397 26.6198 98.3397Z" fill="white"/>
<path d="M29.0481 95.2805C28.9296 95.2805 28.8308 95.2449 28.7517 95.1738C28.6766 95.0987 28.6391 95.0058 28.6391 94.8951C28.6391 94.7845 28.6766 94.6936 28.7517 94.6224C28.8308 94.5473 28.9296 94.5098 29.0481 94.5098C29.1667 94.5098 29.2636 94.5473 29.3386 94.6224C29.4177 94.6936 29.4572 94.7845 29.4572 94.8951C29.4572 95.0058 29.4177 95.0987 29.3386 95.1738C29.2636 95.2449 29.1667 95.2805 29.0481 95.2805ZM28.7339 98.7784V95.8378H29.3624V98.7784H28.7339Z" fill="white"/>
<path d="M30.0734 98.7784V94.5098H30.7018V98.7784H30.0734Z" fill="white"/>
<rect x="16.5215" y="103.85" width="126.874" height="19.9098" rx="9.95492" fill="white" fill-opacity="0.1"/>
<g filter="url(#filter7_d_2_45)">
<path d="M16.521 113.681C16.521 108.184 20.978 103.727 26.4759 103.727H133.054C138.552 103.727 143.009 108.184 143.009 113.681V113.681C143.009 119.179 138.552 123.636 133.054 123.636H26.4759C20.978 123.636 16.521 119.179 16.521 113.681V113.681Z" fill="#6B6B96"/>
</g>
<g opacity="0.3">
<path d="M28.3206 115.984V111.504H28.9801V113.395C29.0838 113.217 29.2269 113.078 29.4094 112.978C29.596 112.875 29.8014 112.823 30.0253 112.823C30.3945 112.823 30.6849 112.939 30.8964 113.171C31.1079 113.404 31.2137 113.75 31.2137 114.21V115.984H30.5604V114.279C30.5604 113.682 30.3219 113.383 29.8449 113.383C29.596 113.383 29.3886 113.47 29.2227 113.644C29.061 113.818 28.9801 114.067 28.9801 114.391V115.984H28.3206Z" fill="white"/>
<path d="M33.2561 116.058C32.9533 116.058 32.6837 115.992 32.4472 115.859C32.2149 115.722 32.0324 115.534 31.8997 115.293C31.767 115.052 31.7006 114.772 31.7006 114.453C31.7006 114.13 31.7649 113.845 31.8935 113.601C32.0262 113.356 32.2087 113.165 32.441 113.028C32.6774 112.891 32.9512 112.823 33.2623 112.823C33.5651 112.823 33.8285 112.891 34.0525 113.028C34.2764 113.161 34.4507 113.339 34.5751 113.563C34.6995 113.787 34.7617 114.034 34.7617 114.304C34.7617 114.345 34.7597 114.391 34.7555 114.441C34.7555 114.486 34.7535 114.538 34.7493 114.596H32.3477C32.3684 114.895 32.4659 115.123 32.6401 115.281C32.8185 115.434 33.0238 115.511 33.2561 115.511C33.4427 115.511 33.5983 115.469 33.7227 115.386C33.8513 115.299 33.9467 115.183 34.0089 115.038H34.6684C34.5855 115.328 34.4195 115.571 34.1707 115.766C33.9259 115.961 33.6211 116.058 33.2561 116.058ZM33.2561 113.364C33.0362 113.364 32.8413 113.431 32.6712 113.563C32.5012 113.692 32.3975 113.887 32.3601 114.148H34.1022C34.0898 113.908 34.0048 113.717 33.8471 113.576C33.6895 113.435 33.4925 113.364 33.2561 113.364Z" fill="white"/>
<path d="M35.2682 115.984V111.504H35.9277V115.984H35.2682Z" fill="white"/>
<path d="M36.585 115.984V111.504H37.2445V115.984H36.585Z" fill="white"/>
<path d="M39.3453 116.058C39.0508 116.058 38.7854 115.992 38.5489 115.859C38.3167 115.722 38.1321 115.534 37.9952 115.293C37.8583 115.048 37.7899 114.764 37.7899 114.441C37.7899 114.117 37.8583 113.835 37.9952 113.594C38.1362 113.35 38.3249 113.161 38.5614 113.028C38.7978 112.891 39.0612 112.823 39.3515 112.823C39.646 112.823 39.9094 112.891 40.1417 113.028C40.3781 113.161 40.5648 113.35 40.7017 113.594C40.8427 113.835 40.9132 114.117 40.9132 114.441C40.9132 114.764 40.8427 115.048 40.7017 115.293C40.5648 115.534 40.3781 115.722 40.1417 115.859C39.9053 115.992 39.6398 116.058 39.3453 116.058ZM39.3453 115.492C39.5029 115.492 39.6481 115.453 39.7809 115.374C39.9177 115.295 40.0277 115.179 40.1106 115.025C40.1936 114.868 40.235 114.673 40.235 114.441C40.235 114.208 40.1936 114.015 40.1106 113.862C40.0318 113.704 39.924 113.586 39.7871 113.507C39.6543 113.429 39.5092 113.389 39.3515 113.389C39.1939 113.389 39.0467 113.429 38.9098 113.507C38.7771 113.586 38.6692 113.704 38.5863 113.862C38.5033 114.015 38.4618 114.208 38.4618 114.441C38.4618 114.673 38.5033 114.868 38.5863 115.025C38.6692 115.179 38.7771 115.295 38.9098 115.374C39.0425 115.453 39.1877 115.492 39.3453 115.492Z" fill="white"/>
<path d="M43.7507 117.265C43.2985 117.265 42.9024 117.178 42.5623 117.004C42.2263 116.83 41.9629 116.583 41.7721 116.264C41.5855 115.948 41.4921 115.575 41.4921 115.144C41.4921 114.692 41.571 114.273 41.7286 113.887C41.8862 113.501 42.1081 113.163 42.3943 112.873C42.6805 112.582 43.0165 112.358 43.4022 112.201C43.788 112.039 44.2111 111.958 44.6715 111.958C45.1444 111.958 45.5529 112.047 45.8972 112.226C46.2415 112.404 46.5069 112.653 46.6936 112.972C46.8844 113.292 46.9798 113.659 46.9798 114.074C46.9798 114.318 46.9487 114.557 46.8865 114.789C46.8242 115.021 46.733 115.231 46.6127 115.417C46.4966 115.6 46.3514 115.747 46.1772 115.859C46.0071 115.967 45.8101 116.021 45.5861 116.021C45.3746 116.021 45.2086 115.971 45.0884 115.872C44.9722 115.768 44.9017 115.629 44.8768 115.455C44.7524 115.633 44.5927 115.772 44.3977 115.872C44.2069 115.971 44.0016 116.021 43.7818 116.021C43.4707 116.021 43.226 115.928 43.0476 115.741C42.8734 115.55 42.7863 115.293 42.7863 114.969C42.7863 114.741 42.8215 114.524 42.8921 114.316C42.9626 114.105 43.0642 113.918 43.1969 113.756C43.3297 113.59 43.4852 113.46 43.6636 113.364C43.8461 113.269 44.0472 113.221 44.2671 113.221C44.6694 113.221 44.9328 113.381 45.0572 113.7L45.1319 113.29H45.6794L45.3808 115.007C45.3517 115.177 45.358 115.316 45.3995 115.424C45.4409 115.527 45.5343 115.579 45.6794 115.579C45.808 115.579 45.92 115.534 46.0154 115.442C46.115 115.351 46.1958 115.233 46.2581 115.088C46.3244 114.943 46.3742 114.785 46.4074 114.615C46.4406 114.441 46.4572 114.271 46.4572 114.105C46.4572 113.578 46.2933 113.165 45.9656 112.866C45.638 112.564 45.1817 112.412 44.5968 112.412C44.2277 112.412 43.8855 112.483 43.5702 112.624C43.255 112.761 42.9812 112.952 42.749 113.196C42.5167 113.437 42.3362 113.719 42.2077 114.042C42.0791 114.366 42.0148 114.714 42.0148 115.088C42.0148 115.631 42.1786 116.052 42.5063 116.351C42.834 116.654 43.282 116.805 43.8502 116.805C44.0327 116.805 44.2132 116.786 44.3915 116.749C44.574 116.712 44.7441 116.658 44.9017 116.587L45.0075 117.023C44.6259 117.184 44.2069 117.265 43.7507 117.265ZM43.9871 115.529C44.1489 115.529 44.2982 115.486 44.4351 115.399C44.5719 115.308 44.6839 115.185 44.771 115.032C44.8582 114.874 44.91 114.696 44.9266 114.497C44.9473 114.281 44.9059 114.096 44.8022 113.943C44.6985 113.789 44.5346 113.713 44.3106 113.713C44.1198 113.713 43.9539 113.769 43.8129 113.881C43.6719 113.993 43.564 114.136 43.4894 114.31C43.4147 114.484 43.3774 114.669 43.3774 114.864C43.3774 115.063 43.4271 115.225 43.5267 115.349C43.6304 115.469 43.7838 115.529 43.9871 115.529Z" fill="white"/>
<path d="M49.1244 116.058C48.8216 116.058 48.552 115.992 48.3155 115.859C48.0833 115.722 47.9008 115.534 47.768 115.293C47.6353 115.052 47.5689 114.772 47.5689 114.453C47.5689 114.13 47.6332 113.845 47.7618 113.601C47.8945 113.356 48.077 113.165 48.3093 113.028C48.5457 112.891 48.8195 112.823 49.1306 112.823C49.4334 112.823 49.6968 112.891 49.9208 113.028C50.1448 113.161 50.319 113.339 50.4434 113.563C50.5678 113.787 50.6301 114.034 50.6301 114.304C50.6301 114.345 50.628 114.391 50.6238 114.441C50.6238 114.486 50.6218 114.538 50.6176 114.596H48.216C48.2367 114.895 48.3342 115.123 48.5084 115.281C48.6868 115.434 48.8921 115.511 49.1244 115.511C49.311 115.511 49.4666 115.469 49.591 115.386C49.7196 115.299 49.815 115.183 49.8772 115.038H50.5367C50.4538 115.328 50.2879 115.571 50.039 115.766C49.7943 115.961 49.4894 116.058 49.1244 116.058ZM49.1244 113.364C48.9045 113.364 48.7096 113.431 48.5395 113.563C48.3695 113.692 48.2658 113.887 48.2284 114.148H49.9705C49.9581 113.908 49.8731 113.717 49.7155 113.576C49.5578 113.435 49.3608 113.364 49.1244 113.364Z" fill="white"/>
<path d="M50.6556 115.984L51.7506 114.441L50.6556 112.898H51.3586L52.1861 114.08L53.0074 112.898H53.7167L52.6217 114.441L53.7167 115.984H53.0074L52.1861 114.801L51.3586 115.984H50.6556Z" fill="white"/>
<path d="M55.0784 116.058C54.817 116.058 54.6014 116.015 54.4313 115.928C54.2612 115.841 54.1347 115.726 54.0518 115.585C53.9688 115.44 53.9273 115.283 53.9273 115.113C53.9273 114.814 54.0435 114.577 54.2758 114.403C54.508 114.229 54.8399 114.142 55.2712 114.142H56.0801V114.086C56.0801 113.845 56.0137 113.665 55.881 113.545C55.7524 113.424 55.5844 113.364 55.377 113.364C55.1945 113.364 55.0348 113.41 54.8979 113.501C54.7652 113.588 54.6843 113.719 54.6553 113.893H53.9958C54.0165 113.669 54.0912 113.478 54.2198 113.321C54.3525 113.159 54.5184 113.037 54.7175 112.954C54.9207 112.866 55.1427 112.823 55.3832 112.823C55.8146 112.823 56.1485 112.937 56.385 113.165C56.6214 113.389 56.7396 113.696 56.7396 114.086V115.984H56.1672L56.1112 115.455C56.0241 115.625 55.8976 115.768 55.7317 115.884C55.5657 116 55.348 116.058 55.0784 116.058ZM55.209 115.523C55.3874 115.523 55.5367 115.482 55.657 115.399C55.7814 115.312 55.8768 115.198 55.9432 115.057C56.0137 114.916 56.0573 114.76 56.0739 114.59H55.3397C55.0784 114.59 54.8917 114.636 54.7797 114.727C54.6719 114.818 54.618 114.932 54.618 115.069C54.618 115.21 54.6698 115.322 54.7735 115.405C54.8813 115.484 55.0265 115.523 55.209 115.523Z" fill="white"/>
<path d="M57.3307 115.984V112.898H57.9156L57.9716 113.333C58.0711 113.176 58.2018 113.051 58.3635 112.96C58.5295 112.869 58.7203 112.823 58.9359 112.823C59.4254 112.823 59.7655 113.016 59.9563 113.402C60.0683 113.223 60.2176 113.082 60.4043 112.978C60.5951 112.875 60.8004 112.823 61.0203 112.823C61.406 112.823 61.7088 112.939 61.9286 113.171C62.1485 113.404 62.2584 113.75 62.2584 114.21V115.984H61.5989V114.279C61.5989 113.682 61.3707 113.383 60.9145 113.383C60.6822 113.383 60.4914 113.47 60.3421 113.644C60.1969 113.818 60.1243 114.067 60.1243 114.391V115.984H59.4648V114.279C59.4648 113.682 59.2346 113.383 58.7742 113.383C58.546 113.383 58.3573 113.47 58.208 113.644C58.0628 113.818 57.9902 114.067 57.9902 114.391V115.984H57.3307Z" fill="white"/>
<path d="M62.8521 117.352V112.898H63.4432L63.5117 113.377C63.6112 113.231 63.7481 113.103 63.9223 112.991C64.0965 112.879 64.3205 112.823 64.5943 112.823C64.8929 112.823 65.1563 112.893 65.3844 113.034C65.6126 113.176 65.7909 113.368 65.9195 113.613C66.0522 113.858 66.1186 114.136 66.1186 114.447C66.1186 114.758 66.0522 115.036 65.9195 115.281C65.7909 115.521 65.6126 115.712 65.3844 115.853C65.1563 115.99 64.8908 116.058 64.588 116.058C64.3475 116.058 64.1338 116.011 63.9472 115.915C63.7647 115.82 63.6195 115.685 63.5117 115.511V117.352H62.8521ZM64.476 115.486C64.7581 115.486 64.9904 115.39 65.1729 115.2C65.3554 115.005 65.4466 114.752 65.4466 114.441C65.4466 114.237 65.4052 114.057 65.3222 113.899C65.2392 113.742 65.1252 113.619 64.98 113.532C64.8348 113.441 64.6668 113.395 64.476 113.395C64.194 113.395 63.9617 113.493 63.7792 113.688C63.6008 113.883 63.5117 114.134 63.5117 114.441C63.5117 114.752 63.6008 115.005 63.7792 115.2C63.9617 115.39 64.194 115.486 64.476 115.486Z" fill="white"/>
<path d="M66.6541 115.984V111.504H67.3136V115.984H66.6541Z" fill="white"/>
<path d="M69.4144 116.058C69.1116 116.058 68.842 115.992 68.6055 115.859C68.3732 115.722 68.1907 115.534 68.058 115.293C67.9253 115.052 67.8589 114.772 67.8589 114.453C67.8589 114.13 67.9232 113.845 68.0518 113.601C68.1845 113.356 68.367 113.165 68.5993 113.028C68.8357 112.891 69.1095 112.823 69.4206 112.823C69.7234 112.823 69.9868 112.891 70.2108 113.028C70.4347 113.161 70.609 113.339 70.7334 113.563C70.8578 113.787 70.92 114.034 70.92 114.304C70.92 114.345 70.918 114.391 70.9138 114.441C70.9138 114.486 70.9117 114.538 70.9076 114.596H68.506C68.5267 114.895 68.6242 115.123 68.7984 115.281C68.9768 115.434 69.1821 115.511 69.4144 115.511C69.601 115.511 69.7566 115.469 69.881 115.386C70.0096 115.299 70.105 115.183 70.1672 115.038H70.8267C70.7438 115.328 70.5778 115.571 70.329 115.766C70.0842 115.961 69.7794 116.058 69.4144 116.058ZM69.4144 113.364C69.1945 113.364 68.9996 113.431 68.8295 113.563C68.6595 113.692 68.5558 113.887 68.5184 114.148H70.2605C70.2481 113.908 70.1631 113.717 70.0054 113.576C69.8478 113.435 69.6508 113.364 69.4144 113.364Z" fill="white"/>
<path d="M71.6878 116.021C71.5634 116.021 71.4597 115.982 71.3767 115.903C71.2979 115.82 71.2585 115.722 71.2585 115.61C71.2585 115.494 71.2979 115.397 71.3767 115.318C71.4597 115.235 71.5634 115.193 71.6878 115.193C71.8122 115.193 71.9139 115.235 71.9927 115.318C72.0715 115.397 72.1109 115.494 72.1109 115.61C72.1109 115.722 72.0715 115.82 71.9927 115.903C71.9139 115.982 71.8122 116.021 71.6878 116.021Z" fill="white"/>
<path d="M74.0596 116.058C73.7568 116.058 73.4851 115.99 73.2446 115.853C73.0081 115.716 72.8215 115.527 72.6846 115.287C72.5519 115.042 72.4855 114.76 72.4855 114.441C72.4855 114.121 72.5519 113.841 72.6846 113.601C72.8215 113.356 73.0081 113.165 73.2446 113.028C73.4851 112.891 73.7568 112.823 74.0596 112.823C74.4412 112.823 74.7606 112.922 75.0178 113.122C75.2791 113.321 75.4471 113.59 75.5218 113.93H74.8311C74.7897 113.76 74.6984 113.628 74.5574 113.532C74.4163 113.437 74.2504 113.389 74.0596 113.389C73.8979 113.389 73.7485 113.431 73.6117 113.514C73.4748 113.592 73.3649 113.711 73.2819 113.868C73.1989 114.022 73.1575 114.212 73.1575 114.441C73.1575 114.669 73.1989 114.862 73.2819 115.019C73.3649 115.173 73.4748 115.291 73.6117 115.374C73.7485 115.457 73.8979 115.498 74.0596 115.498C74.2504 115.498 74.4163 115.451 74.5574 115.355C74.6984 115.26 74.7897 115.125 74.8311 114.951H75.5218C75.4512 115.283 75.2853 115.55 75.024 115.753C74.7627 115.957 74.4412 116.058 74.0596 116.058Z" fill="white"/>
<path d="M77.5026 116.058C77.2081 116.058 76.9427 115.992 76.7062 115.859C76.474 115.722 76.2894 115.534 76.1525 115.293C76.0156 115.048 75.9472 114.764 75.9472 114.441C75.9472 114.117 76.0156 113.835 76.1525 113.594C76.2935 113.35 76.4823 113.161 76.7187 113.028C76.9551 112.891 77.2185 112.823 77.5089 112.823C77.8033 112.823 78.0667 112.891 78.299 113.028C78.5354 113.161 78.7221 113.35 78.859 113.594C79 113.835 79.0705 114.117 79.0705 114.441C79.0705 114.764 79 115.048 78.859 115.293C78.7221 115.534 78.5354 115.722 78.299 115.859C78.0626 115.992 77.7971 116.058 77.5026 116.058ZM77.5026 115.492C77.6602 115.492 77.8054 115.453 77.9382 115.374C78.075 115.295 78.185 115.179 78.2679 115.025C78.3509 114.868 78.3923 114.673 78.3923 114.441C78.3923 114.208 78.3509 114.015 78.2679 113.862C78.1891 113.704 78.0813 113.586 77.9444 113.507C77.8116 113.429 77.6665 113.389 77.5089 113.389C77.3512 113.389 77.204 113.429 77.0671 113.507C76.9344 113.586 76.8265 113.704 76.7436 113.862C76.6606 114.015 76.6191 114.208 76.6191 114.441C76.6191 114.673 76.6606 114.868 76.7436 115.025C76.8265 115.179 76.9344 115.295 77.0671 115.374C77.1998 115.453 77.345 115.492 77.5026 115.492Z" fill="white"/>
<path d="M79.6059 115.984V112.898H80.1907L80.2467 113.333C80.3463 113.176 80.477 113.051 80.6387 112.96C80.8046 112.869 80.9954 112.823 81.2111 112.823C81.7006 112.823 82.0407 113.016 82.2315 113.402C82.3435 113.223 82.4928 113.082 82.6795 112.978C82.8703 112.875 83.0756 112.823 83.2954 112.823C83.6812 112.823 83.984 112.939 84.2038 113.171C84.4237 113.404 84.5336 113.75 84.5336 114.21V115.984H83.8741V114.279C83.8741 113.682 83.6459 113.383 83.1897 113.383C82.9574 113.383 82.7666 113.47 82.6173 113.644C82.4721 113.818 82.3995 114.067 82.3995 114.391V115.984H81.74V114.279C81.74 113.682 81.5098 113.383 81.0494 113.383C80.8212 113.383 80.6325 113.47 80.4832 113.644C80.338 113.818 80.2654 114.067 80.2654 114.391V115.984H79.6059Z" fill="white"/>
</g>
<g filter="url(#filter8_d_2_45)">
<path d="M16.521 136.701C16.521 131.203 20.978 126.746 26.4759 126.746H133.054C138.552 126.746 143.009 131.203 143.009 136.701V136.701C143.009 142.199 138.552 146.656 133.054 146.656H26.4759C20.978 146.656 16.521 142.199 16.521 136.701V136.701Z" fill="#0F122B"/>
</g>
<path d="M54.3802 139.248C53.9533 139.248 53.5868 139.155 53.2807 138.969C52.9747 138.778 52.7391 138.516 52.574 138.181C52.4089 137.842 52.3263 137.451 52.3263 137.008C52.3263 136.566 52.4089 136.175 52.574 135.836C52.7391 135.497 52.9747 135.232 53.2807 135.042C53.5868 134.852 53.9533 134.757 54.3802 134.757C54.8876 134.757 55.3024 134.887 55.6246 135.147C55.9508 135.404 56.1541 135.766 56.2347 136.233H55.3829C55.3306 135.997 55.2178 135.813 55.0446 135.681C54.8755 135.544 54.65 135.476 54.3681 135.476C53.9774 135.476 53.6714 135.613 53.4499 135.886C53.2284 136.159 53.1176 136.533 53.1176 137.008C53.1176 137.484 53.2284 137.858 53.4499 138.131C53.6714 138.4 53.9774 138.534 54.3681 138.534C54.65 138.534 54.8755 138.472 55.0446 138.348C55.2178 138.22 55.3306 138.044 55.3829 137.821H56.2347C56.1541 138.268 55.9508 138.617 55.6246 138.869C55.3024 139.122 54.8876 139.248 54.3802 139.248Z" fill="white"/>
<path d="M58.166 139.248C57.8761 139.248 57.6143 139.18 57.3807 139.043C57.1512 138.907 56.9679 138.718 56.831 138.479C56.6981 138.235 56.6317 137.953 56.6317 137.635C56.6317 137.317 56.7001 137.037 56.8371 136.798C56.974 136.554 57.1572 136.363 57.3868 136.227C57.6203 136.09 57.8821 136.022 58.1721 136.022C58.458 136.022 58.7157 136.09 58.9453 136.227C59.1789 136.363 59.3621 136.554 59.495 136.798C59.6319 137.037 59.7004 137.317 59.7004 137.635C59.7004 137.953 59.6319 138.235 59.495 138.479C59.3621 138.718 59.1789 138.907 58.9453 139.043C58.7117 139.18 58.452 139.248 58.166 139.248ZM58.166 138.559C58.3674 138.559 58.5426 138.483 58.6916 138.33C58.8406 138.173 58.9151 137.941 58.9151 137.635C58.9151 137.329 58.8406 137.099 58.6916 136.946C58.5426 136.789 58.3694 136.711 58.1721 136.711C57.9667 136.711 57.7895 136.789 57.6405 136.946C57.4955 137.099 57.423 137.329 57.423 137.635C57.423 137.941 57.4955 138.173 57.6405 138.33C57.7895 138.483 57.9647 138.559 58.166 138.559Z" fill="white"/>
<path d="M60.219 139.173V136.097H60.9016L60.9621 136.618C61.0547 136.436 61.1876 136.291 61.3607 136.183C61.5379 136.076 61.7453 136.022 61.983 136.022C62.3535 136.022 62.6414 136.142 62.8468 136.382C63.0522 136.622 63.1549 136.973 63.1549 137.436V139.173H62.3816V137.511C62.3816 137.246 62.3293 137.044 62.2246 136.903C62.1199 136.762 61.9568 136.692 61.7353 136.692C61.5178 136.692 61.3386 136.771 61.1976 136.928C61.0607 137.085 60.9923 137.304 60.9923 137.585V139.173H60.219Z" fill="white"/>
<path d="M65.0566 139.173C64.7425 139.173 64.4908 139.095 64.3015 138.938C64.1122 138.78 64.0176 138.501 64.0176 138.1V136.76H63.5041V136.097H64.0176L64.1082 135.272H64.7908V136.097H65.6002V136.76H64.7908V138.106C64.7908 138.255 64.821 138.359 64.8814 138.417C64.9458 138.47 65.0546 138.497 65.2076 138.497H65.5821V139.173H65.0566Z" fill="white"/>
<path d="M66.5082 135.619C66.3673 135.619 66.2505 135.575 66.1579 135.489C66.0693 135.402 66.025 135.292 66.025 135.16C66.025 135.028 66.0693 134.92 66.1579 134.837C66.2505 134.75 66.3673 134.707 66.5082 134.707C66.6492 134.707 66.764 134.75 66.8526 134.837C66.9452 134.92 66.9915 135.028 66.9915 135.16C66.9915 135.292 66.9452 135.402 66.8526 135.489C66.764 135.575 66.6492 135.619 66.5082 135.619ZM66.1216 139.173V136.097H66.8949V139.173H66.1216Z" fill="white"/>
<path d="M67.5292 139.173V136.097H68.2118L68.2722 136.618C68.3649 136.436 68.4978 136.291 68.6709 136.183C68.8481 136.076 69.0555 136.022 69.2931 136.022C69.6636 136.022 69.9516 136.142 70.157 136.382C70.3624 136.622 70.465 136.973 70.465 137.436V139.173H69.6918V137.511C69.6918 137.246 69.6395 137.044 69.5348 136.903C69.4301 136.762 69.267 136.692 69.0455 136.692C68.828 136.692 68.6488 136.771 68.5078 136.928C68.3709 137.085 68.3024 137.304 68.3024 137.585V139.173H67.5292Z" fill="white"/>
<path d="M72.1553 139.248C71.7808 139.248 71.4908 139.128 71.2855 138.888C71.0841 138.648 70.9834 138.297 70.9834 137.833V136.097H71.7506V137.759C71.7506 138.024 71.8029 138.226 71.9077 138.367C72.0124 138.508 72.1775 138.578 72.403 138.578C72.6164 138.578 72.7916 138.499 72.9286 138.342C73.0695 138.185 73.14 137.966 73.14 137.685V136.097H73.9132V139.173H73.2306L73.1702 138.652C73.0776 138.834 72.9426 138.979 72.7654 139.086C72.5923 139.194 72.3889 139.248 72.1553 139.248Z" fill="white"/>
<path d="M75.9901 139.248C75.6881 139.248 75.4202 139.182 75.1867 139.049C74.9531 138.917 74.7699 138.731 74.637 138.491C74.5041 138.251 74.4376 137.974 74.4376 137.66C74.4376 137.341 74.502 137.058 74.6309 136.81C74.7638 136.562 74.945 136.369 75.1746 136.233C75.4082 136.092 75.682 136.022 75.9961 136.022C76.2901 136.022 76.5499 136.088 76.7754 136.221C77.0009 136.353 77.1761 136.535 77.3009 136.766C77.4298 136.994 77.4942 137.248 77.4942 137.529C77.4942 137.575 77.4922 137.623 77.4882 137.672C77.4882 137.722 77.4862 137.773 77.4822 137.827H75.2048C75.2209 138.067 75.3014 138.255 75.4464 138.392C75.5954 138.528 75.7746 138.596 75.984 138.596C76.1411 138.596 76.272 138.561 76.3767 138.491C76.4854 138.417 76.566 138.321 76.6183 138.206H77.4036C77.3473 138.4 77.2526 138.578 77.1197 138.739C76.9908 138.896 76.8298 139.02 76.6365 139.111C76.4472 139.202 76.2317 139.248 75.9901 139.248ZM75.9961 136.667C75.8069 136.667 75.6397 136.723 75.4947 136.835C75.3498 136.942 75.2571 137.108 75.2169 137.331H76.7089C76.6969 137.128 76.6244 136.967 76.4915 136.847C76.3586 136.727 76.1935 136.667 75.9961 136.667Z" fill="white"/>
<path d="M79.8246 139.173L78.9486 136.097H79.7158L80.2353 138.311L80.8394 136.097H81.6972L82.3013 138.311L82.8268 136.097H83.594L82.7121 139.173H81.9086L81.2683 136.872L80.628 139.173H79.8246Z" fill="white"/>
<path d="M84.326 135.619C84.185 135.619 84.0682 135.575 83.9756 135.489C83.887 135.402 83.8427 135.292 83.8427 135.16C83.8427 135.028 83.887 134.92 83.9756 134.837C84.0682 134.75 84.185 134.707 84.326 134.707C84.4669 134.707 84.5817 134.75 84.6703 134.837C84.7629 134.92 84.8092 135.028 84.8092 135.16C84.8092 135.292 84.7629 135.402 84.6703 135.489C84.5817 135.575 84.4669 135.619 84.326 135.619ZM83.9394 139.173V136.097H84.7126V139.173H83.9394Z" fill="white"/>
<path d="M86.682 139.173C86.3679 139.173 86.1162 139.095 85.9269 138.938C85.7376 138.78 85.643 138.501 85.643 138.1V136.76H85.1295V136.097H85.643L85.7336 135.272H86.4162V136.097H87.2256V136.76H86.4162V138.106C86.4162 138.255 86.4464 138.359 86.5068 138.417C86.5712 138.47 86.68 138.497 86.833 138.497H87.2075V139.173H86.682Z" fill="white"/>
<path d="M87.7168 139.173V134.707H88.4901V136.568C88.5907 136.398 88.7256 136.266 88.8948 136.171C89.068 136.072 89.2653 136.022 89.4868 136.022C89.8573 136.022 90.1432 136.142 90.3446 136.382C90.55 136.622 90.6527 136.973 90.6527 137.436V139.173H89.8855V137.511C89.8855 137.246 89.8331 137.044 89.7284 136.903C89.6277 136.762 89.4667 136.692 89.2452 136.692C89.0277 136.692 88.8465 136.771 88.7015 136.928C88.5605 137.085 88.4901 137.304 88.4901 137.585V139.173H87.7168Z" fill="white"/>
<path d="M92.5042 139.173V134.831H95.2648V135.47H93.2774V136.661H95.0836V137.281H93.2774V138.534H95.2648V139.173H92.5042Z" fill="white"/>
<path d="M95.8057 139.173V136.097H96.4883L96.5548 136.512C96.6514 136.363 96.7783 136.245 96.9353 136.159C97.0964 136.068 97.2817 136.022 97.4911 136.022C97.9542 136.022 98.2824 136.206 98.4757 136.574C98.5845 136.405 98.7295 136.27 98.9107 136.171C99.0959 136.072 99.2973 136.022 99.5148 136.022C99.9054 136.022 100.205 136.142 100.415 136.382C100.624 136.622 100.729 136.973 100.729 137.436V139.173H99.9557V137.511C99.9557 137.246 99.9054 137.044 99.8047 136.903C99.7081 136.762 99.557 136.692 99.3517 136.692C99.1422 136.692 98.9731 136.771 98.8442 136.928C98.7194 137.085 98.657 137.304 98.657 137.585V139.173H97.8837V137.511C97.8837 137.246 97.8334 137.044 97.7327 136.903C97.632 136.762 97.477 136.692 97.2676 136.692C97.0622 136.692 96.8951 136.771 96.7662 136.928C96.6414 137.085 96.5789 137.304 96.5789 137.585V139.173H95.8057Z" fill="white"/>
<path d="M102.323 139.248C102.066 139.248 101.854 139.206 101.689 139.124C101.524 139.037 101.401 138.923 101.321 138.783C101.24 138.642 101.2 138.487 101.2 138.317C101.2 138.032 101.308 137.8 101.526 137.623C101.743 137.445 102.07 137.356 102.505 137.356H103.266V137.281C103.266 137.07 103.207 136.915 103.091 136.816C102.974 136.717 102.829 136.667 102.656 136.667C102.499 136.667 102.362 136.707 102.245 136.785C102.128 136.86 102.056 136.971 102.027 137.12H101.272C101.292 136.897 101.365 136.702 101.49 136.537C101.619 136.372 101.784 136.245 101.985 136.159C102.186 136.068 102.412 136.022 102.662 136.022C103.089 136.022 103.425 136.132 103.67 136.351C103.916 136.57 104.039 136.88 104.039 137.281V139.173H103.38L103.308 138.677C103.219 138.842 103.095 138.979 102.933 139.086C102.776 139.194 102.573 139.248 102.323 139.248ZM102.499 138.627C102.72 138.627 102.891 138.553 103.012 138.404C103.137 138.255 103.215 138.071 103.248 137.852H102.589C102.384 137.852 102.237 137.891 102.148 137.97C102.06 138.044 102.015 138.137 102.015 138.249C102.015 138.369 102.06 138.462 102.148 138.528C102.237 138.594 102.354 138.627 102.499 138.627Z" fill="white"/>
<path d="M105.021 135.619C104.88 135.619 104.763 135.575 104.671 135.489C104.582 135.402 104.538 135.292 104.538 135.16C104.538 135.028 104.582 134.92 104.671 134.837C104.763 134.75 104.88 134.707 105.021 134.707C105.162 134.707 105.277 134.75 105.365 134.837C105.458 134.92 105.504 135.028 105.504 135.16C105.504 135.292 105.458 135.402 105.365 135.489C105.277 135.575 105.162 135.619 105.021 135.619ZM104.634 139.173V136.097H105.408V139.173H104.634Z" fill="white"/>
<path d="M106.042 139.173V134.707H106.815V139.173H106.042Z" fill="white"/>
<defs>
<filter id="filter0_b_2_45" x="-19.1353" y="21.6855" width="197.412" height="160.081" filterUnits="userSpaceOnUse" color-interpolation-filters="sRGB">
<feFlood flood-opacity="0" result="BackgroundImageFix"/>
<feGaussianBlur in="BackgroundImage" stdDeviation="10"/>
<feComposite in2="SourceAlpha" operator="in" result="effect1_backgroundBlur_2_45"/>
<feBlend mode="normal" in="SourceGraphic" in2="effect1_backgroundBlur_2_45" result="shape"/>
</filter>
<filter id="filter1_b_2_45" x="-8.89201" y="-9.75744" width="176.926" height="61.1997" filterUnits="userSpaceOnUse" color-interpolation-filters="sRGB">
<feFlood flood-opacity="0" result="BackgroundImageFix"/>
<feGaussianBlur in="BackgroundImage" stdDeviation="4.87838"/>
<feComposite in2="SourceAlpha" operator="in" result="effect1_backgroundBlur_2_45"/>
<feBlend mode="normal" in="SourceGraphic" in2="effect1_backgroundBlur_2_45" result="shape"/>
</filter>
<filter id="filter2_d_2_45" x="9.43766" y="59.8498" width="37.0536" height="37.0536" filterUnits="userSpaceOnUse" color-interpolation-filters="sRGB">
<feFlood flood-opacity="0" result="BackgroundImageFix"/>
<feColorMatrix in="SourceAlpha" type="matrix" values="0 0 0 0 0 0 0 0 0 0 0 0 0 0 0 0 0 0 127 0" result="hardAlpha"/>
<feOffset dx="1.41676" dy="1.41676"/>
<feGaussianBlur stdDeviation="4.25029"/>
<feColorMatrix type="matrix" values="0 0 0 0 0.0117647 0 0 0 0 0.392157 0 0 0 0 1 0 0 0 0.05 0"/>
<feBlend mode="normal" in2="BackgroundImageFix" result="effect1_dropShadow_2_45"/>
<feBlend mode="normal" in="SourceGraphic" in2="effect1_dropShadow_2_45" result="shape"/>
</filter>
<filter id="filter3_d_2_45" x="36.1049" y="59.8498" width="37.0536" height="37.0536" filterUnits="userSpaceOnUse" color-interpolation-filters="sRGB">
<feFlood flood-opacity="0" result="BackgroundImageFix"/>
<feColorMatrix in="SourceAlpha" type="matrix" values="0 0 0 0 0 0 0 0 0 0 0 0 0 0 0 0 0 0 127 0" result="hardAlpha"/>
<feOffset dx="1.41676" dy="1.41676"/>
<feGaussianBlur stdDeviation="4.25029"/>
<feColorMatrix type="matrix" values="0 0 0 0 0.0117647 0 0 0 0 0.392157 0 0 0 0 1 0 0 0 0.05 0"/>
<feBlend mode="normal" in2="BackgroundImageFix" result="effect1_dropShadow_2_45"/>
<feBlend mode="normal" in="SourceGraphic" in2="effect1_dropShadow_2_45" result="shape"/>
</filter>
<filter id="filter4_d_2_45" x="62.7719" y="59.8498" width="37.0536" height="37.0536" filterUnits="userSpaceOnUse" color-interpolation-filters="sRGB">
<feFlood flood-opacity="0" result="BackgroundImageFix"/>
<feColorMatrix in="SourceAlpha" type="matrix" values="0 0 0 0 0 0 0 0 0 0 0 0 0 0 0 0 0 0 127 0" result="hardAlpha"/>
<feOffset dx="1.41676" dy="1.41676"/>
<feGaussianBlur stdDeviation="4.25029"/>
<feColorMatrix type="matrix" values="0 0 0 0 0.0117647 0 0 0 0 0.392157 0 0 0 0 1 0 0 0 0.05 0"/>
<feBlend mode="normal" in2="BackgroundImageFix" result="effect1_dropShadow_2_45"/>
<feBlend mode="normal" in="SourceGraphic" in2="effect1_dropShadow_2_45" result="shape"/>
</filter>
<filter id="filter5_d_2_45" x="89.4384" y="59.8498" width="37.0536" height="37.0536" filterUnits="userSpaceOnUse" color-interpolation-filters="sRGB">
<feFlood flood-opacity="0" result="BackgroundImageFix"/>
<feColorMatrix in="SourceAlpha" type="matrix" values="0 0 0 0 0 0 0 0 0 0 0 0 0 0 0 0 0 0 127 0" result="hardAlpha"/>
<feOffset dx="1.41676" dy="1.41676"/>
<feGaussianBlur stdDeviation="4.25029"/>
<feColorMatrix type="matrix" values="0 0 0 0 0.0117647 0 0 0 0 0.392157 0 0 0 0 1 0 0 0 0.05 0"/>
<feBlend mode="normal" in2="BackgroundImageFix" result="effect1_dropShadow_2_45"/>
<feBlend mode="normal" in="SourceGraphic" in2="effect1_dropShadow_2_45" result="shape"/>
</filter>
<filter id="filter6_d_2_45" x="116.107" y="59.8498" width="37.0536" height="37.0536" filterUnits="userSpaceOnUse" color-interpolation-filters="sRGB">
<feFlood flood-opacity="0" result="BackgroundImageFix"/>
<feColorMatrix in="SourceAlpha" type="matrix" values="0 0 0 0 0 0 0 0 0 0 0 0 0 0 0 0 0 0 127 0" result="hardAlpha"/>
<feOffset dx="1.41676" dy="1.41676"/>
<feGaussianBlur stdDeviation="4.25029"/>
<feColorMatrix type="matrix" values="0 0 0 0 0.0117647 0 0 0 0 0.392157 0 0 0 0 1 0 0 0 0.05 0"/>
<feBlend mode="normal" in2="BackgroundImageFix" result="effect1_dropShadow_2_45"/>
<feBlend mode="normal" in="SourceGraphic" in2="effect1_dropShadow_2_45" result="shape"/>
</filter>
<filter id="filter7_d_2_45" x="9.43717" y="96.6427" width="143.489" height="36.911" filterUnits="userSpaceOnUse" color-interpolation-filters="sRGB">
<feFlood flood-opacity="0" result="BackgroundImageFix"/>
<feColorMatrix in="SourceAlpha" type="matrix" values="0 0 0 0 0 0 0 0 0 0 0 0 0 0 0 0 0 0 127 0" result="hardAlpha"/>
<feOffset dx="1.41676" dy="1.41676"/>
<feGaussianBlur stdDeviation="4.25029"/>
<feColorMatrix type="matrix" values="0 0 0 0 0.0117647 0 0 0 0 0.392157 0 0 0 0 1 0 0 0 0.05 0"/>
<feBlend mode="normal" in2="BackgroundImageFix" result="effect1_dropShadow_2_45"/>
<feBlend mode="normal" in="SourceGraphic" in2="effect1_dropShadow_2_45" result="shape"/>
</filter>
<filter id="filter8_d_2_45" x="9.43717" y="119.662" width="143.489" height="36.911" filterUnits="userSpaceOnUse" color-interpolation-filters="sRGB">
<feFlood flood-opacity="0" result="BackgroundImageFix"/>
<feColorMatrix in="SourceAlpha" type="matrix" values="0 0 0 0 0 0 0 0 0 0 0 0 0 0 0 0 0 0 127 0" result="hardAlpha"/>
<feOffset dx="1.41676" dy="1.41676"/>
<feGaussianBlur stdDeviation="4.25029"/>
<feColorMatrix type="matrix" values="0 0 0 0 0.0117647 0 0 0 0 0.392157 0 0 0 0 1 0 0 0 0.05 0"/>
<feBlend mode="normal" in2="BackgroundImageFix" result="effect1_dropShadow_2_45"/>
<feBlend mode="normal" in="SourceGraphic" in2="effect1_dropShadow_2_45" result="shape"/>
</filter>
<linearGradient id="paint0_linear_2_45" x1="27.1001" y1="57.5296" x2="100.842" y2="168.441" gradientUnits="userSpaceOnUse">
<stop stop-color="#6562AD"/>
<stop offset="1" stop-color="#081D54"/>
</linearGradient>
<linearGradient id="paint1_linear_2_45" x1="53.2144" y1="83.5625" x2="53.2144" y2="70.2754" gradientUnits="userSpaceOnUse">
<stop stop-color="#1569CB"/>
<stop offset="1" stop-color="#29AEF3"/>
</linearGradient>
</defs>
</svg>
