<svg width="30" height="34" viewBox="0 0 30 34" fill="none" xmlns="http://www.w3.org/2000/svg">
<path fill-rule="evenodd" clip-rule="evenodd" d="M3.88888 3.66536C3.58206 3.66536 3.33333 3.91409 3.33333 4.22091V29.7764C3.33333 30.0833 3.58206 30.332 3.88888 30.332H26.1111C26.4179 30.332 26.6666 30.0833 26.6666 29.7764V12.898C26.6666 12.7538 26.6106 12.6152 26.5103 12.5116L22.3078 8.16979L17.9325 3.82663C17.8284 3.72333 17.6877 3.66536 17.5411 3.66536H3.88888ZM0 4.22091C0 2.07314 1.74111 0.332031 3.88888 0.332031H17.5411C18.5675 0.332031 19.5523 0.737822 20.2808 1.46093L24.6798 5.82758L28.9054 10.1933C29.6075 10.9187 30 11.8886 30 12.898V29.7764C30 31.9242 28.2588 33.6653 26.1111 33.6653H3.88888C1.74111 33.6653 0 31.9242 0 29.7764V4.22091Z" fill="#7C8CA1"/>
<path fill-rule="evenodd" clip-rule="evenodd" d="M17.8227 0.456976C18.448 0.200228 19.1665 0.346625 19.6415 0.82758L29.5181 10.8276C29.9904 11.3058 30.1292 12.0211 29.8701 12.6413C29.6109 13.2616 29.0045 13.6654 28.3323 13.6654H20.6779C18.5302 13.6654 16.7891 11.9243 16.7891 9.77651V1.99875C16.7891 1.32276 17.1974 0.713725 17.8227 0.456976ZM20.1224 6.05804V9.77651C20.1224 10.0833 20.3711 10.3321 20.6779 10.3321H24.3437L20.1224 6.05804Z" fill="#7C8CA1"/>
<path fill-rule="evenodd" clip-rule="evenodd" d="M5.55469 18.1085C5.55469 17.6279 5.76215 17.1707 6.12385 16.8542L10.5683 12.9653C11.261 12.3592 12.3139 12.4294 12.9201 13.1221C13.5262 13.8148 13.456 14.8678 12.7633 15.4739L9.75233 18.1085L12.7633 20.7431C13.456 21.3492 13.5262 22.4022 12.9201 23.0949C12.3139 23.7876 11.261 23.8578 10.5683 23.2517L6.12385 19.3628C5.76215 19.0463 5.55469 18.5891 5.55469 18.1085Z" fill="#7C8CA1"/>
<path fill-rule="evenodd" clip-rule="evenodd" d="M23.3281 21.4423C23.3281 21.9229 23.1207 22.3801 22.759 22.6966L18.3145 26.5855C17.6218 27.1916 16.5689 27.1214 15.9627 26.4287C15.3566 25.7359 15.4268 24.683 16.1195 24.0769L19.1305 21.4423L16.1195 18.8077C15.4268 18.2016 15.3566 17.1486 15.9627 16.4559C16.5689 15.7632 17.6218 15.693 18.3145 16.2991L22.759 20.188C23.1207 20.5045 23.3281 20.9617 23.3281 21.4423Z" fill="#7C8CA1"/>
</svg>
