<svg width="30" height="34" viewBox="0 0 30 34" fill="none" xmlns="http://www.w3.org/2000/svg">
<path fill-rule="evenodd" clip-rule="evenodd" d="M30 33.6654H5C2.23858 33.6654 0 31.4268 0 28.6654V5.33203C0 2.57061 2.23858 0.332031 5 0.332031H30V26.9987C29.0795 26.9987 28.3333 27.7449 28.3333 28.6654C28.3333 29.5858 29.0795 30.332 30 30.332V33.6654ZM25 28.6654C25 28.081 25.1003 27.52 25.2845 26.9987H5C4.07952 26.9987 3.33333 27.7449 3.33333 28.6654C3.33333 29.5858 4.07952 30.332 5 30.332H25.2845C25.1003 29.8107 25 29.2498 25 28.6654ZM5 3.66536H26.6667V23.6654H5C4.41561 23.6654 3.85463 23.7656 3.33333 23.9499V5.33203C3.33333 4.41156 4.07952 3.66536 5 3.66536Z" fill="#7C8CA1"/>
</svg>
