<svg width="24" height="34" viewBox="0 0 24 34" fill="none" xmlns="http://www.w3.org/2000/svg">
<path fill-rule="evenodd" clip-rule="evenodd" d="M3.66927 0.332031H20.3359C22.1769 0.332031 23.6693 1.82442 23.6693 3.66536V30.332C23.6693 32.173 22.1769 33.6654 20.3359 33.6654H3.66927C1.82832 33.6654 0.335938 32.173 0.335938 30.332V3.66536C0.335938 1.82442 1.82832 0.332031 3.66927 0.332031ZM3.66927 3.66536V30.332H20.3359V3.66536H3.66927ZM13.6693 26.9987C13.6693 27.9192 12.9231 28.6654 12.0026 28.6654C11.0821 28.6654 10.3359 27.9192 10.3359 26.9987C10.3359 26.0782 11.0821 25.332 12.0026 25.332C12.9231 25.332 13.6693 26.0782 13.6693 26.9987Z" fill="#7C8CA1"/>
</svg>
