<svg width="24" height="24" viewBox="0 0 24 24" fill="none" xmlns="http://www.w3.org/2000/svg">
<path fill-rule="evenodd" clip-rule="evenodd" d="M16.0369 14.34L15.0308 15.3503L13.743 14.9901L13.3747 15.1426L12.7136 16.3081H11.2911L10.6337 15.1387L10.2657 14.9837L8.97806 15.3395L7.97241 14.3297L8.33115 13.0366L8.17923 12.6667L7.01855 12.0024V10.5741L8.1837 9.91393L8.33794 9.54453L7.98363 8.25154L8.98891 7.24211L10.2767 7.60284L10.6447 7.45046L11.3048 6.28394H12.7276L13.3851 7.45389L13.7529 7.60878L15.0404 7.25306L16.0472 8.2626L15.6884 9.55592L15.8402 9.9255L17.002 10.5884V12.017L15.8369 12.6772L15.6825 13.0474L16.0369 14.34ZM14.001 12.5355L14.2911 11.8397L15.0057 11.4348V11.1663L14.2913 10.7587L14.0054 10.0624L14.2256 9.26862L14.0363 9.07879L13.2434 9.29787L12.5512 9.00644L12.1481 8.28893H11.8806L11.4747 9.00625L10.7813 9.29344L9.99068 9.07197L9.80224 9.2612L10.0204 10.0572L9.73014 10.7523L9.01563 11.1572V11.426L9.72939 11.8346L10.0153 12.5306L9.79501 13.3245L9.98384 13.5142L10.7766 13.2951L11.4687 13.5865L11.8719 14.3037H12.1396L12.5461 13.587L13.2393 13.2999L14.0299 13.5211L14.219 13.3311L14.001 12.5355Z" fill="#7C8CA1"/>
<path fill-rule="evenodd" clip-rule="evenodd" d="M12.2812 4.07916C12.1024 4.02946 11.9134 4.02946 11.7345 4.07916L6.28949 5.59219C5.84765 5.71496 5.54189 6.11728 5.54189 6.57586V11.8121C5.54189 14.5573 6.98005 17.1018 9.3319 18.5178L11.4813 19.8118C11.8052 20.0069 12.2105 20.0069 12.5345 19.8118L14.6838 18.5178C17.0357 17.1018 18.4738 14.5573 18.4738 11.8121V6.57586C18.4738 6.11728 18.1681 5.71496 17.7262 5.59219L12.2812 4.07916ZM11.1879 2.11181C11.7244 1.96273 12.2914 1.96273 12.8279 2.11181L18.2729 3.62484C19.5984 3.99317 20.5157 5.20011 20.5157 6.57586V11.8121C20.5157 15.2734 18.7024 18.4818 15.737 20.2671L13.5876 21.5611C12.6157 22.1463 11.4 22.1463 10.4281 21.5611L8.27871 20.2671C5.31334 18.4818 3.5 15.2734 3.5 11.8121V6.57586C3.5 5.20011 4.4173 3.99317 5.74282 3.62484L11.1879 2.11181Z" fill="#7C8CA1"/>
</svg>
