<svg width="28" height="38" viewBox="0 0 28 38" fill="none" xmlns="http://www.w3.org/2000/svg">
<path fill-rule="evenodd" clip-rule="evenodd" d="M27.3307 0.667969V14.0013H27.3308L27.3308 15.668L27.3307 17.3346L27.3307 20.6584C27.3453 23.1954 25.9298 23.9985 21.983 25.1812C19.6697 25.8744 18.9974 26.2551 18.9974 26.5013C18.9974 27.7806 19.1145 28.6397 19.3643 29.6387C19.316 29.4455 19.6007 30.5463 19.6635 30.8396C19.7741 31.3554 19.8307 31.8249 19.8307 32.3346C19.8307 35.1027 17.2269 37.3346 13.9974 37.3346C10.7679 37.3346 8.16406 35.1027 8.16406 32.3346C8.16406 31.8249 8.22073 31.3554 8.33127 30.8396C8.39412 30.5463 8.67879 29.4455 8.63049 29.6387C8.88025 28.6397 8.9974 27.7806 8.9974 26.5013C8.9974 26.2535 8.32692 25.8735 6.01848 25.181C2.07692 23.9985 0.664062 23.1979 0.664062 20.668V17.3346V14.0013V0.667969H27.3307ZM15.5415 17.3346H23.9974L23.9974 20.668C23.9988 20.9187 23.3315 21.2973 21.0262 21.9881L21.019 21.9903C17.0796 23.1707 15.6641 23.9725 15.6641 26.5013C15.6641 28.0692 15.8178 29.1962 16.1305 30.4472C16.1007 30.3279 16.3585 31.325 16.4042 31.538C16.4684 31.8377 16.4974 32.078 16.4974 32.3346C16.4974 33.138 15.4902 34.0013 13.9974 34.0013C12.5046 34.0013 11.4974 33.138 11.4974 32.3346C11.4974 32.078 11.5264 31.8377 11.5906 31.538C11.6363 31.325 11.8941 30.3279 11.8643 30.4472C12.177 29.1962 12.3307 28.0692 12.3307 26.5013C12.3307 23.9713 10.9179 23.1707 6.97631 21.9883C4.66788 21.2957 3.9974 20.9158 3.9974 20.668V17.3346H15.5415ZM3.9974 14.0013V4.0013H7.33073V10.668H10.6641V4.0013H13.9974V9.0013H17.3307V4.0013H23.9974V14.0013H3.9974Z" fill="#7C8CA1"/>
</svg>
