<svg width="40" height="26" viewBox="0 0 40 26" fill="none" xmlns="http://www.w3.org/2000/svg">
<path fill-rule="evenodd" clip-rule="evenodd" d="M23.7543 18.9345L22.7704 17.7231H17.2296L16.2457 18.9345C14.8766 20.6201 12.9607 21.6615 10.8333 21.6615C6.6912 21.6615 3.33333 17.6941 3.33333 12.8C3.33333 8.13708 6.38366 4.31219 10.2528 3.96442L10.5417 3.93846H29.4583L29.7472 3.96442C33.6163 4.31219 36.6667 8.13708 36.6667 12.8C36.6667 17.6941 33.3088 21.6615 29.1667 21.6615C27.0393 21.6615 25.1234 20.6201 23.7543 18.9345ZM0 12.8C0 6.06205 4.40629 0.540076 10 0.0373067V0H30V0.0373067C35.5937 0.540076 40 6.06205 40 12.8C40 19.8692 35.1497 25.6 29.1667 25.6C26.0944 25.6 23.3208 24.0889 21.3493 21.6615H18.6507C16.6792 24.0889 13.9056 25.6 10.8333 25.6C4.85025 25.6 0 19.8692 0 12.8ZM27.7028 10.6411C27.0668 11.3926 26.0357 11.3926 25.3996 10.6411C24.7636 9.88966 24.7636 8.67128 25.3996 7.91981C26.0357 7.16834 27.0668 7.16834 27.7028 7.91981C28.3389 8.67128 28.3389 9.88966 27.7028 10.6411ZM29.8285 15.8748C29.1925 15.1233 29.1925 13.9049 29.8285 13.1535C30.4645 12.402 31.4957 12.402 32.1317 13.1535C32.7677 13.9049 32.7677 15.1233 32.1317 15.8748C31.4957 16.6263 30.4645 16.6263 29.8285 15.8748ZM10.8333 7.38462C11.5237 7.38462 12.0833 8.04586 12.0833 8.86154V11.3231H14.1667C14.857 11.3231 15.4167 11.9843 15.4167 12.8C15.4167 13.6157 14.857 14.2769 14.1667 14.2769H12.0833V16.7385C12.0833 17.5541 11.5237 18.2154 10.8333 18.2154C10.143 18.2154 9.58333 17.5541 9.58333 16.7385V14.2769H7.5C6.80964 14.2769 6.25 13.6157 6.25 12.8C6.25 11.9843 6.80964 11.3231 7.5 11.3231H9.58333V8.86154C9.58333 8.04586 10.143 7.38462 10.8333 7.38462Z" fill="#7C8CA1"/>
</svg>
