<svg width="34" height="35" viewBox="0 0 34 35" fill="none" xmlns="http://www.w3.org/2000/svg">
<path fill-rule="evenodd" clip-rule="evenodd" d="M7.0026 34.6681C9.17964 34.6681 11.0317 33.2768 11.7181 31.3348H26.1693C30.3114 31.3348 33.6693 27.9769 33.6693 23.8348C33.6693 19.6926 30.3114 16.3348 26.1693 16.3348H7.83594C5.53475 16.3348 3.66927 14.4693 3.66927 12.1681C3.66927 9.86691 5.53475 8.00143 7.83594 8.00143H12.9789L10.8241 10.1562L13.1811 12.5133L19.3596 6.33476L13.1811 0.15625L10.8241 2.51327L12.9789 4.66809H7.83594C3.6938 4.66809 0.335938 8.02596 0.335938 12.1681C0.335938 16.3102 3.6938 19.6681 7.83594 19.6681H26.1693C28.4705 19.6681 30.3359 21.5336 30.3359 23.8348C30.3359 26.1359 28.4705 28.0014 26.1693 28.0014H11.7181C11.0317 26.0594 9.17964 24.6681 7.0026 24.6681C4.24118 24.6681 2.0026 26.9067 2.0026 29.6681C2.0026 32.4295 4.24118 34.6681 7.0026 34.6681ZM5.33594 29.6681C5.33594 28.7476 6.08213 28.0014 7.0026 28.0014C7.92308 28.0014 8.66927 28.7476 8.66927 29.6681C8.66927 30.5886 7.92308 31.3348 7.0026 31.3348C6.08213 31.3348 5.33594 30.5886 5.33594 29.6681ZM27.0026 1.33476C29.764 1.33476 32.0026 3.57334 32.0026 6.33476C32.0026 9.09618 29.764 11.3348 27.0026 11.3348C24.2412 11.3348 22.0026 9.09618 22.0026 6.33476C22.0026 3.57334 24.2412 1.33476 27.0026 1.33476ZM25.3359 6.33476C25.3359 5.41429 26.0821 4.66809 27.0026 4.66809C27.9231 4.66809 28.6693 5.41429 28.6693 6.33476C28.6693 7.25524 27.9231 8.00143 27.0026 8.00143C26.0821 8.00143 25.3359 7.25524 25.3359 6.33476Z" fill="#7C8CA1"/>
</svg>
