<svg width="32" height="32" viewBox="0 0 32 32" fill="none" xmlns="http://www.w3.org/2000/svg">
<path fill-rule="evenodd" clip-rule="evenodd" d="M16 0C24.8366 0 32 7.16344 32 16C32 24.8366 24.8366 32 16 32C7.16344 32 0 24.8366 0 16C0 7.16344 7.16344 0 16 0ZM18.5703 9.86147C19.8573 10.055 21.0883 10.393 22.2361 10.8518C22.2461 10.8555 22.2546 10.8617 22.2596 10.8704C24.2934 13.4759 25.2979 16.415 24.9223 19.7986C24.9209 19.8129 24.9124 19.826 24.8989 19.8347C23.3585 20.82 21.8663 21.4181 20.3947 21.8146C20.3713 21.8208 20.3457 21.8134 20.3315 21.7959C19.9915 21.3839 19.6827 20.9494 19.4122 20.4932C19.3966 20.4664 19.4108 20.4341 19.4428 20.4235C19.9333 20.2623 20.3997 20.0693 20.8483 19.8409C20.8838 19.8228 20.8859 19.7786 20.8533 19.7575C20.7582 19.6959 20.6638 19.6311 20.5736 19.5664C20.5566 19.5546 20.5338 19.5521 20.5147 19.5602C17.602 20.7322 14.4111 20.7322 11.4637 19.5602C11.4445 19.5527 11.4218 19.5552 11.4055 19.567C11.3153 19.6317 11.2209 19.6959 11.1265 19.7575C11.0938 19.7786 11.0967 19.8228 11.1322 19.8409C11.5808 20.065 12.0472 20.2623 12.537 20.4241C12.569 20.4347 12.5839 20.4664 12.5682 20.4932C12.3035 20.9501 11.9947 21.3845 11.6483 21.7966C11.6333 21.8134 11.6085 21.8208 11.5851 21.8146C10.1206 21.4181 8.62841 20.82 7.08796 19.8347C7.07519 19.826 7.06596 19.8123 7.06454 19.7979C6.75077 16.8713 7.39037 13.9079 9.72519 10.8698C9.73084 10.8617 9.73937 10.8555 9.74931 10.8518C10.8979 10.3924 12.1288 10.0544 13.4151 9.86147C13.4386 9.85836 13.462 9.86769 13.4741 9.88574C13.6331 10.131 13.8148 10.4453 13.9376 10.7024C15.2935 10.5219 16.6707 10.5219 18.0549 10.7024C18.1777 10.4509 18.3531 10.131 18.5114 9.88574C18.5235 9.86707 18.5469 9.85773 18.5703 9.86147ZM11.3898 16.435C11.3898 17.3064 12.121 18.0159 13.0084 18.0159C13.9099 18.0159 14.6269 17.3064 14.6269 16.435C14.6411 15.5698 13.917 14.854 13.0084 14.854C12.1068 14.854 11.3898 15.5635 11.3898 16.435ZM17.3742 16.435C17.3742 17.3064 18.1053 18.0159 18.9927 18.0159C19.9013 18.0159 20.6112 17.3064 20.6112 16.435C20.6254 15.5698 19.9013 14.854 18.9927 14.854C18.0911 14.854 17.3742 15.5635 17.3742 16.435Z" fill="#A2A5B5"/>
</svg>
