<svg width="32" height="32" viewBox="0 0 32 32" fill="none" xmlns="http://www.w3.org/2000/svg">
<path fill-rule="evenodd" clip-rule="evenodd" d="M16 0C24.8366 0 32 7.16344 32 16C32 24.8366 24.8366 32 16 32C7.16344 32 0 24.8366 0 16C0 7.16344 7.16344 0 16 0ZM20.688 24H23.9991L24 18.1345C24 15.2558 23.3795 13.0444 20.0247 13.0444C18.4102 13.0444 17.3295 13.9308 16.8851 14.7706H16.8422V13.314H13.6616V24H16.9726V18.7121C16.9726 17.318 17.2363 15.9697 18.9626 15.9697C20.6629 15.9697 20.688 17.5644 20.688 18.8035V24ZM9.18589 11.7054C9.41925 11.8022 9.66939 11.852 9.92198 11.8519C10.3023 11.8521 10.6741 11.7393 10.9904 11.5278C11.3068 11.3163 11.5534 11.0157 11.6991 10.6638C11.8448 10.312 11.8831 9.92475 11.809 9.55112C11.735 9.17749 11.5521 8.83423 11.2833 8.56475C11.0145 8.29528 10.6719 8.11168 10.299 8.03719C9.92599 7.9627 9.53934 8.00065 9.1879 8.14625C8.83647 8.29185 8.53603 8.53855 8.32459 8.85517C8.11314 9.17178 8.00019 9.54409 8 9.925C7.99963 10.178 8.04908 10.4286 8.14552 10.6624C8.24195 10.8962 8.38348 11.1087 8.562 11.2877C8.74052 11.4666 8.95253 11.6086 9.18589 11.7054ZM8.26179 24H11.5822V13.314H8.26179V24Z" fill="#A2A5B5"/>
</svg>
