<svg width="32" height="32" viewBox="0 0 32 32" fill="none" xmlns="http://www.w3.org/2000/svg">
<path fill-rule="evenodd" clip-rule="evenodd" d="M16 0C24.8366 0 32 7.16344 32 16C32 24.8366 24.8366 32 16 32C7.16344 32 0 24.8366 0 16C0 7.16344 7.16344 0 16 0ZM17.7143 16C17.7143 19.3137 15.028 22 11.7143 22C8.40059 22 5.71429 19.3137 5.71429 16C5.71429 12.6863 8.40059 10 11.7143 10C15.028 10 17.7143 12.6863 17.7143 16ZM20.7143 22C21.8978 22 22.8572 19.3137 22.8572 16C22.8572 12.6863 21.8978 10 20.7143 10C19.5308 10 18.5714 12.6863 18.5714 16C18.5714 19.3137 19.5308 22 20.7143 22ZM25.9999 16C25.9999 18.7614 25.5522 21 24.9999 21C24.4476 21 23.9999 18.7614 23.9999 16C23.9999 13.2386 24.4476 11 24.9999 11C25.5522 11 25.9999 13.2386 25.9999 16Z" fill="#A2A5B5"/>
</svg>
