<svg width="32" height="32" viewBox="0 0 32 32" fill="none" xmlns="http://www.w3.org/2000/svg">
<path fill-rule="evenodd" clip-rule="evenodd" d="M16 0C24.8366 0 32 7.16344 32 16C32 24.8366 24.8366 32 16 32C7.16344 32 0 24.8366 0 16C0 7.16344 7.16344 0 16 0ZM22.1153 12.108C22.7669 12.0291 23.4026 11.8505 24 11.5787C23.5613 12.254 23.0047 12.846 22.3633 13.3207C22.3687 13.464 22.372 13.61 22.372 13.7567C22.372 18.2053 19.0707 23.3333 13.032 23.3333C11.2429 23.3329 9.49327 22.8074 8 21.822C8.86225 21.927 9.7368 21.8575 10.5717 21.6178C11.4066 21.3781 12.1848 20.973 12.86 20.4267C11.4233 20.4007 10.2113 19.4273 9.794 18.09C9.994 18.13 10.2007 18.15 10.412 18.15C10.7041 18.151 10.9949 18.111 11.276 18.0313C9.774 17.7233 8.64267 16.3627 8.64267 14.7313V14.69C9.09684 14.9485 9.60705 15.0926 10.1293 15.11C9.24933 14.506 8.66933 13.4753 8.66933 12.308C8.66823 11.7146 8.82122 11.1311 9.11333 10.6147C10.7333 12.6527 13.152 13.992 15.88 14.1327C15.824 13.886 15.796 13.63 15.796 13.366C15.796 11.5067 17.2653 10 19.0773 10C19.5286 10.0003 19.9747 10.0949 20.3872 10.2778C20.7997 10.4607 21.1695 10.7278 21.4727 11.062C22.2101 10.9136 22.9161 10.6377 23.5587 10.2467C23.318 11.021 22.8054 11.6821 22.1153 12.108Z" fill="#A2A5B5"/>
</svg>
