<svg width="122" height="16" viewBox="0 0 122 16" fill="none" xmlns="http://www.w3.org/2000/svg">
<path d="M121.707 8.70711C122.098 8.31658 122.098 7.68342 121.707 7.29289L115.343 0.928932C114.953 0.538408 114.319 0.538408 113.929 0.928932C113.538 1.31946 113.538 1.95262 113.929 2.34315L119.586 8L113.929 13.6569C113.538 14.0474 113.538 14.6805 113.929 15.0711C114.319 15.4616 114.953 15.4616 115.343 15.0711L121.707 8.70711ZM0 9H2.01667V7H0V9ZM6.05 9H10.0833V7H6.05V9ZM14.1167 9H18.15V7H14.1167V9ZM22.1833 9H26.2167V7H22.1833V9ZM30.25 9H34.2833V7H30.25V9ZM38.3167 9H42.35V7H38.3167V9ZM46.3833 9H50.4167V7H46.3833V9ZM54.45 9H58.4833V7H54.45V9ZM62.5167 9H66.55V7H62.5167V9ZM70.5833 9H74.6167V7H70.5833V9ZM78.65 9H82.6833V7H78.65V9ZM86.7167 9H90.75V7H86.7167V9ZM94.7833 9H98.8167V7H94.7833V9ZM102.85 9H106.883V7H102.85V9ZM110.917 9H114.95V7H110.917V9ZM118.983 9H121V7H118.983V9Z" fill="#808080"/>
</svg>
