<svg width="132" height="31" viewBox="0 0 132 31" fill="none" xmlns="http://www.w3.org/2000/svg">
<path fill-rule="evenodd" clip-rule="evenodd" d="M57.8734 22.0855C58.5827 20.0874 58.9309 17.9796 58.9019 15.8602C58.9299 13.7477 58.5816 11.6471 57.8734 9.65593C57.2414 7.883 56.2563 6.25586 54.9773 4.8724C53.7216 3.541 52.1934 2.4945 50.4963 1.80388C48.6657 1.06888 46.7071 0.703129 44.7338 0.7278C42.7633 0.702252 40.8078 1.0725 38.9838 1.81649C37.2934 2.51284 35.7693 3.55702 34.5112 4.88081C33.2315 6.26046 32.2462 7.88503 31.6152 9.65593C30.907 11.6471 30.5587 13.7477 30.5866 15.8602C30.5576 17.9796 30.9059 20.0874 31.6152 22.0855C32.2462 23.8564 33.2315 25.481 34.5112 26.8606C35.7675 28.1845 37.2922 29.2263 38.9838 29.9166C42.6865 31.3512 46.7937 31.3512 50.4963 29.9166C52.191 29.2274 53.7187 28.1856 54.9773 26.8606C56.2571 25.481 57.2424 23.8564 57.8734 22.0855ZM55.8198 10.2911C56.4108 12.0876 56.6957 13.9702 56.6629 15.8606C56.6977 17.754 56.4127 19.6396 55.8198 21.4386C55.3012 22.9818 54.4705 24.4024 53.3791 25.6126C52.3283 26.7593 51.0314 27.6544 49.5852 28.2314C46.4642 29.4256 43.0105 29.4256 39.8896 28.2314C38.4453 27.6509 37.1491 26.7562 36.0957 25.6126C34.9991 24.4033 34.1627 22.9828 33.638 21.4386C33.0345 19.6416 32.7408 17.7555 32.7697 15.8606C32.7465 13.9754 33.0415 12.0997 33.6423 10.3121C34.1633 8.75751 34.9999 7.32662 36.0999 6.10864C37.1552 4.96521 38.4507 4.06815 39.8938 3.48148C43.0116 2.27075 46.4716 2.27075 49.5894 3.48148C51.0344 4.06456 52.3306 4.96213 53.3833 6.10864C54.4742 7.32168 55.3035 8.74525 55.8198 10.2911Z" fill="#0364FF"/>
<path fill-rule="evenodd" clip-rule="evenodd" d="M80.8722 30.9918C81.613 30.9918 82.0302 30.1402 81.5761 29.5549L72.5309 17.8937C72.2843 17.5592 71.9795 17.2742 71.6319 17.053C72.836 16.9212 74.0153 16.6126 75.1334 16.1366C76.1136 15.7156 77.0118 15.1176 77.7853 14.3711C78.5095 13.6586 79.0812 12.7997 79.4642 11.849C79.8643 10.8447 80.0639 9.76843 80.0512 8.68379C80.043 6.07482 79.1919 4.09637 77.4979 2.74845C75.8039 1.40052 73.2588 0.726562 69.8626 0.726562H64.0574C63.0875 0.726562 62.3013 1.5128 62.3013 2.48266V29.9163C62.3013 30.5103 62.7828 30.9918 63.3768 30.9918C63.9708 30.9918 64.4523 30.5103 64.4523 29.9163V19.0613C64.4523 18.0914 65.2385 17.3052 66.2084 17.3052H68.3274C68.5758 17.3029 68.8241 17.3183 69.0704 17.3514C69.25 17.3705 69.4258 17.4172 69.5917 17.4901C69.7432 17.5519 69.8824 17.6417 70.0022 17.755C70.129 17.8844 70.2444 18.0251 70.347 18.1753L79.8295 30.4537C79.9403 30.6315 80.0945 30.7764 80.277 30.8741C80.4642 30.9586 80.6677 30.9988 80.8722 30.9918ZM73.0732 15.1944C71.9302 15.5323 70.7447 15.6952 69.5552 15.6778H66.2088C65.239 15.6778 64.4527 14.8915 64.4527 13.9217V4.21384C64.4527 3.24397 65.239 2.45774 66.2088 2.45774H69.8672C72.4917 2.46054 74.488 2.98177 75.8564 4.02144C77.2247 5.06111 77.9089 6.65704 77.9089 8.80923C77.9236 9.78821 77.7318 10.7589 77.3465 11.655C76.9704 12.496 76.4082 13.2357 75.7045 13.8156C74.9251 14.449 74.0308 14.9176 73.0732 15.1944Z" fill="#0364FF"/>
<path d="M97.4163 29.0646C98.7434 29.0888 100.061 28.8341 101.283 28.317C102.383 27.8398 103.366 27.1306 104.166 26.2379C104.972 25.3232 105.587 24.2564 105.974 23.1004C106.394 21.846 106.602 20.5299 106.587 19.207V1.80462C106.587 1.20922 107.07 0.726562 107.665 0.726562C108.261 0.726562 108.743 1.20922 108.743 1.80462V19.207C108.757 20.781 108.492 22.3451 107.962 23.8271C107.467 25.2105 106.701 26.4813 105.709 27.5651C104.711 28.6483 103.495 29.5073 102.14 30.0852C99.1074 31.295 95.7253 31.295 92.6922 30.0852C91.3369 29.5085 90.1204 28.6493 89.1239 27.5651C88.1301 26.4824 87.364 25.2113 86.8711 23.8271C86.3403 22.3451 86.0757 20.781 86.0894 19.207V1.80882C86.0894 1.21111 86.5739 0.726562 87.1716 0.726562C87.7694 0.726562 88.2539 1.21111 88.2539 1.80882V19.1818C88.2417 20.5066 88.452 21.8241 88.8759 23.0794C89.2629 24.2334 89.8743 25.2997 90.6748 26.2169C91.4676 27.117 92.4472 27.8337 93.5454 28.317C94.7678 28.8386 96.0875 29.0935 97.4163 29.0646Z" fill="#0364FF"/>
<path d="M130.073 4.65758C129.981 4.87462 129.769 5.01525 129.534 5.01482C129.264 4.96969 129.017 4.83326 128.835 4.62816C128.472 4.31908 128.086 4.03808 127.681 3.78758C127.108 3.42935 126.496 3.13883 125.857 2.92179C124.059 2.36446 122.133 2.37914 120.344 2.96382C119.585 3.23945 118.89 3.66858 118.303 4.22468C117.76 4.74246 117.332 5.36983 117.048 6.06554C116.767 6.7622 116.624 7.50765 116.63 8.25944C116.594 9.13296 116.814 9.99785 117.261 10.7475C117.697 11.4185 118.267 11.991 118.934 12.4287C119.673 12.909 120.466 13.2985 121.298 13.5887C122.176 13.8997 123.084 14.2107 124.012 14.5175C124.941 14.8243 125.849 15.1647 126.727 15.5304C127.575 15.8818 128.371 16.35 129.09 16.9215C129.785 17.4836 130.354 18.185 130.763 18.9809C131.214 19.9297 131.431 20.9733 131.395 22.0238C131.406 23.2196 131.195 24.407 130.772 25.5248C130.363 26.5953 129.734 27.5675 128.927 28.3786C128.083 29.212 127.078 29.8628 125.974 30.2909C124.697 30.7766 123.34 31.0134 121.975 30.9885C120.245 31.0349 118.528 30.6811 116.956 29.9546C115.879 29.4228 114.891 28.7302 114.024 27.9022C113.559 27.4575 113.511 26.745 113.856 26.2015C113.989 26.0095 114.205 25.8925 114.438 25.8863C114.622 25.9143 114.791 26.003 114.919 26.1384L115.626 26.7521C115.902 27 116.236 27.2648 116.625 27.5506C117.049 27.8589 117.501 28.1249 117.976 28.3449C119.242 28.932 120.623 29.2278 122.017 29.2107C123.083 29.2291 124.142 29.0481 125.142 28.677C126.004 28.3493 126.791 27.8488 127.455 27.206C128.086 26.59 128.579 25.8446 128.898 25.0205C129.236 24.1589 129.407 23.24 129.4 22.3138C129.435 21.4092 129.215 20.5129 128.764 19.7291C128.334 19.0535 127.763 18.4799 127.091 18.0479C126.353 17.5746 125.561 17.1922 124.732 16.9089C123.849 16.6021 122.946 16.3037 122.013 16.0095C121.08 15.7153 120.181 15.3917 119.298 15.0261C118.447 14.6827 117.651 14.2154 116.935 13.6391C116.234 13.0665 115.664 12.35 115.262 11.5377C114.805 10.5461 114.588 9.46052 114.626 8.36871C114.626 7.38574 114.816 6.41214 115.186 5.50235C115.562 4.58601 116.121 3.75752 116.83 3.06889C117.604 2.3366 118.513 1.76525 119.507 1.38775C120.666 0.936896 121.9 0.712921 123.142 0.727897C124.547 0.705979 125.942 0.954206 127.254 1.4592C128.168 1.83288 129.018 2.34206 129.777 2.96808C130.275 3.37815 130.37 4.08549 130.073 4.65758Z" fill="#0364FF"/>
<path fill-rule="evenodd" clip-rule="evenodd" d="M2.86325 0.726562C1.28192 0.726562 0 1.99515 0 3.56003V6.8608C0 8.42568 1.28192 9.69427 2.86325 9.69427H7.92912V28.1591C7.92912 29.724 9.21104 30.9926 10.7924 30.9926H14.1278C15.7092 30.9926 16.9911 29.724 16.9911 28.1591V6.88479C16.9912 6.8768 16.9912 6.86881 16.9912 6.8608V3.56003C16.9912 1.99515 15.7093 0.726562 14.1279 0.726562H10.7924H2.86325Z" fill="#0364FF"/>
<path d="M23.7878 9.69427C26.2902 9.69427 28.3188 7.68678 28.3188 5.21041C28.3188 2.73405 26.2902 0.726562 23.7878 0.726562C21.2854 0.726562 19.2568 2.73405 19.2568 5.21041C19.2568 7.68678 21.2854 9.69427 23.7878 9.69427Z" fill="#0364FF"/>
</svg>
