<svg width="209" height="38" viewBox="0 0 209 38" fill="none" xmlns="http://www.w3.org/2000/svg">
<path fill-rule="evenodd" clip-rule="evenodd" d="M105.487 32.2271C104.112 32.2271 102.852 31.9407 101.706 31.368C101.06 31.0375 100.498 30.6448 100.021 30.1899C99.7197 29.9024 99.1092 30.0975 99.1092 30.5092V31.1238C99.1092 31.4031 98.8777 31.6295 98.5923 31.6295H96.1128C95.8273 31.6295 95.5958 31.4031 95.5958 31.1238V5.38861C95.5958 5.10936 95.8273 4.88298 96.1128 4.88298H98.5806C98.8661 4.88298 99.0975 5.10936 99.0975 5.38861V14.4464C99.0975 14.8582 99.7096 15.0544 100.012 14.7678C100.492 14.3121 101.059 13.9187 101.706 13.5877C102.852 13.0149 104.112 12.7286 105.487 12.7286C107.956 12.7286 110.044 13.6748 111.75 15.5674C113.506 17.4849 114.385 19.7884 114.385 22.4778C114.385 25.1922 113.506 27.4957 111.75 29.3882C110.044 31.2808 107.956 32.2271 105.487 32.2271ZM104.914 29.0894C106.594 29.0894 108.007 28.4669 109.153 27.2217C110.298 26.0015 110.871 24.4202 110.871 22.4778C110.871 20.5604 110.298 18.979 109.153 17.7339C108.007 16.4888 106.594 15.8663 104.914 15.8663C103.208 15.8663 101.782 16.4888 100.637 17.7339C99.5165 18.979 98.9564 20.5604 98.9564 22.4778C98.9564 24.4202 99.5165 26.014 100.637 27.2591C101.782 28.4793 103.208 29.0894 104.914 29.0894ZM83.5232 32.2271C80.7736 32.2271 78.5077 31.3057 76.7256 29.4629C74.9435 27.6202 74.0524 25.2918 74.0524 22.4778C74.0524 19.6888 74.918 17.3728 76.6492 15.5301C78.3804 13.6624 80.5954 12.7285 83.294 12.7285C86.0691 12.7285 88.2713 13.6126 89.9007 15.3806C91.6566 17.2303 92.4961 20.0122 92.3861 22.5425C92.372 22.8669 92.0919 23.1128 91.76 23.1128H78.2733C77.9276 23.1128 77.6473 23.3926 77.6831 23.7289C77.844 25.2396 78.4413 26.4786 79.4752 27.4458C80.6463 28.5416 82.0465 29.0894 83.6759 29.0894C85.7547 29.0894 87.417 28.1461 88.6629 26.2595C88.8295 26.0073 89.1609 25.9048 89.4368 26.0365L91.536 27.0381C91.8319 27.1793 91.9505 27.5334 91.7791 27.8084C90.9676 29.1098 89.8959 30.1469 88.5641 30.9197C87.0874 31.7913 85.4071 32.2271 83.5232 32.2271ZM78.1127 19.5527C77.9885 19.9171 78.282 20.274 78.6747 20.274H87.9766C88.3345 20.274 88.6206 19.9741 88.5479 19.6312C88.3394 18.6467 87.8356 17.815 87.0365 17.1363C86.0945 16.2896 84.8216 15.8662 83.2177 15.8662C81.8938 15.8662 80.7481 16.2647 79.7807 17.0616C79.0137 17.7103 78.4578 18.5407 78.1127 19.5527ZM72.9753 14.0283C73.0897 13.6814 72.8252 13.3262 72.4526 13.3262H70.0278C69.7843 13.3262 69.5698 13.4831 69.501 13.7116L65.9246 25.5861C65.7812 26.0624 65.0952 26.0723 64.9374 25.6004L60.9574 13.6965C60.8836 13.4756 60.673 13.3262 60.4354 13.3262H57.603C57.3659 13.3262 57.1556 13.475 57.0813 13.6952L53.0654 25.6083C52.9067 26.0792 52.2219 26.0685 52.0786 25.5928L48.5002 13.7116C48.4314 13.4831 48.2169 13.3262 47.9734 13.3262H45.4723C45.0996 13.3262 44.8352 13.6814 44.9495 14.0283L50.6291 31.2571C50.7023 31.479 50.9134 31.6294 51.1518 31.6294H53.9032C54.1417 31.6294 54.3529 31.4789 54.426 31.2568L58.4342 19.074C58.5878 18.607 59.2631 18.6062 59.418 19.0729L63.46 31.258C63.5335 31.4795 63.7444 31.6294 63.9825 31.6294H66.773C67.0114 31.6294 67.2226 31.479 67.2957 31.2571L72.9753 14.0283ZM181.828 30.5462C182.847 31.4676 184.12 31.9283 185.647 31.9283C186.658 31.9283 187.564 31.8175 188.366 31.596C188.64 31.5205 188.778 31.2312 188.684 30.9691L187.934 28.8953C187.833 28.6173 187.512 28.483 187.224 28.572C187.146 28.5961 187.066 28.6192 186.984 28.6412C186.729 28.691 186.462 28.7159 186.182 28.7159C185.571 28.7159 185.023 28.5042 184.54 28.0809C184.056 27.6326 183.814 26.7984 183.814 25.5782V16.9695C183.814 16.6903 184.045 16.4639 184.331 16.4639H187.88C188.165 16.4639 188.397 16.2375 188.397 15.9583V13.8318C188.397 13.5526 188.165 13.3262 187.88 13.3262H184.331C184.045 13.3262 183.814 13.0998 183.814 12.8206V5.38861C183.814 5.10936 183.583 4.88298 183.297 4.88298H180.818C180.532 4.88298 180.301 5.10936 180.301 5.38861V12.8206C180.301 13.0998 180.069 13.3262 179.784 13.3262H177.533C177.248 13.3262 177.016 13.5526 177.016 13.8318V15.9583C177.016 16.2375 177.248 16.4639 177.533 16.4639H179.784C180.069 16.4639 180.301 16.6903 180.301 16.9695V26.6988C180.326 28.3423 180.835 29.6248 181.828 30.5462ZM131.653 29.9859C133.358 28.4918 134.211 26.6241 134.211 24.3829C134.211 23.0132 133.817 21.7806 133.027 20.6849C132.664 20.1639 132.142 19.5017 130.612 18.6624C130.289 18.4851 130.28 18.0128 130.586 17.8078C132.417 16.5803 133.333 14.7216 133.333 12.5418C133.333 10.4749 132.556 8.79398 131.003 7.49906C129.425 6.15433 127.477 5.48196 125.16 5.48196C123.302 5.48196 121.685 5.96756 120.311 6.93875C119.086 7.80415 118.174 8.90681 117.575 10.2467C117.451 10.5244 117.594 10.8416 117.879 10.9597L120.05 11.859C120.357 11.9864 120.709 11.8333 120.847 11.5359C121.702 9.69136 123.14 8.76908 125.16 8.76908C126.535 8.76908 127.643 9.11771 128.483 9.81498C129.323 10.5122 129.743 11.4212 129.743 12.5418C129.743 13.762 129.298 14.7581 128.407 15.5301C127.515 16.2771 126.37 16.6507 124.97 16.6507H123.565C123.244 16.6507 122.984 16.9054 122.984 17.2195V19.2942C122.984 19.6084 123.244 19.8631 123.565 19.8631H125.237C126.714 19.8631 127.974 20.2989 129.018 21.1705C130.087 22.042 130.621 23.1128 130.621 24.3829C130.621 25.6529 130.112 26.7361 129.094 27.6326C128.05 28.5042 126.815 28.94 125.39 28.94C124.091 28.94 122.971 28.5665 122.029 27.8194C121.249 27.1623 120.653 26.2706 120.242 25.1444C120.125 24.8229 119.759 24.648 119.437 24.7793L117.313 25.645C117.041 25.756 116.895 26.0496 116.99 26.3227C117.584 28.0202 118.614 29.4155 120.081 30.5088C121.66 31.6544 123.429 32.2271 125.39 32.2271C127.885 32.2271 129.972 31.48 131.653 29.9859ZM140.445 26.0264C140.445 25.0303 140.917 24.1961 141.858 23.5237C142.826 22.8514 144.023 22.5152 145.448 22.5152C147.277 22.5152 148.73 22.8837 149.805 23.6208C149.951 23.7206 150.033 23.8868 150.024 24.0605C149.953 25.3899 149.37 26.5557 148.274 27.5579C147.129 28.6287 145.817 29.1641 144.341 29.1641C143.297 29.1641 142.38 28.8653 141.591 28.2676C140.827 27.67 140.445 26.9229 140.445 26.0264ZM151.138 14.783C149.636 13.4134 147.587 12.7286 144.99 12.7286C141.859 12.7286 139.446 13.7819 137.751 15.8885C137.569 16.1154 137.638 16.4432 137.887 16.597L140.103 17.9616C140.337 18.1058 140.644 18.0424 140.817 17.831C141.93 16.4714 143.384 15.7915 145.181 15.7915C146.479 15.7915 147.612 16.2149 148.58 17.0616C149.553 17.8886 149.898 18.8825 149.997 20.0052C150.031 20.3911 149.6 20.6407 149.235 20.4915C148.025 19.9978 146.572 19.751 144.875 19.751C142.431 19.751 140.471 20.3113 138.994 21.4319C137.543 22.5525 136.818 24.0591 136.818 25.9517C136.818 27.7447 137.505 29.2388 138.88 30.4341C140.28 31.6295 142.011 32.2271 144.073 32.2271C146.492 32.2271 148.427 31.1812 149.878 29.0894V31.1238C149.878 31.4031 150.11 31.6295 150.395 31.6295H152.875C153.16 31.6295 153.391 31.4031 153.391 31.1238V20.3487C153.391 17.983 152.64 16.1277 151.138 14.783ZM173.775 31.0922C173.775 31.3889 173.529 31.6295 173.226 31.6295H170.811C170.508 31.6295 170.262 31.3889 170.262 31.0922V30.4921C170.262 30.105 169.663 29.9194 169.381 30.191C168.938 30.6174 168.404 30.9972 167.78 31.3306C166.685 31.9283 165.539 32.2271 164.343 32.2271C162.051 32.2271 160.282 31.5921 159.034 30.3221C157.812 29.0272 157.201 27.1968 157.201 24.8311V13.8634C157.201 13.5667 157.447 13.3262 157.751 13.3262H160.165C160.469 13.3262 160.715 13.5667 160.715 13.8634V24.607C160.791 27.5953 162.331 29.0894 165.336 29.0894C166.736 29.0894 167.907 28.5416 168.849 27.4459C169.791 26.3252 170.262 24.993 170.262 23.449V13.8634C170.262 13.5667 170.508 13.3262 170.811 13.3262H173.226C173.529 13.3262 173.775 13.5667 173.775 13.8634V31.0922ZM191.925 5.38861C191.925 5.10936 192.157 4.88298 192.442 4.88298H194.922C195.207 4.88298 195.439 5.10936 195.439 5.38861V14.4635C195.439 14.8506 196.035 15.0347 196.316 14.7613C196.751 14.3363 197.274 13.9576 197.883 13.625C199.003 13.0274 200.161 12.7286 201.358 12.7286C203.649 12.7286 205.406 13.376 206.628 14.6709C207.875 15.941 208.499 17.7588 208.499 20.1246V31.1238C208.499 31.4031 208.268 31.6295 207.982 31.6295H205.503C205.217 31.6295 204.986 31.4031 204.986 31.1238V20.7969C204.986 17.5098 203.496 15.8663 200.518 15.8663C199.092 15.8663 197.883 16.4515 196.89 17.6219C195.922 18.7674 195.439 20.1121 195.439 21.6561V31.1238C195.439 31.4031 195.207 31.6295 194.922 31.6295H192.442C192.157 31.6295 191.925 31.4031 191.925 31.1238V5.38861Z" fill="#0F1222"/>
<path d="M31.1407 28.7281C31.3452 29.4871 32.4282 29.4871 32.6327 28.7281L38.5198 6.87709C38.7909 5.87099 38.0286 4.88298 36.9813 4.88298H33.3515C32.6306 4.88298 31.9996 5.36455 31.813 6.0571L28.4931 18.3792C28.447 18.5502 28.447 18.7301 28.4931 18.901L31.1407 28.7281Z" fill="#0364FF"/>
<path d="M10.5661 18.3633C10.6122 18.5342 10.6122 18.7141 10.5661 18.8851L7.91848 28.7121C7.71399 29.4712 6.63105 29.4712 6.42655 28.7121L0.543677 6.87709C0.272608 5.87099 1.0349 4.88298 2.08223 4.88298H5.712C6.43292 4.88298 7.06397 5.36455 7.25056 6.05709L10.5661 18.3633Z" fill="#0364FF"/>
<path d="M15.5288 33.5313C15.3486 34.2021 14.7392 34.6686 14.043 34.6686H10.3285C9.31705 34.6686 8.58087 33.7115 8.84265 32.737L15.9906 6.1269C16.1877 5.39318 16.8542 4.88298 17.6157 4.88298H21.936C22.6975 4.88298 23.3641 5.39318 23.5611 6.1269L30.7091 32.737C30.9709 33.7115 30.2347 34.6686 29.2232 34.6686H25.5087C24.8125 34.6686 24.2031 34.2021 24.0229 33.5313L20.4956 20.3999C20.2983 19.6654 19.2535 19.6654 19.0562 20.3999L15.5288 33.5313Z" fill="#0364FF"/>
<path d="M18.4714 30.7623C18.2056 30.7623 18.0121 30.5237 18.0809 30.2808L19.3854 25.6746C19.4925 25.2966 20.0593 25.2966 20.1664 25.6746L21.4709 30.2808C21.5397 30.5237 21.3462 30.7623 21.0804 30.7623H18.4714Z" fill="#0364FF"/>
</svg>
