<svg width="159" height="28" viewBox="0 0 159 28" fill="none" xmlns="http://www.w3.org/2000/svg">
<path fill-rule="evenodd" clip-rule="evenodd" d="M80.4436 24.3152C79.3951 24.3152 78.4341 24.0991 77.5604 23.6669C77.0675 23.4176 76.6392 23.1213 76.2755 22.778C76.0457 22.5611 75.5801 22.7083 75.5801 23.019V23.4827C75.5801 23.6934 75.4036 23.8642 75.1859 23.8642H73.2951C73.0774 23.8642 72.9009 23.6934 72.9009 23.4827V4.0651C72.9009 3.8544 73.0774 3.68359 73.2951 3.68359H75.177C75.3948 3.68359 75.5712 3.8544 75.5712 4.0651V10.8994C75.5712 11.21 76.038 11.3581 76.2685 11.1418C76.635 10.798 77.0668 10.5012 77.5604 10.2514C78.4341 9.81928 79.3951 9.6032 80.4436 9.6032C82.3268 9.6032 83.9188 10.3172 85.2196 11.7452C86.5593 13.1919 87.2291 14.93 87.2291 16.9592C87.2291 19.0072 86.5593 20.7452 85.2196 22.1732C83.9188 23.6012 82.3268 24.3152 80.4436 24.3152ZM80.0067 21.9477C81.2881 21.9477 82.3656 21.478 83.2393 20.5385C84.113 19.6179 84.5498 18.4247 84.5498 16.9592C84.5498 15.5124 84.113 14.3193 83.2393 13.3798C82.3656 12.4404 81.2881 11.9706 80.0067 11.9706C78.7059 11.9706 77.6187 12.4404 76.745 13.3798C75.8908 14.3193 75.4636 15.5124 75.4636 16.9592C75.4636 18.4247 75.8908 19.6273 76.745 20.5667C77.6187 21.4874 78.7059 21.9477 80.0067 21.9477ZM63.6943 24.3152C61.5975 24.3152 59.8696 23.62 58.5105 22.2296C57.1515 20.8392 56.472 19.0824 56.472 16.9592C56.472 14.8548 57.1321 13.1074 58.4523 11.717C59.7725 10.3078 61.4616 9.6032 63.5196 9.6032C65.6358 9.6032 67.3152 10.2702 68.5578 11.6042C69.8968 12.9998 70.537 15.0988 70.4532 17.008C70.4424 17.2527 70.2288 17.4383 69.9757 17.4383H59.6908C59.4272 17.4383 59.2134 17.6494 59.2407 17.9031C59.3634 19.043 59.8189 19.9778 60.6074 20.7076C61.5004 21.5344 62.5683 21.9477 63.8108 21.9477C65.3961 21.9477 66.6637 21.236 67.6138 19.8125C67.7409 19.6222 67.9936 19.5449 68.204 19.6442L69.8048 20.4C70.0305 20.5065 70.1209 20.7737 69.9902 20.9812C69.3714 21.9631 68.5542 22.7456 67.5385 23.3287C66.4124 23.9864 65.131 24.3152 63.6943 24.3152ZM59.5684 14.7521C59.4736 15.027 59.6974 15.2963 59.9969 15.2963H67.0904C67.3634 15.2963 67.5816 15.0701 67.5262 14.8114C67.3672 14.0685 66.983 13.441 66.3736 12.9289C65.6552 12.2901 64.6845 11.9706 63.4613 11.9706C62.4518 11.9706 61.5781 12.2713 60.8403 12.8725C60.2555 13.362 59.8315 13.9886 59.5684 14.7521ZM55.6506 10.5839C55.7378 10.3222 55.5361 10.0541 55.252 10.0541H53.4029C53.2171 10.0541 53.0536 10.1725 53.0011 10.3449L50.2738 19.3045C50.1644 19.6638 49.6413 19.6713 49.5209 19.3152L46.4859 10.3335C46.4296 10.1669 46.2689 10.0541 46.0878 10.0541H43.9278C43.747 10.0541 43.5866 10.1664 43.53 10.3326L40.4675 19.3212C40.3464 19.6765 39.8242 19.6684 39.7149 19.3095L36.9861 10.3449C36.9336 10.1725 36.7701 10.0541 36.5843 10.0541H34.677C34.3928 10.0541 34.1911 10.3222 34.2783 10.5839L38.6095 23.5833C38.6653 23.7507 38.8264 23.8642 39.0082 23.8642H41.1063C41.2882 23.8642 41.4493 23.7506 41.505 23.583L44.5616 14.391C44.6788 14.0386 45.1938 14.038 45.3119 14.3901L48.3943 23.584C48.4503 23.7511 48.6112 23.8642 48.7927 23.8642H50.9207C51.1026 23.8642 51.2636 23.7507 51.3194 23.5833L55.6506 10.5839ZM138.661 23.0469C139.438 23.7421 140.408 24.0897 141.573 24.0897C142.344 24.0897 143.035 24.0061 143.647 23.839C143.855 23.782 143.961 23.5637 143.889 23.366L143.317 21.8012C143.241 21.5915 142.995 21.4902 142.776 21.5573C142.717 21.5755 142.655 21.5929 142.593 21.6095C142.398 21.6471 142.195 21.6659 141.981 21.6659C141.515 21.6659 141.098 21.5062 140.729 21.1868C140.36 20.8486 140.175 20.2191 140.175 19.2984V12.8031C140.175 12.5924 140.352 12.4216 140.57 12.4216H143.276C143.494 12.4216 143.67 12.2508 143.67 12.0401V10.4357C143.67 10.225 143.494 10.0541 143.276 10.0541H140.57C140.352 10.0541 140.175 9.88334 140.175 9.67264V4.0651C140.175 3.8544 139.999 3.68359 139.781 3.68359H137.89C137.673 3.68359 137.496 3.8544 137.496 4.0651V9.67264C137.496 9.88334 137.32 10.0541 137.102 10.0541H135.386C135.168 10.0541 134.992 10.225 134.992 10.4357V12.0401C134.992 12.2508 135.168 12.4216 135.386 12.4216H137.102C137.32 12.4216 137.496 12.5924 137.496 12.8031V20.144C137.516 21.3841 137.904 22.3517 138.661 23.0469ZM100.397 22.6241C101.698 21.4968 102.349 20.0876 102.349 18.3966C102.349 17.3632 102.048 16.4331 101.446 15.6064C101.169 15.2133 100.771 14.7136 99.604 14.0804C99.3574 13.9466 99.351 13.5902 99.5842 13.4355C100.981 12.5094 101.679 11.107 101.679 9.46228C101.679 7.90278 101.087 6.6345 99.9024 5.65746C98.6987 4.64285 97.2134 4.13554 95.4467 4.13554C94.0294 4.13554 92.7965 4.50193 91.7481 5.23471C90.8139 5.88766 90.1187 6.71964 89.6623 7.73064C89.5678 7.94013 89.6764 8.17943 89.8939 8.26858L91.5494 8.94714C91.7839 9.04323 92.0518 8.92773 92.1569 8.70334C92.8091 7.31159 93.9057 6.61571 95.4467 6.61571C96.4951 6.61571 97.3396 6.87876 97.9803 7.40486C98.621 7.93096 98.9414 8.61677 98.9414 9.46228C98.9414 10.383 98.6016 11.1345 97.9221 11.717C97.2425 12.2807 96.3689 12.5625 95.3011 12.5625H94.2302C93.9852 12.5625 93.7867 12.7547 93.7867 12.9917V14.5571C93.7867 14.7942 93.9852 14.9863 94.2302 14.9863H95.5049C96.631 14.9863 97.592 15.3151 98.388 15.9728C99.2035 16.6304 99.6112 17.4383 99.6112 18.3966C99.6112 19.3548 99.2229 20.1721 98.4463 20.8486C97.6503 21.5062 96.7086 21.835 95.6214 21.835C94.6312 21.835 93.777 21.5532 93.0586 20.9895C92.4637 20.4937 92.0094 19.8209 91.6958 18.9712C91.6063 18.7286 91.3278 18.5966 91.082 18.6957L89.4622 19.3488C89.2546 19.4326 89.1432 19.6542 89.216 19.8602C89.6688 21.141 90.4546 22.1938 91.5734 23.0187C92.7771 23.883 94.1265 24.3152 95.6214 24.3152C97.5241 24.3152 99.1161 23.7515 100.397 22.6241ZM107.103 19.6367C107.103 18.8851 107.462 18.2556 108.18 17.7483C108.918 17.241 109.831 16.9874 110.918 16.9874C112.313 16.9874 113.42 17.2654 114.24 17.8216C114.352 17.8969 114.414 18.0223 114.407 18.1533C114.354 19.1564 113.909 20.036 113.073 20.7922C112.199 21.6001 111.199 22.0041 110.073 22.0041C109.277 22.0041 108.578 21.7786 107.977 21.3277C107.394 20.8767 107.103 20.3131 107.103 19.6367ZM115.257 11.1533C114.112 10.1199 112.549 9.6032 110.568 9.6032C108.181 9.6032 106.341 10.398 105.048 11.9874C104.909 12.1586 104.962 12.4059 105.152 12.522L106.842 13.5516C107.02 13.6605 107.255 13.6126 107.386 13.4531C108.235 12.4272 109.344 11.9143 110.714 11.9143C111.704 11.9143 112.568 12.2337 113.306 12.8725C114.048 13.4965 114.311 14.2465 114.387 15.0935C114.413 15.3847 114.084 15.573 113.805 15.4604C112.883 15.088 111.775 14.9018 110.481 14.9018C108.617 14.9018 107.122 15.3245 105.996 16.17C104.89 17.0156 104.336 18.1523 104.336 19.5803C104.336 20.9331 104.86 22.0605 105.909 22.9623C106.977 23.8642 108.297 24.3152 109.87 24.3152C111.714 24.3152 113.189 23.526 114.296 21.9477V23.4827C114.296 23.6934 114.473 23.8642 114.69 23.8642H116.581C116.799 23.8642 116.975 23.6934 116.975 23.4827V15.3527C116.975 13.5677 116.403 12.1679 115.257 11.1533ZM132.52 23.4589C132.52 23.6827 132.332 23.8642 132.101 23.8642H130.259C130.028 23.8642 129.841 23.6827 129.841 23.4589V23.0061C129.841 22.714 129.384 22.574 129.169 22.7789C128.831 23.1006 128.424 23.3872 127.948 23.6388C127.113 24.0897 126.239 24.3152 125.327 24.3152C123.579 24.3152 122.23 23.836 121.279 22.8778C120.347 21.9008 119.881 20.5197 119.881 18.7348V10.4595C119.881 10.2356 120.068 10.0541 120.3 10.0541H122.141C122.373 10.0541 122.56 10.2356 122.56 10.4595V18.5657C122.618 20.8204 123.793 21.9477 126.084 21.9477C127.152 21.9477 128.045 21.5344 128.763 20.7076C129.481 19.8621 129.841 18.8569 129.841 17.692V10.4595C129.841 10.2356 130.028 10.0541 130.259 10.0541H132.101C132.332 10.0541 132.52 10.2356 132.52 10.4595V23.4589ZM146.361 4.0651C146.361 3.8544 146.537 3.68359 146.755 3.68359H148.646C148.864 3.68359 149.04 3.8544 149.04 4.0651V10.9123C149.04 11.2043 149.495 11.3432 149.709 11.137C150.041 10.8163 150.44 10.5305 150.904 10.2796C151.758 9.82867 152.642 9.6032 153.554 9.6032C155.302 9.6032 156.641 10.0917 157.573 11.0688C158.524 12.027 159 13.3986 159 15.1836V23.4827C159 23.6934 158.824 23.8642 158.606 23.8642H156.715C156.497 23.8642 156.321 23.6934 156.321 23.4827V15.6909C156.321 13.2107 155.185 11.9706 152.914 11.9706C151.826 11.9706 150.904 12.4122 150.147 13.2953C149.409 14.1596 149.04 15.1742 149.04 16.3391V23.4827C149.04 23.6934 148.864 23.8642 148.646 23.8642H146.755C146.537 23.8642 146.361 23.6934 146.361 23.4827V4.0651Z" fill="white"/>
<path d="M23.7502 21.6751C23.9061 22.2478 24.7319 22.2478 24.8879 21.6751L29.3774 5.18818C29.5841 4.42906 29.0028 3.68359 28.2041 3.68359H25.4361C24.8863 3.68359 24.4051 4.04694 24.2628 4.56948L21.7311 13.8667C21.696 13.9957 21.696 14.1315 21.7311 14.2604L23.7502 21.6751Z" fill="white"/>
<path d="M8.06011 13.8547C8.09523 13.9836 8.09523 14.1194 8.06011 14.2484L6.04103 21.6631C5.88509 22.2358 5.05925 22.2358 4.9033 21.6631L0.417058 5.18818C0.210343 4.42906 0.791663 3.68359 1.59035 3.68359H4.35839C4.90816 3.68359 5.38939 4.04694 5.53168 4.56948L8.06011 13.8547Z" fill="white"/>
<path d="M11.8446 25.2992C11.7072 25.8053 11.2425 26.1573 10.7115 26.1573H7.8789C7.10757 26.1573 6.54616 25.4352 6.7458 24.6999L12.1968 4.62215C12.3471 4.06855 12.8554 3.68359 13.4361 3.68359H16.7307C17.3114 3.68359 17.8197 4.06854 17.97 4.62215L23.421 24.6999C23.6206 25.4352 23.0592 26.1573 22.2879 26.1573H19.4552C18.9243 26.1573 18.4596 25.8053 18.3221 25.2992L15.6322 15.3914C15.4818 14.8372 14.685 14.8372 14.5345 15.3914L11.8446 25.2992Z" fill="white"/>
<path d="M14.0886 23.2099C13.8859 23.2099 13.7383 23.03 13.7908 22.8467L14.7856 19.3712C14.8673 19.086 15.2996 19.086 15.3812 19.3712L16.376 22.8467C16.4285 23.03 16.2809 23.2099 16.0782 23.2099H14.0886Z" fill="white"/>
</svg>
