<svg width="152" height="28" viewBox="0 0 152 28" fill="none" xmlns="http://www.w3.org/2000/svg">
<path fill-rule="evenodd" clip-rule="evenodd" d="M76.9024 24.3152C75.9002 24.3152 74.9814 24.0991 74.1462 23.6669C73.675 23.4176 73.2655 23.1213 72.9179 22.778C72.6982 22.5611 72.2531 22.7083 72.2531 23.019V23.4827C72.2531 23.6934 72.0844 23.8642 71.8762 23.8642H70.0686C69.8605 23.8642 69.6918 23.6934 69.6918 23.4827V4.0651C69.6918 3.8544 69.8605 3.68359 70.0686 3.68359H71.8677C72.0759 3.68359 72.2446 3.8544 72.2446 4.0651V10.8994C72.2446 11.21 72.6908 11.3581 72.9111 11.1418C73.2615 10.798 73.6743 10.5012 74.1462 10.2514C74.9814 9.81928 75.9002 9.6032 76.9024 9.6032C78.7027 9.6032 80.2247 10.3172 81.4682 11.7452C82.7489 13.1919 83.3892 14.93 83.3892 16.9592C83.3892 19.0072 82.7489 20.7452 81.4682 22.1732C80.2247 23.6012 78.7027 24.3152 76.9024 24.3152ZM76.4848 21.9477C77.7098 21.9477 78.7399 21.478 79.5751 20.5385C80.4103 19.6179 80.8279 18.4247 80.8279 16.9592C80.8279 15.5124 80.4103 14.3193 79.5751 13.3798C78.7399 12.4404 77.7098 11.9706 76.4848 11.9706C75.2413 11.9706 74.2019 12.4404 73.3667 13.3798C72.55 14.3193 72.1417 15.5124 72.1417 16.9592C72.1417 18.4247 72.55 19.6273 73.3667 20.5667C74.2019 21.4874 75.2413 21.9477 76.4848 21.9477ZM60.8906 24.3152C58.8861 24.3152 57.2342 23.62 55.935 22.2296C54.6358 20.8392 53.9862 19.0824 53.9862 16.9592C53.9862 14.8548 54.6172 13.1074 55.8793 11.717C57.1414 10.3078 58.7562 9.6032 60.7235 9.6032C62.7466 9.6032 64.352 10.2702 65.5399 11.6042C66.82 12.9998 67.432 15.0988 67.3518 17.008C67.3416 17.2527 67.1374 17.4383 66.8954 17.4383H57.0633C56.8113 17.4383 56.6069 17.6494 56.633 17.9031C56.7503 19.043 57.1858 19.9778 57.9395 20.7076C58.7933 21.5344 59.8141 21.9477 61.0019 21.9477C62.5174 21.9477 63.7292 21.236 64.6375 19.8125C64.759 19.6222 65.0006 19.5449 65.2017 19.6442L66.7321 20.4C66.9478 20.5065 67.0342 20.7737 66.9093 20.9812C66.3177 21.9631 65.5364 22.7456 64.5655 23.3287C63.489 23.9864 62.264 24.3152 60.8906 24.3152ZM56.9463 14.7521C56.8557 15.027 57.0696 15.2963 57.3559 15.2963H64.1372C64.3981 15.2963 64.6067 15.0701 64.5537 14.8114C64.4017 14.0685 64.0344 13.441 63.4519 12.9289C62.7652 12.2901 61.8371 11.9706 60.6678 11.9706C59.7027 11.9706 58.8675 12.2713 58.1622 12.8725C57.6031 13.362 57.1978 13.9886 56.9463 14.7521ZM53.201 10.5839C53.2843 10.3222 53.0915 10.0541 52.8199 10.0541H51.0522C50.8746 10.0541 50.7183 10.1725 50.6681 10.3449L48.0609 19.3045C47.9563 19.6638 47.4562 19.6713 47.3412 19.3152L44.4397 10.3335C44.3859 10.1669 44.2323 10.0541 44.0591 10.0541H41.9942C41.8214 10.0541 41.6681 10.1664 41.614 10.3326L38.6863 19.3212C38.5706 19.6765 38.0713 19.6684 37.9669 19.3095L35.3582 10.3449C35.308 10.1725 35.1516 10.0541 34.9741 10.0541H33.1507C32.8791 10.0541 32.6862 10.3222 32.7696 10.5839L36.9102 23.5833C36.9635 23.7507 37.1174 23.8642 37.2912 23.8642H39.297C39.4709 23.8642 39.6249 23.7506 39.6782 23.583L42.6002 14.391C42.7122 14.0386 43.2045 14.038 43.3174 14.3901L46.2641 23.584C46.3177 23.7511 46.4715 23.8642 46.645 23.8642H48.6793C48.8531 23.8642 49.0071 23.7507 49.0604 23.5833L53.201 10.5839ZM132.557 23.0469C133.299 23.7421 134.227 24.0897 135.341 24.0897C136.078 24.0897 136.739 24.0061 137.323 23.839C137.522 23.782 137.624 23.5637 137.555 23.366L137.008 21.8012C136.935 21.5915 136.7 21.4902 136.491 21.5573C136.434 21.5755 136.375 21.5929 136.315 21.6095C136.13 21.6471 135.935 21.6659 135.731 21.6659C135.285 21.6659 134.886 21.5062 134.534 21.1868C134.181 20.8486 134.005 20.2191 134.005 19.2984V12.8031C134.005 12.5924 134.173 12.4216 134.381 12.4216H136.969C137.177 12.4216 137.345 12.2508 137.345 12.0401V10.4357C137.345 10.225 137.177 10.0541 136.969 10.0541H134.381C134.173 10.0541 134.005 9.88334 134.005 9.67264V4.0651C134.005 3.8544 133.836 3.68359 133.628 3.68359H131.82C131.612 3.68359 131.443 3.8544 131.443 4.0651V9.67264C131.443 9.88334 131.275 10.0541 131.066 10.0541H129.426C129.218 10.0541 129.049 10.225 129.049 10.4357V12.0401C129.049 12.2508 129.218 12.4216 129.426 12.4216H131.066C131.275 12.4216 131.443 12.5924 131.443 12.8031V20.144C131.462 21.3841 131.833 22.3517 132.557 23.0469ZM95.9778 22.6241C97.2214 21.4968 97.8432 20.0876 97.8432 18.3966C97.8432 17.3632 97.5555 16.4331 96.9801 15.6064C96.7153 15.2133 96.335 14.7136 95.2193 14.0804C94.9836 13.9466 94.9774 13.5902 95.2004 13.4355C96.5353 12.5094 97.2028 11.107 97.2028 9.46228C97.2028 7.90278 96.6367 6.6345 95.5046 5.65746C94.3538 4.64285 92.934 4.13554 91.245 4.13554C89.8901 4.13554 88.7115 4.50193 87.7093 5.23471C86.8162 5.88766 86.1516 6.71964 85.7153 7.73064C85.6249 7.94013 85.7288 8.17943 85.9367 8.26858L87.5193 8.94714C87.7435 9.04323 87.9996 8.92773 88.1001 8.70334C88.7236 7.31159 89.7719 6.61571 91.245 6.61571C92.2473 6.61571 93.0546 6.87876 93.6671 7.40486C94.2796 7.93096 94.5858 8.61677 94.5858 9.46228C94.5858 10.383 94.261 11.1345 93.6114 11.717C92.9618 12.2807 92.1266 12.5625 91.1058 12.5625H90.0821C89.8479 12.5625 89.6581 12.7547 89.6581 12.9917V14.5571C89.6581 14.7942 89.8479 14.9863 90.0821 14.9863H91.3007C92.3772 14.9863 93.2959 15.3151 94.0569 15.9728C94.8364 16.6304 95.2262 17.4383 95.2262 18.3966C95.2262 19.3548 94.855 20.1721 94.1126 20.8486C93.3516 21.5062 92.4514 21.835 91.412 21.835C90.4655 21.835 89.6488 21.5532 88.9621 20.9895C88.3934 20.4937 87.9591 19.8209 87.6593 18.9712C87.5737 18.7286 87.3074 18.5966 87.0725 18.6957L85.5241 19.3488C85.3255 19.4326 85.2191 19.6542 85.2887 19.8602C85.7216 21.141 86.4727 22.1938 87.5423 23.0187C88.693 23.883 89.9829 24.3152 91.412 24.3152C93.2309 24.3152 94.7529 23.7515 95.9778 22.6241ZM102.388 19.6367C102.388 18.8851 102.731 18.2556 103.418 17.7483C104.123 17.241 104.996 16.9874 106.035 16.9874C107.369 16.9874 108.427 17.2654 109.211 17.8216C109.318 17.8969 109.377 18.0223 109.371 18.1533C109.32 19.1564 108.894 20.036 108.095 20.7922C107.26 21.6001 106.304 22.0041 105.228 22.0041C104.467 22.0041 103.799 21.7786 103.223 21.3277C102.666 20.8767 102.388 20.3131 102.388 19.6367ZM110.183 11.1533C109.088 10.1199 107.594 9.6032 105.701 9.6032C103.419 9.6032 101.66 10.398 100.424 11.9874C100.291 12.1586 100.341 12.4059 100.523 12.522L102.138 13.5516C102.309 13.6605 102.533 13.6126 102.659 13.4531C103.47 12.4272 104.53 11.9143 105.84 11.9143C106.787 11.9143 107.613 12.2337 108.318 12.8725C109.028 13.4965 109.279 14.2465 109.351 15.0935C109.376 15.3847 109.062 15.573 108.795 15.4604C107.914 15.088 106.855 14.9018 105.618 14.9018C103.836 14.9018 102.407 15.3245 101.33 16.17C100.272 17.0156 99.7432 18.1523 99.7432 19.5803C99.7432 20.9331 100.244 22.0605 101.247 22.9623C102.267 23.8642 103.53 24.3152 105.033 24.3152C106.796 24.3152 108.207 23.526 109.265 21.9477V23.4827C109.265 23.6934 109.433 23.8642 109.641 23.8642H111.449C111.657 23.8642 111.826 23.6934 111.826 23.4827V15.3527C111.826 13.5677 111.278 12.1679 110.183 11.1533ZM126.686 23.4589C126.686 23.6827 126.507 23.8642 126.286 23.8642H124.525C124.304 23.8642 124.125 23.6827 124.125 23.4589V23.0061C124.125 22.714 123.688 22.574 123.483 22.7789C123.16 23.1006 122.771 23.3872 122.315 23.6388C121.517 24.0897 120.682 24.3152 119.81 24.3152C118.139 24.3152 116.849 23.836 115.94 22.8778C115.049 21.9008 114.603 20.5197 114.603 18.7348V10.4595C114.603 10.2356 114.783 10.0541 115.004 10.0541H116.764C116.985 10.0541 117.165 10.2356 117.165 10.4595V18.5657C117.22 20.8204 118.343 21.9477 120.533 21.9477C121.554 21.9477 122.408 21.5344 123.095 20.7076C123.781 19.8621 124.125 18.8569 124.125 17.692V10.4595C124.125 10.2356 124.304 10.0541 124.525 10.0541H126.286C126.507 10.0541 126.686 10.2356 126.686 10.4595V23.4589ZM139.918 4.0651C139.918 3.8544 140.087 3.68359 140.295 3.68359H142.102C142.31 3.68359 142.479 3.8544 142.479 4.0651V10.9123C142.479 11.2043 142.914 11.3432 143.118 11.137C143.436 10.8163 143.817 10.5305 144.261 10.2796C145.078 9.82867 145.922 9.6032 146.794 9.6032C148.465 9.6032 149.745 10.0917 150.636 11.0688C151.546 12.027 152 13.3986 152 15.1836V23.4827C152 23.6934 151.832 23.8642 151.624 23.8642H149.816C149.608 23.8642 149.439 23.6934 149.439 23.4827V15.6909C149.439 13.2107 148.353 11.9706 146.182 11.9706C145.143 11.9706 144.261 12.4122 143.537 13.2953C142.832 14.1596 142.479 15.1742 142.479 16.3391V23.4827C142.479 23.6934 142.31 23.8642 142.102 23.8642H140.295C140.087 23.8642 139.918 23.6934 139.918 23.4827V4.0651Z" fill="#0F1222"/>
<path d="M22.7054 21.6751C22.8545 22.2478 23.644 22.2478 23.7931 21.6751L28.085 5.18818C28.2826 4.42906 27.7268 3.68359 26.9633 3.68359H24.3171C23.7916 3.68359 23.3315 4.04694 23.1955 4.56948L20.7753 13.8667C20.7417 13.9957 20.7417 14.1315 20.7753 14.2604L22.7054 21.6751Z" fill="#0364FF"/>
<path d="M7.70614 13.8547C7.73972 13.9836 7.73972 14.1194 7.70614 14.2484L5.77596 21.6631C5.62688 22.2358 4.8374 22.2358 4.68831 21.6631L0.399581 5.18818C0.201967 4.42906 0.757694 3.68359 1.52122 3.68359H4.16739C4.69296 3.68359 5.153 4.04694 5.28903 4.56948L7.70614 13.8547Z" fill="#0364FF"/>
<path d="M11.3241 25.2992C11.1927 25.8053 10.7484 26.1573 10.2409 26.1573H7.53291C6.79554 26.1573 6.25885 25.4352 6.4497 24.6999L11.6607 4.62215C11.8044 4.06855 12.2903 3.68359 12.8455 3.68359H15.995C16.5502 3.68359 17.0361 4.06854 17.1798 4.62215L22.3908 24.6999C22.5816 25.4352 22.0449 26.1573 21.3075 26.1573H18.5996C18.092 26.1573 17.6478 25.8053 17.5164 25.2992L14.9449 15.3914C14.8011 14.8372 14.0394 14.8372 13.8955 15.3914L11.3241 25.2992Z" fill="#0364FF"/>
<path d="M13.4692 23.2099C13.2754 23.2099 13.1344 23.03 13.1846 22.8467L14.1356 19.3712C14.2136 19.086 14.6269 19.086 14.7049 19.3712L15.6559 22.8467C15.7061 23.03 15.5651 23.2099 15.3713 23.2099H13.4692Z" fill="#0364FF"/>
</svg>
