<svg width="904" height="72" viewBox="0 0 904 72" fill="none" xmlns="http://www.w3.org/2000/svg">
<path fill-rule="evenodd" clip-rule="evenodd" d="M136.242 50.811C137.912 46.0576 138.732 41.0435 138.664 36.0016C138.729 30.9761 137.91 25.9789 136.242 21.2421C134.755 17.0245 132.435 13.1537 129.425 9.86256C126.468 6.69529 122.871 4.20575 118.875 2.56285C114.566 0.814332 109.955 -0.0557469 105.309 0.00294407C100.671 -0.0578331 96.0672 0.822963 91.7733 2.59284C87.7937 4.24938 84.2058 6.73339 81.2441 9.88256C78.2313 13.1646 75.9118 17.0293 74.4263 21.2421C72.759 25.9789 71.9392 30.9761 72.0049 36.0016C71.9367 41.0435 72.7565 46.0576 74.4263 50.811C75.9118 55.0238 78.2313 58.8885 81.2441 62.1705C84.2015 65.3199 87.7909 67.7982 91.7733 69.4403C100.49 72.8532 110.159 72.8532 118.875 69.4403C122.865 67.8009 126.462 65.3225 129.425 62.1705C132.437 58.8885 134.757 55.0238 136.242 50.811ZM131.408 22.7524C132.799 27.0263 133.47 31.5047 133.392 36.0019C133.474 40.5059 132.803 44.9917 131.408 49.2714C130.187 52.9425 128.231 56.322 125.662 59.201C123.188 61.9287 120.135 64.0582 116.73 65.4308C109.383 68.2716 101.252 68.2716 93.9053 65.4308C90.5052 64.0498 87.4538 61.9214 84.9738 59.201C82.3924 56.3241 80.4233 52.9447 79.1882 49.2714C77.7673 44.9965 77.076 40.5097 77.1439 36.0019C77.0893 31.5171 77.7838 27.0551 79.1981 22.8024C80.4247 19.1042 82.3941 15.7003 84.9837 12.8028C87.4682 10.0827 90.5179 7.94867 93.9152 6.55304C101.255 3.67281 109.4 3.67281 116.74 6.55304C120.142 7.94013 123.194 10.0754 125.672 12.8028C128.24 15.6885 130.192 19.0751 131.408 22.7524Z" fill="#0364FF"/>
<path fill-rule="evenodd" clip-rule="evenodd" d="M190.61 71.9981C192.268 71.9981 193.206 70.0959 192.196 68.7803L170.748 40.8389C170.168 40.0432 169.45 39.3652 168.632 38.839C171.467 38.5255 174.243 37.7913 176.875 36.659C179.182 35.6576 181.297 34.235 183.118 32.4592C184.823 30.7641 186.169 28.721 187.07 26.4593C188.012 24.0701 188.482 21.5098 188.452 18.9295C188.433 12.723 186.429 8.01646 182.441 4.80988C178.454 1.60329 172.462 0 164.467 0H148.666C147.562 0 146.666 0.895431 146.666 2V69.9981C146.666 71.1027 147.562 71.9981 148.666 71.9981H149.73C150.835 71.9981 151.73 71.1027 151.73 69.9981V41.439C151.73 40.3344 152.625 39.439 153.73 39.439H160.853C161.437 39.4335 162.022 39.4702 162.602 39.549C163.025 39.5943 163.438 39.7055 163.829 39.879C164.186 40.0259 164.513 40.2394 164.795 40.509C165.094 40.8169 165.365 41.1516 165.607 41.5089L187.93 70.7182C188.191 71.141 188.554 71.4858 188.984 71.7181C189.425 71.9192 189.904 72.0148 190.385 71.9981H190.61ZM172.025 34.4192C169.335 35.2231 166.544 35.6106 163.744 35.5692H153.732C152.627 35.5692 151.732 34.6738 151.732 33.5692V6.12002C151.732 5.01545 152.627 4.12002 153.732 4.12002H164.478C170.656 4.12669 175.356 5.36666 178.577 7.83993C181.799 10.3132 183.409 14.1098 183.409 19.2296C183.444 21.5585 182.993 23.8678 182.085 25.9995C181.2 28.0001 179.877 29.7598 178.22 31.1393C176.385 32.6461 174.28 33.761 172.025 34.4192Z" fill="#0364FF"/>
<path d="M229.333 67.4135C232.457 67.4711 235.559 66.8652 238.436 65.635C241.025 64.4999 243.341 62.8127 245.224 60.6891C247.121 58.513 248.568 55.9752 249.478 53.2254C250.468 50.2411 250.957 47.1103 250.923 43.9631V2.53792C250.923 1.13627 252.059 0 253.461 0C254.862 0 255.999 1.13626 255.999 2.53792V43.9631C256.031 47.7076 255.408 51.4284 254.158 54.9539C252.994 58.245 251.191 61.2682 248.855 63.8465C246.507 66.4233 243.644 68.4668 240.455 69.8414C233.314 72.7195 225.352 72.7195 218.212 69.8414C215.021 68.4694 212.157 66.4256 209.811 63.8465C207.472 61.2708 205.668 58.2468 204.508 54.9539C203.258 51.4284 202.635 47.7076 202.668 43.9631V2.54781C202.668 1.1407 203.808 0 205.216 0C206.623 0 207.763 1.1407 207.763 2.54781V43.9032C207.735 47.0549 208.23 50.1891 209.228 53.1754C210.139 55.9207 211.578 58.4572 213.463 60.6392C215.329 62.7804 217.635 64.4852 220.22 65.635C223.098 66.8759 226.205 67.4823 229.333 67.4135Z" fill="#0364FF"/>
<path d="M306.213 9.35152C305.996 9.86784 305.496 10.2024 304.943 10.2014C304.307 10.094 303.727 9.76946 303.298 9.28153C302.443 8.54626 301.535 7.8778 300.581 7.28189C299.232 6.42968 297.792 5.73855 296.287 5.22225C292.054 3.8964 287.521 3.93132 283.309 5.32223C281.522 5.97793 279.886 6.99878 278.503 8.3217C277.225 9.55344 276.218 11.0459 275.549 12.7009C274.887 14.3582 274.552 16.1316 274.564 17.92C274.481 19.998 274.998 22.0555 276.051 23.839C277.077 25.435 278.418 26.797 279.99 27.8382C281.729 28.9809 283.597 29.9074 285.554 30.5978C287.622 31.3376 289.759 32.0775 291.945 32.8074C294.131 33.5372 296.268 34.3471 298.335 35.2169C300.332 36.0528 302.205 37.1666 303.899 38.5264C305.533 39.8634 306.875 41.532 307.838 43.4255C308.898 45.6824 309.408 48.1651 309.325 50.6642C309.351 53.5089 308.853 56.3335 307.858 58.9927C306.894 61.5394 305.415 63.8522 303.515 65.7815C301.528 67.7641 299.162 69.3124 296.563 70.3307C293.557 71.4863 290.362 72.0496 287.149 71.9904C283.077 72.1006 279.034 71.2591 275.332 69.5309C272.799 68.2664 270.474 66.6201 268.434 64.6519C267.334 63.5894 267.222 61.898 268.036 60.6024C268.349 60.1458 268.857 59.8674 269.405 59.8526C269.837 59.9193 270.236 60.1303 270.537 60.4525L272.201 61.9122C272.851 62.5021 273.639 63.132 274.555 63.8119C275.552 64.5453 276.617 65.1781 277.735 65.7015C280.716 67.0982 283.965 67.8018 287.248 67.7612C289.756 67.805 292.25 67.3744 294.603 66.4914C296.633 65.712 298.486 64.5214 300.049 62.992C301.536 61.5266 302.694 59.7534 303.446 57.7929C304.243 55.7434 304.644 53.5574 304.628 51.3541C304.712 49.202 304.193 47.0699 303.131 45.2052C302.119 43.5981 300.775 42.2336 299.192 41.2059C297.455 40.0798 295.59 39.1701 293.638 38.4964C291.561 37.7665 289.434 37.0566 287.238 36.3567C285.042 35.6569 282.925 34.887 280.847 34.0172C278.843 33.2003 276.968 32.0886 275.283 30.7177C273.634 29.3555 272.291 27.6511 271.344 25.7186C270.27 23.3597 269.757 20.7773 269.848 18.18C269.847 15.8416 270.295 13.5255 271.167 11.3612C272.05 9.18127 273.368 7.21035 275.037 5.57219C276.857 3.83014 278.999 2.47095 281.339 1.5729C284.067 0.500364 286.972 -0.0324521 289.896 0.00317504C293.203 -0.0489667 296.488 0.541542 299.576 1.74287C301.724 2.6307 303.723 3.84007 305.509 5.32674C306.688 6.30757 306.914 7.98801 306.213 9.35152Z" fill="#0364FF"/>
<path fill-rule="evenodd" clip-rule="evenodd" d="M6.74056 0C3.01785 0 0 3.01784 0 6.74055V14.5928C0 18.3155 3.01785 21.3333 6.74055 21.3333H18.6664V65.2594C18.6664 68.9821 21.6843 72 25.407 72H33.2592C36.9819 72 39.9998 68.9821 39.9998 65.2594V14.6499C39.9999 14.6308 40 14.6118 40 14.5928V6.74056C40 3.01785 36.9821 0 33.2594 0H25.407H6.74056Z" fill="#0364FF"/>
<path d="M56.0005 21.3333C61.8916 21.3333 66.6672 16.5577 66.6672 10.6667C66.6672 4.77563 61.8916 0 56.0005 0C50.1095 0 45.3339 4.77563 45.3339 10.6667C45.3339 16.5577 50.1095 21.3333 56.0005 21.3333Z" fill="#0364FF"/>
<path d="M339.098 5C340.81 5 342.197 6.38718 342.197 8.09836V64.9016C342.197 66.6128 340.81 68 339.098 68C337.387 68 336 66.6128 336 64.9016V8.09836C336 6.38718 337.387 5 339.098 5Z" fill="#BEBEBE"/>
<path d="M377.075 10.529C377.075 11.771 376.638 12.829 375.764 13.703C374.89 14.577 373.832 15.014 372.59 15.014C371.348 15.014 370.29 14.577 369.416 13.703C368.542 12.829 368.105 11.771 368.105 10.529C368.105 9.287 368.542 8.229 369.416 7.355C370.29 6.481 371.348 6.044 372.59 6.044C373.832 6.044 374.89 6.481 375.764 7.355C376.638 8.229 377.075 9.287 377.075 10.529ZM375.764 22.19V56H369.416V22.19H375.764ZM384.025 22.19H390.097V26.882H390.373C391.339 25.226 392.811 23.846 394.789 22.742C396.813 21.638 398.906 21.086 401.068 21.086C405.208 21.086 408.382 22.282 410.59 24.674C412.844 27.02 413.971 30.378 413.971 34.748V56H407.623V35.162C407.485 29.642 404.702 26.882 399.274 26.882C396.744 26.882 394.628 27.917 392.926 29.987C391.224 32.011 390.373 34.449 390.373 37.301V56H384.025V22.19ZM436.343 6.044C438.643 6.044 440.529 6.435 442.001 7.217L440.276 12.806C439.172 12.254 437.93 11.978 436.55 11.978C434.986 11.978 433.698 12.53 432.686 13.634C431.72 14.692 431.237 16.118 431.237 17.912V22.19H440.069V27.986H431.237V56H424.889V27.986H418.541V22.19H424.889V17.291C424.889 13.933 425.947 11.219 428.063 9.149C430.225 7.079 432.985 6.044 436.343 6.044ZM452.5 56H446.152V22.19H452.224V27.71H452.5C453.144 25.916 454.455 24.398 456.433 23.156C458.457 21.868 460.435 21.224 462.367 21.224C464.207 21.224 465.771 21.5 467.059 22.052L465.127 28.193C464.345 27.871 463.103 27.71 461.401 27.71C459.009 27.71 456.916 28.676 455.122 30.608C453.374 32.54 452.5 34.794 452.5 37.37V56ZM474.494 45.65C474.494 47.306 475.184 48.686 476.564 49.79C477.99 50.894 479.646 51.446 481.532 51.446C484.2 51.446 486.569 50.457 488.639 48.479C490.755 46.501 491.813 44.178 491.813 41.51C489.835 39.946 487.075 39.164 483.533 39.164C480.957 39.164 478.795 39.785 477.047 41.027C475.345 42.269 474.494 43.81 474.494 45.65ZM482.705 21.086C487.397 21.086 491.1 22.351 493.814 24.881C496.528 27.365 497.885 30.792 497.885 35.162V56H491.813V51.308H491.537C488.915 55.172 485.419 57.104 481.049 57.104C477.323 57.104 474.195 56 471.665 53.792C469.181 51.584 467.939 48.824 467.939 45.512C467.939 42.016 469.25 39.233 471.872 37.163C474.54 35.093 478.082 34.058 482.498 34.058C486.27 34.058 489.375 34.748 491.813 36.128V34.679C491.813 32.471 490.939 30.608 489.191 29.09C487.443 27.526 485.396 26.744 483.05 26.744C479.508 26.744 476.702 28.239 474.632 31.229L469.043 27.71C472.125 23.294 476.679 21.086 482.705 21.086ZM530.583 46.616C530.583 49.56 529.295 52.044 526.719 54.068C524.143 56.092 520.9 57.104 516.99 57.104C513.586 57.104 510.596 56.23 508.02 54.482C505.444 52.688 503.604 50.342 502.5 47.444L508.158 45.029C508.986 47.053 510.182 48.64 511.746 49.79C513.356 50.894 515.104 51.446 516.99 51.446C519.014 51.446 520.693 51.009 522.027 50.135C523.407 49.261 524.097 48.226 524.097 47.03C524.097 44.868 522.441 43.281 519.129 42.269L513.333 40.82C506.755 39.164 503.466 35.99 503.466 31.298C503.466 28.216 504.708 25.755 507.192 23.915C509.722 22.029 512.942 21.086 516.852 21.086C519.842 21.086 522.533 21.799 524.925 23.225C527.363 24.651 529.065 26.56 530.031 28.952L524.373 31.298C523.729 29.872 522.671 28.768 521.199 27.986C519.773 27.158 518.163 26.744 516.369 26.744C514.713 26.744 513.218 27.158 511.884 27.986C510.596 28.814 509.952 29.826 509.952 31.022C509.952 32.954 511.769 34.334 515.403 35.162L520.509 36.473C527.225 38.129 530.583 41.51 530.583 46.616ZM549.157 56.552C546.397 56.552 544.097 55.701 542.257 53.999C540.463 52.297 539.543 49.928 539.497 46.892V27.986H533.563V22.19H539.497V11.84H545.845V22.19H554.125V27.986H545.845V44.822C545.845 47.076 546.282 48.617 547.156 49.445C548.03 50.227 549.019 50.618 550.123 50.618C550.629 50.618 551.112 50.572 551.572 50.48C552.078 50.342 552.538 50.181 552.952 49.997L554.953 55.655C553.297 56.253 551.365 56.552 549.157 56.552ZM566.512 56H560.164V22.19H566.236V27.71H566.512C567.156 25.916 568.467 24.398 570.445 23.156C572.469 21.868 574.447 21.224 576.379 21.224C578.219 21.224 579.783 21.5 581.071 22.052L579.139 28.193C578.357 27.871 577.115 27.71 575.413 27.71C573.021 27.71 570.928 28.676 569.134 30.608C567.386 32.54 566.512 34.794 566.512 37.37V56ZM614.9 56H608.828V51.308H608.552C607.586 52.964 606.091 54.344 604.067 55.448C602.089 56.552 600.019 57.104 597.857 57.104C593.717 57.104 590.52 55.931 588.266 53.585C586.058 51.193 584.954 47.812 584.954 43.442V22.19H591.302V43.028C591.44 48.548 594.223 51.308 599.651 51.308C602.181 51.308 604.297 50.296 605.999 48.272C607.701 46.202 608.552 43.741 608.552 40.889V22.19H614.9V56ZM637.747 57.104C632.733 57.104 628.57 55.402 625.258 51.998C621.992 48.502 620.359 44.201 620.359 39.095C620.359 33.897 621.992 29.596 625.258 26.192C628.57 22.788 632.733 21.086 637.747 21.086C641.197 21.086 644.21 21.96 646.786 23.708C649.362 25.41 651.294 27.779 652.582 30.815L646.786 33.23C644.992 28.998 641.841 26.882 637.333 26.882C634.435 26.882 631.928 28.055 629.812 30.401C627.742 32.747 626.707 35.645 626.707 39.095C626.707 42.545 627.742 45.443 629.812 47.789C631.928 50.135 634.435 51.308 637.333 51.308C641.979 51.308 645.245 49.192 647.131 44.96L652.789 47.375C651.547 50.411 649.592 52.803 646.924 54.551C644.302 56.253 641.243 57.104 637.747 57.104ZM671.39 56.552C668.63 56.552 666.33 55.701 664.49 53.999C662.696 52.297 661.776 49.928 661.73 46.892V27.986H655.796V22.19H661.73V11.84H668.078V22.19H676.358V27.986H668.078V44.822C668.078 47.076 668.515 48.617 669.389 49.445C670.263 50.227 671.252 50.618 672.356 50.618C672.862 50.618 673.345 50.572 673.805 50.48C674.311 50.342 674.771 50.181 675.185 49.997L677.186 55.655C675.53 56.253 673.598 56.552 671.39 56.552ZM712.066 56H705.994V51.308H705.718C704.752 52.964 703.257 54.344 701.233 55.448C699.255 56.552 697.185 57.104 695.023 57.104C690.883 57.104 687.686 55.931 685.432 53.585C683.224 51.193 682.12 47.812 682.12 43.442V22.19H688.468V43.028C688.606 48.548 691.389 51.308 696.817 51.308C699.347 51.308 701.463 50.296 703.165 48.272C704.867 46.202 705.718 43.741 705.718 40.889V22.19H712.066V56ZM726.142 56H719.794V22.19H725.866V27.71H726.142C726.786 25.916 728.097 24.398 730.075 23.156C732.099 21.868 734.077 21.224 736.009 21.224C737.849 21.224 739.413 21.5 740.701 22.052L738.769 28.193C737.987 27.871 736.745 27.71 735.043 27.71C732.651 27.71 730.558 28.676 728.764 30.608C727.016 32.54 726.142 34.794 726.142 37.37V56ZM757.951 57.104C752.983 57.104 748.889 55.402 745.669 51.998C742.449 48.594 740.839 44.293 740.839 39.095C740.839 33.943 742.403 29.665 745.531 26.261C748.659 22.811 752.661 21.086 757.537 21.086C762.551 21.086 766.53 22.719 769.474 25.985C772.464 29.205 773.959 33.736 773.959 39.578L773.89 40.268H747.325C747.417 43.58 748.521 46.248 750.637 48.272C752.753 50.296 755.283 51.308 758.227 51.308C762.275 51.308 765.449 49.284 767.749 45.236L773.407 47.996C771.889 50.848 769.773 53.079 767.059 54.689C764.391 56.299 761.355 57.104 757.951 57.104ZM747.808 35.024H767.197C767.013 32.678 766.047 30.746 764.299 29.228C762.597 27.664 760.297 26.882 757.399 26.882C755.007 26.882 752.937 27.618 751.189 29.09C749.487 30.562 748.36 32.54 747.808 35.024Z" fill="black"/>
</svg>
