<svg width="642" height="72" viewBox="0 0 642 72" fill="none" xmlns="http://www.w3.org/2000/svg">
<path fill-rule="evenodd" clip-rule="evenodd" d="M136.242 50.811C137.912 46.0576 138.732 41.0435 138.664 36.0016C138.729 30.9761 137.91 25.9789 136.242 21.2421C134.755 17.0245 132.435 13.1537 129.425 9.86256C126.468 6.69529 122.871 4.20575 118.875 2.56285C114.566 0.814332 109.955 -0.0557469 105.309 0.00294407C100.671 -0.0578331 96.0672 0.822963 91.7733 2.59284C87.7937 4.24938 84.2058 6.73339 81.2441 9.88256C78.2313 13.1646 75.9118 17.0293 74.4263 21.2421C72.759 25.9789 71.9392 30.9761 72.0049 36.0016C71.9367 41.0435 72.7565 46.0576 74.4263 50.811C75.9118 55.0238 78.2313 58.8885 81.2441 62.1705C84.2015 65.3199 87.7909 67.7982 91.7733 69.4403C100.49 72.8532 110.159 72.8532 118.875 69.4403C122.865 67.8009 126.462 65.3225 129.425 62.1705C132.437 58.8885 134.757 55.0238 136.242 50.811ZM131.408 22.7524C132.799 27.0263 133.47 31.5047 133.392 36.0019C133.474 40.5059 132.803 44.9917 131.408 49.2714C130.187 52.9425 128.231 56.322 125.662 59.201C123.188 61.9287 120.135 64.0582 116.73 65.4308C109.383 68.2716 101.252 68.2716 93.9053 65.4308C90.5052 64.0498 87.4538 61.9214 84.9738 59.201C82.3924 56.3241 80.4233 52.9447 79.1882 49.2714C77.7673 44.9965 77.076 40.5097 77.1439 36.0019C77.0893 31.5171 77.7838 27.0551 79.1981 22.8024C80.4247 19.1042 82.3941 15.7003 84.9837 12.8028C87.4682 10.0827 90.5179 7.94867 93.9152 6.55304C101.255 3.67281 109.4 3.67281 116.74 6.55304C120.142 7.94013 123.194 10.0754 125.672 12.8028C128.24 15.6885 130.192 19.0751 131.408 22.7524Z" fill="#0364FF"/>
<path fill-rule="evenodd" clip-rule="evenodd" d="M190.61 71.9981C192.268 71.9981 193.206 70.0959 192.196 68.7803L170.748 40.8389C170.168 40.0432 169.45 39.3652 168.632 38.839C171.466 38.5255 174.243 37.7913 176.875 36.659C179.182 35.6576 181.297 34.235 183.118 32.4592C184.823 30.7641 186.169 28.721 187.07 26.4593C188.012 24.0701 188.482 21.5098 188.452 18.9295C188.433 12.723 186.429 8.01646 182.441 4.80988C178.453 1.60329 172.462 0 164.467 0H148.666C147.561 0 146.666 0.895431 146.666 2V69.9981C146.666 71.1027 147.561 71.9981 148.666 71.9981H149.73C150.834 71.9981 151.73 71.1027 151.73 69.9981V41.439C151.73 40.3344 152.625 39.439 153.73 39.439H160.852C161.437 39.4335 162.022 39.4702 162.602 39.549C163.024 39.5943 163.438 39.7055 163.829 39.879C164.186 40.0259 164.513 40.2394 164.795 40.509C165.094 40.8169 165.365 41.1516 165.607 41.5089L187.93 70.7182C188.191 71.141 188.554 71.4858 188.984 71.7181C189.425 71.9192 189.903 72.0148 190.385 71.9981H190.61ZM172.025 34.4192C169.335 35.2231 166.544 35.6106 163.743 35.5692H153.731C152.627 35.5692 151.731 34.6738 151.731 33.5692V6.12002C151.731 5.01545 152.627 4.12002 153.731 4.12002H164.478C170.656 4.12669 175.356 5.36666 178.577 7.83993C181.799 10.3132 183.409 14.1098 183.409 19.2296C183.444 21.5585 182.992 23.8678 182.085 25.9995C181.2 28.0001 179.877 29.7598 178.22 31.1393C176.385 32.6461 174.28 33.761 172.025 34.4192Z" fill="#0364FF"/>
<path d="M229.333 67.4135C232.457 67.4711 235.559 66.8652 238.436 65.635C241.025 64.4999 243.341 62.8127 245.224 60.6891C247.121 58.513 248.568 55.9752 249.478 53.2254C250.468 50.2411 250.957 47.1103 250.923 43.9631V2.53792C250.923 1.13627 252.059 0 253.461 0C254.862 0 255.999 1.13626 255.999 2.53792V43.9631C256.031 47.7076 255.408 51.4284 254.158 54.9539C252.994 58.245 251.191 61.2682 248.855 63.8465C246.507 66.4233 243.644 68.4668 240.455 69.8414C233.314 72.7195 225.352 72.7195 218.212 69.8414C215.021 68.4694 212.157 66.4256 209.811 63.8465C207.472 61.2708 205.668 58.2468 204.508 54.9539C203.258 51.4284 202.635 47.7076 202.668 43.9631V2.54781C202.668 1.1407 203.808 0 205.216 0C206.623 0 207.763 1.1407 207.763 2.54781V43.9032C207.735 47.0549 208.23 50.1891 209.228 53.1754C210.139 55.9207 211.578 58.4572 213.463 60.6392C215.329 62.7804 217.635 64.4852 220.22 65.635C223.098 66.8759 226.205 67.4823 229.333 67.4135Z" fill="#0364FF"/>
<path d="M306.213 9.35152C305.996 9.86784 305.496 10.2024 304.943 10.2014C304.307 10.094 303.727 9.76946 303.298 9.28153C302.443 8.54626 301.535 7.8778 300.581 7.28189C299.232 6.42968 297.792 5.73855 296.287 5.22225C292.054 3.8964 287.521 3.93132 283.309 5.32223C281.522 5.97793 279.886 6.99878 278.503 8.3217C277.225 9.55344 276.218 11.0459 275.549 12.7009C274.887 14.3582 274.552 16.1316 274.564 17.92C274.481 19.998 274.998 22.0555 276.051 23.839C277.077 25.435 278.418 26.797 279.99 27.8382C281.729 28.9809 283.597 29.9074 285.554 30.5978C287.622 31.3376 289.759 32.0775 291.945 32.8074C294.131 33.5372 296.268 34.3471 298.335 35.2169C300.332 36.0528 302.205 37.1666 303.899 38.5264C305.533 39.8634 306.875 41.532 307.838 43.4255C308.898 45.6824 309.408 48.1651 309.325 50.6642C309.351 53.5089 308.853 56.3335 307.858 58.9927C306.894 61.5394 305.415 63.8522 303.515 65.7815C301.528 67.7641 299.162 69.3124 296.563 70.3307C293.557 71.4863 290.362 72.0496 287.149 71.9904C283.077 72.1006 279.034 71.2591 275.332 69.5309C272.799 68.2664 270.474 66.6201 268.434 64.6519C267.334 63.5894 267.222 61.898 268.036 60.6024C268.349 60.1458 268.857 59.8674 269.405 59.8526C269.837 59.9193 270.236 60.1303 270.537 60.4525L272.201 61.9122C272.851 62.5021 273.639 63.132 274.555 63.8119C275.552 64.5453 276.617 65.1781 277.735 65.7015C280.716 67.0982 283.965 67.8018 287.248 67.7612C289.756 67.805 292.25 67.3744 294.603 66.4914C296.633 65.712 298.486 64.5214 300.049 62.992C301.536 61.5266 302.694 59.7534 303.446 57.7929C304.243 55.7434 304.644 53.5574 304.628 51.3541C304.712 49.202 304.193 47.0699 303.131 45.2052C302.119 43.5981 300.775 42.2336 299.192 41.2059C297.455 40.0798 295.59 39.1701 293.638 38.4964C291.561 37.7665 289.434 37.0566 287.238 36.3567C285.042 35.6569 282.925 34.887 280.847 34.0172C278.843 33.2003 276.968 32.0886 275.283 30.7177C273.634 29.3555 272.291 27.6511 271.344 25.7186C270.27 23.3597 269.757 20.7773 269.848 18.18C269.847 15.8416 270.295 13.5255 271.167 11.3612C272.05 9.18127 273.368 7.21035 275.037 5.57219C276.857 3.83014 278.999 2.47095 281.339 1.5729C284.067 0.500364 286.972 -0.0324521 289.896 0.00317504C293.203 -0.0489667 296.488 0.541542 299.576 1.74287C301.724 2.6307 303.723 3.84007 305.509 5.32674C306.688 6.30757 306.914 7.98801 306.213 9.35152Z" fill="#0364FF"/>
<path fill-rule="evenodd" clip-rule="evenodd" d="M6.74056 0C3.01785 0 0 3.01784 0 6.74055V14.5928C0 18.3155 3.01785 21.3333 6.74055 21.3333H18.6664V65.2594C18.6664 68.9821 21.6843 72 25.407 72H33.2592C36.9819 72 39.9998 68.9821 39.9998 65.2594V14.6499C39.9999 14.6308 40 14.6118 40 14.5928V6.74056C40 3.01785 36.9821 0 33.2594 0H25.407H6.74056Z" fill="#0364FF"/>
<path d="M56.0006 21.3333C61.8917 21.3333 66.6673 16.5577 66.6673 10.6667C66.6673 4.77563 61.8917 0 56.0006 0C50.1096 0 45.334 4.77563 45.334 10.6667C45.334 16.5577 50.1096 21.3333 56.0006 21.3333Z" fill="#1AC7FE"/>
<path d="M369 36.5659C369 31.6015 370.53 27.4937 373.591 24.2427C376.695 20.9916 380.597 19.3661 385.296 19.3661C389.995 19.3661 393.874 20.9916 396.935 24.2427C400.039 27.4937 401.591 31.6015 401.591 36.5659C401.591 41.5743 400.039 45.682 396.935 48.8891C393.874 52.1402 389.995 53.7657 385.296 53.7657C380.597 53.7657 376.695 52.1402 373.591 48.8891C370.53 45.6381 369 41.5303 369 36.5659ZM374.949 36.5659C374.949 40.0366 375.941 42.8483 377.924 45.001C379.907 47.1538 382.364 48.2301 385.296 48.2301C388.227 48.2301 390.684 47.1538 392.667 45.001C394.65 42.8483 395.642 40.0366 395.642 36.5659C395.642 33.1391 394.65 30.3494 392.667 28.1967C390.641 26 388.184 24.9017 385.296 24.9017C382.407 24.9017 379.95 26 377.924 28.1967C375.941 30.3494 374.949 33.1391 374.949 36.5659Z" fill="black"/>
<path d="M422.199 48.2301C425.044 48.2301 427.437 47.1318 429.377 44.9351C431.317 42.7824 432.287 39.9927 432.287 36.5659C432.287 33.1831 431.317 30.3933 429.377 28.1967C427.437 26 425.044 24.9017 422.199 24.9017C419.311 24.9017 416.896 26 414.957 28.1967C413.06 30.3933 412.111 33.1831 412.111 36.5659C412.111 39.9927 413.06 42.8044 414.957 45.001C416.896 47.1538 419.311 48.2301 422.199 48.2301ZM423.169 53.7657C420.841 53.7657 418.707 53.2605 416.767 52.25C414.899 51.2548 413.449 49.9401 412.417 48.3057C412.388 48.2589 412.336 48.2301 412.281 48.2301C412.189 48.2301 412.116 48.3075 412.121 48.3994L412.37 52.7113V64.9456C412.37 66.0502 411.475 66.9456 410.37 66.9456H408.421C407.316 66.9456 406.421 66.0502 406.421 64.9456V22.4205C406.421 21.3159 407.316 20.4205 408.421 20.4205H410.111C411.216 20.4205 412.111 21.3159 412.111 22.4205V24.7355C412.111 24.8273 412.186 24.9017 412.277 24.9017C412.335 24.9017 412.388 24.8718 412.419 24.8232C413.451 23.1902 414.9 21.8764 416.767 20.8818C418.707 19.8713 420.841 19.3661 423.169 19.3661C427.351 19.3661 430.886 21.0356 433.774 24.3745C436.749 27.7573 438.236 31.8211 438.236 36.5659C438.236 41.3546 436.749 45.4184 433.774 48.7573C430.886 52.0962 427.351 53.7657 423.169 53.7657Z" fill="black"/>
<path d="M457.911 53.7657C453.255 53.7657 449.419 52.1402 446.401 48.8891C443.383 45.6381 441.874 41.5303 441.874 36.5659C441.874 31.6454 443.34 27.5596 446.272 24.3086C449.203 21.0136 452.954 19.3661 457.523 19.3661C462.222 19.3661 465.951 20.9257 468.71 24.045C471.512 27.1203 472.913 31.4477 472.913 37.0272C472.877 37.4011 472.562 37.6862 472.187 37.6862H450.008C448.882 37.6862 447.958 38.6213 448.155 39.7298C448.553 41.9659 449.52 43.8328 451.057 45.3305C453.04 47.2636 455.411 48.2301 458.17 48.2301C461.395 48.2301 464.028 46.8332 466.069 44.0393C466.699 43.1771 467.846 42.8048 468.802 43.2801L470.569 44.1587C471.572 44.6573 471.981 45.8917 471.35 46.8172C470.052 48.7205 468.418 50.2679 466.447 51.4592C463.947 52.9969 461.101 53.7657 457.911 53.7657ZM449.167 30.3187C448.648 31.4845 449.612 32.6778 450.889 32.6778H464.416C465.581 32.6778 466.528 31.669 466.158 30.5643C465.717 29.2483 464.951 28.1076 463.86 27.1423C462.265 25.6485 460.11 24.9017 457.394 24.9017C455.152 24.9017 453.212 25.6046 451.574 27.0105C450.549 27.9137 449.747 29.0165 449.167 30.3187Z" fill="black"/>
<path d="M478.354 22.4205C478.354 21.3159 479.249 20.4205 480.354 20.4205H482.044C483.149 20.4205 484.044 21.3159 484.044 22.4205V24.7379C484.044 24.8284 484.118 24.9017 484.208 24.9017C484.267 24.9017 484.321 24.8702 484.351 24.8195C485.256 23.2744 486.62 21.9838 488.442 20.9477C490.338 19.8933 492.3 19.3661 494.326 19.3661C498.206 19.3661 501.181 20.5084 503.25 22.7929C505.362 25.0335 506.418 28.2406 506.418 32.4142V50.7113C506.418 51.8159 505.523 52.7113 504.418 52.7113H502.469C501.365 52.7113 500.469 51.8159 500.469 50.7113V32.8096C500.34 27.5377 497.732 24.9017 492.645 24.9017C490.274 24.9017 488.291 25.8902 486.696 27.8672C485.101 29.8002 484.303 32.1287 484.303 34.8525V50.7113C484.303 51.8159 483.408 52.7113 482.303 52.7113H480.354C479.249 52.7113 478.354 51.8159 478.354 50.7113V22.4205Z" fill="black"/>
<path d="M517.351 5.5272C518.455 5.5272 519.351 6.42263 519.351 7.5272V50.7113C519.351 51.8159 518.455 52.7113 517.351 52.7113H515.402C514.297 52.7113 513.402 51.8159 513.402 50.7113V7.5272C513.402 6.42263 514.297 5.5272 515.402 5.5272H517.351Z" fill="black"/>
<path d="M524.474 36.5659C524.474 31.6015 526.004 27.4937 529.065 24.2427C532.169 20.9916 536.07 19.3661 540.769 19.3661C545.468 19.3661 549.348 20.9916 552.409 24.2427C555.513 27.4937 557.065 31.6015 557.065 36.5659C557.065 41.5743 555.513 45.682 552.409 48.8891C549.348 52.1402 545.468 53.7657 540.769 53.7657C536.07 53.7657 532.169 52.1402 529.065 48.8891C526.004 45.6381 524.474 41.5303 524.474 36.5659ZM530.423 36.5659C530.423 40.0366 531.414 42.8483 533.397 45.001C535.38 47.1538 537.838 48.2301 540.769 48.2301C543.701 48.2301 546.158 47.1538 548.141 45.001C550.124 42.8483 551.116 40.0366 551.116 36.5659C551.116 33.1391 550.124 30.3494 548.141 28.1967C546.115 26 543.658 24.9017 540.769 24.9017C537.881 24.9017 535.424 26 533.397 28.1967C531.414 30.3494 530.423 33.1391 530.423 36.5659Z" fill="black"/>
<path d="M576.695 48.2301C579.626 48.2301 582.019 47.1538 583.873 45.001C585.813 42.8483 586.783 40.0366 586.783 36.5659C586.783 33.1831 585.813 30.3933 583.873 28.1967C581.976 26 579.583 24.9017 576.695 24.9017C573.85 24.9017 571.457 26 569.517 28.1967C567.577 30.3933 566.607 33.1831 566.607 36.5659C566.607 39.9927 567.577 42.7824 569.517 44.9351C571.457 47.1318 573.85 48.2301 576.695 48.2301ZM576.501 68C574.734 68 573.074 67.7584 571.522 67.2751C569.97 66.8358 568.547 66.1987 567.254 65.364C566.004 64.5293 564.926 63.5408 564.021 62.3985C563.498 61.7391 563.047 61.0357 562.668 60.2885C562.195 59.3543 562.698 58.2615 563.663 57.8545L565.602 57.0369C566.67 56.5865 567.877 57.1544 568.486 58.1407C569.115 59.1597 569.933 60.0298 570.94 60.751C572.535 61.8933 574.389 62.4644 576.501 62.4644C579.734 62.4644 582.256 61.4759 584.067 59.499C585.877 57.522 586.783 54.7981 586.783 51.3274V48.398C586.783 48.3053 586.708 48.2301 586.615 48.2301C586.558 48.2301 586.505 48.2588 586.474 48.3059C585.358 49.9837 583.844 51.3204 581.933 52.3159C580.036 53.2824 577.967 53.7657 575.725 53.7657C571.587 53.7657 568.03 52.1182 565.055 48.8232C562.124 45.4404 560.658 41.3546 560.658 36.5659C560.658 31.7772 562.124 27.7134 565.055 24.3745C568.03 21.0356 571.587 19.3661 575.725 19.3661C577.967 19.3661 580.036 19.8713 581.933 20.8818C583.844 21.834 585.358 23.1487 586.474 24.8258C586.505 24.873 586.558 24.9017 586.615 24.9017C586.708 24.9017 586.783 24.8265 586.783 24.7338V22.4205C586.783 21.3159 587.678 20.4205 588.783 20.4205H590.473C591.578 20.4205 592.473 21.3159 592.473 22.4205V51.3274C592.473 56.5115 591.029 60.5753 588.141 63.5188C585.209 66.5063 581.329 68 576.501 68Z" fill="black"/>
<path d="M607.422 9.28347C607.422 10.4697 607.012 11.4801 606.193 12.3149C605.374 13.1496 604.383 13.5669 603.219 13.5669C602.055 13.5669 601.063 13.1496 600.244 12.3149C599.425 11.4801 599.016 10.4697 599.016 9.28347C599.016 8.09728 599.425 7.08682 600.244 6.25209C601.063 5.41736 602.055 5 603.219 5C604.383 5 605.374 5.41736 606.193 6.25209C607.012 7.08682 607.422 8.09728 607.422 9.28347ZM604.193 20.4205C605.298 20.4205 606.193 21.3159 606.193 22.4205V50.7113C606.193 51.8159 605.298 52.7113 604.193 52.7113H602.244C601.14 52.7113 600.244 51.8159 600.244 50.7113V22.4205C600.244 21.3159 601.14 20.4205 602.244 20.4205H604.193Z" fill="black"/>
<path d="M613.935 22.4205C613.935 21.3159 614.831 20.4205 615.935 20.4205H617.626C618.731 20.4205 619.626 21.3159 619.626 22.4205V24.7379C619.626 24.8284 619.699 24.9017 619.79 24.9017C619.848 24.9017 619.903 24.8702 619.932 24.8195C620.838 23.2744 622.202 21.9838 624.023 20.9477C625.92 19.8933 627.882 19.3661 629.908 19.3661C633.788 19.3661 636.762 20.5084 638.831 22.7929C640.944 25.0335 642 28.2406 642 32.4142V50.7113C642 51.8159 641.105 52.7113 640 52.7113H638.051C636.946 52.7113 636.051 51.8159 636.051 50.7113V32.8096C635.922 27.5377 633.313 24.9017 628.226 24.9017C625.855 24.9017 623.872 25.8902 622.277 27.8672C620.682 29.8002 619.885 32.1287 619.885 34.8525V50.7113C619.885 51.8159 618.989 52.7113 617.885 52.7113H615.935C614.831 52.7113 613.935 51.8159 613.935 50.7113V22.4205Z" fill="black"/>
<path d="M339.098 5C340.81 5 342.197 6.38718 342.197 8.09836V64.9016C342.197 66.6128 340.81 68 339.098 68C337.387 68 336 66.6128 336 64.9016V8.09836C336 6.38718 337.387 5 339.098 5Z" fill="#BEBEBE"/>
</svg>
