<svg width="78" height="78" viewBox="0 0 78 78" fill="none" xmlns="http://www.w3.org/2000/svg">
<path fill-rule="evenodd" clip-rule="evenodd" d="M32.5 14.625C32.5 8.34276 37.5928 3.25 43.875 3.25C50.1572 3.25 55.25 8.34276 55.25 14.625C55.25 15.1753 55.2107 15.718 55.1344 16.25H68.25C71.8398 16.25 74.75 19.1601 74.75 22.75V34.1215C74.75 36.2332 73.4582 37.7119 72.197 38.4663C70.9561 39.2087 69.352 39.5255 67.8017 39.1422C67.4282 39.0498 67.0347 39 66.625 39C63.9326 39 61.75 41.1826 61.75 43.875C61.75 46.5674 63.9326 48.75 66.625 48.75C67.0347 48.75 67.4282 48.7002 67.8017 48.6078C69.352 48.2245 70.9561 48.5413 72.197 49.2837C73.4582 50.0381 74.75 51.5168 74.75 53.6285V68.25C74.75 71.8398 71.8398 74.75 68.25 74.75H53.6285C51.5168 74.75 50.0381 73.4582 49.2837 72.197C48.5413 70.9561 48.2245 69.352 48.6078 67.8017C48.7002 67.4282 48.75 67.0347 48.75 66.625C48.75 63.9326 46.5674 61.75 43.875 61.75C41.1826 61.75 39 63.9326 39 66.625C39 67.0347 39.0498 67.4282 39.1422 67.8017C39.5255 69.352 39.2087 70.9561 38.4663 72.197C37.7119 73.4582 36.2332 74.75 34.1215 74.75H22.75C19.1601 74.75 16.25 71.8398 16.25 68.25V55.1344C15.718 55.2107 15.1753 55.25 14.625 55.25C8.34276 55.25 3.25 50.1572 3.25 43.875C3.25 37.5928 8.34276 32.5 14.625 32.5C15.1753 32.5 15.718 32.5393 16.25 32.6156V22.75C16.25 19.1601 19.1601 16.25 22.75 16.25H32.6156C32.5393 15.718 32.5 15.1753 32.5 14.625ZM43.875 9.75C41.1826 9.75 39 11.9326 39 14.625C39 15.0347 39.0498 15.4282 39.1422 15.8017C39.5255 17.352 39.2087 18.9561 38.4663 20.197C37.7119 21.4582 36.2331 22.75 34.1215 22.75H22.75V34.1215C22.75 36.2331 21.4582 37.7119 20.197 38.4663C18.9561 39.2087 17.352 39.5255 15.8017 39.1422C15.4282 39.0498 15.0347 39 14.625 39C11.9326 39 9.75 41.1826 9.75 43.875C9.75 46.5674 11.9326 48.75 14.625 48.75C15.0347 48.75 15.4282 48.7002 15.8017 48.6078C17.352 48.2245 18.9561 48.5413 20.197 49.2837C21.4582 50.0381 22.75 51.5169 22.75 53.6285V68.25H32.6156C32.5393 67.718 32.5 67.1753 32.5 66.625C32.5 60.3428 37.5928 55.25 43.875 55.25C50.1572 55.25 55.25 60.3428 55.25 66.625C55.25 67.1753 55.2107 67.718 55.1344 68.25H68.25V55.1344C67.718 55.2107 67.1753 55.25 66.625 55.25C60.3428 55.25 55.25 50.1572 55.25 43.875C55.25 37.5928 60.3428 32.5 66.625 32.5C67.1753 32.5 67.718 32.5393 68.25 32.6156V22.75H53.6285C51.5169 22.75 50.0381 21.4582 49.2837 20.197C48.5413 18.9561 48.2245 17.352 48.6078 15.8017C48.7002 15.4282 48.75 15.0347 48.75 14.625C48.75 11.9326 46.5674 9.75 43.875 9.75Z" fill="white"/>
</svg>
