<svg width="78" height="78" viewBox="0 0 78 78" fill="none" xmlns="http://www.w3.org/2000/svg">
<path fill-rule="evenodd" clip-rule="evenodd" d="M50.2143 4.5589C53.666 3.57269 57.2637 5.57139 58.2499 9.02312C58.4158 9.60383 58.5 10.2048 58.5 10.8088V16.2502H65C68.5899 16.2502 71.5 19.1603 71.5 22.7502V61.7502C71.5 65.34 68.5899 68.2502 65 68.2502H13C9.41015 68.2502 6.5 65.34 6.5 61.7502H6.58679C6.52909 61.4007 6.5 61.0466 6.5 60.6916V21.9517C6.5 19.0495 8.42385 16.499 11.2143 15.7018L50.2143 4.5589ZM32.9552 61.7502H65V35.7502H58.5V49.5487C58.5 52.4508 56.5761 55.0013 53.7857 55.7986L32.9552 61.7502ZM58.5 22.7502H65V29.2502H58.5V22.7502ZM13 21.9516V60.6915L52 49.5486V10.8087L13 21.9516ZM45.5 29.2502C45.5 31.0451 44.0449 32.5002 42.25 32.5002C40.4551 32.5002 39 31.0451 39 29.2502C39 27.4553 40.4551 26.0002 42.25 26.0002C44.0449 26.0002 45.5 27.4553 45.5 29.2502Z" fill="white"/>
</svg>
