<svg width="32" height="32" viewBox="0 0 32 32" fill="none" xmlns="http://www.w3.org/2000/svg">
<rect width="32" height="32" rx="16" fill="#A2A5B5"/>
<path d="M22.2361 10.8518C21.0883 10.393 19.8573 10.055 18.5703 9.86147C18.5469 9.85773 18.5235 9.86707 18.5114 9.88574C18.3531 10.131 18.1777 10.4509 18.0549 10.7024C16.6707 10.5219 15.2935 10.5219 13.9376 10.7024C13.8148 10.4453 13.6331 10.131 13.4741 9.88574C13.462 9.86769 13.4386 9.85836 13.4151 9.86147C12.1288 10.0544 10.8979 10.3924 9.74931 10.8518C9.73937 10.8555 9.73084 10.8617 9.72519 10.8698C7.39037 13.9079 6.75077 16.8713 7.06454 19.7979C7.06596 19.8123 7.07519 19.826 7.08796 19.8347C8.62841 20.82 10.1206 21.4181 11.5851 21.8146C11.6085 21.8208 11.6333 21.8134 11.6483 21.7966C11.9947 21.3845 12.3035 20.9501 12.5682 20.4932C12.5839 20.4664 12.569 20.4347 12.537 20.4241C12.0472 20.2623 11.5808 20.065 11.1322 19.8409C11.0967 19.8228 11.0938 19.7786 11.1265 19.7575C11.2209 19.6959 11.3153 19.6317 11.4055 19.567C11.4218 19.5552 11.4445 19.5527 11.4637 19.5602C14.4111 20.7322 17.602 20.7322 20.5147 19.5602C20.5338 19.5521 20.5566 19.5546 20.5736 19.5664C20.6638 19.6311 20.7582 19.6959 20.8533 19.7575C20.8859 19.7786 20.8838 19.8228 20.8483 19.8409C20.3997 20.0693 19.9333 20.2623 19.4428 20.4235C19.4108 20.4341 19.3966 20.4664 19.4122 20.4932C19.6827 20.9494 19.9915 21.3839 20.3315 21.7959C20.3457 21.8134 20.3713 21.8208 20.3947 21.8146C21.8663 21.4181 23.3585 20.82 24.8989 19.8347C24.9124 19.826 24.9209 19.8129 24.9223 19.7986C25.2979 16.415 24.2934 13.4759 22.2596 10.8704C22.2546 10.8617 22.2461 10.8555 22.2361 10.8518ZM13.0084 18.0159C12.121 18.0159 11.3898 17.3064 11.3898 16.435C11.3898 15.5635 12.1068 14.854 13.0084 14.854C13.917 14.854 14.6411 15.5698 14.6269 16.435C14.6269 17.3064 13.9099 18.0159 13.0084 18.0159ZM18.9927 18.0159C18.1053 18.0159 17.3742 17.3064 17.3742 16.435C17.3742 15.5635 18.0911 14.854 18.9927 14.854C19.9013 14.854 20.6254 15.5698 20.6112 16.435C20.6112 17.3064 19.9013 18.0159 18.9927 18.0159Z" fill="white"/>
</svg>
