<svg width="32" height="32" viewBox="0 0 32 32" fill="none" xmlns="http://www.w3.org/2000/svg">
<rect width="32" height="32" rx="16" fill="#A2A5B5"/>
<path d="M22.2382 10.8505C21.0903 10.3917 19.8594 10.0538 18.5724 9.86019C18.549 9.85645 18.5255 9.86579 18.5135 9.88446C18.3552 10.1297 18.1798 10.4496 18.057 10.7011C16.6727 10.5206 15.2956 10.5206 13.9397 10.7011C13.8169 10.444 13.6352 10.1297 13.4761 9.88446C13.4641 9.86641 13.4406 9.85707 13.4172 9.86019C12.1309 10.0531 10.9 10.3911 9.75139 10.8505C9.74144 10.8542 9.73292 10.8604 9.72726 10.8685C7.39245 13.9066 6.75284 16.87 7.06661 19.7967C7.06803 19.811 7.07726 19.8247 7.09004 19.8334C8.63048 20.8187 10.1227 21.4168 11.5871 21.8133C11.6106 21.8196 11.6354 21.8121 11.6503 21.7953C11.9967 21.3832 12.3056 20.9488 12.5703 20.4919C12.5859 20.4652 12.571 20.4334 12.5391 20.4228C12.0493 20.261 11.5829 20.0637 11.1342 19.8396C11.0987 19.8216 11.0959 19.7774 11.1286 19.7562C11.223 19.6946 11.3174 19.6305 11.4075 19.5657C11.4239 19.5539 11.4466 19.5514 11.4658 19.5589C14.4132 20.7309 17.6041 20.7309 20.5167 19.5589C20.5359 19.5508 20.5586 19.5533 20.5757 19.5651C20.6658 19.6298 20.7603 19.6946 20.8554 19.7562C20.888 19.7774 20.8859 19.8216 20.8504 19.8396C20.4018 20.068 19.9354 20.261 19.4448 20.4222C19.4129 20.4328 19.3987 20.4652 19.4143 20.4919C19.6848 20.9481 19.9936 21.3826 20.3336 21.7947C20.3478 21.8121 20.3733 21.8196 20.3968 21.8133C21.8684 21.4168 23.3605 20.8187 24.901 19.8334C24.9145 19.8247 24.923 19.8116 24.9244 19.7973C25.2999 16.4137 24.2954 13.4746 22.2616 10.8691C22.2567 10.8604 22.2482 10.8542 22.2382 10.8505ZM13.0105 18.0146C12.1231 18.0146 11.3919 17.3051 11.3919 16.4337C11.3919 15.5623 12.1089 14.8527 13.0105 14.8527C13.9191 14.8527 14.6432 15.5685 14.629 16.4337C14.629 17.3051 13.912 18.0146 13.0105 18.0146ZM18.9948 18.0146C18.1074 18.0146 17.3762 17.3051 17.3762 16.4337C17.3762 15.5623 18.0932 14.8527 18.9948 14.8527C19.9034 14.8527 20.6275 15.5685 20.6133 16.4337C20.6133 17.3051 19.9034 18.0146 18.9948 18.0146Z" fill="#2F3136"/>
</svg>
