<svg width="32" height="32" viewBox="0 0 32 32" fill="none" xmlns="http://www.w3.org/2000/svg">
<path fill-rule="evenodd" clip-rule="evenodd" d="M16 0C7.16344 0 0 7.16344 0 16C0 23.4593 5.10454 29.7264 12.0111 31.4988V31.499C13.2862 31.8263 14.6228 32.0003 16.0001 32.0003C17.3808 32.0003 18.7207 31.8254 19.9988 31.4965C19.9988 31.4964 19.9988 31.4963 19.9988 31.4962C26.9003 29.7205 32 23.4558 32 16C32 7.16344 24.8366 0 16 0ZM19.9988 31.4962C19.9965 30.5228 19.9919 28.3337 19.9919 26.673C19.9919 25.1248 19.4881 24.1469 18.9048 23.6309C22.4842 23.2234 26.2227 21.8382 26.2227 15.5367C26.2227 13.7441 25.6129 12.2773 24.5788 11.1365C24.7379 10.7291 25.2947 9.0451 24.4197 6.79068C24.4197 6.79068 23.0675 6.3561 20.0184 8.4747C18.7457 8.1216 17.3669 7.93147 16.0147 7.93147C14.6625 7.93147 13.2837 8.1216 12.0111 8.4747C8.96191 6.3561 7.60968 6.79068 7.60968 6.79068C6.73471 9.0451 7.29151 10.7291 7.4506 11.1365C6.44306 12.2773 5.80671 13.7441 5.80671 15.5367C5.80671 21.8382 9.54523 23.2506 13.0981 23.6309C12.6474 24.0383 12.2232 24.7717 12.0906 25.831C11.1626 26.2656 8.85586 26.9718 7.42408 24.4729C7.42408 24.4729 6.57563 22.8975 4.95825 22.7889C4.95825 22.7889 3.39391 22.7889 4.8522 23.7938C4.8522 23.7938 5.91277 24.2828 6.62865 26.1841C6.62865 26.1841 7.55666 29.1175 12.0111 28.1397V31.4988C13.2862 31.826 14.6228 32 16 32C17.3808 32 18.7207 31.8251 19.9988 31.4962Z" fill="#A2A5B5"/>
<path d="M6.07084 23.5501C6.04433 23.6315 5.91176 23.6587 5.8057 23.6044C5.69964 23.5501 5.6201 23.4414 5.67313 23.3599C5.69964 23.2784 5.83221 23.2513 5.93827 23.3056C6.04433 23.3599 6.09736 23.4686 6.07084 23.5501ZM6.70719 24.2834C6.62764 24.3649 6.46856 24.3106 6.38901 24.2019C6.28296 24.0933 6.25644 23.9303 6.33599 23.8488C6.41553 23.7674 6.5481 23.8217 6.65416 23.9303C6.76021 24.0661 6.78673 24.2291 6.70719 24.2834ZM7.34353 25.2341C7.23747 25.3156 7.07839 25.2341 6.99884 25.0983C6.89279 24.9625 6.89279 24.7723 6.99884 24.718C7.1049 24.6365 7.26399 24.718 7.34353 24.8538C7.44959 24.9896 7.44959 25.1526 7.34353 25.2341ZM8.2185 26.1576C8.13896 26.2662 7.95336 26.2391 7.79427 26.1033C7.6617 25.9674 7.60867 25.7773 7.71473 25.6958C7.79427 25.5872 7.97987 25.6143 8.13896 25.7502C8.27153 25.8588 8.29804 26.0489 8.2185 26.1576ZM9.41164 26.6737C9.38513 26.8095 9.19953 26.8638 9.01393 26.8095C8.82833 26.7551 8.72227 26.5922 8.74878 26.4835C8.7753 26.3477 8.9609 26.2934 9.1465 26.3477C9.3321 26.402 9.43816 26.5378 9.41164 26.6737ZM10.7108 26.7823C10.7108 26.9181 10.5518 27.0268 10.3662 27.0268C10.1806 27.0268 10.0215 26.9181 10.0215 26.7823C10.0215 26.6465 10.1806 26.5378 10.3662 26.5378C10.5518 26.5378 10.7108 26.6465 10.7108 26.7823ZM11.9305 26.565C11.957 26.7008 11.8244 26.8366 11.6388 26.8638C11.4532 26.8909 11.2942 26.8095 11.2676 26.6737C11.2411 26.5378 11.3737 26.402 11.5593 26.3749C11.7449 26.3477 11.904 26.4292 11.9305 26.565Z" fill="#A2A5B5"/>
</svg>
