<svg width="32" height="32" viewBox="0 0 32 32" fill="none" xmlns="http://www.w3.org/2000/svg">
<path fill-rule="evenodd" clip-rule="evenodd" d="M32 16C32 7.16344 24.8366 0 16 0C7.16344 0 0 7.16344 0 16C0 23.4593 5.10451 29.7264 12.011 31.4988V31.4988C12.7748 31.6948 13.5606 31.8358 14.3641 31.9174C13.5607 31.8358 12.7748 31.6948 12.011 31.4988V28.1394C7.55656 29.1172 6.62856 26.1838 6.62856 26.1838C5.91268 24.2825 4.85211 23.7936 4.85211 23.7936C3.39382 22.7886 4.95816 22.7886 4.95816 22.7886C6.57553 22.8972 7.42399 24.4726 7.42399 24.4726C8.85576 26.9715 11.1625 26.2653 12.0905 25.8307C12.2231 24.7714 12.6473 24.038 13.098 23.6306C9.54514 23.2503 5.80662 21.8379 5.80662 15.5364C5.80662 13.7438 6.44296 12.277 7.45051 11.1363C7.29142 10.7288 6.73462 9.04481 7.60959 6.7904C7.60959 6.7904 8.96182 6.35582 12.011 8.47442C13.2836 8.12132 14.6624 7.93119 16.0146 7.93119C17.3668 7.93119 18.7456 8.12132 20.0183 8.47442C23.0674 6.35582 24.4197 6.7904 24.4197 6.7904C25.2946 9.04481 24.7378 10.7288 24.5787 11.1363C25.6128 12.277 26.2226 13.7438 26.2226 15.5364C26.2226 21.8379 22.4841 23.2232 18.9047 23.6306C19.488 24.1467 19.9918 25.1245 19.9918 26.6727C19.9918 28.3336 19.9965 30.5229 19.9988 31.4962C19.6155 31.5949 19.2265 31.6797 18.8326 31.75C19.2265 31.6797 19.6154 31.5949 19.9988 31.4963C19.9988 31.4963 19.9988 31.4963 19.9988 31.4962C26.9003 29.7205 32 23.4558 32 16ZM6.07164 23.5481C6.04512 23.6296 5.91255 23.6568 5.80649 23.6024C5.70044 23.5481 5.62089 23.4395 5.67392 23.358C5.70044 23.2765 5.83301 23.2493 5.93907 23.3037C6.04512 23.358 6.09815 23.4666 6.07164 23.5481ZM6.70798 24.2815C6.62844 24.363 6.46935 24.3086 6.38981 24.2C6.28375 24.0913 6.25724 23.9284 6.33678 23.8469C6.41632 23.7654 6.54889 23.8197 6.65495 23.9284C6.76101 24.0642 6.78752 24.2271 6.70798 24.2815ZM7.34432 25.2321C7.23826 25.3136 7.07918 25.2321 6.99964 25.0963C6.89358 24.9605 6.89358 24.7704 6.99964 24.7161C7.10569 24.6346 7.26478 24.7161 7.34432 24.8519C7.45038 24.9877 7.45038 25.1506 7.34432 25.2321ZM8.21929 26.1556C8.13975 26.2643 7.95415 26.2371 7.79506 26.1013C7.66249 25.9655 7.60946 25.7754 7.71552 25.6939C7.79506 25.5852 7.98066 25.6124 8.13975 25.7482C8.27232 25.8568 8.29884 26.047 8.21929 26.1556ZM9.41243 26.6717C9.38592 26.8075 9.20032 26.8618 9.01472 26.8075C8.82912 26.7532 8.72306 26.5902 8.74958 26.4816C8.77609 26.3458 8.96169 26.2914 9.14729 26.3458C9.33289 26.4001 9.43895 26.5359 9.41243 26.6717ZM10.7116 26.7803C10.7116 26.9162 10.5525 27.0248 10.3669 27.0248C10.1813 27.0248 10.0223 26.9162 10.0223 26.7803C10.0223 26.6445 10.1813 26.5359 10.3669 26.5359C10.5525 26.5359 10.7116 26.6445 10.7116 26.7803ZM11.9313 26.5631C11.9578 26.6989 11.8252 26.8347 11.6396 26.8618C11.454 26.889 11.2949 26.8075 11.2684 26.6717C11.2419 26.5359 11.3745 26.4001 11.5601 26.3729C11.7457 26.3458 11.9048 26.4272 11.9313 26.5631Z" fill="#A2A5B5"/>
</svg>
