<svg width="32" height="32" viewBox="0 0 32 32" fill="none" xmlns="http://www.w3.org/2000/svg">
<rect width="32" height="32" rx="16" fill="#A2A5B5"/>
<path d="M23.9991 24H20.688V18.8035C20.688 17.5644 20.6629 15.9697 18.9626 15.9697C17.2363 15.9697 16.9726 17.318 16.9726 18.7121V24H13.6616V13.314H16.8422V14.7706H16.8851C17.3295 13.9308 18.4102 13.0444 20.0247 13.0444C23.3795 13.0444 24 15.2558 24 18.1345L23.9991 24ZM9.92198 11.8519C9.66939 11.852 9.41925 11.8022 9.18589 11.7054C8.95253 11.6086 8.74052 11.4666 8.562 11.2877C8.38348 11.1087 8.24195 10.8962 8.14552 10.6624C8.04908 10.4286 7.99963 10.178 8 9.925C8.00019 9.54409 8.11314 9.17178 8.32459 8.85517C8.53603 8.53855 8.83647 8.29185 9.1879 8.14625C9.53934 8.00065 9.92599 7.9627 10.299 8.03719C10.6719 8.11168 11.0145 8.29528 11.2833 8.56475C11.5521 8.83423 11.735 9.17749 11.809 9.55112C11.8831 9.92475 11.8448 10.312 11.6991 10.6638C11.5534 11.0157 11.3068 11.3163 10.9904 11.5278C10.6741 11.7393 10.3023 11.8521 9.92198 11.8519ZM11.5822 24H8.26179V13.314H11.5822V24Z" fill="#2F3136"/>
</svg>
