<svg width="32" height="32" viewBox="0 0 32 32" fill="none" xmlns="http://www.w3.org/2000/svg">
<path fill-rule="evenodd" clip-rule="evenodd" d="M16 32C24.8366 32 32 24.8366 32 16C32 7.16344 24.8366 0 16 0C7.16344 0 0 7.16344 0 16C0 24.8366 7.16344 32 16 32ZM7.15699 15.8608L21.3398 9.71893C22.0615 9.40639 22.8449 10.0108 22.7257 10.7882L20.7869 23.4263C20.6751 24.1548 19.8404 24.5162 19.2327 24.0992L13.7029 20.3049C13.2083 19.9655 13.1216 19.2701 13.5179 18.8198L16.2751 15.686C16.6637 15.2443 16.1031 14.6109 15.6175 14.943L10.3577 18.5394C10.0779 18.7307 9.72037 18.7673 9.40769 18.6366L7.16883 17.7011C6.35527 17.3612 6.34787 16.2112 7.15699 15.8608Z" fill="#A2A5B5"/>
</svg>
