<svg width="32" height="32" viewBox="0 0 32 32" fill="none" xmlns="http://www.w3.org/2000/svg">
<rect width="32" height="32" rx="16" fill="#A2A5B5"/>
<path d="M24 11.5787C23.4026 11.8505 22.7669 12.0291 22.1153 12.108C22.8054 11.6821 23.318 11.021 23.5587 10.2467C22.9161 10.6377 22.2101 10.9136 21.4727 11.062C21.1695 10.7278 20.7997 10.4607 20.3872 10.2778C19.9747 10.0949 19.5286 10.0003 19.0773 10C17.2653 10 15.796 11.5067 15.796 13.366C15.796 13.63 15.824 13.886 15.88 14.1327C13.152 13.992 10.7333 12.6527 9.11333 10.6147C8.82122 11.1311 8.66823 11.7146 8.66933 12.308C8.66933 13.4753 9.24933 14.506 10.1293 15.11C9.60705 15.0926 9.09684 14.9485 8.64267 14.69V14.7313C8.64267 16.3627 9.774 17.7233 11.276 18.0313C10.9949 18.111 10.7041 18.151 10.412 18.15C10.2007 18.15 9.994 18.13 9.794 18.09C10.2113 19.4273 11.4233 20.4007 12.86 20.4267C12.1848 20.973 11.4066 21.3781 10.5717 21.6178C9.7368 21.8575 8.86225 21.927 8 21.822C9.49327 22.8074 11.2429 23.3329 13.032 23.3333C19.0707 23.3333 22.372 18.2053 22.372 13.7567C22.372 13.61 22.3687 13.464 22.3633 13.3207C23.0047 12.846 23.5613 12.254 24 11.5787Z" fill="white"/>
</svg>
