<svg width="32" height="32" viewBox="0 0 32 32" fill="none" xmlns="http://www.w3.org/2000/svg">
<path fill-rule="evenodd" clip-rule="evenodd" d="M16 0C24.8366 0 32 7.16344 32 16C32 24.8366 24.8366 32 16 32C7.16344 32 0 24.8366 0 16C0 7.16344 7.16344 0 16 0ZM7 13.522C7 11.5768 8.67372 10 10.7384 10H21.2616C23.3263 10 25 11.5768 25 13.522V18.478C25 20.4232 23.3263 22 21.2616 22H10.7384C8.67372 22 7 20.4232 7 18.478V13.522ZM13.8113 18.4528L18.7334 16.2411C18.8815 16.1746 18.884 15.9769 18.7377 15.907L13.8156 13.5572C13.6842 13.4944 13.5287 13.5844 13.5287 13.7232V18.2847C13.5287 18.4216 13.6802 18.5117 13.8113 18.4528Z" fill="#A2A5B5"/>
</svg>
