<svg width="32" height="32" viewBox="0 0 32 32" fill="none" xmlns="http://www.w3.org/2000/svg">
<rect width="32" height="32" rx="16" fill="#A2A5B5"/>
<path d="M21.2616 10H10.7384C8.67372 10 7 11.5768 7 13.522V18.478C7 20.4232 8.67372 22 10.7384 22H21.2616C23.3263 22 25 20.4232 25 18.478V13.522C25 11.5768 23.3263 10 21.2616 10ZM18.7334 16.2411L13.8113 18.4528C13.6802 18.5117 13.5287 18.4216 13.5287 18.2847V13.7232C13.5287 13.5844 13.6842 13.4944 13.8156 13.5572L18.7377 15.907C18.884 15.9769 18.8815 16.1746 18.7334 16.2411Z" fill="#2F3136"/>
</svg>
