<svg width="24" height="24" viewBox="0 0 24 24" fill="none" xmlns="http://www.w3.org/2000/svg">
<path fill-rule="evenodd" clip-rule="evenodd" d="M14.8992 0.400391C15.2192 0.400287 15.5302 0.506042 15.7838 0.701174C16.0374 0.896306 16.2194 1.16985 16.3013 1.47919L18.0109 7.94039L22.8742 10.7447C23.0946 10.872 23.2776 11.055 23.4048 11.2754C23.5321 11.4958 23.5991 11.7459 23.5991 12.0004C23.5991 12.2549 23.5321 12.5049 23.4048 12.7254C23.2776 12.9458 23.0946 13.1288 22.8742 13.2561L18.0109 16.0618L16.2999 22.5216C16.2178 22.8306 16.0359 23.1039 15.7824 23.2988C15.529 23.4937 15.2182 23.5994 14.8984 23.5994C14.5787 23.5994 14.2679 23.4937 14.0144 23.2988C13.761 23.1039 13.5791 22.8306 13.497 22.5216L11.7875 16.0604L6.92416 13.2561C6.70374 13.1288 6.52072 12.9458 6.39346 12.7254C6.26621 12.5049 6.19922 12.2549 6.19922 12.0004C6.19922 11.7459 6.26621 11.4958 6.39346 11.2754C6.52072 11.055 6.70374 10.872 6.92416 10.7447L11.7875 7.93894L13.4985 1.47919C13.5803 1.17009 13.762 0.896724 14.0154 0.701616C14.2687 0.506509 14.5794 0.400607 14.8992 0.400391Z" fill="#1C64F2"/>
<path d="M5.77374 15.3251C5.50181 15.0532 5.133 14.9004 4.74844 14.9004C4.36387 14.9004 3.99506 15.0532 3.72313 15.3251C3.45121 15.597 3.29844 15.9658 3.29844 16.3504V17.8004H1.84844C1.46387 17.8004 1.09506 17.9532 0.823133 18.2251C0.551205 18.497 0.398438 18.8658 0.398438 19.2504C0.398438 19.635 0.551205 20.0038 0.823133 20.2757C1.09506 20.5476 1.46387 20.7004 1.84844 20.7004H3.29844V22.1504C3.29844 22.535 3.45121 22.9038 3.72313 23.1757C3.99506 23.4476 4.36387 23.6004 4.74844 23.6004C5.133 23.6004 5.50181 23.4476 5.77374 23.1757C6.04567 22.9038 6.19844 22.535 6.19844 22.1504V20.7004H7.64844C8.033 20.7004 8.40181 20.5476 8.67374 20.2757C8.94567 20.0038 9.09844 19.635 9.09844 19.2504C9.09844 18.8658 8.94567 18.497 8.67374 18.2251C8.40181 17.9532 8.033 17.8004 7.64844 17.8004H6.19844V16.3504C6.19844 15.9658 6.04567 15.597 5.77374 15.3251Z" fill="#76A9FA"/>
<path d="M5.77374 0.825086C5.50181 0.553158 5.133 0.400391 4.74844 0.400391C4.36387 0.400391 3.99506 0.553158 3.72313 0.825086C3.45121 1.09701 3.29844 1.46583 3.29844 1.85039V3.30039H1.84844C1.46387 3.30039 1.09506 3.45316 0.823133 3.72509C0.551205 3.99701 0.398438 4.36583 0.398438 4.75039C0.398438 5.13495 0.551205 5.50377 0.823133 5.7757C1.09506 6.04762 1.46387 6.20039 1.84844 6.20039H3.29844V7.65039C3.29844 8.03495 3.45121 8.40377 3.72313 8.6757C3.99506 8.94762 4.36387 9.10039 4.74844 9.10039C5.133 9.10039 5.50181 8.94762 5.77374 8.6757C6.04567 8.40377 6.19844 8.03495 6.19844 7.65039V6.20039H7.64844C8.033 6.20039 8.40181 6.04762 8.67374 5.7757C8.94567 5.50377 9.09844 5.13495 9.09844 4.75039C9.09844 4.36583 8.94567 3.99701 8.67374 3.72509C8.40181 3.45316 8.033 3.30039 7.64844 3.30039H6.19844V1.85039C6.19844 1.46583 6.04567 1.09701 5.77374 0.825086Z" fill="#A4CAFE"/>
</svg>
