<svg width="32" height="32" viewBox="0 0 32 32" fill="none" xmlns="http://www.w3.org/2000/svg">
<path fill-rule="evenodd" clip-rule="evenodd" d="M11.3782 4.2216C11.228 4.29454 11.228 4.50847 11.3782 4.5814L15.9243 6.78958C16.0899 6.86998 16.2831 6.86998 16.4486 6.78958L20.9948 4.5814C21.1449 4.50847 21.1449 4.29454 20.9948 4.2216L16.4486 2.01342C16.2831 1.93303 16.0899 1.93303 15.9243 2.01342L11.3782 4.2216ZM11.2952 5.17015C11.1623 5.10566 11.0078 5.2024 11.0078 5.35007V10.438C11.0078 10.5912 11.0953 10.7309 11.2331 10.7978L15.9244 13.0758C16.0899 13.1561 16.2831 13.1561 16.4486 13.0758L21.1399 10.7978C21.2777 10.7309 21.3652 10.5912 21.3652 10.438V5.35007C21.3652 5.2024 21.2106 5.10566 21.0778 5.17015L16.4486 7.41795C16.2831 7.4983 16.0899 7.4983 15.9244 7.41795L11.2952 5.17015Z" fill="#1C64F2"/>
<path fill-rule="evenodd" clip-rule="evenodd" d="M11.3782 20.1318C11.228 20.2047 11.228 20.4186 11.3782 20.4916L15.9243 22.6997C16.0899 22.7801 16.2831 22.7801 16.4486 22.6997L20.9948 20.4916C21.1449 20.4186 21.1449 20.2047 20.9948 20.1318L16.4486 17.9236C16.2831 17.8432 16.0899 17.8432 15.9243 17.9236L11.3782 20.1318ZM11.2952 21.0803C11.1623 21.0158 11.0078 21.1126 11.0078 21.2602V26.3482C11.0078 26.5013 11.0953 26.6411 11.2331 26.708L15.9244 28.9859C16.0899 29.0663 16.2831 29.0663 16.4486 28.9859L21.1399 26.708C21.2777 26.6411 21.3652 26.5013 21.3652 26.3482V21.2602C21.3652 21.1126 21.2106 21.0158 21.0778 21.0803L16.4486 23.3281C16.2831 23.4085 16.0899 23.4085 15.9244 23.3281L11.2952 21.0803Z" fill="#1C64F2"/>
<path fill-rule="evenodd" clip-rule="evenodd" d="M21.3938 12.1777C21.2437 12.2506 21.2437 12.4645 21.3938 12.5375L25.94 14.7456C26.1055 14.826 26.2987 14.826 26.4643 14.7456L31.0104 12.5375C31.1606 12.4645 31.1606 12.2506 31.0104 12.1777L26.4643 9.96948C26.2987 9.88908 26.1055 9.88908 25.94 9.96948L21.3938 12.1777ZM21.3108 13.1262C21.178 13.0617 21.0234 13.1585 21.0234 13.3061V18.394C21.0234 18.5472 21.1109 18.687 21.2487 18.7539L25.94 21.0318C26.1055 21.1122 26.2987 21.1122 26.4642 21.0318L31.1555 18.7539C31.2933 18.687 31.3808 18.5472 31.3808 18.394V13.3061C31.3808 13.1585 31.2262 13.0617 31.0934 13.1262L26.4642 15.374C26.2987 15.4544 26.1055 15.4544 25.94 15.374L21.3108 13.1262Z" fill="#1C64F2"/>
<path fill-rule="evenodd" clip-rule="evenodd" d="M1.37038 12.1777C1.22022 12.2506 1.22022 12.4645 1.37038 12.5375L5.91652 14.7456C6.08204 14.826 6.2753 14.826 6.44082 14.7456L10.987 12.5375C11.1371 12.4645 11.1371 12.2506 10.987 12.1777L6.44082 9.96948C6.2753 9.88908 6.08204 9.88908 5.91652 9.96948L1.37038 12.1777ZM1.28736 13.1262C1.15453 13.0617 1 13.1585 1 13.3061V18.394C1 18.5472 1.08748 18.687 1.22528 18.7539L5.91659 21.0318C6.08207 21.1122 6.27527 21.1122 6.44075 21.0318L11.1321 18.7539C11.2699 18.687 11.3573 18.5472 11.3573 18.394V13.3061C11.3573 13.1585 11.2028 13.0617 11.07 13.1262L6.44075 15.374C6.27527 15.4544 6.08207 15.4544 5.91659 15.374L1.28736 13.1262Z" fill="#1C64F2"/>
</svg>
