<svg width="33" height="32" viewBox="0 0 33 32" fill="none" xmlns="http://www.w3.org/2000/svg">
<rect x="4" y="5" width="26" height="22" rx="4" fill="#76A9FA"/>
<rect x="23" y="13" width="9" height="6" rx="3" fill="#1C64F2"/>
<circle cx="6.5" cy="24.5" r="5.5" fill="#1C64F2"/>
<g clip-path="url(#clip0_1454_15409)">
<path fill-rule="evenodd" clip-rule="evenodd" d="M7.4059 22.6047C7.47047 22.5378 7.54771 22.4845 7.63311 22.4478C7.71852 22.4111 7.81037 22.3918 7.90332 22.391C7.99626 22.3902 8.08844 22.4079 8.17447 22.4431C8.26049 22.4783 8.33865 22.5303 8.40437 22.596C8.4701 22.6617 8.52208 22.7399 8.55727 22.8259C8.59247 22.912 8.61018 23.0041 8.60937 23.0971C8.60857 23.19 8.58925 23.2819 8.55257 23.3673C8.51588 23.4527 8.46255 23.5299 8.3957 23.5945L7.3457 24.6445C7.21443 24.7757 7.03641 24.8494 6.8508 24.8494C6.66518 24.8494 6.48717 24.7757 6.3559 24.6445C6.28989 24.5807 6.20148 24.5455 6.10971 24.5463C6.01794 24.5471 5.93015 24.5839 5.86526 24.6488C5.80037 24.7136 5.76356 24.8014 5.76276 24.8932C5.76196 24.985 5.79724 25.0734 5.861 25.1394C6.12354 25.4019 6.47957 25.5493 6.8508 25.5493C7.22203 25.5493 7.57806 25.4019 7.8406 25.1394L8.8906 24.0894C9.14562 23.8254 9.28673 23.4717 9.28354 23.1046C9.28035 22.7376 9.13311 22.3864 8.87354 22.1268C8.61397 21.8673 8.26283 21.72 7.89576 21.7168C7.52868 21.7137 7.17504 21.8548 6.911 22.1098L6.386 22.6348C6.35257 22.6671 6.32591 22.7057 6.30756 22.7484C6.28922 22.7911 6.27956 22.837 6.27916 22.8835C6.27876 22.93 6.28761 22.9761 6.30521 23.0191C6.32281 23.0621 6.3488 23.1012 6.38166 23.134C6.41452 23.1669 6.4536 23.1929 6.49661 23.2105C6.53963 23.2281 6.58572 23.2369 6.63219 23.2365C6.67866 23.2361 6.72459 23.2265 6.76729 23.2081C6.80999 23.1898 6.84861 23.1631 6.8809 23.1297L7.4059 22.6047ZM5.6559 24.3547C5.78717 24.2235 5.96518 24.1497 6.1508 24.1497C6.33641 24.1497 6.51443 24.2235 6.6457 24.3547C6.67798 24.3881 6.7166 24.4148 6.75931 24.4331C6.80201 24.4515 6.84793 24.4611 6.89441 24.4615C6.94088 24.4619 6.98697 24.4531 7.02998 24.4355C7.07299 24.4179 7.11207 24.3919 7.14494 24.359C7.1778 24.3262 7.20379 24.2871 7.22139 24.2441C7.23898 24.2011 7.24784 24.155 7.24743 24.1085C7.24703 24.062 7.23738 24.0161 7.21903 23.9734C7.20069 23.9307 7.17403 23.8921 7.1406 23.8598C6.87806 23.5973 6.52203 23.4499 6.1508 23.4499C5.77957 23.4499 5.42354 23.5973 5.161 23.8598L4.111 24.9098C3.97728 25.0389 3.87063 25.1934 3.79726 25.3642C3.72388 25.535 3.68526 25.7187 3.68365 25.9046C3.68203 26.0905 3.71745 26.2749 3.78785 26.4469C3.85824 26.619 3.96219 26.7753 4.09364 26.9067C4.22509 27.0382 4.38141 27.1422 4.55346 27.2125C4.72552 27.2829 4.90987 27.3184 5.09576 27.3167C5.28165 27.3151 5.46536 27.2765 5.63616 27.2031C5.80697 27.1298 5.96145 27.0231 6.0906 26.8894L6.6156 26.3644C6.64903 26.3321 6.67569 26.2935 6.69403 26.2508C6.71238 26.2081 6.72203 26.1622 6.72243 26.1157C6.72284 26.0692 6.71398 26.0231 6.69638 25.9801C6.67879 25.9371 6.6528 25.898 6.61994 25.8652C6.58707 25.8323 6.548 25.8063 6.50498 25.7887C6.46197 25.7711 6.41588 25.7623 6.36941 25.7627C6.32293 25.7631 6.27701 25.7727 6.23431 25.7911C6.1916 25.8094 6.15298 25.8361 6.1207 25.8695L5.5957 26.3945C5.53112 26.4614 5.45388 26.5147 5.36848 26.5514C5.28308 26.5881 5.19122 26.6074 5.09828 26.6082C5.00533 26.609 4.91316 26.5913 4.82713 26.5561C4.7411 26.5209 4.66295 26.4689 4.59722 26.4032C4.5315 26.3374 4.47952 26.2593 4.44432 26.1733C4.40913 26.0872 4.39141 25.9951 4.39222 25.9021C4.39303 25.8092 4.41234 25.7173 4.44903 25.6319C4.48571 25.5465 4.53904 25.4693 4.6059 25.4047L5.6559 24.3547Z" fill="white"/>
</g>
<defs>
<clipPath id="clip0_1454_15409">
<rect width="7" height="7" fill="white" transform="translate(3 21)"/>
</clipPath>
</defs>
</svg>
