<svg width="32" height="32" viewBox="0 0 32 32" fill="none" xmlns="http://www.w3.org/2000/svg">
<path fill-rule="evenodd" clip-rule="evenodd" d="M25.5981 28.8002H19.3401C17.5583 28.8002 16.666 26.6459 17.9259 25.386L23.5259 19.786C23.901 19.4109 24.4097 19.2002 24.9401 19.2002H25.5981C26.4468 19.2002 27.2607 19.5373 27.8609 20.1375C28.461 20.7376 28.7981 21.5515 28.7981 22.4002V25.6002C28.7981 26.4489 28.461 27.2628 27.8609 27.8629C27.2607 28.4631 26.4468 28.8002 25.5981 28.8002Z" fill="#1C64F2"/>
<path fill-rule="evenodd" clip-rule="evenodd" d="M16 17.9609C16 19.7427 18.1543 20.6351 19.4142 19.3751L23.84 14.9493C24.4399 14.3493 24.7769 13.5355 24.7769 12.6869C24.7769 11.8384 24.4399 11.0246 23.84 10.4245L21.576 8.16055C20.9759 7.56064 20.1621 7.22363 19.3136 7.22363C18.4651 7.22363 17.6513 7.56064 17.0512 8.16055L16.5858 8.62596C16.2107 9.00104 16 9.50974 16 10.0402V17.9609Z" fill="#1C64F2"/>
<path fill-rule="evenodd" clip-rule="evenodd" d="M6.39922 3.2002C5.55053 3.2002 4.73659 3.53734 4.13648 4.13745C3.53636 4.73757 3.19922 5.5515 3.19922 6.4002V24.0002C3.19922 25.2732 3.70493 26.4941 4.60511 27.3943C5.50528 28.2945 6.72618 28.8002 7.99922 28.8002C9.27226 28.8002 10.4932 28.2945 11.3933 27.3943C12.2935 26.4941 12.7992 25.2732 12.7992 24.0002V6.4002C12.7992 5.5515 12.4621 4.73757 11.862 4.13745C11.2618 3.53734 10.4479 3.2002 9.59922 3.2002H6.39922ZM7.99922 25.6002C8.42356 25.6002 8.83053 25.4316 9.13059 25.1316C9.43065 24.8315 9.59922 24.4245 9.59922 24.0002C9.59922 23.5758 9.43065 23.1689 9.13059 22.8688C8.83053 22.5688 8.42356 22.4002 7.99922 22.4002C7.57487 22.4002 7.16791 22.5688 6.86785 22.8688C6.56779 23.1689 6.39922 23.5758 6.39922 24.0002C6.39922 24.4245 6.56779 24.8315 6.86785 25.1316C7.16791 25.4316 7.57487 25.6002 7.99922 25.6002Z" fill="#1C64F2"/>
</svg>
