<svg width="36" height="36" viewBox="0 0 36 36" fill="none" xmlns="http://www.w3.org/2000/svg">
<path d="M19.6102 4.59504C19.4606 4.29646 19.2308 4.04539 18.9466 3.86994C18.6624 3.69449 18.335 3.60156 18.001 3.60156C17.667 3.60156 17.3396 3.69449 17.0554 3.86994C16.7712 4.04539 16.5415 4.29646 16.3918 4.59504L3.79183 29.795C3.63548 30.1075 3.57346 30.4587 3.61331 30.8058C3.65317 31.1529 3.79318 31.4809 4.01627 31.7498C4.23936 32.0187 4.53589 32.2169 4.86967 32.3201C5.20346 32.4233 5.56008 32.4272 5.89603 32.3312L14.896 29.759C15.2722 29.6514 15.603 29.4242 15.8385 29.1118C16.074 28.7993 16.2012 28.4187 16.201 28.0274V19.7996C16.201 19.3223 16.3907 18.8644 16.7282 18.5268C17.0658 18.1893 17.5236 17.9996 18.001 17.9996C18.4784 17.9996 18.9363 18.1893 19.2738 18.5268C19.6114 18.8644 19.801 19.3223 19.801 19.7996V28.0274C19.8008 28.4187 19.9281 28.7993 20.1635 29.1118C20.399 29.4242 20.7299 29.6514 21.106 29.759L30.106 32.3294C30.4419 32.4256 30.7984 32.422 31.1322 32.319C31.4661 32.216 31.7627 32.0181 31.9859 31.7494C32.2092 31.4807 32.3495 31.1529 32.3896 30.8058C32.4298 30.4588 32.3681 30.1076 32.212 29.795L19.612 4.59504H19.6102Z" fill="#C3DDFD"/>
<path d="M19.252 11.5745C19.1356 11.3422 18.9569 11.147 18.7358 11.0105C18.5148 10.874 18.2601 10.8018 18.0004 10.8018C17.7406 10.8018 17.4859 10.874 17.2649 11.0105C17.0439 11.147 16.8652 11.3422 16.7488 11.5745L6.94876 31.1745C6.82717 31.4175 6.77892 31.6906 6.80992 31.9606C6.84092 32.2306 6.94982 32.4857 7.12333 32.6948C7.29685 32.904 7.52748 33.0581 7.78709 33.1384C8.0467 33.2187 8.32407 33.2217 8.58536 33.1471L15.5854 31.1465C15.8779 31.0628 16.1353 30.8861 16.3184 30.643C16.5016 30.4 16.6005 30.104 16.6004 29.7997V23.4003C16.6004 23.029 16.7479 22.6729 17.0104 22.4103C17.273 22.1478 17.6291 22.0003 18.0004 22.0003C18.3717 22.0003 18.7278 22.1478 18.9903 22.4103C19.2529 22.6729 19.4004 23.029 19.4004 23.4003V29.7997C19.4002 30.104 19.4992 30.4 19.6823 30.643C19.8655 30.8861 20.1228 31.0628 20.4154 31.1465L27.4154 33.1457C27.6766 33.2205 27.9539 33.2176 28.2135 33.1375C28.4732 33.0574 28.7039 32.9035 28.8775 32.6945C29.0512 32.4855 29.1603 32.2305 29.1915 31.9606C29.2227 31.6907 29.1747 31.4176 29.0534 31.1745L19.2534 11.5745H19.252Z" fill="#1C64F2"/>
</svg>
