<svg width="36" height="36" viewBox="0 0 36 36" fill="none" xmlns="http://www.w3.org/2000/svg">
<path fill-rule="evenodd" clip-rule="evenodd" d="M11.9851 8.26848C12.1352 8.34141 12.1353 8.55534 11.9851 8.62828L7.43895 10.8365C7.27343 10.9169 7.08017 10.9169 6.91465 10.8365L2.3685 8.62828C2.21835 8.55534 2.21835 8.34141 2.3685 8.26848L6.91465 6.0603C7.08017 5.9799 7.27343 5.9799 7.43895 6.0603L11.9851 8.26848ZM12.0681 9.21703C12.2009 9.15253 12.3555 9.24928 12.3555 9.39694V14.4849C12.3555 14.6381 12.268 14.7778 12.1302 14.8447L7.43888 17.1226C7.2734 17.203 7.0802 17.203 6.91472 17.1226L2.22341 14.8447C2.08561 14.7778 1.99813 14.6381 1.99813 14.4849V9.39694C1.99813 9.24928 2.15266 9.15253 2.28549 9.21703L6.91472 11.4648C7.0802 11.5452 7.2734 11.5452 7.43888 11.4648L12.0681 9.21703Z" fill="#1C64F2"/>
<path fill-rule="evenodd" clip-rule="evenodd" d="M23.3704 8.26848C23.2202 8.34141 23.2202 8.55534 23.3704 8.62828L27.9165 10.8365C28.082 10.9169 28.2753 10.9169 28.4408 10.8365L32.987 8.62828C33.1371 8.55534 33.1371 8.34141 32.987 8.26848L28.4408 6.0603C28.2753 5.9799 28.082 5.9799 27.9165 6.0603L23.3704 8.26848ZM23.2874 9.21703C23.1545 9.15253 23 9.24928 23 9.39694V14.4849C23 14.6381 23.0875 14.7778 23.2253 14.8447L27.9166 17.1226C28.0821 17.203 28.2753 17.203 28.4407 17.1226L33.1321 14.8447C33.2699 14.7778 33.3573 14.6381 33.3573 14.4849V9.39694C33.3573 9.24928 33.2028 9.15253 33.07 9.21703L28.4407 11.4648C28.2753 11.5452 28.0821 11.5452 27.9166 11.4648L23.2874 9.21703Z" fill="#1C64F2"/>
<path d="M10.3555 13.5L17.3555 17" stroke="#76A9FA" stroke-linecap="round"/>
<path d="M25 13.5L18 17" stroke="#76A9FA" stroke-linecap="round"/>
<circle cx="17" cy="17" r="4" fill="#A4CAFE"/>
<path d="M19.3555 18L27.3555 22" stroke="#76A9FA" stroke-linecap="round"/>
<path fill-rule="evenodd" clip-rule="evenodd" d="M32.9851 20.2685C33.1352 20.3414 33.1353 20.5553 32.9851 20.6283L28.4389 22.8365C28.2734 22.9169 28.0802 22.9169 27.9147 22.8365L23.3685 20.6283C23.2183 20.5553 23.2183 20.3414 23.3685 20.2685L27.9147 18.0603C28.0802 17.9799 28.2734 17.9799 28.4389 18.0603L32.9851 20.2685ZM33.0681 21.217C33.2009 21.1525 33.3555 21.2493 33.3555 21.3969V26.4849C33.3555 26.6381 33.268 26.7778 33.1302 26.8447L28.4389 29.1226C28.2734 29.203 28.0802 29.203 27.9147 29.1226L23.2234 26.8447C23.0856 26.7778 22.9981 26.6381 22.9981 26.4849V21.3969C22.9981 21.2493 23.1527 21.1525 23.2855 21.217L27.9147 23.4648C28.0802 23.5452 28.2734 23.5452 28.4389 23.4648L33.0681 21.217Z" fill="#1C64F2"/>
<path d="M16 18L8 22" stroke="#76A9FA" stroke-linecap="round"/>
<path fill-rule="evenodd" clip-rule="evenodd" d="M2.37038 20.2685C2.22022 20.3414 2.22022 20.5553 2.37038 20.6283L6.91652 22.8365C7.08204 22.9169 7.2753 22.9169 7.44082 22.8365L11.987 20.6283C12.1371 20.5553 12.1371 20.3414 11.987 20.2685L7.44082 18.0603C7.2753 17.9799 7.08204 17.9799 6.91652 18.0603L2.37038 20.2685ZM2.28736 21.217C2.15453 21.1525 2 21.2493 2 21.3969V26.4849C2 26.6381 2.08748 26.7778 2.22528 26.8447L6.91659 29.1226C7.08207 29.203 7.27527 29.203 7.44075 29.1226L12.1321 26.8447C12.2699 26.7778 12.3573 26.6381 12.3573 26.4849V21.3969C12.3573 21.2493 12.2028 21.1525 12.07 21.217L7.44075 23.4648C7.27527 23.5452 7.08207 23.5452 6.91659 23.4648L2.28736 21.217Z" fill="#1C64F2"/>
</svg>
