<svg width="32" height="24" viewBox="0 0 32 24" fill="none" xmlns="http://www.w3.org/2000/svg">
<path d="M25.2222 22.8309C24.7368 23.1828 24.0938 23.1724 23.6188 22.8051L21.5749 21.2246C20.0466 20.0429 18.9461 18.3457 18.4552 16.4138L16.914 10.3476C16.7377 9.65401 17.0639 8.92782 17.684 8.63314L20.8589 7.12448C21.6089 6.76807 22.3878 6.4836 23.186 6.27449L23.3446 6.23296C24.2713 5.9902 25.242 6.00716 26.1606 6.28217C26.8421 6.4862 27.5057 6.75183 28.1441 7.07612L31.2145 8.6359C31.7995 8.93306 32.1109 9.61911 31.9638 10.2868L30.6889 16.0764C30.2183 18.2136 29.0073 20.0874 27.2943 21.329L25.2222 22.8309Z" fill="white"/>
<path d="M8.35504 23.0057C7.86959 23.3576 7.22664 23.3472 6.75158 22.9799L4.70768 21.3994C3.17945 20.2177 2.07891 18.5205 1.58804 16.5886L0.0467788 10.5224C-0.129448 9.82882 0.196727 9.10263 0.816851 8.80795L3.99169 7.29929C4.74172 6.94288 5.52057 6.6584 6.31884 6.44929L6.47738 6.40776C7.4041 6.165 8.37477 6.18197 9.29337 6.45698C9.97489 6.66101 10.6385 6.92664 11.2769 7.25092L14.3473 8.8107C14.9323 9.10787 15.2437 9.79391 15.0966 10.4616L13.8217 16.2512C13.3511 18.3884 12.1401 20.2622 10.4271 21.5038L8.35504 23.0057Z" fill="white"/>
<path d="M22.6172 13.7566L24.1428 14.8375L27.3464 12" stroke="#A4CAFE" stroke-width="2" stroke-linecap="round" stroke-linejoin="round"/>
<path d="M5.59375 13.7566L7.11931 14.8375L10.323 12" stroke="#A4CAFE" stroke-width="2" stroke-linecap="round" stroke-linejoin="round"/>
<path d="M17.0753 22.4053C16.4129 22.8599 15.5355 22.8466 14.8873 22.3719L12.0982 20.3297C10.0128 18.8027 8.511 16.6097 7.84118 14.1134L5.73799 6.27502C5.49751 5.37879 5.9426 4.44045 6.78882 4.05968L11.1212 2.11027C12.1446 1.64974 13.2075 1.28215 14.2968 1.01195L14.5131 0.958291C15.7777 0.644614 17.1023 0.666536 18.3558 1.02188C19.2858 1.28552 20.1913 1.62876 21.0624 2.04778L25.2524 4.06324C26.0506 4.44722 26.4755 5.33369 26.2749 6.19646L24.5351 13.6775C23.8929 16.439 22.2404 18.8602 19.9029 20.4646L17.0753 22.4053Z" fill="#0346FF"/>
<path d="M13.1602 12.0897L15.2959 13.8914L19.7811 9.16211" stroke="white" stroke-width="2" stroke-linecap="round" stroke-linejoin="round"/>
</svg>
