<svg width="31" height="22" viewBox="0 0 31 22" fill="none" xmlns="http://www.w3.org/2000/svg">
<rect y="0.310547" width="24" height="5.7931" rx="2" fill="#1C64F2"/>
<path d="M3.10427 3.96981C3.04012 4.01115 2.95515 4.00993 2.89237 3.96678L2.62225 3.78112C2.42029 3.6423 2.27484 3.44293 2.20997 3.21598L2.00628 2.50337C1.98299 2.42189 2.0261 2.33658 2.10805 2.30197L2.52763 2.12474C2.62675 2.08287 2.72968 2.04945 2.83518 2.02489L2.85613 2.02001C2.9786 1.99149 3.10688 1.99349 3.22828 2.02579C3.31835 2.04976 3.40605 2.08096 3.49041 2.11906L3.89619 2.30229C3.9735 2.3372 4.01465 2.41779 3.99522 2.49623L3.82673 3.17635C3.76453 3.4274 3.6045 3.64752 3.37811 3.79338L3.10427 3.96981Z" fill="white"/>
<path d="M3.10427 3.96981C3.04012 4.01115 2.95515 4.00993 2.89237 3.96678L2.62225 3.78112C2.42029 3.6423 2.27484 3.44293 2.20997 3.21598L2.00628 2.50337C1.98299 2.42189 2.0261 2.33658 2.10805 2.30197L2.52763 2.12474C2.62675 2.08287 2.72968 2.04945 2.83518 2.02489L2.85613 2.02001C2.9786 1.99149 3.10688 1.99349 3.22828 2.02579C3.31835 2.04976 3.40605 2.08096 3.49041 2.11906L3.89619 2.30229C3.9735 2.3372 4.01465 2.41779 3.99522 2.49623L3.82673 3.17635C3.76453 3.4274 3.6045 3.64752 3.37811 3.79338L3.10427 3.96981Z" fill="white"/>
<rect x="3" y="8.10352" width="24" height="5.7931" rx="2" fill="#76A9FA"/>
<path d="M6.10427 11.9698C6.04012 12.0111 5.95515 12.0099 5.89237 11.9668L5.62225 11.7811C5.42029 11.6423 5.27484 11.4429 5.20997 11.216L5.00628 10.5034C4.98299 10.4219 5.0261 10.3366 5.10805 10.302L5.52763 10.1247C5.62675 10.0829 5.72968 10.0495 5.83518 10.0249L5.85613 10.02C5.9786 9.99149 6.10688 9.99349 6.22828 10.0258C6.31835 10.0498 6.40605 10.081 6.49041 10.1191L6.89619 10.3023C6.9735 10.3372 7.01465 10.4178 6.99522 10.4962L6.82673 11.1763C6.76453 11.4274 6.6045 11.6475 6.37811 11.7934L6.10427 11.9698Z" fill="white"/>
<rect x="7" y="15.8965" width="24" height="5.7931" rx="2" fill="#C3DDFD"/>
<path d="M10.1043 19.9698C10.0401 20.0111 9.95515 20.0099 9.89237 19.9668L9.62225 19.7811C9.42029 19.6423 9.27484 19.4429 9.20997 19.216L9.00628 18.5034C8.98299 18.4219 9.0261 18.3366 9.10805 18.302L9.52763 18.1247C9.62675 18.0829 9.72968 18.0495 9.83518 18.0249L9.85613 18.02C9.9786 17.9915 10.1069 17.9935 10.2283 18.0258C10.3183 18.0498 10.406 18.081 10.4904 18.1191L10.8962 18.3023C10.9735 18.3372 11.0147 18.4178 10.9952 18.4962L10.8267 19.1763C10.7645 19.4274 10.6045 19.6475 10.3781 19.7934L10.1043 19.9698Z" fill="white"/>
</svg>
