<svg width="33" height="32" viewBox="0 0 33 32" fill="none" xmlns="http://www.w3.org/2000/svg">
<rect x="4.5" y="4" width="13.44" height="24" rx="2" fill="#1C64F2"/>
<path d="M7.60427 7.96981C7.54012 8.01115 7.45515 8.00993 7.39237 7.96678L7.12225 7.78112C6.92029 7.6423 6.77484 7.44293 6.70997 7.21598L6.50628 6.50337C6.48299 6.42189 6.5261 6.33658 6.60805 6.30197L7.02763 6.12474C7.12675 6.08287 7.22968 6.04945 7.33518 6.02489L7.35613 6.02001C7.4786 5.99149 7.60688 5.99349 7.72828 6.02579C7.81835 6.04976 7.90605 6.08096 7.99041 6.11906L8.39619 6.30229C8.4735 6.3372 8.51465 6.41779 8.49522 6.49623L8.32673 7.17635C8.26453 7.4274 8.1045 7.64752 7.87811 7.79338L7.60427 7.96981Z" fill="white"/>
<rect x="18.8984" y="4" width="9.6" height="13.3333" rx="2" fill="#76A9FA"/>
<path d="M21.6043 7.96981C21.5401 8.01115 21.4551 8.00993 21.3924 7.96678L21.1223 7.78112C20.9203 7.6423 20.7748 7.44293 20.71 7.21598L20.5063 6.50337C20.483 6.42189 20.5261 6.33658 20.6081 6.30197L21.0276 6.12474C21.1268 6.08287 21.2297 6.04945 21.3352 6.02489L21.3561 6.02001C21.4786 5.99149 21.6069 5.99349 21.7283 6.02579C21.8183 6.04976 21.906 6.08096 21.9904 6.11906L22.3962 6.30229C22.4735 6.3372 22.5147 6.41779 22.4952 6.49623L22.3267 7.17635C22.2645 7.4274 22.1045 7.64752 21.8781 7.79338L21.6043 7.96981Z" fill="white"/>
<rect x="18.8984" y="18.667" width="9.6" height="9.33333" rx="2" fill="#C3DDFD"/>
<path d="M21.6043 21.9698C21.5401 22.0111 21.4551 22.0099 21.3924 21.9668L21.1223 21.7811C20.9203 21.6423 20.7748 21.4429 20.71 21.216L20.5063 20.5034C20.483 20.4219 20.5261 20.3366 20.6081 20.302L21.0276 20.1247C21.1268 20.0829 21.2297 20.0495 21.3352 20.0249L21.3561 20.02C21.4786 19.9915 21.6069 19.9935 21.7283 20.0258C21.8183 20.0498 21.906 20.081 21.9904 20.1191L22.3962 20.3023C22.4735 20.3372 22.5147 20.4178 22.4952 20.4962L22.3267 21.1763C22.2645 21.4274 22.1045 21.6475 21.8781 21.7934L21.6043 21.9698Z" fill="white"/>
</svg>
