<svg width="32" height="32" viewBox="0 0 32 32" fill="none" xmlns="http://www.w3.org/2000/svg">
<path d="M15.5239 0.874232C15.5804 0.297131 16.4219 0.297131 16.4784 0.874232C16.5315 1.4159 17.3028 1.46443 17.4233 0.933681C17.5517 0.368213 18.3866 0.473685 18.3704 1.05332C18.3551 1.59736 19.1143 1.74219 19.3004 1.23073C19.4986 0.68581 20.3137 0.895094 20.2249 1.46812C20.1416 2.00595 20.8767 2.24479 21.1254 1.76069C21.3904 1.24492 22.1728 1.55471 22.0129 2.11208C21.8628 2.63523 22.5622 2.96432 22.8696 2.51521C23.1971 2.03671 23.9346 2.44212 23.7061 2.97506C23.4916 3.47528 24.1442 3.88942 24.5055 3.48238C24.8904 3.04871 25.5712 3.54335 25.2777 4.04345C25.0022 4.51284 25.5978 5.00551 26.0072 4.64695C26.4435 4.26495 27.0569 4.84102 26.7031 5.30039C26.3709 5.73155 26.9 6.29498 27.3512 5.99057C27.8319 5.66625 28.3683 6.31466 27.9596 6.72606C27.5761 7.11219 28.0304 7.73749 28.5161 7.49203C29.0337 7.23051 29.4846 7.94105 29.0276 8.29798C28.5987 8.63299 28.971 9.3103 29.4837 9.12766C30.03 8.93307 30.3883 9.69451 29.8902 9.99136C29.4226 10.27 29.7072 10.9886 30.2387 10.8717C30.805 10.7471 31.0651 11.5474 30.5337 11.7795C30.0349 11.9973 30.2271 12.7459 30.7691 12.6965C31.3466 12.6439 31.5043 13.4705 30.948 13.6342C30.4259 13.7878 30.5227 14.5546 31.0667 14.5735C31.6462 14.5937 31.699 15.4335 31.1266 15.5262C30.5893 15.6131 30.5893 16.386 31.1266 16.473C31.699 16.5656 31.6462 17.4055 31.0667 17.4256C30.5227 17.4445 30.4259 18.2114 30.948 18.3649C31.5043 18.5286 31.3466 19.3552 30.7691 19.3026C30.2271 19.2532 30.0349 20.0018 30.5337 20.2196C31.0651 20.4517 30.805 21.2521 30.2387 21.1275C29.7072 21.0105 29.4226 21.7291 29.8902 22.0078C30.3883 22.3046 30.03 23.0661 29.4837 22.8715C28.971 22.6888 28.5987 23.3661 29.0276 23.7011C29.4846 24.0581 29.0337 24.7686 28.5161 24.5071C28.0304 24.2616 27.5761 24.8869 27.9596 25.2731C28.3683 25.6845 27.8319 26.3329 27.3512 26.0086C26.9 25.7041 26.3709 26.2676 26.7031 26.6987C27.0569 27.1581 26.4435 27.7342 26.0072 27.3522C25.5978 26.9936 25.0022 27.4863 25.2777 27.9557C25.5712 28.4558 24.8904 28.9504 24.5055 28.5167C24.1442 28.1097 23.4916 28.5238 23.7061 29.0241C23.9346 29.557 23.1971 29.9624 22.8696 29.4839C22.5622 29.0348 21.8628 29.3639 22.0129 29.887C22.1728 30.4444 21.3904 30.7542 21.1254 30.2384C20.8767 29.7543 20.1416 29.9932 20.2249 30.531C20.3137 31.104 19.4986 31.3133 19.3004 30.7684C19.1143 30.2569 18.3551 30.4018 18.3704 30.9458C18.3866 31.5254 17.5517 31.6309 17.4233 31.0654C17.3028 30.5347 16.5315 30.5832 16.4784 31.1249C16.4219 31.702 15.5804 31.702 15.5239 31.1249C15.4708 30.5832 14.6995 30.5347 14.5789 31.0654C14.4506 31.6309 13.6157 31.5254 13.6319 30.9458C13.6472 30.4018 12.888 30.2569 12.7019 30.7684C12.5037 31.3133 11.6886 31.104 11.7773 30.531C11.8607 29.9932 11.1256 29.7543 10.8769 30.2384C10.6119 30.7542 9.82947 30.4444 9.98938 29.887C10.1395 29.3639 9.44012 29.0348 9.1327 29.4839C8.80516 29.9624 8.06772 29.557 8.29622 29.0241C8.5107 28.5238 7.85811 28.1097 7.49682 28.5167C7.1119 28.9504 6.43108 28.4558 6.72458 27.9557C7.00005 27.4863 6.40452 26.9936 5.99506 27.3522C5.55882 27.7342 4.94536 27.1581 5.29923 26.6987C5.63136 26.2676 5.10227 25.7041 4.6511 26.0086C4.17042 26.3329 3.63401 25.6845 4.04265 25.2731C4.42621 24.8869 3.9719 24.2616 3.48614 24.5071C2.96861 24.7686 2.51768 24.0581 2.97467 23.7011C3.4036 23.3661 3.03124 22.6888 2.51855 22.8715C1.97232 23.0661 1.61401 22.3046 2.11212 22.0078C2.57966 21.7291 2.29513 21.0105 1.76359 21.1275C1.19727 21.2521 0.937222 20.4517 1.46862 20.2196C1.96738 20.0018 1.77517 19.2532 1.23316 19.3026C0.655694 19.3552 0.498006 18.5286 1.0543 18.3649C1.57643 18.2114 1.47956 17.4445 0.935631 17.4256C0.356121 17.4055 0.303278 16.5656 0.875692 16.473C1.41296 16.386 1.41296 15.6131 0.875692 15.5262C0.303278 15.4335 0.356121 14.5937 0.935631 14.5735C1.47956 14.5546 1.57643 13.7878 1.0543 13.6342C0.498006 13.4705 0.655694 12.6439 1.23316 12.6965C1.77517 12.7459 1.96738 11.9973 1.46862 11.7795C0.937222 11.5474 1.19727 10.7471 1.76359 10.8717C2.29513 10.9886 2.57966 10.27 2.11212 9.99136C1.61401 9.69451 1.97232 8.93307 2.51855 9.12766C3.03124 9.3103 3.4036 8.63299 2.97467 8.29798C2.51768 7.94105 2.9686 7.23051 3.48614 7.49203C3.9719 7.73749 4.42621 7.11219 4.04265 6.72606C3.63401 6.31466 4.17042 5.66625 4.6511 5.99057C5.10227 6.29498 5.63136 5.73155 5.29923 5.30039C4.94536 4.84102 5.55882 4.26495 5.99506 4.64696C6.40452 5.00551 7.00005 4.51284 6.72458 4.04345C6.43108 3.54335 7.1119 3.04871 7.49682 3.48238C7.85811 3.88942 8.5107 3.47528 8.29623 2.97506C8.06772 2.44213 8.80516 2.03671 9.1327 2.51521C9.44012 2.96432 10.1395 2.63523 9.98938 2.11208C9.82947 1.55471 10.6119 1.24492 10.8769 1.76069C11.1256 2.24479 11.8607 2.00595 11.7773 1.46812C11.6886 0.895094 12.5037 0.685811 12.7019 1.23073C12.888 1.74219 13.6472 1.59736 13.6319 1.05332C13.6157 0.473686 14.4506 0.368213 14.5789 0.933681C14.6995 1.46443 15.4708 1.4159 15.5239 0.874232Z" fill="white"/>
<path d="M22 14.268C23.3333 15.0378 23.3333 16.9623 22 17.7321L14.5 22.0622C13.1667 22.832 11.5 21.8697 11.5 20.3301L11.5 11.6699C11.5 10.1303 13.1667 9.16802 14.5 9.93782L22 14.268Z" fill="#0346FF"/>
</svg>
