<svg width="33" height="32" viewBox="0 0 33 32" fill="none" xmlns="http://www.w3.org/2000/svg">
<rect x="6" y="3" width="21" height="26" rx="2" fill="#C3DDFD"/>
<rect x="4" y="5" width="25" height="5.7931" rx="2" fill="#1C64F2"/>
<path d="M7.23492 8.65927C7.16809 8.7006 7.07958 8.69939 7.01418 8.65623L6.73281 8.47057C6.52243 8.33175 6.37093 8.13238 6.30336 7.90543L6.09118 7.19282C6.06692 7.11134 6.11182 7.02604 6.19719 6.99142L6.63425 6.81419C6.7375 6.77233 6.84472 6.73891 6.95461 6.71434L6.97644 6.70946C7.10401 6.68095 7.23764 6.68294 7.36409 6.71525C7.45791 6.73921 7.54927 6.77042 7.63715 6.80851L8.05984 6.99174C8.14036 7.02665 8.18323 7.10724 8.16299 7.18568L7.98748 7.8658C7.92269 8.11686 7.75599 8.33697 7.52017 8.48283L7.23492 8.65927Z" fill="white"/>
<path d="M7.23492 8.65927C7.16809 8.7006 7.07958 8.69939 7.01418 8.65623L6.73281 8.47057C6.52243 8.33175 6.37093 8.13238 6.30336 7.90543L6.09118 7.19282C6.06692 7.11134 6.11182 7.02604 6.19719 6.99142L6.63425 6.81419C6.7375 6.77233 6.84472 6.73891 6.95461 6.71434L6.97644 6.70946C7.10401 6.68095 7.23764 6.68294 7.36409 6.71525C7.45791 6.73921 7.54927 6.77042 7.63715 6.80851L8.05984 6.99174C8.14036 7.02665 8.18323 7.10724 8.16299 7.18568L7.98748 7.8658C7.92269 8.11686 7.75599 8.33697 7.52017 8.48283L7.23492 8.65927Z" fill="white"/>
<rect x="4" y="12.793" width="25" height="5.7931" rx="2" fill="#76A9FA"/>
<path d="M7.23492 16.6593C7.16809 16.7006 7.07958 16.6994 7.01418 16.6562L6.73281 16.4706C6.52243 16.3318 6.37093 16.1324 6.30336 15.9054L6.09118 15.1928C6.06692 15.1113 6.11182 15.026 6.19719 14.9914L6.63425 14.8142C6.7375 14.7723 6.84472 14.7389 6.95461 14.7143L6.97644 14.7095C7.10401 14.6809 7.23764 14.6829 7.36409 14.7152C7.45791 14.7392 7.54927 14.7704 7.63715 14.8085L8.05984 14.9917C8.14036 15.0267 8.18323 15.1072 8.16299 15.1857L7.98748 15.8658C7.92269 16.1169 7.75599 16.337 7.52017 16.4828L7.23492 16.6593Z" fill="white"/>
<rect x="4" y="20.5859" width="25" height="5.7931" rx="2" fill="#A4CAFE"/>
<path d="M7.23492 24.6593C7.16809 24.7006 7.07958 24.6994 7.01418 24.6562L6.73281 24.4706C6.52243 24.3318 6.37093 24.1324 6.30336 23.9054L6.09118 23.1928C6.06692 23.1113 6.11182 23.026 6.19719 22.9914L6.63425 22.8142C6.7375 22.7723 6.84472 22.7389 6.95461 22.7143L6.97644 22.7095C7.10401 22.6809 7.23764 22.6829 7.36409 22.7152C7.45791 22.7392 7.54927 22.7704 7.63715 22.8085L8.05984 22.9917C8.14036 23.0267 8.18323 23.1072 8.16299 23.1857L7.98748 23.8658C7.92269 24.1169 7.75599 24.337 7.52017 24.4828L7.23492 24.6593Z" fill="white"/>
</svg>
