<svg width="33" height="32" viewBox="0 0 33 32" fill="none" xmlns="http://www.w3.org/2000/svg">
<path fill-rule="evenodd" clip-rule="evenodd" d="M26.0981 28.8002H19.8401C18.0583 28.8002 17.166 26.6459 18.4259 25.386L24.0259 19.786C24.401 19.4109 24.9097 19.2002 25.4401 19.2002H26.0981C26.9468 19.2002 27.7607 19.5373 28.3609 20.1375C28.961 20.7376 29.2981 21.5515 29.2981 22.4002V25.6002C29.2981 26.4489 28.961 27.2628 28.3609 27.8629C27.7607 28.4631 26.9468 28.8002 26.0981 28.8002Z" fill="#C3DDFD"/>
<path fill-rule="evenodd" clip-rule="evenodd" d="M16.5 17.9609C16.5 19.7427 18.6543 20.6351 19.9142 19.3751L24.34 14.9493C24.9399 14.3493 25.2769 13.5355 25.2769 12.6869C25.2769 11.8384 24.9399 11.0246 24.34 10.4245L22.076 8.16055C21.4759 7.56064 20.6621 7.22363 19.8136 7.22363C18.9651 7.22363 18.1513 7.56064 17.5512 8.16055L17.0858 8.62596C16.7107 9.00104 16.5 9.50974 16.5 10.0402V17.9609Z" fill="#76A9FA"/>
<path fill-rule="evenodd" clip-rule="evenodd" d="M6.89922 3.2002C6.05053 3.2002 5.23659 3.53734 4.63648 4.13745C4.03636 4.73757 3.69922 5.5515 3.69922 6.4002V24.0002C3.69922 25.2732 4.20493 26.4941 5.10511 27.3943C6.00528 28.2945 7.22618 28.8002 8.49922 28.8002C9.77226 28.8002 10.9932 28.2945 11.8933 27.3943C12.7935 26.4941 13.2992 25.2732 13.2992 24.0002V6.4002C13.2992 5.5515 12.9621 4.73757 12.362 4.13745C11.7618 3.53734 10.9479 3.2002 10.0992 3.2002H6.89922ZM8.49922 25.6002C8.92356 25.6002 9.33053 25.4316 9.63059 25.1316C9.93065 24.8315 10.0992 24.4245 10.0992 24.0002C10.0992 23.5758 9.93065 23.1689 9.63059 22.8688C9.33053 22.5688 8.92356 22.4002 8.49922 22.4002C8.07487 22.4002 7.66791 22.5688 7.36785 22.8688C7.06779 23.1689 6.89922 23.5758 6.89922 24.0002C6.89922 24.4245 7.06779 24.8315 7.36785 25.1316C7.66791 25.4316 8.07487 25.6002 8.49922 25.6002Z" fill="#1C64F2"/>
</svg>
